<svg xmlns="http://www.w3.org/2000/svg" xmlns:xlink="http://www.w3.org/1999/xlink" xmlns:lucid="lucid" width="2002" height="1122"><g transform="translate(121 -319)" lucid:page-tab-id="I4YRlB1dIS42"><path d="M580.78 580h590.45M580 579.16v2.56" stroke="#3a414a" stroke-width="5" fill="none"/><path d="M1185.02 581.26l-13.62 6.3 1.37-14.95z" stroke="#3a414a" stroke-width="5" fill="#3a414a"/><use xlink:href="#a" transform="matrix(1,0,0,1,767.7419704861111,549.1119791666666) translate(0.0049999999999954525 21.52777777777778)"/><path d="M-120 326a6 6 0 0 1 6-6h248a6 6 0 0 1 6 6v68a6 6 0 0 1-6 6h-248a6 6 0 0 1-6-6z" stroke="#ba23f6" stroke-width="2" fill="#fff0fb"/><use xlink:href="#b" transform="matrix(1,0,0,1,-120,320) translate(24.10873263888889 51.388888888888886)"/><use xlink:href="#c" transform="matrix(1,0,0,1,-120,320) translate(142.21854166666668 51.388888888888886)"/><path d="M440 326a6 6 0 0 1 6-6h268a6 6 0 0 1 6 6v68a6 6 0 0 1-6 6H446a6 6 0 0 1-6-6z" stroke="#00c2a8" stroke-width="2" fill="#d7faf5"/><use xlink:href="#d" transform="matrix(1,0,0,1,440,320) translate(8.55751736111109 51.388888888888886)"/><use xlink:href="#e" transform="matrix(1,0,0,1,440,320) translate(110.99024305555555 51.388888888888886)"/><path d="M1600 326a6 6 0 0 1 6-6h268a6 6 0 0 1 6 6v68a6 6 0 0 1-6 6h-268a6 6 0 0 1-6-6z" stroke="#1071e5" stroke-width="2" fill="#edf5ff"/><use xlink:href="#f" transform="matrix(1,0,0,1,1600,320) translate(12.537552083333319 51.388888888888886)"/><use xlink:href="#g" transform="matrix(1,0,0,1,1600,320) translate(128.36871527777777 51.388888888888886)"/><path d="M1040 326a6 6 0 0 1 6-6h288a6 6 0 0 1 6 6v68a6 6 0 0 1-6 6h-288a6 6 0 0 1-6-6z" stroke="#fc9432" stroke-width="2" fill="#fff3d9"/><use xlink:href="#h" transform="matrix(1,0,0,1,1040,320) translate(11.43295138888889 51.388888888888886)"/><use xlink:href="#i" transform="matrix(1,0,0,1,1040,320) translate(159.07401041666665 51.388888888888886)"/><path d="M1040 1366a6 6 0 0 1 6-6h288a6 6 0 0 1 6 6v68a6 6 0 0 1-6 6h-288a6 6 0 0 1-6-6z" stroke="#fc9432" stroke-width="2" fill="#fff3d9"/><use xlink:href="#h" transform="matrix(1,0,0,1,1040,1360) translate(11.43295138888889 51.388888888888886)"/><use xlink:href="#i" transform="matrix(1,0,0,1,1040,1360) translate(159.07401041666665 51.388888888888886)"/><path d="M1600 1366a6 6 0 0 1 6-6h268a6 6 0 0 1 6 6v68a6 6 0 0 1-6 6h-268a6 6 0 0 1-6-6z" stroke="#1071e5" stroke-width="2" fill="#edf5ff"/><use xlink:href="#f" transform="matrix(1,0,0,1,1600,1360) translate(12.537552083333319 51.388888888888886)"/><use xlink:href="#g" transform="matrix(1,0,0,1,1600,1360) translate(128.36871527777777 51.388888888888886)"/><path d="M440 1366a6 6 0 0 1 6-6h268a6 6 0 0 1 6 6v68a6 6 0 0 1-6 6H446a6 6 0 0 1-6-6z" stroke="#00c2a8" stroke-width="2" fill="#d7faf5"/><use xlink:href="#d" transform="matrix(1,0,0,1,440,1360) translate(8.55751736111109 51.388888888888886)"/><use xlink:href="#e" transform="matrix(1,0,0,1,440,1360) translate(110.99024305555555 51.388888888888886)"/><path d="M-120 1366a6 6 0 0 1 6-6h248a6 6 0 0 1 6 6v68a6 6 0 0 1-6 6h-248a6 6 0 0 1-6-6z" stroke="#ba23f6" stroke-width="2" fill="#fff0fb"/><use xlink:href="#b" transform="matrix(1,0,0,1,-120,1360) translate(24.10873263888889 51.388888888888886)"/><use xlink:href="#c" transform="matrix(1,0,0,1,-120,1360) translate(142.21854166666668 51.388888888888886)"/><path d="M10 403.5v953" stroke="#3a414a" stroke-width="5" fill="none"/><path d="M12.47 403.56H7.52V401h4.96zM12.47 1359H7.52v-2.56h4.96z" stroke="#3a414a" stroke-width=".05" fill="#3a414a"/><path d="M1190 403.5v953" stroke="#3a414a" stroke-width="5" fill="none"/><path d="M1192.47 403.56h-4.94V401h4.94zM1192.47 1359h-4.94v-2.56h4.94z" stroke="#3a414a" stroke-width=".05" fill="#3a414a"/><path d="M1740 403.5v953" stroke="#3a414a" stroke-width="5" fill="none"/><path d="M1742.47 403.56h-4.94V401h4.94zM1742.47 1359h-4.94v-2.56h4.94z" stroke="#3a414a" stroke-width=".05" fill="#3a414a"/><path d="M580 403.5v953" stroke="#3a414a" stroke-width="5" fill="none"/><path d="M582.48 403.56h-4.96V401h4.96zM582.48 1359h-4.96v-2.56h4.96z" stroke="#3a414a" stroke-width=".05" fill="#3a414a"/><path d="M1150 1026a6 6 0 0 1 6-6h28a6 6 0 0 1 6 6v188a6 6 0 0 1-6 6h-28a6 6 0 0 1-6-6z" stroke="#fc9432" stroke-width="5" fill="#fff3d9"/><path d="M560 546a6 6 0 0 1 6-6h28a6 6 0 0 1 6 6v728a6 6 0 0 1-6 6h-28a6 6 0 0 1-6-6z" stroke="#00c2a8" stroke-width="5" fill="#d7faf5"/><path d="M539.48 540H12.5" stroke="#3a414a" stroke-width="5" fill="none"/><path d="M554.97 540l-13 7.5v-15z" stroke="#3a414a" stroke-width="5" fill="#3a414a"/><path d="M12.56 540H10" stroke="#3a414a" stroke-width="5" fill="none"/><use xlink:href="#j" transform="matrix(1,0,0,1,167.55074703013696,543.9966637703) translate(0.0049999999999954525 23.680555555555554)"/><path d="M537 967.7H12.5" stroke="#3a414a" stroke-width="5" fill="none"/><path d="M552.5 967.7l-13 7.5v-15z" stroke="#3a414a" stroke-width="5" fill="#3a414a"/><path d="M12.56 967.7H10" stroke="#3a414a" stroke-width="5" fill="none"/><use xlink:href="#k" transform="matrix(1,0,0,1,144.81228298611111,971.6866966136989) translate(0.0049999999999954525 21.52777777777778)"/><path d="M555 1274.1h-7.5m-9.98 0h-15m-9.98 0h-15m-9.98 0h-14.98m-10 0H447.6m-10 0h-14.98m-10 0h-14.97m-10 0h-14.98m-10 0H347.7m-10 0h-14.98m-10 0h-14.98m-10 0h-14.98m-10 0H247.8m-10 0h-15m-9.98 0h-15m-9.98 0h-14.98m-10 0H147.9m-10 0H122.9m-10 0H97.94m-10 0H72.96m-10 0H47.98m-10 0H30.5" stroke="#3a414a" stroke-width="5" fill="none"/><path d="M557.5 1274.1l.1 1.23.3 1.24h-2.96v-4.95h2.56z" stroke="#3a414a" stroke-width=".05" fill="#3a414a"/><path d="M15 1274.1l13-7.5v15z" stroke="#3a414a" stroke-width="5" fill="#3a414a"/><use xlink:href="#l" transform="matrix(1,0,0,1,117.35948350694446,1278.0983385015302) translate(0.0049999999999954525 23.680555555555554)"/><use xlink:href="#m" transform="matrix(1,0,0,1,117.35948350694446,1278.0983385015302) translate(79.75977430555555 23.680555555555554)"/><use xlink:href="#n" transform="matrix(1,0,0,1,117.35948350694446,1278.0983385015302) translate(185.46289930555554 23.680555555555554)"/><path d="M605 1016.48h530.3" stroke="#3a414a" stroke-width="5" fill="none"/><path d="M605.06 1018.95h-2.56V1014h2.56z" stroke="#3a414a" stroke-width=".05" fill="#3a414a"/><path d="M1149.68 1017.3l-13.4 6.75.86-14.98z" stroke="#3a414a" stroke-width="5" fill="#3a414a"/><use xlink:href="#o" transform="matrix(1,0,0,1,836.0848697551385,982.9007995767145) translate(0.0049999999999954525 23.680555555555554)"/><path d="M623 820.46h7.35m9.82 0h14.73m9.82 0h14.72m9.82 0H704m9.8 0h14.73m9.82 0h14.72m9.82 0h14.72m9.8 0h14.74m9.82 0h14.73m9.82 0h14.73m9.82 0h14.72m9.8 0h14.74m9.8 0h14.74m9.82 0h14.72m9.82 0h14.73m9.82 0h14.7m9.83 0h14.73m9.8 0h14.74m9.82 0h14.72m9.82 0h14.73m9.8 0h14.73m9.82 0h14.73m9.8 0h14.74m9.82 0h7.36" stroke="#3a414a" stroke-width="5" fill="none"/><path d="M607.5 820.46l13-7.5v15z" stroke="#3a414a" stroke-width="5" fill="#3a414a"/><path d="M1187.44 820.46h2.56" stroke="#3a414a" stroke-width="5" fill="none"/><use xlink:href="#p" transform="matrix(1,0,0,1,778.1239149305555,789.5699169855346) translate(0.0049999999999954525 21.52777777777778)"/><path d="M1191.9 660h528.22M1190 661.95v-2.56" stroke="#3a414a" stroke-width="5" fill="none"/><path d="M1735 659.54l-12.75 7.9-.46-15z" stroke="#3a414a" stroke-width="5" fill="#3a414a"/><path d="M1209.84 750h7.5m9.97 0h15m9.97 0h14.98m9.98 0h14.98m10 0h14.97m9.98 0h14.98m9.98 0h15m9.97 0h14.98m9.98 0H1417m10 0h14.97m9.98 0h14.98m9.98 0h15m9.97 0h14.98m9.98 0h14.98m10 0h14.97m9.98 0h14.98m9.98 0h15m9.97 0h14.98m9.98 0h14.98m10 0h14.97m9.98 0h14.98m9.98 0h7.5a6 6 0 0 1 6 6v9.96m0 13.3v9.95" stroke="#3a414a" stroke-width="5" fill="none"/><path d="M1195 750.5l12.73-7.93.5 15z" stroke="#3a414a" stroke-width="5" fill="#3a414a"/><path d="M1740 789.14v2.57M1195 1120h524.5" stroke="#3a414a" stroke-width="5" fill="none"/><path d="M1195.06 1122.47h-2.56v-4.94h2.56z" stroke="#3a414a" stroke-width=".05" fill="#3a414a"/><path d="M1735 1120l-13 7.5v-15z" stroke="#3a414a" stroke-width="5" fill="#3a414a"/><use xlink:href="#q" transform="matrix(1,0,0,1,1292.4110243055557,1089.1119791666667) translate(0.0049999999999954525 21.52777777777778)"/><path d="M1211.27 1219.12h7.52m10 0h15.05m10.02 0h15.03m10.03 0h15.03m10.02 0h15.04m10.02 0h15.04m10.02 0h15.04m10.02 0h15.04m10.02 0h15.04m10.02 0h15.03m10.04 0h15.03m10.03 0h15.03m10.02 0h15.04m10 0h15.05m10.02 0h15.04m10.03 0h15.04m10.02 0h15.02m10.03 0h15.03m10.03 0h15.04m10.03 0h15.03m10.02 0h15.04m10.02 0h7.52" stroke="#3a414a" stroke-width="5" fill="none"/><path d="M1195.78 1219.12l13-7.5v15z" stroke="#3a414a" stroke-width="5" fill="#3a414a"/><path d="M1737.44 1219.12h2.56" stroke="#3a414a" stroke-width="5" fill="none"/><g><use xlink:href="#r" transform="matrix(1,0,0,1,1373.451017894182,1188.2355999542158) translate(0.0049999999999954525 21.52777777777778)"/></g><path d="M-20 426a6 6 0 0 1 6-6h1868a6 6 0 0 1 6 6v68a6 6 0 0 1-6 6H-14a6 6 0 0 1-6-6z" stroke="#fc9432" stroke-width="5" fill="#fff7a1"/><g><use xlink:href="#s" transform="matrix(1,0,0,1,-20,420) translate(656.15734375 54.6875)"/><use xlink:href="#t" transform="matrix(1,0,0,1,-20,420) translate(731.4503125 54.6875)"/><use xlink:href="#u" transform="matrix(1,0,0,1,-20,420) translate(847.1534375 54.6875)"/></g><path d="M1376.7 606a6 6 0 0 1 6-6h202.94a6 6 0 0 1 6 6v30.28a6 6 0 0 1-6 6H1382.7a6 6 0 0 1-6-6z" fill="none"/><g><use xlink:href="#v" transform="matrix(1,0,0,1,1381.7057291666667,605) translate(0 26.200520833333336)"/></g><path d="M1380 766a6 6 0 0 1 6-6h199.64a6 6 0 0 1 6 6v30.28a6 6 0 0 1-6 6H1386a6 6 0 0 1-6-6z" fill="none"/><g><use xlink:href="#w" transform="matrix(1,0,0,1,1385,765) translate(0 26.200520833333336)"/></g><defs><path fill="#333" d="M611 442c-248 0-391-105-460-228l146-94c47 65 117 165 314 165 178 0 307-82 307-266v-224h-17C863-141 792-18 576-18c-268 0-472-195-472-546 0-346 197-568 476-568 216 0 288 133 326 193h17v-179h175V29c0 289-215 413-487 413zm-5-620c203 0 314-146 314-390 0-237-108-403-314-403-213 0-319 180-319 403 0 230 109 390 319 390" id="x"/><path fill="#333" d="M628 24c-324 0-524-230-524-574 0-343 198-582 503-582 237 0 487 146 487 559v75H286c9 234 145 362 343 362 132 0 231-58 273-172l174 48C1024-91 857 24 628 24zM287-650h624c-17-190-120-322-304-322-192 0-309 151-320 322" id="y"/><path fill="#333" d="M598-1118v154H368v674c0 100 37 144 132 144 23 0 62-6 92-12L629-6c-37 13-88 20-134 20-193 0-307-107-307-290v-688H20v-154h168v-266h180v266h230" id="z"/><path fill="#333" d="M657 26c-323 0-524-166-541-416h195c15 169 171 246 346 246 202 0 356-106 356-265 5-203-294-238-475-293-239-73-380-191-380-389 0-252 224-419 512-419 294 0 499 171 508 396H992c-17-145-151-228-328-228-193 0-321 102-321 242 0 156 175 211 284 241l149 41c160 44 422 134 422 412 0 244-197 432-541 432" id="A"/><path fill="#333" d="M338-670V0H158v-1490h180v566c73-149 190-208 336-208 226 0 379 139 379 422V0H872v-695c0-172-96-275-252-275-161 0-282 109-282 300" id="B"/><path fill="#333" d="M158 0v-1118h180V0H158zm91-1301c-68 0-125-53-125-119s57-119 125-119c69 0 126 53 126 119s-57 119-126 119" id="C"/><path fill="#333" d="M158 418v-1536h174v179h20c37-59 106-193 324-193 279 0 474 222 474 576 0 356-194 580-473 580-213 0-288-135-325-197h-14v591H158zm492-555c209 0 317-186 317-421 0-232-105-413-317-413-206 0-314 166-314 413 0 249 111 421 314 421" id="D"/><path fill="#333" d="M158 0v-1118h175l1 205c55-151 181-225 313-225 147 0 245 90 285 228 53-141 190-228 352-228 194 0 352 125 352 384V0h-181v-749c0-161-105-225-225-225-151 0-243 103-243 244V0H807v-767c0-124-93-207-219-207-131 0-250 92-250 270V0H158" id="E"/><path fill="#333" d="M338-670V0H158v-1118h173l1 207c72-158 192-221 342-221 226 0 378 139 378 422V0H872v-695c0-172-96-275-252-275-161 0-282 109-282 300" id="F"/><path fill="#333" d="M471 26C259 26 90-98 90-318c0-256 228-303 435-329 202-27 287-16 287-108 0-139-79-219-234-219-161 0-248 86-283 164l-173-57c86-203 278-265 451-265 150 0 419 46 419 395V0H815v-152h-12C765-73 660 26 471 26zm31-159c199 0 310-134 310-271v-155c-30 35-226 55-295 64-131 17-246 59-246 186 0 116 97 176 231 176" id="G"/><path fill="#333" d="M537 14c-226 0-379-139-379-422v-710h180v695c0 172 97 275 253 275 160 0 281-109 281-300v-670h181V0H879v-209C806-46 684 14 537 14" id="H"/><path fill="#333" d="M538 24C308 24 148-78 108-271l171-41c32 123 123 178 257 178 156 0 256-77 256-169 0-77-54-128-164-154l-186-44c-203-48-300-148-300-305 0-192 176-326 414-326 230 0 351 112 402 269l-163 42c-31-80-94-158-238-158-133 0-233 69-233 162 0 83 57 129 188 160l169 40c203 48 298 149 298 302 0 196-179 339-441 339" id="I"/><path fill="#333" d="M218-607c0-325 108-727 258-974h175c-155 315-250 682-250 974 0 265 78 531 250 886H476C306-10 218-315 218-607" id="J"/><path fill="#333" d="M577 24c-279 0-473-224-473-580 0-354 195-576 474-576 218 0 287 134 324 193h14v-551h180V0H922v-173h-20C865-111 790 24 577 24zm27-161c203 0 314-172 314-421 0-247-108-413-314-413-212 0-317 181-317 413 0 235 108 421 317 421" id="K"/><path fill="#333" d="M96 279C273-86 346-350 346-607c0-292-95-659-250-974h175c150 246 258 650 258 974 0 297-91 602-258 886H96" id="L"/><g id="a"><use transform="matrix(0.010850694444444444,0,0,0.010850694444444444,0,0)" xlink:href="#x"/><use transform="matrix(0.010850694444444444,0,0,0.010850694444444444,13.628472222222221,0)" xlink:href="#y"/><use transform="matrix(0.010850694444444444,0,0,0.010850694444444444,26.58420138888889,0)" xlink:href="#z"/><use transform="matrix(0.010850694444444444,0,0,0.010850694444444444,33.854166666666664,0)" xlink:href="#A"/><use transform="matrix(0.010850694444444444,0,0,0.010850694444444444,48.111979166666664,0)" xlink:href="#B"/><use transform="matrix(0.010850694444444444,0,0,0.010850694444444444,61.252170138888886,0)" xlink:href="#C"/><use transform="matrix(0.010850694444444444,0,0,0.010850694444444444,66.63411458333333,0)" xlink:href="#D"/><use transform="matrix(0.010850694444444444,0,0,0.010850694444444444,80.24088541666666,0)" xlink:href="#E"/><use transform="matrix(0.010850694444444444,0,0,0.010850694444444444,99.70703124999997,0)" xlink:href="#y"/><use transform="matrix(0.010850694444444444,0,0,0.010850694444444444,112.66276041666666,0)" xlink:href="#F"/><use transform="matrix(0.010850694444444444,0,0,0.010850694444444444,125.79210069444441,0)" xlink:href="#z"/><use transform="matrix(0.010850694444444444,0,0,0.010850694444444444,133.0620659722222,0)" xlink:href="#A"/><use transform="matrix(0.010850694444444444,0,0,0.010850694444444444,147.3198784722222,0)" xlink:href="#z"/><use transform="matrix(0.010850694444444444,0,0,0.010850694444444444,154.69835069444443,0)" xlink:href="#G"/><use transform="matrix(0.010850694444444444,0,0,0.010850694444444444,167.17664930555554,0)" xlink:href="#z"/><use transform="matrix(0.010850694444444444,0,0,0.010850694444444444,174.44661458333331,0)" xlink:href="#H"/><use transform="matrix(0.010850694444444444,0,0,0.010850694444444444,187.58680555555554,0)" xlink:href="#I"/><use transform="matrix(0.010850694444444444,0,0,0.010850694444444444,199.31640625,0)" xlink:href="#J"/><use transform="matrix(0.010850694444444444,0,0,0.010850694444444444,207.421875,0)" xlink:href="#C"/><use transform="matrix(0.010850694444444444,0,0,0.010850694444444444,212.80381944444449,0)" xlink:href="#K"/><use transform="matrix(0.010850694444444444,0,0,0.010850694444444444,226.4105902777778,0)" xlink:href="#L"/></g><path d="M783 20c-382 0-661-292-661-764 0-473 279-766 661-766 302 0 548 182 601 489h-190c-42-204-217-313-411-313-268 0-476 208-476 590 0 381 209 588 476 588 195 0 369-110 411-313h190c-52 303-296 489-601 489" id="M"/><path d="M613 24c-304 0-509-231-509-576 0-350 205-580 509-580 305 0 511 230 511 580 0 345-206 576-511 576zm0-161c226 0 329-195 329-415 0-222-103-419-329-419-223 0-326 196-326 419 0 220 103 415 326 415" id="N"/><path d="M537 14c-226 0-379-139-379-422v-710h180v695c0 172 97 275 253 275 160 0 281-109 281-300v-670h181V0H879v-209C806-46 684 14 537 14" id="O"/><path d="M158 0v-1118h174v172h12c41-113 157-188 290-188 26 0 70 2 91 3v181c-11-2-60-10-108-10-161 0-279 109-279 260V0H158" id="P"/><path d="M158 0v-1118h180V0H158zm91-1301c-68 0-125-53-125-119s57-119 125-119c69 0 126 53 126 119s-57 119-126 119" id="Q"/><path d="M628 24c-324 0-524-230-524-574 0-343 198-582 503-582 237 0 487 146 487 559v75H286c9 234 145 362 343 362 132 0 231-58 273-172l174 48C1024-91 857 24 628 24zM287-650h624c-17-190-120-322-304-322-192 0-309 151-320 322" id="R"/><g id="b"><use transform="matrix(0.015190972222222222,0,0,0.015190972222222222,0,0)" xlink:href="#M"/><use transform="matrix(0.015190972222222222,0,0,0.015190972222222222,22.725694444444443,0)" xlink:href="#N"/><use transform="matrix(0.015190972222222222,0,0,0.015190972222222222,41.38020833333333,0)" xlink:href="#O"/><use transform="matrix(0.015190972222222222,0,0,0.015190972222222222,59.77647569444444,0)" xlink:href="#P"/><use transform="matrix(0.015190972222222222,0,0,0.015190972222222222,71.97482638888889,0)" xlink:href="#Q"/><use transform="matrix(0.015190972222222222,0,0,0.015190972222222222,79.50954861111111,0)" xlink:href="#R"/><use transform="matrix(0.015190972222222222,0,0,0.015190972222222222,97.64756944444444,0)" xlink:href="#P"/></g><path d="M52 0l541-1490h220L1361 0h-200l-149-416H398L254 0H52zm404-582h497c-103-290-145-390-251-756-108 377-145 460-246 756" id="S"/><path d="M577 24c-279 0-473-224-473-580 0-354 195-576 474-576 218 0 287 134 324 193h14v-551h180V0H922v-173h-20C865-111 790 24 577 24zm27-161c203 0 314-172 314-421 0-247-108-413-314-413-212 0-317 181-317 413 0 235 108 421 317 421" id="T"/><path d="M158 0v-1118h175l1 205c55-151 181-225 313-225 147 0 245 90 285 228 53-141 190-228 352-228 194 0 352 125 352 384V0h-181v-749c0-161-105-225-225-225-151 0-243 103-243 244V0H807v-767c0-124-93-207-219-207-131 0-250 92-250 270V0H158" id="U"/><path d="M338-670V0H158v-1118h173l1 207c72-158 192-221 342-221 226 0 378 139 378 422V0H872v-695c0-172-96-275-252-275-161 0-282 109-282 300" id="V"/><g id="c"><use transform="matrix(0.015190972222222222,0,0,0.015190972222222222,0,0)" xlink:href="#S"/><use transform="matrix(0.015190972222222222,0,0,0.015190972222222222,21.46484375,0)" xlink:href="#T"/><use transform="matrix(0.015190972222222222,0,0,0.015190972222222222,40.51432291666667,0)" xlink:href="#U"/><use transform="matrix(0.015190972222222222,0,0,0.015190972222222222,67.76692708333334,0)" xlink:href="#Q"/><use transform="matrix(0.015190972222222222,0,0,0.015190972222222222,75.30164930555557,0)" xlink:href="#V"/></g><g id="d"><use transform="matrix(0.015190972222222222,0,0,0.015190972222222222,0,0)" xlink:href="#S"/><use transform="matrix(0.015190972222222222,0,0,0.015190972222222222,21.46484375,0)" xlink:href="#T"/><use transform="matrix(0.015190972222222222,0,0,0.015190972222222222,40.51432291666667,0)" xlink:href="#U"/><use transform="matrix(0.015190972222222222,0,0,0.015190972222222222,67.76692708333334,0)" xlink:href="#Q"/><use transform="matrix(0.015190972222222222,0,0,0.015190972222222222,75.30164930555557,0)" xlink:href="#V"/></g><path d="M645 0H180v-1490h484c435 0 692 280 692 742 0 466-257 748-711 748zM370-168h263c363 0 539-218 539-580 0-358-176-574-521-574H370v1154" id="W"/><path d="M471 26C259 26 90-98 90-318c0-256 228-303 435-329 202-27 287-16 287-108 0-139-79-219-234-219-161 0-248 86-283 164l-173-57c86-203 278-265 451-265 150 0 419 46 419 395V0H815v-152h-12C765-73 660 26 471 26zm31-159c199 0 310-134 310-271v-155c-30 35-226 55-295 64-131 17-246 59-246 186 0 116 97 176 231 176" id="X"/><path d="M538 24C308 24 148-78 108-271l171-41c32 123 123 178 257 178 156 0 256-77 256-169 0-77-54-128-164-154l-186-44c-203-48-300-148-300-305 0-192 176-326 414-326 230 0 351 112 402 269l-163 42c-31-80-94-158-238-158-133 0-233 69-233 162 0 83 57 129 188 160l169 40c203 48 298 149 298 302 0 196-179 339-441 339" id="Y"/><path d="M338-670V0H158v-1490h180v566c73-149 190-208 336-208 226 0 379 139 379 422V0H872v-695c0-172-96-275-252-275-161 0-282 109-282 300" id="Z"/><path d="M677 24c-213 0-288-135-325-197h-20V0H158v-1490h180v551h14c37-59 106-193 324-193 279 0 474 222 474 576 0 356-194 580-473 580zm-27-161c209 0 317-186 317-421 0-232-105-413-317-413-206 0-314 166-314 413 0 249 111 421 314 421" id="aa"/><g id="e"><use transform="matrix(0.015190972222222222,0,0,0.015190972222222222,0,0)" xlink:href="#W"/><use transform="matrix(0.015190972222222222,0,0,0.015190972222222222,22.452256944444443,0)" xlink:href="#X"/><use transform="matrix(0.015190972222222222,0,0,0.015190972222222222,39.921875,0)" xlink:href="#Y"/><use transform="matrix(0.015190972222222222,0,0,0.015190972222222222,56.34331597222222,0)" xlink:href="#Z"/><use transform="matrix(0.015190972222222222,0,0,0.015190972222222222,74.73958333333333,0)" xlink:href="#aa"/><use transform="matrix(0.015190972222222222,0,0,0.015190972222222222,93.7890625,0)" xlink:href="#N"/><use transform="matrix(0.015190972222222222,0,0,0.015190972222222222,112.74739583333333,0)" xlink:href="#X"/><use transform="matrix(0.015190972222222222,0,0,0.015190972222222222,130.21701388888889,0)" xlink:href="#P"/><use transform="matrix(0.015190972222222222,0,0,0.015190972222222222,141.41276041666669,0)" xlink:href="#T"/></g><path d="M180 0v-1490h270l367 940c28 72 75 218 110 339 35-117 81-264 110-339l362-940h271V0h-187c2-448-5-837 7-1287-157 497-311 829-483 1287H842C666-458 514-784 354-1284c12 438 5 843 7 1284H180" id="ab"/><path d="M140 405l46-156c120 36 205 19 263-150l32-93L54-1118h197c107 313 237 620 324 950 87-331 219-637 326-950h196L606 167c-68 178-176 259-334 259-64 0-113-12-132-21" id="ac"/><path d="M657 26c-323 0-524-166-541-416h195c15 169 171 246 346 246 202 0 356-106 356-265 5-203-294-238-475-293-239-73-380-191-380-389 0-252 224-419 512-419 294 0 499 171 508 396H992c-17-145-151-228-328-228-193 0-321 102-321 242 0 156 175 211 284 241l149 41c160 44 422 134 422 412 0 244-197 432-541 432" id="ad"/><path d="M784 20c-382 0-662-292-662-764 0-473 280-766 662-766s660 293 660 766c0 282-99 499-260 629l192 255h-198L1049-33C969 2 880 20 784 20zm-62-486h198l156 205c112-98 183-261 183-483 0-383-209-590-475-590-268 0-477 208-477 590 0 380 209 588 477 588 54 0 106-9 154-25" id="ae"/><path d="M180 0v-1490h190v1322h690V0H180" id="af"/><g id="f"><use transform="matrix(0.015190972222222222,0,0,0.015190972222222222,0,0)" xlink:href="#ab"/><use transform="matrix(0.015190972222222222,0,0,0.015190972222222222,28.255208333333332,0)" xlink:href="#ac"/><use transform="matrix(0.015190972222222222,0,0,0.015190972222222222,45.740017361111114,0)" xlink:href="#ad"/><use transform="matrix(0.015190972222222222,0,0,0.015190972222222222,65.70095486111111,0)" xlink:href="#ae"/><use transform="matrix(0.015190972222222222,0,0,0.015190972222222222,89.49001736111111,0)" xlink:href="#af"/></g><path d="M598-1118v154H368v674c0 100 37 144 132 144 23 0 62-6 92-12L629-6c-37 13-88 20-134 20-193 0-307-107-307-290v-688H20v-154h168v-266h180v266h230" id="ag"/><g id="g"><use transform="matrix(0.015190972222222222,0,0,0.015190972222222222,0,0)" xlink:href="#W"/><use transform="matrix(0.015190972222222222,0,0,0.015190972222222222,22.452256944444443,0)" xlink:href="#X"/><use transform="matrix(0.015190972222222222,0,0,0.015190972222222222,39.921875,0)" xlink:href="#ag"/><use transform="matrix(0.015190972222222222,0,0,0.015190972222222222,50.251736111111114,0)" xlink:href="#X"/><use transform="matrix(0.015190972222222222,0,0,0.015190972222222222,67.72135416666667,0)" xlink:href="#aa"/><use transform="matrix(0.015190972222222222,0,0,0.015190972222222222,87.07465277777779,0)" xlink:href="#X"/><use transform="matrix(0.015190972222222222,0,0,0.015190972222222222,104.54427083333334,0)" xlink:href="#Y"/><use transform="matrix(0.015190972222222222,0,0,0.015190972222222222,120.96571180555557,0)" xlink:href="#R"/></g><path d="M158 418v-1536h174v179h20c37-59 106-193 324-193 279 0 474 222 474 576 0 356-194 580-473 580-213 0-288-135-325-197h-14v591H158zm492-555c209 0 317-186 317-421 0-232-105-413-317-413-206 0-314 166-314 413 0 249 111 421 314 421" id="ah"/><g id="h"><use transform="matrix(0.015190972222222222,0,0,0.015190972222222222,0,0)" xlink:href="#ad"/><use transform="matrix(0.015190972222222222,0,0,0.015190972222222222,19.9609375,0)" xlink:href="#Z"/><use transform="matrix(0.015190972222222222,0,0,0.015190972222222222,38.357204861111114,0)" xlink:href="#Q"/><use transform="matrix(0.015190972222222222,0,0,0.015190972222222222,45.891927083333336,0)" xlink:href="#ah"/><use transform="matrix(0.015190972222222222,0,0,0.015190972222222222,64.94140625,0)" xlink:href="#U"/><use transform="matrix(0.015190972222222222,0,0,0.015190972222222222,92.19401041666667,0)" xlink:href="#R"/><use transform="matrix(0.015190972222222222,0,0,0.015190972222222222,110.33203125,0)" xlink:href="#V"/><use transform="matrix(0.015190972222222222,0,0,0.015190972222222222,128.71310763888889,0)" xlink:href="#ag"/></g><path d="M611 442c-248 0-391-105-460-228l146-94c47 65 117 165 314 165 178 0 307-82 307-266v-224h-17C863-141 792-18 576-18c-268 0-472-195-472-546 0-346 197-568 476-568 216 0 288 133 326 193h17v-179h175V29c0 289-215 413-487 413zm-5-620c203 0 314-146 314-390 0-237-108-403-314-403-213 0-319 180-319 403 0 230 109 390 319 390" id="ai"/><g id="i"><use transform="matrix(0.015190972222222222,0,0,0.015190972222222222,0,0)" xlink:href="#U"/><use transform="matrix(0.015190972222222222,0,0,0.015190972222222222,27.252604166666668,0)" xlink:href="#X"/><use transform="matrix(0.015190972222222222,0,0,0.015190972222222222,44.72222222222222,0)" xlink:href="#V"/><use transform="matrix(0.015190972222222222,0,0,0.015190972222222222,63.10329861111111,0)" xlink:href="#X"/><use transform="matrix(0.015190972222222222,0,0,0.015190972222222222,80.57291666666667,0)" xlink:href="#ai"/><use transform="matrix(0.015190972222222222,0,0,0.015190972222222222,99.65277777777779,0)" xlink:href="#R"/><use transform="matrix(0.015190972222222222,0,0,0.015190972222222222,117.79079861111111,0)" xlink:href="#P"/></g><path fill="#333" d="M158 0v-1118h174v172h12c41-113 157-188 290-188 26 0 70 2 91 3v181c-11-2-60-10-108-10-161 0-279 109-279 260V0H158" id="aj"/><path fill="#333" d="M613 24c-304 0-509-231-509-576 0-350 205-580 509-580 216 0 392 114 453 309l-173 49c-33-115-133-197-280-197-223 0-326 196-326 419 0 220 103 415 326 415 150 0 252-85 285-206l172 49C1010-95 832 24 613 24" id="ak"/><path fill="#333" d="M180 0v-1490h528c311 0 458 177 458 395 0 191-114 278-244 313v14c139 9 302 137 302 371 0 225-148 397-499 397H180zm190-168h350c232 0 321-102 321-231 0-149-120-277-311-277H370v508zm0-668h328c160 0 286-101 286-255 0-129-87-231-280-231H370v486" id="al"/><path fill="#333" d="M140 405l46-156c120 36 205 19 263-150l32-93L54-1118h197c107 313 237 620 324 950 87-331 219-637 326-950h196L606 167c-68 178-176 259-334 259-64 0-113-12-132-21" id="am"/><path fill="#333" d="M98-1322v-168h1126v168H757V0H567v-1322H98" id="an"/><path fill="#333" d="M158 0v-1490h180v865h22l478-493h223L593-638 1096 0H865L456-523 338-412V0H158" id="ao"/><path fill="#333" d="M370-1490V0H180v-1490h190" id="ap"/><path fill="#333" d="M645 0H180v-1490h484c435 0 692 280 692 742 0 466-257 748-711 748zM370-168h263c363 0 539-218 539-580 0-358-176-574-521-574H370v1154" id="aq"/><g id="j"><use transform="matrix(0.011935763888888888,0,0,0.011935763888888888,0,0)" xlink:href="#I"/><use transform="matrix(0.011935763888888888,0,0,0.011935763888888888,12.902560763888888,0)" xlink:href="#y"/><use transform="matrix(0.011935763888888888,0,0,0.011935763888888888,27.392578125,0)" xlink:href="#G"/><use transform="matrix(0.011935763888888888,0,0,0.011935763888888888,41.11870659722222,0)" xlink:href="#aj"/><use transform="matrix(0.011935763888888888,0,0,0.011935763888888888,49.91536458333333,0)" xlink:href="#ak"/><use transform="matrix(0.011935763888888888,0,0,0.011935763888888888,63.88020833333333,0)" xlink:href="#B"/><use transform="matrix(0.011935763888888888,0,0,0.011935763888888888,78.33441840277777,0)" xlink:href="#al"/><use transform="matrix(0.011935763888888888,0,0,0.011935763888888888,94.32834201388889,0)" xlink:href="#am"/><use transform="matrix(0.011935763888888888,0,0,0.011935763888888888,107.24283854166669,0)" xlink:href="#an"/><use transform="matrix(0.011935763888888888,0,0,0.011935763888888888,121.63736979166669,0)" xlink:href="#aj"/><use transform="matrix(0.011935763888888888,0,0,0.011935763888888888,130.83984375,0)" xlink:href="#G"/><use transform="matrix(0.011935763888888888,0,0,0.011935763888888888,144.56597222222223,0)" xlink:href="#ak"/><use transform="matrix(0.011935763888888888,0,0,0.011935763888888888,158.53081597222223,0)" xlink:href="#ao"/><use transform="matrix(0.011935763888888888,0,0,0.011935763888888888,171.94661458333334,0)" xlink:href="#ap"/><use transform="matrix(0.011935763888888888,0,0,0.011935763888888888,178.51128472222223,0)" xlink:href="#aq"/><use transform="matrix(0.011935763888888888,0,0,0.011935763888888888,196.15234375,0)" xlink:href="#J"/><use transform="matrix(0.011935763888888888,0,0,0.011935763888888888,205.068359375,0)" xlink:href="#C"/><use transform="matrix(0.011935763888888888,0,0,0.011935763888888888,210.98849826388889,0)" xlink:href="#K"/><use transform="matrix(0.011935763888888888,0,0,0.011935763888888888,225.95594618055554,0)" xlink:href="#L"/></g><path fill="#333" d="M180 0v-1490h224l606 953c40 63 108 177 176 312-27-437-7-821-13-1265h190V0h-226C860-448 622-778 356-1262c27 476 11 792 15 1262H180" id="ar"/><path fill="#333" d="M409 0L70-1118h191c89 329 165 560 243 925 75-353 154-601 240-925h192c85 325 161 564 235 922 77-354 157-598 244-922h191L1267 0h-179c-86-307-176-590-250-913C763-588 675-308 588 0H409" id="as"/><path fill="#333" d="M934 0v166H0V0h934" id="at"/><g id="k"><use transform="matrix(0.010850694444444444,0,0,0.010850694444444444,0,0)" xlink:href="#H"/><use transform="matrix(0.010850694444444444,0,0,0.010850694444444444,13.140190972222221,0)" xlink:href="#D"/><use transform="matrix(0.010850694444444444,0,0,0.010850694444444444,26.746961805555554,0)" xlink:href="#K"/><use transform="matrix(0.010850694444444444,0,0,0.010850694444444444,40.353732638888886,0)" xlink:href="#G"/><use transform="matrix(0.010850694444444444,0,0,0.010850694444444444,52.83203125,0)" xlink:href="#z"/><use transform="matrix(0.010850694444444444,0,0,0.010850694444444444,59.8849826388889,0)" xlink:href="#y"/><use transform="matrix(0.010850694444444444,0,0,0.010850694444444444,72.84071180555556,0)" xlink:href="#A"/><use transform="matrix(0.010850694444444444,0,0,0.010850694444444444,87.09852430555556,0)" xlink:href="#z"/><use transform="matrix(0.010850694444444444,0,0,0.010850694444444444,94.47699652777777,0)" xlink:href="#G"/><use transform="matrix(0.010850694444444444,0,0,0.010850694444444444,106.95529513888889,0)" xlink:href="#z"/><use transform="matrix(0.010850694444444444,0,0,0.010850694444444444,114.22526041666666,0)" xlink:href="#H"/><use transform="matrix(0.010850694444444444,0,0,0.010850694444444444,127.36545138888889,0)" xlink:href="#y"/><use transform="matrix(0.010850694444444444,0,0,0.010850694444444444,140.32118055555554,0)" xlink:href="#J"/><use transform="matrix(0.010850694444444444,0,0,0.010850694444444444,148.42664930555554,0)" xlink:href="#ar"/><use transform="matrix(0.010850694444444444,0,0,0.010850694444444444,165.16927083333331,0)" xlink:href="#y"/><use transform="matrix(0.010850694444444444,0,0,0.010850694444444444,177.72352430555551,0)" xlink:href="#as"/><use transform="matrix(0.010850694444444444,0,0,0.010850694444444444,195.9092881944444,0)" xlink:href="#at"/><use transform="matrix(0.010850694444444444,0,0,0.010850694444444444,206.04383680555551,0)" xlink:href="#I"/><use transform="matrix(0.010850694444444444,0,0,0.010850694444444444,217.77343749999994,0)" xlink:href="#z"/><use transform="matrix(0.010850694444444444,0,0,0.010850694444444444,225.1519097222222,0)" xlink:href="#G"/><use transform="matrix(0.010850694444444444,0,0,0.010850694444444444,237.63020833333331,0)" xlink:href="#z"/><use transform="matrix(0.010850694444444444,0,0,0.010850694444444444,244.90017361111111,0)" xlink:href="#H"/><use transform="matrix(0.010850694444444444,0,0,0.010850694444444444,258.0403645833333,0)" xlink:href="#I"/><use transform="matrix(0.010850694444444444,0,0,0.010850694444444444,269.76996527777777,0)" xlink:href="#L"/></g><g id="l"><use transform="matrix(0.011935763888888888,0,0,0.011935763888888888,0,0)" xlink:href="#A"/><use transform="matrix(0.011935763888888888,0,0,0.011935763888888888,15.683593749999998,0)" xlink:href="#z"/><use transform="matrix(0.011935763888888888,0,0,0.011935763888888888,23.799913194444443,0)" xlink:href="#G"/><use transform="matrix(0.011935763888888888,0,0,0.011935763888888888,37.526041666666664,0)" xlink:href="#z"/><use transform="matrix(0.011935763888888888,0,0,0.011935763888888888,45.52300347222222,0)" xlink:href="#H"/><use transform="matrix(0.011935763888888888,0,0,0.011935763888888888,59.977213541666664,0)" xlink:href="#I"/></g><path fill="#333" d="M763 24c-353 0-583-224-583-531v-983h190v968c0 214 149 370 393 370 243 0 391-156 391-370v-968h190v983c0 307-230 531-581 531" id="au"/><g id="m"><use transform="matrix(0.011935763888888888,0,0,0.011935763888888888,0,0)" xlink:href="#au"/><use transform="matrix(0.011935763888888888,0,0,0.011935763888888888,18.190104166666664,0)" xlink:href="#D"/><use transform="matrix(0.011935763888888888,0,0,0.011935763888888888,33.15755208333333,0)" xlink:href="#K"/><use transform="matrix(0.011935763888888888,0,0,0.011935763888888888,48.12499999999999,0)" xlink:href="#G"/><use transform="matrix(0.011935763888888888,0,0,0.011935763888888888,61.85112847222222,0)" xlink:href="#z"/><use transform="matrix(0.011935763888888888,0,0,0.011935763888888888,69.60937499999999,0)" xlink:href="#y"/><use transform="matrix(0.011935763888888888,0,0,0.011935763888888888,83.86067708333331,0)" xlink:href="#K"/></g><path fill="#333" d="M678-1118v154H420V0H240v-964H20v-154h220v-149c0-194 155-293 318-293 85 0 141 18 168 30l-50 154c-19-6-47-17-97-17-111 0-159 58-159 166v109h258" id="av"/><path fill="#333" d="M338-1490V0H158v-1490h180" id="aw"/><g id="n"><use transform="matrix(0.011935763888888888,0,0,0.011935763888888888,0,0)" xlink:href="#A"/><use transform="matrix(0.011935763888888888,0,0,0.011935763888888888,15.683593749999998,0)" xlink:href="#H"/><use transform="matrix(0.011935763888888888,0,0,0.011935763888888888,30.137803819444443,0)" xlink:href="#ak"/><use transform="matrix(0.011935763888888888,0,0,0.011935763888888888,44.10264756944444,0)" xlink:href="#ak"/><use transform="matrix(0.011935763888888888,0,0,0.011935763888888888,58.06749131944444,0)" xlink:href="#y"/><use transform="matrix(0.011935763888888888,0,0,0.011935763888888888,72.31879340277777,0)" xlink:href="#I"/><use transform="matrix(0.011935763888888888,0,0,0.011935763888888888,85.22135416666666,0)" xlink:href="#I"/><use transform="matrix(0.011935763888888888,0,0,0.011935763888888888,98.12391493055554,0)" xlink:href="#av"/><use transform="matrix(0.011935763888888888,0,0,0.011935763888888888,107.1712239583333,0)" xlink:href="#H"/><use transform="matrix(0.011935763888888888,0,0,0.011935763888888888,121.62543402777774,0)" xlink:href="#aw"/><use transform="matrix(0.011935763888888888,0,0,0.011935763888888888,127.54557291666664,0)" xlink:href="#aw"/><use transform="matrix(0.011935763888888888,0,0,0.011935763888888888,133.58506944444443,0)" xlink:href="#am"/></g><path fill="#333" d="M613 24c-304 0-509-231-509-576 0-350 205-580 509-580 305 0 511 230 511 580 0 345-206 576-511 576zm0-161c226 0 329-195 329-415 0-222-103-419-329-419-223 0-326 196-326 419 0 220 103 415 326 415" id="ax"/><g id="o"><use transform="matrix(0.011935763888888888,0,0,0.011935763888888888,0,0)" xlink:href="#D"/><use transform="matrix(0.011935763888888888,0,0,0.011935763888888888,14.967447916666666,0)" xlink:href="#aj"/><use transform="matrix(0.011935763888888888,0,0,0.011935763888888888,23.76410590277778,0)" xlink:href="#ax"/><use transform="matrix(0.011935763888888888,0,0,0.011935763888888888,38.421223958333336,0)" xlink:href="#ak"/><use transform="matrix(0.011935763888888888,0,0,0.011935763888888888,52.38606770833334,0)" xlink:href="#y"/><use transform="matrix(0.011935763888888888,0,0,0.011935763888888888,66.63736979166667,0)" xlink:href="#I"/><use transform="matrix(0.011935763888888888,0,0,0.011935763888888888,79.53993055555556,0)" xlink:href="#I"/><use transform="matrix(0.011935763888888888,0,0,0.011935763888888888,92.44249131944444,0)" xlink:href="#au"/><use transform="matrix(0.011935763888888888,0,0,0.011935763888888888,110.6325954861111,0)" xlink:href="#D"/><use transform="matrix(0.011935763888888888,0,0,0.011935763888888888,125.60004340277779,0)" xlink:href="#K"/><use transform="matrix(0.011935763888888888,0,0,0.011935763888888888,140.56749131944446,0)" xlink:href="#G"/><use transform="matrix(0.011935763888888888,0,0,0.011935763888888888,154.29361979166669,0)" xlink:href="#z"/><use transform="matrix(0.011935763888888888,0,0,0.011935763888888888,162.05186631944446,0)" xlink:href="#y"/><use transform="matrix(0.011935763888888888,0,0,0.011935763888888888,176.3031684027778,0)" xlink:href="#J"/><use transform="matrix(0.011935763888888888,0,0,0.011935763888888888,185.2191840277778,0)" xlink:href="#L"/></g><path fill="#333" d="M783 20c-382 0-661-292-661-764 0-473 279-766 661-766 302 0 548 182 601 489h-190c-42-204-217-313-411-313-268 0-476 208-476 590 0 381 209 588 476 588 195 0 369-110 411-313h190c-52 303-296 489-601 489" id="ay"/><g id="p"><use transform="matrix(0.010850694444444444,0,0,0.010850694444444444,0,0)" xlink:href="#K"/><use transform="matrix(0.010850694444444444,0,0,0.010850694444444444,13.606770833333332,0)" xlink:href="#C"/><use transform="matrix(0.010850694444444444,0,0,0.010850694444444444,18.98871527777778,0)" xlink:href="#I"/><use transform="matrix(0.010850694444444444,0,0,0.010850694444444444,30.71831597222222,0)" xlink:href="#D"/><use transform="matrix(0.010850694444444444,0,0,0.010850694444444444,44.32508680555556,0)" xlink:href="#aw"/><use transform="matrix(0.010850694444444444,0,0,0.010850694444444444,49.70703125,0)" xlink:href="#G"/><use transform="matrix(0.010850694444444444,0,0,0.010850694444444444,61.85980902777778,0)" xlink:href="#am"/><use transform="matrix(0.010850694444444444,0,0,0.010850694444444444,74.34895833333333,0)" xlink:href="#ay"/><use transform="matrix(0.010850694444444444,0,0,0.010850694444444444,90.58159722222221,0)" xlink:href="#H"/><use transform="matrix(0.010850694444444444,0,0,0.010850694444444444,103.72178819444441,0)" xlink:href="#aj"/><use transform="matrix(0.010850694444444444,0,0,0.010850694444444444,112.43489583333333,0)" xlink:href="#aj"/><use transform="matrix(0.010850694444444444,0,0,0.010850694444444444,120.43185763888889,0)" xlink:href="#y"/><use transform="matrix(0.010850694444444444,0,0,0.010850694444444444,133.38758680555554,0)" xlink:href="#F"/><use transform="matrix(0.010850694444444444,0,0,0.010850694444444444,146.51692708333331,0)" xlink:href="#z"/><use transform="matrix(0.010850694444444444,0,0,0.010850694444444444,153.7868923611111,0)" xlink:href="#A"/><use transform="matrix(0.010850694444444444,0,0,0.010850694444444444,168.0447048611111,0)" xlink:href="#z"/><use transform="matrix(0.010850694444444444,0,0,0.010850694444444444,175.42317708333331,0)" xlink:href="#G"/><use transform="matrix(0.010850694444444444,0,0,0.010850694444444444,187.90147569444443,0)" xlink:href="#z"/><use transform="matrix(0.010850694444444444,0,0,0.010850694444444444,195.17144097222223,0)" xlink:href="#H"/><use transform="matrix(0.010850694444444444,0,0,0.010850694444444444,208.31163194444443,0)" xlink:href="#I"/><use transform="matrix(0.010850694444444444,0,0,0.010850694444444444,220.04123263888889,0)" xlink:href="#J"/><use transform="matrix(0.010850694444444444,0,0,0.010850694444444444,228.14670138888889,0)" xlink:href="#L"/></g><path fill="#333" d="M180 0v-1490h510c348 0 508 194 508 460 0 198-88 351-276 417L1256 0h-220L726-579c-117 2-238 0-356 1V0H180zm190-747h312c235 0 327-108 327-283 0-177-92-293-329-293H370v576" id="az"/><path fill="#333" d="M128 359l88-567h206L266 359H128" id="aA"/><g id="q"><use transform="matrix(0.010850694444444444,0,0,0.010850694444444444,0,0)" xlink:href="#H"/><use transform="matrix(0.010850694444444444,0,0,0.010850694444444444,13.140190972222221,0)" xlink:href="#D"/><use transform="matrix(0.010850694444444444,0,0,0.010850694444444444,26.746961805555554,0)" xlink:href="#K"/><use transform="matrix(0.010850694444444444,0,0,0.010850694444444444,40.353732638888886,0)" xlink:href="#G"/><use transform="matrix(0.010850694444444444,0,0,0.010850694444444444,52.83203125,0)" xlink:href="#z"/><use transform="matrix(0.010850694444444444,0,0,0.010850694444444444,59.8849826388889,0)" xlink:href="#y"/><use transform="matrix(0.010850694444444444,0,0,0.010850694444444444,72.84071180555556,0)" xlink:href="#az"/><use transform="matrix(0.010850694444444444,0,0,0.010850694444444444,86.81640625,0)" xlink:href="#y"/><use transform="matrix(0.010850694444444444,0,0,0.010850694444444444,99.77213541666666,0)" xlink:href="#ak"/><use transform="matrix(0.010850694444444444,0,0,0.010850694444444444,112.46744791666666,0)" xlink:href="#ax"/><use transform="matrix(0.010850694444444444,0,0,0.010850694444444444,125.79210069444444,0)" xlink:href="#aj"/><use transform="matrix(0.010850694444444444,0,0,0.010850694444444444,133.7890625,0)" xlink:href="#K"/><use transform="matrix(0.010850694444444444,0,0,0.010850694444444444,147.39583333333334,0)" xlink:href="#I"/><use transform="matrix(0.010850694444444444,0,0,0.010850694444444444,159.1254340277778,0)" xlink:href="#J"/><use transform="matrix(0.010850694444444444,0,0,0.010850694444444444,167.2309027777778,0)" xlink:href="#I"/><use transform="matrix(0.010850694444444444,0,0,0.010850694444444444,178.96050347222226,0)" xlink:href="#z"/><use transform="matrix(0.010850694444444444,0,0,0.010850694444444444,186.33897569444449,0)" xlink:href="#G"/><use transform="matrix(0.010850694444444444,0,0,0.010850694444444444,198.8172743055556,0)" xlink:href="#H"/><use transform="matrix(0.010850694444444444,0,0,0.010850694444444444,211.9574652777778,0)" xlink:href="#I"/><use transform="matrix(0.010850694444444444,0,0,0.010850694444444444,223.68706597222229,0)" xlink:href="#aA"/><use transform="matrix(0.010850694444444444,0,0,0.010850694444444444,230.0889756944445,0)" xlink:href="#z"/><use transform="matrix(0.010850694444444444,0,0,0.010850694444444444,237.35894097222229,0)" xlink:href="#C"/><use transform="matrix(0.010850694444444444,0,0,0.010850694444444444,242.74088541666674,0)" xlink:href="#E"/><use transform="matrix(0.010850694444444444,0,0,0.010850694444444444,262.20703125000006,0)" xlink:href="#y"/><use transform="matrix(0.010850694444444444,0,0,0.010850694444444444,275.16276041666674,0)" xlink:href="#I"/><use transform="matrix(0.010850694444444444,0,0,0.010850694444444444,286.8923611111112,0)" xlink:href="#z"/><use transform="matrix(0.010850694444444444,0,0,0.010850694444444444,294.2708333333334,0)" xlink:href="#G"/><use transform="matrix(0.010850694444444444,0,0,0.010850694444444444,306.7491319444445,0)" xlink:href="#E"/><use transform="matrix(0.010850694444444444,0,0,0.010850694444444444,326.2152777777778,0)" xlink:href="#D"/><use transform="matrix(0.010850694444444444,0,0,0.010850694444444444,339.5724826388889,0)" xlink:href="#L"/></g><g id="r"><use transform="matrix(0.010850694444444444,0,0,0.010850694444444444,0,0)" xlink:href="#H"/><use transform="matrix(0.010850694444444444,0,0,0.010850694444444444,13.140190972222221,0)" xlink:href="#D"/><use transform="matrix(0.010850694444444444,0,0,0.010850694444444444,26.746961805555554,0)" xlink:href="#K"/><use transform="matrix(0.010850694444444444,0,0,0.010850694444444444,40.353732638888886,0)" xlink:href="#G"/><use transform="matrix(0.010850694444444444,0,0,0.010850694444444444,52.83203125,0)" xlink:href="#z"/><use transform="matrix(0.010850694444444444,0,0,0.010850694444444444,59.8849826388889,0)" xlink:href="#y"/><use transform="matrix(0.010850694444444444,0,0,0.010850694444444444,72.84071180555556,0)" xlink:href="#ay"/><use transform="matrix(0.010850694444444444,0,0,0.010850694444444444,89.07335069444444,0)" xlink:href="#ax"/><use transform="matrix(0.010850694444444444,0,0,0.010850694444444444,102.39800347222221,0)" xlink:href="#F"/><use transform="matrix(0.010850694444444444,0,0,0.010850694444444444,115.52734374999997,0)" xlink:href="#av"/><use transform="matrix(0.010850694444444444,0,0,0.010850694444444444,123.75217013888887,0)" xlink:href="#C"/><use transform="matrix(0.010850694444444444,0,0,0.010850694444444444,129.13411458333331,0)" xlink:href="#aj"/><use transform="matrix(0.010850694444444444,0,0,0.010850694444444444,137.8472222222222,0)" xlink:href="#E"/><use transform="matrix(0.010850694444444444,0,0,0.010850694444444444,157.31336805555554,0)" xlink:href="#y"/><use transform="matrix(0.010850694444444444,0,0,0.010850694444444444,170.2690972222222,0)" xlink:href="#K"/></g><path d="M678-1118v154H420V0H240v-964H20v-154h220v-149c0-194 155-293 318-293 85 0 141 18 168 30l-50 154c-19-6-47-17-97-17-111 0-159 58-159 166v109h258" id="aB"/><path d="M295 13c-75 0-135-60-135-135s60-135 135-135 135 60 135 135S370 13 295 13zm0-809c-75 0-135-60-135-135s60-135 135-135 135 60 135 135-60 135-135 135" id="aC"/><g id="s"><use transform="matrix(0.01953125,0,0,0.01953125,0,0)" xlink:href="#P"/><use transform="matrix(0.01953125,0,0,0.01953125,14.39453125,0)" xlink:href="#R"/><use transform="matrix(0.01953125,0,0,0.01953125,37.71484375,0)" xlink:href="#aB"/><use transform="matrix(0.01953125,0,0,0.01953125,52.51953125,0)" xlink:href="#aC"/></g><g id="t"><use transform="matrix(0.01953125,0,0,0.01953125,0,0)" xlink:href="#af"/><use transform="matrix(0.01953125,0,0,0.01953125,22.6171875,0)" xlink:href="#N"/><use transform="matrix(0.01953125,0,0,0.01953125,46.6015625,0)" xlink:href="#ai"/><use transform="matrix(0.01953125,0,0,0.01953125,71.1328125,0)" xlink:href="#Q"/><use transform="matrix(0.01953125,0,0,0.01953125,80.8203125,0)" xlink:href="#V"/></g><path d="M1096 418H916v-591h-14C865-111 790 24 577 24c-279 0-473-224-473-580 0-354 195-576 474-576 218 0 287 134 324 193h20v-179h174V418zM604-137c203 0 314-172 314-421 0-247-108-413-314-413-212 0-317 181-317 413 0 235 108 421 317 421" id="aD"/><path d="M613 24c-304 0-509-231-509-576 0-350 205-580 509-580 216 0 392 114 453 309l-173 49c-33-115-133-197-280-197-223 0-326 196-326 419 0 220 103 415 326 415 150 0 252-85 285-206l172 49C1010-95 832 24 613 24" id="aE"/><path d="M218-607c0-325 108-727 258-974h175c-155 315-250 682-250 974 0 265 78 531 250 886H476C306-10 218-315 218-607" id="aF"/><path d="M338-1490V0H158v-1490h180" id="aG"/><path d="M96 279C273-86 346-350 346-607c0-292-95-659-250-974h175c150 246 258 650 258 974 0 297-91 602-258 886H96" id="aH"/><g id="u"><use transform="matrix(0.01953125,0,0,0.01953125,0,0)" xlink:href="#Y"/><use transform="matrix(0.01953125,0,0,0.01953125,21.11328125,0)" xlink:href="#R"/><use transform="matrix(0.01953125,0,0,0.01953125,44.43359375,0)" xlink:href="#aD"/><use transform="matrix(0.01953125,0,0,0.01953125,68.92578125,0)" xlink:href="#O"/><use transform="matrix(0.01953125,0,0,0.01953125,92.578125,0)" xlink:href="#R"/><use transform="matrix(0.01953125,0,0,0.01953125,115.8984375,0)" xlink:href="#V"/><use transform="matrix(0.01953125,0,0,0.01953125,139.53125,0)" xlink:href="#aE"/><use transform="matrix(0.01953125,0,0,0.01953125,162.3828125,0)" xlink:href="#R"/><use transform="matrix(0.01953125,0,0,0.01953125,185.703125,0)" xlink:href="#aF"/><use transform="matrix(0.01953125,0,0,0.01953125,200.29296875,0)" xlink:href="#Q"/><use transform="matrix(0.01953125,0,0,0.01953125,209.98046875,0)" xlink:href="#V"/><use transform="matrix(0.01953125,0,0,0.01953125,233.61328125,0)" xlink:href="#aE"/><use transform="matrix(0.01953125,0,0,0.01953125,256.46484375,0)" xlink:href="#aG"/><use transform="matrix(0.01953125,0,0,0.01953125,266.15234375,0)" xlink:href="#O"/><use transform="matrix(0.01953125,0,0,0.01953125,289.8046875,0)" xlink:href="#T"/><use transform="matrix(0.01953125,0,0,0.01953125,314.296875,0)" xlink:href="#R"/><use transform="matrix(0.01953125,0,0,0.01953125,337.6171875,0)" xlink:href="#T"/><use transform="matrix(0.01953125,0,0,0.01953125,362.109375,0)" xlink:href="#aH"/></g><path d="M180 0v-1490h510c348 0 508 194 508 460 0 198-88 351-276 417L1256 0h-220L726-579c-117 2-238 0-356 1V0H180zm190-747h312c235 0 327-108 327-283 0-177-92-293-329-293H370v576" id="aI"/><g id="v"><use transform="matrix(0.013020833333333334,0,0,0.013020833333333334,0,0)" xlink:href="#aD"/><use transform="matrix(0.013020833333333334,0,0,0.013020833333333334,16.328125,0)" xlink:href="#O"/><use transform="matrix(0.013020833333333334,0,0,0.013020833333333334,32.09635416666667,0)" xlink:href="#R"/><use transform="matrix(0.013020833333333334,0,0,0.013020833333333334,47.64322916666667,0)" xlink:href="#P"/><use transform="matrix(0.013020833333333334,0,0,0.013020833333333334,58.098958333333336,0)" xlink:href="#ac"/><use transform="matrix(0.013020833333333334,0,0,0.013020833333333334,73.21614583333334,0)" xlink:href="#aI"/><use transform="matrix(0.013020833333333334,0,0,0.013020833333333334,89.98697916666669,0)" xlink:href="#R"/><use transform="matrix(0.013020833333333334,0,0,0.013020833333333334,105.53385416666669,0)" xlink:href="#aE"/><use transform="matrix(0.013020833333333334,0,0,0.013020833333333334,120.7682291666667,0)" xlink:href="#N"/><use transform="matrix(0.013020833333333334,0,0,0.013020833333333334,136.75781250000003,0)" xlink:href="#P"/><use transform="matrix(0.013020833333333334,0,0,0.013020833333333334,146.35416666666669,0)" xlink:href="#T"/><use transform="matrix(0.013020833333333334,0,0,0.013020833333333334,162.68229166666669,0)" xlink:href="#aF"/><use transform="matrix(0.013020833333333334,0,0,0.013020833333333334,172.40885416666669,0)" xlink:href="#Q"/><use transform="matrix(0.013020833333333334,0,0,0.013020833333333334,178.86718750000003,0)" xlink:href="#T"/><use transform="matrix(0.013020833333333334,0,0,0.013020833333333334,195.19531250000003,0)" xlink:href="#aH"/></g><g id="w"><use transform="matrix(0.013020833333333334,0,0,0.013020833333333334,0,0)" xlink:href="#Y"/><use transform="matrix(0.013020833333333334,0,0,0.013020833333333334,14.075520833333334,0)" xlink:href="#Z"/><use transform="matrix(0.013020833333333334,0,0,0.013020833333333334,29.84375,0)" xlink:href="#Q"/><use transform="matrix(0.013020833333333334,0,0,0.013020833333333334,36.302083333333336,0)" xlink:href="#ah"/><use transform="matrix(0.013020833333333334,0,0,0.013020833333333334,52.630208333333336,0)" xlink:href="#U"/><use transform="matrix(0.013020833333333334,0,0,0.013020833333333334,75.98958333333334,0)" xlink:href="#R"/><use transform="matrix(0.013020833333333334,0,0,0.013020833333333334,91.53645833333334,0)" xlink:href="#V"/><use transform="matrix(0.013020833333333334,0,0,0.013020833333333334,107.29166666666667,0)" xlink:href="#ag"/><use transform="matrix(0.013020833333333334,0,0,0.013020833333333334,116.015625,0)" xlink:href="#W"/><use transform="matrix(0.013020833333333334,0,0,0.013020833333333334,135.26041666666666,0)" xlink:href="#R"/><use transform="matrix(0.013020833333333334,0,0,0.013020833333333334,150.80729166666666,0)" xlink:href="#ag"/><use transform="matrix(0.013020833333333334,0,0,0.013020833333333334,159.66145833333334,0)" xlink:href="#X"/><use transform="matrix(0.013020833333333334,0,0,0.013020833333333334,174.63541666666669,0)" xlink:href="#Q"/><use transform="matrix(0.013020833333333334,0,0,0.013020833333333334,181.09375000000003,0)" xlink:href="#aG"/><use transform="matrix(0.013020833333333334,0,0,0.013020833333333334,187.55208333333337,0)" xlink:href="#Y"/></g></defs></g></svg>