<svg xmlns="http://www.w3.org/2000/svg" xmlns:xlink="http://www.w3.org/1999/xlink" xmlns:lucid="lucid" width="585.12" height="1063"><g transform="translate(-20.881510416666686 -299)" lucid:page-tab-id="0_0"><path d="M120.1 598.58h332.88M120.14 598.58h-1.54" stroke="#3a414a" stroke-width="3" fill="none"/><path d="M468.75 598.58l-14.27 4.64v-9.27z" stroke="#3a414a" stroke-width="3" fill="#3a414a"/><path d="M472.1 697.5h-6.07m-12.13 0h-12.14m-12.14 0h-12.14m-12.14 0H393.2m-12.14 0h-12.13m-12.14 0h-12.15m-12.14 0h-12.13m-12.14 0H296.1m-12.15 0h-12.13m-12.14 0h-12.14m-12.14 0h-12.14m-12.14 0h-12.14m-12.14 0H174.7m-12.13 0h-6.07M472.06 697.5h1.54" stroke="#3a414a" stroke-width="3" fill="none"/><path d="M140.73 697.5L155 692.9v9.27z" stroke="#3a414a" stroke-width="3" fill="#3a414a"/><path d="M137.38 799.56h296.88" stroke="#3a414a" stroke-width="3" fill="none"/><path d="M137.42 801.03h-1.54v-2.95h1.54z" stroke="#3a414a" stroke-width=".05" fill="#3a414a"/><path d="M450.02 799.56l-14.26 4.63v-9.28z" stroke="#3a414a" stroke-width="3" fill="#3a414a"/><path d="M472.1 877.4H466m-12.18 0h-12.2m-12.18 0h-12.2m-12.18 0h-12.2m-12.18 0h-12.2m-12.18 0h-12.2m-12.18 0h-12.2m-12.18 0h-12.2m-12.2 0h-12.18m-12.2 0H246.6m-12.2 0H222.2m-12.2 0h-12.18m-12.2 0h-6.08a3.66 3.66 0 0 1-3.66-3.65 3.66 3.66 0 0 0-3.66-3.66H156.5M472.06 877.4h1.54" stroke="#3a414a" stroke-width="3" fill="none"/><path d="M140.73 870.1l14.27-4.65v9.27z" stroke="#3a414a" stroke-width="3" fill="#3a414a"/><path d="M120.1 978.58h175.4a.62.62 0 0 0 .6-.6.62.62 0 0 1 .62-.63h156.26M120.14 978.58h-1.54" stroke="#3a414a" stroke-width="3" fill="none"/><path d="M468.75 977.35L454.48 982v-9.28z" stroke="#3a414a" stroke-width="3" fill="#3a414a"/><path d="M473.6 1075.8v-2a6 6 0 0 0-6-6h-5.84m-11.68 0H438.4m-11.7 0h-11.67m-11.68 0h-11.68m-11.68 0h-11.7m-11.68 0h-11.68m-11.68 0h-11.7m-11.67 0h-11.7m-11.67 0h-11.68m-11.7 0H251.5m-11.68 0h-11.68m-11.7 0h-11.67m-11.68 0H181.4m-11.7 0h-5.84M473.6 1075.76v1.53" stroke="#3a414a" stroke-width="3" fill="none"/><path d="M148.1 1067.8l14.26-4.64v9.27z" stroke="#3a414a" stroke-width="3" fill="#3a414a"/><path d="M139.06 1194.97h313.92" stroke="#3a414a" stroke-width="3" fill="none"/><path d="M139.1 1196.45h-1.54v-2.95h1.54z" stroke="#3a414a" stroke-width=".05" fill="#3a414a"/><path d="M468.75 1194.97l-14.27 4.64v-9.26z" stroke="#3a414a" stroke-width="3" fill="#3a414a"/><path d="M472.1 1277.18h-6.03m-12.08 0H441.9m-12.08 0h-12.07m-12.07 0h-12.08m-12.07 0h-12.08m-12.07 0h-12.07m-12.08 0h-12.07m-12.08 0h-12.07m-12.07 0h-12.08m-12.07 0h-12.07m-12.07 0H224.6m-12.1 0h-12.06m-12.08 0H176.3m-12.1 0h-6.02M472.06 1277.18h1.54" stroke="#3a414a" stroke-width="3" fill="none"/><path d="M142.4 1277.18l14.28-4.64v9.27z" stroke="#3a414a" stroke-width="3" fill="#3a414a"/><path d="M154.88 549.08a6 6 0 0 1 6-6h67.64a6 6 0 0 1 6 6v30.28a6 6 0 0 1-6 6h-67.64a6 6 0 0 1-6-6z" fill="none"/><use xlink:href="#a" transform="matrix(1,0,0,1,159.87765942292117,548.0833333333334) translate(0 26.200520833333336)"/><path d="M213.75 649.08a6 6 0 0 1 6-6h191.77a6 6 0 0 1 6 6v30.28a6 6 0 0 1-6 6H219.75a6 6 0 0 1-6-6z" fill="none"/><use xlink:href="#b" transform="matrix(1,0,0,1,218.75135733958794,648.0833333333334) translate(0.11848958333334281 26.200520833333336)"/><use xlink:href="#c" transform="matrix(1,0,0,1,218.75135733958794,648.0833333333334) translate(114.66276041666667 26.200520833333336)"/><use xlink:href="#d" transform="matrix(1,0,0,1,218.75135733958794,648.0833333333334) translate(131.77213541666666 26.200520833333336)"/><path d="M134.88 749.08a6 6 0 0 1 6-6h288a6 6 0 0 1 6 6v30.28a6 6 0 0 1-6 6h-288a6 6 0 0 1-6-6z" fill="none"/><use xlink:href="#e" transform="matrix(1,0,0,1,139.8776594229212,748.0833333333334) translate(4.264322916666657 26.200520833333336)"/><use xlink:href="#f" transform="matrix(1,0,0,1,139.8776594229212,748.0833333333334) translate(113.45703125 26.200520833333336)"/><use xlink:href="#c" transform="matrix(1,0,0,1,139.8776594229212,748.0833333333334) translate(180.59244791666666 26.200520833333336)"/><use xlink:href="#g" transform="matrix(1,0,0,1,139.8776594229212,748.0833333333334) translate(197.70182291666666 26.200520833333336)"/><path d="M199.5 829.08a6 6 0 0 1 6-6h276.58a6 6 0 0 1 6 6v30.28a6 6 0 0 1-6 6h-276.6a6 6 0 0 1-6-6z" fill="none"/><use xlink:href="#h" transform="matrix(1,0,0,1,204.4892045618101,828.0833333333334) translate(0.2096354166666572 26.200520833333336)"/><use xlink:href="#i" transform="matrix(1,0,0,1,204.4892045618101,828.0833333333334) translate(115.52213541666664 26.200520833333336)"/><path d="M134.88 929.08a6 6 0 0 1 6-6h308a6 6 0 0 1 6 6v30.28a6 6 0 0 1-6 6h-308a6 6 0 0 1-6-6z" fill="none"/><use xlink:href="#h" transform="matrix(1,0,0,1,139.87765942292117,928.0833333333334) translate(3.2682291666666856 26.200520833333336)"/><use xlink:href="#j" transform="matrix(1,0,0,1,139.87765942292117,928.0833333333334) translate(118.58072916666667 26.200520833333336)"/><use xlink:href="#k" transform="matrix(1,0,0,1,139.87765942292117,928.0833333333334) translate(236.640625 26.200520833333336)"/><path d="M136.56 1029.08a6 6 0 0 1 6-6h226.32a6 6 0 0 1 6 6v30.28a6 6 0 0 1-6 6H142.56a6 6 0 0 1-6-6z" fill="none"/><use xlink:href="#l" transform="matrix(1,0,0,1,141.55734692292117,1028.0833333333335) translate(21.798177083333343 26.200520833333336)"/><use xlink:href="#m" transform="matrix(1,0,0,1,141.55734692292117,1028.0833333333335) translate(99.38932291666667 26.200520833333336)"/><path d="M220.75 1149.08a6 6 0 0 1 6-6h218.9a6 6 0 0 1 6 6v30.28a6 6 0 0 1-6 6h-218.9a6 6 0 0 1-6-6z" fill="none"/><use xlink:href="#n" transform="matrix(1,0,0,1,225.751999700699,1148.0833333333333) translate(0.05078125 26.200520833333336)"/><use xlink:href="#o" transform="matrix(1,0,0,1,225.751999700699,1148.0833333333333) translate(123.31901041666666 26.200520833333336)"/><path d="M149.5 1229.08a6 6 0 0 1 6-6h233.38a6 6 0 0 1 6 6v30.28a6 6 0 0 1-6 6h-233.4a6 6 0 0 1-6-6z" fill="none"/><use xlink:href="#p" transform="matrix(1,0,0,1,154.48703442292117,1228.0833333333333) translate(9.09375 26.200520833333336)"/><use xlink:href="#q" transform="matrix(1,0,0,1,154.48703442292117,1228.0833333333333) translate(114.22395833333333 26.200520833333336)"/><path d="M395 306a6 6 0 0 1 6-6h198a6 6 0 0 1 6 6v168a6 6 0 0 1-6 6H401a6 6 0 0 1-6-6z" stroke="#000" stroke-width="2" fill="#fff"/><use xlink:href="#r" transform="matrix(1,0,0,1,395,300) translate(64.29319444444445 57.73871527777778)"/><use xlink:href="#s" transform="matrix(1,0,0,1,395,300) translate(33.45009548611112 98.07074652777777)"/><use xlink:href="#t" transform="matrix(1,0,0,1,395,300) translate(64.09788194444444 138.40277777777777)"/><path d="M100.25 319.95v-.2A19.75 19.75 0 0 1 120 300a19.75 19.75 0 0 1 19.75 19.75A19.75 19.75 0 0 1 120 339.5a19.75 19.75 0 0 1-19.75-19.75v-.2" stroke="#000" stroke-width="2" fill="#fff"/><path d="M80 306a6 6 0 0 1 6-6h68a6 6 0 0 1 6 6v146a6 6 0 0 1-6 6H86a6 6 0 0 1-6-6z" fill="none"/><path d="M120 339.5v55.3l40 63.2m-40-63.2L80 458m0-98.75h80" stroke="#000" stroke-width="2" fill="none"/><g><use xlink:href="#u" transform="matrix(1,0,0,1,0,458) translate(21.881510416666686 30.13888888888889)"/><use xlink:href="#v" transform="matrix(1,0,0,1,0,458) translate(119.80251736111111 30.13888888888889)"/></g><path d="M94.88 591.36a6 6 0 0 1 6-6h28a6 6 0 0 1 6 6V713.7a6 6 0 0 1-6 6h-28a6 6 0 0 1-6-6zM94.88 773.65a6 6 0 0 1 6-6h28a6 6 0 0 1 6 6V896a6 6 0 0 1-6 6h-28a6 6 0 0 1-6-6zM102.24 971.36a6 6 0 0 1 6-6h28a6 6 0 0 1 6 6v122.34a6 6 0 0 1-6 6h-28a6 6 0 0 1-6-6zM96.56 1169.07a6 6 0 0 1 6-6h28a6 6 0 0 1 6 6v122.34a6 6 0 0 1-6 6h-28a6 6 0 0 1-6-6zM474.88 526a6 6 0 0 1 6-6H534a6 6 0 0 1 6 6v808a6 6 0 0 1-6 6h-53.12a6 6 0 0 1-6-6z" stroke="#000" stroke-width="2"/><path d="M120 522v8.15m0 16.3v16.3m0 16.32v16.3m0 16.3v16.3m0 16.32v16.3m0 16.3v16.3m0 16.3v16.32m0 16.3v16.3m0 16.3v16.32m0 16.3v16.3m0 16.3v16.32m0 16.3v16.3m0 16.3v16.32m0 16.3v16.3m0 16.3v16.32m0 16.3v16.3m0 16.32v16.3m0 16.3v16.3m0 16.32v16.3m0 16.3v16.3m0 16.32v16.3m0 16.3v16.3m0 16.32v16.3m0 16.3v16.3m0 16.32v16.3m0 16.3v8.16M120 522.05V520" stroke="#3a414a" stroke-width="4" fill="none"/><path d="M120 1353.53l-4.64-14.27h9.28z" stroke="#3a414a" stroke-width="4" fill="#3a414a"/><path d="M500 483v7.9m0 15.83v15.82m0 15.82v15.82m0 15.8v15.83m0 15.82v15.82m0 15.82v15.8m0 15.83v15.82m0 15.82v15.8m0 15.84v15.82m0 15.82v15.82m0 15.82v15.82m0 15.82v15.82m0 15.82v15.82m0 15.82v15.82m0 15.82v15.82m0 15.82v15.82m0 15.82v15.82m0 15.82v15.82m0 15.82v15.82m0 15.82v15.82m0 15.82v15.82m0 15.82v15.82m0 15.82v15.8m0 15.84v15.82m0 15.8v15.83m0 15.82v15.82m0 15.8v15.83m0 15.82v7.9" stroke="#3a414a" stroke-width="4" fill="none"/><path d="M501.98 483.05h-3.96V481h3.96z" stroke="#3a414a" stroke-width=".05" fill="#3a414a"/><path d="M500 1353.53l-4.63-14.27h9.26z" stroke="#3a414a" stroke-width="4" fill="#3a414a"/><defs><path fill="#cc4e00" d="M180 0v-1490h190v1322h690V0H180" id="w"/><path fill="#cc4e00" d="M613 24c-304 0-509-231-509-576 0-350 205-580 509-580 305 0 511 230 511 580 0 345-206 576-511 576zm0-161c226 0 329-195 329-415 0-222-103-419-329-419-223 0-326 196-326 419 0 220 103 415 326 415" id="x"/><path fill="#cc4e00" d="M611 442c-248 0-391-105-460-228l146-94c47 65 117 165 314 165 178 0 307-82 307-266v-224h-17C863-141 792-18 576-18c-268 0-472-195-472-546 0-346 197-568 476-568 216 0 288 133 326 193h17v-179h175V29c0 289-215 413-487 413zm-5-620c203 0 314-146 314-390 0-237-108-403-314-403-213 0-319 180-319 403 0 230 109 390 319 390" id="y"/><path fill="#cc4e00" d="M158 0v-1118h180V0H158zm91-1301c-68 0-125-53-125-119s57-119 125-119c69 0 126 53 126 119s-57 119-126 119" id="z"/><path fill="#cc4e00" d="M338-670V0H158v-1118h173l1 207c72-158 192-221 342-221 226 0 378 139 378 422V0H872v-695c0-172-96-275-252-275-161 0-282 109-282 300" id="A"/><g id="a"><use transform="matrix(0.013020833333333334,0,0,0.013020833333333334,0,0)" xlink:href="#w"/><use transform="matrix(0.013020833333333334,0,0,0.013020833333333334,15.078125,0)" xlink:href="#x"/><use transform="matrix(0.013020833333333334,0,0,0.013020833333333334,31.067708333333336,0)" xlink:href="#y"/><use transform="matrix(0.013020833333333334,0,0,0.013020833333333334,47.421875,0)" xlink:href="#z"/><use transform="matrix(0.013020833333333334,0,0,0.013020833333333334,53.880208333333336,0)" xlink:href="#A"/></g><path fill="#cc4e00" d="M657 26c-323 0-524-166-541-416h195c15 169 171 246 346 246 202 0 356-106 356-265 5-203-294-238-475-293-239-73-380-191-380-389 0-252 224-419 512-419 294 0 499 171 508 396H992c-17-145-151-228-328-228-193 0-321 102-321 242 0 156 175 211 284 241l149 41c160 44 422 134 422 412 0 244-197 432-541 432" id="B"/><path fill="#cc4e00" d="M537 14c-226 0-379-139-379-422v-710h180v695c0 172 97 275 253 275 160 0 281-109 281-300v-670h181V0H879v-209C806-46 684 14 537 14" id="C"/><path fill="#cc4e00" d="M613 24c-304 0-509-231-509-576 0-350 205-580 509-580 216 0 392 114 453 309l-173 49c-33-115-133-197-280-197-223 0-326 196-326 419 0 220 103 415 326 415 150 0 252-85 285-206l172 49C1010-95 832 24 613 24" id="D"/><path fill="#cc4e00" d="M628 24c-324 0-524-230-524-574 0-343 198-582 503-582 237 0 487 146 487 559v75H286c9 234 145 362 343 362 132 0 231-58 273-172l174 48C1024-91 857 24 628 24zM287-650h624c-17-190-120-322-304-322-192 0-309 151-320 322" id="E"/><path fill="#cc4e00" d="M538 24C308 24 148-78 108-271l171-41c32 123 123 178 257 178 156 0 256-77 256-169 0-77-54-128-164-154l-186-44c-203-48-300-148-300-305 0-192 176-326 414-326 230 0 351 112 402 269l-163 42c-31-80-94-158-238-158-133 0-233 69-233 162 0 83 57 129 188 160l169 40c203 48 298 149 298 302 0 196-179 339-441 339" id="F"/><g id="b"><use transform="matrix(0.013020833333333334,0,0,0.013020833333333334,0,0)" xlink:href="#B"/><use transform="matrix(0.013020833333333334,0,0,0.013020833333333334,17.109375,0)" xlink:href="#C"/><use transform="matrix(0.013020833333333334,0,0,0.013020833333333334,32.87760416666667,0)" xlink:href="#D"/><use transform="matrix(0.013020833333333334,0,0,0.013020833333333334,48.11197916666667,0)" xlink:href="#D"/><use transform="matrix(0.013020833333333334,0,0,0.013020833333333334,63.34635416666667,0)" xlink:href="#E"/><use transform="matrix(0.013020833333333334,0,0,0.013020833333333334,78.89322916666667,0)" xlink:href="#F"/><use transform="matrix(0.013020833333333334,0,0,0.013020833333333334,92.96875,0)" xlink:href="#F"/></g><path fill="#cc4e00" d="M692-1560L212 224H46l480-1784h166" id="G"/><use transform="matrix(0.013020833333333334,0,0,0.013020833333333334,0,0)" xlink:href="#G" id="c"/><path fill="#cc4e00" d="M180 0v-1490h908v168H370v486h669v168H370v500h727V0H180" id="H"/><path fill="#cc4e00" d="M158 0v-1118h174v172h12c41-113 157-188 290-188 26 0 70 2 91 3v181c-11-2-60-10-108-10-161 0-279 109-279 260V0H158" id="I"/><g id="d"><use transform="matrix(0.013020833333333334,0,0,0.013020833333333334,0,0)" xlink:href="#H"/><use transform="matrix(0.013020833333333334,0,0,0.013020833333333334,16.028645833333336,0)" xlink:href="#I"/><use transform="matrix(0.013020833333333334,0,0,0.013020833333333334,26.484375000000004,0)" xlink:href="#I"/><use transform="matrix(0.013020833333333334,0,0,0.013020833333333334,36.08072916666667,0)" xlink:href="#x"/><use transform="matrix(0.013020833333333334,0,0,0.013020833333333334,52.07031250000001,0)" xlink:href="#I"/></g><path fill="#cc4e00" d="M180 0v-1490h270l367 940c28 72 75 218 110 339 35-117 81-264 110-339l362-940h271V0h-187c2-448-5-837 7-1287-157 497-311 829-483 1287H842C666-458 514-784 354-1284c12 438 5 843 7 1284H180" id="J"/><path fill="#cc4e00" d="M471 26C259 26 90-98 90-318c0-256 228-303 435-329 202-27 287-16 287-108 0-139-79-219-234-219-161 0-248 86-283 164l-173-57c86-203 278-265 451-265 150 0 419 46 419 395V0H815v-152h-12C765-73 660 26 471 26zm31-159c199 0 310-134 310-271v-155c-30 35-226 55-295 64-131 17-246 59-246 186 0 116 97 176 231 176" id="K"/><g id="e"><use transform="matrix(0.013020833333333334,0,0,0.013020833333333334,0,0)" xlink:href="#J"/><use transform="matrix(0.013020833333333334,0,0,0.013020833333333334,24.088541666666668,0)" xlink:href="#K"/><use transform="matrix(0.013020833333333334,0,0,0.013020833333333334,39.0625,0)" xlink:href="#A"/><use transform="matrix(0.013020833333333334,0,0,0.013020833333333334,54.817708333333336,0)" xlink:href="#K"/><use transform="matrix(0.013020833333333334,0,0,0.013020833333333334,69.79166666666667,0)" xlink:href="#y"/><use transform="matrix(0.013020833333333334,0,0,0.013020833333333334,86.14583333333334,0)" xlink:href="#E"/></g><path fill="#cc4e00" d="M598-1118v154H368v674c0 100 37 144 132 144 23 0 62-6 92-12L629-6c-37 13-88 20-134 20-193 0-307-107-307-290v-688H20v-154h168v-266h180v266h230" id="L"/><path fill="#cc4e00" d="M678-1118v154H420V0H240v-964H20v-154h220v-149c0-194 155-293 318-293 85 0 141 18 168 30l-50 154c-19-6-47-17-97-17-111 0-159 58-159 166v109h258" id="M"/><g id="f"><use transform="matrix(0.013020833333333334,0,0,0.013020833333333334,0,0)" xlink:href="#B"/><use transform="matrix(0.013020833333333334,0,0,0.013020833333333334,17.109375,0)" xlink:href="#L"/><use transform="matrix(0.013020833333333334,0,0,0.013020833333333334,25.963541666666664,0)" xlink:href="#K"/><use transform="matrix(0.013020833333333334,0,0,0.013020833333333334,40.9375,0)" xlink:href="#M"/><use transform="matrix(0.013020833333333334,0,0,0.013020833333333334,49.765625,0)" xlink:href="#M"/></g><path fill="#cc4e00" d="M784 20c-382 0-662-292-662-764 0-473 280-766 662-766s660 293 660 766c0 472-278 764-660 764zm0-176c266 0 475-207 475-588 0-383-209-590-475-590-268 0-477 208-477 590 0 380 209 588 477 588" id="N"/><g id="g"><use transform="matrix(0.013020833333333334,0,0,0.013020833333333334,0,0)" xlink:href="#N"/><use transform="matrix(0.013020833333333334,0,0,0.013020833333333334,20.390625,0)" xlink:href="#M"/><use transform="matrix(0.013020833333333334,0,0,0.013020833333333334,30.260416666666668,0)" xlink:href="#z"/><use transform="matrix(0.013020833333333334,0,0,0.013020833333333334,36.71875,0)" xlink:href="#z"/><use transform="matrix(0.013020833333333334,0,0,0.013020833333333334,43.177083333333336,0)" xlink:href="#D"/><use transform="matrix(0.013020833333333334,0,0,0.013020833333333334,58.411458333333336,0)" xlink:href="#E"/><use transform="matrix(0.013020833333333334,0,0,0.013020833333333334,73.95833333333334,0)" xlink:href="#F"/></g><path fill="#cc4e00" d="M763 24c-353 0-583-224-583-531v-983h190v968c0 214 149 370 393 370 243 0 391-156 391-370v-968h190v983c0 307-230 531-581 531" id="O"/><path fill="#cc4e00" d="M158 418v-1536h174v179h20c37-59 106-193 324-193 279 0 474 222 474 576 0 356-194 580-473 580-213 0-288-135-325-197h-14v591H158zm492-555c209 0 317-186 317-421 0-232-105-413-317-413-206 0-314 166-314 413 0 249 111 421 314 421" id="P"/><path fill="#cc4e00" d="M577 24c-279 0-473-224-473-580 0-354 195-576 474-576 218 0 287 134 324 193h14v-551h180V0H922v-173h-20C865-111 790 24 577 24zm27-161c203 0 314-172 314-421 0-247-108-413-314-413-212 0-317 181-317 413 0 235 108 421 317 421" id="Q"/><g id="h"><use transform="matrix(0.013020833333333334,0,0,0.013020833333333334,0,0)" xlink:href="#O"/><use transform="matrix(0.013020833333333334,0,0,0.013020833333333334,19.84375,0)" xlink:href="#P"/><use transform="matrix(0.013020833333333334,0,0,0.013020833333333334,36.171875,0)" xlink:href="#Q"/><use transform="matrix(0.013020833333333334,0,0,0.013020833333333334,52.5,0)" xlink:href="#K"/><use transform="matrix(0.013020833333333334,0,0,0.013020833333333334,67.47395833333333,0)" xlink:href="#L"/><use transform="matrix(0.013020833333333334,0,0,0.013020833333333334,75.93749999999999,0)" xlink:href="#E"/><use transform="matrix(0.013020833333333334,0,0,0.013020833333333334,91.48437499999999,0)" xlink:href="#Q"/></g><path fill="#cc4e00" d="M783 20c-382 0-661-292-661-764 0-473 279-766 661-766 302 0 548 182 601 489h-190c-42-204-217-313-411-313-268 0-476 208-476 590 0 381 209 588 476 588 195 0 369-110 411-313h190c-52 303-296 489-601 489" id="R"/><path fill="#cc4e00" d="M158 0v-1118h175l1 205c55-151 181-225 313-225 147 0 245 90 285 228 53-141 190-228 352-228 194 0 352 125 352 384V0h-181v-749c0-161-105-225-225-225-151 0-243 103-243 244V0H807v-767c0-124-93-207-219-207-131 0-250 92-250 270V0H158" id="S"/><g id="i"><use transform="matrix(0.013020833333333334,0,0,0.013020833333333334,0,0)" xlink:href="#R"/><use transform="matrix(0.013020833333333334,0,0,0.013020833333333334,19.479166666666668,0)" xlink:href="#x"/><use transform="matrix(0.013020833333333334,0,0,0.013020833333333334,35.46875,0)" xlink:href="#A"/><use transform="matrix(0.013020833333333334,0,0,0.013020833333333334,51.223958333333336,0)" xlink:href="#M"/><use transform="matrix(0.013020833333333334,0,0,0.013020833333333334,61.09375,0)" xlink:href="#z"/><use transform="matrix(0.013020833333333334,0,0,0.013020833333333334,67.55208333333333,0)" xlink:href="#I"/><use transform="matrix(0.013020833333333334,0,0,0.013020833333333334,78.0078125,0)" xlink:href="#S"/><use transform="matrix(0.013020833333333334,0,0,0.013020833333333334,101.3671875,0)" xlink:href="#K"/><use transform="matrix(0.013020833333333334,0,0,0.013020833333333334,116.34114583333334,0)" xlink:href="#L"/><use transform="matrix(0.013020833333333334,0,0,0.013020833333333334,125.06510416666664,0)" xlink:href="#z"/><use transform="matrix(0.013020833333333334,0,0,0.013020833333333334,131.5234375,0)" xlink:href="#x"/><use transform="matrix(0.013020833333333334,0,0,0.013020833333333334,147.51302083333334,0)" xlink:href="#A"/></g><path fill="#cc4e00" d="M338-670V0H158v-1490h180v566c73-149 190-208 336-208 226 0 379 139 379 422V0H872v-695c0-172-96-275-252-275-161 0-282 109-282 300" id="T"/><g id="j"><use transform="matrix(0.013020833333333334,0,0,0.013020833333333334,0,0)" xlink:href="#B"/><use transform="matrix(0.013020833333333334,0,0,0.013020833333333334,17.109375,0)" xlink:href="#T"/><use transform="matrix(0.013020833333333334,0,0,0.013020833333333334,32.87760416666667,0)" xlink:href="#z"/><use transform="matrix(0.013020833333333334,0,0,0.013020833333333334,39.33593750000001,0)" xlink:href="#P"/><use transform="matrix(0.013020833333333334,0,0,0.013020833333333334,55.6640625,0)" xlink:href="#P"/><use transform="matrix(0.013020833333333334,0,0,0.013020833333333334,71.9921875,0)" xlink:href="#z"/><use transform="matrix(0.013020833333333334,0,0,0.013020833333333334,78.45052083333333,0)" xlink:href="#A"/><use transform="matrix(0.013020833333333334,0,0,0.013020833333333334,94.20572916666666,0)" xlink:href="#y"/></g><path fill="#cc4e00" d="M180 0v-1490h510c348 0 508 194 508 460 0 198-88 351-276 417L1256 0h-220L726-579c-117 2-238 0-356 1V0H180zm190-747h312c235 0 327-108 327-283 0-177-92-293-329-293H370v576" id="U"/><g id="k"><use transform="matrix(0.013020833333333334,0,0,0.013020833333333334,0,0)" xlink:href="#U"/><use transform="matrix(0.013020833333333334,0,0,0.013020833333333334,17.031250000000004,0)" xlink:href="#K"/><use transform="matrix(0.013020833333333334,0,0,0.013020833333333334,32.005208333333336,0)" xlink:href="#L"/><use transform="matrix(0.013020833333333334,0,0,0.013020833333333334,40.46875,0)" xlink:href="#E"/><use transform="matrix(0.013020833333333334,0,0,0.013020833333333334,56.015625,0)" xlink:href="#F"/></g><g id="l"><use transform="matrix(0.013020833333333334,0,0,0.013020833333333334,0,0)" xlink:href="#U"/><use transform="matrix(0.013020833333333334,0,0,0.013020833333333334,17.031250000000004,0)" xlink:href="#K"/><use transform="matrix(0.013020833333333334,0,0,0.013020833333333334,32.005208333333336,0)" xlink:href="#L"/><use transform="matrix(0.013020833333333334,0,0,0.013020833333333334,40.46875,0)" xlink:href="#E"/><use transform="matrix(0.013020833333333334,0,0,0.013020833333333334,56.015625,0)" xlink:href="#F"/></g><g id="m"><use transform="matrix(0.013020833333333334,0,0,0.013020833333333334,0,0)" xlink:href="#O"/><use transform="matrix(0.013020833333333334,0,0,0.013020833333333334,19.84375,0)" xlink:href="#P"/><use transform="matrix(0.013020833333333334,0,0,0.013020833333333334,36.171875,0)" xlink:href="#Q"/><use transform="matrix(0.013020833333333334,0,0,0.013020833333333334,52.5,0)" xlink:href="#K"/><use transform="matrix(0.013020833333333334,0,0,0.013020833333333334,67.47395833333333,0)" xlink:href="#L"/><use transform="matrix(0.013020833333333334,0,0,0.013020833333333334,75.93749999999999,0)" xlink:href="#E"/><use transform="matrix(0.013020833333333334,0,0,0.013020833333333334,91.48437499999999,0)" xlink:href="#Q"/></g><path fill="#cc4e00" d="M789 20c-398 0-667-293-667-764 0-473 273-766 655-766 315 0 558 198 612 487h-196c-61-191-204-311-415-311-262 0-471 207-471 590 0 380 208 588 482 588 249 0 420-165 425-427H828v-166h572v163c0 370-256 606-611 606" id="V"/><g id="n"><use transform="matrix(0.013020833333333334,0,0,0.013020833333333334,0,0)" xlink:href="#V"/><use transform="matrix(0.013020833333333334,0,0,0.013020833333333334,19.895833333333336,0)" xlink:href="#E"/><use transform="matrix(0.013020833333333334,0,0,0.013020833333333334,35.442708333333336,0)" xlink:href="#A"/><use transform="matrix(0.013020833333333334,0,0,0.013020833333333334,51.19791666666667,0)" xlink:href="#E"/><use transform="matrix(0.013020833333333334,0,0,0.013020833333333334,66.74479166666667,0)" xlink:href="#I"/><use transform="matrix(0.013020833333333334,0,0,0.013020833333333334,76.78385416666667,0)" xlink:href="#K"/><use transform="matrix(0.013020833333333334,0,0,0.013020833333333334,91.7578125,0)" xlink:href="#L"/><use transform="matrix(0.013020833333333334,0,0,0.013020833333333334,100.22135416666666,0)" xlink:href="#E"/></g><g id="o"><use transform="matrix(0.013020833333333334,0,0,0.013020833333333334,0,0)" xlink:href="#U"/><use transform="matrix(0.013020833333333334,0,0,0.013020833333333334,16.770833333333336,0)" xlink:href="#E"/><use transform="matrix(0.013020833333333334,0,0,0.013020833333333334,32.317708333333336,0)" xlink:href="#P"/><use transform="matrix(0.013020833333333334,0,0,0.013020833333333334,48.645833333333336,0)" xlink:href="#x"/><use transform="matrix(0.013020833333333334,0,0,0.013020833333333334,64.63541666666667,0)" xlink:href="#I"/><use transform="matrix(0.013020833333333334,0,0,0.013020833333333334,75.09114583333334,0)" xlink:href="#L"/><use transform="matrix(0.013020833333333334,0,0,0.013020833333333334,83.5546875,0)" xlink:href="#F"/></g><g id="p"><use transform="matrix(0.013020833333333334,0,0,0.013020833333333334,0,0)" xlink:href="#U"/><use transform="matrix(0.013020833333333334,0,0,0.013020833333333334,16.770833333333336,0)" xlink:href="#E"/><use transform="matrix(0.013020833333333334,0,0,0.013020833333333334,32.317708333333336,0)" xlink:href="#P"/><use transform="matrix(0.013020833333333334,0,0,0.013020833333333334,48.645833333333336,0)" xlink:href="#x"/><use transform="matrix(0.013020833333333334,0,0,0.013020833333333334,64.63541666666667,0)" xlink:href="#I"/><use transform="matrix(0.013020833333333334,0,0,0.013020833333333334,75.09114583333334,0)" xlink:href="#L"/><use transform="matrix(0.013020833333333334,0,0,0.013020833333333334,83.5546875,0)" xlink:href="#F"/></g><g id="q"><use transform="matrix(0.013020833333333334,0,0,0.013020833333333334,0,0)" xlink:href="#H"/><use transform="matrix(0.013020833333333334,0,0,0.013020833333333334,16.028645833333336,0)" xlink:href="#A"/><use transform="matrix(0.013020833333333334,0,0,0.013020833333333334,31.783854166666675,0)" xlink:href="#E"/><use transform="matrix(0.013020833333333334,0,0,0.013020833333333334,47.33072916666667,0)" xlink:href="#I"/><use transform="matrix(0.013020833333333334,0,0,0.013020833333333334,57.36979166666667,0)" xlink:href="#K"/><use transform="matrix(0.013020833333333334,0,0,0.013020833333333334,72.34375,0)" xlink:href="#L"/><use transform="matrix(0.013020833333333334,0,0,0.013020833333333334,80.80729166666666,0)" xlink:href="#E"/><use transform="matrix(0.013020833333333334,0,0,0.013020833333333334,96.35416666666666,0)" xlink:href="#Q"/></g><path fill="#3a414a" d="M786 20C389 20 94-260 94-744c0-487 299-766 692-766 339 0 597 194 641 529h-309c-28-162-156-258-326-258-233 0-388 179-388 495 0 323 157 493 387 493 170 0 298-97 328-259h309c-34 277-266 530-642 530" id="W"/><path fill="#3a414a" d="M628 22C291 22 81-210 81-554c0-346 210-578 547-578 336 0 547 232 547 578 0 344-211 576-547 576zm0-236c160 0 242-146 242-341 0-197-82-341-242-341S387-753 387-555c0 195 81 341 241 341" id="X"/><path fill="#3a414a" d="M513 14c-232 0-385-159-385-421v-711h300v659c0 139 76 222 202 222 127 0 217-86 217-234v-647h301V0H864l-4-232C797-74 683 14 513 14" id="Y"/><path fill="#3a414a" d="M128 0v-1118h290v195h12c54-169 184-238 367-200v268c-27-8-86-15-130-15-138 0-239 95-239 234V0H128" id="Z"/><path fill="#3a414a" d="M128 0v-1118h300V0H128zm150-1264c-91 0-165-68-165-154 0-85 74-154 165-154 90 0 165 69 165 154 0 86-75 154-165 154" id="aa"/><path fill="#3a414a" d="M633 22C291 22 81-200 81-553c0-345 210-579 537-579 292 0 525 185 525 567v84H378c7 183 109 277 260 277 105 0 184-46 216-132l272 51C1071-99 893 22 633 22zM380-669h474c-15-146-94-237-233-237-143 0-229 99-241 237" id="ab"/><g id="r"><use transform="matrix(0.010850694444444444,0,0,0.010850694444444444,0,0)" xlink:href="#W"/><use transform="matrix(0.010850694444444444,0,0,0.010850694444444444,16.438802083333332,0)" xlink:href="#X"/><use transform="matrix(0.010850694444444444,0,0,0.010850694444444444,30.067274305555554,0)" xlink:href="#Y"/><use transform="matrix(0.010850694444444444,0,0,0.010850694444444444,43.90190972222222,0)" xlink:href="#Z"/><use transform="matrix(0.010850694444444444,0,0,0.010850694444444444,53.11414930555556,0)" xlink:href="#aa"/><use transform="matrix(0.010850694444444444,0,0,0.010850694444444444,59.13628472222221,0)" xlink:href="#ab"/><use transform="matrix(0.010850694444444444,0,0,0.010850694444444444,72.37413194444443,0)" xlink:href="#Z"/></g><path fill="#3a414a" d="M135 0v-1490h468l242 684c30 94 76 293 111 455 34-161 80-360 110-455l238-684h470V0h-307c0-447-3-765 11-1227-122 503-246 788-395 1227H826C676-435 552-717 427-1215c15 453 11 775 11 1215H135" id="ac"/><path fill="#3a414a" d="M440 22C227 22 68-92 68-313c0-250 202-322 422-343 195-21 271-24 271-105 0-95-63-149-175-149-116 0-187 57-211 129l-275-46c57-194 237-305 487-305 240 0 474 108 474 379V0H777v-155h-10C713-51 605 22 440 22zm85-211c140 0 238-93 238-211v-121c-37 26-156 42-222 51-111 16-185 59-185 149 0 87 70 132 169 132" id="ad"/><path fill="#3a414a" d="M428-647V0H128v-1118h283l4 231c63-156 176-245 348-245 232 0 384 159 384 421V0H847v-659c0-139-76-222-202-222-128 0-217 86-217 234" id="ae"/><path fill="#3a414a" d="M625 442c-280 0-454-114-503-274l258-72c28 63 97 128 243 128 153 0 246-69 246-216v-206h-23C805-108 717-16 536-16 284-16 81-191 81-561c0-378 208-571 456-571 188 0 280 113 321 202h13v-188h295V-9c0 303-226 451-541 451zm5-686c153 0 240-119 240-319 0-198-86-329-240-329-158 0-241 137-241 329 0 195 85 319 241 319" id="af"/><path fill="#3a414a" d="M128 0v-1118h278l12 217c60-163 185-234 319-234 143 0 236 81 288 251 63-172 205-251 359-251 205 0 357 138 357 381V0h-301v-697c0-126-76-187-177-187-114 0-184 79-184 196V0H789v-705c0-109-72-179-174-179-106 0-187 74-187 208V0H128" id="ag"/><path fill="#3a414a" d="M683-1118v229H474v562c0 71 29 104 102 104 23 0 73-7 95-13l43 225C647 9 580 16 520 16 296 16 174-96 174-301v-588H20v-229h154v-266h300v266h209" id="ah"/><g id="s"><use transform="matrix(0.010850694444444444,0,0,0.010850694444444444,0,0)" xlink:href="#ac"/><use transform="matrix(0.010850694444444444,0,0,0.010850694444444444,20.703125,0)" xlink:href="#ad"/><use transform="matrix(0.010850694444444444,0,0,0.010850694444444444,33.60460069444444,0)" xlink:href="#ae"/><use transform="matrix(0.010850694444444444,0,0,0.010850694444444444,47.43923611111111,0)" xlink:href="#ad"/><use transform="matrix(0.010850694444444444,0,0,0.010850694444444444,60.34071180555555,0)" xlink:href="#af"/><use transform="matrix(0.010850694444444444,0,0,0.010850694444444444,74.38151041666666,0)" xlink:href="#ab"/><use transform="matrix(0.010850694444444444,0,0,0.010850694444444444,87.61935763888889,0)" xlink:href="#ag"/><use transform="matrix(0.010850694444444444,0,0,0.010850694444444444,107.89930555555556,0)" xlink:href="#ab"/><use transform="matrix(0.010850694444444444,0,0,0.010850694444444444,121.13715277777777,0)" xlink:href="#ae"/><use transform="matrix(0.010850694444444444,0,0,0.010850694444444444,134.97178819444443,0)" xlink:href="#ah"/></g><path fill="#3a414a" d="M681 22C323 22 94-145 85-462h297c10 151 131 226 296 226 163 0 271-77 271-190 0-102-95-149-257-189l-164-41c-252-61-403-188-403-405 0-269 236-449 560-449 330 0 546 183 551 445H941c-11-119-106-188-259-188-156 0-244 72-244 172-3 156 226 185 373 221 250 61 445 186 445 436 0 271-213 446-575 446" id="ai"/><path fill="#3a414a" d="M120 396l69-226c123 42 245 23 254-107l8-60L31-1118h319c87 288 199 559 259 872 72-308 185-583 277-872h315L726 132c-68 181-186 294-410 294-79 0-153-13-196-30" id="aj"/><path fill="#3a414a" d="M572 22C302 22 117-98 78-306l279-48c29 105 101 156 224 156 114 0 185-48 185-115 0-118-228-130-337-155-215-49-322-150-322-317 0-215 187-347 470-347 265 0 424 116 466 298l-266 47c-24-76-87-130-196-130-98 0-174 46-174 113 0 56 38 95 144 117l201 40c216 44 320 143 320 302 0 220-207 367-500 367" id="ak"/><g id="t"><use transform="matrix(0.010850694444444444,0,0,0.010850694444444444,0,0)" xlink:href="#ai"/><use transform="matrix(0.010850694444444444,0,0,0.010850694444444444,14.55078125,0)" xlink:href="#aj"/><use transform="matrix(0.010850694444444444,0,0,0.010850694444444444,27.9296875,0)" xlink:href="#ak"/><use transform="matrix(0.010850694444444444,0,0,0.010850694444444444,40.37543402777778,0)" xlink:href="#ah"/><use transform="matrix(0.010850694444444444,0,0,0.010850694444444444,48.29644097222223,0)" xlink:href="#ab"/><use transform="matrix(0.010850694444444444,0,0,0.010850694444444444,61.53428819444445,0)" xlink:href="#ag"/></g><path fill="#cc4e00" d="M681 22C323 22 94-145 85-462h297c10 151 131 226 296 226 163 0 271-77 271-190 0-102-95-149-257-189l-164-41c-252-61-403-188-403-405 0-269 236-449 560-449 330 0 546 183 551 445H941c-11-119-106-188-259-188-156 0-244 72-244 172-3 156 226 185 373 221 250 61 445 186 445 436 0 271-213 446-575 446" id="al"/><path fill="#cc4e00" d="M513 14c-232 0-385-159-385-421v-711h300v659c0 139 76 222 202 222 127 0 217-86 217-234v-647h301V0H864l-4-232C797-74 683 14 513 14" id="am"/><path fill="#cc4e00" d="M128 418v-1536h295v188h14c41-89 129-202 319-202 248 0 453 193 453 575 0 372-197 576-455 576-183 0-275-108-317-198h-9v597H128zm534-640c156 0 240-139 240-336 0-196-83-334-240-334-154 0-241 131-241 334 0 202 88 336 241 336" id="an"/><path fill="#cc4e00" d="M633 22C291 22 81-200 81-553c0-345 210-579 537-579 292 0 525 185 525 567v84H378c7 183 109 277 260 277 105 0 184-46 216-132l272 51C1071-99 893 22 633 22zM380-669h474c-15-146-94-237-233-237-143 0-229 99-241 237" id="ao"/><path fill="#cc4e00" d="M128 0v-1118h290v195h12c54-169 184-238 367-200v268c-27-8-86-15-130-15-138 0-239 95-239 234V0H128" id="ap"/><g id="u"><use transform="matrix(0.015190972222222222,0,0,0.015190972222222222,0,0)" xlink:href="#al"/><use transform="matrix(0.015190972222222222,0,0,0.015190972222222222,20.37109375,0)" xlink:href="#am"/><use transform="matrix(0.015190972222222222,0,0,0.015190972222222222,39.73958333333333,0)" xlink:href="#an"/><use transform="matrix(0.015190972222222222,0,0,0.015190972222222222,59.351128472222214,0)" xlink:href="#ao"/><use transform="matrix(0.015190972222222222,0,0,0.015190972222222222,77.88411458333333,0)" xlink:href="#ap"/></g><path fill="#cc4e00" d="M49 0l509-1490h400L1480 0h-339l-115-346H497L386 0H49zm524-585h374c-75-213-124-402-192-666-66 268-110 453-182 666" id="aq"/><path fill="#cc4e00" d="M537 19C279 19 81-185 81-557c0-382 206-575 454-575 190 0 278 113 318 202h10v-560h300V0H868v-179h-15C812-89 719 19 537 19zm92-241c153 0 240-134 240-336 0-203-86-334-240-334-158 0-240 138-240 334 0 197 84 336 240 336" id="ar"/><path fill="#cc4e00" d="M128 0v-1118h278l12 217c60-163 185-234 319-234 143 0 236 81 288 251 63-172 205-251 359-251 205 0 357 138 357 381V0h-301v-697c0-126-76-187-177-187-114 0-184 79-184 196V0H789v-705c0-109-72-179-174-179-106 0-187 74-187 208V0H128" id="as"/><path fill="#cc4e00" d="M128 0v-1118h300V0H128zm150-1264c-91 0-165-68-165-154 0-85 74-154 165-154 90 0 165 69 165 154 0 86-75 154-165 154" id="at"/><path fill="#cc4e00" d="M428-647V0H128v-1118h283l4 231c63-156 176-245 348-245 232 0 384 159 384 421V0H847v-659c0-139-76-222-202-222-128 0-217 86-217 234" id="au"/><g id="v"><use transform="matrix(0.015190972222222222,0,0,0.015190972222222222,0,0)" xlink:href="#aq"/><use transform="matrix(0.015190972222222222,0,0,0.015190972222222222,22.513020833333336,0)" xlink:href="#ar"/><use transform="matrix(0.015190972222222222,0,0,0.015190972222222222,42.12456597222223,0)" xlink:href="#as"/><use transform="matrix(0.015190972222222222,0,0,0.015190972222222222,70.51649305555556,0)" xlink:href="#at"/><use transform="matrix(0.015190972222222222,0,0,0.015190972222222222,78.94748263888889,0)" xlink:href="#au"/></g></defs></g></svg>