<svg xmlns="http://www.w3.org/2000/svg" xmlns:xlink="http://www.w3.org/1999/xlink" xmlns:lucid="lucid" width="2344.54" height="949.55"><g transform="translate(542 270.25474609375)" lucid:page-tab-id="0_0"><path d="M-540-214a6 6 0 0 1 6-6h2328.55a6 6 0 0 1 6 6v885.3a6 6 0 0 1-6 6H-534a6 6 0 0 1-6-6z" stroke="#000" stroke-width="4" fill-opacity="0"/><path d="M-540-262.25a6 6 0 0 1 6-6h502.8a6 6 0 0 1 6 6V-238a6 6 0 0 1-6 6H-534a6 6 0 0 1-6-6z" stroke="#000" stroke-width="4"/><use xlink:href="#a" transform="matrix(1,0,0,1,-532,-260.25474609375) translate(0 16.589501953125)"/><use xlink:href="#b" transform="matrix(1,0,0,1,-532,-260.25474609375) translate(69.46936523437499 16.589501953125)"/><use xlink:href="#c" transform="matrix(1,0,0,1,-532,-260.25474609375) translate(153.30832031249997 16.589501953125)"/><use xlink:href="#d" transform="matrix(1,0,0,1,-532,-260.25474609375) translate(189.06881835937497 16.589501953125)"/><use xlink:href="#e" transform="matrix(1,0,0,1,-532,-260.25474609375) translate(234.0003515625 16.589501953125)"/><use xlink:href="#f" transform="matrix(1,0,0,1,-532,-260.25474609375) translate(304.875615234375 16.589501953125)"/><use xlink:href="#g" transform="matrix(1,0,0,1,-532,-260.25474609375) translate(331.6285546875 16.589501953125)"/><use xlink:href="#h" transform="matrix(1,0,0,1,-532,-260.25474609375) translate(395.180068359375 16.589501953125)"/><path d="M180-114a6 6 0 0 1 6-6h1481.85a6 6 0 0 1 6 6v684.13a6 6 0 0 1-6 6H186a6 6 0 0 1-6-6z" stroke="#fc9432" stroke-width="4" fill-opacity="0"/><path d="M180-162.25a6 6 0 0 1 6-6h234.6a6 6 0 0 1 6 6V-138a6 6 0 0 1-6 6H186a6 6 0 0 1-6-6z" stroke="#fc9432" stroke-width="4" fill="#fc9432"/><use xlink:href="#i" transform="matrix(1,0,0,1,188,-160.25474609375) translate(0 16.589501953125)"/><use xlink:href="#j" transform="matrix(1,0,0,1,188,-160.25474609375) translate(63.55151367187501 16.589501953125)"/><use xlink:href="#k" transform="matrix(1,0,0,1,188,-160.25474609375) translate(171.887431640625 16.589501953125)"/><path d="M-400-92.83a6 6 0 0 1 6-6h250.62a6 6 0 0 1 6 6V77.7a6 6 0 0 1-6 6H-394a6 6 0 0 1-6-6z" stroke="#fc9432" stroke-width="4" fill-opacity="0"/><path d="M-400-161.34a6 6 0 0 1 6-6h243.82a6 6 0 0 1 6 6v44.5a6 6 0 0 1-6 6H-394a6 6 0 0 1-6-6z" stroke="#fc9432" stroke-width="4" fill="#fc9432"/><use xlink:href="#l" transform="matrix(1,0,0,1,-392,-159.33889980656295) translate(0 16.46212890625)"/><use xlink:href="#m" transform="matrix(1,0,0,1,-392,-159.33889980656295) translate(70.875263671875 16.46212890625)"/><use xlink:href="#n" transform="matrix(1,0,0,1,-392,-159.33889980656295) translate(91.21992187500001 16.46212890625)"/><use xlink:href="#o" transform="matrix(1,0,0,1,-392,-159.33889980656295) translate(160.68928710937502 16.46212890625)"/><use xlink:href="#p" transform="matrix(1,0,0,1,-392,-159.33889980656295) translate(0 36.716875)"/><use xlink:href="#q" transform="matrix(1,0,0,1,-392,-159.33889980656295) translate(35.76049804687501 36.716875)"/><use xlink:href="#r" transform="matrix(1,0,0,1,-392,-159.33889980656295) translate(80.69203125000001 36.716875)"/><path d="M1574.9 28.5c16.62 0 30.1 13.45 30.1 30.06 0 16.62-13.48 30.08-30.1 30.08h-60.14c-16.6 0-30.08-13.46-30.08-30.08 0-16.6 13.47-30.07 30.08-30.07z" stroke="#1071e5" stroke-width="4" fill="#6db1ff"/><use xlink:href="#s" transform="matrix(1,0,0,1,1496.6812822556726,40.48747059049579) translate(19.485243055555557 26.44184027777778)"/><path d="M1262.1 5.02c29.58 0 53.55 23.97 53.55 53.54 0 29.58-23.97 53.55-53.54 53.55h-107.07c-29.58 0-53.55-23.96-53.55-53.54 0-29.57 23.97-53.54 53.55-53.54z" stroke="#1071e5" stroke-width="4" fill="#6db1ff"/><use xlink:href="#t" transform="matrix(1,0,0,1,1113.4834366406706,17.02281534333165) translate(17.901258680555557 33.99652777777778)"/><use xlink:href="#u" transform="matrix(1,0,0,1,1113.4834366406706,17.02281534333165) translate(75.60525173611111 33.99652777777778)"/><use xlink:href="#v" transform="matrix(1,0,0,1,1113.4834366406706,17.02281534333165) translate(40.13975694444445 66.26215277777777)"/><path d="M882.97-2.33c33.63 0 60.9 27.26 60.9 60.9 0 33.63-27.27 60.9-60.9 60.9h-121.8c-33.62 0-60.88-27.27-60.88-60.9 0-33.64 27.25-60.9 60.88-60.9z" stroke="#1071e5" stroke-width="4" fill="#6db1ff"/><use xlink:href="#w" transform="matrix(1,0,0,1,712.2856647197029,9.66941656124036) translate(25.771484375 41.05121527777778)"/><use xlink:href="#x" transform="matrix(1,0,0,1,712.2856647197029,9.66941656124036) translate(108.25846354166667 41.05121527777778)"/><use xlink:href="#y" transform="matrix(1,0,0,1,712.2856647197029,9.66941656124036) translate(32.93294270833334 73.31684027777777)"/><use xlink:href="#z" transform="matrix(1,0,0,1,712.2856647197029,9.66941656124036) translate(105.43728298611111 73.31684027777777)"/><use xlink:href="#A" transform="matrix(1,0,0,1,712.2856647197029,9.66941656124036) translate(142.03667534722223 73.31684027777777)"/><path d="M471.9-21.9c44.44 0 80.47 36.02 80.47 80.46 0 44.45-36.03 80.48-80.47 80.48H310.94c-44.44 0-80.48-36.03-80.48-80.48 0-44.44 36.03-80.47 80.48-80.47z" stroke="#1071e5" stroke-width="4" fill="#6db1ff"/><use xlink:href="#B" transform="matrix(1,0,0,1,235.46419287818603,-16.913085852573644) translate(32.61675347222223 83.46137152777777)"/><use xlink:href="#C" transform="matrix(1,0,0,1,235.46419287818603,-16.913085852573644) translate(95.93055555555556 83.46137152777777)"/><use xlink:href="#D" transform="matrix(1,0,0,1,235.46419287818603,-16.913085852573644) translate(123.73003472222223 83.46137152777777)"/><use xlink:href="#E" transform="matrix(1,0,0,1,235.46419287818603,-16.913085852573644) translate(215.95008680555557 83.46137152777777)"/><path d="M448.05 370c31.28 0 56.63 25.35 56.63 56.63 0 31.27-25.35 56.63-56.63 56.63H334.8c-31.3 0-56.64-25.36-56.64-56.63 0-31.28 25.35-56.63 56.63-56.63z" stroke="#1071e5" stroke-width="4" fill="#6db1ff"/><use xlink:href="#F" transform="matrix(1,0,0,1,290.15851113597,381.9988586201112) translate(12.860677083333343 36.99652777777778)"/><use xlink:href="#G" transform="matrix(1,0,0,1,290.15851113597,381.9988586201112) translate(103.85460069444444 36.99652777777778)"/><use xlink:href="#H" transform="matrix(1,0,0,1,290.15851113597,381.9988586201112) translate(163.68532986111111 36.99652777777778)"/><use xlink:href="#D" transform="matrix(1,0,0,1,290.15851113597,381.9988586201112) translate(22.653428819444443 69.26215277777777)"/><use xlink:href="#I" transform="matrix(1,0,0,1,290.15851113597,381.9988586201112) translate(114.87348090277779 69.26215277777777)"/><path d="M1356.42 60.54h-36.77V56.6h36.77zm103.52 0h-16.02V56.6h16.02z" stroke="#3a414a" stroke-width=".05" fill="#3a414a"/><path d="M1319.7 60.54h-2.14l.1-1.97-.08-1.98h2.12z" fill="#3a414a"/><path stroke="#3a414a" stroke-width=".05" fill="#3a414a"/><path d="M1476.2 58.56l-14.26 4.64v-9.27z" fill="#3a414a"/><path d="M1482.6 58.56l-22.63 7.36v-14.7zm-18.68 1.92l5.9-1.92-5.9-1.9z" stroke="#3a414a" stroke-width=".05" fill="#3a414a"/><use xlink:href="#J" transform="matrix(1,0,0,1,1356.4156724628174,47.80924479166663) translate(0.005000000000002558 17.22222222222222)"/><path d="M978.92 60.54h-31.05V56.6h31.05zm97.82 0h-10.32V56.6h10.32z" stroke="#3a414a" stroke-width=".05" fill="#3a414a"/><path d="M947.92 60.54h-2.13l.07-1.94v-.76l-.07-1.25h2.12z" fill="#3a414a"/><path stroke="#3a414a" stroke-width=".05" fill="#3a414a"/><path d="M1093 58.56l-14.26 4.64v-9.27z" fill="#3a414a"/><path d="M1099.4 58.56l-22.63 7.36v-14.7zm-18.68 1.92l5.9-1.92-5.9-1.9z" stroke="#3a414a" stroke-width=".05" fill="#3a414a"/><use xlink:href="#K" transform="matrix(1,0,0,1,978.9239073748557,47.80924479166663) translate(0.005000000000002558 17.22222222222222)"/><path d="M393.4 251.05l.05.7.15.62.24.58.33.54.4.47.5.4.53.34.58.25.6.15.72.05h345.27v3.95H397.34l-1.17-.1-1.22-.28-1.15-.48-1.07-.65-.95-.83-.82-.95-.65-1.07-.47-1.16-.3-1.22-.1-1.17V143.05h3.96zm763.25.16l-.1 1.18-.28 1.22-.48 1.15-.66 1.07-.82.95-.95.82-1.07.64-1.15.48-1.22.3-1.17.08h-318.5v-3.95h318.34l.7-.05.62-.15.58-.24.54-.32.48-.4.4-.5.34-.53.24-.58.15-.6.05-.72V136.83h3.95z" stroke="#3a414a" stroke-width=".05" fill="#3a414a"/><path d="M393.4 143.1h-3.96v-2.06h3.95z" fill="#3a414a"/><path stroke="#3a414a" stroke-width=".05" fill="#3a414a"/><path d="M1159.3 134.83h-9.26l4.64-14.27z" fill="#3a414a"/><path d="M1162.03 136.8h-14.7l7.35-22.63zm-9.27-3.95h3.84l-1.92-5.9z" stroke="#3a414a" stroke-width=".05" fill="#3a414a"/><use xlink:href="#K" transform="matrix(1,0,0,1,742.774156762727,246.37369791666666) translate(0.005000000000002558 17.22222222222222)"/><path d="M970.14 428.6H508.68v-3.95h461.46zm240.4-7.9l-.1 1.18-.28 1.22-.48 1.15-.66 1.07-.8.95-.96.82-1.07.64-1.17.48-1.2.3-1.2.08h-145v-3.95h144.86l.7-.05.6-.15.6-.24.53-.32.48-.4.42-.5.33-.53.24-.58.14-.6.05-.72v-283.7h3.94z" stroke="#3a414a" stroke-width=".05" fill="#3a414a"/><path d="M508.73 428.6h-2.13l.08-1.96-.07-2h2.13z" fill="#3a414a"/><path stroke="#3a414a" stroke-width=".05" fill="#3a414a"/><path d="M1213.2 134.84h-9.27l4.64-14.26z" fill="#3a414a"/><path d="M1215.92 136.82h-14.7l7.35-22.63zm-9.27-3.95h3.83l-1.9-5.9z" stroke="#3a414a" stroke-width=".05" fill="#3a414a"/><use xlink:href="#K" transform="matrix(1,0,0,1,970.135551646235,415.87403013545963) translate(0.005000000000002558 17.22222222222222)"/><path d="M584.6 60.54h-28.23V56.6h28.22zm90.95 0h-7.48V56.6h7.48z" stroke="#3a414a" stroke-width=".05" fill="#3a414a"/><path d="M556.43 60.54h-2.12l.08-1.95-.02-1.53-.02-.48h2.1z" fill="#3a414a"/><path stroke="#3a414a" stroke-width=".05" fill="#3a414a"/><path d="M691.8 58.56l-14.25 4.64v-9.27z" fill="#3a414a"/><path d="M698.2 58.56l-22.63 7.36v-14.7zm-18.68 1.92l5.9-1.92-5.9-1.9z" stroke="#3a414a" stroke-width=".05" fill="#3a414a"/><g><use xlink:href="#L" transform="matrix(1,0,0,1,584.5939197984655,47.80924479166663) translate(0.005000000000002558 17.22222222222222)"/></g><path d="M-133.38-7.57h32a6 6 0 0 0 6-6v-52.6a6 6 0 0 1 6-6h1628.2a6 6 0 0 1 6.02 6V3.76" stroke="#3a414a" stroke-width="4" fill="none"/><path d="M-133.32-5.6h-2.06v-3.94h2.06z" stroke="#3a414a" stroke-width=".05" fill="#3a414a"/><path d="M1544.84 20.02l-4.64-14.27h9.27z" stroke="#3a414a" stroke-width="4" fill="#3a414a"/><path d="M-404-5.6h-31.92l-.7.06-.62.15-.58.25-.54.33-.48.4-.4.5-.34.53-.24.6-.15.6-.05.7v552.72l.05.7.15.62.24.6.33.52.4.48.5.4.53.34.58.24.6.15.72.06h1692.3l.7-.06.62-.15.58-.24.54-.33.48-.4.4-.5.34-.52.24-.6.15-.6.05-.7v-414.4h3.95v414.55l-.1 1.17-.28 1.22-.48 1.15-.66 1.07-.8.94-.95.82-1.07.65-1.16.5-1.22.28-1.17.1h-1692.6l-1.18-.1-1.22-.3-1.15-.47-1.07-.64-.94-.82-.82-.95-.65-1.08-.5-1.15-.28-1.22-.1-1.17V-1.65l.1-1.17.3-1.22.47-1.15.64-1.06.82-.95.95-.83 1.08-.65 1.15-.48 1.22-.3 1.17-.08H-404z" stroke="#3a414a" stroke-width=".05" fill="#3a414a"/><path d="M-402-5.6h-2.05v-3.94h2.05z" fill="#3a414a"/><path stroke="#3a414a" stroke-width=".05" fill="#3a414a"/><path d="M1267.1 134.83h-9.28l4.64-14.26z" fill="#3a414a"/><path d="M1269.8 136.8h-14.7l7.36-22.63zm-9.26-3.94h3.83l-1.9-5.9z" stroke="#3a414a" stroke-width=".05" fill="#3a414a"/><path d="M-133.38-7.57h32a6 6 0 0 0 6-6V-39.5a6 6 0 0 1 6-6h905.46a6 6 0 0 1 6 6v12.43" stroke="#3a414a" stroke-width="4" fill="none"/><path d="M-133.32-5.6h-2.06v-3.94h2.06z" stroke="#3a414a" stroke-width=".05" fill="#3a414a"/><path d="M822.08-10.8l-4.64-14.27h9.27z" stroke="#3a414a" stroke-width="4" fill="#3a414a"/><path d="M-133.38-7.57h32a6 6 0 0 1 6 6v42.9a6 6 0 0 0 6 6h295.9" stroke="#3a414a" stroke-width="4" fill="none"/><path d="M-133.32-5.6h-2.06v-3.94h2.06z" stroke="#3a414a" stroke-width=".05" fill="#3a414a"/><path d="M222.78 47.32l-14.27 4.64V42.7z" stroke="#3a414a" stroke-width="4" fill="#3a414a"/><path d="M-268.7 87.7v332.93a6 6 0 0 0 6 6h516.12" stroke="#3a414a" stroke-width="4" fill="none"/><path d="M-266.7 87.74h-3.96V85.7h3.95z" stroke="#3a414a" stroke-width=".05" fill="#3a414a"/><path d="M269.7 426.63l-14.28 4.63V422z" stroke="#3a414a" stroke-width="4" fill="#3a414a"/><path d="M-272.96-29.5v-.1a10.4 10.4 0 0 1 10.4-10.4 10.4 10.4 0 0 1 10.38 10.4 10.4 10.4 0 0 1-10.4 10.38 10.4 10.4 0 0 1-10.38-10.4v-.1" stroke="#ff80df" stroke-width="2" fill="#fff0fb" fill-opacity="0"/><path d="M-303.23-34a6 6 0 0 1 6-6h69.32a6 6 0 0 1 6 6v71.12a6 6 0 0 1-6 6h-69.33a6 6 0 0 1-6-6z" fill="none"/><path d="M-262.57-19.22v29.1l40.66 33.24m-40.67-33.25l-40.66 33.25m0-51.95h81.32" stroke="#ff80df" stroke-width="2" fill="none"/><g><use xlink:href="#M" transform="matrix(1,0,0,1,-383.2252517361111,43.11911990151316) translate(99.61726562499999 17.089501953125)"/></g><path d="M-315.46-92.83a6 6 0 0 1 6-6h81.55a6 6 0 0 1 6 6v24.9a6 6 0 0 1-6 6h-81.56a6 6 0 0 1-6-6z" fill="none"/><g><use xlink:href="#N" transform="matrix(1,0,0,1,-310.4628353150946,-93.82940761906296) translate(0 21.58376736111111)"/></g><defs><path fill="#fff" d="M645 0H180v-1490h484c435 0 692 280 692 742 0 466-257 748-711 748zM370-168h263c363 0 539-218 539-580 0-358-176-574-521-574H370v1154" id="O"/><path fill="#fff" d="M628 24c-324 0-524-230-524-574 0-343 198-582 503-582 237 0 487 146 487 559v75H286c9 234 145 362 343 362 132 0 231-58 273-172l174 48C1024-91 857 24 628 24zM287-650h624c-17-190-120-322-304-322-192 0-309 151-320 322" id="P"/><path fill="#fff" d="M338-1490V0H158v-1490h180" id="Q"/><path fill="#fff" d="M158 0v-1118h180V0H158zm91-1301c-68 0-125-53-125-119s57-119 125-119c69 0 126 53 126 119s-57 119-126 119" id="R"/><path fill="#fff" d="M481 0L54-1118h197c107 314 236 620 325 951 87-331 217-637 324-951h197L670 0H481" id="S"/><path fill="#fff" d="M158 0v-1118h174v172h12c41-113 157-188 290-188 26 0 70 2 91 3v181c-11-2-60-10-108-10-161 0-279 109-279 260V0H158" id="T"/><path fill="#fff" d="M140 405l46-156c120 36 205 19 263-150l32-93L54-1118h197c107 313 237 620 324 950 87-331 219-637 326-950h196L606 167c-68 178-176 259-334 259-64 0-113-12-132-21" id="U"/><g id="a"><use transform="matrix(0.008173828125000001,0,0,0.008173828125000001,0,0)" xlink:href="#O"/><use transform="matrix(0.008173828125000001,0,0,0.008173828125000001,12.08091796875,0)" xlink:href="#P"/><use transform="matrix(0.008173828125000001,0,0,0.008173828125000001,21.84046875,0)" xlink:href="#Q"/><use transform="matrix(0.008173828125000001,0,0,0.008173828125000001,25.8946875,0)" xlink:href="#R"/><use transform="matrix(0.008173828125000001,0,0,0.008173828125000001,29.94890625,0)" xlink:href="#S"/><use transform="matrix(0.008173828125000001,0,0,0.008173828125000001,39.030029296875,0)" xlink:href="#P"/><use transform="matrix(0.008173828125000001,0,0,0.008173828125000001,48.789580078125,0)" xlink:href="#T"/><use transform="matrix(0.008173828125000001,0,0,0.008173828125000001,55.3531640625,0)" xlink:href="#U"/></g><path fill="#fff" d="M180 0v-1490h510c348 0 508 209 508 474 0 266-160 477-507 477H370V0H180zm190-706h312c236 0 327-133 327-310 0-176-91-307-329-307H370v617" id="V"/><path fill="#fff" d="M538 24C308 24 148-78 108-271l171-41c32 123 123 178 257 178 156 0 256-77 256-169 0-77-54-128-164-154l-186-44c-203-48-300-148-300-305 0-192 176-326 414-326 230 0 351 112 402 269l-163 42c-31-80-94-158-238-158-133 0-233 69-233 162 0 83 57 129 188 160l169 40c203 48 298 149 298 302 0 196-179 339-441 339" id="W"/><path fill="#fff" d="M613 24c-304 0-509-231-509-576 0-350 205-580 509-580 305 0 511 230 511 580 0 345-206 576-511 576zm0-161c226 0 329-195 329-415 0-222-103-419-329-419-223 0-326 196-326 419 0 220 103 415 326 415" id="X"/><path fill="#fff" d="M338-670V0H158v-1118h173l1 207c72-158 192-221 342-221 226 0 378 139 378 422V0H872v-695c0-172-96-275-252-275-161 0-282 109-282 300" id="Y"/><g id="b"><use transform="matrix(0.008173828125000001,0,0,0.008173828125000001,0,0)" xlink:href="#V"/><use transform="matrix(0.008173828125000001,0,0,0.008173828125000001,10.601455078125001,0)" xlink:href="#P"/><use transform="matrix(0.008173828125000001,0,0,0.008173828125000001,20.361005859375002,0)" xlink:href="#T"/><use transform="matrix(0.008173828125000001,0,0,0.008173828125000001,26.663027343750002,0)" xlink:href="#W"/><use transform="matrix(0.008173828125000001,0,0,0.008173828125000001,35.498935546875,0)" xlink:href="#X"/><use transform="matrix(0.008173828125000001,0,0,0.008173828125000001,45.536396484375004,0)" xlink:href="#Y"/><use transform="matrix(0.008173828125000001,0,0,0.008173828125000001,55.426728515625,0)" xlink:href="#Y"/><use transform="matrix(0.008173828125000001,0,0,0.008173828125000001,65.317060546875,0)" xlink:href="#P"/><use transform="matrix(0.008173828125000001,0,0,0.008173828125000001,75.076611328125,0)" xlink:href="#Q"/></g><path fill="#fff" d="M763 24c-353 0-583-224-583-531v-983h190v968c0 214 149 370 393 370 243 0 391-156 391-370v-968h190v983c0 307-230 531-581 531" id="Z"/><g id="c"><use transform="matrix(0.008173828125000001,0,0,0.008173828125000001,0,0)" xlink:href="#Z"/><use transform="matrix(0.008173828125000001,0,0,0.008173828125000001,12.456914062500001,0)" xlink:href="#W"/><use transform="matrix(0.008173828125000001,0,0,0.008173828125000001,21.292822265625002,0)" xlink:href="#P"/></g><path fill="#fff" d="M783 20c-382 0-661-292-661-764 0-473 279-766 661-766 302 0 548 182 601 489h-190c-42-204-217-313-411-313-268 0-476 208-476 590 0 381 209 588 476 588 195 0 369-110 411-313h190c-52 303-296 489-601 489" id="aa"/><path fill="#fff" d="M471 26C259 26 90-98 90-318c0-256 228-303 435-329 202-27 287-16 287-108 0-139-79-219-234-219-161 0-248 86-283 164l-173-57c86-203 278-265 451-265 150 0 419 46 419 395V0H815v-152h-12C765-73 660 26 471 26zm31-159c199 0 310-134 310-271v-155c-30 35-226 55-295 64-131 17-246 59-246 186 0 116 97 176 231 176" id="ab"/><g id="d"><use transform="matrix(0.008173828125000001,0,0,0.008173828125000001,0,0)" xlink:href="#aa"/><use transform="matrix(0.008173828125000001,0,0,0.008173828125000001,12.228046875000002,0)" xlink:href="#ab"/><use transform="matrix(0.008173828125000001,0,0,0.008173828125000001,21.627949218750004,0)" xlink:href="#W"/><use transform="matrix(0.008173828125000001,0,0,0.008173828125000001,30.463857421875005,0)" xlink:href="#P"/></g><path fill="#fff" d="M611 442c-248 0-391-105-460-228l146-94c47 65 117 165 314 165 178 0 307-82 307-266v-224h-17C863-141 792-18 576-18c-268 0-472-195-472-546 0-346 197-568 476-568 216 0 288 133 326 193h17v-179h175V29c0 289-215 413-487 413zm-5-620c203 0 314-146 314-390 0-237-108-403-314-403-213 0-319 180-319 403 0 230 109 390 319 390" id="ac"/><path fill="#fff" d="M158 0v-1118h175l1 205c55-151 181-225 313-225 147 0 245 90 285 228 53-141 190-228 352-228 194 0 352 125 352 384V0h-181v-749c0-161-105-225-225-225-151 0-243 103-243 244V0H807v-767c0-124-93-207-219-207-131 0-250 92-250 270V0H158" id="ad"/><g id="e"><use transform="matrix(0.008173828125000001,0,0,0.008173828125000001,0,0)" xlink:href="#O"/><use transform="matrix(0.008173828125000001,0,0,0.008173828125000001,12.08091796875,0)" xlink:href="#R"/><use transform="matrix(0.008173828125000001,0,0,0.008173828125000001,16.13513671875,0)" xlink:href="#ab"/><use transform="matrix(0.008173828125000001,0,0,0.008173828125000001,25.535039062500005,0)" xlink:href="#ac"/><use transform="matrix(0.008173828125000001,0,0,0.008173828125000001,35.801367187500006,0)" xlink:href="#T"/><use transform="matrix(0.008173828125000001,0,0,0.008173828125000001,42.10338867187501,0)" xlink:href="#ab"/><use transform="matrix(0.008173828125000001,0,0,0.008173828125000001,51.50329101562501,0)" xlink:href="#ad"/></g><path fill="#fff" d="M678-1118v154H420V0H240v-964H20v-154h220v-149c0-194 155-293 318-293 85 0 141 18 168 30l-50 154c-19-6-47-17-97-17-111 0-159 58-159 166v109h258" id="ae"/><g id="f"><use transform="matrix(0.008173828125000001,0,0,0.008173828125000001,0,0)" xlink:href="#ae"/><use transform="matrix(0.008173828125000001,0,0,0.008173828125000001,5.705332031250001,0)" xlink:href="#X"/><use transform="matrix(0.008173828125000001,0,0,0.008173828125000001,15.742792968750003,0)" xlink:href="#T"/></g><path fill="#fff" d="M537 14c-226 0-379-139-379-422v-710h180v695c0 172 97 275 253 275 160 0 281-109 281-300v-670h181V0H879v-209C806-46 684 14 537 14" id="af"/><g id="g"><use transform="matrix(0.008173828125000001,0,0,0.008173828125000001,0,0)" xlink:href="#aa"/><use transform="matrix(0.008173828125000001,0,0,0.008173828125000001,12.228046875000002,0)" xlink:href="#X"/><use transform="matrix(0.008173828125000001,0,0,0.008173828125000001,22.265507812500008,0)" xlink:href="#af"/><use transform="matrix(0.008173828125000001,0,0,0.008173828125000001,32.164013671875004,0)" xlink:href="#T"/><use transform="matrix(0.008173828125000001,0,0,0.008173828125000001,38.72759765625,0)" xlink:href="#R"/><use transform="matrix(0.008173828125000001,0,0,0.008173828125000001,42.78181640625,0)" xlink:href="#P"/><use transform="matrix(0.008173828125000001,0,0,0.008173828125000001,52.5413671875,0)" xlink:href="#T"/></g><path fill="#fff" d="M180 0v-1490h270l367 940c28 72 75 218 110 339 35-117 81-264 110-339l362-940h271V0h-187c2-448-5-837 7-1287-157 497-311 829-483 1287H842C666-458 514-784 354-1284c12 438 5 843 7 1284H180" id="ag"/><path fill="#fff" d="M598-1118v154H368v674c0 100 37 144 132 144 23 0 62-6 92-12L629-6c-37 13-88 20-134 20-193 0-307-107-307-290v-688H20v-154h168v-266h180v266h230" id="ah"/><g id="h"><use transform="matrix(0.008173828125000001,0,0,0.008173828125000001,0,0)" xlink:href="#ag"/><use transform="matrix(0.008173828125000001,0,0,0.008173828125000001,15.121582031250002,0)" xlink:href="#ab"/><use transform="matrix(0.008173828125000001,0,0,0.008173828125000001,24.521484375000004,0)" xlink:href="#Y"/><use transform="matrix(0.008173828125000001,0,0,0.008173828125000001,34.411816406250004,0)" xlink:href="#ab"/><use transform="matrix(0.008173828125000001,0,0,0.008173828125000001,43.811718750000004,0)" xlink:href="#ac"/><use transform="matrix(0.008173828125000001,0,0,0.008173828125000001,54.078046875000005,0)" xlink:href="#P"/><use transform="matrix(0.008173828125000001,0,0,0.008173828125000001,63.837597656250004,0)" xlink:href="#ad"/><use transform="matrix(0.008173828125000001,0,0,0.008173828125000001,78.50144531250001,0)" xlink:href="#P"/><use transform="matrix(0.008173828125000001,0,0,0.008173828125000001,88.26099609375001,0)" xlink:href="#Y"/><use transform="matrix(0.008173828125000001,0,0,0.008173828125000001,98.151328125,0)" xlink:href="#ah"/></g><path d="M783 20c-382 0-661-292-661-764 0-473 279-766 661-766 302 0 548 182 601 489h-190c-42-204-217-313-411-313-268 0-476 208-476 590 0 381 209 588 476 588 195 0 369-110 411-313h190c-52 303-296 489-601 489" id="ai"/><path d="M613 24c-304 0-509-231-509-576 0-350 205-580 509-580 305 0 511 230 511 580 0 345-206 576-511 576zm0-161c226 0 329-195 329-415 0-222-103-419-329-419-223 0-326 196-326 419 0 220 103 415 326 415" id="aj"/><path d="M537 14c-226 0-379-139-379-422v-710h180v695c0 172 97 275 253 275 160 0 281-109 281-300v-670h181V0H879v-209C806-46 684 14 537 14" id="ak"/><path d="M158 0v-1118h174v172h12c41-113 157-188 290-188 26 0 70 2 91 3v181c-11-2-60-10-108-10-161 0-279 109-279 260V0H158" id="al"/><path d="M158 0v-1118h180V0H158zm91-1301c-68 0-125-53-125-119s57-119 125-119c69 0 126 53 126 119s-57 119-126 119" id="am"/><path d="M628 24c-324 0-524-230-524-574 0-343 198-582 503-582 237 0 487 146 487 559v75H286c9 234 145 362 343 362 132 0 231-58 273-172l174 48C1024-91 857 24 628 24zM287-650h624c-17-190-120-322-304-322-192 0-309 151-320 322" id="an"/><g id="i"><use transform="matrix(0.008173828125000001,0,0,0.008173828125000001,0,0)" xlink:href="#ai"/><use transform="matrix(0.008173828125000001,0,0,0.008173828125000001,12.228046875000002,0)" xlink:href="#aj"/><use transform="matrix(0.008173828125000001,0,0,0.008173828125000001,22.265507812500008,0)" xlink:href="#ak"/><use transform="matrix(0.008173828125000001,0,0,0.008173828125000001,32.164013671875004,0)" xlink:href="#al"/><use transform="matrix(0.008173828125000001,0,0,0.008173828125000001,38.72759765625,0)" xlink:href="#am"/><use transform="matrix(0.008173828125000001,0,0,0.008173828125000001,42.78181640625,0)" xlink:href="#an"/><use transform="matrix(0.008173828125000001,0,0,0.008173828125000001,52.5413671875,0)" xlink:href="#al"/></g><path d="M180 0v-1490h270l367 940c28 72 75 218 110 339 35-117 81-264 110-339l362-940h271V0h-187c2-448-5-837 7-1287-157 497-311 829-483 1287H842C666-458 514-784 354-1284c12 438 5 843 7 1284H180" id="ao"/><path d="M471 26C259 26 90-98 90-318c0-256 228-303 435-329 202-27 287-16 287-108 0-139-79-219-234-219-161 0-248 86-283 164l-173-57c86-203 278-265 451-265 150 0 419 46 419 395V0H815v-152h-12C765-73 660 26 471 26zm31-159c199 0 310-134 310-271v-155c-30 35-226 55-295 64-131 17-246 59-246 186 0 116 97 176 231 176" id="ap"/><path d="M338-670V0H158v-1118h173l1 207c72-158 192-221 342-221 226 0 378 139 378 422V0H872v-695c0-172-96-275-252-275-161 0-282 109-282 300" id="aq"/><path d="M611 442c-248 0-391-105-460-228l146-94c47 65 117 165 314 165 178 0 307-82 307-266v-224h-17C863-141 792-18 576-18c-268 0-472-195-472-546 0-346 197-568 476-568 216 0 288 133 326 193h17v-179h175V29c0 289-215 413-487 413zm-5-620c203 0 314-146 314-390 0-237-108-403-314-403-213 0-319 180-319 403 0 230 109 390 319 390" id="ar"/><path d="M158 0v-1118h175l1 205c55-151 181-225 313-225 147 0 245 90 285 228 53-141 190-228 352-228 194 0 352 125 352 384V0h-181v-749c0-161-105-225-225-225-151 0-243 103-243 244V0H807v-767c0-124-93-207-219-207-131 0-250 92-250 270V0H158" id="as"/><path d="M598-1118v154H368v674c0 100 37 144 132 144 23 0 62-6 92-12L629-6c-37 13-88 20-134 20-193 0-307-107-307-290v-688H20v-154h168v-266h180v266h230" id="at"/><g id="j"><use transform="matrix(0.008173828125000001,0,0,0.008173828125000001,0,0)" xlink:href="#ao"/><use transform="matrix(0.008173828125000001,0,0,0.008173828125000001,15.121582031250002,0)" xlink:href="#ap"/><use transform="matrix(0.008173828125000001,0,0,0.008173828125000001,24.521484375000004,0)" xlink:href="#aq"/><use transform="matrix(0.008173828125000001,0,0,0.008173828125000001,34.411816406250004,0)" xlink:href="#ap"/><use transform="matrix(0.008173828125000001,0,0,0.008173828125000001,43.811718750000004,0)" xlink:href="#ar"/><use transform="matrix(0.008173828125000001,0,0,0.008173828125000001,54.078046875000005,0)" xlink:href="#an"/><use transform="matrix(0.008173828125000001,0,0,0.008173828125000001,63.837597656250004,0)" xlink:href="#as"/><use transform="matrix(0.008173828125000001,0,0,0.008173828125000001,78.50144531250001,0)" xlink:href="#an"/><use transform="matrix(0.008173828125000001,0,0,0.008173828125000001,88.26099609375001,0)" xlink:href="#aq"/><use transform="matrix(0.008173828125000001,0,0,0.008173828125000001,98.151328125,0)" xlink:href="#at"/></g><path d="M657 26c-323 0-524-166-541-416h195c15 169 171 246 346 246 202 0 356-106 356-265 5-203-294-238-475-293-239-73-380-191-380-389 0-252 224-419 512-419 294 0 499 171 508 396H992c-17-145-151-228-328-228-193 0-321 102-321 242 0 156 175 211 284 241l149 41c160 44 422 134 422 412 0 244-197 432-541 432" id="au"/><path d="M140 405l46-156c120 36 205 19 263-150l32-93L54-1118h197c107 313 237 620 324 950 87-331 219-637 326-950h196L606 167c-68 178-176 259-334 259-64 0-113-12-132-21" id="av"/><path d="M538 24C308 24 148-78 108-271l171-41c32 123 123 178 257 178 156 0 256-77 256-169 0-77-54-128-164-154l-186-44c-203-48-300-148-300-305 0-192 176-326 414-326 230 0 351 112 402 269l-163 42c-31-80-94-158-238-158-133 0-233 69-233 162 0 83 57 129 188 160l169 40c203 48 298 149 298 302 0 196-179 339-441 339" id="aw"/><g id="k"><use transform="matrix(0.008173828125000001,0,0,0.008173828125000001,0,0)" xlink:href="#au"/><use transform="matrix(0.008173828125000001,0,0,0.008173828125000001,10.740410156250002,0)" xlink:href="#av"/><use transform="matrix(0.008173828125000001,0,0,0.008173828125000001,20.148486328125003,0)" xlink:href="#aw"/><use transform="matrix(0.008173828125000001,0,0,0.008173828125000001,28.984394531250004,0)" xlink:href="#at"/><use transform="matrix(0.008173828125000001,0,0,0.008173828125000001,34.297382812500004,0)" xlink:href="#an"/><use transform="matrix(0.008173828125000001,0,0,0.008173828125000001,44.05693359375,0)" xlink:href="#as"/></g><path d="M645 0H180v-1490h484c435 0 692 280 692 742 0 466-257 748-711 748zM370-168h263c363 0 539-218 539-580 0-358-176-574-521-574H370v1154" id="ax"/><g id="l"><use transform="matrix(0.008173828125000001,0,0,0.008173828125000001,0,0)" xlink:href="#ax"/><use transform="matrix(0.008173828125000001,0,0,0.008173828125000001,12.08091796875,0)" xlink:href="#am"/><use transform="matrix(0.008173828125000001,0,0,0.008173828125000001,16.13513671875,0)" xlink:href="#ap"/><use transform="matrix(0.008173828125000001,0,0,0.008173828125000001,25.535039062500005,0)" xlink:href="#ar"/><use transform="matrix(0.008173828125000001,0,0,0.008173828125000001,35.801367187500006,0)" xlink:href="#al"/><use transform="matrix(0.008173828125000001,0,0,0.008173828125000001,42.10338867187501,0)" xlink:href="#ap"/><use transform="matrix(0.008173828125000001,0,0,0.008173828125000001,51.50329101562501,0)" xlink:href="#as"/></g><path d="M120-303v-155l652-1032h231v1020h202v167h-202V0H821v-303H120zm702-167v-782h-12L323-482v12h499" id="ay"/><path d="M295 13c-75 0-135-60-135-135s60-135 135-135 135 60 135 135S370 13 295 13zm0-809c-75 0-135-60-135-135s60-135 135-135 135 60 135 135-60 135-135 135" id="az"/><g id="m"><use transform="matrix(0.008173828125000001,0,0,0.008173828125000001,0,0)" xlink:href="#ay"/><use transform="matrix(0.008173828125000001,0,0,0.008173828125000001,10.813974609375002,0)" xlink:href="#az"/></g><path d="M338-1490V0H158v-1490h180" id="aA"/><path d="M481 0L54-1118h197c107 314 236 620 325 951 87-331 217-637 324-951h197L670 0H481" id="aB"/><g id="n"><use transform="matrix(0.008173828125000001,0,0,0.008173828125000001,0,0)" xlink:href="#ax"/><use transform="matrix(0.008173828125000001,0,0,0.008173828125000001,12.08091796875,0)" xlink:href="#an"/><use transform="matrix(0.008173828125000001,0,0,0.008173828125000001,21.84046875,0)" xlink:href="#aA"/><use transform="matrix(0.008173828125000001,0,0,0.008173828125000001,25.8946875,0)" xlink:href="#am"/><use transform="matrix(0.008173828125000001,0,0,0.008173828125000001,29.94890625,0)" xlink:href="#aB"/><use transform="matrix(0.008173828125000001,0,0,0.008173828125000001,39.030029296875,0)" xlink:href="#an"/><use transform="matrix(0.008173828125000001,0,0,0.008173828125000001,48.789580078125,0)" xlink:href="#al"/><use transform="matrix(0.008173828125000001,0,0,0.008173828125000001,55.3531640625,0)" xlink:href="#av"/></g><path d="M180 0v-1490h510c348 0 508 209 508 474 0 266-160 477-507 477H370V0H180zm190-706h312c236 0 327-133 327-310 0-176-91-307-329-307H370v617" id="aC"/><g id="o"><use transform="matrix(0.008173828125000001,0,0,0.008173828125000001,0,0)" xlink:href="#aC"/><use transform="matrix(0.008173828125000001,0,0,0.008173828125000001,10.601455078125001,0)" xlink:href="#an"/><use transform="matrix(0.008173828125000001,0,0,0.008173828125000001,20.361005859375002,0)" xlink:href="#al"/><use transform="matrix(0.008173828125000001,0,0,0.008173828125000001,26.663027343750002,0)" xlink:href="#aw"/><use transform="matrix(0.008173828125000001,0,0,0.008173828125000001,35.498935546875,0)" xlink:href="#aj"/><use transform="matrix(0.008173828125000001,0,0,0.008173828125000001,45.536396484375004,0)" xlink:href="#aq"/><use transform="matrix(0.008173828125000001,0,0,0.008173828125000001,55.426728515625,0)" xlink:href="#aq"/><use transform="matrix(0.008173828125000001,0,0,0.008173828125000001,65.317060546875,0)" xlink:href="#an"/><use transform="matrix(0.008173828125000001,0,0,0.008173828125000001,75.076611328125,0)" xlink:href="#aA"/></g><path d="M763 24c-353 0-583-224-583-531v-983h190v968c0 214 149 370 393 370 243 0 391-156 391-370v-968h190v983c0 307-230 531-581 531" id="aD"/><g id="p"><use transform="matrix(0.008173828125000001,0,0,0.008173828125000001,0,0)" xlink:href="#aD"/><use transform="matrix(0.008173828125000001,0,0,0.008173828125000001,12.456914062500001,0)" xlink:href="#aw"/><use transform="matrix(0.008173828125000001,0,0,0.008173828125000001,21.292822265625002,0)" xlink:href="#an"/></g><g id="q"><use transform="matrix(0.008173828125000001,0,0,0.008173828125000001,0,0)" xlink:href="#ai"/><use transform="matrix(0.008173828125000001,0,0,0.008173828125000001,12.228046875000002,0)" xlink:href="#ap"/><use transform="matrix(0.008173828125000001,0,0,0.008173828125000001,21.627949218750004,0)" xlink:href="#aw"/><use transform="matrix(0.008173828125000001,0,0,0.008173828125000001,30.463857421875005,0)" xlink:href="#an"/></g><g id="r"><use transform="matrix(0.008173828125000001,0,0,0.008173828125000001,0,0)" xlink:href="#ax"/><use transform="matrix(0.008173828125000001,0,0,0.008173828125000001,12.08091796875,0)" xlink:href="#am"/><use transform="matrix(0.008173828125000001,0,0,0.008173828125000001,16.13513671875,0)" xlink:href="#ap"/><use transform="matrix(0.008173828125000001,0,0,0.008173828125000001,25.535039062500005,0)" xlink:href="#ar"/><use transform="matrix(0.008173828125000001,0,0,0.008173828125000001,35.801367187500006,0)" xlink:href="#al"/><use transform="matrix(0.008173828125000001,0,0,0.008173828125000001,42.10338867187501,0)" xlink:href="#ap"/><use transform="matrix(0.008173828125000001,0,0,0.008173828125000001,51.50329101562501,0)" xlink:href="#as"/></g><path d="M180 0v-1490h190v1322h690V0H180" id="aE"/><g id="s"><use transform="matrix(0.010850694444444444,0,0,0.010850694444444444,0,0)" xlink:href="#aE"/><use transform="matrix(0.010850694444444444,0,0,0.010850694444444444,12.565104166666666,0)" xlink:href="#aj"/><use transform="matrix(0.010850694444444444,0,0,0.010850694444444444,25.889756944444443,0)" xlink:href="#ar"/><use transform="matrix(0.010850694444444444,0,0,0.010850694444444444,39.518229166666664,0)" xlink:href="#am"/><use transform="matrix(0.010850694444444444,0,0,0.010850694444444444,44.90017361111111,0)" xlink:href="#aq"/></g><path d="M600 0L52-1490h200c166 485 304 806 458 1336 156-533 285-846 449-1336h202L819 0H600" id="aF"/><path d="M409 0L70-1118h191c89 329 165 560 243 925 75-353 154-601 240-925h192c85 325 161 564 235 922 77-354 157-598 244-922h191L1267 0h-179c-86-307-176-590-250-913C763-588 675-308 588 0H409" id="aG"/><g id="t"><use transform="matrix(0.010850694444444444,0,0,0.010850694444444444,0,0)" xlink:href="#aF"/><use transform="matrix(0.010850694444444444,0,0,0.010850694444444444,15.33203125,0)" xlink:href="#am"/><use transform="matrix(0.010850694444444444,0,0,0.010850694444444444,20.713975694444443,0)" xlink:href="#an"/><use transform="matrix(0.010850694444444444,0,0,0.010850694444444444,33.268229166666664,0)" xlink:href="#aG"/></g><path d="M52 0l541-1490h220L1361 0h-200l-149-416H398L254 0H52zm404-582h497c-103-290-145-390-251-756-108 377-145 460-246 756" id="aH"/><path d="M577 24c-279 0-473-224-473-580 0-354 195-576 474-576 218 0 287 134 324 193h14v-551h180V0H922v-173h-20C865-111 790 24 577 24zm27-161c203 0 314-172 314-421 0-247-108-413-314-413-212 0-317 181-317 413 0 235 108 421 317 421" id="aI"/><g id="u"><use transform="matrix(0.010850694444444444,0,0,0.010850694444444444,0,0)" xlink:href="#aH"/><use transform="matrix(0.010850694444444444,0,0,0.010850694444444444,15.33203125,0)" xlink:href="#aw"/><use transform="matrix(0.010850694444444444,0,0,0.010850694444444444,27.061631944444443,0)" xlink:href="#aw"/><use transform="matrix(0.010850694444444444,0,0,0.010850694444444444,38.791232638888886,0)" xlink:href="#am"/><use transform="matrix(0.010850694444444444,0,0,0.010850694444444444,44.17317708333333,0)" xlink:href="#ar"/><use transform="matrix(0.010850694444444444,0,0,0.010850694444444444,57.80164930555555,0)" xlink:href="#aq"/><use transform="matrix(0.010850694444444444,0,0,0.010850694444444444,70.93098958333333,0)" xlink:href="#an"/><use transform="matrix(0.010850694444444444,0,0,0.010850694444444444,83.88671875,0)" xlink:href="#aI"/></g><path d="M338-670V0H158v-1490h180v566c73-149 190-208 336-208 226 0 379 139 379 422V0H872v-695c0-172-96-275-252-275-161 0-282 109-282 300" id="aJ"/><path d="M158 418v-1536h174v179h20c37-59 106-193 324-193 279 0 474 222 474 576 0 356-194 580-473 580-213 0-288-135-325-197h-14v591H158zm492-555c209 0 317-186 317-421 0-232-105-413-317-413-206 0-314 166-314 413 0 249 111 421 314 421" id="aK"/><g id="v"><use transform="matrix(0.010850694444444444,0,0,0.010850694444444444,0,0)" xlink:href="#au"/><use transform="matrix(0.010850694444444444,0,0,0.010850694444444444,14.2578125,0)" xlink:href="#aJ"/><use transform="matrix(0.010850694444444444,0,0,0.010850694444444444,27.39800347222222,0)" xlink:href="#am"/><use transform="matrix(0.010850694444444444,0,0,0.010850694444444444,32.779947916666664,0)" xlink:href="#aK"/><use transform="matrix(0.010850694444444444,0,0,0.010850694444444444,46.38671875,0)" xlink:href="#as"/><use transform="matrix(0.010850694444444444,0,0,0.010850694444444444,65.85286458333333,0)" xlink:href="#an"/><use transform="matrix(0.010850694444444444,0,0,0.010850694444444444,78.80859375,0)" xlink:href="#aq"/><use transform="matrix(0.010850694444444444,0,0,0.010850694444444444,91.93793402777777,0)" xlink:href="#at"/><use transform="matrix(0.010850694444444444,0,0,0.010850694444444444,98.99088541666666,0)" xlink:href="#aw"/></g><g id="w"><use transform="matrix(0.010850694444444444,0,0,0.010850694444444444,0,0)" xlink:href="#aD"/><use transform="matrix(0.010850694444444444,0,0,0.010850694444444444,16.536458333333332,0)" xlink:href="#aK"/><use transform="matrix(0.010850694444444444,0,0,0.010850694444444444,30.143229166666664,0)" xlink:href="#aI"/><use transform="matrix(0.010850694444444444,0,0,0.010850694444444444,43.75,0)" xlink:href="#ap"/><use transform="matrix(0.010850694444444444,0,0,0.010850694444444444,56.22829861111112,0)" xlink:href="#at"/><use transform="matrix(0.010850694444444444,0,0,0.010850694444444444,63.28125000000001,0)" xlink:href="#an"/></g><g id="x"><use transform="matrix(0.010850694444444444,0,0,0.010850694444444444,0,0)" xlink:href="#ax"/><use transform="matrix(0.010850694444444444,0,0,0.010850694444444444,16.03732638888889,0)" xlink:href="#an"/><use transform="matrix(0.010850694444444444,0,0,0.010850694444444444,28.99305555555556,0)" xlink:href="#aA"/><use transform="matrix(0.010850694444444444,0,0,0.010850694444444444,34.375,0)" xlink:href="#am"/><use transform="matrix(0.010850694444444444,0,0,0.010850694444444444,39.75694444444444,0)" xlink:href="#aB"/><use transform="matrix(0.010850694444444444,0,0,0.010850694444444444,51.81206597222222,0)" xlink:href="#an"/><use transform="matrix(0.010850694444444444,0,0,0.010850694444444444,64.76779513888889,0)" xlink:href="#al"/><use transform="matrix(0.010850694444444444,0,0,0.010850694444444444,73.48090277777779,0)" xlink:href="#av"/></g><g id="y"><use transform="matrix(0.010850694444444444,0,0,0.010850694444444444,0,0)" xlink:href="#au"/><use transform="matrix(0.010850694444444444,0,0,0.010850694444444444,14.2578125,0)" xlink:href="#at"/><use transform="matrix(0.010850694444444444,0,0,0.010850694444444444,21.63628472222222,0)" xlink:href="#ap"/><use transform="matrix(0.010850694444444444,0,0,0.010850694444444444,34.11458333333333,0)" xlink:href="#at"/><use transform="matrix(0.010850694444444444,0,0,0.010850694444444444,41.38454861111111,0)" xlink:href="#ak"/><use transform="matrix(0.010850694444444444,0,0,0.010850694444444444,54.52473958333333,0)" xlink:href="#aw"/></g><g id="z"><use transform="matrix(0.010850694444444444,0,0,0.010850694444444444,0,0)" xlink:href="#aB"/><use transform="matrix(0.010850694444444444,0,0,0.010850694444444444,12.489149305555555,0)" xlink:href="#am"/><use transform="matrix(0.010850694444444444,0,0,0.010850694444444444,17.87109375,0)" xlink:href="#ap"/></g><path d="M789 20c-398 0-667-293-667-764 0-473 273-766 655-766 315 0 558 198 612 487h-196c-61-191-204-311-415-311-262 0-471 207-471 590 0 380 208 588 482 588 249 0 420-165 425-427H828v-166h572v163c0 370-256 606-611 606" id="aL"/><g id="A"><use transform="matrix(0.010850694444444444,0,0,0.010850694444444444,0,0)" xlink:href="#aL"/><use transform="matrix(0.010850694444444444,0,0,0.010850694444444444,16.57986111111111,0)" xlink:href="#aC"/><use transform="matrix(0.010850694444444444,0,0,0.010850694444444444,30.772569444444443,0)" xlink:href="#au"/></g><path d="M678-1118v154H420V0H240v-964H20v-154h220v-149c0-194 155-293 318-293 85 0 141 18 168 30l-50 154c-19-6-47-17-97-17-111 0-159 58-159 166v109h258" id="aM"/><g id="B"><use transform="matrix(0.010850694444444444,0,0,0.010850694444444444,0,0)" xlink:href="#aC"/><use transform="matrix(0.010850694444444444,0,0,0.010850694444444444,14.192708333333332,0)" xlink:href="#al"/><use transform="matrix(0.010850694444444444,0,0,0.010850694444444444,22.189670138888886,0)" xlink:href="#aj"/><use transform="matrix(0.010850694444444444,0,0,0.010850694444444444,35.514322916666664,0)" xlink:href="#aj"/><use transform="matrix(0.010850694444444444,0,0,0.010850694444444444,48.83897569444444,0)" xlink:href="#aM"/></g><g id="C"><use transform="matrix(0.010850694444444444,0,0,0.010850694444444444,0,0)" xlink:href="#aj"/><use transform="matrix(0.010850694444444444,0,0,0.010850694444444444,13.324652777777777,0)" xlink:href="#aM"/></g><g id="D"><use transform="matrix(0.010850694444444444,0,0,0.010850694444444444,0,0)" xlink:href="#ax"/><use transform="matrix(0.010850694444444444,0,0,0.010850694444444444,16.03732638888889,0)" xlink:href="#an"/><use transform="matrix(0.010850694444444444,0,0,0.010850694444444444,28.99305555555556,0)" xlink:href="#aA"/><use transform="matrix(0.010850694444444444,0,0,0.010850694444444444,34.375,0)" xlink:href="#am"/><use transform="matrix(0.010850694444444444,0,0,0.010850694444444444,39.75694444444444,0)" xlink:href="#aB"/><use transform="matrix(0.010850694444444444,0,0,0.010850694444444444,51.81206597222222,0)" xlink:href="#an"/><use transform="matrix(0.010850694444444444,0,0,0.010850694444444444,64.76779513888889,0)" xlink:href="#al"/><use transform="matrix(0.010850694444444444,0,0,0.010850694444444444,73.48090277777779,0)" xlink:href="#av"/></g><path d="M218-607c0-325 108-727 258-974h175c-155 315-250 682-250 974 0 265 78 531 250 886H476C306-10 218-315 218-607" id="aN"/><path d="M784 20c-382 0-662-292-662-764 0-473 280-766 662-766s660 293 660 766c0 472-278 764-660 764zm0-176c266 0 475-207 475-588 0-383-209-590-475-590-268 0-477 208-477 590 0 380 209 588 477 588" id="aO"/><path d="M96 279C273-86 346-350 346-607c0-292-95-659-250-974h175c150 246 258 650 258 974 0 297-91 602-258 886H96" id="aP"/><g id="E"><use transform="matrix(0.010850694444444444,0,0,0.010850694444444444,0,0)" xlink:href="#aN"/><use transform="matrix(0.010850694444444444,0,0,0.010850694444444444,8.10546875,0)" xlink:href="#aC"/><use transform="matrix(0.010850694444444444,0,0,0.010850694444444444,22.298177083333332,0)" xlink:href="#aO"/><use transform="matrix(0.010850694444444444,0,0,0.010850694444444444,39.29036458333333,0)" xlink:href="#ax"/><use transform="matrix(0.010850694444444444,0,0,0.010850694444444444,55.32769097222221,0)" xlink:href="#aP"/></g><g id="F"><use transform="matrix(0.010850694444444444,0,0,0.010850694444444444,0,0)" xlink:href="#ao"/><use transform="matrix(0.010850694444444444,0,0,0.010850694444444444,20.07378472222222,0)" xlink:href="#ap"/><use transform="matrix(0.010850694444444444,0,0,0.010850694444444444,32.55208333333333,0)" xlink:href="#aq"/><use transform="matrix(0.010850694444444444,0,0,0.010850694444444444,45.68142361111111,0)" xlink:href="#ap"/><use transform="matrix(0.010850694444444444,0,0,0.010850694444444444,58.15972222222221,0)" xlink:href="#ar"/><use transform="matrix(0.010850694444444444,0,0,0.010850694444444444,71.78819444444443,0)" xlink:href="#an"/></g><g id="G"><use transform="matrix(0.010850694444444444,0,0,0.010850694444444444,0,0)" xlink:href="#ai"/><use transform="matrix(0.010850694444444444,0,0,0.010850694444444444,16.23263888888889,0)" xlink:href="#ap"/><use transform="matrix(0.010850694444444444,0,0,0.010850694444444444,28.7109375,0)" xlink:href="#aw"/><use transform="matrix(0.010850694444444444,0,0,0.010850694444444444,40.44053819444444,0)" xlink:href="#aJ"/></g><g id="H"><use transform="matrix(0.010850694444444444,0,0,0.010850694444444444,0,0)" xlink:href="#aj"/><use transform="matrix(0.010850694444444444,0,0,0.010850694444444444,13.324652777777777,0)" xlink:href="#aq"/></g><g id="I"><use transform="matrix(0.010850694444444444,0,0,0.010850694444444444,0,0)" xlink:href="#aN"/><use transform="matrix(0.010850694444444444,0,0,0.010850694444444444,8.10546875,0)" xlink:href="#ai"/><use transform="matrix(0.010850694444444444,0,0,0.010850694444444444,24.33810763888889,0)" xlink:href="#aO"/><use transform="matrix(0.010850694444444444,0,0,0.010850694444444444,41.330295138888886,0)" xlink:href="#ax"/><use transform="matrix(0.010850694444444444,0,0,0.010850694444444444,57.36762152777778,0)" xlink:href="#aP"/></g><path fill="#3a414a" d="M490-144L89-616l401-472h319L415-616l394 472H490zm469 0L558-616l401-472h318L883-616l394 472H959" id="aQ"/><path fill="#3a414a" d="M128 0v-1118h300V0H128zm150-1264c-91 0-165-68-165-154 0-85 74-154 165-154 90 0 165 69 165 154 0 86-75 154-165 154" id="aR"/><path fill="#3a414a" d="M428-647V0H128v-1118h283l4 231c63-156 176-245 348-245 232 0 384 159 384 421V0H847v-659c0-139-76-222-202-222-128 0-217 86-217 234" id="aS"/><path fill="#3a414a" d="M628 22C291 22 81-210 81-554c0-346 210-578 547-578 265 0 455 142 497 372l-279 52c-25-116-99-188-215-188-160 0-244 139-244 341 0 200 84 341 244 341 116 0 193-74 217-195l279 51C1085-123 896 22 628 22" id="aT"/><path fill="#3a414a" d="M428-1490V0H128v-1490h300" id="aU"/><path fill="#3a414a" d="M513 14c-232 0-385-159-385-421v-711h300v659c0 139 76 222 202 222 127 0 217-86 217-234v-647h301V0H864l-4-232C797-74 683 14 513 14" id="aV"/><path fill="#3a414a" d="M537 19C279 19 81-185 81-557c0-382 206-575 454-575 190 0 278 113 318 202h10v-560h300V0H868v-179h-15C812-89 719 19 537 19zm92-241c153 0 240-134 240-336 0-203-86-334-240-334-158 0-240 138-240 334 0 197 84 336 240 336" id="aW"/><path fill="#3a414a" d="M633 22C291 22 81-200 81-553c0-345 210-579 537-579 292 0 525 185 525 567v84H378c7 183 109 277 260 277 105 0 184-46 216-132l272 51C1071-99 893 22 633 22zM380-669h474c-15-146-94-237-233-237-143 0-229 99-241 237" id="aX"/><path fill="#3a414a" d="M543-144l394-472-394-472h319l401 472-401 472H543zm-468 0l394-472-394-472h318l401 472-401 472H75" id="aY"/><g id="J"><use transform="matrix(0.008680555555555556,0,0,0.008680555555555556,0,0)" xlink:href="#aQ"/><use transform="matrix(0.008680555555555556,0,0,0.008680555555555556,11.736111111111112,0)" xlink:href="#aR"/><use transform="matrix(0.008680555555555556,0,0,0.008680555555555556,16.553819444444446,0)" xlink:href="#aS"/><use transform="matrix(0.008680555555555556,0,0,0.008680555555555556,27.62152777777778,0)" xlink:href="#aT"/><use transform="matrix(0.008680555555555556,0,0,0.008680555555555556,38.08159722222222,0)" xlink:href="#aU"/><use transform="matrix(0.008680555555555556,0,0,0.008680555555555556,42.89930555555556,0)" xlink:href="#aV"/><use transform="matrix(0.008680555555555556,0,0,0.008680555555555556,53.96701388888889,0)" xlink:href="#aW"/><use transform="matrix(0.008680555555555556,0,0,0.008680555555555556,65.17361111111111,0)" xlink:href="#aX"/><use transform="matrix(0.008680555555555556,0,0,0.008680555555555556,75.76388888888889,0)" xlink:href="#aY"/></g><g id="K"><use transform="matrix(0.008680555555555556,0,0,0.008680555555555556,0,0)" xlink:href="#aQ"/><use transform="matrix(0.008680555555555556,0,0,0.008680555555555556,11.736111111111112,0)" xlink:href="#aR"/><use transform="matrix(0.008680555555555556,0,0,0.008680555555555556,16.553819444444446,0)" xlink:href="#aS"/><use transform="matrix(0.008680555555555556,0,0,0.008680555555555556,27.62152777777778,0)" xlink:href="#aT"/><use transform="matrix(0.008680555555555556,0,0,0.008680555555555556,38.08159722222222,0)" xlink:href="#aU"/><use transform="matrix(0.008680555555555556,0,0,0.008680555555555556,42.89930555555556,0)" xlink:href="#aV"/><use transform="matrix(0.008680555555555556,0,0,0.008680555555555556,53.96701388888889,0)" xlink:href="#aW"/><use transform="matrix(0.008680555555555556,0,0,0.008680555555555556,65.17361111111111,0)" xlink:href="#aX"/><use transform="matrix(0.008680555555555556,0,0,0.008680555555555556,75.76388888888889,0)" xlink:href="#aY"/></g><path fill="#3a414a" d="M42 0l360-574-338-544h324c72 124 151 261 209 394 58-134 140-271 215-394h318L785-570 1146 0H824c-79-136-169-280-234-425C528-278 439-134 360 0H42" id="aZ"/><path fill="#3a414a" d="M683-1118v229H474v562c0 71 29 104 102 104 23 0 73-7 95-13l43 225C647 9 580 16 520 16 296 16 174-96 174-301v-588H20v-229h154v-266h300v266h209" id="ba"/><g id="L"><use transform="matrix(0.008680555555555556,0,0,0.008680555555555556,0,0)" xlink:href="#aQ"/><use transform="matrix(0.008680555555555556,0,0,0.008680555555555556,11.736111111111112,0)" xlink:href="#aX"/><use transform="matrix(0.008680555555555556,0,0,0.008680555555555556,21.970486111111114,0)" xlink:href="#aZ"/><use transform="matrix(0.008680555555555556,0,0,0.008680555555555556,32.53472222222223,0)" xlink:href="#ba"/><use transform="matrix(0.008680555555555556,0,0,0.008680555555555556,38.87152777777778,0)" xlink:href="#aX"/><use transform="matrix(0.008680555555555556,0,0,0.008680555555555556,49.46180555555556,0)" xlink:href="#aS"/><use transform="matrix(0.008680555555555556,0,0,0.008680555555555556,60.52951388888889,0)" xlink:href="#aW"/><use transform="matrix(0.008680555555555556,0,0,0.008680555555555556,71.73611111111111,0)" xlink:href="#aY"/></g><path d="M613 24c-304 0-509-231-509-576 0-350 205-580 509-580 216 0 392 114 453 309l-173 49c-33-115-133-197-280-197-223 0-326 196-326 419 0 220 103 415 326 415 150 0 252-85 285-206l172 49C1010-95 832 24 613 24" id="bb"/><g id="M"><use transform="matrix(0.008173828125000001,0,0,0.008173828125000001,0,0)" xlink:href="#aH"/><use transform="matrix(0.008173828125000001,0,0,0.008173828125000001,11.549619140625001,0)" xlink:href="#bb"/><use transform="matrix(0.008173828125000001,0,0,0.008173828125000001,21.112998046875003,0)" xlink:href="#at"/><use transform="matrix(0.008173828125000001,0,0,0.008173828125000001,26.425986328125003,0)" xlink:href="#aj"/><use transform="matrix(0.008173828125000001,0,0,0.008173828125000001,36.46344726562501,0)" xlink:href="#al"/></g><g id="N"><use transform="matrix(0.010850694444444444,0,0,0.010850694444444444,0,0)" xlink:href="#aI"/><use transform="matrix(0.010850694444444444,0,0,0.010850694444444444,13.606770833333332,0)" xlink:href="#an"/><use transform="matrix(0.010850694444444444,0,0,0.010850694444444444,26.5625,0)" xlink:href="#aA"/><use transform="matrix(0.010850694444444444,0,0,0.010850694444444444,31.944444444444443,0)" xlink:href="#am"/><use transform="matrix(0.010850694444444444,0,0,0.010850694444444444,37.326388888888886,0)" xlink:href="#aB"/><use transform="matrix(0.010850694444444444,0,0,0.010850694444444444,49.381510416666664,0)" xlink:href="#an"/><use transform="matrix(0.010850694444444444,0,0,0.010850694444444444,62.33723958333333,0)" xlink:href="#al"/><use transform="matrix(0.010850694444444444,0,0,0.010850694444444444,71.05034722222221,0)" xlink:href="#av"/></g></defs></g></svg>