<svg xmlns="http://www.w3.org/2000/svg" xmlns:xlink="http://www.w3.org/1999/xlink" xmlns:lucid="lucid" width="1884" height="1152.25"><g transform="translate(-164.1444444444444 2330.25474609375)" lucid:page-tab-id="0_0"><path d="M166.14-2274a6 6 0 0 1 6-6h1868a6 6 0 0 1 6 6v1088a6 6 0 0 1-6 6h-1868a6 6 0 0 1-6-6z" stroke="#000" stroke-width="4" fill-opacity="0"/><path d="M166.14-2322.26a6 6 0 0 1 6-6h393.44a6 6 0 0 1 6 6v24.26a6 6 0 0 1-6 6H172.14a6 6 0 0 1-6-6z" stroke="#000" stroke-width="4"/><use xlink:href="#a" transform="matrix(1,0,0,1,174.1444444444444,-2320.25474609375) translate(0 16.589501953125)"/><use xlink:href="#b" transform="matrix(1,0,0,1,174.1444444444444,-2320.25474609375) translate(63.55151367187501 16.589501953125)"/><use xlink:href="#c" transform="matrix(1,0,0,1,174.1444444444444,-2320.25474609375) translate(171.887431640625 16.589501953125)"/><use xlink:href="#d" transform="matrix(1,0,0,1,174.1444444444444,-2320.25474609375) translate(235.31633789062502 16.589501953125)"/><use xlink:href="#e" transform="matrix(1,0,0,1,174.1444444444444,-2320.25474609375) translate(256.76446289062505 16.589501953125)"/><use xlink:href="#f" transform="matrix(1,0,0,1,174.1444444444444,-2320.25474609375) translate(323.26672851562506 16.589501953125)"/><path d="M1785.4-1823.86a6 6 0 0 1 6-6h159a6 6 0 0 1 6 6v121a6 6 0 0 1-6 6h-159a6 6 0 0 1-6-6z" stroke="#000" stroke-width="2" fill="#fff"/><path d="M1794.4-1816.86a6 6 0 0 1 6-6h159a6 6 0 0 1 6 6v121a6 6 0 0 1-6 6h-159a6 6 0 0 1-6-6z" stroke="#000" stroke-width="2" fill="#fff"/><use xlink:href="#g" transform="matrix(1,0,0,1,1807.3963368991242,-1829.8595750680568) translate(37.6193798828125 65.96212890625)"/><use xlink:href="#h" transform="matrix(1,0,0,1,1807.3963368991242,-1829.8595750680568) translate(30.4345849609375 86.216875)"/><path d="M246.14-2184a6 6 0 0 1 6-6h159a6 6 0 0 1 6 6v121a6 6 0 0 1-6 6h-159a6 6 0 0 1-6-6z" stroke="#000" stroke-width="2" fill="#fff"/><path d="M255.14-2177a6 6 0 0 1 6-6h159a6 6 0 0 1 6 6v121a6 6 0 0 1-6 6h-159a6 6 0 0 1-6-6z" stroke="#000" stroke-width="2" fill="#fff"/><use xlink:href="#i" transform="matrix(1,0,0,1,268.1444444444444,-2190) translate(31.480834960937493 76.089501953125)"/><path d="M626.14-2184a16 16 0 0 1 16-16h168a16 16 0 0 1 16 16v128a16 16 0 0 1-16 16h-168a16 16 0 0 1-16-16zM626.14-2153h200-200z" stroke="#000" stroke-width="2" fill="#fff"/><use xlink:href="#j" transform="matrix(1,0,0,1,646.1444444444444,-2200) translate(69.1165478515625 29.589501953125)"/><use xlink:href="#k" transform="matrix(1,0,0,1,646.1444444444444,-2143) translate(50.5783056640625 32.334755859375)"/><use xlink:href="#l" transform="matrix(1,0,0,1,646.1444444444444,-2143) translate(28.186103515625 52.589501953125)"/><use xlink:href="#m" transform="matrix(1,0,0,1,646.1444444444444,-2143) translate(50.639609375 72.84424804687501)"/><path d="M1786.14-2184a6 6 0 0 1 6-6h159a6 6 0 0 1 6 6v121a6 6 0 0 1-6 6h-159a6 6 0 0 1-6-6z" stroke="#000" stroke-width="2" fill="#fff"/><path d="M1795.14-2177a6 6 0 0 1 6-6h159a6 6 0 0 1 6 6v121a6 6 0 0 1-6 6h-159a6 6 0 0 1-6-6z" stroke="#000" stroke-width="2" fill="#fff"/><use xlink:href="#n" transform="matrix(1,0,0,1,1808.1444444444444,-2190) translate(13.020244140624996 65.96212890625)"/><use xlink:href="#o" transform="matrix(1,0,0,1,1808.1444444444444,-2190) translate(76.57175781250001 65.96212890625)"/><use xlink:href="#p" transform="matrix(1,0,0,1,1808.1444444444444,-2190) translate(7.327172851562494 86.216875)"/><path d="M1406.14-1494a6 6 0 0 1 6-6h159a6 6 0 0 1 6 6v121a6 6 0 0 1-6 6h-159a6 6 0 0 1-6-6z" stroke="#000" stroke-width="2" fill="#fff"/><path d="M1415.14-1487a6 6 0 0 1 6-6h159a6 6 0 0 1 6 6v121a6 6 0 0 1-6 6h-159a6 6 0 0 1-6-6z" stroke="#000" stroke-width="2" fill="#fff"/><use xlink:href="#q" transform="matrix(1,0,0,1,1428.1444444444444,-1500) translate(18.9667041015625 65.96212890625)"/><use xlink:href="#o" transform="matrix(1,0,0,1,1428.1444444444444,-1500) translate(70.6252978515625 65.96212890625)"/><use xlink:href="#r" transform="matrix(1,0,0,1,1428.1444444444444,-1500) translate(5.953969726562491 86.216875)"/><use xlink:href="#s" transform="matrix(1,0,0,1,1428.1444444444444,-1500) translate(75.48872558593749 86.216875)"/><path d="M467.33-2142.36h-39.2v-1.95h39.2zm139.3 0h-21.67v-1.95h21.68z" stroke="#000" stroke-width=".05"/><path d="M428.17-2142.36h-1.03v-1.95h1.03z"/><path stroke="#000" stroke-width=".05"/><path d="M621.9-2143.33l-14.26 4.63v-9.27z"/><path d="M625.06-2143.33l-18.4 5.97v-11.95zm-16.44 3.3l10.13-3.3-10.13-3.3z" stroke="#000" stroke-width=".05"/><use xlink:href="#t" transform="matrix(1,0,0,1,467.3336805555555,-2154.088541666667) translate(0.005000000000002558 17.22222222222222)"/><use xlink:href="#u" transform="matrix(1,0,0,1,467.3336805555555,-2154.088541666667) translate(77.5484027777778 17.22222222222222)"/><path d="M469.18-2095.7h-23.53v-1.94h23.53zm154.96 0H583.1v-1.94h41.04z" stroke="#000" stroke-width=".05"/><path d="M625.14-2095.7h-1.02v-1.94h1.02z"/><path stroke="#000" stroke-width=".05"/><path d="M444.65-2092.03l-14.27-4.64 14.27-4.63z"/><path d="M445.62-2090.7l-18.4-5.97 18.4-5.97zm-12.08-5.97l10.13 3.3v-6.6z" stroke="#000" stroke-width=".05"/><use xlink:href="#v" transform="matrix(1,0,0,1,469.1782986111111,-2107.421875) translate(0.005000000000002558 17.22222222222222)"/><use xlink:href="#w" transform="matrix(1,0,0,1,469.1782986111111,-2107.421875) translate(80.28277777777777 17.22222222222222)"/><path d="M1784.14-2143.33h-938.5" stroke="#000" stroke-width="2" fill="none"/><path d="M1785.14-2142.36h-1.02v-1.95h1.02z" stroke="#000" stroke-width=".05"/><path d="M830.38-2143.33l14.27-4.64v9.27z" stroke="#000" stroke-width="2"/><use xlink:href="#x" transform="matrix(1,0,0,1,1239.6774305555555,-2168.8437500000005) translate(0.0049999999999954525 17.22222222222222)"/><use xlink:href="#y" transform="matrix(1,0,0,1,1239.6774305555555,-2168.8437500000005) translate(60.30881944444444 17.22222222222222)"/><path d="M1746.12-2097.64h20.52v1.95h-22.47v-23.33h-352.72v-1.94h354.67zm-917.98-21.4v-1.93h416.03v1.94z" stroke="#000" stroke-width=".05"/><path d="M828.17-2119.03h-1.03v-1.94h1.03z"/><path stroke="#000" stroke-width=".05"/><path d="M1781.9-2096.67l-14.26 4.64v-9.27z"/><path d="M1785.06-2096.67l-18.4 5.98v-11.94zm-16.44 3.3l10.13-3.3-10.13-3.3z" stroke="#000" stroke-width=".05"/><use xlink:href="#z" transform="matrix(1,0,0,1,1244.1739583333333,-2130.7552083333335) translate(0.0049999999999954525 17.22222222222222)"/><use xlink:href="#A" transform="matrix(1,0,0,1,1244.1739583333333,-2130.7552083333335) translate(87.34006944444444 17.22222222222222)"/><path d="M1404.14-1454.3v1.94H840.06v-1.95zm-677.02-9.8h-1.95v-556.4h1.95z" stroke="#000" stroke-width=".05"/><path d="M1405.14-1452.36h-1.02v-1.95h1.02z"/><path stroke="#000" stroke-width=".05"/><path d="M730.78-2021.5h-9.27l4.64-14.26z"/><path d="M732.12-2020.52h-11.95l5.97-18.4zm-9.27-1.95h6.6l-3.3-10.14z" stroke="#000" stroke-width=".05"/><use xlink:href="#B" transform="matrix(1,0,0,1,705.5585069444444,-1464.0885416666665) translate(0.0049999999999954525 17.22222222222222)"/><use xlink:href="#C" transform="matrix(1,0,0,1,705.5585069444444,-1464.0885416666665) translate(60.395625 17.22222222222222)"/><path d="M1386.64-1407.64v1.95H789v-1.94zm-692.85-9.78h-1.96V-2038h1.95z" stroke="#000" stroke-width=".05"/><path d="M693.8-2037.97h-1.96v-1.03h1.95z"/><path stroke="#000" stroke-width=".05"/><path d="M1401.9-1406.67l-14.26 4.64v-9.27z"/><path d="M1405.06-1406.67l-18.4 5.98v-11.94zm-16.44 3.3l10.13-3.3-10.13-3.3z" stroke="#000" stroke-width=".05"/><use xlink:href="#D" transform="matrix(1,0,0,1,676.6262152777776,-1417.421875) translate(0.005000000000002558 17.22222222222222)"/><use xlink:href="#u" transform="matrix(1,0,0,1,676.6262152777776,-1417.421875) translate(72.29666666666668 17.22222222222222)"/><path d="M1745.37-2000.97v233.06h38.03v1.94h-39.98v-233.07h-166.5v-1.94zm-438.63-96.67v96.66h121.14v1.95h-123.1l.02-96.66H866.17v-7.16h-20.52v-1.95h22.47v7.16z" stroke="#000" stroke-width=".05"/><path d="M1784.4-1765.96h-1.03v-1.95h1.03z"/><path stroke="#000" stroke-width=".05"/><path d="M844.65-2099.2l-14.27-4.64 14.27-4.63z"/><path d="M845.62-2097.86l-18.4-5.98 18.4-5.98zm-12.08-5.98l10.13 3.3v-6.6z" stroke="#000" stroke-width=".05"/><use xlink:href="#E" transform="matrix(1,0,0,1,1427.8784481944995,-2010.7552083333333) translate(0.0049999999999954525 17.22222222222222)"/><use xlink:href="#y" transform="matrix(1,0,0,1,1427.8784481944995,-2010.7552083333333) translate(76.42861111111111 17.22222222222222)"/><path d="M868.12-1749.5h196.9v1.94H866.17v-339.14h-38.03v-1.96h39.98zm897.77 0v1.94h-558.52v-1.95z" stroke="#000" stroke-width=".05"/><path d="M828.17-2086.7h-1.03v-1.96h1.03z"/><path stroke="#000" stroke-width=".05"/><path d="M1781.16-1748.54l-14.27 4.64v-9.27z"/><path d="M1784.32-1748.54l-18.4 5.98v-11.95zm-16.45 3.3l10.14-3.3-10.13-3.3z" stroke="#000" stroke-width=".05"/><use xlink:href="#F" transform="matrix(1,0,0,1,1065.0174004280348,-1759.2903389569456) translate(0.0049999999999954525 17.22222222222222)"/><use xlink:href="#w" transform="matrix(1,0,0,1,1065.0174004280348,-1759.2903389569456) translate(108.71159722222224 17.22222222222222)"/><path d="M166.14-2274a6 6 0 0 1 6-6h1868a6 6 0 0 1 6 6v1088a6 6 0 0 1-6 6h-1868a6 6 0 0 1-6-6z" stroke="#000" stroke-width="4" fill-opacity="0"/><path d="M166.14-2322.26a6 6 0 0 1 6-6h393.44a6 6 0 0 1 6 6v24.26a6 6 0 0 1-6 6H172.14a6 6 0 0 1-6-6z" stroke="#000" stroke-width="4"/><use xlink:href="#a" transform="matrix(1,0,0,1,174.1444444444444,-2320.25474609375) translate(0 16.589501953125)"/><use xlink:href="#b" transform="matrix(1,0,0,1,174.1444444444444,-2320.25474609375) translate(63.55151367187501 16.589501953125)"/><use xlink:href="#c" transform="matrix(1,0,0,1,174.1444444444444,-2320.25474609375) translate(171.887431640625 16.589501953125)"/><use xlink:href="#d" transform="matrix(1,0,0,1,174.1444444444444,-2320.25474609375) translate(235.31633789062502 16.589501953125)"/><use xlink:href="#e" transform="matrix(1,0,0,1,174.1444444444444,-2320.25474609375) translate(256.76446289062505 16.589501953125)"/><use xlink:href="#f" transform="matrix(1,0,0,1,174.1444444444444,-2320.25474609375) translate(323.26672851562506 16.589501953125)"/><path d="M1785.4-1823.86a6 6 0 0 1 6-6h159a6 6 0 0 1 6 6v121a6 6 0 0 1-6 6h-159a6 6 0 0 1-6-6z" stroke="#000" stroke-width="2" fill="#fff"/><path d="M1794.4-1816.86a6 6 0 0 1 6-6h159a6 6 0 0 1 6 6v121a6 6 0 0 1-6 6h-159a6 6 0 0 1-6-6z" stroke="#000" stroke-width="2" fill="#fff"/><use xlink:href="#g" transform="matrix(1,0,0,1,1807.3963368991242,-1829.8595750680568) translate(37.6193798828125 65.96212890625)"/><use xlink:href="#h" transform="matrix(1,0,0,1,1807.3963368991242,-1829.8595750680568) translate(30.4345849609375 86.216875)"/><path d="M246.14-2184a6 6 0 0 1 6-6h159a6 6 0 0 1 6 6v121a6 6 0 0 1-6 6h-159a6 6 0 0 1-6-6z" stroke="#000" stroke-width="2" fill="#fff"/><path d="M255.14-2177a6 6 0 0 1 6-6h159a6 6 0 0 1 6 6v121a6 6 0 0 1-6 6h-159a6 6 0 0 1-6-6z" stroke="#000" stroke-width="2" fill="#fff"/><use xlink:href="#i" transform="matrix(1,0,0,1,268.1444444444444,-2190) translate(31.480834960937493 76.089501953125)"/><path d="M626.14-2184a16 16 0 0 1 16-16h168a16 16 0 0 1 16 16v128a16 16 0 0 1-16 16h-168a16 16 0 0 1-16-16zM626.14-2153h200-200z" stroke="#000" stroke-width="2" fill="#fff"/><use xlink:href="#j" transform="matrix(1,0,0,1,646.1444444444444,-2200) translate(69.1165478515625 29.589501953125)"/><use xlink:href="#k" transform="matrix(1,0,0,1,646.1444444444444,-2143) translate(50.5783056640625 32.334755859375)"/><use xlink:href="#l" transform="matrix(1,0,0,1,646.1444444444444,-2143) translate(28.186103515625 52.589501953125)"/><use xlink:href="#m" transform="matrix(1,0,0,1,646.1444444444444,-2143) translate(50.639609375 72.84424804687501)"/><path d="M1786.14-2184a6 6 0 0 1 6-6h159a6 6 0 0 1 6 6v121a6 6 0 0 1-6 6h-159a6 6 0 0 1-6-6z" stroke="#000" stroke-width="2" fill="#fff"/><path d="M1795.14-2177a6 6 0 0 1 6-6h159a6 6 0 0 1 6 6v121a6 6 0 0 1-6 6h-159a6 6 0 0 1-6-6z" stroke="#000" stroke-width="2" fill="#fff"/><use xlink:href="#n" transform="matrix(1,0,0,1,1808.1444444444444,-2190) translate(13.020244140624996 65.96212890625)"/><use xlink:href="#o" transform="matrix(1,0,0,1,1808.1444444444444,-2190) translate(76.57175781250001 65.96212890625)"/><use xlink:href="#p" transform="matrix(1,0,0,1,1808.1444444444444,-2190) translate(7.327172851562494 86.216875)"/><path d="M1406.14-1494a6 6 0 0 1 6-6h159a6 6 0 0 1 6 6v121a6 6 0 0 1-6 6h-159a6 6 0 0 1-6-6z" stroke="#000" stroke-width="2" fill="#fff"/><path d="M1415.14-1487a6 6 0 0 1 6-6h159a6 6 0 0 1 6 6v121a6 6 0 0 1-6 6h-159a6 6 0 0 1-6-6z" stroke="#000" stroke-width="2" fill="#fff"/><use xlink:href="#q" transform="matrix(1,0,0,1,1428.1444444444444,-1500) translate(18.9667041015625 65.96212890625)"/><use xlink:href="#o" transform="matrix(1,0,0,1,1428.1444444444444,-1500) translate(70.6252978515625 65.96212890625)"/><use xlink:href="#r" transform="matrix(1,0,0,1,1428.1444444444444,-1500) translate(5.953969726562491 86.216875)"/><use xlink:href="#s" transform="matrix(1,0,0,1,1428.1444444444444,-1500) translate(75.48872558593749 86.216875)"/><path d="M467.33-2142.36h-39.2v-1.95h39.2zm139.3 0h-21.67v-1.95h21.68z" stroke="#000" stroke-width=".05"/><path d="M428.17-2142.36h-1.03v-1.95h1.03z"/><path stroke="#000" stroke-width=".05"/><path d="M621.9-2143.33l-14.26 4.63v-9.27z"/><path d="M625.06-2143.33l-18.4 5.97v-11.95zm-16.44 3.3l10.13-3.3-10.13-3.3z" stroke="#000" stroke-width=".05"/><use xlink:href="#t" transform="matrix(1,0,0,1,467.3336805555555,-2154.088541666667) translate(0.005000000000002558 17.22222222222222)"/><use xlink:href="#u" transform="matrix(1,0,0,1,467.3336805555555,-2154.088541666667) translate(77.5484027777778 17.22222222222222)"/><path d="M469.18-2095.7h-23.53v-1.94h23.53zm154.96 0H583.1v-1.94h41.04z" stroke="#000" stroke-width=".05"/><path d="M625.14-2095.7h-1.02v-1.94h1.02z"/><path stroke="#000" stroke-width=".05"/><path d="M444.65-2092.03l-14.27-4.64 14.27-4.63z"/><path d="M445.62-2090.7l-18.4-5.97 18.4-5.97zm-12.08-5.97l10.13 3.3v-6.6z" stroke="#000" stroke-width=".05"/><use xlink:href="#v" transform="matrix(1,0,0,1,469.1782986111111,-2107.421875) translate(0.005000000000002558 17.22222222222222)"/><use xlink:href="#w" transform="matrix(1,0,0,1,469.1782986111111,-2107.421875) translate(80.28277777777777 17.22222222222222)"/><path d="M1784.14-2143.33h-938.5" stroke="#000" stroke-width="2" fill="none"/><path d="M1785.14-2142.36h-1.02v-1.95h1.02z" stroke="#000" stroke-width=".05"/><path d="M830.38-2143.33l14.27-4.64v9.27z" stroke="#000" stroke-width="2"/><g><use xlink:href="#x" transform="matrix(1,0,0,1,1239.6774305555555,-2168.8437500000005) translate(0.0049999999999954525 17.22222222222222)"/><use xlink:href="#y" transform="matrix(1,0,0,1,1239.6774305555555,-2168.8437500000005) translate(60.30881944444444 17.22222222222222)"/></g><path d="M1746.12-2097.64h20.52v1.95h-22.47v-23.33h-352.72v-1.94h354.67zm-917.98-21.4v-1.93h416.03v1.94z" stroke="#000" stroke-width=".05"/><path d="M828.17-2119.03h-1.03v-1.94h1.03z"/><path stroke="#000" stroke-width=".05"/><path d="M1781.9-2096.67l-14.26 4.64v-9.27z"/><path d="M1785.06-2096.67l-18.4 5.98v-11.94zm-16.44 3.3l10.13-3.3-10.13-3.3z" stroke="#000" stroke-width=".05"/><g><use xlink:href="#z" transform="matrix(1,0,0,1,1244.1739583333333,-2130.7552083333335) translate(0.0049999999999954525 17.22222222222222)"/><use xlink:href="#A" transform="matrix(1,0,0,1,1244.1739583333333,-2130.7552083333335) translate(87.34006944444444 17.22222222222222)"/></g><path d="M1404.14-1454.3v1.94H840.06v-1.95zm-677.02-9.8h-1.95v-556.4h1.95z" stroke="#000" stroke-width=".05"/><path d="M1405.14-1452.36h-1.02v-1.95h1.02z"/><path stroke="#000" stroke-width=".05"/><path d="M730.78-2021.5h-9.27l4.64-14.26z"/><path d="M732.12-2020.52h-11.95l5.97-18.4zm-9.27-1.95h6.6l-3.3-10.14z" stroke="#000" stroke-width=".05"/><g><use xlink:href="#B" transform="matrix(1,0,0,1,705.5585069444444,-1464.0885416666665) translate(0.0049999999999954525 17.22222222222222)"/><use xlink:href="#C" transform="matrix(1,0,0,1,705.5585069444444,-1464.0885416666665) translate(60.395625 17.22222222222222)"/></g><path d="M1386.64-1407.64v1.95H789v-1.94zm-692.85-9.78h-1.96V-2038h1.95z" stroke="#000" stroke-width=".05"/><path d="M693.8-2037.97h-1.96v-1.03h1.95z"/><path stroke="#000" stroke-width=".05"/><path d="M1401.9-1406.67l-14.26 4.64v-9.27z"/><path d="M1405.06-1406.67l-18.4 5.98v-11.94zm-16.44 3.3l10.13-3.3-10.13-3.3z" stroke="#000" stroke-width=".05"/><g><use xlink:href="#D" transform="matrix(1,0,0,1,676.6262152777776,-1417.421875) translate(0.005000000000002558 17.22222222222222)"/><use xlink:href="#u" transform="matrix(1,0,0,1,676.6262152777776,-1417.421875) translate(72.29666666666668 17.22222222222222)"/></g><path d="M1745.37-2000.97v233.06h38.03v1.94h-39.98v-233.07h-166.5v-1.94zm-438.63-96.67v96.66h121.14v1.95h-123.1l.02-96.66H866.17v-7.16h-20.52v-1.95h22.47v7.16z" stroke="#000" stroke-width=".05"/><path d="M1784.4-1765.96h-1.03v-1.95h1.03z"/><path stroke="#000" stroke-width=".05"/><path d="M844.65-2099.2l-14.27-4.64 14.27-4.63z"/><path d="M845.62-2097.86l-18.4-5.98 18.4-5.98zm-12.08-5.98l10.13 3.3v-6.6z" stroke="#000" stroke-width=".05"/><g><use xlink:href="#E" transform="matrix(1,0,0,1,1427.8784481944995,-2010.7552083333333) translate(0.0049999999999954525 17.22222222222222)"/><use xlink:href="#y" transform="matrix(1,0,0,1,1427.8784481944995,-2010.7552083333333) translate(76.42861111111111 17.22222222222222)"/></g><path d="M868.12-1749.5h196.9v1.94H866.17v-339.14h-38.03v-1.96h39.98zm897.77 0v1.94h-558.52v-1.95z" stroke="#000" stroke-width=".05"/><path d="M828.17-2086.7h-1.03v-1.96h1.03z"/><path stroke="#000" stroke-width=".05"/><path d="M1781.16-1748.54l-14.27 4.64v-9.27z"/><path d="M1784.32-1748.54l-18.4 5.98v-11.95zm-16.45 3.3l10.14-3.3-10.13-3.3z" stroke="#000" stroke-width=".05"/><g><use xlink:href="#F" transform="matrix(1,0,0,1,1065.0174004280348,-1759.2903389569456) translate(0.0049999999999954525 17.22222222222222)"/><use xlink:href="#w" transform="matrix(1,0,0,1,1065.0174004280348,-1759.2903389569456) translate(108.71159722222224 17.22222222222222)"/></g><defs><path fill="#fff" d="M783 20c-382 0-661-292-661-764 0-473 279-766 661-766 302 0 548 182 601 489h-190c-42-204-217-313-411-313-268 0-476 208-476 590 0 381 209 588 476 588 195 0 369-110 411-313h190c-52 303-296 489-601 489" id="G"/><path fill="#fff" d="M613 24c-304 0-509-231-509-576 0-350 205-580 509-580 305 0 511 230 511 580 0 345-206 576-511 576zm0-161c226 0 329-195 329-415 0-222-103-419-329-419-223 0-326 196-326 419 0 220 103 415 326 415" id="H"/><path fill="#fff" d="M537 14c-226 0-379-139-379-422v-710h180v695c0 172 97 275 253 275 160 0 281-109 281-300v-670h181V0H879v-209C806-46 684 14 537 14" id="I"/><path fill="#fff" d="M158 0v-1118h174v172h12c41-113 157-188 290-188 26 0 70 2 91 3v181c-11-2-60-10-108-10-161 0-279 109-279 260V0H158" id="J"/><path fill="#fff" d="M158 0v-1118h180V0H158zm91-1301c-68 0-125-53-125-119s57-119 125-119c69 0 126 53 126 119s-57 119-126 119" id="K"/><path fill="#fff" d="M628 24c-324 0-524-230-524-574 0-343 198-582 503-582 237 0 487 146 487 559v75H286c9 234 145 362 343 362 132 0 231-58 273-172l174 48C1024-91 857 24 628 24zM287-650h624c-17-190-120-322-304-322-192 0-309 151-320 322" id="L"/><g id="a"><use transform="matrix(0.008173828125000001,0,0,0.008173828125000001,0,0)" xlink:href="#G"/><use transform="matrix(0.008173828125000001,0,0,0.008173828125000001,12.228046875000002,0)" xlink:href="#H"/><use transform="matrix(0.008173828125000001,0,0,0.008173828125000001,22.265507812500008,0)" xlink:href="#I"/><use transform="matrix(0.008173828125000001,0,0,0.008173828125000001,32.164013671875004,0)" xlink:href="#J"/><use transform="matrix(0.008173828125000001,0,0,0.008173828125000001,38.72759765625,0)" xlink:href="#K"/><use transform="matrix(0.008173828125000001,0,0,0.008173828125000001,42.78181640625,0)" xlink:href="#L"/><use transform="matrix(0.008173828125000001,0,0,0.008173828125000001,52.5413671875,0)" xlink:href="#J"/></g><path fill="#fff" d="M180 0v-1490h270l367 940c28 72 75 218 110 339 35-117 81-264 110-339l362-940h271V0h-187c2-448-5-837 7-1287-157 497-311 829-483 1287H842C666-458 514-784 354-1284c12 438 5 843 7 1284H180" id="M"/><path fill="#fff" d="M471 26C259 26 90-98 90-318c0-256 228-303 435-329 202-27 287-16 287-108 0-139-79-219-234-219-161 0-248 86-283 164l-173-57c86-203 278-265 451-265 150 0 419 46 419 395V0H815v-152h-12C765-73 660 26 471 26zm31-159c199 0 310-134 310-271v-155c-30 35-226 55-295 64-131 17-246 59-246 186 0 116 97 176 231 176" id="N"/><path fill="#fff" d="M338-670V0H158v-1118h173l1 207c72-158 192-221 342-221 226 0 378 139 378 422V0H872v-695c0-172-96-275-252-275-161 0-282 109-282 300" id="O"/><path fill="#fff" d="M611 442c-248 0-391-105-460-228l146-94c47 65 117 165 314 165 178 0 307-82 307-266v-224h-17C863-141 792-18 576-18c-268 0-472-195-472-546 0-346 197-568 476-568 216 0 288 133 326 193h17v-179h175V29c0 289-215 413-487 413zm-5-620c203 0 314-146 314-390 0-237-108-403-314-403-213 0-319 180-319 403 0 230 109 390 319 390" id="P"/><path fill="#fff" d="M158 0v-1118h175l1 205c55-151 181-225 313-225 147 0 245 90 285 228 53-141 190-228 352-228 194 0 352 125 352 384V0h-181v-749c0-161-105-225-225-225-151 0-243 103-243 244V0H807v-767c0-124-93-207-219-207-131 0-250 92-250 270V0H158" id="Q"/><path fill="#fff" d="M598-1118v154H368v674c0 100 37 144 132 144 23 0 62-6 92-12L629-6c-37 13-88 20-134 20-193 0-307-107-307-290v-688H20v-154h168v-266h180v266h230" id="R"/><g id="b"><use transform="matrix(0.008173828125000001,0,0,0.008173828125000001,0,0)" xlink:href="#M"/><use transform="matrix(0.008173828125000001,0,0,0.008173828125000001,15.121582031250002,0)" xlink:href="#N"/><use transform="matrix(0.008173828125000001,0,0,0.008173828125000001,24.521484375000004,0)" xlink:href="#O"/><use transform="matrix(0.008173828125000001,0,0,0.008173828125000001,34.411816406250004,0)" xlink:href="#N"/><use transform="matrix(0.008173828125000001,0,0,0.008173828125000001,43.811718750000004,0)" xlink:href="#P"/><use transform="matrix(0.008173828125000001,0,0,0.008173828125000001,54.078046875000005,0)" xlink:href="#L"/><use transform="matrix(0.008173828125000001,0,0,0.008173828125000001,63.837597656250004,0)" xlink:href="#Q"/><use transform="matrix(0.008173828125000001,0,0,0.008173828125000001,78.50144531250001,0)" xlink:href="#L"/><use transform="matrix(0.008173828125000001,0,0,0.008173828125000001,88.26099609375001,0)" xlink:href="#O"/><use transform="matrix(0.008173828125000001,0,0,0.008173828125000001,98.151328125,0)" xlink:href="#R"/></g><path fill="#fff" d="M657 26c-323 0-524-166-541-416h195c15 169 171 246 346 246 202 0 356-106 356-265 5-203-294-238-475-293-239-73-380-191-380-389 0-252 224-419 512-419 294 0 499 171 508 396H992c-17-145-151-228-328-228-193 0-321 102-321 242 0 156 175 211 284 241l149 41c160 44 422 134 422 412 0 244-197 432-541 432" id="S"/><path fill="#fff" d="M140 405l46-156c120 36 205 19 263-150l32-93L54-1118h197c107 313 237 620 324 950 87-331 219-637 326-950h196L606 167c-68 178-176 259-334 259-64 0-113-12-132-21" id="T"/><path fill="#fff" d="M538 24C308 24 148-78 108-271l171-41c32 123 123 178 257 178 156 0 256-77 256-169 0-77-54-128-164-154l-186-44c-203-48-300-148-300-305 0-192 176-326 414-326 230 0 351 112 402 269l-163 42c-31-80-94-158-238-158-133 0-233 69-233 162 0 83 57 129 188 160l169 40c203 48 298 149 298 302 0 196-179 339-441 339" id="U"/><g id="c"><use transform="matrix(0.008173828125000001,0,0,0.008173828125000001,0,0)" xlink:href="#S"/><use transform="matrix(0.008173828125000001,0,0,0.008173828125000001,10.740410156250002,0)" xlink:href="#T"/><use transform="matrix(0.008173828125000001,0,0,0.008173828125000001,20.148486328125003,0)" xlink:href="#U"/><use transform="matrix(0.008173828125000001,0,0,0.008173828125000001,28.984394531250004,0)" xlink:href="#R"/><use transform="matrix(0.008173828125000001,0,0,0.008173828125000001,34.297382812500004,0)" xlink:href="#L"/><use transform="matrix(0.008173828125000001,0,0,0.008173828125000001,44.05693359375,0)" xlink:href="#Q"/></g><path fill="#fff" d="M2048-719v166H0v-166h2048" id="V"/><use transform="matrix(0.008173828125000001,0,0,0.008173828125000001,0,0)" xlink:href="#V" id="d"/><path fill="#fff" d="M65 0l393-574-370-544h210c88 136 192 297 267 435 67-142 176-302 264-435h206L661-564 1053 0H844c-94-144-206-310-287-458C484-308 366-142 273 0H65" id="W"/><g id="e"><use transform="matrix(0.008173828125000001,0,0,0.008173828125000001,0,0)" xlink:href="#G"/><use transform="matrix(0.008173828125000001,0,0,0.008173828125000001,12.228046875000002,0)" xlink:href="#H"/><use transform="matrix(0.008173828125000001,0,0,0.008173828125000001,22.265507812500008,0)" xlink:href="#O"/><use transform="matrix(0.008173828125000001,0,0,0.008173828125000001,32.15583984375,0)" xlink:href="#R"/><use transform="matrix(0.008173828125000001,0,0,0.008173828125000001,37.468828125,0)" xlink:href="#L"/><use transform="matrix(0.008173828125000001,0,0,0.008173828125000001,46.852382812500004,0)" xlink:href="#W"/><use transform="matrix(0.008173828125000001,0,0,0.008173828125000001,56.31767578125001,0)" xlink:href="#R"/></g><path fill="#fff" d="M645 0H180v-1490h484c435 0 692 280 692 742 0 466-257 748-711 748zM370-168h263c363 0 539-218 539-580 0-358-176-574-521-574H370v1154" id="X"/><g id="f"><use transform="matrix(0.008173828125000001,0,0,0.008173828125000001,0,0)" xlink:href="#X"/><use transform="matrix(0.008173828125000001,0,0,0.008173828125000001,12.08091796875,0)" xlink:href="#K"/><use transform="matrix(0.008173828125000001,0,0,0.008173828125000001,16.13513671875,0)" xlink:href="#N"/><use transform="matrix(0.008173828125000001,0,0,0.008173828125000001,25.535039062500005,0)" xlink:href="#P"/><use transform="matrix(0.008173828125000001,0,0,0.008173828125000001,35.801367187500006,0)" xlink:href="#J"/><use transform="matrix(0.008173828125000001,0,0,0.008173828125000001,42.10338867187501,0)" xlink:href="#N"/><use transform="matrix(0.008173828125000001,0,0,0.008173828125000001,51.50329101562501,0)" xlink:href="#Q"/></g><path d="M645 0H180v-1490h484c435 0 692 280 692 742 0 466-257 748-711 748zM370-168h263c363 0 539-218 539-580 0-358-176-574-521-574H370v1154" id="Y"/><path d="M628 24c-324 0-524-230-524-574 0-343 198-582 503-582 237 0 487 146 487 559v75H286c9 234 145 362 343 362 132 0 231-58 273-172l174 48C1024-91 857 24 628 24zM287-650h624c-17-190-120-322-304-322-192 0-309 151-320 322" id="Z"/><path d="M338-1490V0H158v-1490h180" id="aa"/><path d="M158 0v-1118h180V0H158zm91-1301c-68 0-125-53-125-119s57-119 125-119c69 0 126 53 126 119s-57 119-126 119" id="ab"/><path d="M481 0L54-1118h197c107 314 236 620 325 951 87-331 217-637 324-951h197L670 0H481" id="ac"/><path d="M158 0v-1118h174v172h12c41-113 157-188 290-188 26 0 70 2 91 3v181c-11-2-60-10-108-10-161 0-279 109-279 260V0H158" id="ad"/><path d="M140 405l46-156c120 36 205 19 263-150l32-93L54-1118h197c107 313 237 620 324 950 87-331 219-637 326-950h196L606 167c-68 178-176 259-334 259-64 0-113-12-132-21" id="ae"/><g id="g"><use transform="matrix(0.008173828125000001,0,0,0.008173828125000001,0,0)" xlink:href="#Y"/><use transform="matrix(0.008173828125000001,0,0,0.008173828125000001,12.08091796875,0)" xlink:href="#Z"/><use transform="matrix(0.008173828125000001,0,0,0.008173828125000001,21.84046875,0)" xlink:href="#aa"/><use transform="matrix(0.008173828125000001,0,0,0.008173828125000001,25.8946875,0)" xlink:href="#ab"/><use transform="matrix(0.008173828125000001,0,0,0.008173828125000001,29.94890625,0)" xlink:href="#ac"/><use transform="matrix(0.008173828125000001,0,0,0.008173828125000001,39.030029296875,0)" xlink:href="#Z"/><use transform="matrix(0.008173828125000001,0,0,0.008173828125000001,48.789580078125,0)" xlink:href="#ad"/><use transform="matrix(0.008173828125000001,0,0,0.008173828125000001,55.3531640625,0)" xlink:href="#ae"/></g><path d="M180 0v-1490h510c348 0 508 209 508 474 0 266-160 477-507 477H370V0H180zm190-706h312c236 0 327-133 327-310 0-176-91-307-329-307H370v617" id="af"/><path d="M538 24C308 24 148-78 108-271l171-41c32 123 123 178 257 178 156 0 256-77 256-169 0-77-54-128-164-154l-186-44c-203-48-300-148-300-305 0-192 176-326 414-326 230 0 351 112 402 269l-163 42c-31-80-94-158-238-158-133 0-233 69-233 162 0 83 57 129 188 160l169 40c203 48 298 149 298 302 0 196-179 339-441 339" id="ag"/><path d="M613 24c-304 0-509-231-509-576 0-350 205-580 509-580 305 0 511 230 511 580 0 345-206 576-511 576zm0-161c226 0 329-195 329-415 0-222-103-419-329-419-223 0-326 196-326 419 0 220 103 415 326 415" id="ah"/><path d="M338-670V0H158v-1118h173l1 207c72-158 192-221 342-221 226 0 378 139 378 422V0H872v-695c0-172-96-275-252-275-161 0-282 109-282 300" id="ai"/><g id="h"><use transform="matrix(0.008173828125000001,0,0,0.008173828125000001,0,0)" xlink:href="#af"/><use transform="matrix(0.008173828125000001,0,0,0.008173828125000001,10.601455078125001,0)" xlink:href="#Z"/><use transform="matrix(0.008173828125000001,0,0,0.008173828125000001,20.361005859375002,0)" xlink:href="#ad"/><use transform="matrix(0.008173828125000001,0,0,0.008173828125000001,26.663027343750002,0)" xlink:href="#ag"/><use transform="matrix(0.008173828125000001,0,0,0.008173828125000001,35.498935546875,0)" xlink:href="#ah"/><use transform="matrix(0.008173828125000001,0,0,0.008173828125000001,45.536396484375004,0)" xlink:href="#ai"/><use transform="matrix(0.008173828125000001,0,0,0.008173828125000001,55.426728515625,0)" xlink:href="#ai"/><use transform="matrix(0.008173828125000001,0,0,0.008173828125000001,65.317060546875,0)" xlink:href="#Z"/><use transform="matrix(0.008173828125000001,0,0,0.008173828125000001,75.076611328125,0)" xlink:href="#aa"/></g><path d="M783 20c-382 0-661-292-661-764 0-473 279-766 661-766 302 0 548 182 601 489h-190c-42-204-217-313-411-313-268 0-476 208-476 590 0 381 209 588 476 588 195 0 369-110 411-313h190c-52 303-296 489-601 489" id="aj"/><path d="M537 14c-226 0-379-139-379-422v-710h180v695c0 172 97 275 253 275 160 0 281-109 281-300v-670h181V0H879v-209C806-46 684 14 537 14" id="ak"/><path d="M598-1118v154H368v674c0 100 37 144 132 144 23 0 62-6 92-12L629-6c-37 13-88 20-134 20-193 0-307-107-307-290v-688H20v-154h168v-266h180v266h230" id="al"/><path d="M158 0v-1118h175l1 205c55-151 181-225 313-225 147 0 245 90 285 228 53-141 190-228 352-228 194 0 352 125 352 384V0h-181v-749c0-161-105-225-225-225-151 0-243 103-243 244V0H807v-767c0-124-93-207-219-207-131 0-250 92-250 270V0H158" id="am"/><g id="i"><use transform="matrix(0.008173828125000001,0,0,0.008173828125000001,0,0)" xlink:href="#aj"/><use transform="matrix(0.008173828125000001,0,0,0.008173828125000001,12.228046875000002,0)" xlink:href="#ak"/><use transform="matrix(0.008173828125000001,0,0,0.008173828125000001,22.126552734375004,0)" xlink:href="#ag"/><use transform="matrix(0.008173828125000001,0,0,0.008173828125000001,30.962460937500005,0)" xlink:href="#al"/><use transform="matrix(0.008173828125000001,0,0,0.008173828125000001,36.275449218750005,0)" xlink:href="#ah"/><use transform="matrix(0.008173828125000001,0,0,0.008173828125000001,46.312910156250005,0)" xlink:href="#am"/><use transform="matrix(0.008173828125000001,0,0,0.008173828125000001,60.97675781250001,0)" xlink:href="#Z"/><use transform="matrix(0.008173828125000001,0,0,0.008173828125000001,70.73630859375001,0)" xlink:href="#ad"/></g><path d="M653-1490V0H466v-1314h-10L96-1047v-204l324-239h233" id="an"/><path d="M295 13c-75 0-135-60-135-135s60-135 135-135 135 60 135 135S370 13 295 13" id="ao"/><path d="M646 20c-332 0-524-278-524-764 0-483 194-766 524-766s524 283 524 766c0 485-191 764-524 764zm0-166c218 0 341-220 341-598 0-380-123-601-341-601s-341 222-341 601c0 378 123 598 341 598" id="ap"/><g id="j"><use transform="matrix(0.008173828125000001,0,0,0.008173828125000001,0,0)" xlink:href="#an"/><use transform="matrix(0.008173828125000001,0,0,0.008173828125000001,6.808798828125001,0)" xlink:href="#ao"/><use transform="matrix(0.008173828125000001,0,0,0.008173828125000001,11.206318359375002,0)" xlink:href="#ap"/></g><g id="k"><use transform="matrix(0.008173828125000001,0,0,0.008173828125000001,0,0)" xlink:href="#aj"/><use transform="matrix(0.008173828125000001,0,0,0.008173828125000001,12.228046875000002,0)" xlink:href="#ah"/><use transform="matrix(0.008173828125000001,0,0,0.008173828125000001,22.265507812500008,0)" xlink:href="#ak"/><use transform="matrix(0.008173828125000001,0,0,0.008173828125000001,32.164013671875004,0)" xlink:href="#ad"/><use transform="matrix(0.008173828125000001,0,0,0.008173828125000001,38.72759765625,0)" xlink:href="#ab"/><use transform="matrix(0.008173828125000001,0,0,0.008173828125000001,42.78181640625,0)" xlink:href="#Z"/><use transform="matrix(0.008173828125000001,0,0,0.008173828125000001,52.5413671875,0)" xlink:href="#ad"/></g><path d="M180 0v-1490h270l367 940c28 72 75 218 110 339 35-117 81-264 110-339l362-940h271V0h-187c2-448-5-837 7-1287-157 497-311 829-483 1287H842C666-458 514-784 354-1284c12 438 5 843 7 1284H180" id="aq"/><path d="M471 26C259 26 90-98 90-318c0-256 228-303 435-329 202-27 287-16 287-108 0-139-79-219-234-219-161 0-248 86-283 164l-173-57c86-203 278-265 451-265 150 0 419 46 419 395V0H815v-152h-12C765-73 660 26 471 26zm31-159c199 0 310-134 310-271v-155c-30 35-226 55-295 64-131 17-246 59-246 186 0 116 97 176 231 176" id="ar"/><path d="M611 442c-248 0-391-105-460-228l146-94c47 65 117 165 314 165 178 0 307-82 307-266v-224h-17C863-141 792-18 576-18c-268 0-472-195-472-546 0-346 197-568 476-568 216 0 288 133 326 193h17v-179h175V29c0 289-215 413-487 413zm-5-620c203 0 314-146 314-390 0-237-108-403-314-403-213 0-319 180-319 403 0 230 109 390 319 390" id="as"/><g id="l"><use transform="matrix(0.008173828125000001,0,0,0.008173828125000001,0,0)" xlink:href="#aq"/><use transform="matrix(0.008173828125000001,0,0,0.008173828125000001,15.121582031250002,0)" xlink:href="#ar"/><use transform="matrix(0.008173828125000001,0,0,0.008173828125000001,24.521484375000004,0)" xlink:href="#ai"/><use transform="matrix(0.008173828125000001,0,0,0.008173828125000001,34.411816406250004,0)" xlink:href="#ar"/><use transform="matrix(0.008173828125000001,0,0,0.008173828125000001,43.811718750000004,0)" xlink:href="#as"/><use transform="matrix(0.008173828125000001,0,0,0.008173828125000001,54.078046875000005,0)" xlink:href="#Z"/><use transform="matrix(0.008173828125000001,0,0,0.008173828125000001,63.837597656250004,0)" xlink:href="#am"/><use transform="matrix(0.008173828125000001,0,0,0.008173828125000001,78.50144531250001,0)" xlink:href="#Z"/><use transform="matrix(0.008173828125000001,0,0,0.008173828125000001,88.26099609375001,0)" xlink:href="#ai"/><use transform="matrix(0.008173828125000001,0,0,0.008173828125000001,98.151328125,0)" xlink:href="#al"/></g><path d="M657 26c-323 0-524-166-541-416h195c15 169 171 246 346 246 202 0 356-106 356-265 5-203-294-238-475-293-239-73-380-191-380-389 0-252 224-419 512-419 294 0 499 171 508 396H992c-17-145-151-228-328-228-193 0-321 102-321 242 0 156 175 211 284 241l149 41c160 44 422 134 422 412 0 244-197 432-541 432" id="at"/><g id="m"><use transform="matrix(0.008173828125000001,0,0,0.008173828125000001,0,0)" xlink:href="#at"/><use transform="matrix(0.008173828125000001,0,0,0.008173828125000001,10.740410156250002,0)" xlink:href="#ae"/><use transform="matrix(0.008173828125000001,0,0,0.008173828125000001,20.148486328125003,0)" xlink:href="#ag"/><use transform="matrix(0.008173828125000001,0,0,0.008173828125000001,28.984394531250004,0)" xlink:href="#al"/><use transform="matrix(0.008173828125000001,0,0,0.008173828125000001,34.297382812500004,0)" xlink:href="#Z"/><use transform="matrix(0.008173828125000001,0,0,0.008173828125000001,44.05693359375,0)" xlink:href="#am"/></g><g id="n"><use transform="matrix(0.008173828125000001,0,0,0.008173828125000001,0,0)" xlink:href="#aj"/><use transform="matrix(0.008173828125000001,0,0,0.008173828125000001,12.228046875000002,0)" xlink:href="#ah"/><use transform="matrix(0.008173828125000001,0,0,0.008173828125000001,22.265507812500008,0)" xlink:href="#ak"/><use transform="matrix(0.008173828125000001,0,0,0.008173828125000001,32.164013671875004,0)" xlink:href="#ad"/><use transform="matrix(0.008173828125000001,0,0,0.008173828125000001,38.72759765625,0)" xlink:href="#ab"/><use transform="matrix(0.008173828125000001,0,0,0.008173828125000001,42.78181640625,0)" xlink:href="#Z"/><use transform="matrix(0.008173828125000001,0,0,0.008173828125000001,52.5413671875,0)" xlink:href="#ad"/></g><path d="M52 0l541-1490h220L1361 0h-200l-149-416H398L254 0H52zm404-582h497c-103-290-145-390-251-756-108 377-145 460-246 756" id="au"/><path d="M577 24c-279 0-473-224-473-580 0-354 195-576 474-576 218 0 287 134 324 193h14v-551h180V0H922v-173h-20C865-111 790 24 577 24zm27-161c203 0 314-172 314-421 0-247-108-413-314-413-212 0-317 181-317 413 0 235 108 421 317 421" id="av"/><g id="o"><use transform="matrix(0.008173828125000001,0,0,0.008173828125000001,0,0)" xlink:href="#au"/><use transform="matrix(0.008173828125000001,0,0,0.008173828125000001,11.549619140625001,0)" xlink:href="#av"/><use transform="matrix(0.008173828125000001,0,0,0.008173828125000001,21.799599609375,0)" xlink:href="#am"/><use transform="matrix(0.008173828125000001,0,0,0.008173828125000001,36.46344726562501,0)" xlink:href="#ab"/><use transform="matrix(0.008173828125000001,0,0,0.008173828125000001,40.51766601562501,0)" xlink:href="#ai"/></g><path d="M218-607c0-325 108-727 258-974h175c-155 315-250 682-250 974 0 265 78 531 250 886H476C306-10 218-315 218-607" id="aw"/><path d="M678-1118v154H420V0H240v-964H20v-154h220v-149c0-194 155-293 318-293 85 0 141 18 168 30l-50 154c-19-6-47-17-97-17-111 0-159 58-159 166v109h258" id="ax"/><path d="M692-1560L212 224H46l480-1784h166" id="ay"/><path d="M96 279C273-86 346-350 346-607c0-292-95-659-250-974h175c150 246 258 650 258 974 0 297-91 602-258 886H96" id="az"/><g id="p"><use transform="matrix(0.008173828125000001,0,0,0.008173828125000001,0,0)" xlink:href="#aw"/><use transform="matrix(0.008173828125000001,0,0,0.008173828125000001,6.105849609375,0)" xlink:href="#at"/><use transform="matrix(0.008173828125000001,0,0,0.008173828125000001,16.846259765625003,0)" xlink:href="#al"/><use transform="matrix(0.008173828125000001,0,0,0.008173828125000001,22.404462890625005,0)" xlink:href="#ar"/><use transform="matrix(0.008173828125000001,0,0,0.008173828125000001,31.804365234375005,0)" xlink:href="#ax"/><use transform="matrix(0.008173828125000001,0,0,0.008173828125000001,37.346220703125006,0)" xlink:href="#ax"/><use transform="matrix(0.008173828125000001,0,0,0.008173828125000001,43.067900390625006,0)" xlink:href="#ay"/><use transform="matrix(0.008173828125000001,0,0,0.008173828125000001,49.100185546875004,0)" xlink:href="#aq"/><use transform="matrix(0.008173828125000001,0,0,0.008173828125000001,64.22176757812501,0)" xlink:href="#ar"/><use transform="matrix(0.008173828125000001,0,0,0.008173828125000001,73.62166992187501,0)" xlink:href="#ai"/><use transform="matrix(0.008173828125000001,0,0,0.008173828125000001,83.51200195312501,0)" xlink:href="#ar"/><use transform="matrix(0.008173828125000001,0,0,0.008173828125000001,92.91190429687501,0)" xlink:href="#as"/><use transform="matrix(0.008173828125000001,0,0,0.008173828125000001,103.17823242187501,0)" xlink:href="#Z"/><use transform="matrix(0.008173828125000001,0,0,0.008173828125000001,112.93778320312501,0)" xlink:href="#ad"/><use transform="matrix(0.008173828125000001,0,0,0.008173828125000001,119.23980468750001,0)" xlink:href="#az"/></g><path d="M158 418v-1536h174v179h20c37-59 106-193 324-193 279 0 474 222 474 576 0 356-194 580-473 580-213 0-288-135-325-197h-14v591H158zm492-555c209 0 317-186 317-421 0-232-105-413-317-413-206 0-314 166-314 413 0 249 111 421 314 421" id="aA"/><g id="q"><use transform="matrix(0.008173828125000001,0,0,0.008173828125000001,0,0)" xlink:href="#at"/><use transform="matrix(0.008173828125000001,0,0,0.008173828125000001,10.740410156250002,0)" xlink:href="#ak"/><use transform="matrix(0.008173828125000001,0,0,0.008173828125000001,20.638916015625004,0)" xlink:href="#aA"/><use transform="matrix(0.008173828125000001,0,0,0.008173828125000001,30.888896484375003,0)" xlink:href="#Z"/><use transform="matrix(0.008173828125000001,0,0,0.008173828125000001,40.648447265625,0)" xlink:href="#ad"/></g><g id="r"><use transform="matrix(0.008173828125000001,0,0,0.008173828125000001,0,0)" xlink:href="#aw"/><use transform="matrix(0.008173828125000001,0,0,0.008173828125000001,6.105849609375,0)" xlink:href="#at"/><use transform="matrix(0.008173828125000001,0,0,0.008173828125000001,16.846259765625003,0)" xlink:href="#ae"/><use transform="matrix(0.008173828125000001,0,0,0.008173828125000001,26.254335937500002,0)" xlink:href="#ag"/><use transform="matrix(0.008173828125000001,0,0,0.008173828125000001,35.090244140625,0)" xlink:href="#al"/><use transform="matrix(0.008173828125000001,0,0,0.008173828125000001,40.403232421875,0)" xlink:href="#Z"/><use transform="matrix(0.008173828125000001,0,0,0.008173828125000001,50.16278320312501,0)" xlink:href="#am"/></g><path d="M784 20c-382 0-662-292-662-764 0-473 280-766 662-766s660 293 660 766c0 472-278 764-660 764zm0-176c266 0 475-207 475-588 0-383-209-590-475-590-268 0-477 208-477 590 0 380 209 588 477 588" id="aB"/><path d="M409 0L70-1118h191c89 329 165 560 243 925 75-353 154-601 240-925h192c85 325 161 564 235 922 77-354 157-598 244-922h191L1267 0h-179c-86-307-176-590-250-913C763-588 675-308 588 0H409" id="aC"/><g id="s"><use transform="matrix(0.008173828125000001,0,0,0.008173828125000001,0,0)" xlink:href="#aB"/><use transform="matrix(0.008173828125000001,0,0,0.008173828125000001,12.800214843750002,0)" xlink:href="#aC"/><use transform="matrix(0.008173828125000001,0,0,0.008173828125000001,26.49955078125,0)" xlink:href="#ai"/><use transform="matrix(0.008173828125000001,0,0,0.008173828125000001,36.389882812500005,0)" xlink:href="#Z"/><use transform="matrix(0.008173828125000001,0,0,0.008173828125000001,46.149433593750004,0)" xlink:href="#ad"/><use transform="matrix(0.008173828125000001,0,0,0.008173828125000001,52.45145507812501,0)" xlink:href="#az"/></g><path fill="#333" d="M49 0l509-1490h400L1480 0h-339l-115-346H497L386 0H49zm524-585h374c-75-213-124-402-192-666-66 268-110 453-182 666" id="aD"/><path fill="#333" d="M628 22C291 22 81-210 81-554c0-346 210-578 547-578 265 0 455 142 497 372l-279 52c-25-116-99-188-215-188-160 0-244 139-244 341 0 200 84 341 244 341 116 0 193-74 217-195l279 51C1085-123 896 22 628 22" id="aE"/><path fill="#333" d="M628 22C291 22 81-210 81-554c0-346 210-578 547-578 336 0 547 232 547 578 0 344-211 576-547 576zm0-236c160 0 242-146 242-341 0-197-82-341-242-341S387-753 387-555c0 195 81 341 241 341" id="aF"/><path fill="#333" d="M513 14c-232 0-385-159-385-421v-711h300v659c0 139 76 222 202 222 127 0 217-86 217-234v-647h301V0H864l-4-232C797-74 683 14 513 14" id="aG"/><path fill="#333" d="M428-647V0H128v-1118h283l4 231c63-156 176-245 348-245 232 0 384 159 384 421V0H847v-659c0-139-76-222-202-222-128 0-217 86-217 234" id="aH"/><path fill="#333" d="M683-1118v229H474v562c0 71 29 104 102 104 23 0 73-7 95-13l43 225C647 9 580 16 520 16 296 16 174-96 174-301v-588H20v-229h154v-266h300v266h209" id="aI"/><g id="t"><use transform="matrix(0.008680555555555556,0,0,0.008680555555555556,0,0)" xlink:href="#aD"/><use transform="matrix(0.008680555555555556,0,0,0.008680555555555556,12.864583333333334,0)" xlink:href="#aE"/><use transform="matrix(0.008680555555555556,0,0,0.008680555555555556,23.32465277777778,0)" xlink:href="#aE"/><use transform="matrix(0.008680555555555556,0,0,0.008680555555555556,33.78472222222222,0)" xlink:href="#aF"/><use transform="matrix(0.008680555555555556,0,0,0.008680555555555556,44.6875,0)" xlink:href="#aG"/><use transform="matrix(0.008680555555555556,0,0,0.008680555555555556,55.755208333333336,0)" xlink:href="#aH"/><use transform="matrix(0.008680555555555556,0,0,0.008680555555555556,66.82291666666667,0)" xlink:href="#aI"/></g><path fill="#333" d="M659 0H135v-1490h529c448 0 721 280 721 744 0 466-273 746-726 746zM440-263h204c287 0 437-148 437-483 0-333-150-481-435-481H440v964" id="aJ"/><path fill="#333" d="M440 22C227 22 68-92 68-313c0-250 202-322 422-343 195-21 271-24 271-105 0-95-63-149-175-149-116 0-187 57-211 129l-275-46c57-194 237-305 487-305 240 0 474 108 474 379V0H777v-155h-10C713-51 605 22 440 22zm85-211c140 0 238-93 238-211v-121c-37 26-156 42-222 51-111 16-185 59-185 149 0 87 70 132 169 132" id="aK"/><g id="u"><use transform="matrix(0.008680555555555556,0,0,0.008680555555555556,0,0)" xlink:href="#aJ"/><use transform="matrix(0.008680555555555556,0,0,0.008680555555555556,12.838541666666668,0)" xlink:href="#aK"/><use transform="matrix(0.008680555555555556,0,0,0.008680555555555556,23.159722222222225,0)" xlink:href="#aI"/><use transform="matrix(0.008680555555555556,0,0,0.008680555555555556,29.756944444444446,0)" xlink:href="#aK"/></g><path fill="#333" d="M75-1237v-253h1217v253H837V0H531v-1237H75" id="aL"/><path fill="#333" d="M128 0v-1118h290v195h12c54-169 184-238 367-200v268c-27-8-86-15-130-15-138 0-239 95-239 234V0H128" id="aM"/><path fill="#333" d="M128 0v-1490h300v802h17l366-430h347L740-633 1179 0H826L514-456l-86 97V0H128" id="aN"/><path fill="#333" d="M128 0v-1118h300V0H128zm150-1264c-91 0-165-68-165-154 0-85 74-154 165-154 90 0 165 69 165 154 0 86-75 154-165 154" id="aO"/><path fill="#333" d="M625 442c-280 0-454-114-503-274l258-72c28 63 97 128 243 128 153 0 246-69 246-216v-206h-23C805-108 717-16 536-16 284-16 81-191 81-561c0-378 208-571 456-571 188 0 280 113 321 202h13v-188h295V-9c0 303-226 451-541 451zm5-686c153 0 240-119 240-319 0-198-86-329-240-329-158 0-241 137-241 329 0 195 85 319 241 319" id="aP"/><g id="v"><use transform="matrix(0.008680555555555556,0,0,0.008680555555555556,0,0)" xlink:href="#aL"/><use transform="matrix(0.008680555555555556,0,0,0.008680555555555556,10.859375,0)" xlink:href="#aM"/><use transform="matrix(0.008680555555555556,0,0,0.008680555555555556,17.85590277777778,0)" xlink:href="#aK"/><use transform="matrix(0.008680555555555556,0,0,0.008680555555555556,28.177083333333336,0)" xlink:href="#aE"/><use transform="matrix(0.008680555555555556,0,0,0.008680555555555556,38.63715277777778,0)" xlink:href="#aN"/><use transform="matrix(0.008680555555555556,0,0,0.008680555555555556,48.94965277777778,0)" xlink:href="#aO"/><use transform="matrix(0.008680555555555556,0,0,0.008680555555555556,53.767361111111114,0)" xlink:href="#aH"/><use transform="matrix(0.008680555555555556,0,0,0.008680555555555556,64.83506944444444,0)" xlink:href="#aP"/></g><path fill="#333" d="M440-1490V0H135v-1490h305" id="aQ"/><path fill="#333" d="M750-1118v229H516V0H217v-889H20v-229h197v-86c0-238 156-356 363-356 94 0 178 20 215 31l-54 226c-25-7-61-15-100-15-123-3-131 84-125 200h234" id="aR"/><g id="w"><use transform="matrix(0.008680555555555556,0,0,0.008680555555555556,0,0)" xlink:href="#aQ"/><use transform="matrix(0.008680555555555556,0,0,0.008680555555555556,4.991319444444445,0)" xlink:href="#aH"/><use transform="matrix(0.008680555555555556,0,0,0.008680555555555556,16.05902777777778,0)" xlink:href="#aR"/><use transform="matrix(0.008680555555555556,0,0,0.008680555555555556,22.75173611111111,0)" xlink:href="#aF"/></g><path fill="#333" d="M681 22C323 22 94-145 85-462h297c10 151 131 226 296 226 163 0 271-77 271-190 0-102-95-149-257-189l-164-41c-252-61-403-188-403-405 0-269 236-449 560-449 330 0 546 183 551 445H941c-11-119-106-188-259-188-156 0-244 72-244 172-3 156 226 185 373 221 250 61 445 186 445 436 0 271-213 446-575 446" id="aS"/><path fill="#333" d="M572 22C302 22 117-98 78-306l279-48c29 105 101 156 224 156 114 0 185-48 185-115 0-118-228-130-337-155-215-49-322-150-322-317 0-215 187-347 470-347 265 0 424 116 466 298l-266 47c-24-76-87-130-196-130-98 0-174 46-174 113 0 56 38 95 144 117l201 40c216 44 320 143 320 302 0 220-207 367-500 367" id="aT"/><g id="x"><use transform="matrix(0.008680555555555556,0,0,0.008680555555555556,0,0)" xlink:href="#aS"/><use transform="matrix(0.008680555555555556,0,0,0.008680555555555556,11.640625,0)" xlink:href="#aI"/><use transform="matrix(0.008680555555555556,0,0,0.008680555555555556,18.23784722222222,0)" xlink:href="#aK"/><use transform="matrix(0.008680555555555556,0,0,0.008680555555555556,28.55902777777778,0)" xlink:href="#aI"/><use transform="matrix(0.008680555555555556,0,0,0.008680555555555556,35.06944444444444,0)" xlink:href="#aG"/><use transform="matrix(0.008680555555555556,0,0,0.008680555555555556,46.13715277777778,0)" xlink:href="#aT"/></g><path fill="#333" d="M750 21c-371 0-615-218-615-544v-967h305v942c0 174 123 299 310 299s309-125 309-299v-942h306v967c0 326-247 544-615 544" id="aU"/><path fill="#333" d="M128 418v-1536h295v188h14c41-89 129-202 319-202 248 0 453 193 453 575 0 372-197 576-455 576-183 0-275-108-317-198h-9v597H128zm534-640c156 0 240-139 240-336 0-196-83-334-240-334-154 0-241 131-241 334 0 202 88 336 241 336" id="aV"/><path fill="#333" d="M537 19C279 19 81-185 81-557c0-382 206-575 454-575 190 0 278 113 318 202h10v-560h300V0H868v-179h-15C812-89 719 19 537 19zm92-241c153 0 240-134 240-336 0-203-86-334-240-334-158 0-240 138-240 334 0 197 84 336 240 336" id="aW"/><path fill="#333" d="M633 22C291 22 81-200 81-553c0-345 210-579 537-579 292 0 525 185 525 567v84H378c7 183 109 277 260 277 105 0 184-46 216-132l272 51C1071-99 893 22 633 22zM380-669h474c-15-146-94-237-233-237-143 0-229 99-241 237" id="aX"/><g id="y"><use transform="matrix(0.008680555555555556,0,0,0.008680555555555556,0,0)" xlink:href="#aU"/><use transform="matrix(0.008680555555555556,0,0,0.008680555555555556,13.012152777777779,0)" xlink:href="#aV"/><use transform="matrix(0.008680555555555556,0,0,0.008680555555555556,24.21875,0)" xlink:href="#aW"/><use transform="matrix(0.008680555555555556,0,0,0.008680555555555556,35.42534722222222,0)" xlink:href="#aK"/><use transform="matrix(0.008680555555555556,0,0,0.008680555555555556,45.74652777777778,0)" xlink:href="#aI"/><use transform="matrix(0.008680555555555556,0,0,0.008680555555555556,52.08333333333333,0)" xlink:href="#aX"/><use transform="matrix(0.008680555555555556,0,0,0.008680555555555556,62.67361111111111,0)" xlink:href="#aT"/></g><path fill="#333" d="M428-647V0H128v-1490h294v586c65-146 175-228 341-228 232 0 385 159 385 421V0H847v-659c0-139-76-222-202-222-128 0-217 86-217 234" id="aY"/><path fill="#333" d="M128 0v-1118h278l12 217c60-163 185-234 319-234 143 0 236 81 288 251 63-172 205-251 359-251 205 0 357 138 357 381V0h-301v-697c0-126-76-187-177-187-114 0-184 79-184 196V0H789v-705c0-109-72-179-174-179-106 0-187 74-187 208V0H128" id="aZ"/><g id="z"><use transform="matrix(0.008680555555555556,0,0,0.008680555555555556,0,0)" xlink:href="#aS"/><use transform="matrix(0.008680555555555556,0,0,0.008680555555555556,11.640625,0)" xlink:href="#aY"/><use transform="matrix(0.008680555555555556,0,0,0.008680555555555556,22.708333333333336,0)" xlink:href="#aO"/><use transform="matrix(0.008680555555555556,0,0,0.008680555555555556,27.52604166666667,0)" xlink:href="#aV"/><use transform="matrix(0.008680555555555556,0,0,0.008680555555555556,38.73263888888889,0)" xlink:href="#aZ"/><use transform="matrix(0.008680555555555556,0,0,0.008680555555555556,54.95659722222222,0)" xlink:href="#aX"/><use transform="matrix(0.008680555555555556,0,0,0.008680555555555556,65.546875,0)" xlink:href="#aH"/><use transform="matrix(0.008680555555555556,0,0,0.008680555555555556,76.61458333333331,0)" xlink:href="#aI"/></g><path fill="#333" d="M428-1490V0H128v-1490h300" id="ba"/><g id="A"><use transform="matrix(0.008680555555555556,0,0,0.008680555555555556,0,0)" xlink:href="#aJ"/><use transform="matrix(0.008680555555555556,0,0,0.008680555555555556,12.838541666666668,0)" xlink:href="#aX"/><use transform="matrix(0.008680555555555556,0,0,0.008680555555555556,23.428819444444446,0)" xlink:href="#aI"/><use transform="matrix(0.008680555555555556,0,0,0.008680555555555556,30.02604166666667,0)" xlink:href="#aK"/><use transform="matrix(0.008680555555555556,0,0,0.008680555555555556,40.34722222222223,0)" xlink:href="#aO"/><use transform="matrix(0.008680555555555556,0,0,0.008680555555555556,45.164930555555564,0)" xlink:href="#ba"/><use transform="matrix(0.008680555555555556,0,0,0.008680555555555556,49.9826388888889,0)" xlink:href="#aT"/></g><g id="B"><use transform="matrix(0.008680555555555556,0,0,0.008680555555555556,0,0)" xlink:href="#aD"/><use transform="matrix(0.008680555555555556,0,0,0.008680555555555556,12.864583333333334,0)" xlink:href="#aW"/><use transform="matrix(0.008680555555555556,0,0,0.008680555555555556,24.071180555555557,0)" xlink:href="#aZ"/><use transform="matrix(0.008680555555555556,0,0,0.008680555555555556,40.29513888888889,0)" xlink:href="#aO"/><use transform="matrix(0.008680555555555556,0,0,0.008680555555555556,45.112847222222236,0)" xlink:href="#aH"/></g><path fill="#333" d="M786 20C389 20 94-260 94-744c0-487 299-766 692-766 339 0 597 194 641 529h-309c-28-162-156-258-326-258-233 0-388 179-388 495 0 323 157 493 387 493 170 0 298-97 328-259h309c-34 277-266 530-642 530" id="bb"/><g id="C"><use transform="matrix(0.008680555555555556,0,0,0.008680555555555556,0,0)" xlink:href="#bb"/><use transform="matrix(0.008680555555555556,0,0,0.008680555555555556,13.151041666666668,0)" xlink:href="#aF"/><use transform="matrix(0.008680555555555556,0,0,0.008680555555555556,24.053819444444446,0)" xlink:href="#aH"/><use transform="matrix(0.008680555555555556,0,0,0.008680555555555556,35.12152777777778,0)" xlink:href="#aI"/><use transform="matrix(0.008680555555555556,0,0,0.008680555555555556,41.63194444444444,0)" xlink:href="#aM"/><use transform="matrix(0.008680555555555556,0,0,0.008680555555555556,48.4375,0)" xlink:href="#aF"/><use transform="matrix(0.008680555555555556,0,0,0.008680555555555556,59.34027777777778,0)" xlink:href="#ba"/><use transform="matrix(0.008680555555555556,0,0,0.008680555555555556,64.15798611111111,0)" xlink:href="#aT"/></g><path fill="#333" d="M135 0v-1490h581c339 0 533 192 533 485 0 204-94 351-264 424L1302 0H964L680-532H440V0H135zm305-779h220c186 0 274-77 274-226 0-150-88-233-275-233H440v459" id="bc"/><g id="D"><use transform="matrix(0.008680555555555556,0,0,0.008680555555555556,0,0)" xlink:href="#bc"/><use transform="matrix(0.008680555555555556,0,0,0.008680555555555556,11.458333333333334,0)" xlink:href="#aX"/><use transform="matrix(0.008680555555555556,0,0,0.008680555555555556,22.048611111111114,0)" xlink:href="#aV"/><use transform="matrix(0.008680555555555556,0,0,0.008680555555555556,33.255208333333336,0)" xlink:href="#aF"/><use transform="matrix(0.008680555555555556,0,0,0.008680555555555556,44.157986111111114,0)" xlink:href="#aM"/><use transform="matrix(0.008680555555555556,0,0,0.008680555555555556,51.74479166666667,0)" xlink:href="#aI"/><use transform="matrix(0.008680555555555556,0,0,0.008680555555555556,58.125,0)" xlink:href="#aT"/></g><path fill="#333" d="M443 0L31-1118h319c90 293 199 572 268 885 66-313 175-593 264-885h315L784 0H443" id="bd"/><path fill="#333" d="M120 396l69-226c123 42 245 23 254-107l8-60L31-1118h319c87 288 199 559 259 872 72-308 185-583 277-872h315L726 132c-68 181-186 294-410 294-79 0-153-13-196-30" id="be"/><g id="E"><use transform="matrix(0.008680555555555556,0,0,0.008680555555555556,0,0)" xlink:href="#aJ"/><use transform="matrix(0.008680555555555556,0,0,0.008680555555555556,12.838541666666668,0)" xlink:href="#aX"/><use transform="matrix(0.008680555555555556,0,0,0.008680555555555556,23.428819444444446,0)" xlink:href="#ba"/><use transform="matrix(0.008680555555555556,0,0,0.008680555555555556,28.24652777777778,0)" xlink:href="#aO"/><use transform="matrix(0.008680555555555556,0,0,0.008680555555555556,33.064236111111114,0)" xlink:href="#bd"/><use transform="matrix(0.008680555555555556,0,0,0.008680555555555556,43.40277777777778,0)" xlink:href="#aX"/><use transform="matrix(0.008680555555555556,0,0,0.008680555555555556,53.99305555555556,0)" xlink:href="#aM"/><use transform="matrix(0.008680555555555556,0,0,0.008680555555555556,61.51041666666667,0)" xlink:href="#be"/></g><g id="F"><use transform="matrix(0.008680555555555556,0,0,0.008680555555555556,0,0)" xlink:href="#aD"/><use transform="matrix(0.008680555555555556,0,0,0.008680555555555556,13.072916666666666,0)" xlink:href="#aT"/><use transform="matrix(0.008680555555555556,0,0,0.008680555555555556,23.02951388888889,0)" xlink:href="#aT"/><use transform="matrix(0.008680555555555556,0,0,0.008680555555555556,32.986111111111114,0)" xlink:href="#aO"/><use transform="matrix(0.008680555555555556,0,0,0.008680555555555556,37.80381944444444,0)" xlink:href="#aP"/><use transform="matrix(0.008680555555555556,0,0,0.008680555555555556,49.03645833333334,0)" xlink:href="#aH"/><use transform="matrix(0.008680555555555556,0,0,0.008680555555555556,60.10416666666668,0)" xlink:href="#aZ"/><use transform="matrix(0.008680555555555556,0,0,0.008680555555555556,76.32812500000001,0)" xlink:href="#aX"/><use transform="matrix(0.008680555555555556,0,0,0.008680555555555556,86.9184027777778,0)" xlink:href="#aH"/><use transform="matrix(0.008680555555555556,0,0,0.008680555555555556,97.98611111111113,0)" xlink:href="#aI"/></g></defs></g></svg>