<svg xmlns="http://www.w3.org/2000/svg" xmlns:xlink="http://www.w3.org/1999/xlink" xmlns:lucid="lucid" width="2524" height="4012.25"><g transform="translate(1262 2770.25474609375)" lucid:page-tab-id="0_0"><path d="M-1080-2554a6 6 0 0 1 6-6h293.05a6 6 0 0 1 6 6V785.86a6 6 0 0 1-6 6H-1074a6 6 0 0 1-6-6z" stroke="#fc9432" stroke-width="4" fill-opacity="0"/><path d="M-1080-2622.5a6 6 0 0 1 6-6h293.8a6 6 0 0 1 6 6v44.5a6 6 0 0 1-6 6H-1074a6 6 0 0 1-6-6z" stroke="#fc9432" stroke-width="4" fill="#fc9432"/><use xlink:href="#a" transform="matrix(1,0,0,1,-1072.0000000000005,-2620.5094921875) translate(0 16.46212890625)"/><use xlink:href="#b" transform="matrix(1,0,0,1,-1072.0000000000005,-2620.5094921875) translate(70.875263671875 16.46212890625)"/><use xlink:href="#c" transform="matrix(1,0,0,1,-1072.0000000000005,-2620.5094921875) translate(90.58236328125 16.46212890625)"/><use xlink:href="#d" transform="matrix(1,0,0,1,-1072.0000000000005,-2620.5094921875) translate(122.615595703125 16.46212890625)"/><use xlink:href="#e" transform="matrix(1,0,0,1,-1072.0000000000005,-2620.5094921875) translate(186.167109375 16.46212890625)"/><use xlink:href="#f" transform="matrix(1,0,0,1,-1072.0000000000005,-2620.5094921875) translate(0 36.716875)"/><use xlink:href="#g" transform="matrix(1,0,0,1,-1072.0000000000005,-2620.5094921875) translate(63.428906250000004 36.716875)"/><use xlink:href="#h" transform="matrix(1,0,0,1,-1072.0000000000005,-2620.5094921875) translate(99.18940429687501 36.716875)"/><use xlink:href="#i" transform="matrix(1,0,0,1,-1072.0000000000005,-2620.5094921875) translate(144.12093750000003 36.716875)"/><path d="M-360-2554a6 6 0 0 1 6-6h1488a6 6 0 0 1 6 6v3612.4a6 6 0 0 1-6 6H-354a6 6 0 0 1-6-6z" stroke="#00c2a8" stroke-width="4" fill-opacity="0"/><path d="M-360-2602.26a6 6 0 0 1 6-6h234.6a6 6 0 0 1 6 6v24.26a6 6 0 0 1-6 6H-354a6 6 0 0 1-6-6z" stroke="#00c2a8" stroke-width="4" fill="#00c2a8"/><use xlink:href="#j" transform="matrix(1,0,0,1,-352,-2600.25474609375) translate(0 16.589501953125)"/><use xlink:href="#k" transform="matrix(1,0,0,1,-352,-2600.25474609375) translate(63.55151367187501 16.589501953125)"/><use xlink:href="#l" transform="matrix(1,0,0,1,-352,-2600.25474609375) translate(171.887431640625 16.589501953125)"/><path d="M-1260-2714a6 6 0 0 1 6-6h2508a6 6 0 0 1 6 6v3948a6 6 0 0 1-6 6h-2508a6 6 0 0 1-6-6z" stroke="#000" stroke-width="4" fill-opacity="0"/><path d="M-1260-2762.26a6 6 0 0 1 6-6h390.37a6 6 0 0 1 6 6v24.26a6 6 0 0 1-6 6H-1254a6 6 0 0 1-6-6z" stroke="#000" stroke-width="4"/><use xlink:href="#m" transform="matrix(1,0,0,1,-1252,-2760.25474609375) translate(0 16.589501953125)"/><use xlink:href="#n" transform="matrix(1,0,0,1,-1252,-2760.25474609375) translate(32.033232421875006 16.589501953125)"/><use xlink:href="#o" transform="matrix(1,0,0,1,-1252,-2760.25474609375) translate(67.79373046875001 16.589501953125)"/><use xlink:href="#p" transform="matrix(1,0,0,1,-1252,-2760.25474609375) translate(121.56117187500001 16.589501953125)"/><use xlink:href="#q" transform="matrix(1,0,0,1,-1252,-2760.25474609375) translate(192.43643554687503 16.589501953125)"/><use xlink:href="#r" transform="matrix(1,0,0,1,-1252,-2760.25474609375) translate(219.18937500000004 16.589501953125)"/><use xlink:href="#s" transform="matrix(1,0,0,1,-1252,-2760.25474609375) translate(282.74088867187504 16.589501953125)"/><path d="M592.08-908.13c16.6 0 30.07 13.47 30.07 30.08 0 16.6-13.46 30.08-30.07 30.08h-60.16c-16.6 0-30.07-13.47-30.07-30.08 0-16.6 13.46-30.08 30.07-30.08z" stroke="#ff80df" stroke-width="2" fill="#fff0fb"/><use xlink:href="#t" transform="matrix(1,0,0,1,513.8447328476573,-896.1258401305263) translate(19.485243055555557 26.44184027777778)"/><path d="M-83.3-1223.5c23.78 0 43.05 19.27 43.05 43.04 0 23.78-19.27 43.05-43.05 43.05h-86.1c-23.77 0-43.04-19.28-43.04-43.06 0-23.77 19.27-43.04 43.05-43.04z" stroke="#ff80df" stroke-width="2" fill="#fff0fb"/><use xlink:href="#u" transform="matrix(1,0,0,1,-200.4402826585646,-1211.5035293179644) translate(24.34809027777778 23.49652777777778)"/><use xlink:href="#v" transform="matrix(1,0,0,1,-200.4402826585646,-1211.5035293179644) translate(116.64409722222223 23.49652777777778)"/><use xlink:href="#w" transform="matrix(1,0,0,1,-200.4402826585646,-1211.5035293179644) translate(32.609600694444445 55.76215277777778)"/><use xlink:href="#x" transform="matrix(1,0,0,1,-200.4402826585646,-1211.5035293179644) translate(85.25717013888888 55.76215277777778)"/><path d="M-83.63-1863.03c23.58 0 42.7 19.12 42.7 42.7 0 23.6-19.12 42.72-42.7 42.72h-85.43c-23.6 0-42.7-19.13-42.7-42.72 0-23.6 19.1-42.7 42.7-42.7z" stroke="#ff80df" stroke-width="2" fill="#fff0fb"/><use xlink:href="#y" transform="matrix(1,0,0,1,-199.76779190411827,-1851.028086945714) translate(46.80729166666667 22.98090277777778)"/><use xlink:href="#z" transform="matrix(1,0,0,1,-199.76779190411827,-1851.028086945714) translate(23.89605034722223 55.24652777777778)"/><path d="M-71.97-1554.4c30.03 0 54.37 24.35 54.37 54.38s-24.34 54.38-54.37 54.38h-108.75c-30.03 0-54.37-24.35-54.37-54.38s24.35-54.37 54.38-54.37z" stroke="#ff80df" stroke-width="2" fill="#fff0fb"/><use xlink:href="#A" transform="matrix(1,0,0,1,-223.09190193209315,-1542.3899796011626) translate(4.058376736111114 50.74652777777778)"/><use xlink:href="#B" transform="matrix(1,0,0,1,-223.09190193209315,-1542.3899796011626) translate(49.14301215277778 50.74652777777778)"/><use xlink:href="#C" transform="matrix(1,0,0,1,-223.09190193209315,-1542.3899796011626) translate(147.52625868055554 50.74652777777778)"/><path d="M-85.95-918.45c22.3 0 40.4 18.1 40.4 40.4 0 22.3-18.1 40.4-40.4 40.4h-80.8c-22.3 0-40.4-18.1-40.4-40.4 0-22.3 18.1-40.4 40.4-40.4z" stroke="#ff80df" stroke-width="2" fill="#fff0fb"/><use xlink:href="#D" transform="matrix(1,0,0,1,-195.13802979632044,-906.4451294386263) translate(3.6137152777777715 36.66840277777778)"/><use xlink:href="#E" transform="matrix(1,0,0,1,-195.13802979632044,-906.4451294386263) translate(68.6853298611111 36.66840277777778)"/><path d="M-83.63-2468.17c23.58 0 42.7 19.12 42.7 42.7 0 23.6-19.12 42.72-42.7 42.72h-85.43c-23.6 0-42.7-19.12-42.7-42.7 0-23.6 19.1-42.72 42.7-42.72z" stroke="#ff80df" stroke-width="2" fill="#fff0fb"/><use xlink:href="#F" transform="matrix(1,0,0,1,-199.76779190411827,-2456.169494267387) translate(36.62934027777778 22.98090277777778)"/><use xlink:href="#z" transform="matrix(1,0,0,1,-199.76779190411827,-2456.169494267387) translate(23.89605034722223 55.24652777777778)"/><path d="M-85.95-2163.86c22.3 0 40.4 18.1 40.4 40.4 0 22.3-18.1 40.4-40.4 40.4h-80.8c-22.3 0-40.4-18.1-40.4-40.4 0-22.3 18.1-40.4 40.4-40.4z" stroke="#ff80df" stroke-width="2" fill="#fff0fb"/><use xlink:href="#G" transform="matrix(1,0,0,1,-195.13802979632044,-2151.8600010521363) translate(30.881510416666664 21.97309027777778)"/><use xlink:href="#H" transform="matrix(1,0,0,1,-195.13802979632044,-2151.8600010521363) translate(35.37782986111111 54.23871527777778)"/><path d="M-85.95 303.87c22.3 0 40.4 18.08 40.4 40.4 0 22.3-18.1 40.4-40.4 40.4h-80.8c-22.3 0-40.4-18.1-40.4-40.4 0-22.32 18.1-40.4 40.4-40.4z" stroke="#ff80df" stroke-width="2" fill="#fff0fb"/><use xlink:href="#I" transform="matrix(1,0,0,1,-195.13802979632044,315.8658407474167) translate(26.62803819444445 21.97309027777778)"/><use xlink:href="#J" transform="matrix(1,0,0,1,-195.13802979632044,315.8658407474167) translate(43.65690972222223 54.23871527777778)"/><path d="M-85.95 603.02c22.3 0 40.4 18.1 40.4 40.4 0 22.3-18.1 40.4-40.4 40.4h-80.8c-22.3 0-40.4-18.1-40.4-40.4 0-22.3 18.1-40.4 40.4-40.4z" stroke="#ff80df" stroke-width="2" fill="#fff0fb"/><use xlink:href="#G" transform="matrix(1,0,0,1,-195.13802979632044,615.0194865807507) translate(30.881510416666664 21.97309027777778)"/><use xlink:href="#K" transform="matrix(1,0,0,1,-195.13802979632044,615.0194865807507) translate(39.30035590277778 54.23871527777778)"/><path d="M283.87-8.3c25.54 0 46.24 20.7 46.24 46.23 0 25.54-20.7 46.25-46.23 46.25h-92.5c-25.53 0-46.23-20.7-46.23-46.25 0-25.54 20.7-46.24 46.24-46.24z" stroke="#ff80df" stroke-width="2" fill="#fff0fb"/><use xlink:href="#L" transform="matrix(1,0,0,1,157.13691003982328,3.689120100501597) translate(54.77300347222222 26.37934027777778)"/><use xlink:href="#M" transform="matrix(1,0,0,1,157.13691003982328,3.689120100501597) translate(25.13975694444445 58.64496527777778)"/><path d="M-187.03 899a6 6 0 0 1 6-6h109.36a6 6 0 0 1 6 6v79.4a6 6 0 0 1-6 6h-109.36a6 6 0 0 1-6-6z" stroke="#ff80df" stroke-width="2" fill="#fff0fb"/><use xlink:href="#N" transform="matrix(1,0,0,1,-175.02473958333422,904.9925813400195) translate(8.320746527777779 41.98090277777778)"/><path d="M278.02-309.43c22.3 0 40.4 18.1 40.4 40.4 0 22.3-18.1 40.4-40.4 40.4h-80.8c-22.3 0-40.4-18.1-40.4-40.4 0-22.3 18.1-40.4 40.4-40.4z" stroke="#ff80df" stroke-width="2" fill="#fff0fb"/><use xlink:href="#G" transform="matrix(1,0,0,1,168.83115423145819,-297.42649437561255) translate(30.881510416666664 21.97309027777778)"/><use xlink:href="#O" transform="matrix(1,0,0,1,168.83115423145819,-297.42649437561255) translate(25.519973958333324 54.23871527777778)"/><path d="M-85.39-3.03c22.64 0 40.98 18.34 40.98 40.96S-62.77 78.9-85.4 78.9h-81.9c-22.63 0-40.97-18.35-40.97-40.97 0-22.62 18.34-40.96 40.96-40.96z" stroke="#6db1ff" stroke-width="2" fill="#edf5ff"/><use xlink:href="#P" transform="matrix(1,0,0,1,-203.2662465842708,1.9721338023438832) translate(53.388888888888886 44.02777777777778)"/><path d="M-85.35-310.03c22.64 0 41 18.36 41 41s-18.36 41-41 41h-82c-22.63 0-41-18.36-41-41s18.37-41 41-41z" stroke="#6db1ff" stroke-width="2" fill="#edf5ff"/><use xlink:href="#Q" transform="matrix(1,0,0,1,-203.33800897907884,-305.02648396699175) translate(52.368923611111114 44.02777777777778)"/><path d="M155.25-1729.5l1.22.28 1.15.48 1.07.66.94.8.82.96.65 1.07.5 1.16.28 1.23.1 1.17v768.62l.05.7.15.62.24.6.33.52.4.48.5.4.53.34.58.24.6.15.72.06h348.8l1.17.1 1.22.28 1.16.5 1.07.64.95.82.8.95.67 1.08.48 1.15.3 1.22.08 1.17v11.34h-3.95v-11.18l-.05-.7-.15-.62-.24-.58-.34-.54-.4-.48-.5-.4-.53-.34-.58-.24-.62-.15-.7-.05h-348.8l-1.18-.1-1.22-.3-1.15-.47-1.07-.64-.94-.82-.82-.95-.65-1.08-.5-1.15-.28-1.22-.1-1.17v-768.63l-.05-.7-.15-.62-.24-.58-.33-.54-.4-.47-.5-.4-.53-.34-.58-.25-.6-.14-.72-.05h-1083.4l-.7.06-.62.15-.6.24-.52.32-.48.4-.4.5-.34.53-.24.58-.15.62-.06.7V-1523h-3.94v-198.7l.1-1.17.3-1.22.47-1.15.65-1.07.8-.95.97-.8 1.07-.67 1.15-.48 1.22-.3 1.16-.08H154.08z" stroke="#3a414a" stroke-width=".05" fill="#3a414a"/><path d="M-933.6-1520.75l-1.96-.26-1.98.25v-2.3h3.95z" fill="#3a414a"/><path stroke="#3a414a" stroke-width=".05" fill="#3a414a"/><path d="M520.8-913.47l-4.63-14.27h9.27z" fill="#3a414a"/><path d="M520.8-907.08l-7.35-22.63h14.7zm-1.9-18.68l1.9 5.9 1.92-5.9z" stroke="#3a414a" stroke-width=".05" fill="#3a414a"/><path d="M-895.36-1465.44v278.98a6 6 0 0 0 6 6h653.18M-895.36-1465.4v-2.04" stroke="#3a414a" stroke-width="4" fill="none"/><path d="M-219.9-1180.46l-14.28 4.64v-9.27z" stroke="#3a414a" stroke-width="4" fill="#3a414a"/><path d="M-928.7-1467.44H-526a6 6 0 0 0 6-6v-248.2c-3.3 0-6-2.67-6-6 0-3.3 2.7-6 6-6v-80.68a6 6 0 0 1 6-6h278.5M-928.64-1467.44h-5.06" stroke="#3a414a" stroke-width="4" fill="none"/><path d="M-219.24-1820.32l-14.27 4.64v-9.27z" stroke="#3a414a" stroke-width="4" fill="#3a414a"/><path d="M-935.56-1412.88v32a6 6 0 0 0 6 6h28.2c0-3.3 2.68-6 6-6 3.3 0 6 2.7 6 6h607.27a6 6 0 0 0 6-6v-113.14a6 6 0 0 1 6-6h11.27" stroke="#3a414a" stroke-width="4" fill="none"/><path d="M-933.6-1412.83h-3.94v-5.05h3.95z" stroke="#3a414a" stroke-width=".05" fill="#3a414a"/><path d="M-242.56-1500.02l-14.27 4.64v-9.27z" stroke="#3a414a" stroke-width="4" fill="#3a414a"/><path d="M-935.56-1412.88v528.83a6 6 0 0 0 6 6h698.68" stroke="#3a414a" stroke-width="4" fill="none"/><path d="M-933.6-1412.83h-3.94v-5.05h3.95z" stroke="#3a414a" stroke-width=".05" fill="#3a414a"/><path d="M-214.6-878.05l-14.28 4.64v-9.28z" stroke="#3a414a" stroke-width="4" fill="#3a414a"/><path d="M985.25-2511.88l1.22.3 1.15.47 1.07.64.94.82.82.95.65 1.08.5 1.15.28 1.22.1 1.17v1636.4l-.1 1.16-.3 1.22-.47 1.16-.64 1.07-.82.95-.95.8-1.08.67-1.15.48-1.22.3-1.17.08h-315l-1.18-.08-1.2-.3-1.17-.47-1.07-.66-.95-.82-.8-.95-.66-1.07-.48-1.16-.3-1.22-.08-1.17v-4.27l-.06-.7-.14-.62-.25-.57-.33-.54-.4-.5-.48-.4-.54-.33-.6-.24-.6-.15-.7-.05h-11.2v-3.95h11.35l1.17.1 1.22.28 1.16.48 1.07.65.95.8.8.96.66 1.07.48 1.15.3 1.22.1 1.17v4.3l.04.7.15.6.24.6.33.53.4.48.5.4.53.34.58.24.63.15.7.06h314.7l.7-.05.6-.14.6-.24.53-.33.48-.42.4-.48.34-.54.24-.58.15-.62.05-.7v-1636.08l-.05-.7-.15-.62-.24-.6-.33-.52-.4-.48-.5-.4-.52-.34-.6-.24-.6-.15-.7-.06H-871.83l-.7.06-.62.15-.58.24-.54.33-.48.4-.4.5-.34.53-.24.58-.15.6-.05.72v92.76h-3.95v-92.92l.1-1.17.28-1.22.5-1.15.64-1.07.82-.94.95-.82 1.08-.65 1.15-.5 1.22-.28 1.17-.1H984.08z" stroke="#3a414a" stroke-width=".05" fill="#3a414a"/><path d="M-875.92-2409.16h-3.95v-2.05h3.95z" stroke="#3a414a" stroke-width=".05" fill="#3a414a"/><path d="M643.9-873.4l-14.27-4.65 14.26-4.63z" fill="#3a414a"/><path d="M645.87-870.7l-22.64-7.35 22.64-7.35zm-9.85-7.35l5.9 1.92v-3.84z" stroke="#3a414a" stroke-width=".05" fill="#3a414a"/><path d="M-922.76-2352.88v32a6 6 0 0 0 6 6h658a6 6 0 0 0 6-6v-98.58a6 6 0 0 1 6-6h11.25" stroke="#3a414a" stroke-width="4" fill="none"/><path d="M-920.8-2352.83h-3.94v-5.05h3.95z" stroke="#3a414a" stroke-width=".05" fill="#3a414a"/><path d="M-219.24-2425.46l-14.27 4.64v-9.27z" stroke="#3a414a" stroke-width="4" fill="#3a414a"/><path d="M-922.76-2352.88v223.42a6 6 0 0 0 6 6h685.88" stroke="#3a414a" stroke-width="4" fill="none"/><path d="M-920.8-2352.83h-3.94v-5.05h3.95z" stroke="#3a414a" stroke-width=".05" fill="#3a414a"/><path d="M-214.6-2123.46l-14.28 4.63v-9.27z" stroke="#3a414a" stroke-width="4" fill="#3a414a"/><path d="M529.05-665.92l-.1 1.17-.28 1.22-.48 1.15-.67 1.07-.8.94-.96.82-1.07.65-1.16.5-1.2.28-1.2.1H-1033.9l-.7.05-.62.15-.6.24-.52.33-.48.4-.4.5-.34.52-.24.6-.15.6-.06.7V572.92l.06.72.15.6.24.6.33.53.4.48.5.4.52.34.6.24.6.16.7.06h108.66l1.17.1 1.22.28 1.16.48 1.07.65.95.82.8.95.67 1.07.48 1.15.3 1.22.08 1.17V617h-3.95v-31.93l-.05-.7-.15-.62-.24-.58-.33-.54-.4-.48-.48-.4-.54-.34-.58-.23-.62-.15-.7-.05h-108.66l-1.17-.1-1.22-.3-1.15-.47-1.07-.65-.94-.82-.82-.95-.65-1.06-.5-1.16-.28-1.22-.1-1.17V-654.08l.1-1.17.3-1.22.47-1.15.64-1.07.82-.94.95-.82 1.08-.65 1.15-.5 1.22-.28 1.17-.1H521l.7-.05.62-.15.58-.24.54-.33.48-.4.4-.5.34-.52.24-.6.15-.6.05-.7v-158.56h3.95z" stroke="#3a414a" stroke-width=".05" fill="#3a414a"/><path d="M-917.37 619.25l-1.97-.26-1.98.25v-2.3h3.95z" fill="#3a414a"/><path stroke="#3a414a" stroke-width=".05" fill="#3a414a"/><path d="M531.7-826.63h-9.26l4.64-14.27z" fill="#3a414a"/><path d="M534.43-824.66h-14.7l7.35-22.63zm-9.27-3.95H529l-1.92-5.9z" stroke="#3a414a" stroke-width=".05" fill="#3a414a"/><path d="M-912.48 672.56h345.17a6 6 0 0 0 6-6v-316.3a6 6 0 0 1 6-6h324.42M-912.43 672.56h-5.05" stroke="#3a414a" stroke-width="4" fill="none"/><path d="M-214.6 344.26l-14.28 4.64v-9.27z" stroke="#3a414a" stroke-width="4" fill="#3a414a"/><path d="M-919.34 727.12v32a6 6 0 0 0 6 6h659.2a6 6 0 0 0 6-6v-109.7a6 6 0 0 1 6-6h11.26" stroke="#3a414a" stroke-width="4" fill="none"/><path d="M-917.37 727.17h-3.95v-5.05h3.95z" stroke="#3a414a" stroke-width=".05" fill="#3a414a"/><path d="M-214.6 643.42l-14.28 4.63v-9.27z" stroke="#3a414a" stroke-width="4" fill="#3a414a"/><path d="M-919.34 727.12V932.7a6 6 0 0 0 6 6h701.58" stroke="#3a414a" stroke-width="4" fill="none"/><path d="M-917.37 727.17h-3.95v-5.05h3.95z" stroke="#3a414a" stroke-width=".05" fill="#3a414a"/><path d="M-195.5 938.7l-14.26 4.63v-9.28z" stroke="#3a414a" stroke-width="4" fill="#3a414a"/><path d="M478.7-881.9h-11.2l-.7.06-.6.15-.6.25-.53.33-.48.4-.42.5-.33.53-.24.6-.14.6-.05.7v111.88l-.08 1.17-.3 1.22-.47 1.15-.66 1.07-.82.94-.95.82-1.07.65-1.16.5-1.22.28-1.17.1h-976.33l-.7.05-.62.15-.6.24-.52.33-.48.4-.4.5-.34.52-.23.6-.15.6-.06.7v89.44l-3.98 1.1-1.4 1.4-.54 2 .54 2 1.4 1.4 3.98 1.1v422.14l-.1 1.17-.28 1.23-.48 1.15-.65 1.07-.82.95-.95.82-1.07.65-1.15.48-1.2.3-1.18.1-379.65-.02v-3.94h379.5l.7-.07.6-.15.6-.24.53-.33.48-.4.4-.48.34-.54.24-.58.16-.6.05-.72V-652.5l-2.06-.55-2.9-2.9-1.1-4.05 1.1-4.05 2.9-2.9 2.07-.56v-86.58l.1-1.17.3-1.22.48-1.15.65-1.07.82-.94.95-.82 1.07-.65 1.15-.5 1.22-.28 1.17-.1h976.36l.7-.05.62-.15.58-.24.54-.33.48-.4.4-.5.33-.52.26-.6.14-.6.06-.7v-111.88l.1-1.17.28-1.2.48-1.17.66-1.06.8-.95.96-.83 1.07-.65 1.17-.48 1.2-.3 1.2-.08h11.33z" stroke="#3a414a" stroke-width=".05" fill="#3a414a"/><path d="M-912.43-225.47h-5.05v-3.94h5.05z" stroke="#3a414a" stroke-width=".05" fill="#3a414a"/><path d="M494.96-883.87l-14.26 4.64v-9.27z" fill="#3a414a"/><path d="M501.35-883.87l-22.63 7.36v-14.72zm-18.68 1.92l5.9-1.92-5.9-1.9zM-917.37-56.08l.06.7.13.62.25.6.32.52.4.48.5.4.53.34.58.24.63.15.7.05H83.26l1.17.1 1.22.3 1.15.47 1.07.64.95.82.82.95.65 1.08.47 1.15.3 1.22.1 1.17v56.7l.04.7.16.6.24.6.33.54.4.47.5.4.53.34.58.25.6.14.72.06h30.25v3.95H95.1l-1.17-.1-1.22-.3-1.14-.47-1.07-.65-.96-.8-.82-.97-.65-1.06-.48-1.16-.3-1.22-.1-1.17v-56.7l-.05-.7-.15-.6-.24-.6-.33-.53-.4-.48-.5-.4-.53-.34-.58-.24-.6-.15-.72-.05h-996.52l-1.17-.1-1.2-.3-1.17-.47-1.06-.64-.96-.82-.8-.95-.66-1.08-.47-1.15-.3-1.22-.1-1.17v-101.62h3.96z" stroke="#3a414a" stroke-width=".05" fill="#3a414a"/><path d="M-917.37-157.5h-3.95v-2.04h3.95z" stroke="#3a414a" stroke-width=".05" fill="#3a414a"/><path d="M141.78 18.7l-14.27 4.63v-9.27z" fill="#3a414a"/><path d="M148.17 18.7l-22.63 7.35v-14.7zm-18.68 1.9l5.88-1.9-5.9-1.92zM-522.86-616.95l2.9 2.9.56 2.07h751.1l1.17.1 1.22.3 1.15.47 1.06.64.97.82.8.95.67 1.08.47 1.15.3 1.22.1 1.17v270.92h-3.95v-270.76l-.06-.7-.15-.62-.24-.6-.32-.52-.4-.48-.5-.4-.53-.34-.58-.24-.62-.15-.7-.05h-753.97l-1.08-3.98-1.4-1.4-2-.55-2.02.54-1.4 1.4-1.08 3.98h-337l-.7.05-.62.15-.58.24-.54.33-.48.4-.4.5-.34.52-.24.6-.15.6-.05.7v370.57l-.1 1.17-.3 1.23-.47 1.15-.65 1.07-.8.95-.97.82-1.05.65-1.16.48-1.23.3-1.17.1-32.08-.02v-3.94h31.93l.7-.07.62-.15.58-.24.53-.33.48-.4.4-.48.34-.54.25-.58.14-.6.05-.72v-370.56l.1-1.17.28-1.22.48-1.15.67-1.07.8-.94.96-.82 1.07-.65 1.16-.5 1.2-.28 1.2-.1h334.12l.56-2.07 2.9-2.9 4.05-1.1z" stroke="#3a414a" stroke-width=".05" fill="#3a414a"/><path d="M-912.43-225.47h-5.05v-3.94h5.05z" stroke="#3a414a" stroke-width=".05" fill="#3a414a"/><path d="M237.62-316.9L233-331.16h9.26z" fill="#3a414a"/><path d="M237.62-310.5l-7.35-22.64h14.7zm-1.9-18.7l1.9 5.9 1.92-5.9z" stroke="#3a414a" stroke-width=".05" fill="#3a414a"/><path d="M-919.34-159V6.85a6 6 0 0 0 6 6h658.07a6 6 0 0 1 6 6v13.08a6 6 0 0 0 6 6H-232M-919.34-158.94V-161" stroke="#3a414a" stroke-width="4" fill="none"/><path d="M-215.74 37.93L-230 42.57V33.3z" stroke="#3a414a" stroke-width="4" fill="#3a414a"/><path d="M-919.34-172.88v7.66a6 6 0 0 0 6 6h658a6 6 0 0 0 6-6v-97.8a6 6 0 0 1 6-6h11.26" stroke="#3a414a" stroke-width="4" fill="none"/><path d="M-917.37-172.83h-3.95v-5.05h3.95z" stroke="#3a414a" stroke-width=".05" fill="#3a414a"/><path d="M-215.8-269.03l-14.28 4.63v-9.27z" stroke="#3a414a" stroke-width="4" fill="#3a414a"/><path d="M821.98-955.05l-.1 1.17-.3 1.22-.47 1.16-.64 1.07-.82.95-.95.8-1.08.66-1.15.5-1.22.28-1.17.1h-246l-.7.04-.62.15-.6.24-.52.32-.48.4-.4.5-.34.53-.24.58-.15.62-.06.7v11.2h-3.95v-11.35l.1-1.17.3-1.22.47-1.15.64-1.07.82-.95.95-.8 1.08-.67 1.15-.48 1.22-.3 1.17-.08h246l.7-.06.62-.14.6-.25.52-.32.48-.4.4-.5.34-.53.24-.58.15-.62.05-.7v-699.73H822zm-6.73-867.15l1.22.3 1.15.47 1.07.66.94.8.82.96.65 1.06.5 1.16.28 1.2.1 1.18v137.96H818v-137.8l-.05-.7-.15-.62-.24-.58-.33-.54-.4-.48-.5-.4-.52-.34-.6-.24-.6-.15-.7-.04H-37.93v-3.95h852z" stroke="#3a414a" stroke-width=".05" fill="#3a414a"/><path d="M-37.87-1818.34h-2.17l.12-1.96-.05-2h2.1z" fill="#3a414a"/><path stroke="#3a414a" stroke-width=".05" fill="#3a414a"/><path d="M562-915.6l-4.64-14.26h9.27z" fill="#3a414a"/><path d="M562-909.2l-7.36-22.64h14.7zm-1.92-18.7L562-922l1.92-5.9z" stroke="#3a414a" stroke-width=".05" fill="#3a414a"/><use xlink:href="#R" transform="matrix(1,0,0,1,776.25,-1676.4373851582911) translate(0.005000000000002558 17.22222222222222)"/><path d="M741.98-955.05l-.1 1.17-.3 1.22-.47 1.16-.64 1.07-.82.95-.95.8-1.08.66-1.15.5-1.22.28-1.17.1H553.34l-.7.04-.62.15-.6.24-.52.32-.48.4-.4.5-.34.53-.24.58-.15.62-.07.7v11.2h-3.95v-11.35l.1-1.17.3-1.22.47-1.15.65-1.07.82-.95.95-.8 1.07-.67 1.15-.48 1.2-.3 1.18-.08h180.74l.7-.06.62-.14.6-.25.52-.32.48-.4.4-.5.34-.53.24-.58.15-.62.05-.7v-520.54H742zm-577.93-551.92l2.9 2.9.56 2.08H734.1l1.17.1 1.22.3 1.15.47 1.07.66.94.8.82.96.65 1.06.17.38h-4.9l-.54-.34-.6-.24-.6-.15-.7-.04H164.48l-1.1-3.98-1.4-1.4-2-.55-2 .54-1.4 1.4-1.1 4H-14.6v-3.96h167.1l.55-2.07 2.9-2.9 4.05-1.1z" stroke="#3a414a" stroke-width=".05" fill="#3a414a"/><path d="M-14.55-1498.04h-2.14l.1-1.96v-.46l-.08-1.53h2.13z" fill="#3a414a"/><path stroke="#3a414a" stroke-width=".05" fill="#3a414a"/><path d="M547.26-915.6l-4.64-14.26h9.27z" fill="#3a414a"/><path d="M547.26-909.2l-7.36-22.64h14.7zm-1.92-18.7l1.92 5.9 1.92-5.9z" stroke="#3a414a" stroke-width=".05" fill="#3a414a"/><use xlink:href="#R" transform="matrix(1,0,0,1,696.2499999999999,-1497.2554693303507) translate(0.005000000000002558 17.22222222222222)"/><path d="M482.8-896.3v3.95H272.4v-3.94zM-46.22-893v-3.96H184.9v3.95z" stroke="#3a414a" stroke-width=".05" fill="#3a414a"/><path d="M-46.18-893h-1.23l-1.37-3.3-.4-.66h3z" fill="#3a414a"/><path stroke="#3a414a" stroke-width=".05" fill="#3a414a"/><path d="M499.07-894.32l-14.26 4.64v-9.28z" fill="#3a414a"/><path d="M505.47-894.32l-22.64 7.35v-14.7zm-18.7 1.92l5.9-1.92-5.88-1.92z" stroke="#3a414a" stroke-width=".05" fill="#3a414a"/><use xlink:href="#R" transform="matrix(1,0,0,1,184.9083135628923,-905.4065423195879) translate(0.005000000000002558 17.22222222222222)"/><path d="M1081.97-955.05l-.1 1.17-.28 1.22-.5 1.16-.64 1.07-.82.95-.95.8-1.08.66-1.15.5-1.22.28-1.17.1h-79.6l-1.07-4-1.4-1.4-2-.54-2 .54-1.4 1.4-1.1 4H597.57l-.7.04-.62.15-.6.24-.52.32-.48.4-.4.5-.34.53-.24.58-.15.62-.05.7v11.2h-3.95v-11.35l.1-1.17.3-1.22.47-1.15.65-1.07.82-.95.95-.8 1.06-.67 1.15-.48 1.23-.3 1.17-.08h385.1l.55-2.08 2.9-2.9 4.05-1.1 4.05 1.1 2.9 2.9.56 2.08h76.42l.7-.06.62-.14.6-.25.52-.32.48-.4.4-.5.34-.53.24-.58.15-.62.06-.7v-1017.04h3.94zM994.05-2432.4l2.9 2.9.56 2.07h76.58l1.17.1 1.22.28 1.15.48 1.07.66.94.8.82.95.65 1.07.5 1.15.28 1.22.1 1.16v425.8h-3.95v-425.64l-.06-.7-.15-.62-.24-.58-.33-.54-.4-.48-.5-.4-.52-.34-.6-.24-.6-.15-.7-.05h-79.44l-1.1-3.98-1.4-1.4-2-.55-2 .53-1.4 1.4-1.1 4H-37.9v-3.96h1020.4l.57-2.08 2.9-2.9 4.05-1.1z" stroke="#3a414a" stroke-width=".05" fill="#3a414a"/><path d="M-37.87-2423.48h-2.17l.12-1.96-.05-2h2.1z" fill="#3a414a"/><path stroke="#3a414a" stroke-width=".05" fill="#3a414a"/><path d="M591.48-915.6l-4.64-14.26h9.27z" fill="#3a414a"/><path d="M591.48-909.2l-7.36-22.64h14.7zm-1.92-18.7l1.92 5.9 1.9-5.9z" stroke="#3a414a" stroke-width=".05" fill="#3a414a"/><use xlink:href="#R" transform="matrix(1,0,0,1,1036.25,-1993.7479394421202) translate(0.005000000000002558 17.22222222222222)"/><path d="M911.98-955.05l-.1 1.17-.3 1.22-.47 1.16-.64 1.07-.82.95-.95.8-1.08.66-1.15.5-1.22.28-1.17.1H582.82l-.7.04-.62.15-.6.24-.52.32-.48.4-.4.5-.34.53-.24.58-.15.62-.06.7v11.2h-3.94v-11.35l.1-1.17.3-1.22.47-1.15.65-1.07.82-.95.95-.8 1.07-.67 1.15-.48 1.22-.3 1.16-.08h321.26l.7-.06.62-.14.6-.25.52-.32.48-.4.4-.5.34-.53.24-.58.15-.62.05-.7v-860.98H912zm-6.73-1170.3l1.22.3 1.15.48 1.07.65.94.8.82.96.65 1.07.5 1.17.28 1.22.1 1.16v279.85H908v-279.7l-.05-.7-.15-.6-.24-.6-.33-.53-.4-.48-.5-.4-.52-.35-.6-.24-.6-.13-.7-.06H-42.56v-3.94h946.63z" stroke="#3a414a" stroke-width=".05" fill="#3a414a"/><path d="M-42.5-2121.5h-2.17l.12-1.95-.1-2h2.15z" fill="#3a414a"/><path stroke="#3a414a" stroke-width=".05" fill="#3a414a"/><path d="M576.74-915.6l-4.64-14.26h9.27z" fill="#3a414a"/><path d="M576.74-909.2l-7.36-22.64h14.7zm-1.92-18.7l1.92 5.9 1.9-5.9z" stroke="#3a414a" stroke-width=".05" fill="#3a414a"/><use xlink:href="#R" transform="matrix(1,0,0,1,866.25,-1837.6952839031692) translate(0.005000000000002558 17.22222222222222)"/><path d="M1031.97-5.92l-.1 1.17-.28 1.22-.5 1.15-.64 1.07-.82.94-.95.82-1.08.65-1.15.5-1.22.28-1.17.1H93.68L92.57-2l-1.4-1.4-2-.55-2 .54-1.4 1.4-1.1 3.98H2v-3.96h79.67l.56-2.07 2.9-2.9 4.05-1.1 4.05 1.1 2.9 2.9.56 2.07h927.22l.7-.05.62-.15.6-.24.52-.33.48-.4.4-.5.34-.52.24-.6.15-.6.06-.7v-123.85h3.94zm-37.92-898.55l2.9 2.9.56 2.08h26.58l1.17.1 1.22.3 1.15.47 1.07.65.94.82.82.95.65 1.06.5 1.15.28 1.23.1 1.17v740.17h-3.95v-740l-.06-.72-.15-.6-.24-.6-.33-.53-.4-.48-.5-.4-.52-.34-.6-.24-.6-.15-.7-.04h-29.44l-1.1-3.98-1.4-1.4-2-.55-2 .54-1.4 1.4-1.1 4H638.9v-3.97h343.6l.55-2.07 2.9-2.9 4.05-1.1z" stroke="#3a414a" stroke-width=".05" fill="#3a414a"/><path d="M2.05 1.98H0v-3.96h2.05z" stroke="#3a414a" stroke-width=".05" fill="#3a414a"/><path d="M636.9-892.9l-14.25-4.62 14.26-4.63z" fill="#3a414a"/><path d="M638.9-890.17l-22.64-7.35 22.63-7.35zm-9.86-7.35l5.9 1.92v-3.84z" stroke="#3a414a" stroke-width=".05" fill="#3a414a"/><use xlink:href="#R" transform="matrix(1,0,0,1,986.25,-151.4275296509994) translate(0.005000000000002558 17.22222222222222)"/><path d="M701.98 338.34l-.1 1.17-.3 1.23-.47 1.15-.64 1.07-.82.96-.95.82-1.08.65-1.15.48-1.22.3-1.17.1H-42.55v-3.96h736.47l.7-.07.62-.15.6-.24.52-.33.48-.4.4-.48.34-.53.24-.6.15-.6.05-.7V56.76H702zm-149.8-1151.4l.06.72.14.6.25.6.33.53.4.47.5.4.52.34.6.25.6.15.7.05h137.8l1.17.1 1.22.3 1.15.47 1.07.65.94.8.82.97.65 1.06.5 1.16.28 1.22.1 1.17V-4.5L698-3.4 696.6-2l-.55 2 .54 2 1.4 1.4 3.98 1.1v30.77H698V7.5l-2.07-.55-2.9-2.9-1.1-4.05 1.1-4.05 2.9-2.9 2.07-.56v-793.4l-.05-.7-.15-.6-.24-.6-.33-.53-.4-.48-.5-.42-.52-.33-.6-.24-.6-.14-.7-.06h-137.8l-1.17-.1-1.22-.28-1.16-.48-1.06-.65-.96-.83-.8-.95-.66-1.07-.48-1.16-.3-1.22-.1-1.17v-11.33h3.96z" stroke="#3a414a" stroke-width=".05" fill="#3a414a"/><path d="M-42.5 346.24h-2.17l.12-1.97-.1-1.98h2.15z" fill="#3a414a"/><path stroke="#3a414a" stroke-width=".05" fill="#3a414a"/><path d="M554.84-826.23h-9.27l4.64-14.27z" fill="#3a414a"/><path d="M557.56-824.26h-14.7l7.35-22.63zm-9.27-3.95h3.82l-1.9-5.9z" stroke="#3a414a" stroke-width=".05" fill="#3a414a"/><use xlink:href="#R" transform="matrix(1,0,0,1,656.25,35.26933580245161) translate(0.005000000000002558 17.22222222222222)"/><path d="M821.98 637.5l-.1 1.16-.3 1.22-.47 1.16-.64 1.07-.82.96-.95.8-1.08.67-1.15.48-1.22.3-1.17.1H-42.55v-3.96h856.47l.7-.06.62-.14.6-.24.52-.33.48-.4.4-.5.34-.53.24-.58.15-.62.05-.7v-419.2H822zM575.78-813.06l.04.7.15.62.24.58.34.54.4.47.5.4.53.34.58.25.6.15.72.05h234.2l1.18.1 1.22.3 1.15.47 1.07.65.94.8.82.97.65 1.06.5 1.16.28 1.22.1 1.17V-4.5L818-3.4 816.6-2l-.55 2 .54 2 1.4 1.4 3.98 1.1v192.14H818V7.5l-2.07-.55-2.9-2.9-1.1-4.05 1.1-4.05 2.9-2.9 2.07-.56v-793.4l-.05-.7-.15-.6-.24-.6-.33-.53-.4-.48-.5-.42-.52-.33-.6-.24-.6-.14-.7-.06H579.7l-1.16-.1-1.22-.28-1.15-.48-1.07-.65-.95-.83-.82-.95-.65-1.07-.48-1.16-.3-1.22-.08-1.17v-11.33h3.95z" stroke="#3a414a" stroke-width=".05" fill="#3a414a"/><path d="M-42.5 645.4h-2.17l.12-1.98-.1-1.98h2.15z" fill="#3a414a"/><path stroke="#3a414a" stroke-width=".05" fill="#3a414a"/><path d="M578.43-826.23h-9.27l4.63-14.27z" fill="#3a414a"/><path d="M581.14-824.26h-14.7l7.35-22.63zm-9.27-3.95h3.84l-1.9-5.9z" stroke="#3a414a" stroke-width=".05" fill="#3a414a"/><use xlink:href="#R" transform="matrix(1,0,0,1,776.25,196.63803908366438) translate(0.005000000000002558 17.22222222222222)"/><path d="M931.98 932.77l-.1 1.17-.3 1.22-.47 1.15-.64 1.08-.82.95-.95.82-1.08.65-1.15.48-1.22.3-1.17.08H-61.67v-3.95h985.6l.7-.04.6-.15.6-.23.53-.33.48-.4.4-.5.34-.53.24-.57.15-.6.05-.72V386.64H932zM598.82-813.53l.05.72.15.6.24.6.33.52.4.48.48.4.54.34.58.24.6.15.72.06h321.16l1.17.08 1.22.3 1.15.47 1.07.65.94.82.82.95.65 1.07.5 1.15.28 1.2.1 1.18V-4.5L928-3.4 926.6-2l-.55 2 .54 2 1.4 1.4 3.98 1.1V365.1H928V7.52l-2.07-.57-2.9-2.9-1.1-4.05 1.1-4.05 2.9-2.9 2.07-.56v-793.86l-.05-.7-.15-.62-.24-.58-.33-.54-.4-.48-.5-.4-.52-.34-.6-.24-.6-.15-.7-.07H602.75l-1.17-.1-1.23-.28-1.15-.48-1.07-.65-.95-.82-.82-.95-.65-1.07-.48-1.15-.3-1.22-.08-1.16v-11.34h3.95z" stroke="#3a414a" stroke-width=".05" fill="#3a414a"/><path d="M-61.62 940.66h-3.05v-3.95h3.05z" fill="#3a414a"/><path stroke="#3a414a" stroke-width=".05" fill="#3a414a"/><path d="M601.48-826.7h-9.27l4.64-14.27z" fill="#3a414a"/><path d="M604.2-824.73h-14.7l7.34-22.63zm-9.28-3.95h3.84l-1.92-5.9z" stroke="#3a414a" stroke-width=".05" fill="#3a414a"/><use xlink:href="#R" transform="matrix(1,0,0,1,886.25,365.1234429429914) translate(0.005000000000002558 17.22222222222222)"/><path d="M472.96-4.5l-3.98 1.1-1.4 1.4-.55 2 .54 2 1.4 1.4 4 1.1V32l-.1 1.18-.3 1.22-.47 1.16-.66 1.06-.8.96-.96.8-1.07.66-1.15.48-1.22.3-1.17.1H333.1v-3.96h131.8l.7-.06.63-.14.58-.25.55-.32.48-.4.4-.48.33-.54.25-.6.15-.6.06-.7V7.5l-2.07-.55-2.9-2.9-1.1-4.05 1.1-4.05 2.9-2.9L469-7.5V-348.5h3.96zm9.8-855.3h-5.7l-.7.07-.62.14-.58.26-.54.33-.48.4-.4.48-.34.53-.24.6-.15.6-.04.7v191.2l-3.98 1.1-1.4 1.4-.55 2 .54 2 1.4 1.4 4 1.1V-370H469v-282.5l-2.07-.55-2.9-2.9-1.1-4.05 1.1-4.05 2.9-2.9 2.08-.56v-188.34l.1-1.17.3-1.23.47-1.16.66-1.05.8-.96.96-.82 1.06-.65 1.16-.48 1.22-.3 1.17-.1h5.86z" stroke="#3a414a" stroke-width=".05" fill="#3a414a"/><path d="M333.16 39.9H331l.1-1.95-.05-2h2.1z" fill="#3a414a"/><path stroke="#3a414a" stroke-width=".05" fill="#3a414a"/><path d="M499.03-861.76l-14.27 4.63v-9.27z" fill="#3a414a"/><path d="M505.42-861.76l-22.63 7.35v-14.72zm-18.7 1.9l5.9-1.9-5.88-1.92z" stroke="#3a414a" stroke-width=".05" fill="#3a414a"/><use xlink:href="#R" transform="matrix(1,0,0,1,427.23394097222115,-369.9912091869713) translate(0.005000000000002558 17.22222222222222)"/><path d="M269.23-664.5l-3.98 1.1-1.4 1.4-.55 2 .54 2 1.4 1.4 4 1.1v343.07h-3.97V-652.5l-2.07-.55-2.9-2.9-1.1-4.05 1.1-4.05 2.9-2.9 2.07-.56v-30.2h3.96zM465.5-879.17l2.88 2.9.57 2.07h9.8v3.94H465.9l-1.07-3.98-1.4-1.4-2.02-.55-2 .55-1.4 1.4-1.08 4H273.33l-.7.05-.62.14-.57.24-.54.33-.5.42-.4.48-.33.54-.24.58-.15.62-.05.7v101.67l-3.98 1.1-1.4 1.4-.55 2 .54 2 1.4 1.4 4 1.1v36.3h-3.97v-33.3l-2.07-.55-2.9-2.9-1.1-4.05 1.1-4.05 2.9-2.9 2.07-.56v-98.8l.1-1.18.3-1.22.47-1.16.65-1.06.8-.96.96-.8 1.07-.67 1.15-.48 1.22-.3 1.17-.08h180.75l.56-2.1 2.9-2.88 4.05-1.1z" stroke="#3a414a" stroke-width=".05" fill="#3a414a"/><path d="M269.23-310.43h-3.96v-2.05h3.96z" fill="#3a414a"/><path stroke="#3a414a" stroke-width=".05" fill="#3a414a"/><path d="M495-872.23l-14.26 4.63v-9.27z" fill="#3a414a"/><path d="M501.4-872.23l-22.63 7.35v-14.7zm-18.68 1.9l5.9-1.9-5.9-1.92z" stroke="#3a414a" stroke-width=".05" fill="#3a414a"/><use xlink:href="#R" transform="matrix(1,0,0,1,223.50005910746756,-719.2001728414951) translate(0.005000000000002558 17.22222222222222)"/><path d="M1.65 71.22H-55.5v-3.95H1.66zm123.9-12.08h-36.4V55.2h36.4z" stroke="#3a414a" stroke-width=".05" fill="#3a414a"/><path d="M-55.44 71.22h-4.52l2.12-1.63 2.36-2.33z" fill="#3a414a"/><path stroke="#3a414a" stroke-width=".05" fill="#3a414a"/><path d="M141.8 57.16l-14.25 4.64v-9.27z" fill="#3a414a"/><path d="M148.2 57.16l-22.63 7.36v-14.7zm-18.68 1.92l5.9-1.9-5.9-1.93z" stroke="#3a414a" stroke-width=".05" fill="#3a414a"/><use xlink:href="#R" transform="matrix(1,0,0,1,1.6484291190459714,52.44784608612353) translate(0.005000000000002558 17.22222222222222)"/><path d="M30.9-54.5l-3.97 1.1-1.4 1.4-.55 2 .54 2 1.4 1.4 3.98 1.1v41l-3.97 1.1-1.4 1.4-.55 2 .54 2 1.4 1.4 3.98 1.1v27.36l.06.7.15.6.25.6.33.54.4.47.5.4.53.34.6.26.6.14.7.06h86.4v3.95H34.85l-1.17-.1-1.22-.28-1.15-.48-1.06-.65-.95-.82-.83-.96-.65-1.06-.48-1.16-.3-1.22-.1-1.17V7.5l-2.06-.55-2.9-2.9L20.88 0l1.1-4.05 2.9-2.9 2.07-.56v-35l-2.07-.55-2.9-2.9-1.1-4.05 1.1-4.05 2.9-2.9 2.07-.56v-25.83h3.96zm0-50.34h-3.95v-3.22h3.96zM24.2-270.9l1.22.28 1.15.48 1.07.65.95.83.82.95.64 1.07.48 1.15.3 1.22.1 1.17-.02 133.53h-3.95v-133.38l-.05-.7-.15-.62-.24-.6-.32-.52-.4-.47-.5-.4-.53-.34-.58-.25-.6-.15-.72-.06h-64.2V-271H23z" stroke="#3a414a" stroke-width=".05" fill="#3a414a"/><path d="M-41.3-267.06h-2.17l.12-1.97-.1-1.98h2.15z" fill="#3a414a"/><path stroke="#3a414a" stroke-width=".05" fill="#3a414a"/><path d="M137.66 37.93l-14.26 4.64V33.3z" fill="#3a414a"/><path d="M144.06 37.93l-22.64 7.36V30.57zm-18.7 1.92l5.9-1.92-5.9-1.9z" stroke="#3a414a" stroke-width=".05" fill="#3a414a"/><use xlink:href="#R" transform="matrix(1,0,0,1,-14.81987847222237,-104.841698244923) translate(0.005000000000002558 17.22222222222222)"/><path d="M526.6-1182.43l1.17.1 1.22.28 1.14.48 1.07.66.96.8.82.95.65 1.07.48 1.16.3 1.22.1 1.17v242.67h-3.96v-242.52l-.05-.7-.16-.62-.24-.58-.33-.54-.4-.48-.5-.4-.53-.34-.58-.24-.6-.15-.72-.05h-102.4v-3.95zm-359.65-2.08l.56 2.07h173.06v3.95H164.5l-1.1-3.98-1.4-1.4-2-.55-2 .53-1.4 1.4-1.1 4H-37.24v-3.96H152.5l.55-2.08 2.9-2.9 4.05-1.1 4.05 1.1z" stroke="#3a414a" stroke-width=".05" fill="#3a414a"/><path d="M-37.2-1178.48h-2.16l.1-1.96-.05-2h2.1z" fill="#3a414a"/><path stroke="#3a414a" stroke-width=".05" fill="#3a414a"/><path d="M532.52-915.6l-4.64-14.26h9.27z" fill="#3a414a"/><path d="M532.52-909.2l-7.36-22.64h14.7zm-1.92-18.7l1.92 5.9 1.92-5.9z" stroke="#3a414a" stroke-width=".05" fill="#3a414a"/><use xlink:href="#S" transform="matrix(1,0,0,1,340.5634181876816,-1191.2113393775714) translate(0.005000000000002558 17.22222222222222)"/><path d="M10.9-116.84h-131.17l-.7.05-.62.16-.57.24-.54.33-.5.4-.4.5-.33.53-.24.58-.14.6-.07.72v58.25l-3.98 1.1-1.4 1.4-.55 2 .54 2 1.4 1.4 4 1.1v39.47h-3.96V-42.5l-2.08-.55-2.9-2.9-1.1-4.05 1.1-4.05 2.9-2.9 2.08-.56v-55.4l.1-1.17.28-1.22.48-1.14.66-1.07.8-.96.96-.82 1.07-.65 1.16-.48 1.2-.3 1.18-.1H10.9zm228.7-7.9l-.1 1.17-.3 1.22-.46 1.15-.66 1.07-.8.95-.97.82-1.05.65-1.16.47-1.23.3-1.17.1-137.3-.02v-3.95h137.15l.7-.05.62-.15.58-.24.54-.33.47-.4.4-.5.34-.53.25-.58.14-.6.05-.72v-80h3.95z" stroke="#3a414a" stroke-width=".05" fill="#3a414a"/><path d="M-124.37-4.03h-3.95v-2.05h3.95z" fill="#3a414a"/><path stroke="#3a414a" stroke-width=".05" fill="#3a414a"/><path d="M242.26-206.9H233l4.62-14.26z" fill="#3a414a"/><path d="M244.98-204.92h-14.7l7.34-22.63zm-9.27-3.95h3.84l-1.92-5.9z" stroke="#3a414a" stroke-width=".05" fill="#3a414a"/><use xlink:href="#S" transform="matrix(1,0,0,1,10.913641482792258,-129.57546992884164) translate(0.005000000000002558 17.22222222222222)"/><path d="M-.6-417.26h-119.67l-.7.05-.62.14-.57.24-.54.33-.5.42-.4.48-.33.54-.24.58-.14.6-.07.72v100.13h-3.95v-100.3l.1-1.16.28-1.2.48-1.16.66-1.07.8-.95.96-.82 1.07-.65 1.16-.48 1.2-.3 1.18-.08H-.62zm203.85-3.86l1.2.3 1.17.47 1.07.65.94.82.8.95.67 1.07.5 1.15.28 1.2.1 1.18v80.16H206v-80l-.05-.7-.15-.62-.24-.58-.33-.54-.4-.48-.5-.4-.53-.34-.58-.24-.6-.15-.72-.06H82.86v-3.95h119.2z" stroke="#3a414a" stroke-width=".05" fill="#3a414a"/><path d="M-124.37-311.03h-3.95v-2.05h3.95z" fill="#3a414a"/><path stroke="#3a414a" stroke-width=".05" fill="#3a414a"/><path d="M208-316.9l-4.64-14.26h9.27z" fill="#3a414a"/><path d="M208-310.5l-7.36-22.64h14.7zm-1.92-18.7l1.92 5.9 1.9-5.9z" stroke="#3a414a" stroke-width=".05" fill="#3a414a"/><g><use xlink:href="#S" transform="matrix(1,0,0,1,-0.6101910080445663,-429.99539180384073) translate(0.005000000000002558 17.22222222222222)"/></g><path d="M-929.73 630.5v-.1a10.4 10.4 0 0 1 10.4-10.4 10.4 10.4 0 0 1 10.38 10.4 10.4 10.4 0 0 1-10.4 10.38 10.4 10.4 0 0 1-10.38-10.4v-.1" stroke="#ff80df" stroke-width="2" fill="#fff0fb" fill-opacity="0"/><path d="M-960 626a6 6 0 0 1 6-6h69.3a6 6 0 0 1 6 6v71.12a6 6 0 0 1-6 6H-954a6 6 0 0 1-6-6z" fill="none"/><path d="M-919.34 640.78v29.1l40.65 33.24m-40.64-33.25L-960 703.12m0-51.95h81.3" stroke="#ff80df" stroke-width="2" fill="none"/><g><use xlink:href="#T" transform="matrix(1,0,0,1,-1040,703.1191199015132) translate(99.61726562499999 17.089501953125)"/></g><path d="M-929.73-269.5v-.1a10.4 10.4 0 0 1 10.4-10.4 10.4 10.4 0 0 1 10.38 10.4 10.4 10.4 0 0 1-10.4 10.38 10.4 10.4 0 0 1-10.38-10.4v-.1" stroke="#ff80df" stroke-width="2" fill="#fff0fb" fill-opacity="0"/><path d="M-960-274a6 6 0 0 1 6-6h69.3a6 6 0 0 1 6 6v71.12a6 6 0 0 1-6 6H-954a6 6 0 0 1-6-6z" fill="none"/><path d="M-919.34-259.22v29.1l40.65 33.24m-40.64-33.25L-960-196.88m0-51.95h81.3" stroke="#ff80df" stroke-width="2" fill="none"/><g><use xlink:href="#T" transform="matrix(1,0,0,1,-1040,-196.88088009848684) translate(99.61726562499999 17.089501953125)"/></g><path d="M-945.95-1509.5v-.1a10.4 10.4 0 0 1 10.4-10.4 10.4 10.4 0 0 1 10.38 10.4 10.4 10.4 0 0 1-10.4 10.38 10.4 10.4 0 0 1-10.38-10.4v-.1" stroke="#ff80df" stroke-width="2" fill="#fff0fb" fill-opacity="0"/><path d="M-976.22-1514a6 6 0 0 1 6-6h69.3a6 6 0 0 1 6 6v71.12a6 6 0 0 1-6 6h-69.3a6 6 0 0 1-6-6z" fill="none"/><path d="M-935.56-1499.22v29.1l40.65 33.24m-40.66-33.25l-40.66 33.25m0-51.95h81.3" stroke="#ff80df" stroke-width="2" fill="none"/><g><use xlink:href="#T" transform="matrix(1,0,0,1,-1056.2175970993985,-1436.8808800984868) translate(99.61726562499999 17.089501953125)"/></g><path d="M-933.15-2449.5v-.1a10.4 10.4 0 0 1 10.38-10.4 10.4 10.4 0 0 1 10.4 10.4 10.4 10.4 0 0 1-10.4 10.38 10.4 10.4 0 0 1-10.38-10.4v-.1" stroke="#ff80df" stroke-width="2" fill="#fff0fb" fill-opacity="0"/><path d="M-963.42-2454a6 6 0 0 1 6-6h69.3a6 6 0 0 1 6 6v71.12a6 6 0 0 1-6 6h-69.3a6 6 0 0 1-6-6z" fill="none"/><path d="M-922.76-2439.22v29.1l40.65 33.24m-40.66-33.25l-40.66 33.25m0-51.95h81.3" stroke="#ff80df" stroke-width="2" fill="none"/><g><use xlink:href="#T" transform="matrix(1,0,0,1,-1043.4213713799372,-2376.880880098487) translate(99.61726562499999 17.089501953125)"/></g><path d="M-1060-2490.9a6 6 0 0 1 6-6h146.44a6 6 0 0 1 6 6v24.9a6 6 0 0 1-6 6H-1054a6 6 0 0 1-6-6z" fill="none"/><g><use xlink:href="#U" transform="matrix(1,0,0,1,-1055,-2491.8980208333332) translate(0 21.58376736111111)"/><use xlink:href="#V" transform="matrix(1,0,0,1,-1055,-2491.8980208333332) translate(84.36414930555556 21.58376736111111)"/></g><path d="M-1075.7-1534a6 6 0 0 1 6-6h100.28a6 6 0 0 1 6 6v24.9a6 6 0 0 1-6 6h-100.28a6 6 0 0 1-6-6z" fill="none"/><g><use xlink:href="#W" transform="matrix(1,0,0,1,-1070.6991665188261,-1535) translate(0 21.58376736111111)"/></g><path d="M-1020-310.9a6 6 0 0 1 6-6h83.98a6 6 0 0 1 6 6v24.9a6 6 0 0 1-6 6H-1014a6 6 0 0 1-6-6z" fill="none"/><g><use xlink:href="#X" transform="matrix(1,0,0,1,-1015,-311.89802083333336) translate(0 21.58376736111111)"/></g><path d="M-1008.5 526a6 6 0 0 1 6-6H-869a6 6 0 0 1 6 6v24.9a6 6 0 0 1-6 6h-133.5a6 6 0 0 1-6-6z" fill="none"/><g><use xlink:href="#Y" transform="matrix(1,0,0,1,-1003.4907535950473,525) translate(0 21.58376736111111)"/><use xlink:href="#Z" transform="matrix(1,0,0,1,-1003.4907535950473,525) translate(68.57638888888889 21.58376736111111)"/></g><defs><path d="M645 0H180v-1490h484c435 0 692 280 692 742 0 466-257 748-711 748zM370-168h263c363 0 539-218 539-580 0-358-176-574-521-574H370v1154" id="aa"/><path d="M158 0v-1118h180V0H158zm91-1301c-68 0-125-53-125-119s57-119 125-119c69 0 126 53 126 119s-57 119-126 119" id="ab"/><path d="M471 26C259 26 90-98 90-318c0-256 228-303 435-329 202-27 287-16 287-108 0-139-79-219-234-219-161 0-248 86-283 164l-173-57c86-203 278-265 451-265 150 0 419 46 419 395V0H815v-152h-12C765-73 660 26 471 26zm31-159c199 0 310-134 310-271v-155c-30 35-226 55-295 64-131 17-246 59-246 186 0 116 97 176 231 176" id="ac"/><path d="M611 442c-248 0-391-105-460-228l146-94c47 65 117 165 314 165 178 0 307-82 307-266v-224h-17C863-141 792-18 576-18c-268 0-472-195-472-546 0-346 197-568 476-568 216 0 288 133 326 193h17v-179h175V29c0 289-215 413-487 413zm-5-620c203 0 314-146 314-390 0-237-108-403-314-403-213 0-319 180-319 403 0 230 109 390 319 390" id="ad"/><path d="M158 0v-1118h174v172h12c41-113 157-188 290-188 26 0 70 2 91 3v181c-11-2-60-10-108-10-161 0-279 109-279 260V0H158" id="ae"/><path d="M158 0v-1118h175l1 205c55-151 181-225 313-225 147 0 245 90 285 228 53-141 190-228 352-228 194 0 352 125 352 384V0h-181v-749c0-161-105-225-225-225-151 0-243 103-243 244V0H807v-767c0-124-93-207-219-207-131 0-250 92-250 270V0H158" id="af"/><g id="a"><use transform="matrix(0.008173828125000001,0,0,0.008173828125000001,0,0)" xlink:href="#aa"/><use transform="matrix(0.008173828125000001,0,0,0.008173828125000001,12.08091796875,0)" xlink:href="#ab"/><use transform="matrix(0.008173828125000001,0,0,0.008173828125000001,16.13513671875,0)" xlink:href="#ac"/><use transform="matrix(0.008173828125000001,0,0,0.008173828125000001,25.535039062500005,0)" xlink:href="#ad"/><use transform="matrix(0.008173828125000001,0,0,0.008173828125000001,35.801367187500006,0)" xlink:href="#ae"/><use transform="matrix(0.008173828125000001,0,0,0.008173828125000001,42.10338867187501,0)" xlink:href="#ac"/><use transform="matrix(0.008173828125000001,0,0,0.008173828125000001,51.50329101562501,0)" xlink:href="#af"/></g><path d="M626 20c-262 0-458-168-468-396h184c12 133 134 229 284 229 180 0 311-137 311-326 0-192-136-335-323-335-92 0-196 33-255 78l-178-22 88-738h784v167H429l-51 435h8c61-51 160-87 263-87 273 0 474 211 474 499 0 286-210 496-497 496" id="ag"/><path d="M295 13c-75 0-135-60-135-135s60-135 135-135 135 60 135 135S370 13 295 13zm0-809c-75 0-135-60-135-135s60-135 135-135 135 60 135 135-60 135-135 135" id="ah"/><g id="b"><use transform="matrix(0.008173828125000001,0,0,0.008173828125000001,0,0)" xlink:href="#ag"/><use transform="matrix(0.008173828125000001,0,0,0.008173828125000001,10.176416015625001,0)" xlink:href="#ah"/></g><path d="M180 0v-1490h901v168H370v510h643v168H370V0H180" id="ai"/><path d="M537 14c-226 0-379-139-379-422v-710h180v695c0 172 97 275 253 275 160 0 281-109 281-300v-670h181V0H879v-209C806-46 684 14 537 14" id="aj"/><path d="M338-1490V0H158v-1490h180" id="ak"/><g id="c"><use transform="matrix(0.008173828125000001,0,0,0.008173828125000001,0,0)" xlink:href="#ai"/><use transform="matrix(0.008173828125000001,0,0,0.008173828125000001,9.318164062500001,0)" xlink:href="#aj"/><use transform="matrix(0.008173828125000001,0,0,0.008173828125000001,19.216669921875003,0)" xlink:href="#ak"/><use transform="matrix(0.008173828125000001,0,0,0.008173828125000001,23.270888671875003,0)" xlink:href="#ak"/></g><path d="M783 20c-382 0-661-292-661-764 0-473 279-766 661-766 302 0 548 182 601 489h-190c-42-204-217-313-411-313-268 0-476 208-476 590 0 381 209 588 476 588 195 0 369-110 411-313h190c-52 303-296 489-601 489" id="al"/><path d="M613 24c-304 0-509-231-509-576 0-350 205-580 509-580 305 0 511 230 511 580 0 345-206 576-511 576zm0-161c226 0 329-195 329-415 0-222-103-419-329-419-223 0-326 196-326 419 0 220 103 415 326 415" id="am"/><path d="M628 24c-324 0-524-230-524-574 0-343 198-582 503-582 237 0 487 146 487 559v75H286c9 234 145 362 343 362 132 0 231-58 273-172l174 48C1024-91 857 24 628 24zM287-650h624c-17-190-120-322-304-322-192 0-309 151-320 322" id="an"/><g id="d"><use transform="matrix(0.008173828125000001,0,0,0.008173828125000001,0,0)" xlink:href="#al"/><use transform="matrix(0.008173828125000001,0,0,0.008173828125000001,12.228046875000002,0)" xlink:href="#am"/><use transform="matrix(0.008173828125000001,0,0,0.008173828125000001,22.265507812500008,0)" xlink:href="#aj"/><use transform="matrix(0.008173828125000001,0,0,0.008173828125000001,32.164013671875004,0)" xlink:href="#ae"/><use transform="matrix(0.008173828125000001,0,0,0.008173828125000001,38.72759765625,0)" xlink:href="#ab"/><use transform="matrix(0.008173828125000001,0,0,0.008173828125000001,42.78181640625,0)" xlink:href="#an"/><use transform="matrix(0.008173828125000001,0,0,0.008173828125000001,52.5413671875,0)" xlink:href="#ae"/></g><path d="M180 0v-1490h270l367 940c28 72 75 218 110 339 35-117 81-264 110-339l362-940h271V0h-187c2-448-5-837 7-1287-157 497-311 829-483 1287H842C666-458 514-784 354-1284c12 438 5 843 7 1284H180" id="ao"/><path d="M338-670V0H158v-1118h173l1 207c72-158 192-221 342-221 226 0 378 139 378 422V0H872v-695c0-172-96-275-252-275-161 0-282 109-282 300" id="ap"/><path d="M598-1118v154H368v674c0 100 37 144 132 144 23 0 62-6 92-12L629-6c-37 13-88 20-134 20-193 0-307-107-307-290v-688H20v-154h168v-266h180v266h230" id="aq"/><g id="e"><use transform="matrix(0.008173828125000001,0,0,0.008173828125000001,0,0)" xlink:href="#ao"/><use transform="matrix(0.008173828125000001,0,0,0.008173828125000001,15.121582031250002,0)" xlink:href="#ac"/><use transform="matrix(0.008173828125000001,0,0,0.008173828125000001,24.521484375000004,0)" xlink:href="#ap"/><use transform="matrix(0.008173828125000001,0,0,0.008173828125000001,34.411816406250004,0)" xlink:href="#ac"/><use transform="matrix(0.008173828125000001,0,0,0.008173828125000001,43.811718750000004,0)" xlink:href="#ad"/><use transform="matrix(0.008173828125000001,0,0,0.008173828125000001,54.078046875000005,0)" xlink:href="#an"/><use transform="matrix(0.008173828125000001,0,0,0.008173828125000001,63.837597656250004,0)" xlink:href="#af"/><use transform="matrix(0.008173828125000001,0,0,0.008173828125000001,78.50144531250001,0)" xlink:href="#an"/><use transform="matrix(0.008173828125000001,0,0,0.008173828125000001,88.26099609375001,0)" xlink:href="#ap"/><use transform="matrix(0.008173828125000001,0,0,0.008173828125000001,98.151328125,0)" xlink:href="#aq"/></g><path d="M657 26c-323 0-524-166-541-416h195c15 169 171 246 346 246 202 0 356-106 356-265 5-203-294-238-475-293-239-73-380-191-380-389 0-252 224-419 512-419 294 0 499 171 508 396H992c-17-145-151-228-328-228-193 0-321 102-321 242 0 156 175 211 284 241l149 41c160 44 422 134 422 412 0 244-197 432-541 432" id="ar"/><path d="M140 405l46-156c120 36 205 19 263-150l32-93L54-1118h197c107 313 237 620 324 950 87-331 219-637 326-950h196L606 167c-68 178-176 259-334 259-64 0-113-12-132-21" id="as"/><path d="M538 24C308 24 148-78 108-271l171-41c32 123 123 178 257 178 156 0 256-77 256-169 0-77-54-128-164-154l-186-44c-203-48-300-148-300-305 0-192 176-326 414-326 230 0 351 112 402 269l-163 42c-31-80-94-158-238-158-133 0-233 69-233 162 0 83 57 129 188 160l169 40c203 48 298 149 298 302 0 196-179 339-441 339" id="at"/><g id="f"><use transform="matrix(0.008173828125000001,0,0,0.008173828125000001,0,0)" xlink:href="#ar"/><use transform="matrix(0.008173828125000001,0,0,0.008173828125000001,10.740410156250002,0)" xlink:href="#as"/><use transform="matrix(0.008173828125000001,0,0,0.008173828125000001,20.148486328125003,0)" xlink:href="#at"/><use transform="matrix(0.008173828125000001,0,0,0.008173828125000001,28.984394531250004,0)" xlink:href="#aq"/><use transform="matrix(0.008173828125000001,0,0,0.008173828125000001,34.297382812500004,0)" xlink:href="#an"/><use transform="matrix(0.008173828125000001,0,0,0.008173828125000001,44.05693359375,0)" xlink:href="#af"/></g><path d="M763 24c-353 0-583-224-583-531v-983h190v968c0 214 149 370 393 370 243 0 391-156 391-370v-968h190v983c0 307-230 531-581 531" id="au"/><g id="g"><use transform="matrix(0.008173828125000001,0,0,0.008173828125000001,0,0)" xlink:href="#au"/><use transform="matrix(0.008173828125000001,0,0,0.008173828125000001,12.456914062500001,0)" xlink:href="#at"/><use transform="matrix(0.008173828125000001,0,0,0.008173828125000001,21.292822265625002,0)" xlink:href="#an"/></g><g id="h"><use transform="matrix(0.008173828125000001,0,0,0.008173828125000001,0,0)" xlink:href="#al"/><use transform="matrix(0.008173828125000001,0,0,0.008173828125000001,12.228046875000002,0)" xlink:href="#ac"/><use transform="matrix(0.008173828125000001,0,0,0.008173828125000001,21.627949218750004,0)" xlink:href="#at"/><use transform="matrix(0.008173828125000001,0,0,0.008173828125000001,30.463857421875005,0)" xlink:href="#an"/></g><g id="i"><use transform="matrix(0.008173828125000001,0,0,0.008173828125000001,0,0)" xlink:href="#aa"/><use transform="matrix(0.008173828125000001,0,0,0.008173828125000001,12.08091796875,0)" xlink:href="#ab"/><use transform="matrix(0.008173828125000001,0,0,0.008173828125000001,16.13513671875,0)" xlink:href="#ac"/><use transform="matrix(0.008173828125000001,0,0,0.008173828125000001,25.535039062500005,0)" xlink:href="#ad"/><use transform="matrix(0.008173828125000001,0,0,0.008173828125000001,35.801367187500006,0)" xlink:href="#ae"/><use transform="matrix(0.008173828125000001,0,0,0.008173828125000001,42.10338867187501,0)" xlink:href="#ac"/><use transform="matrix(0.008173828125000001,0,0,0.008173828125000001,51.50329101562501,0)" xlink:href="#af"/></g><g id="j"><use transform="matrix(0.008173828125000001,0,0,0.008173828125000001,0,0)" xlink:href="#al"/><use transform="matrix(0.008173828125000001,0,0,0.008173828125000001,12.228046875000002,0)" xlink:href="#am"/><use transform="matrix(0.008173828125000001,0,0,0.008173828125000001,22.265507812500008,0)" xlink:href="#aj"/><use transform="matrix(0.008173828125000001,0,0,0.008173828125000001,32.164013671875004,0)" xlink:href="#ae"/><use transform="matrix(0.008173828125000001,0,0,0.008173828125000001,38.72759765625,0)" xlink:href="#ab"/><use transform="matrix(0.008173828125000001,0,0,0.008173828125000001,42.78181640625,0)" xlink:href="#an"/><use transform="matrix(0.008173828125000001,0,0,0.008173828125000001,52.5413671875,0)" xlink:href="#ae"/></g><g id="k"><use transform="matrix(0.008173828125000001,0,0,0.008173828125000001,0,0)" xlink:href="#ao"/><use transform="matrix(0.008173828125000001,0,0,0.008173828125000001,15.121582031250002,0)" xlink:href="#ac"/><use transform="matrix(0.008173828125000001,0,0,0.008173828125000001,24.521484375000004,0)" xlink:href="#ap"/><use transform="matrix(0.008173828125000001,0,0,0.008173828125000001,34.411816406250004,0)" xlink:href="#ac"/><use transform="matrix(0.008173828125000001,0,0,0.008173828125000001,43.811718750000004,0)" xlink:href="#ad"/><use transform="matrix(0.008173828125000001,0,0,0.008173828125000001,54.078046875000005,0)" xlink:href="#an"/><use transform="matrix(0.008173828125000001,0,0,0.008173828125000001,63.837597656250004,0)" xlink:href="#af"/><use transform="matrix(0.008173828125000001,0,0,0.008173828125000001,78.50144531250001,0)" xlink:href="#an"/><use transform="matrix(0.008173828125000001,0,0,0.008173828125000001,88.26099609375001,0)" xlink:href="#ap"/><use transform="matrix(0.008173828125000001,0,0,0.008173828125000001,98.151328125,0)" xlink:href="#aq"/></g><g id="l"><use transform="matrix(0.008173828125000001,0,0,0.008173828125000001,0,0)" xlink:href="#ar"/><use transform="matrix(0.008173828125000001,0,0,0.008173828125000001,10.740410156250002,0)" xlink:href="#as"/><use transform="matrix(0.008173828125000001,0,0,0.008173828125000001,20.148486328125003,0)" xlink:href="#at"/><use transform="matrix(0.008173828125000001,0,0,0.008173828125000001,28.984394531250004,0)" xlink:href="#aq"/><use transform="matrix(0.008173828125000001,0,0,0.008173828125000001,34.297382812500004,0)" xlink:href="#an"/><use transform="matrix(0.008173828125000001,0,0,0.008173828125000001,44.05693359375,0)" xlink:href="#af"/></g><path fill="#fff" d="M180 0v-1490h901v168H370v510h643v168H370V0H180" id="av"/><path fill="#fff" d="M537 14c-226 0-379-139-379-422v-710h180v695c0 172 97 275 253 275 160 0 281-109 281-300v-670h181V0H879v-209C806-46 684 14 537 14" id="aw"/><path fill="#fff" d="M338-1490V0H158v-1490h180" id="ax"/><g id="m"><use transform="matrix(0.008173828125000001,0,0,0.008173828125000001,0,0)" xlink:href="#av"/><use transform="matrix(0.008173828125000001,0,0,0.008173828125000001,9.318164062500001,0)" xlink:href="#aw"/><use transform="matrix(0.008173828125000001,0,0,0.008173828125000001,19.216669921875003,0)" xlink:href="#ax"/><use transform="matrix(0.008173828125000001,0,0,0.008173828125000001,23.270888671875003,0)" xlink:href="#ax"/></g><path fill="#fff" d="M763 24c-353 0-583-224-583-531v-983h190v968c0 214 149 370 393 370 243 0 391-156 391-370v-968h190v983c0 307-230 531-581 531" id="ay"/><path fill="#fff" d="M538 24C308 24 148-78 108-271l171-41c32 123 123 178 257 178 156 0 256-77 256-169 0-77-54-128-164-154l-186-44c-203-48-300-148-300-305 0-192 176-326 414-326 230 0 351 112 402 269l-163 42c-31-80-94-158-238-158-133 0-233 69-233 162 0 83 57 129 188 160l169 40c203 48 298 149 298 302 0 196-179 339-441 339" id="az"/><path fill="#fff" d="M628 24c-324 0-524-230-524-574 0-343 198-582 503-582 237 0 487 146 487 559v75H286c9 234 145 362 343 362 132 0 231-58 273-172l174 48C1024-91 857 24 628 24zM287-650h624c-17-190-120-322-304-322-192 0-309 151-320 322" id="aA"/><g id="n"><use transform="matrix(0.008173828125000001,0,0,0.008173828125000001,0,0)" xlink:href="#ay"/><use transform="matrix(0.008173828125000001,0,0,0.008173828125000001,12.456914062500001,0)" xlink:href="#az"/><use transform="matrix(0.008173828125000001,0,0,0.008173828125000001,21.292822265625002,0)" xlink:href="#aA"/></g><path fill="#fff" d="M783 20c-382 0-661-292-661-764 0-473 279-766 661-766 302 0 548 182 601 489h-190c-42-204-217-313-411-313-268 0-476 208-476 590 0 381 209 588 476 588 195 0 369-110 411-313h190c-52 303-296 489-601 489" id="aB"/><path fill="#fff" d="M471 26C259 26 90-98 90-318c0-256 228-303 435-329 202-27 287-16 287-108 0-139-79-219-234-219-161 0-248 86-283 164l-173-57c86-203 278-265 451-265 150 0 419 46 419 395V0H815v-152h-12C765-73 660 26 471 26zm31-159c199 0 310-134 310-271v-155c-30 35-226 55-295 64-131 17-246 59-246 186 0 116 97 176 231 176" id="aC"/><g id="o"><use transform="matrix(0.008173828125000001,0,0,0.008173828125000001,0,0)" xlink:href="#aB"/><use transform="matrix(0.008173828125000001,0,0,0.008173828125000001,12.228046875000002,0)" xlink:href="#aC"/><use transform="matrix(0.008173828125000001,0,0,0.008173828125000001,21.627949218750004,0)" xlink:href="#az"/><use transform="matrix(0.008173828125000001,0,0,0.008173828125000001,30.463857421875005,0)" xlink:href="#aA"/><use transform="matrix(0.008173828125000001,0,0,0.008173828125000001,40.223408203125004,0)" xlink:href="#az"/></g><path fill="#fff" d="M645 0H180v-1490h484c435 0 692 280 692 742 0 466-257 748-711 748zM370-168h263c363 0 539-218 539-580 0-358-176-574-521-574H370v1154" id="aD"/><path fill="#fff" d="M158 0v-1118h180V0H158zm91-1301c-68 0-125-53-125-119s57-119 125-119c69 0 126 53 126 119s-57 119-126 119" id="aE"/><path fill="#fff" d="M611 442c-248 0-391-105-460-228l146-94c47 65 117 165 314 165 178 0 307-82 307-266v-224h-17C863-141 792-18 576-18c-268 0-472-195-472-546 0-346 197-568 476-568 216 0 288 133 326 193h17v-179h175V29c0 289-215 413-487 413zm-5-620c203 0 314-146 314-390 0-237-108-403-314-403-213 0-319 180-319 403 0 230 109 390 319 390" id="aF"/><path fill="#fff" d="M158 0v-1118h174v172h12c41-113 157-188 290-188 26 0 70 2 91 3v181c-11-2-60-10-108-10-161 0-279 109-279 260V0H158" id="aG"/><path fill="#fff" d="M158 0v-1118h175l1 205c55-151 181-225 313-225 147 0 245 90 285 228 53-141 190-228 352-228 194 0 352 125 352 384V0h-181v-749c0-161-105-225-225-225-151 0-243 103-243 244V0H807v-767c0-124-93-207-219-207-131 0-250 92-250 270V0H158" id="aH"/><g id="p"><use transform="matrix(0.008173828125000001,0,0,0.008173828125000001,0,0)" xlink:href="#aD"/><use transform="matrix(0.008173828125000001,0,0,0.008173828125000001,12.08091796875,0)" xlink:href="#aE"/><use transform="matrix(0.008173828125000001,0,0,0.008173828125000001,16.13513671875,0)" xlink:href="#aC"/><use transform="matrix(0.008173828125000001,0,0,0.008173828125000001,25.535039062500005,0)" xlink:href="#aF"/><use transform="matrix(0.008173828125000001,0,0,0.008173828125000001,35.801367187500006,0)" xlink:href="#aG"/><use transform="matrix(0.008173828125000001,0,0,0.008173828125000001,42.10338867187501,0)" xlink:href="#aC"/><use transform="matrix(0.008173828125000001,0,0,0.008173828125000001,51.50329101562501,0)" xlink:href="#aH"/></g><path fill="#fff" d="M678-1118v154H420V0H240v-964H20v-154h220v-149c0-194 155-293 318-293 85 0 141 18 168 30l-50 154c-19-6-47-17-97-17-111 0-159 58-159 166v109h258" id="aI"/><path fill="#fff" d="M613 24c-304 0-509-231-509-576 0-350 205-580 509-580 305 0 511 230 511 580 0 345-206 576-511 576zm0-161c226 0 329-195 329-415 0-222-103-419-329-419-223 0-326 196-326 419 0 220 103 415 326 415" id="aJ"/><g id="q"><use transform="matrix(0.008173828125000001,0,0,0.008173828125000001,0,0)" xlink:href="#aI"/><use transform="matrix(0.008173828125000001,0,0,0.008173828125000001,5.705332031250001,0)" xlink:href="#aJ"/><use transform="matrix(0.008173828125000001,0,0,0.008173828125000001,15.742792968750003,0)" xlink:href="#aG"/></g><g id="r"><use transform="matrix(0.008173828125000001,0,0,0.008173828125000001,0,0)" xlink:href="#aB"/><use transform="matrix(0.008173828125000001,0,0,0.008173828125000001,12.228046875000002,0)" xlink:href="#aJ"/><use transform="matrix(0.008173828125000001,0,0,0.008173828125000001,22.265507812500008,0)" xlink:href="#aw"/><use transform="matrix(0.008173828125000001,0,0,0.008173828125000001,32.164013671875004,0)" xlink:href="#aG"/><use transform="matrix(0.008173828125000001,0,0,0.008173828125000001,38.72759765625,0)" xlink:href="#aE"/><use transform="matrix(0.008173828125000001,0,0,0.008173828125000001,42.78181640625,0)" xlink:href="#aA"/><use transform="matrix(0.008173828125000001,0,0,0.008173828125000001,52.5413671875,0)" xlink:href="#aG"/></g><path fill="#fff" d="M180 0v-1490h270l367 940c28 72 75 218 110 339 35-117 81-264 110-339l362-940h271V0h-187c2-448-5-837 7-1287-157 497-311 829-483 1287H842C666-458 514-784 354-1284c12 438 5 843 7 1284H180" id="aK"/><path fill="#fff" d="M338-670V0H158v-1118h173l1 207c72-158 192-221 342-221 226 0 378 139 378 422V0H872v-695c0-172-96-275-252-275-161 0-282 109-282 300" id="aL"/><path fill="#fff" d="M598-1118v154H368v674c0 100 37 144 132 144 23 0 62-6 92-12L629-6c-37 13-88 20-134 20-193 0-307-107-307-290v-688H20v-154h168v-266h180v266h230" id="aM"/><g id="s"><use transform="matrix(0.008173828125000001,0,0,0.008173828125000001,0,0)" xlink:href="#aK"/><use transform="matrix(0.008173828125000001,0,0,0.008173828125000001,15.121582031250002,0)" xlink:href="#aC"/><use transform="matrix(0.008173828125000001,0,0,0.008173828125000001,24.521484375000004,0)" xlink:href="#aL"/><use transform="matrix(0.008173828125000001,0,0,0.008173828125000001,34.411816406250004,0)" xlink:href="#aC"/><use transform="matrix(0.008173828125000001,0,0,0.008173828125000001,43.811718750000004,0)" xlink:href="#aF"/><use transform="matrix(0.008173828125000001,0,0,0.008173828125000001,54.078046875000005,0)" xlink:href="#aA"/><use transform="matrix(0.008173828125000001,0,0,0.008173828125000001,63.837597656250004,0)" xlink:href="#aH"/><use transform="matrix(0.008173828125000001,0,0,0.008173828125000001,78.50144531250001,0)" xlink:href="#aA"/><use transform="matrix(0.008173828125000001,0,0,0.008173828125000001,88.26099609375001,0)" xlink:href="#aL"/><use transform="matrix(0.008173828125000001,0,0,0.008173828125000001,98.151328125,0)" xlink:href="#aM"/></g><path d="M180 0v-1490h190v1322h690V0H180" id="aN"/><g id="t"><use transform="matrix(0.010850694444444444,0,0,0.010850694444444444,0,0)" xlink:href="#aN"/><use transform="matrix(0.010850694444444444,0,0,0.010850694444444444,12.565104166666666,0)" xlink:href="#am"/><use transform="matrix(0.010850694444444444,0,0,0.010850694444444444,25.889756944444443,0)" xlink:href="#ad"/><use transform="matrix(0.010850694444444444,0,0,0.010850694444444444,39.518229166666664,0)" xlink:href="#ab"/><use transform="matrix(0.010850694444444444,0,0,0.010850694444444444,44.90017361111111,0)" xlink:href="#ap"/></g><path d="M180 0v-1490h510c348 0 508 194 508 460 0 198-88 351-276 417L1256 0h-220L726-579c-117 2-238 0-356 1V0H180zm190-747h312c235 0 327-108 327-283 0-177-92-293-329-293H370v576" id="aO"/><g id="u"><use transform="matrix(0.010850694444444444,0,0,0.010850694444444444,0,0)" xlink:href="#aO"/><use transform="matrix(0.010850694444444444,0,0,0.010850694444444444,13.975694444444445,0)" xlink:href="#an"/><use transform="matrix(0.010850694444444444,0,0,0.010850694444444444,26.931423611111104,0)" xlink:href="#ad"/><use transform="matrix(0.010850694444444444,0,0,0.010850694444444444,40.55989583333333,0)" xlink:href="#ab"/><use transform="matrix(0.010850694444444444,0,0,0.010850694444444444,45.94184027777778,0)" xlink:href="#at"/><use transform="matrix(0.010850694444444444,0,0,0.010850694444444444,57.67144097222221,0)" xlink:href="#aq"/><use transform="matrix(0.010850694444444444,0,0,0.010850694444444444,64.7243923611111,0)" xlink:href="#an"/><use transform="matrix(0.010850694444444444,0,0,0.010850694444444444,77.68012152777777,0)" xlink:href="#ae"/></g><path d="M692-1560L212 224H46l480-1784h166" id="aP"/><use transform="matrix(0.010850694444444444,0,0,0.010850694444444444,0,0)" xlink:href="#aP" id="v"/><g id="w"><use transform="matrix(0.010850694444444444,0,0,0.010850694444444444,0,0)" xlink:href="#ar"/><use transform="matrix(0.010850694444444444,0,0,0.010850694444444444,14.2578125,0)" xlink:href="#ab"/><use transform="matrix(0.010850694444444444,0,0,0.010850694444444444,19.639756944444443,0)" xlink:href="#ad"/><use transform="matrix(0.010850694444444444,0,0,0.010850694444444444,33.268229166666664,0)" xlink:href="#ap"/></g><path d="M158 418v-1536h174v179h20c37-59 106-193 324-193 279 0 474 222 474 576 0 356-194 580-473 580-213 0-288-135-325-197h-14v591H158zm492-555c209 0 317-186 317-421 0-232-105-413-317-413-206 0-314 166-314 413 0 249 111 421 314 421" id="aQ"/><g id="x"><use transform="matrix(0.010850694444444444,0,0,0.010850694444444444,0,0)" xlink:href="#au"/><use transform="matrix(0.010850694444444444,0,0,0.010850694444444444,16.536458333333332,0)" xlink:href="#aQ"/></g><path d="M180 0v-1490h528c311 0 458 177 458 395 0 191-114 278-244 313v14c139 9 302 137 302 371 0 225-148 397-499 397H180zm190-168h350c232 0 321-102 321-231 0-149-120-277-311-277H370v508zm0-668h328c160 0 286-101 286-255 0-129-87-231-280-231H370v486" id="aR"/><path d="M158 0v-1490h180v865h22l478-493h223L593-638 1096 0H865L456-523 338-412V0H158" id="aS"/><g id="y"><use transform="matrix(0.010850694444444444,0,0,0.010850694444444444,0,0)" xlink:href="#aR"/><use transform="matrix(0.010850694444444444,0,0,0.010850694444444444,14.539930555555555,0)" xlink:href="#am"/><use transform="matrix(0.010850694444444444,0,0,0.010850694444444444,27.864583333333332,0)" xlink:href="#am"/><use transform="matrix(0.010850694444444444,0,0,0.010850694444444444,41.18923611111111,0)" xlink:href="#aS"/></g><path d="M338-670V0H158v-1490h180v566c73-149 190-208 336-208 226 0 379 139 379 422V0H872v-695c0-172-96-275-252-275-161 0-282 109-282 300" id="aT"/><g id="z"><use transform="matrix(0.010850694444444444,0,0,0.010850694444444444,0,0)" xlink:href="#ar"/><use transform="matrix(0.010850694444444444,0,0,0.010850694444444444,14.2578125,0)" xlink:href="#aT"/><use transform="matrix(0.010850694444444444,0,0,0.010850694444444444,27.39800347222222,0)" xlink:href="#ab"/><use transform="matrix(0.010850694444444444,0,0,0.010850694444444444,32.779947916666664,0)" xlink:href="#aQ"/><use transform="matrix(0.010850694444444444,0,0,0.010850694444444444,46.38671875,0)" xlink:href="#af"/><use transform="matrix(0.010850694444444444,0,0,0.010850694444444444,65.85286458333333,0)" xlink:href="#an"/><use transform="matrix(0.010850694444444444,0,0,0.010850694444444444,78.80859375,0)" xlink:href="#ap"/><use transform="matrix(0.010850694444444444,0,0,0.010850694444444444,91.93793402777777,0)" xlink:href="#aq"/></g><path d="M180 0v-1490h510c348 0 508 209 508 474 0 266-160 477-507 477H370V0H180zm190-706h312c236 0 327-133 327-310 0-176-91-307-329-307H370v617" id="aU"/><g id="A"><use transform="matrix(0.010850694444444444,0,0,0.010850694444444444,0,0)" xlink:href="#aU"/><use transform="matrix(0.010850694444444444,0,0,0.010850694444444444,14.192708333333332,0)" xlink:href="#ac"/><use transform="matrix(0.010850694444444444,0,0,0.010850694444444444,26.345486111111104,0)" xlink:href="#as"/></g><g id="B"><use transform="matrix(0.010850694444444444,0,0,0.010850694444444444,0,0)" xlink:href="#ar"/><use transform="matrix(0.010850694444444444,0,0,0.010850694444444444,14.2578125,0)" xlink:href="#aT"/><use transform="matrix(0.010850694444444444,0,0,0.010850694444444444,27.39800347222222,0)" xlink:href="#ab"/><use transform="matrix(0.010850694444444444,0,0,0.010850694444444444,32.779947916666664,0)" xlink:href="#aQ"/><use transform="matrix(0.010850694444444444,0,0,0.010850694444444444,46.38671875,0)" xlink:href="#aQ"/><use transform="matrix(0.010850694444444444,0,0,0.010850694444444444,59.99348958333333,0)" xlink:href="#ab"/><use transform="matrix(0.010850694444444444,0,0,0.010850694444444444,65.37543402777777,0)" xlink:href="#ap"/><use transform="matrix(0.010850694444444444,0,0,0.010850694444444444,78.50477430555554,0)" xlink:href="#ad"/></g><g id="C"><use transform="matrix(0.010850694444444444,0,0,0.010850694444444444,0,0)" xlink:href="#aR"/><use transform="matrix(0.010850694444444444,0,0,0.010850694444444444,14.539930555555555,0)" xlink:href="#ab"/><use transform="matrix(0.010850694444444444,0,0,0.010850694444444444,19.921875,0)" xlink:href="#ak"/><use transform="matrix(0.010850694444444444,0,0,0.010850694444444444,25.303819444444443,0)" xlink:href="#ak"/><use transform="matrix(0.010850694444444444,0,0,0.010850694444444444,30.68576388888889,0)" xlink:href="#at"/></g><path d="M98-1322v-168h1126v168H757V0H567v-1322H98" id="aV"/><path d="M613 24c-304 0-509-231-509-576 0-350 205-580 509-580 216 0 392 114 453 309l-173 49c-33-115-133-197-280-197-223 0-326 196-326 419 0 220 103 415 326 415 150 0 252-85 285-206l172 49C1010-95 832 24 613 24" id="aW"/><g id="D"><use transform="matrix(0.010850694444444444,0,0,0.010850694444444444,0,0)" xlink:href="#aV"/><use transform="matrix(0.010850694444444444,0,0,0.010850694444444444,13.0859375,0)" xlink:href="#ae"/><use transform="matrix(0.010850694444444444,0,0,0.010850694444444444,21.451822916666664,0)" xlink:href="#ac"/><use transform="matrix(0.010850694444444444,0,0,0.010850694444444444,33.93012152777777,0)" xlink:href="#aW"/><use transform="matrix(0.010850694444444444,0,0,0.010850694444444444,46.62543402777778,0)" xlink:href="#aS"/></g><g id="E"><use transform="matrix(0.010850694444444444,0,0,0.010850694444444444,0,0)" xlink:href="#aU"/><use transform="matrix(0.010850694444444444,0,0,0.010850694444444444,14.192708333333332,0)" xlink:href="#ac"/><use transform="matrix(0.010850694444444444,0,0,0.010850694444444444,26.671006944444443,0)" xlink:href="#ae"/><use transform="matrix(0.010850694444444444,0,0,0.010850694444444444,34.66796875,0)" xlink:href="#aW"/><use transform="matrix(0.010850694444444444,0,0,0.010850694444444444,47.36328125,0)" xlink:href="#an"/><use transform="matrix(0.010850694444444444,0,0,0.010850694444444444,60.319010416666664,0)" xlink:href="#ak"/></g><g id="F"><use transform="matrix(0.010850694444444444,0,0,0.010850694444444444,0,0)" xlink:href="#ar"/><use transform="matrix(0.010850694444444444,0,0,0.010850694444444444,14.2578125,0)" xlink:href="#an"/><use transform="matrix(0.010850694444444444,0,0,0.010850694444444444,27.43055555555556,0)" xlink:href="#ac"/><use transform="matrix(0.010850694444444444,0,0,0.010850694444444444,39.90885416666667,0)" xlink:href="#ae"/><use transform="matrix(0.010850694444444444,0,0,0.010850694444444444,47.90581597222222,0)" xlink:href="#aW"/><use transform="matrix(0.010850694444444444,0,0,0.010850694444444444,60.60112847222222,0)" xlink:href="#aT"/></g><path d="M577 24c-279 0-473-224-473-580 0-354 195-576 474-576 218 0 287 134 324 193h14v-551h180V0H922v-173h-20C865-111 790 24 577 24zm27-161c203 0 314-172 314-421 0-247-108-413-314-413-212 0-317 181-317 413 0 235 108 421 317 421" id="aX"/><g id="G"><use transform="matrix(0.010850694444444444,0,0,0.010850694444444444,0,0)" xlink:href="#au"/><use transform="matrix(0.010850694444444444,0,0,0.010850694444444444,16.536458333333332,0)" xlink:href="#aQ"/><use transform="matrix(0.010850694444444444,0,0,0.010850694444444444,30.143229166666664,0)" xlink:href="#aX"/><use transform="matrix(0.010850694444444444,0,0,0.010850694444444444,43.75,0)" xlink:href="#ac"/><use transform="matrix(0.010850694444444444,0,0,0.010850694444444444,56.22829861111112,0)" xlink:href="#aq"/><use transform="matrix(0.010850694444444444,0,0,0.010850694444444444,63.28125000000001,0)" xlink:href="#an"/></g><g id="H"><use transform="matrix(0.010850694444444444,0,0,0.010850694444444444,0,0)" xlink:href="#ar"/><use transform="matrix(0.010850694444444444,0,0,0.010850694444444444,14.2578125,0)" xlink:href="#aq"/><use transform="matrix(0.010850694444444444,0,0,0.010850694444444444,21.63628472222222,0)" xlink:href="#ac"/><use transform="matrix(0.010850694444444444,0,0,0.010850694444444444,34.11458333333333,0)" xlink:href="#aq"/><use transform="matrix(0.010850694444444444,0,0,0.010850694444444444,41.38454861111111,0)" xlink:href="#aj"/><use transform="matrix(0.010850694444444444,0,0,0.010850694444444444,54.52473958333333,0)" xlink:href="#at"/></g><g id="I"><use transform="matrix(0.010850694444444444,0,0,0.010850694444444444,0,0)" xlink:href="#ao"/><use transform="matrix(0.010850694444444444,0,0,0.010850694444444444,20.07378472222222,0)" xlink:href="#ac"/><use transform="matrix(0.010850694444444444,0,0,0.010850694444444444,32.55208333333333,0)" xlink:href="#ap"/><use transform="matrix(0.010850694444444444,0,0,0.010850694444444444,45.68142361111111,0)" xlink:href="#ac"/><use transform="matrix(0.010850694444444444,0,0,0.010850694444444444,58.15972222222221,0)" xlink:href="#ad"/><use transform="matrix(0.010850694444444444,0,0,0.010850694444444444,71.78819444444443,0)" xlink:href="#an"/></g><path d="M678-1118v154H420V0H240v-964H20v-154h220v-149c0-194 155-293 318-293 85 0 141 18 168 30l-50 154c-19-6-47-17-97-17-111 0-159 58-159 166v109h258" id="aY"/><g id="J"><use transform="matrix(0.010850694444444444,0,0,0.010850694444444444,0,0)" xlink:href="#ar"/><use transform="matrix(0.010850694444444444,0,0,0.010850694444444444,14.2578125,0)" xlink:href="#aq"/><use transform="matrix(0.010850694444444444,0,0,0.010850694444444444,21.63628472222222,0)" xlink:href="#ac"/><use transform="matrix(0.010850694444444444,0,0,0.010850694444444444,34.11458333333333,0)" xlink:href="#aY"/><use transform="matrix(0.010850694444444444,0,0,0.010850694444444444,41.47135416666666,0)" xlink:href="#aY"/></g><g id="K"><use transform="matrix(0.010850694444444444,0,0,0.010850694444444444,0,0)" xlink:href="#aO"/><use transform="matrix(0.010850694444444444,0,0,0.010850694444444444,14.192708333333332,0)" xlink:href="#ac"/><use transform="matrix(0.010850694444444444,0,0,0.010850694444444444,26.671006944444443,0)" xlink:href="#aq"/><use transform="matrix(0.010850694444444444,0,0,0.010850694444444444,33.72395833333333,0)" xlink:href="#an"/><use transform="matrix(0.010850694444444444,0,0,0.010850694444444444,46.679687499999986,0)" xlink:href="#at"/></g><path d="M600 0L52-1490h200c166 485 304 806 458 1336 156-533 285-846 449-1336h202L819 0H600" id="aZ"/><path d="M409 0L70-1118h191c89 329 165 560 243 925 75-353 154-601 240-925h192c85 325 161 564 235 922 77-354 157-598 244-922h191L1267 0h-179c-86-307-176-590-250-913C763-588 675-308 588 0H409" id="ba"/><g id="L"><use transform="matrix(0.010850694444444444,0,0,0.010850694444444444,0,0)" xlink:href="#aZ"/><use transform="matrix(0.010850694444444444,0,0,0.010850694444444444,15.33203125,0)" xlink:href="#ab"/><use transform="matrix(0.010850694444444444,0,0,0.010850694444444444,20.713975694444443,0)" xlink:href="#an"/><use transform="matrix(0.010850694444444444,0,0,0.010850694444444444,33.268229166666664,0)" xlink:href="#ba"/></g><g id="M"><use transform="matrix(0.010850694444444444,0,0,0.010850694444444444,0,0)" xlink:href="#ar"/><use transform="matrix(0.010850694444444444,0,0,0.010850694444444444,14.2578125,0)" xlink:href="#aT"/><use transform="matrix(0.010850694444444444,0,0,0.010850694444444444,27.39800347222222,0)" xlink:href="#ab"/><use transform="matrix(0.010850694444444444,0,0,0.010850694444444444,32.779947916666664,0)" xlink:href="#aQ"/><use transform="matrix(0.010850694444444444,0,0,0.010850694444444444,46.38671875,0)" xlink:href="#af"/><use transform="matrix(0.010850694444444444,0,0,0.010850694444444444,65.85286458333333,0)" xlink:href="#an"/><use transform="matrix(0.010850694444444444,0,0,0.010850694444444444,78.80859375,0)" xlink:href="#ap"/><use transform="matrix(0.010850694444444444,0,0,0.010850694444444444,91.93793402777777,0)" xlink:href="#aq"/><use transform="matrix(0.010850694444444444,0,0,0.010850694444444444,98.99088541666666,0)" xlink:href="#at"/></g><g id="N"><use transform="matrix(0.010850694444444444,0,0,0.010850694444444444,0,0)" xlink:href="#aO"/><use transform="matrix(0.010850694444444444,0,0,0.010850694444444444,13.975694444444445,0)" xlink:href="#an"/><use transform="matrix(0.010850694444444444,0,0,0.010850694444444444,26.931423611111104,0)" xlink:href="#aQ"/><use transform="matrix(0.010850694444444444,0,0,0.010850694444444444,40.53819444444444,0)" xlink:href="#am"/><use transform="matrix(0.010850694444444444,0,0,0.010850694444444444,53.86284722222222,0)" xlink:href="#ae"/><use transform="matrix(0.010850694444444444,0,0,0.010850694444444444,62.57595486111111,0)" xlink:href="#aq"/><use transform="matrix(0.010850694444444444,0,0,0.010850694444444444,69.62890625,0)" xlink:href="#at"/></g><path d="M481 0L54-1118h197c107 314 236 620 325 951 87-331 217-637 324-951h197L670 0H481" id="bb"/><g id="O"><use transform="matrix(0.010850694444444444,0,0,0.010850694444444444,0,0)" xlink:href="#aa"/><use transform="matrix(0.010850694444444444,0,0,0.010850694444444444,16.03732638888889,0)" xlink:href="#an"/><use transform="matrix(0.010850694444444444,0,0,0.010850694444444444,28.99305555555556,0)" xlink:href="#ak"/><use transform="matrix(0.010850694444444444,0,0,0.010850694444444444,34.375,0)" xlink:href="#ab"/><use transform="matrix(0.010850694444444444,0,0,0.010850694444444444,39.75694444444444,0)" xlink:href="#bb"/><use transform="matrix(0.010850694444444444,0,0,0.010850694444444444,51.81206597222222,0)" xlink:href="#an"/><use transform="matrix(0.010850694444444444,0,0,0.010850694444444444,64.76779513888889,0)" xlink:href="#ae"/><use transform="matrix(0.010850694444444444,0,0,0.010850694444444444,73.48090277777779,0)" xlink:href="#as"/></g><path d="M784 20c-382 0-662-292-662-764 0-473 280-766 662-766s660 293 660 766c0 472-278 764-660 764zm0-176c266 0 475-207 475-588 0-383-209-590-475-590-268 0-477 208-477 590 0 380 209 588 477 588" id="bc"/><g id="P"><use transform="matrix(0.010850694444444444,0,0,0.010850694444444444,0,0)" xlink:href="#aU"/><use transform="matrix(0.010850694444444444,0,0,0.010850694444444444,14.192708333333332,0)" xlink:href="#bc"/><use transform="matrix(0.010850694444444444,0,0,0.010850694444444444,31.184895833333332,0)" xlink:href="#aa"/></g><g id="Q"><use transform="matrix(0.010850694444444444,0,0,0.010850694444444444,0,0)" xlink:href="#al"/><use transform="matrix(0.010850694444444444,0,0,0.010850694444444444,16.23263888888889,0)" xlink:href="#bc"/><use transform="matrix(0.010850694444444444,0,0,0.010850694444444444,33.224826388888886,0)" xlink:href="#aa"/></g><path fill="#3a414a" d="M490-144L89-616l401-472h319L415-616l394 472H490zm469 0L558-616l401-472h318L883-616l394 472H959" id="bd"/><path fill="#3a414a" d="M128 0v-1118h300V0H128zm150-1264c-91 0-165-68-165-154 0-85 74-154 165-154 90 0 165 69 165 154 0 86-75 154-165 154" id="be"/><path fill="#3a414a" d="M428-647V0H128v-1118h283l4 231c63-156 176-245 348-245 232 0 384 159 384 421V0H847v-659c0-139-76-222-202-222-128 0-217 86-217 234" id="bf"/><path fill="#3a414a" d="M628 22C291 22 81-210 81-554c0-346 210-578 547-578 265 0 455 142 497 372l-279 52c-25-116-99-188-215-188-160 0-244 139-244 341 0 200 84 341 244 341 116 0 193-74 217-195l279 51C1085-123 896 22 628 22" id="bg"/><path fill="#3a414a" d="M428-1490V0H128v-1490h300" id="bh"/><path fill="#3a414a" d="M513 14c-232 0-385-159-385-421v-711h300v659c0 139 76 222 202 222 127 0 217-86 217-234v-647h301V0H864l-4-232C797-74 683 14 513 14" id="bi"/><path fill="#3a414a" d="M537 19C279 19 81-185 81-557c0-382 206-575 454-575 190 0 278 113 318 202h10v-560h300V0H868v-179h-15C812-89 719 19 537 19zm92-241c153 0 240-134 240-336 0-203-86-334-240-334-158 0-240 138-240 334 0 197 84 336 240 336" id="bj"/><path fill="#3a414a" d="M633 22C291 22 81-200 81-553c0-345 210-579 537-579 292 0 525 185 525 567v84H378c7 183 109 277 260 277 105 0 184-46 216-132l272 51C1071-99 893 22 633 22zM380-669h474c-15-146-94-237-233-237-143 0-229 99-241 237" id="bk"/><path fill="#3a414a" d="M543-144l394-472-394-472h319l401 472-401 472H543zm-468 0l394-472-394-472h318l401 472-401 472H75" id="bl"/><g id="R"><use transform="matrix(0.008680555555555556,0,0,0.008680555555555556,0,0)" xlink:href="#bd"/><use transform="matrix(0.008680555555555556,0,0,0.008680555555555556,11.736111111111112,0)" xlink:href="#be"/><use transform="matrix(0.008680555555555556,0,0,0.008680555555555556,16.553819444444446,0)" xlink:href="#bf"/><use transform="matrix(0.008680555555555556,0,0,0.008680555555555556,27.62152777777778,0)" xlink:href="#bg"/><use transform="matrix(0.008680555555555556,0,0,0.008680555555555556,38.08159722222222,0)" xlink:href="#bh"/><use transform="matrix(0.008680555555555556,0,0,0.008680555555555556,42.89930555555556,0)" xlink:href="#bi"/><use transform="matrix(0.008680555555555556,0,0,0.008680555555555556,53.96701388888889,0)" xlink:href="#bj"/><use transform="matrix(0.008680555555555556,0,0,0.008680555555555556,65.17361111111111,0)" xlink:href="#bk"/><use transform="matrix(0.008680555555555556,0,0,0.008680555555555556,75.76388888888889,0)" xlink:href="#bl"/></g><path fill="#3a414a" d="M42 0l360-574-338-544h324c72 124 151 261 209 394 58-134 140-271 215-394h318L785-570 1146 0H824c-79-136-169-280-234-425C528-278 439-134 360 0H42" id="bm"/><path fill="#3a414a" d="M683-1118v229H474v562c0 71 29 104 102 104 23 0 73-7 95-13l43 225C647 9 580 16 520 16 296 16 174-96 174-301v-588H20v-229h154v-266h300v266h209" id="bn"/><g id="S"><use transform="matrix(0.008680555555555556,0,0,0.008680555555555556,0,0)" xlink:href="#bd"/><use transform="matrix(0.008680555555555556,0,0,0.008680555555555556,11.736111111111112,0)" xlink:href="#bk"/><use transform="matrix(0.008680555555555556,0,0,0.008680555555555556,21.970486111111114,0)" xlink:href="#bm"/><use transform="matrix(0.008680555555555556,0,0,0.008680555555555556,32.53472222222223,0)" xlink:href="#bn"/><use transform="matrix(0.008680555555555556,0,0,0.008680555555555556,38.87152777777778,0)" xlink:href="#bk"/><use transform="matrix(0.008680555555555556,0,0,0.008680555555555556,49.46180555555556,0)" xlink:href="#bf"/><use transform="matrix(0.008680555555555556,0,0,0.008680555555555556,60.52951388888889,0)" xlink:href="#bj"/><use transform="matrix(0.008680555555555556,0,0,0.008680555555555556,71.73611111111111,0)" xlink:href="#bl"/></g><path d="M52 0l541-1490h220L1361 0h-200l-149-416H398L254 0H52zm404-582h497c-103-290-145-390-251-756-108 377-145 460-246 756" id="bo"/><g id="T"><use transform="matrix(0.008173828125000001,0,0,0.008173828125000001,0,0)" xlink:href="#bo"/><use transform="matrix(0.008173828125000001,0,0,0.008173828125000001,11.549619140625001,0)" xlink:href="#aW"/><use transform="matrix(0.008173828125000001,0,0,0.008173828125000001,21.112998046875003,0)" xlink:href="#aq"/><use transform="matrix(0.008173828125000001,0,0,0.008173828125000001,26.425986328125003,0)" xlink:href="#am"/><use transform="matrix(0.008173828125000001,0,0,0.008173828125000001,36.46344726562501,0)" xlink:href="#ae"/></g><g id="U"><use transform="matrix(0.010850694444444444,0,0,0.010850694444444444,0,0)" xlink:href="#al"/><use transform="matrix(0.010850694444444444,0,0,0.010850694444444444,16.23263888888889,0)" xlink:href="#am"/><use transform="matrix(0.010850694444444444,0,0,0.010850694444444444,29.557291666666664,0)" xlink:href="#aj"/><use transform="matrix(0.010850694444444444,0,0,0.010850694444444444,42.697482638888886,0)" xlink:href="#ae"/><use transform="matrix(0.010850694444444444,0,0,0.010850694444444444,51.41059027777778,0)" xlink:href="#ab"/><use transform="matrix(0.010850694444444444,0,0,0.010850694444444444,56.79253472222221,0)" xlink:href="#an"/><use transform="matrix(0.010850694444444444,0,0,0.010850694444444444,69.74826388888889,0)" xlink:href="#ae"/></g><g id="V"><use transform="matrix(0.010850694444444444,0,0,0.010850694444444444,0,0)" xlink:href="#ac"/><use transform="matrix(0.010850694444444444,0,0,0.010850694444444444,12.47829861111111,0)" xlink:href="#aX"/><use transform="matrix(0.010850694444444444,0,0,0.010850694444444444,26.085069444444443,0)" xlink:href="#af"/><use transform="matrix(0.010850694444444444,0,0,0.010850694444444444,45.55121527777778,0)" xlink:href="#ab"/><use transform="matrix(0.010850694444444444,0,0,0.010850694444444444,50.93315972222221,0)" xlink:href="#ap"/></g><g id="W"><use transform="matrix(0.010850694444444444,0,0,0.010850694444444444,0,0)" xlink:href="#al"/><use transform="matrix(0.010850694444444444,0,0,0.010850694444444444,16.23263888888889,0)" xlink:href="#aj"/><use transform="matrix(0.010850694444444444,0,0,0.010850694444444444,29.37282986111111,0)" xlink:href="#at"/><use transform="matrix(0.010850694444444444,0,0,0.010850694444444444,41.10243055555556,0)" xlink:href="#aq"/><use transform="matrix(0.010850694444444444,0,0,0.010850694444444444,48.15538194444445,0)" xlink:href="#am"/><use transform="matrix(0.010850694444444444,0,0,0.010850694444444444,61.48003472222223,0)" xlink:href="#af"/><use transform="matrix(0.010850694444444444,0,0,0.010850694444444444,80.94618055555556,0)" xlink:href="#an"/><use transform="matrix(0.010850694444444444,0,0,0.010850694444444444,93.90190972222221,0)" xlink:href="#ae"/></g><g id="X"><use transform="matrix(0.010850694444444444,0,0,0.010850694444444444,0,0)" xlink:href="#aa"/><use transform="matrix(0.010850694444444444,0,0,0.010850694444444444,16.03732638888889,0)" xlink:href="#an"/><use transform="matrix(0.010850694444444444,0,0,0.010850694444444444,28.99305555555556,0)" xlink:href="#ak"/><use transform="matrix(0.010850694444444444,0,0,0.010850694444444444,34.375,0)" xlink:href="#ab"/><use transform="matrix(0.010850694444444444,0,0,0.010850694444444444,39.75694444444444,0)" xlink:href="#bb"/><use transform="matrix(0.010850694444444444,0,0,0.010850694444444444,51.81206597222222,0)" xlink:href="#an"/><use transform="matrix(0.010850694444444444,0,0,0.010850694444444444,64.76779513888889,0)" xlink:href="#ae"/><use transform="matrix(0.010850694444444444,0,0,0.010850694444444444,73.48090277777779,0)" xlink:href="#as"/></g><g id="Y"><use transform="matrix(0.010850694444444444,0,0,0.010850694444444444,0,0)" xlink:href="#ar"/><use transform="matrix(0.010850694444444444,0,0,0.010850694444444444,14.2578125,0)" xlink:href="#aj"/><use transform="matrix(0.010850694444444444,0,0,0.010850694444444444,27.39800347222222,0)" xlink:href="#aQ"/><use transform="matrix(0.010850694444444444,0,0,0.010850694444444444,41.00477430555556,0)" xlink:href="#an"/><use transform="matrix(0.010850694444444444,0,0,0.010850694444444444,53.96050347222222,0)" xlink:href="#ae"/></g><g id="Z"><use transform="matrix(0.010850694444444444,0,0,0.010850694444444444,0,0)" xlink:href="#bo"/><use transform="matrix(0.010850694444444444,0,0,0.010850694444444444,15.33203125,0)" xlink:href="#aX"/><use transform="matrix(0.010850694444444444,0,0,0.010850694444444444,28.938802083333332,0)" xlink:href="#af"/><use transform="matrix(0.010850694444444444,0,0,0.010850694444444444,48.404947916666664,0)" xlink:href="#ab"/><use transform="matrix(0.010850694444444444,0,0,0.010850694444444444,53.78689236111111,0)" xlink:href="#ap"/></g></defs></g></svg>