<svg xmlns="http://www.w3.org/2000/svg" xmlns:xlink="http://www.w3.org/1999/xlink" xmlns:lucid="lucid" width="2737.84" height="2523"><g transform="translate(-178.5 661.5)" lucid:page-tab-id="0_0"><path d="M180-654a6 6 0 0 1 6-6h1928a6 6 0 0 1 6 6v2508a6 6 0 0 1-6 6H186a6 6 0 0 1-6-6z" stroke="#000" stroke-width="3" fill-opacity="0"/><path d="M778.27-500c12.8 0 23.2 10.4 23.2 23.2 0 12.8-10.4 23.2-23.2 23.2H723.2c-12.8 0-23.2-10.4-23.2-23.2 0-12.8 10.4-23.2 23.2-23.2z" stroke="#000" stroke-width="2" fill="#fff"/><use xlink:href="#a" transform="matrix(1,0,0,1,705,-495) translate(22.21527777777778 26.44184027777778)"/><path d="M660-414a6 6 0 0 1 6-6h188a6 6 0 0 1 6 6v88a6 6 0 0 1-6 6H666a6 6 0 0 1-6-6z" stroke="#ff80df" stroke-width="2" fill="#fff0fb"/><use xlink:href="#b" transform="matrix(1,0,0,1,672,-408) translate(36.86610243055555 29.84027777777778)"/><use xlink:href="#c" transform="matrix(1,0,0,1,672,-408) translate(7.3305121527777715 62.10590277777778)"/><use xlink:href="#d" transform="matrix(1,0,0,1,672,-408) translate(90.71809895833333 62.10590277777778)"/><path d="M750.73-451.1v9.48" stroke="#3a414a" stroke-width="3" fill="none"/><path d="M752.2-451.06h-2.94v-1.54h2.95z" stroke="#3a414a" stroke-width=".05" fill="#3a414a"/><path d="M750.73-425.85l-4.63-14.27h9.27z" stroke="#3a414a" stroke-width="3" fill="#3a414a"/><path d="M756.05-265.06a8 8 0 0 1 9.6 0l89.55 67.17a4.5 4.5 0 0 1 0 7.2l-89.55 67.17a8 8 0 0 1-9.6 0L666.5-190.7a4.5 4.5 0 0 1 0-7.2z" stroke="#6db1ff" stroke-width="2" fill="#edf5ff"/><use xlink:href="#e" transform="matrix(1,0,0,1,666.6927083333334,-263.65559895833337) translate(50.21159722222223 61.43598090277778)"/><use xlink:href="#f" transform="matrix(1,0,0,1,666.6927083333334,-263.65559895833337) translate(58.13347222222222 93.70160590277777)"/><path d="M689.7-54a6 6 0 0 1 6-6H826a6 6 0 0 1 6 6v95.14a6 6 0 0 1-6 6H695.7a6 6 0 0 1-6-6z" stroke="#ff80df" stroke-width="2" fill="#fff0fb"/><use xlink:href="#g" transform="matrix(1,0,0,1,701.7124565972223,-48) translate(8.36610243055555 33.99652777777778)"/><use xlink:href="#h" transform="matrix(1,0,0,1,701.7124565972223,-48) translate(30.485243055555557 66.26215277777777)"/><path d="M340-254a6 6 0 0 1 6-6h162.5a6 6 0 0 1 6 6v119.42a6 6 0 0 1-6 6H346a6 6 0 0 1-6-6z" stroke="#ff80df" stroke-width="2" fill="#fff0fb"/><use xlink:href="#i" transform="matrix(1,0,0,1,352,-248) translate(40.555338541666664 29.96527777777778)"/><use xlink:href="#j" transform="matrix(1,0,0,1,352,-248) translate(24.36610243055555 62.23090277777778)"/><use xlink:href="#k" transform="matrix(1,0,0,1,352,-248) translate(31.70659722222223 94.49652777777777)"/><path d="M760-317.5v23.75a.42.42 0 0 0 .42.42.42.42 0 0 1 .43.42v4.62" stroke="#3a414a" stroke-width="3" fill="none"/><path d="M761.48-317.46h-2.96V-319h2.96z" stroke="#3a414a" stroke-width=".05" fill="#3a414a"/><path d="M760.85-272.5l-4.64-14.28h9.28z" stroke="#3a414a" stroke-width="3" fill="#3a414a"/><path d="M661.2-191.8h-8.96v-4.96h8.95zm-26.86 0h-17.9v-4.96h17.9zm-81.67 0h-12.3v-4.96h12.3z" stroke="#e81313" stroke-width=".05" fill="#e81313"/><path d="M664.06-196.28l-.28.97-.1 1 .1 1.03.28.98.24.5h-3.18v-4.96h3.18z" fill="#e81313"/><path stroke="#e81313" stroke-width=".05" fill="#e81313"/><path d="M537.87-189.66l-14.27-4.63 14.26-4.63z" fill="#e81313"/><path d="M540.34-186.25l-24.75-8.04 24.74-8.03zm-8.73-8.04l3.8 1.24v-2.46z" stroke="#e81313" stroke-width=".05" fill="#e81313"/><use xlink:href="#l" transform="matrix(1,0,0,1,575.9738637376519,-205.0455729166667) translate(0.005000000000000782 17.22222222222222)"/><path d="M763.32-101.72h-4.95v-16.7h4.95z" stroke="#008a0e" stroke-width=".05" fill="#008a0e"/><path d="M758.55-121.22l1.14.22 1.15.08L762-121l1.14-.22.18-.06v2.92h-4.95v-2.92z" fill="#008a0e"/><path stroke="#008a0e" stroke-width=".05" fill="#008a0e"/><path d="M760.85-69.1l-3.62-11.1h7.23z" fill="#008a0e"/><path d="M760.85-61.08l-6.22-19.13h5.2l1.02 3.1 1-3.1h5.2z" stroke="#008a0e" stroke-width=".05" fill="#008a0e"/><use xlink:href="#m" transform="matrix(1,0,0,1,743.1293402777778,-101.71674647266387) translate(0.004999999999999005 17.22222222222222)"/><path d="M427.25-125.08v112.65a6 6 0 0 0 6 6h230.6" stroke="#3a414a" stroke-width="5" fill="none"/><path d="M429.73-125.02h-4.95v-2.56h4.95z" stroke="#3a414a" stroke-width=".05" fill="#3a414a"/><path d="M680.62-6.43L666.36-1.8v-9.26z" stroke="#3a414a" stroke-width="5" fill="#3a414a"/><path d="M673.6 95.9a6 6 0 0 1 6-6h162.5a6 6 0 0 1 6 6v119.42a6 6 0 0 1-6 6H679.6a6 6 0 0 1-6-6z" stroke="#ff80df" stroke-width="2" fill="#fff0fb"/><use xlink:href="#n" transform="matrix(1,0,0,1,685.5925759904372,101.90361636231137) translate(48.06944444444445 29.96527777777778)"/><use xlink:href="#o" transform="matrix(1,0,0,1,685.5925759904372,101.90361636231137) translate(25.89605034722223 62.23090277777778)"/><use xlink:href="#p" transform="matrix(1,0,0,1,685.5925759904372,101.90361636231137) translate(39.82834201388889 94.49652777777777)"/><path d="M680.98 270.95a6 6 0 0 1 6-6h162.5a6 6 0 0 1 6 6v119.42a6 6 0 0 1-6 6H687a6 6 0 0 1-6-6z" stroke="#ff80df" stroke-width="2" fill="#fff0fb"/><use xlink:href="#q" transform="matrix(1,0,0,1,692.9829839765483,276.95180818115574) translate(26.601345486111107 45.99652777777778)"/><use xlink:href="#r" transform="matrix(1,0,0,1,692.9829839765483,276.95180818115574) translate(2.9685329861111143 78.26215277777777)"/><use xlink:href="#s" transform="matrix(1,0,0,1,692.9829839765483,276.95180818115574) translate(101.35177951388889 78.26215277777777)"/><path d="M704.8 446a6 6 0 0 1 6-6h119.67a6 6 0 0 1 6 6v87.15a6 6 0 0 1-6 6H710.8a6 6 0 0 1-6-6z" stroke="#ff80df" stroke-width="2" fill="#fff0fb"/><use xlink:href="#t" transform="matrix(1,0,0,1,716.8104863957194,452.0000000000001) translate(11.763671875000007 29.84027777777778)"/><use xlink:href="#u" transform="matrix(1,0,0,1,716.8104863957194,452.0000000000001) translate(11.237413194444443 62.10590277777778)"/><path d="M760.85 48.64v23.88" stroke="#3a414a" fill="none"/><path d="M761.32 48.65h-.95v-.5h.95z" stroke="#3a414a" stroke-width=".05" fill="#3a414a"/><path d="M760.85 87.3L756.2 73h9.28z" stroke="#3a414a" fill="#3a414a"/><path d="M760.85 222.82v19.83a.5.5 0 0 0 .5.5.5.5 0 0 1 .48.48v3.94" stroke="#3a414a" fill="none"/><path d="M761.32 222.84h-.95v-.52h.95z" stroke="#3a414a" stroke-width=".05" fill="#3a414a"/><path d="M761.83 262.33l-4.64-14.26h9.26z" stroke="#3a414a" fill="#3a414a"/><path d="M768.24 397.87v24.75" stroke="#3a414a" fill="none"/><path d="M768.7 397.88h-.94v-.5h.95z" stroke="#3a414a" stroke-width=".05" fill="#3a414a"/><path d="M768.24 437.38l-4.64-14.26h9.27z" stroke="#3a414a" fill="#3a414a"/><path d="M770.64 540.65v19.12a1.2 1.2 0 0 1-1.2 1.2 1.2 1.2 0 0 0-1.2 1.2v3.23" stroke="#3a414a" fill="none"/><path d="M771.12 540.67h-.95v-.52h.95z" stroke="#3a414a" stroke-width=".05" fill="#3a414a"/><path d="M768.24 580.16l-4.64-14.26h9.27z" stroke="#3a414a" fill="#3a414a"/><path d="M680.98 588.78a6 6 0 0 1 6-6h162.5a6 6 0 0 1 6 6V708.2a6 6 0 0 1-6 6H687a6 6 0 0 1-6-6z" stroke="#ff80df" stroke-width="2" fill="#fff0fb"/><use xlink:href="#v" transform="matrix(1,0,0,1,692.9829839765483,594.7825668188445) translate(6.891059027777786 45.99652777777778)"/><use xlink:href="#w" transform="matrix(1,0,0,1,692.9829839765483,594.7825668188445) translate(51.97569444444445 45.99652777777778)"/><use xlink:href="#x" transform="matrix(1,0,0,1,692.9829839765483,594.7825668188445) translate(60.15711805555556 78.26215277777777)"/><path d="M760.68 823.6a8 8 0 0 1 9.6 0l115.9 86.9a4.5 4.5 0 0 1 0 7.2l-115.9 86.92a8 8 0 0 1-9.6 0l-115.88-86.9a4.5 4.5 0 0 1 0-7.2z" stroke="#6db1ff" stroke-width="2" fill="#edf5ff"/><use xlink:href="#y" transform="matrix(1,0,0,1,645,825) translate(74.67709201388888 81.31098090277777)"/><use xlink:href="#z" transform="matrix(1,0,0,1,645,825) translate(56.849401041666674 113.57660590277777)"/><path d="M768.24 716.7v84.13" stroke="#3a414a" stroke-width="3" fill="none"/><path d="M769.7 716.74h-2.94v-1.54h2.95z" stroke="#3a414a" stroke-width=".05" fill="#3a414a"/><path d="M768.24 816.6l-4.64-14.27h9.27z" stroke="#3a414a" stroke-width="3" fill="#3a414a"/><path d="M767.96 1114.14H763v-26.24h4.96zm0-55.82H763v-48.6h4.96z" stroke="#008a0e" stroke-width=".05" fill="#008a0e"/><path d="M763.2 1006.93l1.13.22 1.15.08 1.16-.08 1.13-.22.2-.06v2.92H763v-2.93z" fill="#008a0e"/><path stroke="#008a0e" stroke-width=".05" fill="#008a0e"/><path d="M765.48 1130.9l-4.63-14.26h9.27z" fill="#008a0e"/><path d="M765.48 1138.92l-8.04-24.75h16.08zm-1.23-19.8l1.23 3.78 1.23-3.78z" stroke="#008a0e" stroke-width=".05" fill="#008a0e"/><use xlink:href="#A" transform="matrix(1,0,0,1,743.7603081597222,1058.3251644009708) translate(0.004999999999999005 23.680555555555554)"/><path d="M656.8 1146a6 6 0 0 1 6-6h205.36a6 6 0 0 1 6 6v151.68a6 6 0 0 1-6 6H662.8a6 6 0 0 1-6-6z" stroke="#ff80df" stroke-width="2" fill="#fff0fb"/><use xlink:href="#B" transform="matrix(1,0,0,1,668.807361039959,1152) translate(9.326388888888886 45.86371527777778)"/><use xlink:href="#C" transform="matrix(1,0,0,1,668.807361039959,1152) translate(85.46571180555556 45.86371527777778)"/><use xlink:href="#D" transform="matrix(1,0,0,1,668.807361039959,1152) translate(36.99023437500001 78.12934027777777)"/><use xlink:href="#E" transform="matrix(1,0,0,1,668.807361039959,1152) translate(117.79535590277777 78.12934027777777)"/><use xlink:href="#F" transform="matrix(1,0,0,1,668.807361039959,1152) translate(2.0998263888888857 110.39496527777777)"/><use xlink:href="#G" transform="matrix(1,0,0,1,668.807361039959,1152) translate(104.82335069444444 110.39496527777777)"/><use xlink:href="#H" transform="matrix(1,0,0,1,668.807361039959,1152) translate(169.89496527777777 110.39496527777777)"/><path d="M659.3 1366a6 6 0 0 1 6-6h202.86a6 6 0 0 1 6 6v149.8a6 6 0 0 1-6 6H665.3a6 6 0 0 1-6-6z" stroke="#ff80df" stroke-width="2" fill="#fff0fb"/><use xlink:href="#I" transform="matrix(1,0,0,1,671.3113455572632,1372) translate(8.075954861111114 44.70746527777778)"/><use xlink:href="#J" transform="matrix(1,0,0,1,671.3113455572632,1372) translate(81.2421875 44.70746527777778)"/><use xlink:href="#K" transform="matrix(1,0,0,1,671.3113455572632,1372) translate(161.23350694444443 44.70746527777778)"/><use xlink:href="#L" transform="matrix(1,0,0,1,671.3113455572632,1372) translate(14.429036458333343 76.97309027777777)"/><use xlink:href="#C" transform="matrix(1,0,0,1,671.3113455572632,1372) translate(77.36306423611111 76.97309027777777)"/><use xlink:href="#M" transform="matrix(1,0,0,1,671.3113455572632,1372) translate(58.222439236111114 109.23871527777777)"/><path d="M659.56 1606a6 6 0 0 1 6-6H870.9a6 6 0 0 1 6 6v151.68a6 6 0 0 1-6 6H665.57a6 6 0 0 1-6-6z" stroke="#ff80df" stroke-width="2" fill="#fff0fb"/><use xlink:href="#N" transform="matrix(1,0,0,1,671.5607247552368,1612) translate(48.76323784722222 45.86371527777778)"/><use xlink:href="#O" transform="matrix(1,0,0,1,671.5607247552368,1612) translate(2.5121527777777857 78.12934027777777)"/><use xlink:href="#P" transform="matrix(1,0,0,1,671.5607247552368,1612) translate(100.89539930555556 78.12934027777777)"/><use xlink:href="#Q" transform="matrix(1,0,0,1,671.5607247552368,1612) translate(45.773871527777786 110.39496527777777)"/><use xlink:href="#R" transform="matrix(1,0,0,1,671.5607247552368,1612) translate(91.23828125 110.39496527777777)"/><path d="M1040 1606a6 6 0 0 1 6-6h205.35a6 6 0 0 1 6 6v151.68a6 6 0 0 1-6 6H1046a6 6 0 0 1-6-6z" stroke="#ff80df" stroke-width="2" fill="#fff0fb"/><use xlink:href="#S" transform="matrix(1,0,0,1,1052,1612) translate(8.805555555555571 45.86371527777778)"/><use xlink:href="#o" transform="matrix(1,0,0,1,1052,1612) translate(85.9865451388889 45.86371527777778)"/><use xlink:href="#T" transform="matrix(1,0,0,1,1052,1612) translate(40.701171875 78.12934027777777)"/><use xlink:href="#U" transform="matrix(1,0,0,1,1052,1612) translate(67.32877604166666 78.12934027777777)"/><use xlink:href="#V" transform="matrix(1,0,0,1,1052,1612) translate(44.47721354166667 110.39496527777777)"/><path d="M1400 1616.98a6 6 0 0 1 6-6h176.2a6 6 0 0 1 6 6v129.72a6 6 0 0 1-6 6H1406a6 6 0 0 1-6-6z" stroke="#ff80df" stroke-width="2" fill="#fff0fb"/><use xlink:href="#W" transform="matrix(1,0,0,1,1412,1622.9815591778122) translate(8.406032986111114 34.89496527777778)"/><use xlink:href="#X" transform="matrix(1,0,0,1,1412,1622.9815591778122) translate(90.89301215277779 34.89496527777778)"/><use xlink:href="#Y" transform="matrix(1,0,0,1,1412,1622.9815591778122) translate(36.059027777777786 67.16059027777777)"/><use xlink:href="#Z" transform="matrix(1,0,0,1,1412,1622.9815591778122) translate(108.56336805555556 67.16059027777777)"/><use xlink:href="#aa" transform="matrix(1,0,0,1,1412,1622.9815591778122) translate(29.03862847222223 99.42621527777777)"/><use xlink:href="#ab" transform="matrix(1,0,0,1,1412,1622.9815591778122) translate(105.81814236111111 99.42621527777777)"/><path d="M340 870.54a6 6 0 0 1 6-6h119.66a6 6 0 0 1 6 6v87.15a6 6 0 0 1-6 6H346a6 6 0 0 1-6-6z" stroke="#ff80df" stroke-width="2" fill="#fff0fb"/><use xlink:href="#ac" transform="matrix(1,0,0,1,352,876.5357259114584) translate(26.298177083333336 29.84027777777778)"/><use xlink:href="#ad" transform="matrix(1,0,0,1,352,876.5357259114584) translate(8.172092013888893 62.10590277777778)"/><path d="M639.5 916.6h-8.88v-4.96h8.88zm-26.63 0h-17.74v-4.96h17.75zm-74.27 0h-14.46v-4.96h14.46zm-32.2 0h-8.88v-4.96h8.87zm70.98 0h-1.32v-4.96h1.32z" stroke="#e81313" stroke-width=".05" fill="#e81313"/><path d="M642.37 912.12l-.28.98-.1 1 .1 1.03.27.98.24.5h-3.17v-4.96h3.18z" fill="#e81313"/><path stroke="#e81313" stroke-width=".05" fill="#e81313"/><path d="M495.02 918.75l-14.27-4.64 14.27-4.62z" fill="#e81313"/><path d="M497.5 922.15l-24.76-8.04 24.75-8.03zm-8.74-8.04l3.78 1.24v-2.46z" stroke="#e81313" stroke-width=".05" fill="#e81313"/><use xlink:href="#ae" transform="matrix(1,0,0,1,538.5962011172505,899.3241373697916) translate(0.004999999999999005 23.680555555555554)"/><path d="M405.83 861.04V654.5a6 6 0 0 1 6-6h243.3" stroke="#3a414a" stroke-width="5" fill="none"/><path d="M408.3 863.54h-4.94v-2.57h4.95z" stroke="#3a414a" stroke-width=".05" fill="#3a414a"/><path d="M671.9 648.5l-14.27 4.63v-9.27z" stroke="#3a414a" stroke-width="5" fill="#3a414a"/><path d="M765.48 1306.18v32.2" stroke="#3a414a" stroke-width="3" fill="none"/><path d="M766.96 1306.22H764v-1.54h2.96z" stroke="#3a414a" stroke-width=".05" fill="#3a414a"/><path d="M765.48 1354.15l-4.63-14.27h9.27z" stroke="#3a414a" stroke-width="3" fill="#3a414a"/><path d="M766.74 1524.3v54.08" stroke="#3a414a" stroke-width="3" fill="none"/><path d="M768.2 1524.34h-2.94v-1.54h2.95z" stroke="#3a414a" stroke-width=".05" fill="#3a414a"/><path d="M766.74 1594.15l-4.64-14.27h9.27z" stroke="#3a414a" stroke-width="3" fill="#3a414a"/><path d="M879.4 1681.84h138.98" stroke="#3a414a" stroke-width="3" fill="none"/><path d="M879.45 1683.32h-1.54v-2.95h1.55z" stroke="#3a414a" stroke-width=".05" fill="#3a414a"/><path d="M1034.15 1681.84l-14.27 4.64v-9.27z" stroke="#3a414a" stroke-width="3" fill="#3a414a"/><path d="M1259.85 1681.84h118.53" stroke="#3a414a" stroke-width="3" fill="none"/><path d="M1259.9 1683.32h-1.55v-2.95h1.54z" stroke="#3a414a" stroke-width=".05" fill="#3a414a"/><path d="M1394.15 1681.84l-14.27 4.64v-9.27z" stroke="#3a414a" stroke-width="3" fill="#3a414a"/><path d="M1387.62 1367.43a6 6 0 0 1 6-6h200.95a6 6 0 0 1 6 6v148.37a6 6 0 0 1-6 6h-200.95a6 6 0 0 1-6-6z" stroke="#ff80df" stroke-width="2" fill="#fff0fb"/><use xlink:href="#W" transform="matrix(1,0,0,1,1399.619357638889,1373.4300143604253) translate(20.406032986111114 44.27191840277778)"/><use xlink:href="#X" transform="matrix(1,0,0,1,1399.619357638889,1373.4300143604253) translate(102.89301215277779 44.27191840277778)"/><use xlink:href="#Y" transform="matrix(1,0,0,1,1399.619357638889,1373.4300143604253) translate(35.38541666666667 76.53754340277777)"/><use xlink:href="#af" transform="matrix(1,0,0,1,1399.619357638889,1373.4300143604253) translate(107.88975694444444 76.53754340277777)"/><use xlink:href="#ag" transform="matrix(1,0,0,1,1399.619357638889,1373.4300143604253) translate(134.5173611111111 76.53754340277777)"/><use xlink:href="#ah" transform="matrix(1,0,0,1,1399.619357638889,1373.4300143604253) translate(8.025390625 108.80316840277777)"/><use xlink:href="#ai" transform="matrix(1,0,0,1,1399.619357638889,1373.4300143604253) translate(85.71636284722221 108.80316840277777)"/><use xlink:href="#aj" transform="matrix(1,0,0,1,1399.619357638889,1373.4300143604253) translate(135.94422743055554 108.80316840277777)"/><path d="M1406.84 1186a6 6 0 0 1 6-6h162.5a6 6 0 0 1 6 6v119.42a6 6 0 0 1-6 6h-162.5a6 6 0 0 1-6-6z" stroke="#ff80df" stroke-width="2" fill="#fff0fb"/><use xlink:href="#ak" transform="matrix(1,0,0,1,1418.8401888376595,1192) translate(24.36610243055555 45.99652777777778)"/><use xlink:href="#G" transform="matrix(1,0,0,1,1418.8401888376595,1192) translate(10.113715277777771 78.26215277777777)"/><use xlink:href="#al" transform="matrix(1,0,0,1,1418.8401888376595,1192) translate(75.1853298611111 78.26215277777777)"/><path d="M1494.1 1608.48v-65.06" stroke="#3a414a" stroke-width="3" fill="none"/><path d="M1495.57 1609.98h-2.95v-1.54h2.95z" stroke="#3a414a" stroke-width=".05" fill="#3a414a"/><path d="M1494.1 1527.65l4.63 14.27h-9.27z" stroke="#3a414a" stroke-width="3" fill="#3a414a"/><path d="M1494.1 1358.93v-25.9" stroke="#3a414a" stroke-width="3" fill="none"/><path d="M1495.57 1360.43h-2.95v-1.54h2.95z" stroke="#3a414a" stroke-width=".05" fill="#3a414a"/><path d="M1494.1 1317.27l4.63 14.27h-9.27z" stroke="#3a414a" stroke-width="3" fill="#3a414a"/><path d="M1489.3 943.6a8 8 0 0 1 9.6 0l103.4 77.56a4.5 4.5 0 0 1 0 7.2l-103.4 77.56a8 8 0 0 1-9.6 0l-103.42-77.56a4.5 4.5 0 0 1 0-7.2z" stroke="#6db1ff" stroke-width="2" fill="#edf5ff"/><use xlink:href="#am" transform="matrix(1,0,0,1,1386.0780164930557,945) translate(58.40105034722223 71.84027777777777)"/><use xlink:href="#an" transform="matrix(1,0,0,1,1386.0780164930557,945) translate(52.66103298611112 104.10590277777777)"/><path d="M1494.1 1177.5v-48.35" stroke="#3a414a" stroke-width="3" fill="none"/><path d="M1495.57 1179h-2.95v-1.54h2.95z" stroke="#3a414a" stroke-width=".05" fill="#3a414a"/><path d="M1494.1 1113.38l4.63 14.27h-9.27z" stroke="#3a414a" stroke-width="3" fill="#3a414a"/><path d="M1496.57 938.5h-4.95v-69.46h4.95zm0-99.04h-4.95v-47.1h4.95z" stroke="#008a0e" stroke-width=".05" fill="#008a0e"/><path d="M1496.57 941.36l-.18-.07-1.15-.23-1.16-.07-1.16.07-1.14.22-.18.06v-2.93h4.95z" fill="#008a0e"/><path stroke="#008a0e" stroke-width=".05" fill="#008a0e"/><path d="M1498.73 789.86h-9.27l4.63-14.27z" fill="#008a0e"/><path d="M1502.14 792.33h-16.1l8.05-24.75zm-9.28-4.95h2.46l-1.23-3.78z" stroke="#008a0e" stroke-width=".05" fill="#008a0e"/><use xlink:href="#A" transform="matrix(1,0,0,1,1472.370876736111,839.46161718102) translate(0.004999999999999005 23.680555555555554)"/><path d="M1082.85 1186a6 6 0 0 1 6-6h162.5a6 6 0 0 1 6 6v119.42a6 6 0 0 1-6 6h-162.5a6 6 0 0 1-6-6z" stroke="#ff80df" stroke-width="2" fill="#fff0fb"/><use xlink:href="#ao" transform="matrix(1,0,0,1,1094.844518442623,1192) translate(28.218098958333336 29.96527777777778)"/><use xlink:href="#ap" transform="matrix(1,0,0,1,1094.844518442623,1192) translate(39.77951388888889 62.23090277777778)"/><use xlink:href="#aq" transform="matrix(1,0,0,1,1094.844518442623,1192) translate(31.516710069444443 94.49652777777777)"/><path d="M1172.57 1154.14h-4.95v-10.28h4.95zm0-30.84h-4.95v-20.57h4.95zm0-41.13h-4.95v-20.56h4.95zm10.1-54.93h-6.47l-.65.05-.54.12-.5.2-.47.3-.42.36-.35.4-.3.48-.2.5-.13.55-.05.66v10.18h-4.95v-10.38l.1-1.23.3-1.3.52-1.22.7-1.12.86-1.02 1-.86 1.15-.7 1.23-.5 1.3-.32 1.22-.1h6.65zm197.9 0h-10.22v-4.95h10.22zm-30.67 0h-20.45v-4.95h20.45zm-40.9 0h-20.44v-4.95H1309zm-40.9 0h-20.43v-4.95h20.44zm-40.88 0h-10.94v-4.95h10.94z" stroke="#e81313" stroke-width=".05" fill="#e81313"/><path d="M1383.45 1022.77l-.28.98-.1 1 .1 1.03.28.98.24.48h-3.2v-4.95h3.2z" fill="#e81313"/><path stroke="#e81313" stroke-width=".05" fill="#e81313"/><path d="M1170.1 1170.9l-4.64-14.26h9.27z" fill="#e81313"/><path d="M1170.1 1178.92l-8.04-24.75h16.08zm-1.23-19.8l1.23 3.78 1.23-3.78z" stroke="#e81313" stroke-width=".05" fill="#e81313"/><use xlink:href="#ar" transform="matrix(1,0,0,1,1182.6554781017217,1009.9735514322916) translate(0.004999999999999005 23.680555555555554)"/><path d="M1170.1 1313.92v121.7a6 6 0 0 0 6 6H1366" stroke="#3a414a" stroke-width="3" fill="none"/><path d="M1171.57 1313.96h-2.95v-1.54h2.95z" stroke="#3a414a" stroke-width=".05" fill="#3a414a"/><path d="M1381.77 1441.62l-14.27 4.63v-9.27z" stroke="#3a414a" stroke-width="3" fill="#3a414a"/><path d="M1396.83 626a6 6 0 0 1 6-6h182.53a6 6 0 0 1 6 6v134.5a6 6 0 0 1-6 6h-182.53a6 6 0 0 1-6-6z" stroke="#ff80df" stroke-width="2" fill="#fff0fb"/><g><use xlink:href="#as" transform="matrix(1,0,0,1,1408.826171875,632) translate(8.232204861111114 37.38324652777778)"/><use xlink:href="#at" transform="matrix(1,0,0,1,1408.826171875,632) translate(100.45225694444446 37.38324652777778)"/><use xlink:href="#au" transform="matrix(1,0,0,1,1408.826171875,632) translate(13.321180555555557 69.64887152777777)"/><use xlink:href="#av" transform="matrix(1,0,0,1,1408.826171875,632) translate(84.76215277777777 69.64887152777777)"/><use xlink:href="#aw" transform="matrix(1,0,0,1,1408.826171875,632) translate(128.41449652777777 69.64887152777777)"/><use xlink:href="#ax" transform="matrix(1,0,0,1,1408.826171875,632) translate(42.51497395833333 101.91449652777777)"/></g><path d="M1406.84 426a6 6 0 0 1 6-6h162.5a6 6 0 0 1 6 6v119.42a6 6 0 0 1-6 6h-162.5a6 6 0 0 1-6-6z" stroke="#ff80df" stroke-width="2" fill="#fff0fb"/><g><use xlink:href="#ay" transform="matrix(1,0,0,1,1418.8401888376595,432) translate(2.002821180555557 45.99652777777778)"/><use xlink:href="#az" transform="matrix(1,0,0,1,1418.8401888376595,432) translate(91.93337673611111 45.99652777777778)"/><use xlink:href="#aA" transform="matrix(1,0,0,1,1418.8401888376595,432) translate(18.615234375 78.26215277777777)"/><use xlink:href="#aB" transform="matrix(1,0,0,1,1418.8401888376595,432) translate(46.414713541666664 78.26215277777777)"/></g><path d="M1494.1 617.5v-44.46" stroke="#3a414a" stroke-width="3" fill="none"/><path d="M1495.57 619h-2.95v-1.54h2.95z" stroke="#3a414a" stroke-width=".05" fill="#3a414a"/><path d="M1494.1 557.27l4.63 14.27h-9.27z" stroke="#3a414a" stroke-width="3" fill="#3a414a"/><path d="M1489.3 157.9a8 8 0 0 1 9.6 0l121.8 91.35a4.5 4.5 0 0 1 0 7.2l-121.8 91.37a8 8 0 0 1-9.6 0l-121.83-91.37a4.5 4.5 0 0 1 0-7.2z" stroke="#6db1ff" stroke-width="2" fill="#edf5ff"/><g><use xlink:href="#aC" transform="matrix(1,0,0,1,1367.6746961805557,159.2903645833333) translate(37.25261284722222 86.15277777777777)"/><use xlink:href="#aD" transform="matrix(1,0,0,1,1367.6746961805557,159.2903645833333) translate(97.08334201388888 86.15277777777777)"/><use xlink:href="#U" transform="matrix(1,0,0,1,1367.6746961805557,159.2903645833333) translate(129.78733506944445 86.15277777777777)"/><use xlink:href="#aE" transform="matrix(1,0,0,1,1367.6746961805557,159.2903645833333) translate(74.014765625 118.41840277777777)"/></g><path d="M1406.84-78.28a6 6 0 0 1 6-6h162.5a6 6 0 0 1 6 6V41.14a6 6 0 0 1-6 6h-162.5a6 6 0 0 1-6-6z" stroke="#ff80df" stroke-width="2" fill="#fff0fb"/><g><use xlink:href="#aF" transform="matrix(1,0,0,1,1418.8401888376595,-72.2793263460219) translate(8.963541666666671 29.96527777777778)"/><use xlink:href="#aG" transform="matrix(1,0,0,1,1418.8401888376595,-72.2793263460219) translate(88.45572916666666 29.96527777777778)"/><use xlink:href="#aD" transform="matrix(1,0,0,1,1418.8401888376595,-72.2793263460219) translate(16.16297743055555 62.23090277777778)"/><use xlink:href="#U" transform="matrix(1,0,0,1,1418.8401888376595,-72.2793263460219) translate(48.86697048611111 62.23090277777778)"/><use xlink:href="#aH" transform="matrix(1,0,0,1,1418.8401888376595,-72.2793263460219) translate(29.672092013888893 94.49652777777777)"/></g><path d="M1740 6a6 6 0 0 1 6-6h162.5a6 6 0 0 1 6 6v119.42a6 6 0 0 1-6 6H1746a6 6 0 0 1-6-6z" stroke="#ff80df" stroke-width="2" fill="#fff0fb"/><g><use xlink:href="#aI" transform="matrix(1,0,0,1,1752,12) translate(37.381510416666664 29.96527777777778)"/><use xlink:href="#aJ" transform="matrix(1,0,0,1,1752,12) translate(28.91254340277777 62.23090277777778)"/><use xlink:href="#aK" transform="matrix(1,0,0,1,1752,12) translate(42.372829861111114 94.49652777777777)"/></g><path d="M1740-174a6 6 0 0 1 6-6h162.5a6 6 0 0 1 6 6v119.42a6 6 0 0 1-6 6H1746a6 6 0 0 1-6-6z" stroke="#ff80df" stroke-width="2" fill="#fff0fb"/><g><use xlink:href="#aL" transform="matrix(1,0,0,1,1752,-168) translate(48.769314236111114 29.96527777777778)"/><use xlink:href="#o" transform="matrix(1,0,0,1,1752,-168) translate(25.89605034722223 62.23090277777778)"/><use xlink:href="#aM" transform="matrix(1,0,0,1,1752,-168) translate(25.83637152777778 94.49652777777777)"/></g><path d="M1494.1 417.5v-46.46" stroke="#3a414a" stroke-width="3" fill="none"/><path d="M1495.57 419h-2.95v-1.54h2.95z" stroke="#3a414a" stroke-width=".05" fill="#3a414a"/><path d="M1494.1 355.27l4.63 14.27h-9.27z" stroke="#3a414a" stroke-width="3" fill="#3a414a"/><path d="M1496.57 152.8h-4.95v-36.3h4.95zm0-65.87h-4.95V73h4.95z" stroke="#008a0e" stroke-width=".05" fill="#008a0e"/><path d="M1496.57 155.65l-.18-.06-1.15-.24-1.16-.07-1.16.06-1.14.22-.18.07v-2.93h4.95z" fill="#008a0e"/><path stroke="#008a0e" stroke-width=".05" fill="#008a0e"/><path d="M1498.73 70.5h-9.27l4.63-14.27z" fill="#008a0e"/><path d="M1502.14 72.97h-16.1l8.05-24.75zm-9.28-4.95h2.46l-1.23-3.78z" stroke="#008a0e" stroke-width=".05" fill="#008a0e"/><g><use xlink:href="#aN" transform="matrix(1,0,0,1,1472.370876736111,86.92571630974528) translate(0.004999999999999005 23.680555555555554)"/></g><path d="M1635.78 255.33h-9.76v-4.95h9.76zm39.05 0h-19.53v-4.95h19.53zm39.04 0h-19.52v-4.95h19.52zm39.05 0h-19.52v-4.95h19.52zm76.8-8.38l-.1 1.23-.3 1.3-.5 1.23-.7 1.14-.87 1-1 .88-1.14.7-1.22.5-1.3.3-1.23.1h-9.86v-4.94h9.66l.64-.05.54-.13.5-.2.48-.3.42-.36.36-.42.3-.47.2-.5.13-.54.05-.64v-11.1h4.95zm0-33.7h-4.94v-22.38h4.95zm0-44.78h-4.94v-11.2h4.95z" stroke="#e81313" stroke-width=".05" fill="#e81313"/><path d="M1626.08 255.33h-3.18l.24-.48.28-.98.1-1.02-.1-1-.28-1-.24-.47h3.18z" fill="#e81313"/><path stroke="#e81313" stroke-width=".05" fill="#e81313"/><path d="M1831.9 154.78h-9.28l4.63-14.27z" fill="#e81313"/><path d="M1835.3 157.25h-16.1l8.05-24.75zm-9.27-4.95h2.45l-1.23-3.78z" stroke="#e81313" stroke-width=".05" fill="#e81313"/><g><use xlink:href="#aO" transform="matrix(1,0,0,1,1768.7918946121613,238.06640624999991) translate(0.004999999999999005 23.680555555555554)"/></g><path d="M1727.27-373.18a6 6 0 0 1 6-6h187.97a6 6 0 0 1 6 6v138.6a6 6 0 0 1-6 6h-187.97a6 6 0 0 1-6-6z" stroke="#ff80df" stroke-width="2" fill="#fff0fb"/><g><use xlink:href="#aP" transform="matrix(1,0,0,1,1739.2678840790072,-367.1767671896434) translate(8.014105902777771 55.26215277777778)"/><use xlink:href="#aQ" transform="matrix(1,0,0,1,1739.2678840790072,-367.1767671896434) translate(116.53190104166667 55.26215277777778)"/><use xlink:href="#aR" transform="matrix(1,0,0,1,1739.2678840790072,-367.1767671896434) translate(4.286892361111114 87.52777777777777)"/><use xlink:href="#aS" transform="matrix(1,0,0,1,1739.2678840790072,-367.1767671896434) translate(96.50694444444446 87.52777777777777)"/></g><path d="M2896.5-176.3v-46.95M2896.5-176.34v2.05" stroke="#3a414a" stroke-width="4" fill="none"/><path d="M2901.33-232.43l-2.53 14.8-8.2-4.33z" stroke="#3a414a" stroke-width="4" fill="#3a414a"/><path d="M1827.25-2.5v-24.46" stroke="#3a414a" stroke-width="3" fill="none"/><path d="M1828.73-1h-2.95v-1.54h2.95z" stroke="#3a414a" stroke-width=".05" fill="#3a414a"/><path d="M1827.25-42.73l4.64 14.27h-9.28z" stroke="#3a414a" stroke-width="3" fill="#3a414a"/><path d="M1827.25-182.5v-24.46" stroke="#3a414a" stroke-width="3" fill="none"/><path d="M1828.73-181h-2.95v-1.54h2.95z" stroke="#3a414a" stroke-width=".05" fill="#3a414a"/><path d="M1827.25-222.73l4.64 14.27h-9.28z" stroke="#3a414a" stroke-width="3" fill="#3a414a"/><path d="M1583.85-18.57h70.82a6 6 0 0 1 6 6V59.7a6 6 0 0 0 6 6h51.7" stroke="#3a414a" stroke-width="3" fill="none"/><path d="M1583.9-17.1h-1.55v-2.95h1.54z" stroke="#3a414a" stroke-width=".05" fill="#3a414a"/><path d="M1734.15 65.7l-14.27 4.64v-9.27z" stroke="#3a414a" stroke-width="3" fill="#3a414a"/><path d="M1827.25-381.68v-29.8" stroke="#3a414a" stroke-width="3" fill="none"/><path d="M1828.73-380.18h-2.95v-1.53h2.95z" stroke="#3a414a" stroke-width=".05" fill="#3a414a"/><path d="M1827.25-427.25l4.64 14.27h-9.28z" stroke="#3a414a" stroke-width="3" fill="#3a414a"/><path d="M1863.6-480c12.83 0 23.2 10.4 23.2 23.2 0 12.8-10.37 23.2-23.2 23.2h-72.7c-12.82 0-23.2-10.4-23.2-23.2 0-12.8 10.38-23.2 23.2-23.2z" stroke="#000" stroke-width="3" fill="#fff"/><g><use xlink:href="#aT" transform="matrix(1,0,0,1,1772.6941118084014,-475) translate(34.95334201388889 26.44184027777778)"/></g><defs><path d="M538 24C308 24 148-78 108-271l171-41c32 123 123 178 257 178 156 0 256-77 256-169 0-77-54-128-164-154l-186-44c-203-48-300-148-300-305 0-192 176-326 414-326 230 0 351 112 402 269l-163 42c-31-80-94-158-238-158-133 0-233 69-233 162 0 83 57 129 188 160l169 40c203 48 298 149 298 302 0 196-179 339-441 339" id="aU"/><path d="M598-1118v154H368v674c0 100 37 144 132 144 23 0 62-6 92-12L629-6c-37 13-88 20-134 20-193 0-307-107-307-290v-688H20v-154h168v-266h180v266h230" id="aV"/><path d="M471 26C259 26 90-98 90-318c0-256 228-303 435-329 202-27 287-16 287-108 0-139-79-219-234-219-161 0-248 86-283 164l-173-57c86-203 278-265 451-265 150 0 419 46 419 395V0H815v-152h-12C765-73 660 26 471 26zm31-159c199 0 310-134 310-271v-155c-30 35-226 55-295 64-131 17-246 59-246 186 0 116 97 176 231 176" id="aW"/><path d="M158 0v-1118h174v172h12c41-113 157-188 290-188 26 0 70 2 91 3v181c-11-2-60-10-108-10-161 0-279 109-279 260V0H158" id="aX"/><g id="a"><use transform="matrix(0.010850694444444444,0,0,0.010850694444444444,0,0)" xlink:href="#aU"/><use transform="matrix(0.010850694444444444,0,0,0.010850694444444444,11.729600694444445,0)" xlink:href="#aV"/><use transform="matrix(0.010850694444444444,0,0,0.010850694444444444,19.108072916666668,0)" xlink:href="#aW"/><use transform="matrix(0.010850694444444444,0,0,0.010850694444444444,31.586371527777775,0)" xlink:href="#aX"/><use transform="matrix(0.010850694444444444,0,0,0.010850694444444444,40.299479166666664,0)" xlink:href="#aV"/></g><path d="M783 20c-382 0-661-292-661-764 0-473 279-766 661-766 302 0 548 182 601 489h-190c-42-204-217-313-411-313-268 0-476 208-476 590 0 381 209 588 476 588 195 0 369-110 411-313h190c-52 303-296 489-601 489" id="aY"/><path d="M537 14c-226 0-379-139-379-422v-710h180v695c0 172 97 275 253 275 160 0 281-109 281-300v-670h181V0H879v-209C806-46 684 14 537 14" id="aZ"/><path d="M613 24c-304 0-509-231-509-576 0-350 205-580 509-580 305 0 511 230 511 580 0 345-206 576-511 576zm0-161c226 0 329-195 329-415 0-222-103-419-329-419-223 0-326 196-326 419 0 220 103 415 326 415" id="ba"/><path d="M158 0v-1118h175l1 205c55-151 181-225 313-225 147 0 245 90 285 228 53-141 190-228 352-228 194 0 352 125 352 384V0h-181v-749c0-161-105-225-225-225-151 0-243 103-243 244V0H807v-767c0-124-93-207-219-207-131 0-250 92-250 270V0H158" id="bb"/><path d="M628 24c-324 0-524-230-524-574 0-343 198-582 503-582 237 0 487 146 487 559v75H286c9 234 145 362 343 362 132 0 231-58 273-172l174 48C1024-91 857 24 628 24zM287-650h624c-17-190-120-322-304-322-192 0-309 151-320 322" id="bc"/><g id="b"><use transform="matrix(0.010850694444444444,0,0,0.010850694444444444,0,0)" xlink:href="#aY"/><use transform="matrix(0.010850694444444444,0,0,0.010850694444444444,16.23263888888889,0)" xlink:href="#aZ"/><use transform="matrix(0.010850694444444444,0,0,0.010850694444444444,29.37282986111111,0)" xlink:href="#aU"/><use transform="matrix(0.010850694444444444,0,0,0.010850694444444444,41.10243055555556,0)" xlink:href="#aV"/><use transform="matrix(0.010850694444444444,0,0,0.010850694444444444,48.15538194444445,0)" xlink:href="#ba"/><use transform="matrix(0.010850694444444444,0,0,0.010850694444444444,61.48003472222223,0)" xlink:href="#bb"/><use transform="matrix(0.010850694444444444,0,0,0.010850694444444444,80.94618055555556,0)" xlink:href="#bc"/><use transform="matrix(0.010850694444444444,0,0,0.010850694444444444,93.90190972222221,0)" xlink:href="#aX"/></g><path d="M52 0l541-1490h220L1361 0h-200l-149-416H398L254 0H52zm404-582h497c-103-290-145-390-251-756-108 377-145 460-246 756" id="bd"/><path d="M613 24c-304 0-509-231-509-576 0-350 205-580 509-580 216 0 392 114 453 309l-173 49c-33-115-133-197-280-197-223 0-326 196-326 419 0 220 103 415 326 415 150 0 252-85 285-206l172 49C1010-95 832 24 613 24" id="be"/><g id="c"><use transform="matrix(0.010850694444444444,0,0,0.010850694444444444,0,0)" xlink:href="#bd"/><use transform="matrix(0.010850694444444444,0,0,0.010850694444444444,15.33203125,0)" xlink:href="#be"/><use transform="matrix(0.010850694444444444,0,0,0.010850694444444444,28.02734375,0)" xlink:href="#be"/><use transform="matrix(0.010850694444444444,0,0,0.010850694444444444,40.72265625,0)" xlink:href="#bc"/><use transform="matrix(0.010850694444444444,0,0,0.010850694444444444,53.678385416666664,0)" xlink:href="#aU"/><use transform="matrix(0.010850694444444444,0,0,0.010850694444444444,65.40798611111111,0)" xlink:href="#aU"/></g><path d="M657 26c-323 0-524-166-541-416h195c15 169 171 246 346 246 202 0 356-106 356-265 5-203-294-238-475-293-239-73-380-191-380-389 0-252 224-419 512-419 294 0 499 171 508 396H992c-17-145-151-228-328-228-193 0-321 102-321 242 0 156 175 211 284 241l149 41c160 44 422 134 422 412 0 244-197 432-541 432" id="bf"/><path d="M140 405l46-156c120 36 205 19 263-150l32-93L54-1118h197c107 313 237 620 324 950 87-331 219-637 326-950h196L606 167c-68 178-176 259-334 259-64 0-113-12-132-21" id="bg"/><g id="d"><use transform="matrix(0.010850694444444444,0,0,0.010850694444444444,0,0)" xlink:href="#bf"/><use transform="matrix(0.010850694444444444,0,0,0.010850694444444444,14.2578125,0)" xlink:href="#bg"/><use transform="matrix(0.010850694444444444,0,0,0.010850694444444444,26.74696180555556,0)" xlink:href="#aU"/><use transform="matrix(0.010850694444444444,0,0,0.010850694444444444,38.4765625,0)" xlink:href="#aV"/><use transform="matrix(0.010850694444444444,0,0,0.010850694444444444,45.5295138888889,0)" xlink:href="#bc"/><use transform="matrix(0.010850694444444444,0,0,0.010850694444444444,58.48524305555555,0)" xlink:href="#bb"/></g><path d="M338-670V0H158v-1118h173l1 207c72-158 192-221 342-221 226 0 378 139 378 422V0H872v-695c0-172-96-275-252-275-161 0-282 109-282 300" id="bh"/><g id="e"><use transform="matrix(0.010850694444444444,0,0,0.010850694444444444,0,0)" xlink:href="#bd"/><use transform="matrix(0.010850694444444444,0,0,0.010850694444444444,15.33203125,0)" xlink:href="#be"/><use transform="matrix(0.010850694444444444,0,0,0.010850694444444444,28.02734375,0)" xlink:href="#be"/><use transform="matrix(0.010850694444444444,0,0,0.010850694444444444,40.72265625,0)" xlink:href="#ba"/><use transform="matrix(0.010850694444444444,0,0,0.010850694444444444,54.04730902777778,0)" xlink:href="#aZ"/><use transform="matrix(0.010850694444444444,0,0,0.010850694444444444,67.1875,0)" xlink:href="#bh"/><use transform="matrix(0.010850694444444444,0,0,0.010850694444444444,80.31684027777777,0)" xlink:href="#aV"/></g><path d="M180 0v-1490h908v168H370v486h669v168H370v500h727V0H180" id="bi"/><path d="M65 0l393-574-370-544h210c88 136 192 297 267 435 67-142 176-302 264-435h206L661-564 1053 0H844c-94-144-206-310-287-458C484-308 366-142 273 0H65" id="bj"/><path d="M158 0v-1118h180V0H158zm91-1301c-68 0-125-53-125-119s57-119 125-119c69 0 126 53 126 119s-57 119-126 119" id="bk"/><path d="M383-449c-3-277 82-343 222-425 88-53 156-134 156-250 0-139-108-227-243-227-118 0-235 70-246 236H82c10-251 200-395 436-395 259 0 427 165 427 393 0 161-74 273-203 352-132 80-180 132-178 316H383zm93 462c-75 0-135-60-135-134 0-75 60-135 135-135 74 0 134 60 134 135 0 74-60 134-134 134" id="bl"/><g id="f"><use transform="matrix(0.010850694444444444,0,0,0.010850694444444444,0,0)" xlink:href="#bi"/><use transform="matrix(0.010850694444444444,0,0,0.010850694444444444,13.35720486111111,0)" xlink:href="#bj"/><use transform="matrix(0.010850694444444444,0,0,0.010850694444444444,25.48828125,0)" xlink:href="#bk"/><use transform="matrix(0.010850694444444444,0,0,0.010850694444444444,30.870225694444443,0)" xlink:href="#aU"/><use transform="matrix(0.010850694444444444,0,0,0.010850694444444444,42.599826388888886,0)" xlink:href="#aV"/><use transform="matrix(0.010850694444444444,0,0,0.010850694444444444,49.65277777777778,0)" xlink:href="#aU"/><use transform="matrix(0.010850694444444444,0,0,0.010850694444444444,61.38237847222222,0)" xlink:href="#bl"/></g><g id="g"><use transform="matrix(0.010850694444444444,0,0,0.010850694444444444,0,0)" xlink:href="#aY"/><use transform="matrix(0.010850694444444444,0,0,0.010850694444444444,16.23263888888889,0)" xlink:href="#aZ"/><use transform="matrix(0.010850694444444444,0,0,0.010850694444444444,29.37282986111111,0)" xlink:href="#aU"/><use transform="matrix(0.010850694444444444,0,0,0.010850694444444444,41.10243055555556,0)" xlink:href="#aV"/><use transform="matrix(0.010850694444444444,0,0,0.010850694444444444,48.15538194444445,0)" xlink:href="#ba"/><use transform="matrix(0.010850694444444444,0,0,0.010850694444444444,61.48003472222223,0)" xlink:href="#bb"/><use transform="matrix(0.010850694444444444,0,0,0.010850694444444444,80.94618055555556,0)" xlink:href="#bc"/><use transform="matrix(0.010850694444444444,0,0,0.010850694444444444,93.90190972222221,0)" xlink:href="#aX"/></g><path d="M180 0v-1490h190v1322h690V0H180" id="bm"/><path d="M611 442c-248 0-391-105-460-228l146-94c47 65 117 165 314 165 178 0 307-82 307-266v-224h-17C863-141 792-18 576-18c-268 0-472-195-472-546 0-346 197-568 476-568 216 0 288 133 326 193h17v-179h175V29c0 289-215 413-487 413zm-5-620c203 0 314-146 314-390 0-237-108-403-314-403-213 0-319 180-319 403 0 230 109 390 319 390" id="bn"/><g id="h"><use transform="matrix(0.010850694444444444,0,0,0.010850694444444444,0,0)" xlink:href="#bm"/><use transform="matrix(0.010850694444444444,0,0,0.010850694444444444,12.565104166666666,0)" xlink:href="#ba"/><use transform="matrix(0.010850694444444444,0,0,0.010850694444444444,25.889756944444443,0)" xlink:href="#bn"/><use transform="matrix(0.010850694444444444,0,0,0.010850694444444444,39.518229166666664,0)" xlink:href="#bk"/><use transform="matrix(0.010850694444444444,0,0,0.010850694444444444,44.90017361111111,0)" xlink:href="#bh"/></g><g id="i"><use transform="matrix(0.010850694444444444,0,0,0.010850694444444444,0,0)" xlink:href="#aY"/><use transform="matrix(0.010850694444444444,0,0,0.010850694444444444,16.23263888888889,0)" xlink:href="#aX"/><use transform="matrix(0.010850694444444444,0,0,0.010850694444444444,24.229600694444443,0)" xlink:href="#bc"/><use transform="matrix(0.010850694444444444,0,0,0.010850694444444444,37.40234375,0)" xlink:href="#aW"/><use transform="matrix(0.010850694444444444,0,0,0.010850694444444444,49.88064236111111,0)" xlink:href="#aV"/><use transform="matrix(0.010850694444444444,0,0,0.010850694444444444,56.93359375000001,0)" xlink:href="#bc"/></g><g id="j"><use transform="matrix(0.010850694444444444,0,0,0.010850694444444444,0,0)" xlink:href="#aY"/><use transform="matrix(0.010850694444444444,0,0,0.010850694444444444,16.23263888888889,0)" xlink:href="#aZ"/><use transform="matrix(0.010850694444444444,0,0,0.010850694444444444,29.37282986111111,0)" xlink:href="#aU"/><use transform="matrix(0.010850694444444444,0,0,0.010850694444444444,41.10243055555556,0)" xlink:href="#aV"/><use transform="matrix(0.010850694444444444,0,0,0.010850694444444444,48.15538194444445,0)" xlink:href="#ba"/><use transform="matrix(0.010850694444444444,0,0,0.010850694444444444,61.48003472222223,0)" xlink:href="#bb"/><use transform="matrix(0.010850694444444444,0,0,0.010850694444444444,80.94618055555556,0)" xlink:href="#bc"/><use transform="matrix(0.010850694444444444,0,0,0.010850694444444444,93.90190972222221,0)" xlink:href="#aX"/></g><g id="k"><use transform="matrix(0.010850694444444444,0,0,0.010850694444444444,0,0)" xlink:href="#bd"/><use transform="matrix(0.010850694444444444,0,0,0.010850694444444444,15.33203125,0)" xlink:href="#be"/><use transform="matrix(0.010850694444444444,0,0,0.010850694444444444,28.02734375,0)" xlink:href="#be"/><use transform="matrix(0.010850694444444444,0,0,0.010850694444444444,40.72265625,0)" xlink:href="#ba"/><use transform="matrix(0.010850694444444444,0,0,0.010850694444444444,54.04730902777778,0)" xlink:href="#aZ"/><use transform="matrix(0.010850694444444444,0,0,0.010850694444444444,67.1875,0)" xlink:href="#bh"/><use transform="matrix(0.010850694444444444,0,0,0.010850694444444444,80.31684027777777,0)" xlink:href="#aV"/></g><path d="M135 0v-1490h340l471 754c59 97 122 210 187 365-32-387-14-721-19-1119h312V0h-341C855-382 627-689 427-1113c32 420 16 695 20 1113H135" id="bo"/><path d="M789 20C394 20 94-260 94-744c0-487 300-766 695-766s695 279 695 766c0 485-300 764-695 764zm0-271c231 0 385-174 385-493 0-321-154-495-385-495s-385 175-385 495c0 319 154 493 385 493" id="bp"/><g id="l"><use transform="matrix(0.008680555555555556,0,0,0.008680555555555556,0,0)" xlink:href="#bo"/><use transform="matrix(0.008680555555555556,0,0,0.008680555555555556,13.550347222222223,0)" xlink:href="#bp"/></g><path fill="#333" d="M601 0v-560L49-1490h357l252 464c38 68 67 130 97 208 96-243 225-446 337-672h356L905-560V0H601" id="bq"/><path fill="#333" d="M135 0v-1490h997v253H440v360h640v249H440v375h694V0H135" id="br"/><path fill="#333" d="M681 22C323 22 94-145 85-462h297c10 151 131 226 296 226 163 0 271-77 271-190 0-102-95-149-257-189l-164-41c-252-61-403-188-403-405 0-269 236-449 560-449 330 0 546 183 551 445H941c-11-119-106-188-259-188-156 0-244 72-244 172-3 156 226 185 373 221 250 61 445 186 445 436 0 271-213 446-575 446" id="bs"/><g id="m"><use transform="matrix(0.008680555555555556,0,0,0.008680555555555556,0,0)" xlink:href="#bq"/><use transform="matrix(0.008680555555555556,0,0,0.008680555555555556,12.994791666666668,0)" xlink:href="#br"/><use transform="matrix(0.008680555555555556,0,0,0.008680555555555556,23.79340277777778,0)" xlink:href="#bs"/></g><g id="n"><use transform="matrix(0.010850694444444444,0,0,0.010850694444444444,0,0)" xlink:href="#bi"/><use transform="matrix(0.010850694444444444,0,0,0.010850694444444444,13.35720486111111,0)" xlink:href="#bh"/><use transform="matrix(0.010850694444444444,0,0,0.010850694444444444,26.48654513888889,0)" xlink:href="#aV"/><use transform="matrix(0.010850694444444444,0,0,0.010850694444444444,33.53949652777777,0)" xlink:href="#bc"/><use transform="matrix(0.010850694444444444,0,0,0.010850694444444444,46.495225694444436,0)" xlink:href="#aX"/></g><path d="M338-670V0H158v-1490h180v566c73-149 190-208 336-208 226 0 379 139 379 422V0H872v-695c0-172-96-275-252-275-161 0-282 109-282 300" id="bt"/><path d="M158 418v-1536h174v179h20c37-59 106-193 324-193 279 0 474 222 474 576 0 356-194 580-473 580-213 0-288-135-325-197h-14v591H158zm492-555c209 0 317-186 317-421 0-232-105-413-317-413-206 0-314 166-314 413 0 249 111 421 314 421" id="bu"/><g id="o"><use transform="matrix(0.010850694444444444,0,0,0.010850694444444444,0,0)" xlink:href="#bf"/><use transform="matrix(0.010850694444444444,0,0,0.010850694444444444,14.2578125,0)" xlink:href="#bt"/><use transform="matrix(0.010850694444444444,0,0,0.010850694444444444,27.39800347222222,0)" xlink:href="#bk"/><use transform="matrix(0.010850694444444444,0,0,0.010850694444444444,32.779947916666664,0)" xlink:href="#bu"/><use transform="matrix(0.010850694444444444,0,0,0.010850694444444444,46.38671875,0)" xlink:href="#bb"/><use transform="matrix(0.010850694444444444,0,0,0.010850694444444444,65.85286458333333,0)" xlink:href="#bc"/><use transform="matrix(0.010850694444444444,0,0,0.010850694444444444,78.80859375,0)" xlink:href="#bh"/><use transform="matrix(0.010850694444444444,0,0,0.010850694444444444,91.93793402777777,0)" xlink:href="#aV"/></g><path d="M645 0H180v-1490h484c435 0 692 280 692 742 0 466-257 748-711 748zM370-168h263c363 0 539-218 539-580 0-358-176-574-521-574H370v1154" id="bv"/><path d="M338-1490V0H158v-1490h180" id="bw"/><g id="p"><use transform="matrix(0.010850694444444444,0,0,0.010850694444444444,0,0)" xlink:href="#bv"/><use transform="matrix(0.010850694444444444,0,0,0.010850694444444444,16.03732638888889,0)" xlink:href="#bc"/><use transform="matrix(0.010850694444444444,0,0,0.010850694444444444,28.99305555555556,0)" xlink:href="#aV"/><use transform="matrix(0.010850694444444444,0,0,0.010850694444444444,36.37152777777778,0)" xlink:href="#aW"/><use transform="matrix(0.010850694444444444,0,0,0.010850694444444444,48.849826388888886,0)" xlink:href="#bk"/><use transform="matrix(0.010850694444444444,0,0,0.010850694444444444,54.23177083333333,0)" xlink:href="#bw"/><use transform="matrix(0.010850694444444444,0,0,0.010850694444444444,59.61371527777778,0)" xlink:href="#aU"/></g><g id="q"><use transform="matrix(0.010850694444444444,0,0,0.010850694444444444,0,0)" xlink:href="#aY"/><use transform="matrix(0.010850694444444444,0,0,0.010850694444444444,16.23263888888889,0)" xlink:href="#aW"/><use transform="matrix(0.010850694444444444,0,0,0.010850694444444444,28.7109375,0)" xlink:href="#bw"/><use transform="matrix(0.010850694444444444,0,0,0.010850694444444444,34.09288194444444,0)" xlink:href="#be"/><use transform="matrix(0.010850694444444444,0,0,0.010850694444444444,46.78819444444444,0)" xlink:href="#aZ"/><use transform="matrix(0.010850694444444444,0,0,0.010850694444444444,59.928385416666664,0)" xlink:href="#bw"/><use transform="matrix(0.010850694444444444,0,0,0.010850694444444444,65.31032986111111,0)" xlink:href="#aW"/><use transform="matrix(0.010850694444444444,0,0,0.010850694444444444,77.78862847222223,0)" xlink:href="#aV"/><use transform="matrix(0.010850694444444444,0,0,0.010850694444444444,84.84157986111111,0)" xlink:href="#bc"/></g><g id="r"><use transform="matrix(0.010850694444444444,0,0,0.010850694444444444,0,0)" xlink:href="#bf"/><use transform="matrix(0.010850694444444444,0,0,0.010850694444444444,14.2578125,0)" xlink:href="#bt"/><use transform="matrix(0.010850694444444444,0,0,0.010850694444444444,27.39800347222222,0)" xlink:href="#bk"/><use transform="matrix(0.010850694444444444,0,0,0.010850694444444444,32.779947916666664,0)" xlink:href="#bu"/><use transform="matrix(0.010850694444444444,0,0,0.010850694444444444,46.38671875,0)" xlink:href="#bu"/><use transform="matrix(0.010850694444444444,0,0,0.010850694444444444,59.99348958333333,0)" xlink:href="#bk"/><use transform="matrix(0.010850694444444444,0,0,0.010850694444444444,65.37543402777777,0)" xlink:href="#bh"/><use transform="matrix(0.010850694444444444,0,0,0.010850694444444444,78.50477430555554,0)" xlink:href="#bn"/></g><path d="M180 0v-1490h510c348 0 508 194 508 460 0 198-88 351-276 417L1256 0h-220L726-579c-117 2-238 0-356 1V0H180zm190-747h312c235 0 327-108 327-283 0-177-92-293-329-293H370v576" id="bx"/><g id="s"><use transform="matrix(0.010850694444444444,0,0,0.010850694444444444,0,0)" xlink:href="#bx"/><use transform="matrix(0.010850694444444444,0,0,0.010850694444444444,14.192708333333332,0)" xlink:href="#aW"/><use transform="matrix(0.010850694444444444,0,0,0.010850694444444444,26.671006944444443,0)" xlink:href="#aV"/><use transform="matrix(0.010850694444444444,0,0,0.010850694444444444,33.72395833333333,0)" xlink:href="#bc"/></g><path d="M678-1118v154H420V0H240v-964H20v-154h220v-149c0-194 155-293 318-293 85 0 141 18 168 30l-50 154c-19-6-47-17-97-17-111 0-159 58-159 166v109h258" id="by"/><g id="t"><use transform="matrix(0.010850694444444444,0,0,0.010850694444444444,0,0)" xlink:href="#aY"/><use transform="matrix(0.010850694444444444,0,0,0.010850694444444444,16.23263888888889,0)" xlink:href="#ba"/><use transform="matrix(0.010850694444444444,0,0,0.010850694444444444,29.557291666666664,0)" xlink:href="#bh"/><use transform="matrix(0.010850694444444444,0,0,0.010850694444444444,42.68663194444444,0)" xlink:href="#by"/><use transform="matrix(0.010850694444444444,0,0,0.010850694444444444,50.91145833333333,0)" xlink:href="#bk"/><use transform="matrix(0.010850694444444444,0,0,0.010850694444444444,56.29340277777778,0)" xlink:href="#aX"/><use transform="matrix(0.010850694444444444,0,0,0.010850694444444444,65.00651041666666,0)" xlink:href="#bb"/></g><path d="M180 0v-1490h528c311 0 458 177 458 395 0 191-114 278-244 313v14c139 9 302 137 302 371 0 225-148 397-499 397H180zm190-168h350c232 0 321-102 321-231 0-149-120-277-311-277H370v508zm0-668h328c160 0 286-101 286-255 0-129-87-231-280-231H370v486" id="bz"/><path d="M158 0v-1490h180v865h22l478-493h223L593-638 1096 0H865L456-523 338-412V0H158" id="bA"/><g id="u"><use transform="matrix(0.010850694444444444,0,0,0.010850694444444444,0,0)" xlink:href="#bz"/><use transform="matrix(0.010850694444444444,0,0,0.010850694444444444,14.539930555555555,0)" xlink:href="#ba"/><use transform="matrix(0.010850694444444444,0,0,0.010850694444444444,27.864583333333332,0)" xlink:href="#ba"/><use transform="matrix(0.010850694444444444,0,0,0.010850694444444444,41.18923611111111,0)" xlink:href="#bA"/><use transform="matrix(0.010850694444444444,0,0,0.010850694444444444,53.385416666666664,0)" xlink:href="#bk"/><use transform="matrix(0.010850694444444444,0,0,0.010850694444444444,58.76736111111111,0)" xlink:href="#bh"/><use transform="matrix(0.010850694444444444,0,0,0.010850694444444444,71.89670138888889,0)" xlink:href="#bn"/></g><path d="M180 0v-1490h510c348 0 508 209 508 474 0 266-160 477-507 477H370V0H180zm190-706h312c236 0 327-133 327-310 0-176-91-307-329-307H370v617" id="bB"/><g id="v"><use transform="matrix(0.010850694444444444,0,0,0.010850694444444444,0,0)" xlink:href="#bB"/><use transform="matrix(0.010850694444444444,0,0,0.010850694444444444,14.192708333333332,0)" xlink:href="#aW"/><use transform="matrix(0.010850694444444444,0,0,0.010850694444444444,26.345486111111104,0)" xlink:href="#bg"/></g><g id="w"><use transform="matrix(0.010850694444444444,0,0,0.010850694444444444,0,0)" xlink:href="#bf"/><use transform="matrix(0.010850694444444444,0,0,0.010850694444444444,14.2578125,0)" xlink:href="#bt"/><use transform="matrix(0.010850694444444444,0,0,0.010850694444444444,27.39800347222222,0)" xlink:href="#bk"/><use transform="matrix(0.010850694444444444,0,0,0.010850694444444444,32.779947916666664,0)" xlink:href="#bu"/><use transform="matrix(0.010850694444444444,0,0,0.010850694444444444,46.38671875,0)" xlink:href="#bu"/><use transform="matrix(0.010850694444444444,0,0,0.010850694444444444,59.99348958333333,0)" xlink:href="#bk"/><use transform="matrix(0.010850694444444444,0,0,0.010850694444444444,65.37543402777777,0)" xlink:href="#bh"/><use transform="matrix(0.010850694444444444,0,0,0.010850694444444444,78.50477430555554,0)" xlink:href="#bn"/></g><g id="x"><use transform="matrix(0.010850694444444444,0,0,0.010850694444444444,0,0)" xlink:href="#bz"/><use transform="matrix(0.010850694444444444,0,0,0.010850694444444444,14.539930555555555,0)" xlink:href="#bk"/><use transform="matrix(0.010850694444444444,0,0,0.010850694444444444,19.921875,0)" xlink:href="#bw"/><use transform="matrix(0.010850694444444444,0,0,0.010850694444444444,25.303819444444443,0)" xlink:href="#bw"/></g><g id="y"><use transform="matrix(0.010850694444444444,0,0,0.010850694444444444,0,0)" xlink:href="#bB"/><use transform="matrix(0.010850694444444444,0,0,0.010850694444444444,14.192708333333332,0)" xlink:href="#aW"/><use transform="matrix(0.010850694444444444,0,0,0.010850694444444444,26.345486111111104,0)" xlink:href="#bg"/><use transform="matrix(0.010850694444444444,0,0,0.010850694444444444,38.834635416666664,0)" xlink:href="#bb"/><use transform="matrix(0.010850694444444444,0,0,0.010850694444444444,58.30078125,0)" xlink:href="#bc"/><use transform="matrix(0.010850694444444444,0,0,0.010850694444444444,71.25651041666667,0)" xlink:href="#bh"/><use transform="matrix(0.010850694444444444,0,0,0.010850694444444444,84.38585069444444,0)" xlink:href="#aV"/></g><g id="z"><use transform="matrix(0.010850694444444444,0,0,0.010850694444444444,0,0)" xlink:href="#bf"/><use transform="matrix(0.010850694444444444,0,0,0.010850694444444444,14.2578125,0)" xlink:href="#aZ"/><use transform="matrix(0.010850694444444444,0,0,0.010850694444444444,27.39800347222222,0)" xlink:href="#be"/><use transform="matrix(0.010850694444444444,0,0,0.010850694444444444,40.09331597222222,0)" xlink:href="#be"/><use transform="matrix(0.010850694444444444,0,0,0.010850694444444444,52.78862847222222,0)" xlink:href="#bc"/><use transform="matrix(0.010850694444444444,0,0,0.010850694444444444,65.74435763888889,0)" xlink:href="#aU"/><use transform="matrix(0.010850694444444444,0,0,0.010850694444444444,77.47395833333333,0)" xlink:href="#aU"/><use transform="matrix(0.010850694444444444,0,0,0.010850694444444444,89.20355902777777,0)" xlink:href="#by"/><use transform="matrix(0.010850694444444444,0,0,0.010850694444444444,97.42838541666666,0)" xlink:href="#aZ"/><use transform="matrix(0.010850694444444444,0,0,0.010850694444444444,110.56857638888889,0)" xlink:href="#bw"/><use transform="matrix(0.010850694444444444,0,0,0.010850694444444444,115.95052083333333,0)" xlink:href="#bl"/></g><path fill="#333" d="M633 22C291 22 81-200 81-553c0-345 210-579 537-579 292 0 525 185 525 567v84H378c7 183 109 277 260 277 105 0 184-46 216-132l272 51C1071-99 893 22 633 22zM380-669h474c-15-146-94-237-233-237-143 0-229 99-241 237" id="bC"/><path fill="#333" d="M572 22C302 22 117-98 78-306l279-48c29 105 101 156 224 156 114 0 185-48 185-115 0-118-228-130-337-155-215-49-322-150-322-317 0-215 187-347 470-347 265 0 424 116 466 298l-266 47c-24-76-87-130-196-130-98 0-174 46-174 113 0 56 38 95 144 117l201 40c216 44 320 143 320 302 0 220-207 367-500 367" id="bD"/><g id="A"><use transform="matrix(0.011935763888888888,0,0,0.011935763888888888,0,0)" xlink:href="#bq"/><use transform="matrix(0.011935763888888888,0,0,0.011935763888888888,15.194227430555555,0)" xlink:href="#bC"/><use transform="matrix(0.011935763888888888,0,0,0.011935763888888888,29.755859374999996,0)" xlink:href="#bD"/></g><g id="B"><use transform="matrix(0.010850694444444444,0,0,0.010850694444444444,0,0)" xlink:href="#aY"/><use transform="matrix(0.010850694444444444,0,0,0.010850694444444444,16.23263888888889,0)" xlink:href="#aX"/><use transform="matrix(0.010850694444444444,0,0,0.010850694444444444,24.229600694444443,0)" xlink:href="#bc"/><use transform="matrix(0.010850694444444444,0,0,0.010850694444444444,37.40234375,0)" xlink:href="#aW"/><use transform="matrix(0.010850694444444444,0,0,0.010850694444444444,49.88064236111111,0)" xlink:href="#aV"/><use transform="matrix(0.010850694444444444,0,0,0.010850694444444444,56.93359375000001,0)" xlink:href="#bc"/></g><g id="C"><use transform="matrix(0.010850694444444444,0,0,0.010850694444444444,0,0)" xlink:href="#bf"/><use transform="matrix(0.010850694444444444,0,0,0.010850694444444444,14.2578125,0)" xlink:href="#bt"/><use transform="matrix(0.010850694444444444,0,0,0.010850694444444444,27.39800347222222,0)" xlink:href="#bk"/><use transform="matrix(0.010850694444444444,0,0,0.010850694444444444,32.779947916666664,0)" xlink:href="#bu"/><use transform="matrix(0.010850694444444444,0,0,0.010850694444444444,46.38671875,0)" xlink:href="#bb"/><use transform="matrix(0.010850694444444444,0,0,0.010850694444444444,65.85286458333333,0)" xlink:href="#bc"/><use transform="matrix(0.010850694444444444,0,0,0.010850694444444444,78.80859375,0)" xlink:href="#bh"/><use transform="matrix(0.010850694444444444,0,0,0.010850694444444444,91.93793402777777,0)" xlink:href="#aV"/></g><path d="M577 24c-279 0-473-224-473-580 0-354 195-576 474-576 218 0 287 134 324 193h14v-551h180V0H922v-173h-20C865-111 790 24 577 24zm27-161c203 0 314-172 314-421 0-247-108-413-314-413-212 0-317 181-317 413 0 235 108 421 317 421" id="bE"/><g id="D"><use transform="matrix(0.010850694444444444,0,0,0.010850694444444444,0,0)" xlink:href="#bx"/><use transform="matrix(0.010850694444444444,0,0,0.010850694444444444,13.975694444444445,0)" xlink:href="#bc"/><use transform="matrix(0.010850694444444444,0,0,0.010850694444444444,26.931423611111104,0)" xlink:href="#be"/><use transform="matrix(0.010850694444444444,0,0,0.010850694444444444,39.62673611111111,0)" xlink:href="#ba"/><use transform="matrix(0.010850694444444444,0,0,0.010850694444444444,52.951388888888886,0)" xlink:href="#aX"/><use transform="matrix(0.010850694444444444,0,0,0.010850694444444444,60.948350694444436,0)" xlink:href="#bE"/></g><g id="E"><use transform="matrix(0.010850694444444444,0,0,0.010850694444444444,0,0)" xlink:href="#aW"/><use transform="matrix(0.010850694444444444,0,0,0.010850694444444444,12.47829861111111,0)" xlink:href="#bh"/><use transform="matrix(0.010850694444444444,0,0,0.010850694444444444,25.60763888888889,0)" xlink:href="#bE"/></g><path d="M789 20c-398 0-667-293-667-764 0-473 273-766 655-766 315 0 558 198 612 487h-196c-61-191-204-311-415-311-262 0-471 207-471 590 0 380 208 588 482 588 249 0 420-165 425-427H828v-166h572v163c0 370-256 606-611 606" id="bF"/><g id="F"><use transform="matrix(0.010850694444444444,0,0,0.010850694444444444,0,0)" xlink:href="#bF"/><use transform="matrix(0.010850694444444444,0,0,0.010850694444444444,16.57986111111111,0)" xlink:href="#bc"/><use transform="matrix(0.010850694444444444,0,0,0.010850694444444444,29.535590277777775,0)" xlink:href="#bh"/><use transform="matrix(0.010850694444444444,0,0,0.010850694444444444,42.66493055555556,0)" xlink:href="#bc"/><use transform="matrix(0.010850694444444444,0,0,0.010850694444444444,55.62065972222222,0)" xlink:href="#aX"/><use transform="matrix(0.010850694444444444,0,0,0.010850694444444444,63.986545138888886,0)" xlink:href="#aW"/><use transform="matrix(0.010850694444444444,0,0,0.010850694444444444,76.46484375,0)" xlink:href="#aV"/><use transform="matrix(0.010850694444444444,0,0,0.010850694444444444,83.51779513888889,0)" xlink:href="#bc"/></g><path d="M98-1322v-168h1126v168H757V0H567v-1322H98" id="bG"/><g id="G"><use transform="matrix(0.010850694444444444,0,0,0.010850694444444444,0,0)" xlink:href="#bG"/><use transform="matrix(0.010850694444444444,0,0,0.010850694444444444,13.0859375,0)" xlink:href="#aX"/><use transform="matrix(0.010850694444444444,0,0,0.010850694444444444,21.451822916666664,0)" xlink:href="#aW"/><use transform="matrix(0.010850694444444444,0,0,0.010850694444444444,33.93012152777777,0)" xlink:href="#be"/><use transform="matrix(0.010850694444444444,0,0,0.010850694444444444,46.62543402777778,0)" xlink:href="#bA"/></g><path d="M370-1490V0H180v-1490h190" id="bH"/><g id="H"><use transform="matrix(0.010850694444444444,0,0,0.010850694444444444,0,0)" xlink:href="#bH"/><use transform="matrix(0.010850694444444444,0,0,0.010850694444444444,5.967881944444445,0)" xlink:href="#bv"/></g><g id="I"><use transform="matrix(0.010850694444444444,0,0,0.010850694444444444,0,0)" xlink:href="#bd"/><use transform="matrix(0.010850694444444444,0,0,0.010850694444444444,15.33203125,0)" xlink:href="#bE"/><use transform="matrix(0.010850694444444444,0,0,0.010850694444444444,28.938802083333332,0)" xlink:href="#bb"/><use transform="matrix(0.010850694444444444,0,0,0.010850694444444444,48.404947916666664,0)" xlink:href="#bk"/><use transform="matrix(0.010850694444444444,0,0,0.010850694444444444,53.78689236111111,0)" xlink:href="#bh"/></g><g id="J"><use transform="matrix(0.010850694444444444,0,0,0.010850694444444444,0,0)" xlink:href="#bf"/><use transform="matrix(0.010850694444444444,0,0,0.010850694444444444,14.2578125,0)" xlink:href="#bc"/><use transform="matrix(0.010850694444444444,0,0,0.010850694444444444,27.43055555555556,0)" xlink:href="#aW"/><use transform="matrix(0.010850694444444444,0,0,0.010850694444444444,39.90885416666667,0)" xlink:href="#aX"/><use transform="matrix(0.010850694444444444,0,0,0.010850694444444444,47.90581597222222,0)" xlink:href="#be"/><use transform="matrix(0.010850694444444444,0,0,0.010850694444444444,60.60112847222222,0)" xlink:href="#bt"/></g><g id="K"><use transform="matrix(0.010850694444444444,0,0,0.010850694444444444,0,0)" xlink:href="#ba"/><use transform="matrix(0.010850694444444444,0,0,0.010850694444444444,13.324652777777777,0)" xlink:href="#aX"/></g><path d="M784 20c-382 0-662-292-662-764 0-473 280-766 662-766s660 293 660 766c0 472-278 764-660 764zm0-176c266 0 475-207 475-588 0-383-209-590-475-590-268 0-477 208-477 590 0 380 209 588 477 588" id="bI"/><g id="L"><use transform="matrix(0.010850694444444444,0,0,0.010850694444444444,0,0)" xlink:href="#bI"/><use transform="matrix(0.010850694444444444,0,0,0.010850694444444444,16.9921875,0)" xlink:href="#bu"/><use transform="matrix(0.010850694444444444,0,0,0.010850694444444444,30.598958333333332,0)" xlink:href="#bc"/><use transform="matrix(0.010850694444444444,0,0,0.010850694444444444,43.5546875,0)" xlink:href="#bh"/></g><g id="M"><use transform="matrix(0.010850694444444444,0,0,0.010850694444444444,0,0)" xlink:href="#bx"/><use transform="matrix(0.010850694444444444,0,0,0.010850694444444444,13.975694444444445,0)" xlink:href="#bc"/><use transform="matrix(0.010850694444444444,0,0,0.010850694444444444,26.931423611111104,0)" xlink:href="#be"/><use transform="matrix(0.010850694444444444,0,0,0.010850694444444444,39.62673611111111,0)" xlink:href="#ba"/><use transform="matrix(0.010850694444444444,0,0,0.010850694444444444,52.951388888888886,0)" xlink:href="#aX"/><use transform="matrix(0.010850694444444444,0,0,0.010850694444444444,60.948350694444436,0)" xlink:href="#bE"/></g><g id="N"><use transform="matrix(0.010850694444444444,0,0,0.010850694444444444,0,0)" xlink:href="#bF"/><use transform="matrix(0.010850694444444444,0,0,0.010850694444444444,16.57986111111111,0)" xlink:href="#bc"/><use transform="matrix(0.010850694444444444,0,0,0.010850694444444444,29.535590277777775,0)" xlink:href="#bh"/><use transform="matrix(0.010850694444444444,0,0,0.010850694444444444,42.66493055555556,0)" xlink:href="#bc"/><use transform="matrix(0.010850694444444444,0,0,0.010850694444444444,55.62065972222222,0)" xlink:href="#aX"/><use transform="matrix(0.010850694444444444,0,0,0.010850694444444444,63.986545138888886,0)" xlink:href="#aW"/><use transform="matrix(0.010850694444444444,0,0,0.010850694444444444,76.46484375,0)" xlink:href="#aV"/><use transform="matrix(0.010850694444444444,0,0,0.010850694444444444,83.51779513888889,0)" xlink:href="#bc"/></g><g id="O"><use transform="matrix(0.010850694444444444,0,0,0.010850694444444444,0,0)" xlink:href="#bf"/><use transform="matrix(0.010850694444444444,0,0,0.010850694444444444,14.2578125,0)" xlink:href="#bt"/><use transform="matrix(0.010850694444444444,0,0,0.010850694444444444,27.39800347222222,0)" xlink:href="#bk"/><use transform="matrix(0.010850694444444444,0,0,0.010850694444444444,32.779947916666664,0)" xlink:href="#bu"/><use transform="matrix(0.010850694444444444,0,0,0.010850694444444444,46.38671875,0)" xlink:href="#bu"/><use transform="matrix(0.010850694444444444,0,0,0.010850694444444444,59.99348958333333,0)" xlink:href="#bk"/><use transform="matrix(0.010850694444444444,0,0,0.010850694444444444,65.37543402777777,0)" xlink:href="#bh"/><use transform="matrix(0.010850694444444444,0,0,0.010850694444444444,78.50477430555554,0)" xlink:href="#bn"/></g><path d="M180 0v-1490h270l367 940c28 72 75 218 110 339 35-117 81-264 110-339l362-940h271V0h-187c2-448-5-837 7-1287-157 497-311 829-483 1287H842C666-458 514-784 354-1284c12 438 5 843 7 1284H180" id="bJ"/><g id="P"><use transform="matrix(0.010850694444444444,0,0,0.010850694444444444,0,0)" xlink:href="#bJ"/><use transform="matrix(0.010850694444444444,0,0,0.010850694444444444,20.07378472222222,0)" xlink:href="#aW"/><use transform="matrix(0.010850694444444444,0,0,0.010850694444444444,32.55208333333333,0)" xlink:href="#bh"/><use transform="matrix(0.010850694444444444,0,0,0.010850694444444444,45.68142361111111,0)" xlink:href="#bk"/><use transform="matrix(0.010850694444444444,0,0,0.010850694444444444,51.06336805555556,0)" xlink:href="#by"/><use transform="matrix(0.010850694444444444,0,0,0.010850694444444444,58.63715277777778,0)" xlink:href="#bc"/><use transform="matrix(0.010850694444444444,0,0,0.010850694444444444,71.59288194444444,0)" xlink:href="#aU"/><use transform="matrix(0.010850694444444444,0,0,0.010850694444444444,83.32248263888889,0)" xlink:href="#aV"/></g><g id="Q"><use transform="matrix(0.010850694444444444,0,0,0.010850694444444444,0,0)" xlink:href="#aW"/><use transform="matrix(0.010850694444444444,0,0,0.010850694444444444,12.47829861111111,0)" xlink:href="#bh"/><use transform="matrix(0.010850694444444444,0,0,0.010850694444444444,25.60763888888889,0)" xlink:href="#bE"/></g><path d="M677 24c-213 0-288-135-325-197h-20V0H158v-1490h180v551h14c37-59 106-193 324-193 279 0 474 222 474 576 0 356-194 580-473 580zm-27-161c209 0 317-186 317-421 0-232-105-413-317-413-206 0-314 166-314 413 0 249 111 421 314 421" id="bK"/><g id="R"><use transform="matrix(0.010850694444444444,0,0,0.010850694444444444,0,0)" xlink:href="#bm"/><use transform="matrix(0.010850694444444444,0,0,0.010850694444444444,12.565104166666666,0)" xlink:href="#aW"/><use transform="matrix(0.010850694444444444,0,0,0.010850694444444444,25.04340277777778,0)" xlink:href="#bK"/><use transform="matrix(0.010850694444444444,0,0,0.010850694444444444,38.650173611111114,0)" xlink:href="#bc"/><use transform="matrix(0.010850694444444444,0,0,0.010850694444444444,51.60590277777778,0)" xlink:href="#bw"/></g><g id="S"><use transform="matrix(0.010850694444444444,0,0,0.010850694444444444,0,0)" xlink:href="#bd"/><use transform="matrix(0.010850694444444444,0,0,0.010850694444444444,15.33203125,0)" xlink:href="#aU"/><use transform="matrix(0.010850694444444444,0,0,0.010850694444444444,27.061631944444443,0)" xlink:href="#aU"/><use transform="matrix(0.010850694444444444,0,0,0.010850694444444444,38.791232638888886,0)" xlink:href="#bk"/><use transform="matrix(0.010850694444444444,0,0,0.010850694444444444,44.17317708333333,0)" xlink:href="#bn"/><use transform="matrix(0.010850694444444444,0,0,0.010850694444444444,57.80164930555555,0)" xlink:href="#bh"/></g><g id="T"><use transform="matrix(0.010850694444444444,0,0,0.010850694444444444,0,0)" xlink:href="#aV"/><use transform="matrix(0.010850694444444444,0,0,0.010850694444444444,7.052951388888888,0)" xlink:href="#ba"/></g><path d="M481 0L54-1118h197c107 314 236 620 325 951 87-331 217-637 324-951h197L670 0H481" id="bL"/><g id="U"><use transform="matrix(0.010850694444444444,0,0,0.010850694444444444,0,0)" xlink:href="#bv"/><use transform="matrix(0.010850694444444444,0,0,0.010850694444444444,16.03732638888889,0)" xlink:href="#bc"/><use transform="matrix(0.010850694444444444,0,0,0.010850694444444444,28.99305555555556,0)" xlink:href="#bw"/><use transform="matrix(0.010850694444444444,0,0,0.010850694444444444,34.375,0)" xlink:href="#bk"/><use transform="matrix(0.010850694444444444,0,0,0.010850694444444444,39.75694444444444,0)" xlink:href="#bL"/><use transform="matrix(0.010850694444444444,0,0,0.010850694444444444,51.81206597222222,0)" xlink:href="#bc"/><use transform="matrix(0.010850694444444444,0,0,0.010850694444444444,64.76779513888889,0)" xlink:href="#aX"/><use transform="matrix(0.010850694444444444,0,0,0.010850694444444444,73.48090277777779,0)" xlink:href="#bg"/></g><g id="V"><use transform="matrix(0.010850694444444444,0,0,0.010850694444444444,0,0)" xlink:href="#bB"/><use transform="matrix(0.010850694444444444,0,0,0.010850694444444444,14.073350694444445,0)" xlink:href="#bc"/><use transform="matrix(0.010850694444444444,0,0,0.010850694444444444,27.029079861111104,0)" xlink:href="#aX"/><use transform="matrix(0.010850694444444444,0,0,0.010850694444444444,35.39496527777777,0)" xlink:href="#aU"/><use transform="matrix(0.010850694444444444,0,0,0.010850694444444444,47.12456597222221,0)" xlink:href="#ba"/><use transform="matrix(0.010850694444444444,0,0,0.010850694444444444,60.449218749999986,0)" xlink:href="#bh"/><use transform="matrix(0.010850694444444444,0,0,0.010850694444444444,73.57855902777777,0)" xlink:href="#bh"/><use transform="matrix(0.010850694444444444,0,0,0.010850694444444444,86.70789930555554,0)" xlink:href="#bc"/><use transform="matrix(0.010850694444444444,0,0,0.010850694444444444,99.66362847222221,0)" xlink:href="#bw"/></g><path d="M763 24c-353 0-583-224-583-531v-983h190v968c0 214 149 370 393 370 243 0 391-156 391-370v-968h190v983c0 307-230 531-581 531" id="bM"/><g id="W"><use transform="matrix(0.010850694444444444,0,0,0.010850694444444444,0,0)" xlink:href="#bM"/><use transform="matrix(0.010850694444444444,0,0,0.010850694444444444,16.536458333333332,0)" xlink:href="#bu"/><use transform="matrix(0.010850694444444444,0,0,0.010850694444444444,30.143229166666664,0)" xlink:href="#bE"/><use transform="matrix(0.010850694444444444,0,0,0.010850694444444444,43.75,0)" xlink:href="#aW"/><use transform="matrix(0.010850694444444444,0,0,0.010850694444444444,56.22829861111112,0)" xlink:href="#aV"/><use transform="matrix(0.010850694444444444,0,0,0.010850694444444444,63.28125000000001,0)" xlink:href="#bc"/></g><g id="X"><use transform="matrix(0.010850694444444444,0,0,0.010850694444444444,0,0)" xlink:href="#bB"/><use transform="matrix(0.010850694444444444,0,0,0.010850694444444444,14.192708333333332,0)" xlink:href="#aW"/><use transform="matrix(0.010850694444444444,0,0,0.010850694444444444,26.671006944444443,0)" xlink:href="#aX"/><use transform="matrix(0.010850694444444444,0,0,0.010850694444444444,34.66796875,0)" xlink:href="#be"/><use transform="matrix(0.010850694444444444,0,0,0.010850694444444444,47.36328125,0)" xlink:href="#bc"/><use transform="matrix(0.010850694444444444,0,0,0.010850694444444444,60.319010416666664,0)" xlink:href="#bw"/></g><g id="Y"><use transform="matrix(0.010850694444444444,0,0,0.010850694444444444,0,0)" xlink:href="#bf"/><use transform="matrix(0.010850694444444444,0,0,0.010850694444444444,14.2578125,0)" xlink:href="#aV"/><use transform="matrix(0.010850694444444444,0,0,0.010850694444444444,21.63628472222222,0)" xlink:href="#aW"/><use transform="matrix(0.010850694444444444,0,0,0.010850694444444444,34.11458333333333,0)" xlink:href="#aV"/><use transform="matrix(0.010850694444444444,0,0,0.010850694444444444,41.38454861111111,0)" xlink:href="#aZ"/><use transform="matrix(0.010850694444444444,0,0,0.010850694444444444,54.52473958333333,0)" xlink:href="#aU"/></g><g id="Z"><use transform="matrix(0.010850694444444444,0,0,0.010850694444444444,0,0)" xlink:href="#aV"/><use transform="matrix(0.010850694444444444,0,0,0.010850694444444444,7.052951388888888,0)" xlink:href="#ba"/></g><g id="aa"><use transform="matrix(0.010850694444444444,0,0,0.010850694444444444,0,0)" xlink:href="#bB"/><use transform="matrix(0.010850694444444444,0,0,0.010850694444444444,14.192708333333332,0)" xlink:href="#bk"/><use transform="matrix(0.010850694444444444,0,0,0.010850694444444444,19.57465277777778,0)" xlink:href="#be"/><use transform="matrix(0.010850694444444444,0,0,0.010850694444444444,32.26996527777778,0)" xlink:href="#bA"/><use transform="matrix(0.010850694444444444,0,0,0.010850694444444444,43.96701388888889,0)" xlink:href="#bc"/><use transform="matrix(0.010850694444444444,0,0,0.010850694444444444,56.92274305555555,0)" xlink:href="#bE"/></g><g id="ab"><use transform="matrix(0.010850694444444444,0,0,0.010850694444444444,0,0)" xlink:href="#bM"/><use transform="matrix(0.010850694444444444,0,0,0.010850694444444444,16.536458333333332,0)" xlink:href="#bu"/></g><g id="ac"><use transform="matrix(0.010850694444444444,0,0,0.010850694444444444,0,0)" xlink:href="#bx"/><use transform="matrix(0.010850694444444444,0,0,0.010850694444444444,13.975694444444445,0)" xlink:href="#bc"/><use transform="matrix(0.010850694444444444,0,0,0.010850694444444444,26.931423611111104,0)" xlink:href="#aV"/><use transform="matrix(0.010850694444444444,0,0,0.010850694444444444,34.201388888888886,0)" xlink:href="#aX"/><use transform="matrix(0.010850694444444444,0,0,0.010850694444444444,42.91449652777777,0)" xlink:href="#bg"/></g><g id="ad"><use transform="matrix(0.010850694444444444,0,0,0.010850694444444444,0,0)" xlink:href="#bB"/><use transform="matrix(0.010850694444444444,0,0,0.010850694444444444,14.192708333333332,0)" xlink:href="#aW"/><use transform="matrix(0.010850694444444444,0,0,0.010850694444444444,26.345486111111104,0)" xlink:href="#bg"/><use transform="matrix(0.010850694444444444,0,0,0.010850694444444444,38.834635416666664,0)" xlink:href="#bb"/><use transform="matrix(0.010850694444444444,0,0,0.010850694444444444,58.30078125,0)" xlink:href="#bc"/><use transform="matrix(0.010850694444444444,0,0,0.010850694444444444,71.25651041666667,0)" xlink:href="#bh"/><use transform="matrix(0.010850694444444444,0,0,0.010850694444444444,84.38585069444444,0)" xlink:href="#aV"/></g><g id="ae"><use transform="matrix(0.011935763888888888,0,0,0.011935763888888888,0,0)" xlink:href="#bo"/><use transform="matrix(0.011935763888888888,0,0,0.011935763888888888,18.631727430555554,0)" xlink:href="#bp"/></g><g id="af"><use transform="matrix(0.010850694444444444,0,0,0.010850694444444444,0,0)" xlink:href="#aV"/><use transform="matrix(0.010850694444444444,0,0,0.010850694444444444,7.052951388888888,0)" xlink:href="#ba"/></g><g id="ag"><use transform="matrix(0.010850694444444444,0,0,0.010850694444444444,0,0)" xlink:href="#bH"/><use transform="matrix(0.010850694444444444,0,0,0.010850694444444444,5.967881944444445,0)" xlink:href="#bh"/></g><g id="ah"><use transform="matrix(0.010850694444444444,0,0,0.010850694444444444,0,0)" xlink:href="#bG"/><use transform="matrix(0.010850694444444444,0,0,0.010850694444444444,13.0859375,0)" xlink:href="#aX"/><use transform="matrix(0.010850694444444444,0,0,0.010850694444444444,21.451822916666664,0)" xlink:href="#aW"/><use transform="matrix(0.010850694444444444,0,0,0.010850694444444444,33.93012152777777,0)" xlink:href="#bh"/><use transform="matrix(0.010850694444444444,0,0,0.010850694444444444,47.05946180555556,0)" xlink:href="#aU"/><use transform="matrix(0.010850694444444444,0,0,0.010850694444444444,58.789062499999986,0)" xlink:href="#bk"/><use transform="matrix(0.010850694444444444,0,0,0.010850694444444444,64.17100694444444,0)" xlink:href="#aV"/></g><path d="M409 0L70-1118h191c89 329 165 560 243 925 75-353 154-601 240-925h192c85 325 161 564 235 922 77-354 157-598 244-922h191L1267 0h-179c-86-307-176-590-250-913C763-588 675-308 588 0H409" id="bN"/><g id="ai"><use transform="matrix(0.010850694444444444,0,0,0.010850694444444444,0,0)" xlink:href="#bN"/><use transform="matrix(0.010850694444444444,0,0,0.010850694444444444,18.18576388888889,0)" xlink:href="#bk"/><use transform="matrix(0.010850694444444444,0,0,0.010850694444444444,23.567708333333336,0)" xlink:href="#aV"/><use transform="matrix(0.010850694444444444,0,0,0.010850694444444444,30.837673611111114,0)" xlink:href="#bt"/></g><g id="aj"><use transform="matrix(0.010850694444444444,0,0,0.010850694444444444,0,0)" xlink:href="#bF"/><use transform="matrix(0.010850694444444444,0,0,0.010850694444444444,16.57986111111111,0)" xlink:href="#bB"/><use transform="matrix(0.010850694444444444,0,0,0.010850694444444444,30.772569444444443,0)" xlink:href="#bf"/></g><g id="ak"><use transform="matrix(0.010850694444444444,0,0,0.010850694444444444,0,0)" xlink:href="#aY"/><use transform="matrix(0.010850694444444444,0,0,0.010850694444444444,16.23263888888889,0)" xlink:href="#aZ"/><use transform="matrix(0.010850694444444444,0,0,0.010850694444444444,29.37282986111111,0)" xlink:href="#aU"/><use transform="matrix(0.010850694444444444,0,0,0.010850694444444444,41.10243055555556,0)" xlink:href="#aV"/><use transform="matrix(0.010850694444444444,0,0,0.010850694444444444,48.15538194444445,0)" xlink:href="#ba"/><use transform="matrix(0.010850694444444444,0,0,0.010850694444444444,61.48003472222223,0)" xlink:href="#bb"/><use transform="matrix(0.010850694444444444,0,0,0.010850694444444444,80.94618055555556,0)" xlink:href="#bc"/><use transform="matrix(0.010850694444444444,0,0,0.010850694444444444,93.90190972222221,0)" xlink:href="#aX"/></g><g id="al"><use transform="matrix(0.010850694444444444,0,0,0.010850694444444444,0,0)" xlink:href="#bB"/><use transform="matrix(0.010850694444444444,0,0,0.010850694444444444,14.192708333333332,0)" xlink:href="#aW"/><use transform="matrix(0.010850694444444444,0,0,0.010850694444444444,26.671006944444443,0)" xlink:href="#aX"/><use transform="matrix(0.010850694444444444,0,0,0.010850694444444444,34.66796875,0)" xlink:href="#be"/><use transform="matrix(0.010850694444444444,0,0,0.010850694444444444,47.36328125,0)" xlink:href="#bc"/><use transform="matrix(0.010850694444444444,0,0,0.010850694444444444,60.319010416666664,0)" xlink:href="#bw"/></g><g id="am"><use transform="matrix(0.010850694444444444,0,0,0.010850694444444444,0,0)" xlink:href="#bf"/><use transform="matrix(0.010850694444444444,0,0,0.010850694444444444,14.2578125,0)" xlink:href="#bt"/><use transform="matrix(0.010850694444444444,0,0,0.010850694444444444,27.39800347222222,0)" xlink:href="#bk"/><use transform="matrix(0.010850694444444444,0,0,0.010850694444444444,32.779947916666664,0)" xlink:href="#bu"/><use transform="matrix(0.010850694444444444,0,0,0.010850694444444444,46.38671875,0)" xlink:href="#bb"/><use transform="matrix(0.010850694444444444,0,0,0.010850694444444444,65.85286458333333,0)" xlink:href="#bc"/><use transform="matrix(0.010850694444444444,0,0,0.010850694444444444,78.80859375,0)" xlink:href="#bh"/><use transform="matrix(0.010850694444444444,0,0,0.010850694444444444,91.93793402777777,0)" xlink:href="#aV"/></g><g id="an"><use transform="matrix(0.010850694444444444,0,0,0.010850694444444444,0,0)" xlink:href="#bv"/><use transform="matrix(0.010850694444444444,0,0,0.010850694444444444,16.03732638888889,0)" xlink:href="#bc"/><use transform="matrix(0.010850694444444444,0,0,0.010850694444444444,28.99305555555556,0)" xlink:href="#bw"/><use transform="matrix(0.010850694444444444,0,0,0.010850694444444444,34.375,0)" xlink:href="#bk"/><use transform="matrix(0.010850694444444444,0,0,0.010850694444444444,39.75694444444444,0)" xlink:href="#bL"/><use transform="matrix(0.010850694444444444,0,0,0.010850694444444444,51.81206597222222,0)" xlink:href="#bc"/><use transform="matrix(0.010850694444444444,0,0,0.010850694444444444,64.76779513888889,0)" xlink:href="#aX"/><use transform="matrix(0.010850694444444444,0,0,0.010850694444444444,72.76475694444444,0)" xlink:href="#bc"/><use transform="matrix(0.010850694444444444,0,0,0.010850694444444444,85.72048611111111,0)" xlink:href="#bE"/><use transform="matrix(0.010850694444444444,0,0,0.010850694444444444,99.32725694444444,0)" xlink:href="#bl"/></g><g id="ao"><use transform="matrix(0.010850694444444444,0,0,0.010850694444444444,0,0)" xlink:href="#aY"/><use transform="matrix(0.010850694444444444,0,0,0.010850694444444444,16.23263888888889,0)" xlink:href="#ba"/><use transform="matrix(0.010850694444444444,0,0,0.010850694444444444,29.557291666666664,0)" xlink:href="#bh"/><use transform="matrix(0.010850694444444444,0,0,0.010850694444444444,42.68663194444444,0)" xlink:href="#aV"/><use transform="matrix(0.010850694444444444,0,0,0.010850694444444444,49.95659722222222,0)" xlink:href="#bk"/><use transform="matrix(0.010850694444444444,0,0,0.010850694444444444,55.338541666666664,0)" xlink:href="#bh"/><use transform="matrix(0.010850694444444444,0,0,0.010850694444444444,68.46788194444444,0)" xlink:href="#aZ"/><use transform="matrix(0.010850694444444444,0,0,0.010850694444444444,81.60807291666666,0)" xlink:href="#bc"/></g><g id="ap"><use transform="matrix(0.010850694444444444,0,0,0.010850694444444444,0,0)" xlink:href="#bG"/><use transform="matrix(0.010850694444444444,0,0,0.010850694444444444,13.0859375,0)" xlink:href="#aX"/><use transform="matrix(0.010850694444444444,0,0,0.010850694444444444,21.451822916666664,0)" xlink:href="#aW"/><use transform="matrix(0.010850694444444444,0,0,0.010850694444444444,33.93012152777777,0)" xlink:href="#bh"/><use transform="matrix(0.010850694444444444,0,0,0.010850694444444444,47.05946180555556,0)" xlink:href="#aU"/><use transform="matrix(0.010850694444444444,0,0,0.010850694444444444,58.789062499999986,0)" xlink:href="#bk"/><use transform="matrix(0.010850694444444444,0,0,0.010850694444444444,64.17100694444444,0)" xlink:href="#aV"/></g><g id="aq"><use transform="matrix(0.010850694444444444,0,0,0.010850694444444444,0,0)" xlink:href="#bM"/><use transform="matrix(0.010850694444444444,0,0,0.010850694444444444,16.536458333333332,0)" xlink:href="#bu"/><use transform="matrix(0.010850694444444444,0,0,0.010850694444444444,30.143229166666664,0)" xlink:href="#bE"/><use transform="matrix(0.010850694444444444,0,0,0.010850694444444444,43.75,0)" xlink:href="#aW"/><use transform="matrix(0.010850694444444444,0,0,0.010850694444444444,56.22829861111112,0)" xlink:href="#aV"/><use transform="matrix(0.010850694444444444,0,0,0.010850694444444444,63.28125000000001,0)" xlink:href="#bc"/><use transform="matrix(0.010850694444444444,0,0,0.010850694444444444,76.23697916666667,0)" xlink:href="#aU"/></g><path d="M628 22C291 22 81-210 81-554c0-346 210-578 547-578 336 0 547 232 547 578 0 344-211 576-547 576zm0-236c160 0 242-146 242-341 0-197-82-341-242-341S387-753 387-555c0 195 81 341 241 341" id="bO"/><g id="ar"><use transform="matrix(0.011935763888888888,0,0,0.011935763888888888,0,0)" xlink:href="#bo"/><use transform="matrix(0.011935763888888888,0,0,0.011935763888888888,18.631727430555554,0)" xlink:href="#bO"/></g><g id="as"><use transform="matrix(0.010850694444444444,0,0,0.010850694444444444,0,0)" xlink:href="#bv"/><use transform="matrix(0.010850694444444444,0,0,0.010850694444444444,16.03732638888889,0)" xlink:href="#bc"/><use transform="matrix(0.010850694444444444,0,0,0.010850694444444444,28.99305555555556,0)" xlink:href="#bw"/><use transform="matrix(0.010850694444444444,0,0,0.010850694444444444,34.375,0)" xlink:href="#bk"/><use transform="matrix(0.010850694444444444,0,0,0.010850694444444444,39.75694444444444,0)" xlink:href="#bL"/><use transform="matrix(0.010850694444444444,0,0,0.010850694444444444,51.81206597222222,0)" xlink:href="#bc"/><use transform="matrix(0.010850694444444444,0,0,0.010850694444444444,64.76779513888889,0)" xlink:href="#aX"/><use transform="matrix(0.010850694444444444,0,0,0.010850694444444444,73.48090277777779,0)" xlink:href="#bg"/></g><g id="at"><use transform="matrix(0.010850694444444444,0,0,0.010850694444444444,0,0)" xlink:href="#bd"/><use transform="matrix(0.010850694444444444,0,0,0.010850694444444444,15.33203125,0)" xlink:href="#bn"/><use transform="matrix(0.010850694444444444,0,0,0.010850694444444444,28.96050347222222,0)" xlink:href="#bc"/><use transform="matrix(0.010850694444444444,0,0,0.010850694444444444,41.916232638888886,0)" xlink:href="#bh"/><use transform="matrix(0.010850694444444444,0,0,0.010850694444444444,55.045572916666664,0)" xlink:href="#aV"/></g><g id="au"><use transform="matrix(0.010850694444444444,0,0,0.010850694444444444,0,0)" xlink:href="#bJ"/><use transform="matrix(0.010850694444444444,0,0,0.010850694444444444,20.07378472222222,0)" xlink:href="#aW"/><use transform="matrix(0.010850694444444444,0,0,0.010850694444444444,32.55208333333333,0)" xlink:href="#aX"/><use transform="matrix(0.010850694444444444,0,0,0.010850694444444444,41.265190972222214,0)" xlink:href="#bA"/><use transform="matrix(0.010850694444444444,0,0,0.010850694444444444,53.46137152777778,0)" xlink:href="#aU"/></g><g id="av"><use transform="matrix(0.010850694444444444,0,0,0.010850694444444444,0,0)" xlink:href="#bI"/><use transform="matrix(0.010850694444444444,0,0,0.010850694444444444,16.9921875,0)" xlink:href="#aZ"/><use transform="matrix(0.010850694444444444,0,0,0.010850694444444444,30.13237847222222,0)" xlink:href="#aV"/></g><g id="aw"><use transform="matrix(0.010850694444444444,0,0,0.010850694444444444,0,0)" xlink:href="#by"/><use transform="matrix(0.010850694444444444,0,0,0.010850694444444444,7.573784722222222,0)" xlink:href="#ba"/><use transform="matrix(0.010850694444444444,0,0,0.010850694444444444,20.8984375,0)" xlink:href="#aX"/></g><g id="ax"><use transform="matrix(0.010850694444444444,0,0,0.010850694444444444,0,0)" xlink:href="#bv"/><use transform="matrix(0.010850694444444444,0,0,0.010850694444444444,16.03732638888889,0)" xlink:href="#bc"/><use transform="matrix(0.010850694444444444,0,0,0.010850694444444444,28.99305555555556,0)" xlink:href="#bw"/><use transform="matrix(0.010850694444444444,0,0,0.010850694444444444,34.375,0)" xlink:href="#bk"/><use transform="matrix(0.010850694444444444,0,0,0.010850694444444444,39.75694444444444,0)" xlink:href="#bL"/><use transform="matrix(0.010850694444444444,0,0,0.010850694444444444,51.81206597222222,0)" xlink:href="#bc"/><use transform="matrix(0.010850694444444444,0,0,0.010850694444444444,64.76779513888889,0)" xlink:href="#aX"/><use transform="matrix(0.010850694444444444,0,0,0.010850694444444444,73.48090277777779,0)" xlink:href="#bg"/></g><g id="ay"><use transform="matrix(0.010850694444444444,0,0,0.010850694444444444,0,0)" xlink:href="#aY"/><use transform="matrix(0.010850694444444444,0,0,0.010850694444444444,16.23263888888889,0)" xlink:href="#aW"/><use transform="matrix(0.010850694444444444,0,0,0.010850694444444444,28.7109375,0)" xlink:href="#bu"/><use transform="matrix(0.010850694444444444,0,0,0.010850694444444444,42.31770833333333,0)" xlink:href="#aV"/><use transform="matrix(0.010850694444444444,0,0,0.010850694444444444,49.58767361111111,0)" xlink:href="#aZ"/><use transform="matrix(0.010850694444444444,0,0,0.010850694444444444,62.72786458333333,0)" xlink:href="#aX"/><use transform="matrix(0.010850694444444444,0,0,0.010850694444444444,70.72482638888889,0)" xlink:href="#bc"/></g><g id="az"><use transform="matrix(0.010850694444444444,0,0,0.010850694444444444,0,0)" xlink:href="#bB"/><use transform="matrix(0.010850694444444444,0,0,0.010850694444444444,14.192708333333332,0)" xlink:href="#aX"/><use transform="matrix(0.010850694444444444,0,0,0.010850694444444444,22.189670138888886,0)" xlink:href="#ba"/><use transform="matrix(0.010850694444444444,0,0,0.010850694444444444,35.514322916666664,0)" xlink:href="#ba"/><use transform="matrix(0.010850694444444444,0,0,0.010850694444444444,48.83897569444444,0)" xlink:href="#by"/></g><g id="aA"><use transform="matrix(0.010850694444444444,0,0,0.010850694444444444,0,0)" xlink:href="#ba"/><use transform="matrix(0.010850694444444444,0,0,0.010850694444444444,13.324652777777777,0)" xlink:href="#by"/></g><g id="aB"><use transform="matrix(0.010850694444444444,0,0,0.010850694444444444,0,0)" xlink:href="#bv"/><use transform="matrix(0.010850694444444444,0,0,0.010850694444444444,16.03732638888889,0)" xlink:href="#bc"/><use transform="matrix(0.010850694444444444,0,0,0.010850694444444444,28.99305555555556,0)" xlink:href="#bw"/><use transform="matrix(0.010850694444444444,0,0,0.010850694444444444,34.375,0)" xlink:href="#bk"/><use transform="matrix(0.010850694444444444,0,0,0.010850694444444444,39.75694444444444,0)" xlink:href="#bL"/><use transform="matrix(0.010850694444444444,0,0,0.010850694444444444,51.81206597222222,0)" xlink:href="#bc"/><use transform="matrix(0.010850694444444444,0,0,0.010850694444444444,64.76779513888889,0)" xlink:href="#aX"/><use transform="matrix(0.010850694444444444,0,0,0.010850694444444444,73.48090277777779,0)" xlink:href="#bg"/></g><g id="aC"><use transform="matrix(0.010850694444444444,0,0,0.010850694444444444,0,0)" xlink:href="#aY"/><use transform="matrix(0.010850694444444444,0,0,0.010850694444444444,16.23263888888889,0)" xlink:href="#aW"/><use transform="matrix(0.010850694444444444,0,0,0.010850694444444444,28.7109375,0)" xlink:href="#aU"/><use transform="matrix(0.010850694444444444,0,0,0.010850694444444444,40.44053819444444,0)" xlink:href="#bt"/></g><g id="aD"><use transform="matrix(0.010850694444444444,0,0,0.010850694444444444,0,0)" xlink:href="#ba"/><use transform="matrix(0.010850694444444444,0,0,0.010850694444444444,13.324652777777777,0)" xlink:href="#bh"/></g><path d="M1096 418H916v-591h-14C865-111 790 24 577 24c-279 0-473-224-473-580 0-354 195-576 474-576 218 0 287 134 324 193h20v-179h174V418zM604-137c203 0 314-172 314-421 0-247-108-413-314-413-212 0-317 181-317 413 0 235 108 421 317 421" id="bP"/><g id="aE"><use transform="matrix(0.010850694444444444,0,0,0.010850694444444444,0,0)" xlink:href="#bx"/><use transform="matrix(0.010850694444444444,0,0,0.010850694444444444,13.975694444444445,0)" xlink:href="#bc"/><use transform="matrix(0.010850694444444444,0,0,0.010850694444444444,26.931423611111104,0)" xlink:href="#bP"/><use transform="matrix(0.010850694444444444,0,0,0.010850694444444444,40.53819444444444,0)" xlink:href="#aZ"/><use transform="matrix(0.010850694444444444,0,0,0.010850694444444444,53.678385416666664,0)" xlink:href="#bk"/><use transform="matrix(0.010850694444444444,0,0,0.010850694444444444,59.06032986111111,0)" xlink:href="#aX"/><use transform="matrix(0.010850694444444444,0,0,0.010850694444444444,67.05729166666666,0)" xlink:href="#bc"/><use transform="matrix(0.010850694444444444,0,0,0.010850694444444444,80.01302083333333,0)" xlink:href="#bE"/><use transform="matrix(0.010850694444444444,0,0,0.010850694444444444,93.61979166666666,0)" xlink:href="#bl"/></g><g id="aF"><use transform="matrix(0.010850694444444444,0,0,0.010850694444444444,0,0)" xlink:href="#aY"/><use transform="matrix(0.010850694444444444,0,0,0.010850694444444444,16.23263888888889,0)" xlink:href="#ba"/><use transform="matrix(0.010850694444444444,0,0,0.010850694444444444,29.557291666666664,0)" xlink:href="#bw"/><use transform="matrix(0.010850694444444444,0,0,0.010850694444444444,34.93923611111111,0)" xlink:href="#bw"/><use transform="matrix(0.010850694444444444,0,0,0.010850694444444444,40.32118055555555,0)" xlink:href="#bc"/><use transform="matrix(0.010850694444444444,0,0,0.010850694444444444,53.27690972222221,0)" xlink:href="#be"/><use transform="matrix(0.010850694444444444,0,0,0.010850694444444444,65.97222222222221,0)" xlink:href="#aV"/></g><g id="aG"><use transform="matrix(0.010850694444444444,0,0,0.010850694444444444,0,0)" xlink:href="#aY"/><use transform="matrix(0.010850694444444444,0,0,0.010850694444444444,16.23263888888889,0)" xlink:href="#aW"/><use transform="matrix(0.010850694444444444,0,0,0.010850694444444444,28.7109375,0)" xlink:href="#aU"/><use transform="matrix(0.010850694444444444,0,0,0.010850694444444444,40.44053819444444,0)" xlink:href="#bt"/></g><g id="aH"><use transform="matrix(0.010850694444444444,0,0,0.010850694444444444,0,0)" xlink:href="#bB"/><use transform="matrix(0.010850694444444444,0,0,0.010850694444444444,14.192708333333332,0)" xlink:href="#aW"/><use transform="matrix(0.010850694444444444,0,0,0.010850694444444444,26.345486111111104,0)" xlink:href="#bg"/><use transform="matrix(0.010850694444444444,0,0,0.010850694444444444,38.834635416666664,0)" xlink:href="#bb"/><use transform="matrix(0.010850694444444444,0,0,0.010850694444444444,58.30078125,0)" xlink:href="#bc"/><use transform="matrix(0.010850694444444444,0,0,0.010850694444444444,71.25651041666667,0)" xlink:href="#bh"/><use transform="matrix(0.010850694444444444,0,0,0.010850694444444444,84.38585069444444,0)" xlink:href="#aV"/></g><g id="aI"><use transform="matrix(0.010850694444444444,0,0,0.010850694444444444,0,0)" xlink:href="#bM"/><use transform="matrix(0.010850694444444444,0,0,0.010850694444444444,16.536458333333332,0)" xlink:href="#bu"/><use transform="matrix(0.010850694444444444,0,0,0.010850694444444444,30.143229166666664,0)" xlink:href="#bE"/><use transform="matrix(0.010850694444444444,0,0,0.010850694444444444,43.75,0)" xlink:href="#aW"/><use transform="matrix(0.010850694444444444,0,0,0.010850694444444444,56.22829861111112,0)" xlink:href="#aV"/><use transform="matrix(0.010850694444444444,0,0,0.010850694444444444,63.28125000000001,0)" xlink:href="#bc"/></g><path d="M180 0v-1490h901v168H370v510h643v168H370V0H180" id="bQ"/><g id="aJ"><use transform="matrix(0.010850694444444444,0,0,0.010850694444444444,0,0)" xlink:href="#bQ"/><use transform="matrix(0.010850694444444444,0,0,0.010850694444444444,13.118489583333332,0)" xlink:href="#bk"/><use transform="matrix(0.010850694444444444,0,0,0.010850694444444444,18.50043402777778,0)" xlink:href="#bh"/><use transform="matrix(0.010850694444444444,0,0,0.010850694444444444,31.62977430555556,0)" xlink:href="#aW"/><use transform="matrix(0.010850694444444444,0,0,0.010850694444444444,44.10807291666667,0)" xlink:href="#bh"/><use transform="matrix(0.010850694444444444,0,0,0.010850694444444444,57.23741319444445,0)" xlink:href="#be"/><use transform="matrix(0.010850694444444444,0,0,0.010850694444444444,69.93272569444446,0)" xlink:href="#bk"/><use transform="matrix(0.010850694444444444,0,0,0.010850694444444444,75.3146701388889,0)" xlink:href="#aW"/><use transform="matrix(0.010850694444444444,0,0,0.010850694444444444,87.79296875000001,0)" xlink:href="#bw"/></g><g id="aK"><use transform="matrix(0.010850694444444444,0,0,0.010850694444444444,0,0)" xlink:href="#bf"/><use transform="matrix(0.010850694444444444,0,0,0.010850694444444444,14.2578125,0)" xlink:href="#aV"/><use transform="matrix(0.010850694444444444,0,0,0.010850694444444444,21.63628472222222,0)" xlink:href="#aW"/><use transform="matrix(0.010850694444444444,0,0,0.010850694444444444,34.11458333333333,0)" xlink:href="#aV"/><use transform="matrix(0.010850694444444444,0,0,0.010850694444444444,41.38454861111111,0)" xlink:href="#aZ"/><use transform="matrix(0.010850694444444444,0,0,0.010850694444444444,54.52473958333333,0)" xlink:href="#aU"/></g><g id="aL"><use transform="matrix(0.010850694444444444,0,0,0.010850694444444444,0,0)" xlink:href="#bJ"/><use transform="matrix(0.010850694444444444,0,0,0.010850694444444444,20.07378472222222,0)" xlink:href="#aW"/><use transform="matrix(0.010850694444444444,0,0,0.010850694444444444,32.55208333333333,0)" xlink:href="#aX"/><use transform="matrix(0.010850694444444444,0,0,0.010850694444444444,41.265190972222214,0)" xlink:href="#bA"/></g><g id="aM"><use transform="matrix(0.010850694444444444,0,0,0.010850694444444444,0,0)" xlink:href="#bv"/><use transform="matrix(0.010850694444444444,0,0,0.010850694444444444,16.03732638888889,0)" xlink:href="#bc"/><use transform="matrix(0.010850694444444444,0,0,0.010850694444444444,28.99305555555556,0)" xlink:href="#bw"/><use transform="matrix(0.010850694444444444,0,0,0.010850694444444444,34.375,0)" xlink:href="#bk"/><use transform="matrix(0.010850694444444444,0,0,0.010850694444444444,39.75694444444444,0)" xlink:href="#bL"/><use transform="matrix(0.010850694444444444,0,0,0.010850694444444444,51.81206597222222,0)" xlink:href="#bc"/><use transform="matrix(0.010850694444444444,0,0,0.010850694444444444,64.76779513888889,0)" xlink:href="#aX"/><use transform="matrix(0.010850694444444444,0,0,0.010850694444444444,72.76475694444444,0)" xlink:href="#bc"/><use transform="matrix(0.010850694444444444,0,0,0.010850694444444444,85.72048611111111,0)" xlink:href="#bE"/></g><g id="aN"><use transform="matrix(0.011935763888888888,0,0,0.011935763888888888,0,0)" xlink:href="#bq"/><use transform="matrix(0.011935763888888888,0,0,0.011935763888888888,15.194227430555555,0)" xlink:href="#bC"/><use transform="matrix(0.011935763888888888,0,0,0.011935763888888888,29.755859374999996,0)" xlink:href="#bD"/></g><path fill="#333" d="M135 0v-1490h340l471 754c59 97 122 210 187 365-32-387-14-721-19-1119h312V0h-341C855-382 627-689 427-1113c32 420 16 695 20 1113H135" id="bR"/><path fill="#333" d="M628 22C291 22 81-210 81-554c0-346 210-578 547-578 336 0 547 232 547 578 0 344-211 576-547 576zm0-236c160 0 242-146 242-341 0-197-82-341-242-341S387-753 387-555c0 195 81 341 241 341" id="bS"/><g id="aO"><use transform="matrix(0.011935763888888888,0,0,0.011935763888888888,0,0)" xlink:href="#bR"/><use transform="matrix(0.011935763888888888,0,0,0.011935763888888888,18.631727430555554,0)" xlink:href="#bS"/></g><g id="aP"><use transform="matrix(0.010850694444444444,0,0,0.010850694444444444,0,0)" xlink:href="#aY"/><use transform="matrix(0.010850694444444444,0,0,0.010850694444444444,16.23263888888889,0)" xlink:href="#aZ"/><use transform="matrix(0.010850694444444444,0,0,0.010850694444444444,29.37282986111111,0)" xlink:href="#aU"/><use transform="matrix(0.010850694444444444,0,0,0.010850694444444444,41.10243055555556,0)" xlink:href="#aV"/><use transform="matrix(0.010850694444444444,0,0,0.010850694444444444,48.15538194444445,0)" xlink:href="#ba"/><use transform="matrix(0.010850694444444444,0,0,0.010850694444444444,61.48003472222223,0)" xlink:href="#bb"/><use transform="matrix(0.010850694444444444,0,0,0.010850694444444444,80.94618055555556,0)" xlink:href="#bc"/><use transform="matrix(0.010850694444444444,0,0,0.010850694444444444,93.90190972222221,0)" xlink:href="#aX"/></g><path d="M600 0L52-1490h200c166 485 304 806 458 1336 156-533 285-846 449-1336h202L819 0H600" id="bT"/><g id="aQ"><use transform="matrix(0.010850694444444444,0,0,0.010850694444444444,0,0)" xlink:href="#bT"/><use transform="matrix(0.010850694444444444,0,0,0.010850694444444444,15.33203125,0)" xlink:href="#bk"/><use transform="matrix(0.010850694444444444,0,0,0.010850694444444444,20.713975694444443,0)" xlink:href="#bc"/><use transform="matrix(0.010850694444444444,0,0,0.010850694444444444,33.268229166666664,0)" xlink:href="#bN"/></g><g id="aR"><use transform="matrix(0.010850694444444444,0,0,0.010850694444444444,0,0)" xlink:href="#bv"/><use transform="matrix(0.010850694444444444,0,0,0.010850694444444444,16.03732638888889,0)" xlink:href="#bc"/><use transform="matrix(0.010850694444444444,0,0,0.010850694444444444,28.99305555555556,0)" xlink:href="#bw"/><use transform="matrix(0.010850694444444444,0,0,0.010850694444444444,34.375,0)" xlink:href="#bk"/><use transform="matrix(0.010850694444444444,0,0,0.010850694444444444,39.75694444444444,0)" xlink:href="#bL"/><use transform="matrix(0.010850694444444444,0,0,0.010850694444444444,51.81206597222222,0)" xlink:href="#bc"/><use transform="matrix(0.010850694444444444,0,0,0.010850694444444444,64.76779513888889,0)" xlink:href="#aX"/><use transform="matrix(0.010850694444444444,0,0,0.010850694444444444,73.48090277777779,0)" xlink:href="#bg"/></g><path d="M180 0v-1490h190v644h782v-644h190V0h-190v-678H370V0H180" id="bU"/><g id="aS"><use transform="matrix(0.010850694444444444,0,0,0.010850694444444444,0,0)" xlink:href="#bU"/><use transform="matrix(0.010850694444444444,0,0,0.010850694444444444,16.514756944444443,0)" xlink:href="#bk"/><use transform="matrix(0.010850694444444444,0,0,0.010850694444444444,21.896701388888886,0)" xlink:href="#aU"/><use transform="matrix(0.010850694444444444,0,0,0.010850694444444444,33.62630208333333,0)" xlink:href="#aV"/><use transform="matrix(0.010850694444444444,0,0,0.010850694444444444,40.67925347222222,0)" xlink:href="#ba"/><use transform="matrix(0.010850694444444444,0,0,0.010850694444444444,54.00390625,0)" xlink:href="#aX"/><use transform="matrix(0.010850694444444444,0,0,0.010850694444444444,62.717013888888886,0)" xlink:href="#bg"/></g><g id="aT"><use transform="matrix(0.010850694444444444,0,0,0.010850694444444444,0,0)" xlink:href="#bi"/><use transform="matrix(0.010850694444444444,0,0,0.010850694444444444,13.35720486111111,0)" xlink:href="#bh"/><use transform="matrix(0.010850694444444444,0,0,0.010850694444444444,26.48654513888889,0)" xlink:href="#bE"/></g></defs></g></svg>