<svg xmlns="http://www.w3.org/2000/svg" xmlns:xlink="http://www.w3.org/1999/xlink" xmlns:lucid="lucid" width="2780.11" height="1144.2"><g transform="translate(1579.1119791666667 700)" lucid:page-tab-id="0_0"><path d="M504.05-278.2a12 12 0 0 1 12-12h29.9v60h-29.9a12 12 0 0 1-12-12z" stroke="#000" stroke-width="2" fill="#fff"/><path d="M545.94-290.2h146.1a12 12 0 0 1 12 12v36a12 12 0 0 1-12 12h-146.1z" stroke="#000" stroke-width="2" fill="none"/><use xlink:href="#a" transform="matrix(-1.8369701987210297e-16,-1,1,-1.8369701987210297e-16,504.0533940972221,-230.20658854166663) translate(15.118272569444445 29.08376736111111)"/><path d="M-118.1 72a12 12 0 0 1 12-12h29.88v60h-29.9a12 12 0 0 1-12-12z" stroke="#000" stroke-width="2" fill="#fff"/><path d="M-76.22 60h146.1a12 12 0 0 1 12 12v36a12 12 0 0 1-12 12H-76.2z" stroke="#000" stroke-width="2" fill="none"/><use xlink:href="#b" transform="matrix(-1.8369701987210297e-16,-1,1,-1.8369701987210297e-16,-118.11197916666664,120) translate(17.462022569444443 29.08376736111111)"/><path d="M640-168a12 12 0 0 1 12-12h29.9v60H652a12 12 0 0 1-12-12z" stroke="#000" stroke-width="2" fill="#fff"/><path d="M681.9-180H828a12 12 0 0 1 12 12v36a12 12 0 0 1-12 12H681.9z" stroke="#000" stroke-width="2" fill="none"/><use xlink:href="#c" transform="matrix(-1.8369701987210297e-16,-1,1,-1.8369701987210297e-16,639.9999999999999,-120.00000000000006) translate(14.803602430555555 29.08376736111111)"/><path d="M-1578.1-140.42a12 12 0 0 1 12-12h29.88v60h-29.9a12 12 0 0 1-12-12z" stroke="#000" stroke-width="2" fill="#fff"/><path d="M-1536.22-152.42h146.1a12 12 0 0 1 12 12v36a12 12 0 0 1-12 12h-146.1z" stroke="#000" stroke-width="2" fill="none"/><use xlink:href="#d" transform="matrix(-1.8369701987210297e-16,-1,1,-1.8369701987210297e-16,-1578.1119791666667,-92.4158072916664) translate(15.205078125 29.08376736111111)"/><path d="M-800-674a6 6 0 0 1 6-6h308a6 6 0 0 1 6 6v208a6 6 0 0 1-6 6h-308a6 6 0 0 1-6-6z" stroke="#000" stroke-width="2" fill="#fff"/><use xlink:href="#e" transform="matrix(1,0,0,1,-788,-668) translate(96.86610243055554 106.12934027777777)"/><path d="M-118.1-341.1a6 6 0 0 1 6-6h288a6 6 0 0 1 6 6V-186a6 6 0 0 1-6 6h-288a6 6 0 0 1-6-6z" stroke="#000" stroke-width="2" fill="#fff"/><use xlink:href="#f" transform="matrix(1,0,0,1,-106.11197916666666,-335.10265625) translate(71.51779513888889 80.02777777777777)"/><use xlink:href="#g" transform="matrix(1,0,0,1,-106.11197916666666,-335.10265625) translate(137.56597222222223 80.02777777777777)"/><path d="M-1160 284.5a6 6 0 0 1 6-6h248a6 6 0 0 1 6 6v152.7a6 6 0 0 1-6 6h-248a6 6 0 0 1-6-6z" stroke="#000" stroke-width="2" fill="#fff"/><use xlink:href="#h" transform="matrix(1,0,0,1,-1148,290.5) translate(53.89952256944444 78.53363715277777)"/><use xlink:href="#i" transform="matrix(1,0,0,1,-1148,290.5) translate(105.17990451388889 78.53363715277777)"/><path d="M820-574a6 6 0 0 1 6-6h368a6 6 0 0 1 6 6v228a6 6 0 0 1-6 6H826a6 6 0 0 1-6-6z" stroke="#000" stroke-width="2" fill="#fff"/><use xlink:href="#j" transform="matrix(1,0,0,1,832,-568) translate(84.77625868055557 116.02777777777777)"/><use xlink:href="#k" transform="matrix(1,0,0,1,832,-568) translate(182.68207465277777 116.02777777777777)"/><path d="M-1280-111.85a6 6 0 0 1 6-6h227.63a6 6 0 0 1 6 6V34a6 6 0 0 1-6 6H-1274a6 6 0 0 1-6-6z" stroke="#000" stroke-width="2" fill="#fff"/><use xlink:href="#l" transform="matrix(1,0,0,1,-1268,-105.84635416666666) translate(9.600477430555557 75.18012152777777)"/><use xlink:href="#m" transform="matrix(1,0,0,1,-1268,-105.84635416666666) translate(101.8205295138889 75.18012152777777)"/><path d="M154.63-652.5a12 12 0 0 1 12-12h176a12 12 0 0 1 12 12v165a12 12 0 0 1-12 12h-176a12 12 0 0 1-12-12z" fill="#fff"/><path d="M154.63-624.5h200v38h-200z" fill="#fff"/><path d="M154.63-587.5h200v29h-200z" fill="#fff"/><path d="M154.63-559.5h200v29h-200z" fill="#fff"/><path d="M154.63-531.5h200v29h-200z" fill="#fff"/><path d="M154.63-503.5h200v16a12 12 0 0 1-12 12h-176a12 12 0 0 1-12-12z" fill="#fff"/><path d="M155.63-624.5h198-198zM154.63-652.5a12 12 0 0 1 12-12h176a12 12 0 0 1 12 12v165a12 12 0 0 1-12 12h-176a12 12 0 0 1-12-12z" stroke="#000" stroke-width="2" fill="none"/><use xlink:href="#n" transform="matrix(1,0,0,1,164.6306944444442,-664.5) translate(73.26822916666666 28.08376736111111)"/><use xlink:href="#o" transform="matrix(1,0,0,1,159.6306944444442,-622) translate(0 24.08376736111111)"/><use xlink:href="#p" transform="matrix(1,0,0,1,159.6306944444442,-622) translate(69.07552083333333 24.08376736111111)"/><use xlink:href="#q" transform="matrix(1,0,0,1,159.6306944444442,-622) translate(89.63758680555554 24.08376736111111)"/><path d="M-840 35.95a12 12 0 0 1 12-12h236a12 12 0 0 1 12 12v165a12 12 0 0 1-12 12h-236a12 12 0 0 1-12-12z" fill="#fff"/><path d="M-840 63.95h260v38h-260z" fill="#fff"/><path d="M-840 100.95h260v29h-260z" fill="#fff"/><path d="M-840 128.95h260v29h-260z" fill="#fff"/><path d="M-840 156.95h260v29h-260z" fill="#fff"/><path d="M-840 184.95h260v16a12 12 0 0 1-12 12h-236a12 12 0 0 1-12-12z" fill="#fff"/><path d="M-839 63.95h258-258zM-840 35.95a12 12 0 0 1 12-12h236a12 12 0 0 1 12 12v165a12 12 0 0 1-12 12h-236a12 12 0 0 1-12-12z" stroke="#000" stroke-width="2" fill="none"/><use xlink:href="#r" transform="matrix(1,0,0,1,-830,23.949010416666667) translate(103.45811631944444 28.08376736111111)"/><use xlink:href="#s" transform="matrix(1,0,0,1,-835,66.44901041666667) translate(0 24.08376736111111)"/><use xlink:href="#t" transform="matrix(1,0,0,1,-835,66.44901041666667) translate(18.75 24.08376736111111)"/><use xlink:href="#p" transform="matrix(1,0,0,1,-835,66.44901041666667) translate(115.96137152777777 24.08376736111111)"/><use xlink:href="#u" transform="matrix(1,0,0,1,-835,66.44901041666667) translate(136.5234375 24.08376736111111)"/><path d="M-1000-404.13a12 12 0 0 1 12-12h196a12 12 0 0 1 12 12v197a12 12 0 0 1-12 12h-196a12 12 0 0 1-12-12z" fill="#fff"/><path d="M-1000-376.13h220v70h-220z" fill="#fff"/><path d="M-1000-307.13h220v29h-220z" fill="#fff"/><path d="M-1000-279.13h220v29h-220z" fill="#fff"/><path d="M-1000-251.13h220v29h-220z" fill="#fff"/><path d="M-1000-223.13h220v16a12 12 0 0 1-12 12h-196a12 12 0 0 1-12-12z" fill="#fff"/><path d="M-999-376.13h218-218zM-1000-404.13a12 12 0 0 1 12-12h196a12 12 0 0 1 12 12v197a12 12 0 0 1-12 12h-196a12 12 0 0 1-12-12z" stroke="#000" stroke-width="2" fill="none"/><use xlink:href="#v" transform="matrix(1,0,0,1,-990,-416.12902282026823) translate(83.29535590277777 28.08376736111111)"/><use xlink:href="#w" transform="matrix(1,0,0,1,-995,-373.62902282026823) translate(0 23.95095486111111)"/><use xlink:href="#x" transform="matrix(1,0,0,1,-995,-373.62902282026823) translate(0 56.21657986111111)"/><path d="M-440-301.42a12 12 0 0 1 12-12h176a12 12 0 0 1 12 12v197a12 12 0 0 1-12 12h-176a12 12 0 0 1-12-12z" fill="#fff"/><path d="M-440-273.42h200v70h-200z" fill="#fff"/><path d="M-440-204.42h200v29h-200z" fill="#fff"/><path d="M-440-176.42h200v29h-200z" fill="#fff"/><path d="M-440-148.42h200v29h-200z" fill="#fff"/><path d="M-440-120.42h200v16a12 12 0 0 1-12 12h-176a12 12 0 0 1-12-12z" fill="#fff"/><path d="M-439-273.42h198-198zM-440-301.42a12 12 0 0 1 12-12h176a12 12 0 0 1 12 12v197a12 12 0 0 1-12 12h-176a12 12 0 0 1-12-12z" stroke="#000" stroke-width="2" fill="none"/><use xlink:href="#y" transform="matrix(1,0,0,1,-430,-313.4158072916666) translate(75.55230034722223 28.08376736111111)"/><use xlink:href="#z" transform="matrix(1,0,0,1,-435,-270.9158072916666) translate(0 23.95095486111111)"/><use xlink:href="#x" transform="matrix(1,0,0,1,-435,-270.9158072916666) translate(0 56.21657986111111)"/><path d="M-38.1 76.2a6 6 0 0 1 6-6H22a6 6 0 0 1 6 6v27.6a6 6 0 0 1-6 6h-54.1a6 6 0 0 1-6-6z" fill="none"/><use xlink:href="#A" transform="matrix(1,0,0,1,-33.111979166666664,75.20658854166669) translate(0 23.89214409722222)"/><path d="M-1514.13-134.87a6 6 0 0 1 6-6h101.92a6 6 0 0 1 6 6v24.9a6 6 0 0 1-6 6h-101.93a6 6 0 0 1-6-6z" fill="none"/><use xlink:href="#B" transform="matrix(1,0,0,1,-1509.1260937500003,-135.86481770833325) translate(0 21.58376736111111)"/><path d="M586.66-272.66a6 6 0 0 1 6-6h64.68a6 6 0 0 1 6 6v24.9a6 6 0 0 1-6 6h-64.68a6 6 0 0 1-6-6z" fill="none"/><use xlink:href="#C" transform="matrix(1,0,0,1,591.6590711805554,-273.65559895833326) translate(0 21.58376736111111)"/><path d="M713.4-162.45a6 6 0 0 1 6-6h83.1a6 6 0 0 1 6 6v24.9a6 6 0 0 1-6 6h-83.1a6 6 0 0 1-6-6z" fill="none"/><use xlink:href="#D" transform="matrix(1,0,0,1,718.3880121527778,-163.44901041666662) translate(0 21.58376736111111)"/><path d="M-528.15-457.5v64.8a6 6 0 0 0 6 6H-346a6 6 0 0 1 6 6v45.66" stroke="#3a414a" stroke-width="3" fill="none"/><path d="M-526.68-457.46h-2.95V-459h2.95z" stroke="#3a414a" stroke-width=".05" fill="#3a414a"/><path d="M-340-319.27l-4.63-14.27h9.26z" stroke="#3a414a" stroke-width="3" fill="#3a414a"/><path d="M-480-599.38a6 6 0 0 1 6-6h208.22a6 6 0 0 1 6 6v24.9a6 6 0 0 1-6 6H-474a6 6 0 0 1-6-6z" fill="none"/><use xlink:href="#E" transform="matrix(1,0,0,1,-475,-600.3776041666667) translate(0 21.58376736111111)"/><use xlink:href="#F" transform="matrix(1,0,0,1,-475,-600.3776041666667) translate(160.1128472222222 21.58376736111111)"/><path d="M-477.5-570H-266a6 6 0 0 1 6 6v208.96a.62.62 0 0 1-.62.62.62.62 0 0 0-.62.63v18.76" stroke="#3a414a" stroke-width="3" fill="none"/><path d="M-477.46-568.52H-479v-2.96h1.54z" stroke="#3a414a" stroke-width=".05" fill="#3a414a"/><path d="M-261.24-319.27l-4.64-14.27h9.27z" stroke="#3a414a" stroke-width="3" fill="#3a414a"/><path d="M-528.28-440.36a6 6 0 0 1 6-6h256.5a6 6 0 0 1 6 6v52.17a6 6 0 0 1-6 6h-256.5a6 6 0 0 1-6-6z" fill="none"/><use xlink:href="#G" transform="matrix(1,0,0,1,-523.2795052083334,-441.3635026041667) translate(0 35.583767361111114)"/><use xlink:href="#H" transform="matrix(1,0,0,1,-523.2795052083334,-441.3635026041667) translate(96.92925347222223 35.583767361111114)"/><use xlink:href="#I" transform="matrix(1,0,0,1,-523.2795052083334,-441.3635026041667) translate(190.00651041666669 35.583767361111114)"/><path d="M-415.64-71.42V84a6 6 0 0 0 6 6h272.3M-415.64-91.42v20m-10 0h20M-119.78 90h-20m20-10l-20 10m20 10l-20-10" stroke="#3a414a" stroke-width="3" fill="none"/><path d="M-1000-694a6 6 0 0 1 6-6h182.1a6 6 0 0 1 6 6v24.9a6 6 0 0 1-6 6H-994a6 6 0 0 1-6-6z" fill="none"/><use xlink:href="#J" transform="matrix(1,0,0,1,-995,-695) translate(0 21.58376736111111)"/><use xlink:href="#K" transform="matrix(1,0,0,1,-995,-695) translate(109.16883680555556 21.58376736111111)"/><path d="M-762.03-389.83a6 6 0 0 1 6-6h128a6 6 0 0 1 6 6v57.16a6 6 0 0 1-6 6h-128a6 6 0 0 1-6-6z" fill="none"/><use xlink:href="#L" transform="matrix(1,0,0,1,-757.0325694444444,-390.8289843750001) translate(0 21.95095486111111)"/><use xlink:href="#M" transform="matrix(1,0,0,1,-757.0325694444444,-390.8289843750001) translate(0 54.21657986111111)"/><path d="M-802.5-658.34h-172.35a6 6 0 0 0-6 6v194.8a.4.4 0 0 0 .42.4.4.4 0 0 1 .4.43v18.95" stroke="#3a414a" stroke-width="3" fill="none"/><path d="M-801-656.87h-1.54v-2.95h1.54z" stroke="#3a414a" stroke-width=".05" fill="#3a414a"/><path d="M-980.02-421.98l-4.64-14.27h9.27z" stroke="#3a414a" stroke-width="3" fill="#3a414a"/><path d="M-930.28-418.63V-457a.14.14 0 0 1 .14-.13.14.14 0 0 0 .14-.14V-564a6 6 0 0 1 6-6h105.5" stroke="#3a414a" stroke-width="3" fill="none"/><path d="M-928.8-417.13h-2.95v-1.54h2.95z" stroke="#3a414a" stroke-width=".05" fill="#3a414a"/><path d="M-804-570l-13 7.5v-15z" stroke="#3a414a" stroke-width="3" fill="#3a414a"/><path d="M-661.28-457.5v37.86a.64.64 0 0 0 .64.64.64.64 0 0 1 .64.64V-318a6 6 0 0 1-6 6h-105.38" stroke="#3a414a" stroke-width="3" fill="none"/><path d="M-659.8-457.46h-2.95V-459h2.95z" stroke="#3a414a" stroke-width=".05" fill="#3a414a"/><path d="M-777.17-303.94l4.56-14.3 7.52 5.42z" stroke="#3a414a" stroke-width="3" fill="#3a414a"/><path d="M-890-418.63v-59.12a6 6 0 0 1 6-6h65.5" stroke="#3a414a" stroke-width="3" fill="none"/><path d="M-888.52-417.13h-2.96v-1.54h2.96z" stroke="#3a414a" stroke-width=".05" fill="#3a414a"/><path d="M-804-483.75l-13 7.5v-15z" stroke="#3a414a" stroke-width="3" fill="#3a414a"/><path d="M-960-631.64a6 6 0 0 1 6-6h145.28a6 6 0 0 1 6 6v57.16a6 6 0 0 1-6 6H-954a6 6 0 0 1-6-6z" fill="none"/><use xlink:href="#N" transform="matrix(1,0,0,1,-955,-632.6432291666667) translate(0 21.95095486111111)"/><use xlink:href="#O" transform="matrix(1,0,0,1,-955,-632.6432291666667) translate(0 54.21657986111111)"/><path d="M-920-554a6 6 0 0 1 6-6h117.68a6 6 0 0 1 6 6v57.16a6 6 0 0 1-6 6H-914a6 6 0 0 1-6-6z" fill="none"/><use xlink:href="#P" transform="matrix(1,0,0,1,-915,-555) translate(0 21.95095486111111)"/><use xlink:href="#Q" transform="matrix(1,0,0,1,-915,-555) translate(0 54.21657986111111)"/><path d="M-1021-396.13h-485a6 6 0 0 0-6 6v218.48M-1001-396.13h-20m0-10v20M-1512-154.1v-20m10 20l-10-20m-10 20l10-20" stroke="#3a414a" stroke-width="3" fill="none"/><path d="M-1240-426.73a6 6 0 0 1 6-6h210.03a6 6 0 0 1 6 6v24.9a6 6 0 0 1-6 6H-1234a6 6 0 0 1-6-6z" fill="none"/><use xlink:href="#R" transform="matrix(1,0,0,1,-1235,-427.7270052083334) translate(0 21.58376736111111)"/><use xlink:href="#S" transform="matrix(1,0,0,1,-1235,-427.7270052083334) translate(63.107638888888886 21.58376736111111)"/><use xlink:href="#T" transform="matrix(1,0,0,1,-1235,-427.7270052083334) translate(170.17144097222223 21.58376736111111)"/><path d="M-1021-341.96h-434.22a6 6 0 0 0-6 6v164.3M-1001-341.96h-20m0-10v20M-1461.22-154.1v-20m10 20l-10-20m-10 20l10-20" stroke="#3a414a" stroke-width="3" fill="none"/><path d="M-1160-374a6 6 0 0 1 6-6h122.22a6 6 0 0 1 6 6v24.9a6 6 0 0 1-6 6H-1154a6 6 0 0 1-6-6z" fill="none"/><use xlink:href="#U" transform="matrix(1,0,0,1,-1155,-375) translate(0 21.58376736111111)"/><use xlink:href="#V" transform="matrix(1,0,0,1,-1155,-375) translate(82.35677083333333 21.58376736111111)"/><path d="M-1037.87 3.63h246.2" stroke="#3a414a" stroke-width="3" fill="none"/><path d="M-1037.83 5.1h-1.54V2.17h1.54z" stroke="#3a414a" stroke-width=".05" fill="#3a414a"/><path d="M-790.7 18.1l-5.57-13.92 9.24-.62z" stroke="#3a414a" stroke-width="3" fill="#3a414a"/><path d="M-1000-34a6 6 0 0 1 6-6h164.18a6 6 0 0 1 6 6v24.9a6 6 0 0 1-6 6H-994a6 6 0 0 1-6-6z" fill="none"/><use xlink:href="#W" transform="matrix(1,0,0,1,-995,-35) translate(0 21.58376736111111)"/><use xlink:href="#X" transform="matrix(1,0,0,1,-995,-35) translate(75.37977430555556 21.58376736111111)"/><path d="M-1037.87-86.8h287.6a6 6 0 0 1 6 6V2.33" stroke="#3a414a" stroke-width="3" fill="none"/><path d="M-1037.83-85.33h-1.54v-2.95h1.54z" stroke="#3a414a" stroke-width=".05" fill="#3a414a"/><path d="M-744.26 18.1l-4.64-14.27h9.27z" stroke="#3a414a" stroke-width="3" fill="#3a414a"/><path d="M-980.07-123.3a6 6 0 0 1 6-6H-786a6 6 0 0 1 6 6v24.88a6 6 0 0 1-6 6h-188.07a6 6 0 0 1-6-6z" fill="none"/><use xlink:href="#Y" transform="matrix(1,0,0,1,-975.0707638888889,-124.31382812499993) translate(0 21.58376736111111)"/><use xlink:href="#X" transform="matrix(1,0,0,1,-975.0707638888889,-124.31382812499993) translate(99.27300347222223 21.58376736111111)"/><path d="M-1160.2 42.5v33.67a6 6 0 0 0 6 6h292.58" stroke="#3a414a" stroke-width="3" fill="none"/><path d="M-1158.7 42.54h-2.96V41h2.95z" stroke="#3a414a" stroke-width=".05" fill="#3a414a"/><path d="M-845.85 82.17l-14.27 4.64v-9.26z" stroke="#3a414a" stroke-width="3" fill="#3a414a"/><path d="M-861 114.92h-611.1a6 6 0 0 1-6-6v-182.1M-841 114.92h-20m0-10v20M-1478.1-90.75v20m-10-20l10 20m10-20l-10 20" stroke="#3a414a" stroke-width="3" fill="none"/><path d="M-861 171.35h-672.34a6 6 0 0 1-6-6V-73.18M-841 171.35h-20m0-10v20M-1539.34-90.75v20m-10-20l10 20m10-20l-10 20" stroke="#3a414a" stroke-width="3" fill="none"/><path d="M-1420 82.9a6 6 0 0 1 6-6h149.63a6 6 0 0 1 6 6v24.9a6 6 0 0 1-6 6H-1414a6 6 0 0 1-6-6z" fill="none"/><use xlink:href="#Z" transform="matrix(1,0,0,1,-1415,81.89802083333333) translate(0 21.58376736111111)"/><use xlink:href="#aa" transform="matrix(1,0,0,1,-1415,81.89802083333333) translate(83.60460069444444 21.58376736111111)"/><path d="M-1060 46a6 6 0 0 1 6-6h152.55a6 6 0 0 1 6 6v24.9a6 6 0 0 1-6 6H-1054a6 6 0 0 1-6-6z" fill="none"/><use xlink:href="#ab" transform="matrix(1,0,0,1,-1055,45) translate(0 21.58376736111111)"/><use xlink:href="#ac" transform="matrix(1,0,0,1,-1055,45) translate(95.5295138888889 21.58376736111111)"/><path d="M-1520 146a6 6 0 0 1 6-6h217.52a6 6 0 0 1 6 6v24.9a6 6 0 0 1-6 6H-1514a6 6 0 0 1-6-6z" fill="none"/><use xlink:href="#ad" transform="matrix(1,0,0,1,-1515,145) translate(0 21.58376736111111)"/><use xlink:href="#ae" transform="matrix(1,0,0,1,-1515,145) translate(76.54079861111111 21.58376736111111)"/><use xlink:href="#af" transform="matrix(1,0,0,1,-1515,145) translate(171.45182291666669 21.58376736111111)"/><path d="M-897.5 360.85h290.02a6 6 0 0 0 6-6v-94.9a6 6 0 0 0-6-6H-704a6 6 0 0 1-6-6v-13.38" stroke="#3a414a" stroke-width="3" fill="none"/><path d="M-897.46 362.33H-899v-2.95h1.54z" stroke="#3a414a" stroke-width=".05" fill="#3a414a"/><path d="M-710 218.8l4.63 14.27h-9.26z" stroke="#3a414a" stroke-width="3" fill="#3a414a"/><path d="M-840 326a6 6 0 0 1 6-6h196.1a6 6 0 0 1 6 6v24.9a6 6 0 0 1-6 6H-834a6 6 0 0 1-6-6z" fill="none"/><use xlink:href="#ag" transform="matrix(1,0,0,1,-835,325) translate(0 21.58376736111111)"/><use xlink:href="#ah" transform="matrix(1,0,0,1,-835,325) translate(110.6228298611111 21.58376736111111)"/><path d="M-675.3 2.95V-124a6 6 0 0 1 6-6h67.43a6 6 0 0 0 6-6v-304.76M-675.3 22.95v-20m10 0h-20M-595.87-458.33v20m-10-20l10 20m10-20l-10 20" stroke="#3a414a" stroke-width="3" fill="none"/><path d="M-634-167.8a6 6 0 0 1-6-6V-314a6 6 0 0 1 6-6h24.9a6 6 0 0 1 6 6v140.2a6 6 0 0 1-6 6z" fill="none"/><use xlink:href="#ai" transform="matrix(6.123233995736766e-17,-1,1,6.123233995736766e-17,-634.9999999999999,-172.79164930555544) translate(0 21.58376736111111)"/><use xlink:href="#aj" transform="matrix(6.123233995736766e-17,-1,1,6.123233995736766e-17,-634.9999999999999,-172.79164930555544) translate(100.34722222222223 21.58376736111111)"/><path d="M-477.5-654.13h32.5a6 6 0 0 1 6 6V-616a6 6 0 0 0 6 6h540.63a6 6 0 0 1 6 6v68.38a6 6 0 0 0 6 6H133" stroke="#3a414a" stroke-width="3" fill="none"/><path d="M-477.46-652.66H-479v-2.95h1.54z" stroke="#3a414a" stroke-width=".05" fill="#3a414a"/><path d="M148.78-529.62l-14.27 4.64v-9.27z" stroke="#3a414a" stroke-width="3" fill="#3a414a"/><path d="M-259.78-654a6 6 0 0 1 6-6h182.2a6 6 0 0 1 6 6v24.9a6 6 0 0 1-6 6h-182.2a6 6 0 0 1-6-6z" fill="none"/><g><use xlink:href="#ak" transform="matrix(1,0,0,1,-254.7794965277779,-655) translate(0 21.58376736111111)"/><use xlink:href="#al" transform="matrix(1,0,0,1,-254.7794965277779,-655) translate(100.77039930555556 21.58376736111111)"/></g><path d="M357.13-573.53h224.2a6 6 0 0 1 6 6V-466a6 6 0 0 0 6 6H801.5" stroke="#3a414a" stroke-width="3" fill="none"/><path d="M357.17-572.06h-1.54V-575h1.54z" stroke="#3a414a" stroke-width=".05" fill="#3a414a"/><path d="M816-460l-13 7.5v-15z" stroke="#3a414a" stroke-width="3" fill="#3a414a"/><path d="M602.7-514a6 6 0 0 1 6-6h171.65a6 6 0 0 1 6 6v24.9a6 6 0 0 1-6 6H608.7a6 6 0 0 1-6-6z" fill="none"/><g><use xlink:href="#ak" transform="matrix(1,0,0,1,607.6883767361111,-515) translate(0 21.58376736111111)"/><use xlink:href="#am" transform="matrix(1,0,0,1,607.6883767361111,-515) translate(100.77039930555556 21.58376736111111)"/></g><path d="M357.13-645.25h596.2a6 6 0 0 1 6 6v40.76" stroke="#3a414a" stroke-width="3" fill="none"/><path d="M357.17-643.77h-1.54v-2.95h1.54z" stroke="#3a414a" stroke-width=".05" fill="#3a414a"/><path d="M959.34-584l-7.5-13h15z" stroke="#3a414a" stroke-width="3" fill="#3a414a"/><path d="M478.8-694a6 6 0 0 1 6-6h238.5a6 6 0 0 1 6 6v24.9a6 6 0 0 1-6 6H484.8a6 6 0 0 1-6-6z" fill="none"/><g><use xlink:href="#an" transform="matrix(1,0,0,1,483.8064236111111,-695) translate(0 21.58376736111111)"/><use xlink:href="#ao" transform="matrix(1,0,0,1,483.8064236111111,-695) translate(100.87890625 21.58376736111111)"/></g><path d="M339.83-454.5v65.65a6 6 0 0 0 6 6h252.22a6 6 0 0 1 6 6v67.4M339.83-474.5v20m-10 0h20M604.05-291.88v-20m10 20l-10-20m-10 20l10-20" stroke="#3a414a" stroke-width="3" fill="none"/><path d="M304.83-454.5V-156a6 6 0 0 0 6 6h309.94M304.83-474.5v20m-10 0h20M638.33-150h-20m20-10l-20 10m20 10l-20-10" stroke="#3a414a" stroke-width="3" fill="none"/><path d="M380-414a6 6 0 0 1 6-6h190.7a6 6 0 0 1 6 6v24.9a6 6 0 0 1-6 6H386a6 6 0 0 1-6-6z" fill="none"/><g><use xlink:href="#ap" transform="matrix(1,0,0,1,385,-415) translate(0 21.58376736111111)"/><use xlink:href="#aq" transform="matrix(1,0,0,1,385,-415) translate(61.002604166666664 21.58376736111111)"/><use xlink:href="#af" transform="matrix(1,0,0,1,385,-415) translate(144.62890625 21.58376736111111)"/></g><path d="M342.82-194a6 6 0 0 1 6-6H596.7a6 6 0 0 1 6 6v24.9a6 6 0 0 1-6 6H348.8a6 6 0 0 1-6-6z" fill="none"/><g><use xlink:href="#ap" transform="matrix(1,0,0,1,347.81943576388886,-195) translate(0 21.58376736111111)"/><use xlink:href="#ar" transform="matrix(1,0,0,1,347.81943576388886,-195) translate(61.002604166666664 21.58376736111111)"/><use xlink:href="#as" transform="matrix(1,0,0,1,347.81943576388886,-195) translate(81.19574652777777 21.58376736111111)"/><use xlink:href="#at" transform="matrix(1,0,0,1,347.81943576388886,-195) translate(170.57291666666669 21.58376736111111)"/></g><path d="M-400 46a6 6 0 0 1 6-6h254.48a6 6 0 0 1 6 6v24.9a6 6 0 0 1-6 6H-394a6 6 0 0 1-6-6z" fill="none"/><g><use xlink:href="#au" transform="matrix(1,0,0,1,-395,45) translate(0 21.58376736111111)"/><use xlink:href="#av" transform="matrix(1,0,0,1,-395,45) translate(63.107638888888886 21.58376736111111)"/><use xlink:href="#aw" transform="matrix(1,0,0,1,-395,45) translate(154.57899305555554 21.58376736111111)"/><use xlink:href="#af" transform="matrix(1,0,0,1,-395,45) translate(208.40928819444443 21.58376736111111)"/></g><path d="M31.9-349.6v-55.7a6 6 0 0 1 6-6h210.73a6 6 0 0 0 6-6v-36.58" stroke="#3a414a" stroke-width="3" fill="none"/><path d="M33.36-348.1H30.4v-1.54h2.96z" stroke="#3a414a" stroke-width=".05" fill="#3a414a"/><path d="M254.63-469.65l4.64 14.27H250z" stroke="#3a414a" stroke-width="3" fill="#3a414a"/><path d="M60-454a6 6 0 0 1 6-6h159.5a6 6 0 0 1 6 6v24.9a6 6 0 0 1-6 6H66a6 6 0 0 1-6-6z" fill="none"/><g><use xlink:href="#ax" transform="matrix(1,0,0,1,65,-455) translate(0 21.58376736111111)"/><use xlink:href="#al" transform="matrix(1,0,0,1,65,-455) translate(78.08159722222221 21.58376736111111)"/></g><defs><path d="M645 0H180v-1490h484c435 0 692 280 692 742 0 466-257 748-711 748zM370-168h263c363 0 539-218 539-580 0-358-176-574-521-574H370v1154" id="ay"/><path d="M635 20c-292 0-500-160-510-396h192c11 142 145 229 315 229 187 0 323-105 323-260 0-161-125-274-346-274H488v-165h121c174 0 294-100 294-254 0-148-104-245-266-245-152 0-291 85-297 230H157c8-234 222-395 484-395 278 0 448 188 448 400 0 168-95 291-247 336v12c190 31 301 169 301 357 0 244-216 425-508 425" id="az"/><g id="a"><use transform="matrix(0.010850694444444444,0,0,0.010850694444444444,0,0)" xlink:href="#ay"/><use transform="matrix(0.010850694444444444,0,0,0.010850694444444444,16.03732638888889,0)" xlink:href="#az"/></g><path d="M653-1490V0H466v-1314h-10L96-1047v-204l324-239h233" id="aA"/><g id="b"><use transform="matrix(0.010850694444444444,0,0,0.010850694444444444,0,0)" xlink:href="#ay"/><use transform="matrix(0.010850694444444444,0,0,0.010850694444444444,16.03732638888889,0)" xlink:href="#aA"/></g><path d="M120-303v-155l652-1032h231v1020h202v167h-202V0H821v-303H120zm702-167v-782h-12L323-482v12h499" id="aB"/><g id="c"><use transform="matrix(0.010850694444444444,0,0,0.010850694444444444,0,0)" xlink:href="#ay"/><use transform="matrix(0.010850694444444444,0,0,0.010850694444444444,16.03732638888889,0)" xlink:href="#aB"/></g><path d="M154 0v-137l495-537c165-179 249-281 249-418 0-156-121-253-280-253-170 0-278 110-278 278H158c0-264 200-443 465-443 266 0 455 183 455 416 0 161-73 288-336 568L416-179v12h687V0H154" id="aC"/><g id="d"><use transform="matrix(0.010850694444444444,0,0,0.010850694444444444,0,0)" xlink:href="#ay"/><use transform="matrix(0.010850694444444444,0,0,0.010850694444444444,16.03732638888889,0)" xlink:href="#aC"/></g><path d="M783 20c-382 0-661-292-661-764 0-473 279-766 661-766 302 0 548 182 601 489h-190c-42-204-217-313-411-313-268 0-476 208-476 590 0 381 209 588 476 588 195 0 369-110 411-313h190c-52 303-296 489-601 489" id="aD"/><path d="M537 14c-226 0-379-139-379-422v-710h180v695c0 172 97 275 253 275 160 0 281-109 281-300v-670h181V0H879v-209C806-46 684 14 537 14" id="aE"/><path d="M538 24C308 24 148-78 108-271l171-41c32 123 123 178 257 178 156 0 256-77 256-169 0-77-54-128-164-154l-186-44c-203-48-300-148-300-305 0-192 176-326 414-326 230 0 351 112 402 269l-163 42c-31-80-94-158-238-158-133 0-233 69-233 162 0 83 57 129 188 160l169 40c203 48 298 149 298 302 0 196-179 339-441 339" id="aF"/><path d="M598-1118v154H368v674c0 100 37 144 132 144 23 0 62-6 92-12L629-6c-37 13-88 20-134 20-193 0-307-107-307-290v-688H20v-154h168v-266h180v266h230" id="aG"/><path d="M613 24c-304 0-509-231-509-576 0-350 205-580 509-580 305 0 511 230 511 580 0 345-206 576-511 576zm0-161c226 0 329-195 329-415 0-222-103-419-329-419-223 0-326 196-326 419 0 220 103 415 326 415" id="aH"/><path d="M158 0v-1118h175l1 205c55-151 181-225 313-225 147 0 245 90 285 228 53-141 190-228 352-228 194 0 352 125 352 384V0h-181v-749c0-161-105-225-225-225-151 0-243 103-243 244V0H807v-767c0-124-93-207-219-207-131 0-250 92-250 270V0H158" id="aI"/><path d="M628 24c-324 0-524-230-524-574 0-343 198-582 503-582 237 0 487 146 487 559v75H286c9 234 145 362 343 362 132 0 231-58 273-172l174 48C1024-91 857 24 628 24zM287-650h624c-17-190-120-322-304-322-192 0-309 151-320 322" id="aJ"/><path d="M158 0v-1118h174v172h12c41-113 157-188 290-188 26 0 70 2 91 3v181c-11-2-60-10-108-10-161 0-279 109-279 260V0H158" id="aK"/><g id="e"><use transform="matrix(0.010850694444444444,0,0,0.010850694444444444,0,0)" xlink:href="#aD"/><use transform="matrix(0.010850694444444444,0,0,0.010850694444444444,16.23263888888889,0)" xlink:href="#aE"/><use transform="matrix(0.010850694444444444,0,0,0.010850694444444444,29.37282986111111,0)" xlink:href="#aF"/><use transform="matrix(0.010850694444444444,0,0,0.010850694444444444,41.10243055555556,0)" xlink:href="#aG"/><use transform="matrix(0.010850694444444444,0,0,0.010850694444444444,48.15538194444445,0)" xlink:href="#aH"/><use transform="matrix(0.010850694444444444,0,0,0.010850694444444444,61.48003472222223,0)" xlink:href="#aI"/><use transform="matrix(0.010850694444444444,0,0,0.010850694444444444,80.94618055555556,0)" xlink:href="#aJ"/><use transform="matrix(0.010850694444444444,0,0,0.010850694444444444,93.90190972222221,0)" xlink:href="#aK"/></g><path d="M158 418v-1536h174v179h20c37-59 106-193 324-193 279 0 474 222 474 576 0 356-194 580-473 580-213 0-288-135-325-197h-14v591H158zm492-555c209 0 317-186 317-421 0-232-105-413-317-413-206 0-314 166-314 413 0 249 111 421 314 421" id="aL"/><g id="f"><use transform="matrix(0.010850694444444444,0,0,0.010850694444444444,0,0)" xlink:href="#aF"/><use transform="matrix(0.010850694444444444,0,0,0.010850694444444444,11.729600694444445,0)" xlink:href="#aE"/><use transform="matrix(0.010850694444444444,0,0,0.010850694444444444,24.869791666666664,0)" xlink:href="#aL"/><use transform="matrix(0.010850694444444444,0,0,0.010850694444444444,38.4765625,0)" xlink:href="#aJ"/><use transform="matrix(0.010850694444444444,0,0,0.010850694444444444,51.432291666666664,0)" xlink:href="#aK"/></g><path d="M52 0l541-1490h220L1361 0h-200l-149-416H398L254 0H52zm404-582h497c-103-290-145-390-251-756-108 377-145 460-246 756" id="aM"/><path d="M577 24c-279 0-473-224-473-580 0-354 195-576 474-576 218 0 287 134 324 193h14v-551h180V0H922v-173h-20C865-111 790 24 577 24zm27-161c203 0 314-172 314-421 0-247-108-413-314-413-212 0-317 181-317 413 0 235 108 421 317 421" id="aN"/><path d="M158 0v-1118h180V0H158zm91-1301c-68 0-125-53-125-119s57-119 125-119c69 0 126 53 126 119s-57 119-126 119" id="aO"/><path d="M338-670V0H158v-1118h173l1 207c72-158 192-221 342-221 226 0 378 139 378 422V0H872v-695c0-172-96-275-252-275-161 0-282 109-282 300" id="aP"/><g id="g"><use transform="matrix(0.010850694444444444,0,0,0.010850694444444444,0,0)" xlink:href="#aM"/><use transform="matrix(0.010850694444444444,0,0,0.010850694444444444,15.33203125,0)" xlink:href="#aN"/><use transform="matrix(0.010850694444444444,0,0,0.010850694444444444,28.938802083333332,0)" xlink:href="#aI"/><use transform="matrix(0.010850694444444444,0,0,0.010850694444444444,48.404947916666664,0)" xlink:href="#aO"/><use transform="matrix(0.010850694444444444,0,0,0.010850694444444444,53.78689236111111,0)" xlink:href="#aP"/></g><path d="M789 20c-398 0-667-293-667-764 0-473 273-766 655-766 315 0 558 198 612 487h-196c-61-191-204-311-415-311-262 0-471 207-471 590 0 380 208 588 482 588 249 0 420-165 425-427H828v-166h572v163c0 370-256 606-611 606" id="aQ"/><path d="M180 0v-1490h510c348 0 508 209 508 474 0 266-160 477-507 477H370V0H180zm190-706h312c236 0 327-133 327-310 0-176-91-307-329-307H370v617" id="aR"/><path d="M657 26c-323 0-524-166-541-416h195c15 169 171 246 346 246 202 0 356-106 356-265 5-203-294-238-475-293-239-73-380-191-380-389 0-252 224-419 512-419 294 0 499 171 508 396H992c-17-145-151-228-328-228-193 0-321 102-321 242 0 156 175 211 284 241l149 41c160 44 422 134 422 412 0 244-197 432-541 432" id="aS"/><g id="h"><use transform="matrix(0.010850694444444444,0,0,0.010850694444444444,0,0)" xlink:href="#aQ"/><use transform="matrix(0.010850694444444444,0,0,0.010850694444444444,16.57986111111111,0)" xlink:href="#aR"/><use transform="matrix(0.010850694444444444,0,0,0.010850694444444444,30.772569444444443,0)" xlink:href="#aS"/></g><path d="M481 0L54-1118h197c107 314 236 620 325 951 87-331 217-637 324-951h197L670 0H481" id="aT"/><path d="M613 24c-304 0-509-231-509-576 0-350 205-580 509-580 216 0 392 114 453 309l-173 49c-33-115-133-197-280-197-223 0-326 196-326 419 0 220 103 415 326 415 150 0 252-85 285-206l172 49C1010-95 832 24 613 24" id="aU"/><g id="i"><use transform="matrix(0.010850694444444444,0,0,0.010850694444444444,0,0)" xlink:href="#aF"/><use transform="matrix(0.010850694444444444,0,0,0.010850694444444444,11.729600694444445,0)" xlink:href="#aJ"/><use transform="matrix(0.010850694444444444,0,0,0.010850694444444444,24.68532986111111,0)" xlink:href="#aK"/><use transform="matrix(0.010850694444444444,0,0,0.010850694444444444,33.3984375,0)" xlink:href="#aT"/><use transform="matrix(0.010850694444444444,0,0,0.010850694444444444,45.88758680555556,0)" xlink:href="#aO"/><use transform="matrix(0.010850694444444444,0,0,0.010850694444444444,51.26953125,0)" xlink:href="#aU"/><use transform="matrix(0.010850694444444444,0,0,0.010850694444444444,63.96484375,0)" xlink:href="#aJ"/></g><path d="M471 26C259 26 90-98 90-318c0-256 228-303 435-329 202-27 287-16 287-108 0-139-79-219-234-219-161 0-248 86-283 164l-173-57c86-203 278-265 451-265 150 0 419 46 419 395V0H815v-152h-12C765-73 660 26 471 26zm31-159c199 0 310-134 310-271v-155c-30 35-226 55-295 64-131 17-246 59-246 186 0 116 97 176 231 176" id="aV"/><path d="M140 405l46-156c120 36 205 19 263-150l32-93L54-1118h197c107 313 237 620 324 950 87-331 219-637 326-950h196L606 167c-68 178-176 259-334 259-64 0-113-12-132-21" id="aW"/><g id="j"><use transform="matrix(0.010850694444444444,0,0,0.010850694444444444,0,0)" xlink:href="#aR"/><use transform="matrix(0.010850694444444444,0,0,0.010850694444444444,14.192708333333332,0)" xlink:href="#aV"/><use transform="matrix(0.010850694444444444,0,0,0.010850694444444444,26.345486111111104,0)" xlink:href="#aW"/><use transform="matrix(0.010850694444444444,0,0,0.010850694444444444,38.834635416666664,0)" xlink:href="#aI"/><use transform="matrix(0.010850694444444444,0,0,0.010850694444444444,58.30078125,0)" xlink:href="#aJ"/><use transform="matrix(0.010850694444444444,0,0,0.010850694444444444,71.25651041666667,0)" xlink:href="#aP"/><use transform="matrix(0.010850694444444444,0,0,0.010850694444444444,84.38585069444444,0)" xlink:href="#aG"/></g><path d="M611 442c-248 0-391-105-460-228l146-94c47 65 117 165 314 165 178 0 307-82 307-266v-224h-17C863-141 792-18 576-18c-268 0-472-195-472-546 0-346 197-568 476-568 216 0 288 133 326 193h17v-179h175V29c0 289-215 413-487 413zm-5-620c203 0 314-146 314-390 0-237-108-403-314-403-213 0-319 180-319 403 0 230 109 390 319 390" id="aX"/><path d="M409 0L70-1118h191c89 329 165 560 243 925 75-353 154-601 240-925h192c85 325 161 564 235 922 77-354 157-598 244-922h191L1267 0h-179c-86-307-176-590-250-913C763-588 675-308 588 0H409" id="aY"/><g id="k"><use transform="matrix(0.010850694444444444,0,0,0.010850694444444444,0,0)" xlink:href="#aX"/><use transform="matrix(0.010850694444444444,0,0,0.010850694444444444,13.628472222222221,0)" xlink:href="#aV"/><use transform="matrix(0.010850694444444444,0,0,0.010850694444444444,26.106770833333332,0)" xlink:href="#aG"/><use transform="matrix(0.010850694444444444,0,0,0.010850694444444444,33.15972222222222,0)" xlink:href="#aJ"/><use transform="matrix(0.010850694444444444,0,0,0.010850694444444444,45.71397569444444,0)" xlink:href="#aY"/><use transform="matrix(0.010850694444444444,0,0,0.010850694444444444,63.89973958333333,0)" xlink:href="#aV"/><use transform="matrix(0.010850694444444444,0,0,0.010850694444444444,76.0525173611111,0)" xlink:href="#aW"/></g><path d="M338-1490V0H158v-1490h180" id="aZ"/><g id="l"><use transform="matrix(0.010850694444444444,0,0,0.010850694444444444,0,0)" xlink:href="#ay"/><use transform="matrix(0.010850694444444444,0,0,0.010850694444444444,16.03732638888889,0)" xlink:href="#aJ"/><use transform="matrix(0.010850694444444444,0,0,0.010850694444444444,28.99305555555556,0)" xlink:href="#aZ"/><use transform="matrix(0.010850694444444444,0,0,0.010850694444444444,34.375,0)" xlink:href="#aO"/><use transform="matrix(0.010850694444444444,0,0,0.010850694444444444,39.75694444444444,0)" xlink:href="#aT"/><use transform="matrix(0.010850694444444444,0,0,0.010850694444444444,51.81206597222222,0)" xlink:href="#aJ"/><use transform="matrix(0.010850694444444444,0,0,0.010850694444444444,64.76779513888889,0)" xlink:href="#aK"/><use transform="matrix(0.010850694444444444,0,0,0.010850694444444444,73.48090277777779,0)" xlink:href="#aW"/></g><g id="m"><use transform="matrix(0.010850694444444444,0,0,0.010850694444444444,0,0)" xlink:href="#aL"/><use transform="matrix(0.010850694444444444,0,0,0.010850694444444444,13.606770833333332,0)" xlink:href="#aJ"/><use transform="matrix(0.010850694444444444,0,0,0.010850694444444444,26.5625,0)" xlink:href="#aK"/><use transform="matrix(0.010850694444444444,0,0,0.010850694444444444,34.928385416666664,0)" xlink:href="#aF"/><use transform="matrix(0.010850694444444444,0,0,0.010850694444444444,46.65798611111111,0)" xlink:href="#aH"/><use transform="matrix(0.010850694444444444,0,0,0.010850694444444444,59.982638888888886,0)" xlink:href="#aP"/><use transform="matrix(0.010850694444444444,0,0,0.010850694444444444,73.11197916666666,0)" xlink:href="#aP"/><use transform="matrix(0.010850694444444444,0,0,0.010850694444444444,86.24131944444443,0)" xlink:href="#aJ"/><use transform="matrix(0.010850694444444444,0,0,0.010850694444444444,99.19704861111111,0)" xlink:href="#aZ"/></g><path d="M295 13c-75 0-135-60-135-135s60-135 135-135 135 60 135 135S370 13 295 13" id="ba"/><path d="M646 20c-332 0-524-278-524-764 0-483 194-766 524-766s524 283 524 766c0 485-191 764-524 764zm0-166c218 0 341-220 341-598 0-380-123-601-341-601s-341 222-341 601c0 378 123 598 341 598" id="bb"/><g id="n"><use transform="matrix(0.010850694444444444,0,0,0.010850694444444444,0,0)" xlink:href="#aB"/><use transform="matrix(0.010850694444444444,0,0,0.010850694444444444,13.606770833333332,0)" xlink:href="#ba"/><use transform="matrix(0.010850694444444444,0,0,0.010850694444444444,19.444444444444446,0)" xlink:href="#bb"/></g><path d="M180 0v-1490h528c311 0 458 177 458 395 0 191-114 278-244 313v14c139 9 302 137 302 371 0 225-148 397-499 397H180zm190-168h350c232 0 321-102 321-231 0-149-120-277-311-277H370v508zm0-668h328c160 0 286-101 286-255 0-129-87-231-280-231H370v486" id="bc"/><g id="o"><use transform="matrix(0.010850694444444444,0,0,0.010850694444444444,0,0)" xlink:href="#bc"/><use transform="matrix(0.010850694444444444,0,0,0.010850694444444444,14.539930555555555,0)" xlink:href="#aO"/><use transform="matrix(0.010850694444444444,0,0,0.010850694444444444,19.921875,0)" xlink:href="#aZ"/><use transform="matrix(0.010850694444444444,0,0,0.010850694444444444,25.303819444444443,0)" xlink:href="#aZ"/><use transform="matrix(0.010850694444444444,0,0,0.010850694444444444,30.68576388888889,0)" xlink:href="#aO"/><use transform="matrix(0.010850694444444444,0,0,0.010850694444444444,36.06770833333333,0)" xlink:href="#aP"/><use transform="matrix(0.010850694444444444,0,0,0.010850694444444444,49.19704861111111,0)" xlink:href="#aX"/></g><path d="M580 20c-295 0-476-179-476-409 0-189 123-290 294-416-104-125-173-226-173-362 0-197 144-337 365-337 224 0 362 144 362 321 0 185-174 312-306 405l319 387c38-75 61-165 61-267h173c0 208-62 332-120 406L1287 0h-217L967-124C868-27 716 20 580 20zm279-273L507-675l-51 38c-123 91-167 162-167 254 0 147 113 246 278 246 107 0 210-41 292-116zM538-908l97-72c54-40 136-101 136-206 0-95-68-163-176-163-113 0-189 74-189 181 0 90 53 164 132 260" id="bd"/><use transform="matrix(0.010850694444444444,0,0,0.010850694444444444,0,0)" xlink:href="#bd" id="p"/><path d="M180 0v-1490h510c348 0 508 194 508 460 0 198-88 351-276 417L1256 0h-220L726-579c-117 2-238 0-356 1V0H180zm190-747h312c235 0 327-108 327-283 0-177-92-293-329-293H370v576" id="be"/><g id="q"><use transform="matrix(0.010850694444444444,0,0,0.010850694444444444,0,0)" xlink:href="#be"/><use transform="matrix(0.010850694444444444,0,0,0.010850694444444444,13.975694444444445,0)" xlink:href="#aJ"/><use transform="matrix(0.010850694444444444,0,0,0.010850694444444444,26.931423611111104,0)" xlink:href="#aL"/><use transform="matrix(0.010850694444444444,0,0,0.010850694444444444,40.53819444444444,0)" xlink:href="#aH"/><use transform="matrix(0.010850694444444444,0,0,0.010850694444444444,53.86284722222222,0)" xlink:href="#aK"/><use transform="matrix(0.010850694444444444,0,0,0.010850694444444444,62.57595486111111,0)" xlink:href="#aG"/><use transform="matrix(0.010850694444444444,0,0,0.010850694444444444,69.62890625,0)" xlink:href="#aF"/></g><g id="r"><use transform="matrix(0.010850694444444444,0,0,0.010850694444444444,0,0)" xlink:href="#az"/><use transform="matrix(0.010850694444444444,0,0,0.010850694444444444,13.226996527777777,0)" xlink:href="#ba"/><use transform="matrix(0.010850694444444444,0,0,0.010850694444444444,19.06467013888889,0)" xlink:href="#bb"/></g><path d="M98-1322v-168h1126v168H757V0H567v-1322H98" id="bf"/><path d="M158 0v-1490h180v865h22l478-493h223L593-638 1096 0H865L456-523 338-412V0H158" id="bg"/><g id="t"><use transform="matrix(0.010850694444444444,0,0,0.010850694444444444,0,0)" xlink:href="#bf"/><use transform="matrix(0.010850694444444444,0,0,0.010850694444444444,13.0859375,0)" xlink:href="#aK"/><use transform="matrix(0.010850694444444444,0,0,0.010850694444444444,21.451822916666664,0)" xlink:href="#aV"/><use transform="matrix(0.010850694444444444,0,0,0.010850694444444444,33.93012152777777,0)" xlink:href="#aU"/><use transform="matrix(0.010850694444444444,0,0,0.010850694444444444,46.62543402777778,0)" xlink:href="#bg"/><use transform="matrix(0.010850694444444444,0,0,0.010850694444444444,58.82161458333333,0)" xlink:href="#aO"/><use transform="matrix(0.010850694444444444,0,0,0.010850694444444444,64.20355902777777,0)" xlink:href="#aP"/><use transform="matrix(0.010850694444444444,0,0,0.010850694444444444,77.33289930555554,0)" xlink:href="#aX"/></g><g id="u"><use transform="matrix(0.010850694444444444,0,0,0.010850694444444444,0,0)" xlink:href="#ay"/><use transform="matrix(0.010850694444444444,0,0,0.010850694444444444,16.03732638888889,0)" xlink:href="#aJ"/><use transform="matrix(0.010850694444444444,0,0,0.010850694444444444,28.99305555555556,0)" xlink:href="#aZ"/><use transform="matrix(0.010850694444444444,0,0,0.010850694444444444,34.375,0)" xlink:href="#aO"/><use transform="matrix(0.010850694444444444,0,0,0.010850694444444444,39.75694444444444,0)" xlink:href="#aT"/><use transform="matrix(0.010850694444444444,0,0,0.010850694444444444,51.81206597222222,0)" xlink:href="#aJ"/><use transform="matrix(0.010850694444444444,0,0,0.010850694444444444,64.76779513888889,0)" xlink:href="#aK"/><use transform="matrix(0.010850694444444444,0,0,0.010850694444444444,73.48090277777779,0)" xlink:href="#aW"/></g><g id="v"><use transform="matrix(0.010850694444444444,0,0,0.010850694444444444,0,0)" xlink:href="#aC"/><use transform="matrix(0.010850694444444444,0,0,0.010850694444444444,13.55251736111111,0)" xlink:href="#ba"/><use transform="matrix(0.010850694444444444,0,0,0.010850694444444444,19.39019097222222,0)" xlink:href="#bb"/></g><path d="M338-670V0H158v-1490h180v566c73-149 190-208 336-208 226 0 379 139 379 422V0H872v-695c0-172-96-275-252-275-161 0-282 109-282 300" id="bh"/><g id="w"><use transform="matrix(0.010850694444444444,0,0,0.010850694444444444,0,0)" xlink:href="#aS"/><use transform="matrix(0.010850694444444444,0,0,0.010850694444444444,14.2578125,0)" xlink:href="#bh"/><use transform="matrix(0.010850694444444444,0,0,0.010850694444444444,27.39800347222222,0)" xlink:href="#aO"/><use transform="matrix(0.010850694444444444,0,0,0.010850694444444444,32.779947916666664,0)" xlink:href="#aL"/><use transform="matrix(0.010850694444444444,0,0,0.010850694444444444,46.38671875,0)" xlink:href="#aI"/><use transform="matrix(0.010850694444444444,0,0,0.010850694444444444,65.85286458333333,0)" xlink:href="#aJ"/><use transform="matrix(0.010850694444444444,0,0,0.010850694444444444,78.80859375,0)" xlink:href="#aP"/><use transform="matrix(0.010850694444444444,0,0,0.010850694444444444,91.93793402777777,0)" xlink:href="#aG"/></g><path d="M180 0v-1490h270l367 940c28 72 75 218 110 339 35-117 81-264 110-339l362-940h271V0h-187c2-448-5-837 7-1287-157 497-311 829-483 1287H842C666-458 514-784 354-1284c12 438 5 843 7 1284H180" id="bi"/><g id="x"><use transform="matrix(0.010850694444444444,0,0,0.010850694444444444,0,0)" xlink:href="#bi"/><use transform="matrix(0.010850694444444444,0,0,0.010850694444444444,20.07378472222222,0)" xlink:href="#aV"/><use transform="matrix(0.010850694444444444,0,0,0.010850694444444444,32.55208333333333,0)" xlink:href="#aP"/><use transform="matrix(0.010850694444444444,0,0,0.010850694444444444,45.68142361111111,0)" xlink:href="#aV"/><use transform="matrix(0.010850694444444444,0,0,0.010850694444444444,58.15972222222221,0)" xlink:href="#aX"/><use transform="matrix(0.010850694444444444,0,0,0.010850694444444444,71.78819444444443,0)" xlink:href="#aJ"/><use transform="matrix(0.010850694444444444,0,0,0.010850694444444444,84.7439236111111,0)" xlink:href="#aI"/><use transform="matrix(0.010850694444444444,0,0,0.010850694444444444,104.21006944444441,0)" xlink:href="#aJ"/><use transform="matrix(0.010850694444444444,0,0,0.010850694444444444,117.1657986111111,0)" xlink:href="#aP"/><use transform="matrix(0.010850694444444444,0,0,0.010850694444444444,130.29513888888889,0)" xlink:href="#aG"/></g><g id="y"><use transform="matrix(0.010850694444444444,0,0,0.010850694444444444,0,0)" xlink:href="#aA"/><use transform="matrix(0.010850694444444444,0,0,0.010850694444444444,9.038628472222221,0)" xlink:href="#ba"/><use transform="matrix(0.010850694444444444,0,0,0.010850694444444444,14.876302083333332,0)" xlink:href="#bb"/></g><path d="M763 24c-353 0-583-224-583-531v-983h190v968c0 214 149 370 393 370 243 0 391-156 391-370v-968h190v983c0 307-230 531-581 531" id="bj"/><g id="z"><use transform="matrix(0.010850694444444444,0,0,0.010850694444444444,0,0)" xlink:href="#bj"/><use transform="matrix(0.010850694444444444,0,0,0.010850694444444444,16.536458333333332,0)" xlink:href="#aF"/><use transform="matrix(0.010850694444444444,0,0,0.010850694444444444,28.266059027777775,0)" xlink:href="#aJ"/><use transform="matrix(0.010850694444444444,0,0,0.010850694444444444,41.22178819444444,0)" xlink:href="#aK"/></g><path d="M750 21c-371 0-615-218-615-544v-967h305v942c0 174 123 299 310 299s309-125 309-299v-942h306v967c0 326-247 544-615 544" id="bk"/><path d="M572 22C302 22 117-98 78-306l279-48c29 105 101 156 224 156 114 0 185-48 185-115 0-118-228-130-337-155-215-49-322-150-322-317 0-215 187-347 470-347 265 0 424 116 466 298l-266 47c-24-76-87-130-196-130-98 0-174 46-174 113 0 56 38 95 144 117l201 40c216 44 320 143 320 302 0 220-207 367-500 367" id="bl"/><path d="M633 22C291 22 81-200 81-553c0-345 210-579 537-579 292 0 525 185 525 567v84H378c7 183 109 277 260 277 105 0 184-46 216-132l272 51C1071-99 893 22 633 22zM380-669h474c-15-146-94-237-233-237-143 0-229 99-241 237" id="bm"/><path d="M128 0v-1118h290v195h12c54-169 184-238 367-200v268c-27-8-86-15-130-15-138 0-239 95-239 234V0H128" id="bn"/><g id="A"><use transform="matrix(0.011935763888888888,0,0,0.011935763888888888,0,0)" xlink:href="#bk"/><use transform="matrix(0.011935763888888888,0,0,0.011935763888888888,17.891710069444443,0)" xlink:href="#bl"/><use transform="matrix(0.011935763888888888,0,0,0.011935763888888888,31.582031249999996,0)" xlink:href="#bm"/><use transform="matrix(0.011935763888888888,0,0,0.011935763888888888,46.14366319444444,0)" xlink:href="#bn"/></g><path d="M681 22C323 22 94-145 85-462h297c10 151 131 226 296 226 163 0 271-77 271-190 0-102-95-149-257-189l-164-41c-252-61-403-188-403-405 0-269 236-449 560-449 330 0 546 183 551 445H941c-11-119-106-188-259-188-156 0-244 72-244 172-3 156 226 185 373 221 250 61 445 186 445 436 0 271-213 446-575 446" id="bo"/><path d="M428-647V0H128v-1490h294v586c65-146 175-228 341-228 232 0 385 159 385 421V0H847v-659c0-139-76-222-202-222-128 0-217 86-217 234" id="bp"/><path d="M128 0v-1118h300V0H128zm150-1264c-91 0-165-68-165-154 0-85 74-154 165-154 90 0 165 69 165 154 0 86-75 154-165 154" id="bq"/><path d="M128 418v-1536h295v188h14c41-89 129-202 319-202 248 0 453 193 453 575 0 372-197 576-455 576-183 0-275-108-317-198h-9v597H128zm534-640c156 0 240-139 240-336 0-196-83-334-240-334-154 0-241 131-241 334 0 202 88 336 241 336" id="br"/><path d="M128 0v-1118h278l12 217c60-163 185-234 319-234 143 0 236 81 288 251 63-172 205-251 359-251 205 0 357 138 357 381V0h-301v-697c0-126-76-187-177-187-114 0-184 79-184 196V0H789v-705c0-109-72-179-174-179-106 0-187 74-187 208V0H128" id="bs"/><path d="M428-647V0H128v-1118h283l4 231c63-156 176-245 348-245 232 0 384 159 384 421V0H847v-659c0-139-76-222-202-222-128 0-217 86-217 234" id="bt"/><path d="M683-1118v229H474v562c0 71 29 104 102 104 23 0 73-7 95-13l43 225C647 9 580 16 520 16 296 16 174-96 174-301v-588H20v-229h154v-266h300v266h209" id="bu"/><g id="B"><use transform="matrix(0.010850694444444444,0,0,0.010850694444444444,0,0)" xlink:href="#bo"/><use transform="matrix(0.010850694444444444,0,0,0.010850694444444444,14.55078125,0)" xlink:href="#bp"/><use transform="matrix(0.010850694444444444,0,0,0.010850694444444444,28.385416666666664,0)" xlink:href="#bq"/><use transform="matrix(0.010850694444444444,0,0,0.010850694444444444,34.40755208333333,0)" xlink:href="#br"/><use transform="matrix(0.010850694444444444,0,0,0.010850694444444444,48.41579861111111,0)" xlink:href="#bs"/><use transform="matrix(0.010850694444444444,0,0,0.010850694444444444,68.69574652777777,0)" xlink:href="#bm"/><use transform="matrix(0.010850694444444444,0,0,0.010850694444444444,81.93359375,0)" xlink:href="#bt"/><use transform="matrix(0.010850694444444444,0,0,0.010850694444444444,95.76822916666666,0)" xlink:href="#bu"/></g><path d="M135 0v-1490h591c327 0 492 160 492 383 0 177-115 286-268 320v15c168 8 326 140 326 361 0 236-176 411-512 411H135zm305-251h264c179 0 258-76 258-189 0-125-97-215-250-215H440v404zm0-613h241c131 0 228-74 228-194 0-109-79-183-222-183H440v377" id="bv"/><path d="M428-1490V0H128v-1490h300" id="bw"/><path d="M625 442c-280 0-454-114-503-274l258-72c28 63 97 128 243 128 153 0 246-69 246-216v-206h-23C805-108 717-16 536-16 284-16 81-191 81-561c0-378 208-571 456-571 188 0 280 113 321 202h13v-188h295V-9c0 303-226 451-541 451zm5-686c153 0 240-119 240-319 0-198-86-329-240-329-158 0-241 137-241 329 0 195 85 319 241 319" id="bx"/><g id="C"><use transform="matrix(0.010850694444444444,0,0,0.010850694444444444,0,0)" xlink:href="#bv"/><use transform="matrix(0.010850694444444444,0,0,0.010850694444444444,14.702690972222221,0)" xlink:href="#bq"/><use transform="matrix(0.010850694444444444,0,0,0.010850694444444444,20.724826388888886,0)" xlink:href="#bw"/><use transform="matrix(0.010850694444444444,0,0,0.010850694444444444,26.74696180555555,0)" xlink:href="#bw"/><use transform="matrix(0.010850694444444444,0,0,0.010850694444444444,32.769097222222214,0)" xlink:href="#bq"/><use transform="matrix(0.010850694444444444,0,0,0.010850694444444444,38.79123263888888,0)" xlink:href="#bt"/><use transform="matrix(0.010850694444444444,0,0,0.010850694444444444,52.62586805555554,0)" xlink:href="#bx"/></g><path d="M135 0v-1490h581c339 0 533 192 533 485 0 204-94 351-264 424L1302 0H964L680-532H440V0H135zm305-779h220c186 0 274-77 274-226 0-150-88-233-275-233H440v459" id="by"/><path d="M628 22C291 22 81-210 81-554c0-346 210-578 547-578 336 0 547 232 547 578 0 344-211 576-547 576zm0-236c160 0 242-146 242-341 0-197-82-341-242-341S387-753 387-555c0 195 81 341 241 341" id="bz"/><g id="D"><use transform="matrix(0.010850694444444444,0,0,0.010850694444444444,0,0)" xlink:href="#by"/><use transform="matrix(0.010850694444444444,0,0,0.010850694444444444,14.322916666666666,0)" xlink:href="#bm"/><use transform="matrix(0.010850694444444444,0,0,0.010850694444444444,27.56076388888889,0)" xlink:href="#br"/><use transform="matrix(0.010850694444444444,0,0,0.010850694444444444,41.569010416666664,0)" xlink:href="#bz"/><use transform="matrix(0.010850694444444444,0,0,0.010850694444444444,55.197482638888886,0)" xlink:href="#bn"/><use transform="matrix(0.010850694444444444,0,0,0.010850694444444444,64.68098958333333,0)" xlink:href="#bu"/><use transform="matrix(0.010850694444444444,0,0,0.010850694444444444,72.65624999999999,0)" xlink:href="#bl"/></g><path d="M440 22C227 22 68-92 68-313c0-250 202-322 422-343 195-21 271-24 271-105 0-95-63-149-175-149-116 0-187 57-211 129l-275-46c57-194 237-305 487-305 240 0 474 108 474 379V0H777v-155h-10C713-51 605 22 440 22zm85-211c140 0 238-93 238-211v-121c-37 26-156 42-222 51-111 16-185 59-185 149 0 87 70 132 169 132" id="bA"/><g id="E"><use transform="matrix(0.010850694444444444,0,0,0.010850694444444444,0,0)" xlink:href="#by"/><use transform="matrix(0.010850694444444444,0,0,0.010850694444444444,14.322916666666666,0)" xlink:href="#bm"/><use transform="matrix(0.010850694444444444,0,0,0.010850694444444444,27.56076388888889,0)" xlink:href="#bx"/><use transform="matrix(0.010850694444444444,0,0,0.010850694444444444,41.6015625,0)" xlink:href="#bq"/><use transform="matrix(0.010850694444444444,0,0,0.010850694444444444,47.623697916666664,0)" xlink:href="#bl"/><use transform="matrix(0.010850694444444444,0,0,0.010850694444444444,60.06944444444444,0)" xlink:href="#bu"/><use transform="matrix(0.010850694444444444,0,0,0.010850694444444444,68.20746527777777,0)" xlink:href="#bn"/><use transform="matrix(0.010850694444444444,0,0,0.010850694444444444,77.41970486111111,0)" xlink:href="#bq"/><use transform="matrix(0.010850694444444444,0,0,0.010850694444444444,83.44184027777779,0)" xlink:href="#bu"/><use transform="matrix(0.010850694444444444,0,0,0.010850694444444444,91.57986111111111,0)" xlink:href="#bn"/><use transform="matrix(0.010850694444444444,0,0,0.010850694444444444,100.32552083333334,0)" xlink:href="#bA"/><use transform="matrix(0.010850694444444444,0,0,0.010850694444444444,113.2269965277778,0)" xlink:href="#bu"/><use transform="matrix(0.010850694444444444,0,0,0.010850694444444444,121.3650173611111,0)" xlink:href="#bq"/><use transform="matrix(0.010850694444444444,0,0,0.010850694444444444,127.3871527777778,0)" xlink:href="#bz"/><use transform="matrix(0.010850694444444444,0,0,0.010850694444444444,141.015625,0)" xlink:href="#bt"/></g><path d="M659 0H135v-1490h529c448 0 721 280 721 744 0 466-273 746-726 746zM440-263h204c287 0 437-148 437-483 0-333-150-481-435-481H440v964" id="bB"/><g id="F"><use transform="matrix(0.010850694444444444,0,0,0.010850694444444444,0,0)" xlink:href="#bB"/><use transform="matrix(0.010850694444444444,0,0,0.010850694444444444,16.048177083333332,0)" xlink:href="#bA"/><use transform="matrix(0.010850694444444444,0,0,0.010850694444444444,28.949652777777775,0)" xlink:href="#bu"/><use transform="matrix(0.010850694444444444,0,0,0.010850694444444444,37.19618055555556,0)" xlink:href="#bA"/></g><path d="M49 0l509-1490h400L1480 0h-339l-115-346H497L386 0H49zm524-585h374c-75-213-124-402-192-666-66 268-110 453-182 666" id="bC"/><path d="M628 22C291 22 81-210 81-554c0-346 210-578 547-578 265 0 455 142 497 372l-279 52c-25-116-99-188-215-188-160 0-244 139-244 341 0 200 84 341 244 341 116 0 193-74 217-195l279 51C1085-123 896 22 628 22" id="bD"/><path d="M513 14c-232 0-385-159-385-421v-711h300v659c0 139 76 222 202 222 127 0 217-86 217-234v-647h301V0H864l-4-232C797-74 683 14 513 14" id="bE"/><g id="G"><use transform="matrix(0.010850694444444444,0,0,0.010850694444444444,0,0)" xlink:href="#bC"/><use transform="matrix(0.010850694444444444,0,0,0.010850694444444444,16.080729166666664,0)" xlink:href="#bD"/><use transform="matrix(0.010850694444444444,0,0,0.010850694444444444,29.15581597222222,0)" xlink:href="#bD"/><use transform="matrix(0.010850694444444444,0,0,0.010850694444444444,42.23090277777778,0)" xlink:href="#bz"/><use transform="matrix(0.010850694444444444,0,0,0.010850694444444444,55.859375,0)" xlink:href="#bE"/><use transform="matrix(0.010850694444444444,0,0,0.010850694444444444,69.69401041666667,0)" xlink:href="#bt"/><use transform="matrix(0.010850694444444444,0,0,0.010850694444444444,83.52864583333334,0)" xlink:href="#bu"/></g><path d="M537 19C279 19 81-185 81-557c0-382 206-575 454-575 190 0 278 113 318 202h10v-560h300V0H868v-179h-15C812-89 719 19 537 19zm92-241c153 0 240-134 240-336 0-203-86-334-240-334-158 0-240 138-240 334 0 197 84 336 240 336" id="bF"/><path d="M579 22C270 22 81-162 81-393c0-177 110-281 274-393-80-101-143-210-143-345 0-213 160-377 403-377 238 0 385 158 385 351 0 138-76 251-198 340l-89 64 251 289c39-73 63-161 63-258h251c0 203-53 358-134 465L1367 0h-316l-91-101C852-17 708 22 579 22zm-69-628c-83 57-139 119-136 201 0 113 86 185 214 185 72 0 145-22 210-63zm56-319c74-50 193-114 190-218 0-69-50-123-139-123s-146 55-146 138c0 67 36 129 95 203" id="bG"/><g id="H"><use transform="matrix(0.010850694444444444,0,0,0.010850694444444444,0,0)" xlink:href="#bF"/><use transform="matrix(0.010850694444444444,0,0,0.010850694444444444,14.008246527777777,0)" xlink:href="#bm"/><use transform="matrix(0.010850694444444444,0,0,0.010850694444444444,27.24609375,0)" xlink:href="#bu"/><use transform="matrix(0.010850694444444444,0,0,0.010850694444444444,35.49262152777778,0)" xlink:href="#bA"/><use transform="matrix(0.010850694444444444,0,0,0.010850694444444444,48.39409722222222,0)" xlink:href="#bq"/><use transform="matrix(0.010850694444444444,0,0,0.010850694444444444,54.416232638888886,0)" xlink:href="#bw"/><use transform="matrix(0.010850694444444444,0,0,0.010850694444444444,60.43836805555555,0)" xlink:href="#bl"/><use transform="matrix(0.010850694444444444,0,0,0.010850694444444444,72.88411458333333,0)" xlink:href="#bG"/></g><path d="M135 0v-1490h305v1237h643V0H135" id="bH"/><g id="I"><use transform="matrix(0.010850694444444444,0,0,0.010850694444444444,0,0)" xlink:href="#bH"/><use transform="matrix(0.010850694444444444,0,0,0.010850694444444444,12.565104166666666,0)" xlink:href="#bz"/><use transform="matrix(0.010850694444444444,0,0,0.010850694444444444,26.19357638888889,0)" xlink:href="#bx"/><use transform="matrix(0.010850694444444444,0,0,0.010850694444444444,40.234375,0)" xlink:href="#bq"/><use transform="matrix(0.010850694444444444,0,0,0.010850694444444444,46.256510416666664,0)" xlink:href="#bt"/></g><g id="J"><use transform="matrix(0.010850694444444444,0,0,0.010850694444444444,0,0)" xlink:href="#bo"/><use transform="matrix(0.010850694444444444,0,0,0.010850694444444444,14.55078125,0)" xlink:href="#bp"/><use transform="matrix(0.010850694444444444,0,0,0.010850694444444444,28.385416666666664,0)" xlink:href="#bq"/><use transform="matrix(0.010850694444444444,0,0,0.010850694444444444,34.40755208333333,0)" xlink:href="#br"/><use transform="matrix(0.010850694444444444,0,0,0.010850694444444444,48.41579861111111,0)" xlink:href="#bs"/><use transform="matrix(0.010850694444444444,0,0,0.010850694444444444,68.69574652777777,0)" xlink:href="#bm"/><use transform="matrix(0.010850694444444444,0,0,0.010850694444444444,81.93359375,0)" xlink:href="#bt"/><use transform="matrix(0.010850694444444444,0,0,0.010850694444444444,95.76822916666666,0)" xlink:href="#bu"/></g><g id="K"><use transform="matrix(0.010850694444444444,0,0,0.010850694444444444,0,0)" xlink:href="#bB"/><use transform="matrix(0.010850694444444444,0,0,0.010850694444444444,16.048177083333332,0)" xlink:href="#bm"/><use transform="matrix(0.010850694444444444,0,0,0.010850694444444444,29.286024305555554,0)" xlink:href="#bu"/><use transform="matrix(0.010850694444444444,0,0,0.010850694444444444,37.53255208333333,0)" xlink:href="#bA"/><use transform="matrix(0.010850694444444444,0,0,0.010850694444444444,50.43402777777778,0)" xlink:href="#bq"/><use transform="matrix(0.010850694444444444,0,0,0.010850694444444444,56.456163194444436,0)" xlink:href="#bw"/><use transform="matrix(0.010850694444444444,0,0,0.010850694444444444,62.4782986111111,0)" xlink:href="#bl"/></g><path d="M443 0L31-1118h319c90 293 199 572 268 885 66-313 175-593 264-885h315L784 0H443" id="bI"/><path d="M120 396l69-226c123 42 245 23 254-107l8-60L31-1118h319c87 288 199 559 259 872 72-308 185-583 277-872h315L726 132c-68 181-186 294-410 294-79 0-153-13-196-30" id="bJ"/><g id="L"><use transform="matrix(0.010850694444444444,0,0,0.010850694444444444,0,0)" xlink:href="#bB"/><use transform="matrix(0.010850694444444444,0,0,0.010850694444444444,16.048177083333332,0)" xlink:href="#bm"/><use transform="matrix(0.010850694444444444,0,0,0.010850694444444444,29.286024305555554,0)" xlink:href="#bw"/><use transform="matrix(0.010850694444444444,0,0,0.010850694444444444,35.30815972222222,0)" xlink:href="#bq"/><use transform="matrix(0.010850694444444444,0,0,0.010850694444444444,41.330295138888886,0)" xlink:href="#bI"/><use transform="matrix(0.010850694444444444,0,0,0.010850694444444444,54.25347222222222,0)" xlink:href="#bm"/><use transform="matrix(0.010850694444444444,0,0,0.010850694444444444,67.49131944444444,0)" xlink:href="#bn"/><use transform="matrix(0.010850694444444444,0,0,0.010850694444444444,76.88802083333334,0)" xlink:href="#bJ"/></g><path d="M1163 418H863v-597h-10C812-89 719 19 537 19 279 19 81-185 81-557c0-382 206-575 454-575 190 0 278 113 318 202h15v-188h295V418zM629-222c153 0 240-134 240-336 0-203-86-334-240-334-158 0-240 138-240 334 0 197 84 336 240 336" id="bK"/><g id="M"><use transform="matrix(0.010850694444444444,0,0,0.010850694444444444,0,0)" xlink:href="#by"/><use transform="matrix(0.010850694444444444,0,0,0.010850694444444444,14.322916666666666,0)" xlink:href="#bm"/><use transform="matrix(0.010850694444444444,0,0,0.010850694444444444,27.56076388888889,0)" xlink:href="#bK"/><use transform="matrix(0.010850694444444444,0,0,0.010850694444444444,41.569010416666664,0)" xlink:href="#bE"/><use transform="matrix(0.010850694444444444,0,0,0.010850694444444444,55.40364583333333,0)" xlink:href="#bm"/><use transform="matrix(0.010850694444444444,0,0,0.010850694444444444,68.64149305555554,0)" xlink:href="#bl"/><use transform="matrix(0.010850694444444444,0,0,0.010850694444444444,81.08723958333331,0)" xlink:href="#bu"/></g><path d="M128 0v-1490h300v802h17l366-430h347L740-633 1179 0H826L514-456l-86 97V0H128" id="bL"/><g id="N"><use transform="matrix(0.010850694444444444,0,0,0.010850694444444444,0,0)" xlink:href="#bv"/><use transform="matrix(0.010850694444444444,0,0,0.010850694444444444,14.702690972222221,0)" xlink:href="#bz"/><use transform="matrix(0.010850694444444444,0,0,0.010850694444444444,28.331163194444443,0)" xlink:href="#bz"/><use transform="matrix(0.010850694444444444,0,0,0.010850694444444444,41.959635416666664,0)" xlink:href="#bL"/><use transform="matrix(0.010850694444444444,0,0,0.010850694444444444,54.850260416666664,0)" xlink:href="#bq"/><use transform="matrix(0.010850694444444444,0,0,0.010850694444444444,60.87239583333333,0)" xlink:href="#bt"/><use transform="matrix(0.010850694444444444,0,0,0.010850694444444444,74.70703125,0)" xlink:href="#bx"/></g><path d="M750-1118v229H516V0H217v-889H20v-229h197v-86c0-238 156-356 363-356 94 0 178 20 215 31l-54 226c-25-7-61-15-100-15-123-3-131 84-125 200h234" id="bM"/><g id="O"><use transform="matrix(0.010850694444444444,0,0,0.010850694444444444,0,0)" xlink:href="#bD"/><use transform="matrix(0.010850694444444444,0,0,0.010850694444444444,13.075086805555555,0)" xlink:href="#bz"/><use transform="matrix(0.010850694444444444,0,0,0.010850694444444444,26.70355902777778,0)" xlink:href="#bt"/><use transform="matrix(0.010850694444444444,0,0,0.010850694444444444,40.53819444444444,0)" xlink:href="#bM"/><use transform="matrix(0.010850694444444444,0,0,0.010850694444444444,49.56597222222222,0)" xlink:href="#bq"/><use transform="matrix(0.010850694444444444,0,0,0.010850694444444444,55.588107638888886,0)" xlink:href="#bn"/><use transform="matrix(0.010850694444444444,0,0,0.010850694444444444,64.80034722222221,0)" xlink:href="#bs"/><use transform="matrix(0.010850694444444444,0,0,0.010850694444444444,85.08029513888889,0)" xlink:href="#bA"/><use transform="matrix(0.010850694444444444,0,0,0.010850694444444444,97.98177083333333,0)" xlink:href="#bu"/><use transform="matrix(0.010850694444444444,0,0,0.010850694444444444,106.11979166666666,0)" xlink:href="#bq"/><use transform="matrix(0.010850694444444444,0,0,0.010850694444444444,112.14192708333333,0)" xlink:href="#bz"/><use transform="matrix(0.010850694444444444,0,0,0.010850694444444444,125.77039930555556,0)" xlink:href="#bt"/></g><g id="P"><use transform="matrix(0.010850694444444444,0,0,0.010850694444444444,0,0)" xlink:href="#by"/><use transform="matrix(0.010850694444444444,0,0,0.010850694444444444,14.485677083333332,0)" xlink:href="#bA"/><use transform="matrix(0.010850694444444444,0,0,0.010850694444444444,27.38715277777778,0)" xlink:href="#bu"/><use transform="matrix(0.010850694444444444,0,0,0.010850694444444444,35.30815972222222,0)" xlink:href="#bm"/></g><g id="Q"><use transform="matrix(0.010850694444444444,0,0,0.010850694444444444,0,0)" xlink:href="#bD"/><use transform="matrix(0.010850694444444444,0,0,0.010850694444444444,13.292100694444445,0)" xlink:href="#bA"/><use transform="matrix(0.010850694444444444,0,0,0.010850694444444444,26.19357638888889,0)" xlink:href="#bw"/><use transform="matrix(0.010850694444444444,0,0,0.010850694444444444,32.21571180555556,0)" xlink:href="#bD"/><use transform="matrix(0.010850694444444444,0,0,0.010850694444444444,45.29079861111111,0)" xlink:href="#bE"/><use transform="matrix(0.010850694444444444,0,0,0.010850694444444444,59.12543402777778,0)" xlink:href="#bw"/><use transform="matrix(0.010850694444444444,0,0,0.010850694444444444,65.14756944444444,0)" xlink:href="#bA"/><use transform="matrix(0.010850694444444444,0,0,0.010850694444444444,78.04904513888889,0)" xlink:href="#bu"/><use transform="matrix(0.010850694444444444,0,0,0.010850694444444444,86.18706597222221,0)" xlink:href="#bq"/><use transform="matrix(0.010850694444444444,0,0,0.010850694444444444,92.20920138888889,0)" xlink:href="#bz"/><use transform="matrix(0.010850694444444444,0,0,0.010850694444444444,105.83767361111111,0)" xlink:href="#bt"/></g><g id="R"><use transform="matrix(0.010850694444444444,0,0,0.010850694444444444,0,0)" xlink:href="#bo"/><use transform="matrix(0.010850694444444444,0,0,0.010850694444444444,14.55078125,0)" xlink:href="#bu"/><use transform="matrix(0.010850694444444444,0,0,0.010850694444444444,22.471788194444443,0)" xlink:href="#bz"/><use transform="matrix(0.010850694444444444,0,0,0.010850694444444444,36.100260416666664,0)" xlink:href="#bn"/><use transform="matrix(0.010850694444444444,0,0,0.010850694444444444,44.60720486111111,0)" xlink:href="#bm"/></g><g id="S"><use transform="matrix(0.010850694444444444,0,0,0.010850694444444444,0,0)" xlink:href="#bl"/><use transform="matrix(0.010850694444444444,0,0,0.010850694444444444,12.445746527777777,0)" xlink:href="#bp"/><use transform="matrix(0.010850694444444444,0,0,0.010850694444444444,26.280381944444443,0)" xlink:href="#bq"/><use transform="matrix(0.010850694444444444,0,0,0.010850694444444444,32.30251736111111,0)" xlink:href="#br"/><use transform="matrix(0.010850694444444444,0,0,0.010850694444444444,46.310763888888886,0)" xlink:href="#bs"/><use transform="matrix(0.010850694444444444,0,0,0.010850694444444444,66.59071180555554,0)" xlink:href="#bm"/><use transform="matrix(0.010850694444444444,0,0,0.010850694444444444,79.82855902777777,0)" xlink:href="#bt"/><use transform="matrix(0.010850694444444444,0,0,0.010850694444444444,93.66319444444444,0)" xlink:href="#bu"/></g><g id="T"><use transform="matrix(0.010850694444444444,0,0,0.010850694444444444,0,0)" xlink:href="#bq"/><use transform="matrix(0.010850694444444444,0,0,0.010850694444444444,6.022135416666666,0)" xlink:href="#bt"/><use transform="matrix(0.010850694444444444,0,0,0.010850694444444444,19.856770833333332,0)" xlink:href="#bM"/><use transform="matrix(0.010850694444444444,0,0,0.010850694444444444,28.222656249999993,0)" xlink:href="#bz"/></g><g id="U"><use transform="matrix(0.010850694444444444,0,0,0.010850694444444444,0,0)" xlink:href="#by"/><use transform="matrix(0.010850694444444444,0,0,0.010850694444444444,14.322916666666666,0)" xlink:href="#bm"/><use transform="matrix(0.010850694444444444,0,0,0.010850694444444444,27.56076388888889,0)" xlink:href="#bu"/><use transform="matrix(0.010850694444444444,0,0,0.010850694444444444,35.69878472222222,0)" xlink:href="#bn"/><use transform="matrix(0.010850694444444444,0,0,0.010850694444444444,44.91102430555556,0)" xlink:href="#bq"/><use transform="matrix(0.010850694444444444,0,0,0.010850694444444444,50.93315972222221,0)" xlink:href="#bI"/><use transform="matrix(0.010850694444444444,0,0,0.010850694444444444,63.85633680555555,0)" xlink:href="#bm"/></g><g id="V"><use transform="matrix(0.010850694444444444,0,0,0.010850694444444444,0,0)" xlink:href="#bq"/><use transform="matrix(0.010850694444444444,0,0,0.010850694444444444,6.022135416666666,0)" xlink:href="#bt"/><use transform="matrix(0.010850694444444444,0,0,0.010850694444444444,19.856770833333332,0)" xlink:href="#bM"/><use transform="matrix(0.010850694444444444,0,0,0.010850694444444444,28.222656249999993,0)" xlink:href="#bz"/></g><g id="W"><use transform="matrix(0.010850694444444444,0,0,0.010850694444444444,0,0)" xlink:href="#bo"/><use transform="matrix(0.010850694444444444,0,0,0.010850694444444444,14.55078125,0)" xlink:href="#bu"/><use transform="matrix(0.010850694444444444,0,0,0.010850694444444444,22.79730902777778,0)" xlink:href="#bA"/><use transform="matrix(0.010850694444444444,0,0,0.010850694444444444,35.69878472222222,0)" xlink:href="#bu"/><use transform="matrix(0.010850694444444444,0,0,0.010850694444444444,43.83680555555556,0)" xlink:href="#bE"/><use transform="matrix(0.010850694444444444,0,0,0.010850694444444444,57.67144097222222,0)" xlink:href="#bl"/></g><g id="X"><use transform="matrix(0.010850694444444444,0,0,0.010850694444444444,0,0)" xlink:href="#bk"/><use transform="matrix(0.010850694444444444,0,0,0.010850694444444444,16.26519097222222,0)" xlink:href="#br"/><use transform="matrix(0.010850694444444444,0,0,0.010850694444444444,30.2734375,0)" xlink:href="#bF"/><use transform="matrix(0.010850694444444444,0,0,0.010850694444444444,44.28168402777778,0)" xlink:href="#bA"/><use transform="matrix(0.010850694444444444,0,0,0.010850694444444444,57.18315972222222,0)" xlink:href="#bu"/><use transform="matrix(0.010850694444444444,0,0,0.010850694444444444,65.10416666666667,0)" xlink:href="#bm"/><use transform="matrix(0.010850694444444444,0,0,0.010850694444444444,78.34201388888889,0)" xlink:href="#bl"/></g><g id="Y"><use transform="matrix(0.010850694444444444,0,0,0.010850694444444444,0,0)" xlink:href="#bH"/><use transform="matrix(0.010850694444444444,0,0,0.010850694444444444,12.565104166666666,0)" xlink:href="#bz"/><use transform="matrix(0.010850694444444444,0,0,0.010850694444444444,26.19357638888889,0)" xlink:href="#bD"/><use transform="matrix(0.010850694444444444,0,0,0.010850694444444444,39.48567708333333,0)" xlink:href="#bA"/><use transform="matrix(0.010850694444444444,0,0,0.010850694444444444,52.38715277777778,0)" xlink:href="#bu"/><use transform="matrix(0.010850694444444444,0,0,0.010850694444444444,60.52517361111111,0)" xlink:href="#bq"/><use transform="matrix(0.010850694444444444,0,0,0.010850694444444444,66.54730902777777,0)" xlink:href="#bz"/><use transform="matrix(0.010850694444444444,0,0,0.010850694444444444,80.17578125,0)" xlink:href="#bt"/></g><g id="Z"><use transform="matrix(0.010850694444444444,0,0,0.010850694444444444,0,0)" xlink:href="#bk"/><use transform="matrix(0.010850694444444444,0,0,0.010850694444444444,16.26519097222222,0)" xlink:href="#br"/><use transform="matrix(0.010850694444444444,0,0,0.010850694444444444,30.2734375,0)" xlink:href="#bF"/><use transform="matrix(0.010850694444444444,0,0,0.010850694444444444,44.28168402777778,0)" xlink:href="#bA"/><use transform="matrix(0.010850694444444444,0,0,0.010850694444444444,57.18315972222222,0)" xlink:href="#bu"/><use transform="matrix(0.010850694444444444,0,0,0.010850694444444444,65.10416666666667,0)" xlink:href="#bm"/></g><g id="aa"><use transform="matrix(0.010850694444444444,0,0,0.010850694444444444,0,0)" xlink:href="#bl"/><use transform="matrix(0.010850694444444444,0,0,0.010850694444444444,12.445746527777777,0)" xlink:href="#bu"/><use transform="matrix(0.010850694444444444,0,0,0.010850694444444444,20.692274305555557,0)" xlink:href="#bA"/><use transform="matrix(0.010850694444444444,0,0,0.010850694444444444,33.59375,0)" xlink:href="#bu"/><use transform="matrix(0.010850694444444444,0,0,0.010850694444444444,41.731770833333336,0)" xlink:href="#bE"/><use transform="matrix(0.010850694444444444,0,0,0.010850694444444444,55.56640625,0)" xlink:href="#bl"/></g><g id="ab"><use transform="matrix(0.010850694444444444,0,0,0.010850694444444444,0,0)" xlink:href="#bB"/><use transform="matrix(0.010850694444444444,0,0,0.010850694444444444,16.048177083333332,0)" xlink:href="#bm"/><use transform="matrix(0.010850694444444444,0,0,0.010850694444444444,29.286024305555554,0)" xlink:href="#bw"/><use transform="matrix(0.010850694444444444,0,0,0.010850694444444444,35.30815972222222,0)" xlink:href="#bq"/><use transform="matrix(0.010850694444444444,0,0,0.010850694444444444,41.330295138888886,0)" xlink:href="#bI"/><use transform="matrix(0.010850694444444444,0,0,0.010850694444444444,54.25347222222222,0)" xlink:href="#bm"/><use transform="matrix(0.010850694444444444,0,0,0.010850694444444444,67.49131944444444,0)" xlink:href="#bn"/><use transform="matrix(0.010850694444444444,0,0,0.010850694444444444,76.88802083333334,0)" xlink:href="#bJ"/></g><path d="M135 0v-1490h581c339 0 533 210 533 503 0 295-197 500-540 500H440V0H135zm305-733h220c186 0 274-104 274-254s-88-251-275-251H440v505" id="bN"/><g id="ac"><use transform="matrix(0.010850694444444444,0,0,0.010850694444444444,0,0)" xlink:href="#bN"/><use transform="matrix(0.010850694444444444,0,0,0.010850694444444444,14.398871527777777,0)" xlink:href="#bn"/><use transform="matrix(0.010850694444444444,0,0,0.010850694444444444,22.90581597222222,0)" xlink:href="#bz"/><use transform="matrix(0.010850694444444444,0,0,0.010850694444444444,36.53428819444444,0)" xlink:href="#bz"/><use transform="matrix(0.010850694444444444,0,0,0.010850694444444444,50.162760416666664,0)" xlink:href="#bM"/></g><g id="ad"><use transform="matrix(0.010850694444444444,0,0,0.010850694444444444,0,0)" xlink:href="#bn"/><use transform="matrix(0.010850694444444444,0,0,0.010850694444444444,8.506944444444445,0)" xlink:href="#bm"/><use transform="matrix(0.010850694444444444,0,0,0.010850694444444444,21.744791666666664,0)" xlink:href="#bu"/><use transform="matrix(0.010850694444444444,0,0,0.010850694444444444,29.8828125,0)" xlink:href="#bn"/><use transform="matrix(0.010850694444444444,0,0,0.010850694444444444,39.095052083333336,0)" xlink:href="#bq"/><use transform="matrix(0.010850694444444444,0,0,0.010850694444444444,45.1171875,0)" xlink:href="#bI"/><use transform="matrix(0.010850694444444444,0,0,0.010850694444444444,58.04036458333333,0)" xlink:href="#bm"/></g><g id="ae"><use transform="matrix(0.010850694444444444,0,0,0.010850694444444444,0,0)" xlink:href="#bu"/><use transform="matrix(0.010850694444444444,0,0,0.010850694444444444,8.138020833333334,0)" xlink:href="#bn"/><use transform="matrix(0.010850694444444444,0,0,0.010850694444444444,16.883680555555557,0)" xlink:href="#bA"/><use transform="matrix(0.010850694444444444,0,0,0.010850694444444444,29.78515625,0)" xlink:href="#bD"/><use transform="matrix(0.010850694444444444,0,0,0.010850694444444444,42.86024305555556,0)" xlink:href="#bL"/><use transform="matrix(0.010850694444444444,0,0,0.010850694444444444,55.75086805555555,0)" xlink:href="#bq"/><use transform="matrix(0.010850694444444444,0,0,0.010850694444444444,61.77300347222222,0)" xlink:href="#bt"/><use transform="matrix(0.010850694444444444,0,0,0.010850694444444444,75.60763888888889,0)" xlink:href="#bx"/></g><g id="af"><use transform="matrix(0.010850694444444444,0,0,0.010850694444444444,0,0)" xlink:href="#bF"/><use transform="matrix(0.010850694444444444,0,0,0.010850694444444444,14.008246527777777,0)" xlink:href="#bA"/><use transform="matrix(0.010850694444444444,0,0,0.010850694444444444,26.90972222222222,0)" xlink:href="#bu"/><use transform="matrix(0.010850694444444444,0,0,0.010850694444444444,35.15625,0)" xlink:href="#bA"/></g><path d="M975 0v231H0V0h975" id="bO"/><g id="ag"><use transform="matrix(0.010850694444444444,0,0,0.010850694444444444,0,0)" xlink:href="#by"/><use transform="matrix(0.010850694444444444,0,0,0.010850694444444444,14.322916666666666,0)" xlink:href="#bm"/><use transform="matrix(0.010850694444444444,0,0,0.010850694444444444,27.77777777777778,0)" xlink:href="#bA"/><use transform="matrix(0.010850694444444444,0,0,0.010850694444444444,40.67925347222222,0)" xlink:href="#bw"/><use transform="matrix(0.010850694444444444,0,0,0.010850694444444444,47.10286458333333,0)" xlink:href="#bO"/><use transform="matrix(0.010850694444444444,0,0,0.010850694444444444,57.68229166666666,0)" xlink:href="#bu"/><use transform="matrix(0.010850694444444444,0,0,0.010850694444444444,65.82031249999999,0)" xlink:href="#bq"/><use transform="matrix(0.010850694444444444,0,0,0.010850694444444444,71.84244791666666,0)" xlink:href="#bs"/><use transform="matrix(0.010850694444444444,0,0,0.010850694444444444,92.12239583333331,0)" xlink:href="#bm"/></g><g id="ah"><use transform="matrix(0.010850694444444444,0,0,0.010850694444444444,0,0)" xlink:href="#bw"/><use transform="matrix(0.010850694444444444,0,0,0.010850694444444444,6.022135416666666,0)" xlink:href="#bz"/><use transform="matrix(0.010850694444444444,0,0,0.010850694444444444,19.650607638888886,0)" xlink:href="#bD"/><use transform="matrix(0.010850694444444444,0,0,0.010850694444444444,32.94270833333333,0)" xlink:href="#bA"/><use transform="matrix(0.010850694444444444,0,0,0.010850694444444444,45.84418402777778,0)" xlink:href="#bu"/><use transform="matrix(0.010850694444444444,0,0,0.010850694444444444,53.98220486111111,0)" xlink:href="#bq"/><use transform="matrix(0.010850694444444444,0,0,0.010850694444444444,60.00434027777778,0)" xlink:href="#bz"/><use transform="matrix(0.010850694444444444,0,0,0.010850694444444444,73.6328125,0)" xlink:href="#bt"/></g><path d="M75-1237v-253h1217v253H837V0H531v-1237H75" id="bP"/><g id="ai"><use transform="matrix(0.010850694444444444,0,0,0.010850694444444444,0,0)" xlink:href="#bP"/><use transform="matrix(0.010850694444444444,0,0,0.010850694444444444,13.57421875,0)" xlink:href="#bn"/><use transform="matrix(0.010850694444444444,0,0,0.010850694444444444,22.31987847222222,0)" xlink:href="#bA"/><use transform="matrix(0.010850694444444444,0,0,0.010850694444444444,35.221354166666664,0)" xlink:href="#bD"/><use transform="matrix(0.010850694444444444,0,0,0.010850694444444444,48.29644097222222,0)" xlink:href="#bL"/><use transform="matrix(0.010850694444444444,0,0,0.010850694444444444,61.18706597222222,0)" xlink:href="#bq"/><use transform="matrix(0.010850694444444444,0,0,0.010850694444444444,67.20920138888889,0)" xlink:href="#bt"/><use transform="matrix(0.010850694444444444,0,0,0.010850694444444444,81.04383680555556,0)" xlink:href="#bx"/></g><g id="aj"><use transform="matrix(0.010850694444444444,0,0,0.010850694444444444,0,0)" xlink:href="#bq"/><use transform="matrix(0.010850694444444444,0,0,0.010850694444444444,6.022135416666666,0)" xlink:href="#bt"/><use transform="matrix(0.010850694444444444,0,0,0.010850694444444444,19.856770833333332,0)" xlink:href="#bM"/><use transform="matrix(0.010850694444444444,0,0,0.010850694444444444,28.222656249999993,0)" xlink:href="#bz"/></g><g id="ak"><use transform="matrix(0.010850694444444444,0,0,0.010850694444444444,0,0)" xlink:href="#bN"/><use transform="matrix(0.010850694444444444,0,0,0.010850694444444444,14.116753472222221,0)" xlink:href="#bA"/><use transform="matrix(0.010850694444444444,0,0,0.010850694444444444,26.63845486111111,0)" xlink:href="#bJ"/><use transform="matrix(0.010850694444444444,0,0,0.010850694444444444,40.017361111111114,0)" xlink:href="#bs"/><use transform="matrix(0.010850694444444444,0,0,0.010850694444444444,60.29730902777778,0)" xlink:href="#bm"/><use transform="matrix(0.010850694444444444,0,0,0.010850694444444444,73.53515625,0)" xlink:href="#bt"/><use transform="matrix(0.010850694444444444,0,0,0.010850694444444444,87.36979166666667,0)" xlink:href="#bu"/></g><g id="al"><use transform="matrix(0.010850694444444444,0,0,0.010850694444444444,0,0)" xlink:href="#bn"/><use transform="matrix(0.010850694444444444,0,0,0.010850694444444444,8.506944444444445,0)" xlink:href="#bm"/><use transform="matrix(0.010850694444444444,0,0,0.010850694444444444,21.744791666666664,0)" xlink:href="#bK"/><use transform="matrix(0.010850694444444444,0,0,0.010850694444444444,35.75303819444444,0)" xlink:href="#bE"/><use transform="matrix(0.010850694444444444,0,0,0.010850694444444444,49.58767361111111,0)" xlink:href="#bm"/><use transform="matrix(0.010850694444444444,0,0,0.010850694444444444,62.82552083333333,0)" xlink:href="#bl"/><use transform="matrix(0.010850694444444444,0,0,0.010850694444444444,75.2712673611111,0)" xlink:href="#bu"/></g><g id="am"><use transform="matrix(0.010850694444444444,0,0,0.010850694444444444,0,0)" xlink:href="#bF"/><use transform="matrix(0.010850694444444444,0,0,0.010850694444444444,14.008246527777777,0)" xlink:href="#bm"/><use transform="matrix(0.010850694444444444,0,0,0.010850694444444444,27.24609375,0)" xlink:href="#bu"/><use transform="matrix(0.010850694444444444,0,0,0.010850694444444444,35.49262152777778,0)" xlink:href="#bA"/><use transform="matrix(0.010850694444444444,0,0,0.010850694444444444,48.39409722222222,0)" xlink:href="#bw"/><use transform="matrix(0.010850694444444444,0,0,0.010850694444444444,54.416232638888886,0)" xlink:href="#bq"/><use transform="matrix(0.010850694444444444,0,0,0.010850694444444444,60.43836805555555,0)" xlink:href="#bl"/></g><g id="an"><use transform="matrix(0.010850694444444444,0,0,0.010850694444444444,0,0)" xlink:href="#br"/><use transform="matrix(0.010850694444444444,0,0,0.010850694444444444,14.225260416666666,0)" xlink:href="#bA"/><use transform="matrix(0.010850694444444444,0,0,0.010850694444444444,26.74696180555556,0)" xlink:href="#bJ"/><use transform="matrix(0.010850694444444444,0,0,0.010850694444444444,40.12586805555556,0)" xlink:href="#bs"/><use transform="matrix(0.010850694444444444,0,0,0.010850694444444444,60.40581597222222,0)" xlink:href="#bm"/><use transform="matrix(0.010850694444444444,0,0,0.010850694444444444,73.64366319444444,0)" xlink:href="#bt"/><use transform="matrix(0.010850694444444444,0,0,0.010850694444444444,87.47829861111111,0)" xlink:href="#bu"/></g><g id="ao"><use transform="matrix(0.010850694444444444,0,0,0.010850694444444444,0,0)" xlink:href="#bD"/><use transform="matrix(0.010850694444444444,0,0,0.010850694444444444,13.075086805555555,0)" xlink:href="#bz"/><use transform="matrix(0.010850694444444444,0,0,0.010850694444444444,26.70355902777778,0)" xlink:href="#bt"/><use transform="matrix(0.010850694444444444,0,0,0.010850694444444444,40.53819444444444,0)" xlink:href="#bM"/><use transform="matrix(0.010850694444444444,0,0,0.010850694444444444,49.56597222222222,0)" xlink:href="#bq"/><use transform="matrix(0.010850694444444444,0,0,0.010850694444444444,55.588107638888886,0)" xlink:href="#bn"/><use transform="matrix(0.010850694444444444,0,0,0.010850694444444444,64.80034722222221,0)" xlink:href="#bs"/><use transform="matrix(0.010850694444444444,0,0,0.010850694444444444,85.08029513888889,0)" xlink:href="#bA"/><use transform="matrix(0.010850694444444444,0,0,0.010850694444444444,97.98177083333333,0)" xlink:href="#bu"/><use transform="matrix(0.010850694444444444,0,0,0.010850694444444444,106.11979166666666,0)" xlink:href="#bq"/><use transform="matrix(0.010850694444444444,0,0,0.010850694444444444,112.14192708333333,0)" xlink:href="#bz"/><use transform="matrix(0.010850694444444444,0,0,0.010850694444444444,125.77039930555556,0)" xlink:href="#bt"/></g><g id="ap"><use transform="matrix(0.010850694444444444,0,0,0.010850694444444444,0,0)" xlink:href="#bl"/><use transform="matrix(0.010850694444444444,0,0,0.010850694444444444,12.445746527777777,0)" xlink:href="#bu"/><use transform="matrix(0.010850694444444444,0,0,0.010850694444444444,20.36675347222222,0)" xlink:href="#bz"/><use transform="matrix(0.010850694444444444,0,0,0.010850694444444444,33.99522569444444,0)" xlink:href="#bn"/><use transform="matrix(0.010850694444444444,0,0,0.010850694444444444,42.502170138888886,0)" xlink:href="#bm"/></g><g id="aq"><use transform="matrix(0.010850694444444444,0,0,0.010850694444444444,0,0)" xlink:href="#bq"/><use transform="matrix(0.010850694444444444,0,0,0.010850694444444444,6.022135416666666,0)" xlink:href="#bt"/><use transform="matrix(0.010850694444444444,0,0,0.010850694444444444,19.47699652777778,0)" xlink:href="#bI"/><use transform="matrix(0.010850694444444444,0,0,0.010850694444444444,32.400173611111114,0)" xlink:href="#bz"/><use transform="matrix(0.010850694444444444,0,0,0.010850694444444444,46.02864583333333,0)" xlink:href="#bq"/><use transform="matrix(0.010850694444444444,0,0,0.010850694444444444,52.05078125,0)" xlink:href="#bD"/><use transform="matrix(0.010850694444444444,0,0,0.010850694444444444,65.12586805555556,0)" xlink:href="#bm"/></g><use transform="matrix(0.010850694444444444,0,0,0.010850694444444444,0,0)" xlink:href="#bG" id="ar"/><g id="as"><use transform="matrix(0.010850694444444444,0,0,0.010850694444444444,0,0)" xlink:href="#bn"/><use transform="matrix(0.010850694444444444,0,0,0.010850694444444444,8.506944444444445,0)" xlink:href="#bm"/><use transform="matrix(0.010850694444444444,0,0,0.010850694444444444,21.744791666666664,0)" xlink:href="#bu"/><use transform="matrix(0.010850694444444444,0,0,0.010850694444444444,29.8828125,0)" xlink:href="#bn"/><use transform="matrix(0.010850694444444444,0,0,0.010850694444444444,39.095052083333336,0)" xlink:href="#bq"/><use transform="matrix(0.010850694444444444,0,0,0.010850694444444444,45.1171875,0)" xlink:href="#bm"/><use transform="matrix(0.010850694444444444,0,0,0.010850694444444444,57.95355902777778,0)" xlink:href="#bI"/><use transform="matrix(0.010850694444444444,0,0,0.010850694444444444,70.87673611111111,0)" xlink:href="#bm"/></g><g id="at"><use transform="matrix(0.010850694444444444,0,0,0.010850694444444444,0,0)" xlink:href="#bn"/><use transform="matrix(0.010850694444444444,0,0,0.010850694444444444,8.506944444444445,0)" xlink:href="#bm"/><use transform="matrix(0.010850694444444444,0,0,0.010850694444444444,21.744791666666664,0)" xlink:href="#br"/><use transform="matrix(0.010850694444444444,0,0,0.010850694444444444,35.75303819444444,0)" xlink:href="#bz"/><use transform="matrix(0.010850694444444444,0,0,0.010850694444444444,49.381510416666664,0)" xlink:href="#bn"/><use transform="matrix(0.010850694444444444,0,0,0.010850694444444444,58.86501736111111,0)" xlink:href="#bu"/><use transform="matrix(0.010850694444444444,0,0,0.010850694444444444,66.84027777777777,0)" xlink:href="#bl"/></g><g id="au"><use transform="matrix(0.010850694444444444,0,0,0.010850694444444444,0,0)" xlink:href="#bo"/><use transform="matrix(0.010850694444444444,0,0,0.010850694444444444,14.55078125,0)" xlink:href="#bu"/><use transform="matrix(0.010850694444444444,0,0,0.010850694444444444,22.471788194444443,0)" xlink:href="#bz"/><use transform="matrix(0.010850694444444444,0,0,0.010850694444444444,36.100260416666664,0)" xlink:href="#bn"/><use transform="matrix(0.010850694444444444,0,0,0.010850694444444444,44.60720486111111,0)" xlink:href="#bm"/></g><g id="av"><use transform="matrix(0.010850694444444444,0,0,0.010850694444444444,0,0)" xlink:href="#bG"/><use transform="matrix(0.010850694444444444,0,0,0.010850694444444444,14.930555555555555,0)" xlink:href="#bn"/><use transform="matrix(0.010850694444444444,0,0,0.010850694444444444,23.4375,0)" xlink:href="#bm"/><use transform="matrix(0.010850694444444444,0,0,0.010850694444444444,36.67534722222222,0)" xlink:href="#bu"/><use transform="matrix(0.010850694444444444,0,0,0.010850694444444444,44.81336805555556,0)" xlink:href="#bn"/><use transform="matrix(0.010850694444444444,0,0,0.010850694444444444,54.025607638888886,0)" xlink:href="#bq"/><use transform="matrix(0.010850694444444444,0,0,0.010850694444444444,60.04774305555555,0)" xlink:href="#bI"/><use transform="matrix(0.010850694444444444,0,0,0.010850694444444444,72.97092013888889,0)" xlink:href="#bm"/></g><g id="aw"><use transform="matrix(0.010850694444444444,0,0,0.010850694444444444,0,0)" xlink:href="#bE"/><use transform="matrix(0.010850694444444444,0,0,0.010850694444444444,13.834635416666666,0)" xlink:href="#bl"/><use transform="matrix(0.010850694444444444,0,0,0.010850694444444444,26.280381944444443,0)" xlink:href="#bm"/><use transform="matrix(0.010850694444444444,0,0,0.010850694444444444,39.518229166666664,0)" xlink:href="#bn"/></g><g id="ax"><use transform="matrix(0.010850694444444444,0,0,0.010850694444444444,0,0)" xlink:href="#by"/><use transform="matrix(0.010850694444444444,0,0,0.010850694444444444,14.322916666666666,0)" xlink:href="#bm"/><use transform="matrix(0.010850694444444444,0,0,0.010850694444444444,27.56076388888889,0)" xlink:href="#br"/><use transform="matrix(0.010850694444444444,0,0,0.010850694444444444,41.569010416666664,0)" xlink:href="#bz"/><use transform="matrix(0.010850694444444444,0,0,0.010850694444444444,55.197482638888886,0)" xlink:href="#bn"/><use transform="matrix(0.010850694444444444,0,0,0.010850694444444444,64.68098958333333,0)" xlink:href="#bu"/></g></defs></g></svg>