<svg xmlns="http://www.w3.org/2000/svg" xmlns:xlink="http://www.w3.org/1999/xlink" xmlns:lucid="lucid" width="1745" height="1162"><g transform="translate(-937.5 -159)" lucid:page-tab-id="if0RpZcGb9vA"><path d="M960 166a6 6 0 0 1 6-6h268a6 6 0 0 1 6 6v68a6 6 0 0 1-6 6H966a6 6 0 0 1-6-6z" stroke="#ba23f6" stroke-width="2" fill="#fbf0ff"/><use xlink:href="#a" transform="matrix(1,0,0,1,960,160) translate(72.25868923611112 48.09027777777778)"/><use xlink:href="#b" transform="matrix(1,0,0,1,960,160) translate(140.835078125 48.09027777777778)"/><path d="M1440 166a6 6 0 0 1 6-6h268a6 6 0 0 1 6 6v68a6 6 0 0 1-6 6h-268a6 6 0 0 1-6-6z" stroke="#00c2a8" stroke-width="2" fill="#d7faf5"/><use xlink:href="#c" transform="matrix(1,0,0,1,1440,160) translate(74.3528732638889 48.09027777777778)"/><use xlink:href="#d" transform="matrix(1,0,0,1,1440,160) translate(147.51910590277777 48.09027777777778)"/><path d="M1920 166a6 6 0 0 1 6-6h268a6 6 0 0 1 6 6v68a6 6 0 0 1-6 6h-268a6 6 0 0 1-6-6z" stroke="#fc9432" stroke-width="2" fill="#fff3d9"/><use xlink:href="#e" transform="matrix(1,0,0,1,1920,160) translate(37.037335069444445 48.09027777777778)"/><use xlink:href="#f" transform="matrix(1,0,0,1,1920,160) translate(139.60894965277777 48.09027777777778)"/><path d="M2400 166a6 6 0 0 1 6-6h268a6 6 0 0 1 6 6v68a6 6 0 0 1-6 6h-268a6 6 0 0 1-6-6z" stroke="#1071e5" stroke-width="2" fill="#edf5ff"/><use xlink:href="#g" transform="matrix(1,0,0,1,2400,160) translate(48.95682291666666 48.09027777777778)"/><use xlink:href="#h" transform="matrix(1,0,0,1,2400,160) translate(131.69336805555554 48.09027777777778)"/><path d="M960 1246a6 6 0 0 1 6-6h268a6 6 0 0 1 6 6v68a6 6 0 0 1-6 6H966a6 6 0 0 1-6-6z" stroke="#ba23f6" stroke-width="2" fill="#fbf0ff"/><use xlink:href="#a" transform="matrix(1,0,0,1,960,1240) translate(72.25868923611112 48.09027777777778)"/><use xlink:href="#b" transform="matrix(1,0,0,1,960,1240) translate(140.835078125 48.09027777777778)"/><path d="M1440 1246a6 6 0 0 1 6-6h268a6 6 0 0 1 6 6v68a6 6 0 0 1-6 6h-268a6 6 0 0 1-6-6z" stroke="#00c2a8" stroke-width="2" fill="#d7faf5"/><use xlink:href="#c" transform="matrix(1,0,0,1,1440,1240) translate(74.3528732638889 48.09027777777778)"/><use xlink:href="#d" transform="matrix(1,0,0,1,1440,1240) translate(147.51910590277777 48.09027777777778)"/><path d="M1920 1246a6 6 0 0 1 6-6h268a6 6 0 0 1 6 6v68a6 6 0 0 1-6 6h-268a6 6 0 0 1-6-6z" stroke="#fc9432" stroke-width="2" fill="#fff3d9"/><use xlink:href="#e" transform="matrix(1,0,0,1,1920,1240) translate(37.037335069444445 48.09027777777778)"/><use xlink:href="#f" transform="matrix(1,0,0,1,1920,1240) translate(139.60894965277777 48.09027777777778)"/><path d="M2400 1246a6 6 0 0 1 6-6h268a6 6 0 0 1 6 6v68a6 6 0 0 1-6 6h-268a6 6 0 0 1-6-6z" stroke="#1071e5" stroke-width="2" fill="#edf5ff"/><use xlink:href="#g" transform="matrix(1,0,0,1,2400,1240) translate(48.95682291666666 48.09027777777778)"/><use xlink:href="#h" transform="matrix(1,0,0,1,2400,1240) translate(131.69336805555554 48.09027777777778)"/><path d="M1100 243.5v993" stroke="#3a414a" stroke-width="5" fill="none"/><path d="M1102.47 243.56h-4.94V241h4.94zM1102.47 1239h-4.94v-2.56h4.94z" stroke="#3a414a" stroke-width=".05" fill="#3a414a"/><path d="M1580 243.5v993" stroke="#3a414a" stroke-width="5" fill="none"/><path d="M1582.47 243.56h-4.94V241h4.94zM1582.47 1239h-4.94v-2.56h4.94z" stroke="#3a414a" stroke-width=".05" fill="#3a414a"/><path d="M2060 243.5v993" stroke="#3a414a" stroke-width="5" fill="none"/><path d="M2062.47 243.56h-4.94V241h4.94zM2062.47 1239h-4.94v-2.56h4.94z" stroke="#3a414a" stroke-width=".05" fill="#3a414a"/><path d="M2540 243.5v993" stroke="#3a414a" stroke-width="5" fill="none"/><path d="M2542.47 243.56h-4.94V241h4.94zM2542.47 1239h-4.94v-2.56h4.94z" stroke="#3a414a" stroke-width=".05" fill="#3a414a"/><path d="M940 306a6 6 0 0 1 6-6h1728a6 6 0 0 1 6 6v68a6 6 0 0 1-6 6H946a6 6 0 0 1-6-6z" stroke="#fc9432" stroke-width="5" fill="#fff7a1"/><use xlink:href="#i" transform="matrix(1,0,0,1,940,300) translate(586.15734375 54.6875)"/><use xlink:href="#j" transform="matrix(1,0,0,1,940,300) translate(661.4503125 54.6875)"/><use xlink:href="#k" transform="matrix(1,0,0,1,940,300) translate(777.1534375 54.6875)"/><path d="M2040 646a6 6 0 0 1 6-6h28a6 6 0 0 1 6 6v468a6 6 0 0 1-6 6h-28a6 6 0 0 1-6-6z" stroke="#fc9432" stroke-width="5" fill="#fff3d9"/><path d="M1560 486a6 6 0 0 1 6-6h28a6 6 0 0 1 6 6v688a6 6 0 0 1-6 6h-28a6 6 0 0 1-6-6z" stroke="#00c2a8" stroke-width="5" fill="#d7faf5"/><path d="M1605 640.38h434.5" stroke="#3a414a" stroke-width="5" fill="none"/><path d="M1605.06 642.86h-2.56v-4.95h2.56z" stroke="#3a414a" stroke-width=".05" fill="#3a414a"/><path d="M2055 640.38l-13 7.5v-15z" stroke="#3a414a" stroke-width="5" fill="#3a414a"/><use xlink:href="#l" transform="matrix(1,0,0,1,1691.506076388889,606.8060432071509) translate(0.0049999999999954525 23.680555555555554)"/><path d="M2057.5 1122.5h-7.67m-10.22 0h-15.33m-10.22 0h-15.34m-10.2 0h-15.35m-10.22 0h-15.33m-10.23 0h-15.33m-10.23 0h-15.32m-10.23 0h-15.33m-10.23 0h-15.34m-10.23 0h-15.33m-10.22 0h-15.34m-10.22 0h-15.34m-10.22 0h-15.34m-10.22 0h-15.34m-10.22 0H1692m-10.22 0h-15.34m-10.22 0h-15.34m-10.22 0H1623" stroke="#3a414a" stroke-width="5" fill="none"/><path stroke="#3a414a" stroke-width=".05" fill="#3a414a"/><path d="M1607.5 1122.5l13-7.5v15z" stroke="#3a414a" stroke-width="5" fill="#3a414a"/><use xlink:href="#m" transform="matrix(1,0,0,1,1737.8232325865122,1088.9231770833335) translate(0.0049999999999954525 23.680555555555554)"/><path d="M1577.5 1182.5h-7.62m-10.15 0h-15.24m-10.16 0h-15.23m-10.15 0h-15.23m-10.16 0h-15.23m-10.16 0h-15.23m-10.16 0h-15.23m-10.16 0h-15.24m-10.16 0h-15.23m-10.16 0h-15.22m-10.16 0H1316m-10.17 0h-15.23m-10.15 0h-15.24m-10.14 0h-15.24m-10.15 0h-15.24m-10.15 0h-15.24m-10.15 0h-15.25m-10.15 0h-15.24m-10.15 0h-7.6" stroke="#3a414a" stroke-width="5" fill="none"/><path stroke="#3a414a" stroke-width=".05" fill="#3a414a"/><path d="M1105 1182.5l13-7.5v15z" stroke="#3a414a" stroke-width="5" fill="#3a414a"/><use xlink:href="#n" transform="matrix(1,0,0,1,1229.3688385416667,1151.6119791666665) translate(0.0049999999999954525 21.52777777777778)"/><path d="M1559.5 477.5h-457" stroke="#3a414a" stroke-width="5" fill="none"/><path d="M1575 477.5l-13 7.5v-15z" stroke="#3a414a" stroke-width="5" fill="#3a414a"/><path d="M1102.57 477.5H1100" stroke="#3a414a" stroke-width="5" fill="none"/><use xlink:href="#o" transform="matrix(1,0,0,1,1213.4638422600829,481.5000000000001) translate(0.0049999999999954525 21.52777777777778)"/><path d="M2085 752.6h434.51" stroke="#3a414a" stroke-width="5" fill="none"/><path d="M2085.06 755.1h-2.56v-4.96h2.56z" stroke="#3a414a" stroke-width=".05" fill="#3a414a"/><path d="M2535 752.6l-13 7.5v-15z" stroke="#3a414a" stroke-width="5" fill="#3a414a"/><g><use xlink:href="#p" transform="matrix(1,0,0,1,2185.7454427083335,719.0380323810431) translate(0.0049999999999954525 23.680555555555554)"/></g><path d="M2103 825.82h7.66m10.22 0h15.34m10.22 0h15.34m10.22 0h15.34m10.22 0h15.34m10.22 0h15.34m10.22 0h15.34m10.22 0h15.33m10.23 0h15.33m10.23 0h15.33m10.22 0h15.33m10.23 0h15.33m10.23 0h15.34m10.22 0h15.33m10.22 0h15.34m10.2 0h15.35m10.22 0h15.34m10.23 0h7.67" stroke="#3a414a" stroke-width="5" fill="none"/><path d="M2087.5 825.82l13-7.5v15z" stroke="#3a414a" stroke-width="5" fill="#3a414a"/><path d="M2537.44 825.82h2.56" stroke="#3a414a" stroke-width="5" fill="none"/><g><use xlink:href="#q" transform="matrix(1,0,0,1,2267.548828125,794.9316142756405) translate(0.005000000000002558 21.52777777777778)"/></g><path d="M2085 899.02h31.5a6 6 0 0 1 6 6v69.92a6 6 0 0 1-6 6H2103" stroke="#3a414a" stroke-width="5" fill="none"/><path d="M2085.06 901.5h-2.56v-4.95h2.56z" stroke="#3a414a" stroke-width=".05" fill="#3a414a"/><path d="M2087.5 980.94l13-7.5v15z" stroke="#3a414a" stroke-width="5" fill="#3a414a"/><g><use xlink:href="#r" transform="matrix(1,0,0,1,2130.5,925.1958207372546) translate(6.5049999999999955 23.680555555555554)"/></g><defs><path d="M657 26c-323 0-524-166-541-416h195c15 169 171 246 346 246 202 0 356-106 356-265 5-203-294-238-475-293-239-73-380-191-380-389 0-252 224-419 512-419 294 0 499 171 508 396H992c-17-145-151-228-328-228-193 0-321 102-321 242 0 156 175 211 284 241l149 41c160 44 422 134 422 412 0 244-197 432-541 432" id="s"/><path d="M537 14c-226 0-379-139-379-422v-710h180v695c0 172 97 275 253 275 160 0 281-109 281-300v-670h181V0H879v-209C806-46 684 14 537 14" id="t"/><path d="M158 418v-1536h174v179h20c37-59 106-193 324-193 279 0 474 222 474 576 0 356-194 580-473 580-213 0-288-135-325-197h-14v591H158zm492-555c209 0 317-186 317-421 0-232-105-413-317-413-206 0-314 166-314 413 0 249 111 421 314 421" id="u"/><path d="M628 24c-324 0-524-230-524-574 0-343 198-582 503-582 237 0 487 146 487 559v75H286c9 234 145 362 343 362 132 0 231-58 273-172l174 48C1024-91 857 24 628 24zM287-650h624c-17-190-120-322-304-322-192 0-309 151-320 322" id="v"/><path d="M158 0v-1118h174v172h12c41-113 157-188 290-188 26 0 70 2 91 3v181c-11-2-60-10-108-10-161 0-279 109-279 260V0H158" id="w"/><g id="a"><use transform="matrix(0.010850694444444444,0,0,0.010850694444444444,0,0)" xlink:href="#s"/><use transform="matrix(0.010850694444444444,0,0,0.010850694444444444,14.2578125,0)" xlink:href="#t"/><use transform="matrix(0.010850694444444444,0,0,0.010850694444444444,27.39800347222222,0)" xlink:href="#u"/><use transform="matrix(0.010850694444444444,0,0,0.010850694444444444,41.00477430555556,0)" xlink:href="#v"/><use transform="matrix(0.010850694444444444,0,0,0.010850694444444444,53.96050347222222,0)" xlink:href="#w"/></g><path d="M52 0l541-1490h220L1361 0h-200l-149-416H398L254 0H52zm404-582h497c-103-290-145-390-251-756-108 377-145 460-246 756" id="x"/><path d="M577 24c-279 0-473-224-473-580 0-354 195-576 474-576 218 0 287 134 324 193h14v-551h180V0H922v-173h-20C865-111 790 24 577 24zm27-161c203 0 314-172 314-421 0-247-108-413-314-413-212 0-317 181-317 413 0 235 108 421 317 421" id="y"/><path d="M158 0v-1118h175l1 205c55-151 181-225 313-225 147 0 245 90 285 228 53-141 190-228 352-228 194 0 352 125 352 384V0h-181v-749c0-161-105-225-225-225-151 0-243 103-243 244V0H807v-767c0-124-93-207-219-207-131 0-250 92-250 270V0H158" id="z"/><path d="M158 0v-1118h180V0H158zm91-1301c-68 0-125-53-125-119s57-119 125-119c69 0 126 53 126 119s-57 119-126 119" id="A"/><path d="M338-670V0H158v-1118h173l1 207c72-158 192-221 342-221 226 0 378 139 378 422V0H872v-695c0-172-96-275-252-275-161 0-282 109-282 300" id="B"/><g id="b"><use transform="matrix(0.010850694444444444,0,0,0.010850694444444444,0,0)" xlink:href="#x"/><use transform="matrix(0.010850694444444444,0,0,0.010850694444444444,15.33203125,0)" xlink:href="#y"/><use transform="matrix(0.010850694444444444,0,0,0.010850694444444444,28.938802083333332,0)" xlink:href="#z"/><use transform="matrix(0.010850694444444444,0,0,0.010850694444444444,48.404947916666664,0)" xlink:href="#A"/><use transform="matrix(0.010850694444444444,0,0,0.010850694444444444,53.78689236111111,0)" xlink:href="#B"/></g><g id="c"><use transform="matrix(0.010850694444444444,0,0,0.010850694444444444,0,0)" xlink:href="#x"/><use transform="matrix(0.010850694444444444,0,0,0.010850694444444444,15.33203125,0)" xlink:href="#y"/><use transform="matrix(0.010850694444444444,0,0,0.010850694444444444,28.938802083333332,0)" xlink:href="#z"/><use transform="matrix(0.010850694444444444,0,0,0.010850694444444444,48.404947916666664,0)" xlink:href="#A"/><use transform="matrix(0.010850694444444444,0,0,0.010850694444444444,53.78689236111111,0)" xlink:href="#B"/></g><path d="M180 0v-1490h510c348 0 508 209 508 474 0 266-160 477-507 477H370V0H180zm190-706h312c236 0 327-133 327-310 0-176-91-307-329-307H370v617" id="C"/><path d="M471 26C259 26 90-98 90-318c0-256 228-303 435-329 202-27 287-16 287-108 0-139-79-219-234-219-161 0-248 86-283 164l-173-57c86-203 278-265 451-265 150 0 419 46 419 395V0H815v-152h-12C765-73 660 26 471 26zm31-159c199 0 310-134 310-271v-155c-30 35-226 55-295 64-131 17-246 59-246 186 0 116 97 176 231 176" id="D"/><path d="M338-1490V0H158v-1490h180" id="E"/><g id="d"><use transform="matrix(0.010850694444444444,0,0,0.010850694444444444,0,0)" xlink:href="#C"/><use transform="matrix(0.010850694444444444,0,0,0.010850694444444444,14.192708333333332,0)" xlink:href="#D"/><use transform="matrix(0.010850694444444444,0,0,0.010850694444444444,26.671006944444443,0)" xlink:href="#B"/><use transform="matrix(0.010850694444444444,0,0,0.010850694444444444,39.80034722222222,0)" xlink:href="#v"/><use transform="matrix(0.010850694444444444,0,0,0.010850694444444444,52.756076388888886,0)" xlink:href="#E"/></g><path d="M140 405l46-156c120 36 205 19 263-150l32-93L54-1118h197c107 313 237 620 324 950 87-331 219-637 326-950h196L606 167c-68 178-176 259-334 259-64 0-113-12-132-21" id="F"/><path d="M598-1118v154H368v674c0 100 37 144 132 144 23 0 62-6 92-12L629-6c-37 13-88 20-134 20-193 0-307-107-307-290v-688H20v-154h168v-266h180v266h230" id="G"/><path d="M613 24c-304 0-509-231-509-576 0-350 205-580 509-580 216 0 392 114 453 309l-173 49c-33-115-133-197-280-197-223 0-326 196-326 419 0 220 103 415 326 415 150 0 252-85 285-206l172 49C1010-95 832 24 613 24" id="H"/><path d="M538 24C308 24 148-78 108-271l171-41c32 123 123 178 257 178 156 0 256-77 256-169 0-77-54-128-164-154l-186-44c-203-48-300-148-300-305 0-192 176-326 414-326 230 0 351 112 402 269l-163 42c-31-80-94-158-238-158-133 0-233 69-233 162 0 83 57 129 188 160l169 40c203 48 298 149 298 302 0 196-179 339-441 339" id="I"/><g id="e"><use transform="matrix(0.010850694444444444,0,0,0.010850694444444444,0,0)" xlink:href="#x"/><use transform="matrix(0.010850694444444444,0,0,0.010850694444444444,15.33203125,0)" xlink:href="#B"/><use transform="matrix(0.010850694444444444,0,0,0.010850694444444444,28.461371527777775,0)" xlink:href="#D"/><use transform="matrix(0.010850694444444444,0,0,0.010850694444444444,40.939670138888886,0)" xlink:href="#E"/><use transform="matrix(0.010850694444444444,0,0,0.010850694444444444,46.43012152777778,0)" xlink:href="#F"/><use transform="matrix(0.010850694444444444,0,0,0.010850694444444444,59.244791666666664,0)" xlink:href="#G"/><use transform="matrix(0.010850694444444444,0,0,0.010850694444444444,66.51475694444444,0)" xlink:href="#A"/><use transform="matrix(0.010850694444444444,0,0,0.010850694444444444,71.89670138888889,0)" xlink:href="#H"/><use transform="matrix(0.010850694444444444,0,0,0.010850694444444444,84.59201388888889,0)" xlink:href="#I"/></g><path d="M783 20c-382 0-661-292-661-764 0-473 279-766 661-766 302 0 548 182 601 489h-190c-42-204-217-313-411-313-268 0-476 208-476 590 0 381 209 588 476 588 195 0 369-110 411-313h190c-52 303-296 489-601 489" id="J"/><path d="M613 24c-304 0-509-231-509-576 0-350 205-580 509-580 305 0 511 230 511 580 0 345-206 576-511 576zm0-161c226 0 329-195 329-415 0-222-103-419-329-419-223 0-326 196-326 419 0 220 103 415 326 415" id="K"/><g id="f"><use transform="matrix(0.010850694444444444,0,0,0.010850694444444444,0,0)" xlink:href="#J"/><use transform="matrix(0.010850694444444444,0,0,0.010850694444444444,16.23263888888889,0)" xlink:href="#K"/><use transform="matrix(0.010850694444444444,0,0,0.010850694444444444,29.557291666666664,0)" xlink:href="#B"/><use transform="matrix(0.010850694444444444,0,0,0.010850694444444444,42.68663194444444,0)" xlink:href="#G"/><use transform="matrix(0.010850694444444444,0,0,0.010850694444444444,49.95659722222222,0)" xlink:href="#w"/><use transform="matrix(0.010850694444444444,0,0,0.010850694444444444,57.95355902777778,0)" xlink:href="#K"/><use transform="matrix(0.010850694444444444,0,0,0.010850694444444444,71.27821180555554,0)" xlink:href="#E"/><use transform="matrix(0.010850694444444444,0,0,0.010850694444444444,76.66015624999999,0)" xlink:href="#E"/><use transform="matrix(0.010850694444444444,0,0,0.010850694444444444,82.04210069444443,0)" xlink:href="#v"/><use transform="matrix(0.010850694444444444,0,0,0.010850694444444444,94.99782986111111,0)" xlink:href="#w"/></g><path d="M180 0v-1490h270l367 940c28 72 75 218 110 339 35-117 81-264 110-339l362-940h271V0h-187c2-448-5-837 7-1287-157 497-311 829-483 1287H842C666-458 514-784 354-1284c12 438 5 843 7 1284H180" id="L"/><path d="M784 20c-382 0-662-292-662-764 0-473 280-766 662-766s660 293 660 766c0 282-99 499-260 629l192 255h-198L1049-33C969 2 880 20 784 20zm-62-486h198l156 205c112-98 183-261 183-483 0-383-209-590-475-590-268 0-477 208-477 590 0 380 209 588 477 588 54 0 106-9 154-25" id="M"/><path d="M180 0v-1490h190v1322h690V0H180" id="N"/><g id="g"><use transform="matrix(0.010850694444444444,0,0,0.010850694444444444,0,0)" xlink:href="#L"/><use transform="matrix(0.010850694444444444,0,0,0.010850694444444444,20.182291666666664,0)" xlink:href="#F"/><use transform="matrix(0.010850694444444444,0,0,0.010850694444444444,32.67144097222222,0)" xlink:href="#s"/><use transform="matrix(0.010850694444444444,0,0,0.010850694444444444,46.92925347222222,0)" xlink:href="#M"/><use transform="matrix(0.010850694444444444,0,0,0.010850694444444444,63.92144097222222,0)" xlink:href="#N"/></g><path d="M645 0H180v-1490h484c435 0 692 280 692 742 0 466-257 748-711 748zM370-168h263c363 0 539-218 539-580 0-358-176-574-521-574H370v1154" id="O"/><path d="M677 24c-213 0-288-135-325-197h-20V0H158v-1490h180v551h14c37-59 106-193 324-193 279 0 474 222 474 576 0 356-194 580-473 580zm-27-161c209 0 317-186 317-421 0-232-105-413-317-413-206 0-314 166-314 413 0 249 111 421 314 421" id="P"/><g id="h"><use transform="matrix(0.010850694444444444,0,0,0.010850694444444444,0,0)" xlink:href="#O"/><use transform="matrix(0.010850694444444444,0,0,0.010850694444444444,16.03732638888889,0)" xlink:href="#D"/><use transform="matrix(0.010850694444444444,0,0,0.010850694444444444,28.515625,0)" xlink:href="#G"/><use transform="matrix(0.010850694444444444,0,0,0.010850694444444444,35.89409722222222,0)" xlink:href="#D"/><use transform="matrix(0.010850694444444444,0,0,0.010850694444444444,48.37239583333333,0)" xlink:href="#P"/><use transform="matrix(0.010850694444444444,0,0,0.010850694444444444,62.19618055555554,0)" xlink:href="#D"/><use transform="matrix(0.010850694444444444,0,0,0.010850694444444444,74.67447916666666,0)" xlink:href="#I"/><use transform="matrix(0.010850694444444444,0,0,0.010850694444444444,86.4040798611111,0)" xlink:href="#v"/></g><path d="M678-1118v154H420V0H240v-964H20v-154h220v-149c0-194 155-293 318-293 85 0 141 18 168 30l-50 154c-19-6-47-17-97-17-111 0-159 58-159 166v109h258" id="Q"/><path d="M295 13c-75 0-135-60-135-135s60-135 135-135 135 60 135 135S370 13 295 13zm0-809c-75 0-135-60-135-135s60-135 135-135 135 60 135 135-60 135-135 135" id="R"/><g id="i"><use transform="matrix(0.01953125,0,0,0.01953125,0,0)" xlink:href="#w"/><use transform="matrix(0.01953125,0,0,0.01953125,14.39453125,0)" xlink:href="#v"/><use transform="matrix(0.01953125,0,0,0.01953125,37.71484375,0)" xlink:href="#Q"/><use transform="matrix(0.01953125,0,0,0.01953125,52.51953125,0)" xlink:href="#R"/></g><path d="M611 442c-248 0-391-105-460-228l146-94c47 65 117 165 314 165 178 0 307-82 307-266v-224h-17C863-141 792-18 576-18c-268 0-472-195-472-546 0-346 197-568 476-568 216 0 288 133 326 193h17v-179h175V29c0 289-215 413-487 413zm-5-620c203 0 314-146 314-390 0-237-108-403-314-403-213 0-319 180-319 403 0 230 109 390 319 390" id="S"/><g id="j"><use transform="matrix(0.01953125,0,0,0.01953125,0,0)" xlink:href="#N"/><use transform="matrix(0.01953125,0,0,0.01953125,22.6171875,0)" xlink:href="#K"/><use transform="matrix(0.01953125,0,0,0.01953125,46.6015625,0)" xlink:href="#S"/><use transform="matrix(0.01953125,0,0,0.01953125,71.1328125,0)" xlink:href="#A"/><use transform="matrix(0.01953125,0,0,0.01953125,80.8203125,0)" xlink:href="#B"/></g><path d="M1096 418H916v-591h-14C865-111 790 24 577 24c-279 0-473-224-473-580 0-354 195-576 474-576 218 0 287 134 324 193h20v-179h174V418zM604-137c203 0 314-172 314-421 0-247-108-413-314-413-212 0-317 181-317 413 0 235 108 421 317 421" id="T"/><path d="M218-607c0-325 108-727 258-974h175c-155 315-250 682-250 974 0 265 78 531 250 886H476C306-10 218-315 218-607" id="U"/><path d="M96 279C273-86 346-350 346-607c0-292-95-659-250-974h175c150 246 258 650 258 974 0 297-91 602-258 886H96" id="V"/><g id="k"><use transform="matrix(0.01953125,0,0,0.01953125,0,0)" xlink:href="#I"/><use transform="matrix(0.01953125,0,0,0.01953125,21.11328125,0)" xlink:href="#v"/><use transform="matrix(0.01953125,0,0,0.01953125,44.43359375,0)" xlink:href="#T"/><use transform="matrix(0.01953125,0,0,0.01953125,68.92578125,0)" xlink:href="#t"/><use transform="matrix(0.01953125,0,0,0.01953125,92.578125,0)" xlink:href="#v"/><use transform="matrix(0.01953125,0,0,0.01953125,115.8984375,0)" xlink:href="#B"/><use transform="matrix(0.01953125,0,0,0.01953125,139.53125,0)" xlink:href="#H"/><use transform="matrix(0.01953125,0,0,0.01953125,162.3828125,0)" xlink:href="#v"/><use transform="matrix(0.01953125,0,0,0.01953125,185.703125,0)" xlink:href="#U"/><use transform="matrix(0.01953125,0,0,0.01953125,200.29296875,0)" xlink:href="#A"/><use transform="matrix(0.01953125,0,0,0.01953125,209.98046875,0)" xlink:href="#B"/><use transform="matrix(0.01953125,0,0,0.01953125,233.61328125,0)" xlink:href="#H"/><use transform="matrix(0.01953125,0,0,0.01953125,256.46484375,0)" xlink:href="#E"/><use transform="matrix(0.01953125,0,0,0.01953125,266.15234375,0)" xlink:href="#t"/><use transform="matrix(0.01953125,0,0,0.01953125,289.8046875,0)" xlink:href="#y"/><use transform="matrix(0.01953125,0,0,0.01953125,314.296875,0)" xlink:href="#v"/><use transform="matrix(0.01953125,0,0,0.01953125,337.6171875,0)" xlink:href="#y"/><use transform="matrix(0.01953125,0,0,0.01953125,362.109375,0)" xlink:href="#V"/></g><path fill="#333" d="M678-1118v154H420V0H240v-964H20v-154h220v-149c0-194 155-293 318-293 85 0 141 18 168 30l-50 154c-19-6-47-17-97-17-111 0-159 58-159 166v109h258" id="W"/><path fill="#333" d="M628 24c-324 0-524-230-524-574 0-343 198-582 503-582 237 0 487 146 487 559v75H286c9 234 145 362 343 362 132 0 231-58 273-172l174 48C1024-91 857 24 628 24zM287-650h624c-17-190-120-322-304-322-192 0-309 151-320 322" id="X"/><path fill="#333" d="M598-1118v154H368v674c0 100 37 144 132 144 23 0 62-6 92-12L629-6c-37 13-88 20-134 20-193 0-307-107-307-290v-688H20v-154h168v-266h180v266h230" id="Y"/><path fill="#333" d="M613 24c-304 0-509-231-509-576 0-350 205-580 509-580 216 0 392 114 453 309l-173 49c-33-115-133-197-280-197-223 0-326 196-326 419 0 220 103 415 326 415 150 0 252-85 285-206l172 49C1010-95 832 24 613 24" id="Z"/><path fill="#333" d="M338-670V0H158v-1490h180v566c73-149 190-208 336-208 226 0 379 139 379 422V0H872v-695c0-172-96-275-252-275-161 0-282 109-282 300" id="aa"/><path fill="#333" d="M180 0v-1490h510c348 0 508 209 508 474 0 266-160 477-507 477H370V0H180zm190-706h312c236 0 327-133 327-310 0-176-91-307-329-307H370v617" id="ab"/><path fill="#333" d="M158 0v-1118h174v172h12c41-113 157-188 290-188 26 0 70 2 91 3v181c-11-2-60-10-108-10-161 0-279 109-279 260V0H158" id="ac"/><path fill="#333" d="M613 24c-304 0-509-231-509-576 0-350 205-580 509-580 305 0 511 230 511 580 0 345-206 576-511 576zm0-161c226 0 329-195 329-415 0-222-103-419-329-419-223 0-326 196-326 419 0 220 103 415 326 415" id="ad"/><path fill="#333" d="M158 0v-1118h175l1 205c55-151 181-225 313-225 147 0 245 90 285 228 53-141 190-228 352-228 194 0 352 125 352 384V0h-181v-749c0-161-105-225-225-225-151 0-243 103-243 244V0H807v-767c0-124-93-207-219-207-131 0-250 92-250 270V0H158" id="ae"/><path fill="#333" d="M471 26C259 26 90-98 90-318c0-256 228-303 435-329 202-27 287-16 287-108 0-139-79-219-234-219-161 0-248 86-283 164l-173-57c86-203 278-265 451-265 150 0 419 46 419 395V0H815v-152h-12C765-73 660 26 471 26zm31-159c199 0 310-134 310-271v-155c-30 35-226 55-295 64-131 17-246 59-246 186 0 116 97 176 231 176" id="af"/><path fill="#333" d="M338-670V0H158v-1118h173l1 207c72-158 192-221 342-221 226 0 378 139 378 422V0H872v-695c0-172-96-275-252-275-161 0-282 109-282 300" id="ag"/><path fill="#333" d="M645 0H180v-1490h484c435 0 692 280 692 742 0 466-257 748-711 748zM370-168h263c363 0 539-218 539-580 0-358-176-574-521-574H370v1154" id="ah"/><path fill="#333" d="M218-607c0-325 108-727 258-974h175c-155 315-250 682-250 974 0 265 78 531 250 886H476C306-10 218-315 218-607" id="ai"/><path fill="#333" d="M96 279C273-86 346-350 346-607c0-292-95-659-250-974h175c150 246 258 650 258 974 0 297-91 602-258 886H96" id="aj"/><g id="l"><use transform="matrix(0.011935763888888888,0,0,0.011935763888888888,0,0)" xlink:href="#W"/><use transform="matrix(0.011935763888888888,0,0,0.011935763888888888,8.331163194444443,0)" xlink:href="#X"/><use transform="matrix(0.011935763888888888,0,0,0.011935763888888888,22.582465277777775,0)" xlink:href="#Y"/><use transform="matrix(0.011935763888888888,0,0,0.011935763888888888,30.340711805555546,0)" xlink:href="#Z"/><use transform="matrix(0.011935763888888888,0,0,0.011935763888888888,44.30555555555555,0)" xlink:href="#aa"/><use transform="matrix(0.011935763888888888,0,0,0.011935763888888888,58.75976562499999,0)" xlink:href="#ab"/><use transform="matrix(0.011935763888888888,0,0,0.011935763888888888,74.24045138888889,0)" xlink:href="#X"/><use transform="matrix(0.011935763888888888,0,0,0.011935763888888888,88.49175347222221,0)" xlink:href="#ac"/><use transform="matrix(0.011935763888888888,0,0,0.011935763888888888,98.076171875,0)" xlink:href="#W"/><use transform="matrix(0.011935763888888888,0,0,0.011935763888888888,106.40733506944444,0)" xlink:href="#ad"/><use transform="matrix(0.011935763888888888,0,0,0.011935763888888888,121.06445312499999,0)" xlink:href="#ac"/><use transform="matrix(0.011935763888888888,0,0,0.011935763888888888,130.64887152777777,0)" xlink:href="#ae"/><use transform="matrix(0.011935763888888888,0,0,0.011935763888888888,152.06163194444443,0)" xlink:href="#af"/><use transform="matrix(0.011935763888888888,0,0,0.011935763888888888,165.78776041666666,0)" xlink:href="#ag"/><use transform="matrix(0.011935763888888888,0,0,0.011935763888888888,180.2300347222222,0)" xlink:href="#Z"/><use transform="matrix(0.011935763888888888,0,0,0.011935763888888888,194.1948784722222,0)" xlink:href="#X"/><use transform="matrix(0.011935763888888888,0,0,0.011935763888888888,208.44618055555554,0)" xlink:href="#ah"/><use transform="matrix(0.011935763888888888,0,0,0.011935763888888888,226.08723958333331,0)" xlink:href="#af"/><use transform="matrix(0.011935763888888888,0,0,0.011935763888888888,239.81336805555554,0)" xlink:href="#Y"/><use transform="matrix(0.011935763888888888,0,0,0.011935763888888888,247.92968749999997,0)" xlink:href="#af"/><use transform="matrix(0.011935763888888888,0,0,0.011935763888888888,261.6558159722222,0)" xlink:href="#ai"/><use transform="matrix(0.011935763888888888,0,0,0.011935763888888888,270.5718315972222,0)" xlink:href="#aj"/></g><path fill="#333" d="M577 24c-279 0-473-224-473-580 0-354 195-576 474-576 218 0 287 134 324 193h14v-551h180V0H922v-173h-20C865-111 790 24 577 24zm27-161c203 0 314-172 314-421 0-247-108-413-314-413-212 0-317 181-317 413 0 235 108 421 317 421" id="ak"/><path fill="#333" d="M158 0v-1118h180V0H158zm91-1301c-68 0-125-53-125-119s57-119 125-119c69 0 126 53 126 119s-57 119-126 119" id="al"/><path fill="#333" d="M538 24C308 24 148-78 108-271l171-41c32 123 123 178 257 178 156 0 256-77 256-169 0-77-54-128-164-154l-186-44c-203-48-300-148-300-305 0-192 176-326 414-326 230 0 351 112 402 269l-163 42c-31-80-94-158-238-158-133 0-233 69-233 162 0 83 57 129 188 160l169 40c203 48 298 149 298 302 0 196-179 339-441 339" id="am"/><path fill="#333" d="M158 418v-1536h174v179h20c37-59 106-193 324-193 279 0 474 222 474 576 0 356-194 580-473 580-213 0-288-135-325-197h-14v591H158zm492-555c209 0 317-186 317-421 0-232-105-413-317-413-206 0-314 166-314 413 0 249 111 421 314 421" id="an"/><path fill="#333" d="M338-1490V0H158v-1490h180" id="ao"/><path fill="#333" d="M140 405l46-156c120 36 205 19 263-150l32-93L54-1118h197c107 313 237 620 324 950 87-331 219-637 326-950h196L606 167c-68 178-176 259-334 259-64 0-113-12-132-21" id="ap"/><path fill="#333" d="M180 0v-1490h510c348 0 508 194 508 460 0 198-88 351-276 417L1256 0h-220L726-579c-117 2-238 0-356 1V0H180zm190-747h312c235 0 327-108 327-283 0-177-92-293-329-293H370v576" id="aq"/><g id="m"><use transform="matrix(0.011935763888888888,0,0,0.011935763888888888,0,0)" xlink:href="#ak"/><use transform="matrix(0.011935763888888888,0,0,0.011935763888888888,14.967447916666666,0)" xlink:href="#al"/><use transform="matrix(0.011935763888888888,0,0,0.011935763888888888,20.887586805555554,0)" xlink:href="#am"/><use transform="matrix(0.011935763888888888,0,0,0.011935763888888888,33.79014756944444,0)" xlink:href="#an"/><use transform="matrix(0.011935763888888888,0,0,0.011935763888888888,48.75759548611111,0)" xlink:href="#ao"/><use transform="matrix(0.011935763888888888,0,0,0.011935763888888888,54.677734375,0)" xlink:href="#af"/><use transform="matrix(0.011935763888888888,0,0,0.011935763888888888,68.04578993055554,0)" xlink:href="#ap"/><use transform="matrix(0.011935763888888888,0,0,0.011935763888888888,81.90321180555554,0)" xlink:href="#aq"/><use transform="matrix(0.011935763888888888,0,0,0.011935763888888888,97.27647569444443,0)" xlink:href="#X"/><use transform="matrix(0.011935763888888888,0,0,0.011935763888888888,111.52777777777774,0)" xlink:href="#an"/><use transform="matrix(0.011935763888888888,0,0,0.011935763888888888,126.49522569444444,0)" xlink:href="#ad"/><use transform="matrix(0.011935763888888888,0,0,0.011935763888888888,141.15234374999997,0)" xlink:href="#ac"/><use transform="matrix(0.011935763888888888,0,0,0.011935763888888888,150.73676215277777,0)" xlink:href="#Y"/><use transform="matrix(0.011935763888888888,0,0,0.011935763888888888,158.73372395833331,0)" xlink:href="#ai"/><use transform="matrix(0.011935763888888888,0,0,0.011935763888888888,167.64973958333331,0)" xlink:href="#aj"/></g><path fill="#333" d="M409 0L70-1118h191c89 329 165 560 243 925 75-353 154-601 240-925h192c85 325 161 564 235 922 77-354 157-598 244-922h191L1267 0h-179c-86-307-176-590-250-913C763-588 675-308 588 0H409" id="ar"/><path fill="#333" d="M677 24c-213 0-288-135-325-197h-20V0H158v-1490h180v551h14c37-59 106-193 324-193 279 0 474 222 474 576 0 356-194 580-473 580zm-27-161c209 0 317-186 317-421 0-232-105-413-317-413-206 0-314 166-314 413 0 249 111 421 314 421" id="as"/><path fill="#333" d="M783 20c-382 0-661-292-661-764 0-473 279-766 661-766 302 0 548 182 601 489h-190c-42-204-217-313-411-313-268 0-476 208-476 590 0 381 209 588 476 588 195 0 369-110 411-313h190c-52 303-296 489-601 489" id="at"/><g id="n"><use transform="matrix(0.010850694444444444,0,0,0.010850694444444444,0,0)" xlink:href="#am"/><use transform="matrix(0.010850694444444444,0,0,0.010850694444444444,11.729600694444445,0)" xlink:href="#aa"/><use transform="matrix(0.010850694444444444,0,0,0.010850694444444444,24.869791666666664,0)" xlink:href="#ad"/><use transform="matrix(0.010850694444444444,0,0,0.010850694444444444,37.79296875,0)" xlink:href="#ar"/><use transform="matrix(0.010850694444444444,0,0,0.010850694444444444,55.978732638888886,0)" xlink:href="#ah"/><use transform="matrix(0.010850694444444444,0,0,0.010850694444444444,72.01605902777777,0)" xlink:href="#af"/><use transform="matrix(0.010850694444444444,0,0,0.010850694444444444,84.49435763888889,0)" xlink:href="#am"/><use transform="matrix(0.010850694444444444,0,0,0.010850694444444444,96.22395833333333,0)" xlink:href="#aa"/><use transform="matrix(0.010850694444444444,0,0,0.010850694444444444,109.36414930555556,0)" xlink:href="#as"/><use transform="matrix(0.010850694444444444,0,0,0.010850694444444444,122.97092013888887,0)" xlink:href="#ad"/><use transform="matrix(0.010850694444444444,0,0,0.010850694444444444,136.51258680555554,0)" xlink:href="#af"/><use transform="matrix(0.010850694444444444,0,0,0.010850694444444444,148.99088541666666,0)" xlink:href="#ac"/><use transform="matrix(0.010850694444444444,0,0,0.010850694444444444,156.9878472222222,0)" xlink:href="#ak"/><use transform="matrix(0.010850694444444444,0,0,0.010850694444444444,170.59461805555554,0)" xlink:href="#at"/><use transform="matrix(0.010850694444444444,0,0,0.010850694444444444,186.82725694444443,0)" xlink:href="#aa"/><use transform="matrix(0.010850694444444444,0,0,0.010850694444444444,199.96744791666666,0)" xlink:href="#af"/><use transform="matrix(0.010850694444444444,0,0,0.010850694444444444,212.44574652777777,0)" xlink:href="#ac"/><use transform="matrix(0.010850694444444444,0,0,0.010850694444444444,221.15885416666666,0)" xlink:href="#Y"/><use transform="matrix(0.010850694444444444,0,0,0.010850694444444444,228.21180555555554,0)" xlink:href="#am"/><use transform="matrix(0.010850694444444444,0,0,0.010850694444444444,239.94140625,0)" xlink:href="#ai"/><use transform="matrix(0.010850694444444444,0,0,0.010850694444444444,248.046875,0)" xlink:href="#aj"/></g><path fill="#333" d="M1096 418H916v-591h-14C865-111 790 24 577 24c-279 0-473-224-473-580 0-354 195-576 474-576 218 0 287 134 324 193h20v-179h174V418zM604-137c203 0 314-172 314-421 0-247-108-413-314-413-212 0-317 181-317 413 0 235 108 421 317 421" id="au"/><path fill="#333" d="M537 14c-226 0-379-139-379-422v-710h180v695c0 172 97 275 253 275 160 0 281-109 281-300v-670h181V0H879v-209C806-46 684 14 537 14" id="av"/><path fill="#333" d="M481 0L54-1118h197c107 314 236 620 325 951 87-331 217-637 324-951h197L670 0H481" id="aw"/><g id="o"><use transform="matrix(0.010850694444444444,0,0,0.010850694444444444,0,0)" xlink:href="#ac"/><use transform="matrix(0.010850694444444444,0,0,0.010850694444444444,7.996961805555555,0)" xlink:href="#X"/><use transform="matrix(0.010850694444444444,0,0,0.010850694444444444,20.95269097222222,0)" xlink:href="#au"/><use transform="matrix(0.010850694444444444,0,0,0.010850694444444444,34.55946180555556,0)" xlink:href="#av"/><use transform="matrix(0.010850694444444444,0,0,0.010850694444444444,47.69965277777778,0)" xlink:href="#X"/><use transform="matrix(0.010850694444444444,0,0,0.010850694444444444,60.65538194444444,0)" xlink:href="#am"/><use transform="matrix(0.010850694444444444,0,0,0.010850694444444444,72.38498263888889,0)" xlink:href="#Y"/><use transform="matrix(0.010850694444444444,0,0,0.010850694444444444,79.65494791666666,0)" xlink:href="#aq"/><use transform="matrix(0.010850694444444444,0,0,0.010850694444444444,93.63064236111111,0)" xlink:href="#X"/><use transform="matrix(0.010850694444444444,0,0,0.010850694444444444,106.15234375,0)" xlink:href="#aw"/><use transform="matrix(0.010850694444444444,0,0,0.010850694444444444,118.2074652777778,0)" xlink:href="#X"/><use transform="matrix(0.010850694444444444,0,0,0.010850694444444444,131.16319444444446,0)" xlink:href="#ag"/><use transform="matrix(0.010850694444444444,0,0,0.010850694444444444,144.29253472222223,0)" xlink:href="#av"/><use transform="matrix(0.010850694444444444,0,0,0.010850694444444444,157.43272569444446,0)" xlink:href="#X"/><use transform="matrix(0.010850694444444444,0,0,0.010850694444444444,170.38845486111111,0)" xlink:href="#aq"/><use transform="matrix(0.010850694444444444,0,0,0.010850694444444444,184.36414930555554,0)" xlink:href="#X"/><use transform="matrix(0.010850694444444444,0,0,0.010850694444444444,197.31987847222223,0)" xlink:href="#an"/><use transform="matrix(0.010850694444444444,0,0,0.010850694444444444,210.92664930555554,0)" xlink:href="#ad"/><use transform="matrix(0.010850694444444444,0,0,0.010850694444444444,224.25130208333331,0)" xlink:href="#ac"/><use transform="matrix(0.010850694444444444,0,0,0.010850694444444444,232.9644097222222,0)" xlink:href="#Y"/><use transform="matrix(0.010850694444444444,0,0,0.010850694444444444,240.23437499999994,0)" xlink:href="#ai"/><use transform="matrix(0.010850694444444444,0,0,0.010850694444444444,248.33984375,0)" xlink:href="#aj"/></g><path fill="#333" d="M611 442c-248 0-391-105-460-228l146-94c47 65 117 165 314 165 178 0 307-82 307-266v-224h-17C863-141 792-18 576-18c-268 0-472-195-472-546 0-346 197-568 476-568 216 0 288 133 326 193h17v-179h175V29c0 289-215 413-487 413zm-5-620c203 0 314-146 314-390 0-237-108-403-314-403-213 0-319 180-319 403 0 230 109 390 319 390" id="ax"/><path fill="#333" d="M657 26c-323 0-524-166-541-416h195c15 169 171 246 346 246 202 0 356-106 356-265 5-203-294-238-475-293-239-73-380-191-380-389 0-252 224-419 512-419 294 0 499 171 508 396H992c-17-145-151-228-328-228-193 0-321 102-321 242 0 156 175 211 284 241l149 41c160 44 422 134 422 412 0 244-197 432-541 432" id="ay"/><g id="p"><use transform="matrix(0.011935763888888888,0,0,0.011935763888888888,0,0)" xlink:href="#af"/><use transform="matrix(0.011935763888888888,0,0,0.011935763888888888,13.726128472222221,0)" xlink:href="#ax"/><use transform="matrix(0.011935763888888888,0,0,0.011935763888888888,28.717447916666664,0)" xlink:href="#ax"/><use transform="matrix(0.011935763888888888,0,0,0.011935763888888888,43.70876736111111,0)" xlink:href="#ac"/><use transform="matrix(0.011935763888888888,0,0,0.011935763888888888,52.50542534722222,0)" xlink:href="#X"/><use transform="matrix(0.011935763888888888,0,0,0.011935763888888888,66.75672743055554,0)" xlink:href="#ax"/><use transform="matrix(0.011935763888888888,0,0,0.011935763888888888,81.74804687499999,0)" xlink:href="#af"/><use transform="matrix(0.011935763888888888,0,0,0.011935763888888888,95.4741753472222,0)" xlink:href="#Y"/><use transform="matrix(0.011935763888888888,0,0,0.011935763888888888,103.232421875,0)" xlink:href="#X"/><use transform="matrix(0.011935763888888888,0,0,0.011935763888888888,117.4837239583333,0)" xlink:href="#ay"/><use transform="matrix(0.011935763888888888,0,0,0.011935763888888888,133.16731770833331,0)" xlink:href="#af"/><use transform="matrix(0.011935763888888888,0,0,0.011935763888888888,146.89344618055554,0)" xlink:href="#ao"/><use transform="matrix(0.011935763888888888,0,0,0.011935763888888888,152.81358506944443,0)" xlink:href="#X"/><use transform="matrix(0.011935763888888888,0,0,0.011935763888888888,167.06488715277777,0)" xlink:href="#am"/><use transform="matrix(0.011935763888888888,0,0,0.011935763888888888,179.96744791666666,0)" xlink:href="#ah"/><use transform="matrix(0.011935763888888888,0,0,0.011935763888888888,197.60850694444443,0)" xlink:href="#af"/><use transform="matrix(0.011935763888888888,0,0,0.011935763888888888,211.33463541666666,0)" xlink:href="#Y"/><use transform="matrix(0.011935763888888888,0,0,0.011935763888888888,219.4509548611111,0)" xlink:href="#af"/><use transform="matrix(0.011935763888888888,0,0,0.011935763888888888,233.17708333333331,0)" xlink:href="#ai"/><use transform="matrix(0.011935763888888888,0,0,0.011935763888888888,242.09309895833331,0)" xlink:href="#aj"/></g><g id="q"><use transform="matrix(0.010850694444444444,0,0,0.010850694444444444,0,0)" xlink:href="#ac"/><use transform="matrix(0.010850694444444444,0,0,0.010850694444444444,8.365885416666666,0)" xlink:href="#af"/><use transform="matrix(0.010850694444444444,0,0,0.010850694444444444,20.84418402777778,0)" xlink:href="#ar"/><use transform="matrix(0.010850694444444444,0,0,0.010850694444444444,39.02994791666667,0)" xlink:href="#ah"/><use transform="matrix(0.010850694444444444,0,0,0.010850694444444444,55.06727430555556,0)" xlink:href="#af"/><use transform="matrix(0.010850694444444444,0,0,0.010850694444444444,67.54557291666667,0)" xlink:href="#Y"/><use transform="matrix(0.010850694444444444,0,0,0.010850694444444444,74.92404513888889,0)" xlink:href="#af"/></g><path fill="#333" d="M180 0v-1490h901v168H370v510h643v168H370V0H180" id="az"/><path fill="#333" d="M98-1322v-168h1126v168H757V0H567v-1322H98" id="aA"/><g id="r"><use transform="matrix(0.011935763888888888,0,0,0.011935763888888888,0,0)" xlink:href="#az"/><use transform="matrix(0.011935763888888888,0,0,0.011935763888888888,13.463541666666666,0)" xlink:href="#ad"/><use transform="matrix(0.011935763888888888,0,0,0.011935763888888888,28.12065972222222,0)" xlink:href="#ac"/><use transform="matrix(0.011935763888888888,0,0,0.011935763888888888,37.705078125,0)" xlink:href="#ae"/><use transform="matrix(0.011935763888888888,0,0,0.011935763888888888,59.117838541666664,0)" xlink:href="#af"/><use transform="matrix(0.011935763888888888,0,0,0.011935763888888888,72.84396701388889,0)" xlink:href="#Y"/><use transform="matrix(0.011935763888888888,0,0,0.011935763888888888,80.84092881944444,0)" xlink:href="#ah"/><use transform="matrix(0.011935763888888888,0,0,0.011935763888888888,98.48198784722221,0)" xlink:href="#af"/><use transform="matrix(0.011935763888888888,0,0,0.011935763888888888,112.20811631944444,0)" xlink:href="#Y"/><use transform="matrix(0.011935763888888888,0,0,0.011935763888888888,120.32443576388889,0)" xlink:href="#af"/><use transform="matrix(0.011935763888888888,0,0,0.011935763888888888,132.37955729166666,0)" xlink:href="#aA"/><use transform="matrix(0.011935763888888888,0,0,0.011935763888888888,146.24891493055554,0)" xlink:href="#ad"/><use transform="matrix(0.011935763888888888,0,0,0.011935763888888888,160.9060329861111,0)" xlink:href="#at"/><use transform="matrix(0.011935763888888888,0,0,0.011935763888888888,178.76193576388886,0)" xlink:href="#aa"/><use transform="matrix(0.011935763888888888,0,0,0.011935763888888888,193.21614583333331,0)" xlink:href="#af"/><use transform="matrix(0.011935763888888888,0,0,0.011935763888888888,206.94227430555554,0)" xlink:href="#ac"/><use transform="matrix(0.011935763888888888,0,0,0.011935763888888888,216.52669270833337,0)" xlink:href="#Y"/><use transform="matrix(0.011935763888888888,0,0,0.011935763888888888,224.2849392361111,0)" xlink:href="#am"/><use transform="matrix(0.011935763888888888,0,0,0.011935763888888888,237.18749999999997,0)" xlink:href="#ai"/><use transform="matrix(0.011935763888888888,0,0,0.011935763888888888,246.10351562499997,0)" xlink:href="#aj"/></g></defs></g></svg>