<svg xmlns="http://www.w3.org/2000/svg" xmlns:xlink="http://www.w3.org/1999/xlink" xmlns:lucid="lucid" width="1141.85" height="863"><g transform="translate(-9.161675347222229 1221)" lucid:page-tab-id="0_0"><path d="M118-1123.33a4.25 4.25 0 0 0-4.25 4.24v7.96m0 15.88v15.9m0 15.88v15.88m0 15.9v15.87m0 15.9v15.88m0 15.88v15.9m0 15.87v15.9m0 15.88v15.88m0 15.9v15.87m0 15.9v15.87m0 15.9v15.88m0 15.88v15.9m0 15.87v15.9m0 15.88v15.9m0 15.88v15.88m0 15.9v15.88m0 15.88v15.9m0 15.87v15.88m0 15.88v15.9m0 15.88v15.88m0 15.9v15.87m0 15.88v15.9m0 15.87v15.9m0 15.87v7.95M117.95-1123.33H123M113.75-388.4v2.07" stroke="#3a414a" stroke-width="4" fill="none"/><path d="M132.53-900.46h38.4a.1.1 0 0 1 .1.1.1.1 0 0 0 .1.08h817.8a.1.1 0 0 0 .1-.1.1.1 0 0 1 .1-.08h19.28" stroke="#3a414a" stroke-width="3" fill="none"/><path d="M132.57-899h-1.54v-2.93h1.54z" stroke="#3a414a" stroke-width=".05" fill="#3a414a"/><path d="M1024.17-900.46l-14.26 4.63v-9.26z" stroke="#3a414a" stroke-width="3" fill="#3a414a"/><path d="M153.75-960.33a6 6 0 0 1 6-6h67.65a6 6 0 0 1 6 6v30.27a6 6 0 0 1-6 6h-67.65a6 6 0 0 1-6-6z" fill="none"/><use xlink:href="#a" transform="matrix(1,0,0,1,158.75464664117902,-961.3333333333333) translate(0 26.200520833333336)"/><path d="M1047.26-826.33h-6m-12 0h-11.98m-12 0h-11.97m-11.98 0h-12m-11.98 0h-12m-11.98 0h-12m-11.97 0h-12m-12 0h-11.98m-12 0h-11.98m-12 0H825.5m-12 0H801.5m-12 0h-12m-11.98 0h-11.98m-12 0h-11.98m-12 0H705.6m-12 0H681.6m-11.98 0h-12m-11.98 0h-12m-11.98 0h-12m-11.98 0h-6a1.8 1.8 0 0 1-1.8-1.8 1.8 1.8 0 0 0-1.8-1.8h-6.05m-12.12 0H557.8m-12.12 0h-12.12m-12.13 0h-12.1m-12.13 0h-12.13m-12.12 0H460.8m-12.13 0h-12.12m-12.12 0H412.3m-12.12 0h-12.12m-12.13 0H363.8m-12.1 0h-12.14m-12.12 0H315.3m-12.1 0h-12.13m-12.13 0h-12.12m-12.12 0h-12.13m-12.12 0h-12.12m-12.13 0h-12.12m-12.12 0h-12.13m-12.12 0h-6.05M1047.22-826.33h1.54" stroke="#3a414a" stroke-width="3" fill="none"/><path d="M135.88-829.93l14.27-4.64v9.27z" stroke="#3a414a" stroke-width="3" fill="#3a414a"/><path d="M153.75-880.33a6 6 0 0 1 6-6h191.78a6 6 0 0 1 6 6v30.27a6 6 0 0 1-6 6H159.76a6 6 0 0 1-6-6z" fill="none"/><use xlink:href="#b" transform="matrix(1,0,0,1,158.75464664117902,-881.3333333333333) translate(0 26.200520833333336)"/><use xlink:href="#c" transform="matrix(1,0,0,1,158.75464664117902,-881.3333333333333) translate(114.54427083333333 26.200520833333336)"/><use xlink:href="#d" transform="matrix(1,0,0,1,158.75464664117902,-881.3333333333333) translate(131.65364583333331 26.200520833333336)"/><path d="M114.38-746.33h874.2a.44.44 0 0 0 .45-.44.44.44 0 0 1 .44-.44h18.94M113.75-745.67v-1.54" stroke="#3a414a" stroke-width="3" fill="none"/><path d="M1024.17-747.2l-14.26 4.62v-9.27z" stroke="#3a414a" stroke-width="3" fill="#3a414a"/><path d="M153.75-800.33a6 6 0 0 1 6-6H372.8a6 6 0 0 1 6 6v30.27a6 6 0 0 1-6 6H159.75a6 6 0 0 1-6-6z" fill="none"/><use xlink:href="#e" transform="matrix(1,0,0,1,158.75464664117902,-801.3333333333333) translate(0 26.200520833333336)"/><use xlink:href="#f" transform="matrix(1,0,0,1,158.75464664117902,-801.3333333333333) translate(95.98958333333334 26.200520833333336)"/><path d="M1047.26-666.33h-6.04m-12.07 0h-12.07m-12.07 0h-12.06m-12.07 0H968.8m-12.07 0h-12.07m-12.07 0H920.5m-12.07 0h-12.07m-12.07 0h-12.06m-12.08 0H848.1m-12.08 0h-12.06m-12.08 0H799.8m-12.06 0h-12.07m-12.07 0h-12.07m-12.07 0H727.4m-12.08 0h-12.07m-12.07 0H679.1m-12.06 0h-12.07m-12.07 0h-12.07m-12.07 0H606.7m-12.08 0h-6.04a1.52 1.52 0 0 0-1.5 1.5 1.52 1.52 0 0 1-1.53 1.53h-6.1m-12.2 0h-12.22m-12.2 0H530.6m-12.2 0h-12.2m-12.22 0h-12.2m-12.22 0h-12.2m-12.22 0h-12.2m-12.22 0h-12.2m-12.22 0h-12.2m-12.22 0h-12.2m-12.22 0h-12.2m-12.22 0h-12.2m-12.22 0h-12.2m-12.22 0H262m-12.22 0h-12.2m-12.22 0h-12.2m-12.2 0h-12.22m-12.2 0H164.3m-12.2 0H146M1047.22-666.33h1.54" stroke="#3a414a" stroke-width="3" fill="none"/><path d="M130.24-663.3l14.26-4.64v9.27z" stroke="#3a414a" stroke-width="3" fill="#3a414a"/><path d="M153.75-720.33a6 6 0 0 1 6-6h210.18a6 6 0 0 1 6 6v30.27a6 6 0 0 1-6 6H159.75a6 6 0 0 1-6-6z" fill="none"/><use xlink:href="#g" transform="matrix(1,0,0,1,158.75464664117902,-721.3333333333333) translate(0 26.200520833333336)"/><use xlink:href="#h" transform="matrix(1,0,0,1,158.75464664117902,-721.3333333333333) translate(126.54947916666666 26.200520833333336)"/><path d="M115.25-565h894.16M115.3-565h-1.55" stroke="#3a414a" stroke-width="3" fill="none"/><path d="M1025.17-565l-14.26 4.63v-9.26z" stroke="#3a414a" stroke-width="3" fill="#3a414a"/><path d="M1045-1037v9.03m0 18.07v9.03a1.87 1.87 0 0 0 1.88 1.87 1.87 1.87 0 0 1 1.88 1.87v8.2m0 16.4v16.4m0 16.4v16.4m0 16.4v16.4m0 16.4v16.4m0 16.4v16.38m0 16.4v16.4m0 16.4v16.4m0 16.4v16.4m0 16.4v16.4m0 16.4v16.4m0 16.4v16.4m0 16.4v16.4m0 16.38v16.4m0 16.4v16.4m0 16.4v16.4m0 16.4v16.4m0 16.4v16.4m0 16.4v16.4m0 16.4v8.2" stroke="#3a414a" stroke-width="4" fill="none"/><path d="M1047-1036.95h-3.96v-2.05h3.95z" stroke="#3a414a" stroke-width=".05" fill="#3a414a"/><path d="M1043.43-365.5l3.65-14.54 7.85 4.92z" stroke="#3a414a" stroke-width="4" fill="#3a414a"/><path d="M1048.76-733.47v6.23m0 12.45v12.47m0 12.45v12.46m0 12.45v12.45m0 12.46v12.45m0 12.44v12.46m0 12.45v12.45m0 12.46v12.45m0 12.46v12.46m0 12.45v6.23a6 6 0 0 1-6 6h-6.03m-12.06 0h-12.05m-12.06 0H988.5m-12.05 0H964.4m-12.06 0h-12.06m-12.05 0h-12.06m-12.05 0h-12.06m-12.05 0h-12.05m-12.06 0h-12.06m-12.06 0h-12.05m-12.06 0h-12.05m-12.06 0H771.5m-12.05 0H747.4m-12.06 0h-12.06m-12.05 0h-12.06m-12.05 0h-12.06m-12.05 0h-12.05m-12.05 0h-12.06m-12.06 0h-12.05m-12.06 0h-12.05m-12.06 0H554.5m-12.05 0H530.4m-12.06 0H506.3m-12.07 0h-12.06m-12.05 0h-12.06m-12.05 0h-12.05m-12.05 0h-12.06m-12.05 0h-12.07m-12.06 0h-12.05m-12.06 0H337.5m-12.05 0H313.4m-12.06 0H289.3m-12.07 0h-12.05m-12.06 0h-12.06m-12.05 0h-12.05m-12.05 0h-12.06m-12.05 0h-12.07m-12.05 0h-6.03M1048.76-733.43v-1.54" stroke="#3a414a" stroke-width="3" fill="none"/><path d="M134.88-503.3l14.27-4.64v9.27z" stroke="#3a414a" stroke-width="3" fill="#3a414a"/><path d="M169.03-614a6 6 0 0 1 6-6h176.5a6 6 0 0 1 6 6v30.28a6 6 0 0 1-6 6h-176.5a6 6 0 0 1-6-6z" fill="none"/><use xlink:href="#i" transform="matrix(1,0,0,1,174.02808414117902,-615) translate(0 26.200520833333336)"/><use xlink:href="#j" transform="matrix(1,0,0,1,174.02808414117902,-615) translate(98.98437499999999 26.200520833333336)"/><path d="M160-552.02a6 6 0 0 1 6-6h260.26a6 6 0 0 1 6 6v30.27a6 6 0 0 1-6 6H166a6 6 0 0 1-6-6z" fill="none"/><use xlink:href="#i" transform="matrix(1,0,0,1,165,-553.0246874999999) translate(0 26.200520833333336)"/><use xlink:href="#k" transform="matrix(1,0,0,1,165,-553.0246874999999) translate(98.98437499999999 26.200520833333336)"/><path d="M90.03-926.37a6 6 0 0 1 6-6h28a6 6 0 0 1 6 6v122.35a6 6 0 0 1-6 6h-28a6 6 0 0 1-6-6zM90.03-758.06a6 6 0 0 1 6-6h23.35a6 6 0 0 1 6 6v122.34a6 6 0 0 1-6 6H96.03a6 6 0 0 1-6-6zM94.67-598.06a6 6 0 0 1 6-6h23.36a6 6 0 0 1 6 6v122.34a6 6 0 0 1-6 6h-23.36a6 6 0 0 1-6-6zM1030.03-994a6 6 0 0 1 6-6H1054a6 6 0 0 1 6 6v568a6 6 0 0 1-6 6h-17.97a6 6 0 0 1-6-6z" stroke="#000" stroke-width="2"/><path d="M100.25-1200.05v-.2A19.75 19.75 0 0 1 120-1220a19.75 19.75 0 0 1 19.75 19.75A19.75 19.75 0 0 1 120-1180.5a19.75 19.75 0 0 1-19.75-19.75v-.2" stroke="#000" stroke-width="2" fill="#fff"/><path d="M80-1214a6 6 0 0 1 6-6h68a6 6 0 0 1 6 6v146a6 6 0 0 1-6 6H86a6 6 0 0 1-6-6z" fill="none"/><path d="M120-1180.5v55.3l40 63.2m-40-63.2L80-1062m0-98.75h80" stroke="#000" stroke-width="2" fill="none"/><g><use xlink:href="#l" transform="matrix(1,0,0,1,0,-1062) translate(10.161675347222229 30.13888888888889)"/><use xlink:href="#m" transform="matrix(1,0,0,1,0,-1062) translate(131.52235243055554 30.13888888888889)"/></g><path d="M940-1214a6 6 0 0 1 6-6h198a6 6 0 0 1 6 6v168a6 6 0 0 1-6 6H946a6 6 0 0 1-6-6z" stroke="#000" stroke-width="2" fill="#fff"/><g><use xlink:href="#n" transform="matrix(1,0,0,1,940.0143675914228,-1220) translate(64.29319444444445 57.73871527777778)"/><use xlink:href="#o" transform="matrix(1,0,0,1,940.0143675914228,-1220) translate(33.45009548611112 98.07074652777777)"/><use xlink:href="#p" transform="matrix(1,0,0,1,940.0143675914228,-1220) translate(64.09788194444444 138.40277777777777)"/></g><defs><path fill="#008a0e" d="M180 0v-1490h190v1322h690V0H180" id="q"/><path fill="#008a0e" d="M613 24c-304 0-509-231-509-576 0-350 205-580 509-580 305 0 511 230 511 580 0 345-206 576-511 576zm0-161c226 0 329-195 329-415 0-222-103-419-329-419-223 0-326 196-326 419 0 220 103 415 326 415" id="r"/><path fill="#008a0e" d="M611 442c-248 0-391-105-460-228l146-94c47 65 117 165 314 165 178 0 307-82 307-266v-224h-17C863-141 792-18 576-18c-268 0-472-195-472-546 0-346 197-568 476-568 216 0 288 133 326 193h17v-179h175V29c0 289-215 413-487 413zm-5-620c203 0 314-146 314-390 0-237-108-403-314-403-213 0-319 180-319 403 0 230 109 390 319 390" id="s"/><path fill="#008a0e" d="M158 0v-1118h180V0H158zm91-1301c-68 0-125-53-125-119s57-119 125-119c69 0 126 53 126 119s-57 119-126 119" id="t"/><path fill="#008a0e" d="M338-670V0H158v-1118h173l1 207c72-158 192-221 342-221 226 0 378 139 378 422V0H872v-695c0-172-96-275-252-275-161 0-282 109-282 300" id="u"/><g id="a"><use transform="matrix(0.013020833333333334,0,0,0.013020833333333334,0,0)" xlink:href="#q"/><use transform="matrix(0.013020833333333334,0,0,0.013020833333333334,15.078125,0)" xlink:href="#r"/><use transform="matrix(0.013020833333333334,0,0,0.013020833333333334,31.067708333333336,0)" xlink:href="#s"/><use transform="matrix(0.013020833333333334,0,0,0.013020833333333334,47.421875,0)" xlink:href="#t"/><use transform="matrix(0.013020833333333334,0,0,0.013020833333333334,53.880208333333336,0)" xlink:href="#u"/></g><path fill="#008a0e" d="M657 26c-323 0-524-166-541-416h195c15 169 171 246 346 246 202 0 356-106 356-265 5-203-294-238-475-293-239-73-380-191-380-389 0-252 224-419 512-419 294 0 499 171 508 396H992c-17-145-151-228-328-228-193 0-321 102-321 242 0 156 175 211 284 241l149 41c160 44 422 134 422 412 0 244-197 432-541 432" id="v"/><path fill="#008a0e" d="M537 14c-226 0-379-139-379-422v-710h180v695c0 172 97 275 253 275 160 0 281-109 281-300v-670h181V0H879v-209C806-46 684 14 537 14" id="w"/><path fill="#008a0e" d="M613 24c-304 0-509-231-509-576 0-350 205-580 509-580 216 0 392 114 453 309l-173 49c-33-115-133-197-280-197-223 0-326 196-326 419 0 220 103 415 326 415 150 0 252-85 285-206l172 49C1010-95 832 24 613 24" id="x"/><path fill="#008a0e" d="M628 24c-324 0-524-230-524-574 0-343 198-582 503-582 237 0 487 146 487 559v75H286c9 234 145 362 343 362 132 0 231-58 273-172l174 48C1024-91 857 24 628 24zM287-650h624c-17-190-120-322-304-322-192 0-309 151-320 322" id="y"/><path fill="#008a0e" d="M538 24C308 24 148-78 108-271l171-41c32 123 123 178 257 178 156 0 256-77 256-169 0-77-54-128-164-154l-186-44c-203-48-300-148-300-305 0-192 176-326 414-326 230 0 351 112 402 269l-163 42c-31-80-94-158-238-158-133 0-233 69-233 162 0 83 57 129 188 160l169 40c203 48 298 149 298 302 0 196-179 339-441 339" id="z"/><g id="b"><use transform="matrix(0.013020833333333334,0,0,0.013020833333333334,0,0)" xlink:href="#v"/><use transform="matrix(0.013020833333333334,0,0,0.013020833333333334,17.109375,0)" xlink:href="#w"/><use transform="matrix(0.013020833333333334,0,0,0.013020833333333334,32.87760416666667,0)" xlink:href="#x"/><use transform="matrix(0.013020833333333334,0,0,0.013020833333333334,48.11197916666667,0)" xlink:href="#x"/><use transform="matrix(0.013020833333333334,0,0,0.013020833333333334,63.34635416666667,0)" xlink:href="#y"/><use transform="matrix(0.013020833333333334,0,0,0.013020833333333334,78.89322916666667,0)" xlink:href="#z"/><use transform="matrix(0.013020833333333334,0,0,0.013020833333333334,92.96875,0)" xlink:href="#z"/></g><path fill="#008a0e" d="M692-1560L212 224H46l480-1784h166" id="A"/><use transform="matrix(0.013020833333333334,0,0,0.013020833333333334,0,0)" xlink:href="#A" id="c"/><path fill="#008a0e" d="M180 0v-1490h908v168H370v486h669v168H370v500h727V0H180" id="B"/><path fill="#008a0e" d="M158 0v-1118h174v172h12c41-113 157-188 290-188 26 0 70 2 91 3v181c-11-2-60-10-108-10-161 0-279 109-279 260V0H158" id="C"/><g id="d"><use transform="matrix(0.013020833333333334,0,0,0.013020833333333334,0,0)" xlink:href="#B"/><use transform="matrix(0.013020833333333334,0,0,0.013020833333333334,16.028645833333336,0)" xlink:href="#C"/><use transform="matrix(0.013020833333333334,0,0,0.013020833333333334,26.484375000000004,0)" xlink:href="#C"/><use transform="matrix(0.013020833333333334,0,0,0.013020833333333334,36.08072916666667,0)" xlink:href="#r"/><use transform="matrix(0.013020833333333334,0,0,0.013020833333333334,52.07031250000001,0)" xlink:href="#C"/></g><path fill="#008a0e" d="M471 26C259 26 90-98 90-318c0-256 228-303 435-329 202-27 287-16 287-108 0-139-79-219-234-219-161 0-248 86-283 164l-173-57c86-203 278-265 451-265 150 0 419 46 419 395V0H815v-152h-12C765-73 660 26 471 26zm31-159c199 0 310-134 310-271v-155c-30 35-226 55-295 64-131 17-246 59-246 186 0 116 97 176 231 176" id="D"/><path fill="#008a0e" d="M338-670V0H158v-1490h180v566c73-149 190-208 336-208 226 0 379 139 379 422V0H872v-695c0-172-96-275-252-275-161 0-282 109-282 300" id="E"/><g id="e"><use transform="matrix(0.013020833333333334,0,0,0.013020833333333334,0,0)" xlink:href="#v"/><use transform="matrix(0.013020833333333334,0,0,0.013020833333333334,17.109375,0)" xlink:href="#y"/><use transform="matrix(0.013020833333333334,0,0,0.013020833333333334,32.91666666666667,0)" xlink:href="#D"/><use transform="matrix(0.013020833333333334,0,0,0.013020833333333334,47.89062500000001,0)" xlink:href="#C"/><use transform="matrix(0.013020833333333334,0,0,0.013020833333333334,57.48697916666667,0)" xlink:href="#x"/><use transform="matrix(0.013020833333333334,0,0,0.013020833333333334,72.72135416666667,0)" xlink:href="#E"/></g><path fill="#008a0e" d="M158 418v-1536h174v179h20c37-59 106-193 324-193 279 0 474 222 474 576 0 356-194 580-473 580-213 0-288-135-325-197h-14v591H158zm492-555c209 0 317-186 317-421 0-232-105-413-317-413-206 0-314 166-314 413 0 249 111 421 314 421" id="F"/><path fill="#008a0e" d="M158 0v-1118h175l1 205c55-151 181-225 313-225 147 0 245 90 285 228 53-141 190-228 352-228 194 0 352 125 352 384V0h-181v-749c0-161-105-225-225-225-151 0-243 103-243 244V0H807v-767c0-124-93-207-219-207-131 0-250 92-250 270V0H158" id="G"/><path fill="#008a0e" d="M598-1118v154H368v674c0 100 37 144 132 144 23 0 62-6 92-12L629-6c-37 13-88 20-134 20-193 0-307-107-307-290v-688H20v-154h168v-266h180v266h230" id="H"/><g id="f"><use transform="matrix(0.013020833333333334,0,0,0.013020833333333334,0,0)" xlink:href="#v"/><use transform="matrix(0.013020833333333334,0,0,0.013020833333333334,17.109375,0)" xlink:href="#E"/><use transform="matrix(0.013020833333333334,0,0,0.013020833333333334,32.87760416666667,0)" xlink:href="#t"/><use transform="matrix(0.013020833333333334,0,0,0.013020833333333334,39.33593750000001,0)" xlink:href="#F"/><use transform="matrix(0.013020833333333334,0,0,0.013020833333333334,55.6640625,0)" xlink:href="#G"/><use transform="matrix(0.013020833333333334,0,0,0.013020833333333334,79.0234375,0)" xlink:href="#y"/><use transform="matrix(0.013020833333333334,0,0,0.013020833333333334,94.5703125,0)" xlink:href="#u"/><use transform="matrix(0.013020833333333334,0,0,0.013020833333333334,110.32552083333334,0)" xlink:href="#H"/></g><g id="g"><use transform="matrix(0.013020833333333334,0,0,0.013020833333333334,0,0)" xlink:href="#v"/><use transform="matrix(0.013020833333333334,0,0,0.013020833333333334,17.109375,0)" xlink:href="#E"/><use transform="matrix(0.013020833333333334,0,0,0.013020833333333334,32.87760416666667,0)" xlink:href="#t"/><use transform="matrix(0.013020833333333334,0,0,0.013020833333333334,39.33593750000001,0)" xlink:href="#F"/><use transform="matrix(0.013020833333333334,0,0,0.013020833333333334,55.6640625,0)" xlink:href="#G"/><use transform="matrix(0.013020833333333334,0,0,0.013020833333333334,79.0234375,0)" xlink:href="#y"/><use transform="matrix(0.013020833333333334,0,0,0.013020833333333334,94.5703125,0)" xlink:href="#u"/><use transform="matrix(0.013020833333333334,0,0,0.013020833333333334,110.32552083333334,0)" xlink:href="#H"/></g><path fill="#008a0e" d="M645 0H180v-1490h484c435 0 692 280 692 742 0 466-257 748-711 748zM370-168h263c363 0 539-218 539-580 0-358-176-574-521-574H370v1154" id="I"/><path fill="#008a0e" d="M338-1490V0H158v-1490h180" id="J"/><g id="h"><use transform="matrix(0.013020833333333334,0,0,0.013020833333333334,0,0)" xlink:href="#I"/><use transform="matrix(0.013020833333333334,0,0,0.013020833333333334,19.244791666666668,0)" xlink:href="#y"/><use transform="matrix(0.013020833333333334,0,0,0.013020833333333334,34.79166666666667,0)" xlink:href="#H"/><use transform="matrix(0.013020833333333334,0,0,0.013020833333333334,43.64583333333334,0)" xlink:href="#D"/><use transform="matrix(0.013020833333333334,0,0,0.013020833333333334,58.61979166666668,0)" xlink:href="#t"/><use transform="matrix(0.013020833333333334,0,0,0.013020833333333334,65.07812500000001,0)" xlink:href="#J"/><use transform="matrix(0.013020833333333334,0,0,0.013020833333333334,71.53645833333334,0)" xlink:href="#z"/></g><path fill="#008a0e" d="M763 24c-353 0-583-224-583-531v-983h190v968c0 214 149 370 393 370 243 0 391-156 391-370v-968h190v983c0 307-230 531-581 531" id="K"/><path fill="#008a0e" d="M577 24c-279 0-473-224-473-580 0-354 195-576 474-576 218 0 287 134 324 193h14v-551h180V0H922v-173h-20C865-111 790 24 577 24zm27-161c203 0 314-172 314-421 0-247-108-413-314-413-212 0-317 181-317 413 0 235 108 421 317 421" id="L"/><g id="i"><use transform="matrix(0.013020833333333334,0,0,0.013020833333333334,0,0)" xlink:href="#K"/><use transform="matrix(0.013020833333333334,0,0,0.013020833333333334,19.84375,0)" xlink:href="#F"/><use transform="matrix(0.013020833333333334,0,0,0.013020833333333334,36.171875,0)" xlink:href="#L"/><use transform="matrix(0.013020833333333334,0,0,0.013020833333333334,52.5,0)" xlink:href="#D"/><use transform="matrix(0.013020833333333334,0,0,0.013020833333333334,67.47395833333333,0)" xlink:href="#H"/><use transform="matrix(0.013020833333333334,0,0,0.013020833333333334,75.93749999999999,0)" xlink:href="#y"/></g><g id="j"><use transform="matrix(0.013020833333333334,0,0,0.013020833333333334,0,0)" xlink:href="#v"/><use transform="matrix(0.013020833333333334,0,0,0.013020833333333334,17.109375,0)" xlink:href="#H"/><use transform="matrix(0.013020833333333334,0,0,0.013020833333333334,25.963541666666664,0)" xlink:href="#D"/><use transform="matrix(0.013020833333333334,0,0,0.013020833333333334,40.9375,0)" xlink:href="#H"/><use transform="matrix(0.013020833333333334,0,0,0.013020833333333334,49.661458333333336,0)" xlink:href="#w"/><use transform="matrix(0.013020833333333334,0,0,0.013020833333333334,65.4296875,0)" xlink:href="#z"/></g><path fill="#008a0e" d="M783 20c-382 0-661-292-661-764 0-473 279-766 661-766 302 0 548 182 601 489h-190c-42-204-217-313-411-313-268 0-476 208-476 590 0 381 209 588 476 588 195 0 369-110 411-313h190c-52 303-296 489-601 489" id="M"/><path fill="#008a0e" d="M678-1118v154H420V0H240v-964H20v-154h220v-149c0-194 155-293 318-293 85 0 141 18 168 30l-50 154c-19-6-47-17-97-17-111 0-159 58-159 166v109h258" id="N"/><g id="k"><use transform="matrix(0.013020833333333334,0,0,0.013020833333333334,0,0)" xlink:href="#M"/><use transform="matrix(0.013020833333333334,0,0,0.013020833333333334,19.479166666666668,0)" xlink:href="#r"/><use transform="matrix(0.013020833333333334,0,0,0.013020833333333334,35.46875,0)" xlink:href="#u"/><use transform="matrix(0.013020833333333334,0,0,0.013020833333333334,51.223958333333336,0)" xlink:href="#N"/><use transform="matrix(0.013020833333333334,0,0,0.013020833333333334,61.09375,0)" xlink:href="#t"/><use transform="matrix(0.013020833333333334,0,0,0.013020833333333334,67.55208333333333,0)" xlink:href="#C"/><use transform="matrix(0.013020833333333334,0,0,0.013020833333333334,78.0078125,0)" xlink:href="#G"/><use transform="matrix(0.013020833333333334,0,0,0.013020833333333334,101.3671875,0)" xlink:href="#D"/><use transform="matrix(0.013020833333333334,0,0,0.013020833333333334,116.34114583333334,0)" xlink:href="#H"/><use transform="matrix(0.013020833333333334,0,0,0.013020833333333334,125.06510416666664,0)" xlink:href="#t"/><use transform="matrix(0.013020833333333334,0,0,0.013020833333333334,131.5234375,0)" xlink:href="#r"/><use transform="matrix(0.013020833333333334,0,0,0.013020833333333334,147.51302083333334,0)" xlink:href="#u"/></g><path fill="#008a0e" d="M786 20C389 20 94-260 94-744c0-487 299-766 692-766 339 0 597 194 641 529h-309c-28-162-156-258-326-258-233 0-388 179-388 495 0 323 157 493 387 493 170 0 298-97 328-259h309c-34 277-266 530-642 530" id="O"/><path fill="#008a0e" d="M628 22C291 22 81-210 81-554c0-346 210-578 547-578 336 0 547 232 547 578 0 344-211 576-547 576zm0-236c160 0 242-146 242-341 0-197-82-341-242-341S387-753 387-555c0 195 81 341 241 341" id="P"/><path fill="#008a0e" d="M513 14c-232 0-385-159-385-421v-711h300v659c0 139 76 222 202 222 127 0 217-86 217-234v-647h301V0H864l-4-232C797-74 683 14 513 14" id="Q"/><path fill="#008a0e" d="M128 0v-1118h290v195h12c54-169 184-238 367-200v268c-27-8-86-15-130-15-138 0-239 95-239 234V0H128" id="R"/><path fill="#008a0e" d="M128 0v-1118h300V0H128zm150-1264c-91 0-165-68-165-154 0-85 74-154 165-154 90 0 165 69 165 154 0 86-75 154-165 154" id="S"/><path fill="#008a0e" d="M633 22C291 22 81-200 81-553c0-345 210-579 537-579 292 0 525 185 525 567v84H378c7 183 109 277 260 277 105 0 184-46 216-132l272 51C1071-99 893 22 633 22zM380-669h474c-15-146-94-237-233-237-143 0-229 99-241 237" id="T"/><g id="l"><use transform="matrix(0.015190972222222222,0,0,0.015190972222222222,0,0)" xlink:href="#O"/><use transform="matrix(0.015190972222222222,0,0,0.015190972222222222,23.014322916666668,0)" xlink:href="#P"/><use transform="matrix(0.015190972222222222,0,0,0.015190972222222222,42.09418402777778,0)" xlink:href="#Q"/><use transform="matrix(0.015190972222222222,0,0,0.015190972222222222,61.462673611111114,0)" xlink:href="#R"/><use transform="matrix(0.015190972222222222,0,0,0.015190972222222222,74.35980902777779,0)" xlink:href="#S"/><use transform="matrix(0.015190972222222222,0,0,0.015190972222222222,82.79079861111111,0)" xlink:href="#T"/><use transform="matrix(0.015190972222222222,0,0,0.015190972222222222,101.32378472222223,0)" xlink:href="#R"/></g><path fill="#008a0e" d="M49 0l509-1490h400L1480 0h-339l-115-346H497L386 0H49zm524-585h374c-75-213-124-402-192-666-66 268-110 453-182 666" id="U"/><path fill="#008a0e" d="M537 19C279 19 81-185 81-557c0-382 206-575 454-575 190 0 278 113 318 202h10v-560h300V0H868v-179h-15C812-89 719 19 537 19zm92-241c153 0 240-134 240-336 0-203-86-334-240-334-158 0-240 138-240 334 0 197 84 336 240 336" id="V"/><path fill="#008a0e" d="M128 0v-1118h278l12 217c60-163 185-234 319-234 143 0 236 81 288 251 63-172 205-251 359-251 205 0 357 138 357 381V0h-301v-697c0-126-76-187-177-187-114 0-184 79-184 196V0H789v-705c0-109-72-179-174-179-106 0-187 74-187 208V0H128" id="W"/><path fill="#008a0e" d="M428-647V0H128v-1118h283l4 231c63-156 176-245 348-245 232 0 384 159 384 421V0H847v-659c0-139-76-222-202-222-128 0-217 86-217 234" id="X"/><g id="m"><use transform="matrix(0.015190972222222222,0,0,0.015190972222222222,0,0)" xlink:href="#U"/><use transform="matrix(0.015190972222222222,0,0,0.015190972222222222,22.513020833333336,0)" xlink:href="#V"/><use transform="matrix(0.015190972222222222,0,0,0.015190972222222222,42.12456597222223,0)" xlink:href="#W"/><use transform="matrix(0.015190972222222222,0,0,0.015190972222222222,70.51649305555556,0)" xlink:href="#S"/><use transform="matrix(0.015190972222222222,0,0,0.015190972222222222,78.94748263888889,0)" xlink:href="#X"/></g><path fill="#3a414a" d="M786 20C389 20 94-260 94-744c0-487 299-766 692-766 339 0 597 194 641 529h-309c-28-162-156-258-326-258-233 0-388 179-388 495 0 323 157 493 387 493 170 0 298-97 328-259h309c-34 277-266 530-642 530" id="Y"/><path fill="#3a414a" d="M628 22C291 22 81-210 81-554c0-346 210-578 547-578 336 0 547 232 547 578 0 344-211 576-547 576zm0-236c160 0 242-146 242-341 0-197-82-341-242-341S387-753 387-555c0 195 81 341 241 341" id="Z"/><path fill="#3a414a" d="M513 14c-232 0-385-159-385-421v-711h300v659c0 139 76 222 202 222 127 0 217-86 217-234v-647h301V0H864l-4-232C797-74 683 14 513 14" id="aa"/><path fill="#3a414a" d="M128 0v-1118h290v195h12c54-169 184-238 367-200v268c-27-8-86-15-130-15-138 0-239 95-239 234V0H128" id="ab"/><path fill="#3a414a" d="M128 0v-1118h300V0H128zm150-1264c-91 0-165-68-165-154 0-85 74-154 165-154 90 0 165 69 165 154 0 86-75 154-165 154" id="ac"/><path fill="#3a414a" d="M633 22C291 22 81-200 81-553c0-345 210-579 537-579 292 0 525 185 525 567v84H378c7 183 109 277 260 277 105 0 184-46 216-132l272 51C1071-99 893 22 633 22zM380-669h474c-15-146-94-237-233-237-143 0-229 99-241 237" id="ad"/><g id="n"><use transform="matrix(0.010850694444444444,0,0,0.010850694444444444,0,0)" xlink:href="#Y"/><use transform="matrix(0.010850694444444444,0,0,0.010850694444444444,16.438802083333332,0)" xlink:href="#Z"/><use transform="matrix(0.010850694444444444,0,0,0.010850694444444444,30.067274305555554,0)" xlink:href="#aa"/><use transform="matrix(0.010850694444444444,0,0,0.010850694444444444,43.90190972222222,0)" xlink:href="#ab"/><use transform="matrix(0.010850694444444444,0,0,0.010850694444444444,53.11414930555556,0)" xlink:href="#ac"/><use transform="matrix(0.010850694444444444,0,0,0.010850694444444444,59.13628472222221,0)" xlink:href="#ad"/><use transform="matrix(0.010850694444444444,0,0,0.010850694444444444,72.37413194444443,0)" xlink:href="#ab"/></g><path fill="#3a414a" d="M135 0v-1490h468l242 684c30 94 76 293 111 455 34-161 80-360 110-455l238-684h470V0h-307c0-447-3-765 11-1227-122 503-246 788-395 1227H826C676-435 552-717 427-1215c15 453 11 775 11 1215H135" id="ae"/><path fill="#3a414a" d="M440 22C227 22 68-92 68-313c0-250 202-322 422-343 195-21 271-24 271-105 0-95-63-149-175-149-116 0-187 57-211 129l-275-46c57-194 237-305 487-305 240 0 474 108 474 379V0H777v-155h-10C713-51 605 22 440 22zm85-211c140 0 238-93 238-211v-121c-37 26-156 42-222 51-111 16-185 59-185 149 0 87 70 132 169 132" id="af"/><path fill="#3a414a" d="M428-647V0H128v-1118h283l4 231c63-156 176-245 348-245 232 0 384 159 384 421V0H847v-659c0-139-76-222-202-222-128 0-217 86-217 234" id="ag"/><path fill="#3a414a" d="M625 442c-280 0-454-114-503-274l258-72c28 63 97 128 243 128 153 0 246-69 246-216v-206h-23C805-108 717-16 536-16 284-16 81-191 81-561c0-378 208-571 456-571 188 0 280 113 321 202h13v-188h295V-9c0 303-226 451-541 451zm5-686c153 0 240-119 240-319 0-198-86-329-240-329-158 0-241 137-241 329 0 195 85 319 241 319" id="ah"/><path fill="#3a414a" d="M128 0v-1118h278l12 217c60-163 185-234 319-234 143 0 236 81 288 251 63-172 205-251 359-251 205 0 357 138 357 381V0h-301v-697c0-126-76-187-177-187-114 0-184 79-184 196V0H789v-705c0-109-72-179-174-179-106 0-187 74-187 208V0H128" id="ai"/><path fill="#3a414a" d="M683-1118v229H474v562c0 71 29 104 102 104 23 0 73-7 95-13l43 225C647 9 580 16 520 16 296 16 174-96 174-301v-588H20v-229h154v-266h300v266h209" id="aj"/><g id="o"><use transform="matrix(0.010850694444444444,0,0,0.010850694444444444,0,0)" xlink:href="#ae"/><use transform="matrix(0.010850694444444444,0,0,0.010850694444444444,20.703125,0)" xlink:href="#af"/><use transform="matrix(0.010850694444444444,0,0,0.010850694444444444,33.60460069444444,0)" xlink:href="#ag"/><use transform="matrix(0.010850694444444444,0,0,0.010850694444444444,47.43923611111111,0)" xlink:href="#af"/><use transform="matrix(0.010850694444444444,0,0,0.010850694444444444,60.34071180555555,0)" xlink:href="#ah"/><use transform="matrix(0.010850694444444444,0,0,0.010850694444444444,74.38151041666666,0)" xlink:href="#ad"/><use transform="matrix(0.010850694444444444,0,0,0.010850694444444444,87.61935763888889,0)" xlink:href="#ai"/><use transform="matrix(0.010850694444444444,0,0,0.010850694444444444,107.89930555555556,0)" xlink:href="#ad"/><use transform="matrix(0.010850694444444444,0,0,0.010850694444444444,121.13715277777777,0)" xlink:href="#ag"/><use transform="matrix(0.010850694444444444,0,0,0.010850694444444444,134.97178819444443,0)" xlink:href="#aj"/></g><path fill="#3a414a" d="M681 22C323 22 94-145 85-462h297c10 151 131 226 296 226 163 0 271-77 271-190 0-102-95-149-257-189l-164-41c-252-61-403-188-403-405 0-269 236-449 560-449 330 0 546 183 551 445H941c-11-119-106-188-259-188-156 0-244 72-244 172-3 156 226 185 373 221 250 61 445 186 445 436 0 271-213 446-575 446" id="ak"/><path fill="#3a414a" d="M120 396l69-226c123 42 245 23 254-107l8-60L31-1118h319c87 288 199 559 259 872 72-308 185-583 277-872h315L726 132c-68 181-186 294-410 294-79 0-153-13-196-30" id="al"/><path fill="#3a414a" d="M572 22C302 22 117-98 78-306l279-48c29 105 101 156 224 156 114 0 185-48 185-115 0-118-228-130-337-155-215-49-322-150-322-317 0-215 187-347 470-347 265 0 424 116 466 298l-266 47c-24-76-87-130-196-130-98 0-174 46-174 113 0 56 38 95 144 117l201 40c216 44 320 143 320 302 0 220-207 367-500 367" id="am"/><g id="p"><use transform="matrix(0.010850694444444444,0,0,0.010850694444444444,0,0)" xlink:href="#ak"/><use transform="matrix(0.010850694444444444,0,0,0.010850694444444444,14.55078125,0)" xlink:href="#al"/><use transform="matrix(0.010850694444444444,0,0,0.010850694444444444,27.9296875,0)" xlink:href="#am"/><use transform="matrix(0.010850694444444444,0,0,0.010850694444444444,40.37543402777778,0)" xlink:href="#aj"/><use transform="matrix(0.010850694444444444,0,0,0.010850694444444444,48.29644097222223,0)" xlink:href="#ad"/><use transform="matrix(0.010850694444444444,0,0,0.010850694444444444,61.53428819444445,0)" xlink:href="#ai"/></g></defs></g></svg>