<svg xmlns="http://www.w3.org/2000/svg" xmlns:xlink="http://www.w3.org/1999/xlink" xmlns:lucid="lucid" width="693.59" height="1103"><g transform="translate(-247.41254340277777 -99)" lucid:page-tab-id="0_0"><path d="M300.25 119.95v-.2A19.75 19.75 0 0 1 320 100a19.75 19.75 0 0 1 19.75 19.75A19.75 19.75 0 0 1 320 139.5a19.75 19.75 0 0 1-19.75-19.75v-.2" stroke="#000" stroke-width="2" fill="#fff"/><path d="M280 106a6 6 0 0 1 6-6h68a6 6 0 0 1 6 6v146a6 6 0 0 1-6 6h-68a6 6 0 0 1-6-6z" fill="none"/><path d="M320 139.5v55.3l40 63.2m-40-63.2L280 258m0-98.75h80" stroke="#000" stroke-width="2" fill="none"/><use xlink:href="#a" transform="matrix(1,0,0,1,200,258) translate(48.41254340277777 30.13888888888889)"/><path d="M700 126a6 6 0 0 1 6-6h228a6 6 0 0 1 6 6v148a6 6 0 0 1-6 6H706a6 6 0 0 1-6-6z" stroke="#000" stroke-width="2" fill="#fff"/><use xlink:href="#b" transform="matrix(1,0,0,1,705,125) translate(60.320095486111114 41.271701388888886)"/><use xlink:href="#c" transform="matrix(1,0,0,1,705,125) translate(18.70442708333333 86.44357638888889)"/><use xlink:href="#d" transform="matrix(1,0,0,1,705,125) translate(60.43402777777778 131.61545138888889)"/><path d="M320 302v8m0 16v16m0 16v16m0 16v16m0 16v16m0 16v16m0 16v16m0 16v16m0 16v16m0 16v16m0 16v16m0 16v16m0 16v16m0 16v16m0 16v16m0 16v16m0 16v16m0 16v16m0 16v16m0 16v16m0 16v16m0 16v16m0 16v16m0 16v16m0 16v16m0 16v16m0 16v16m0 16v16m0 16v8M320 302.05V300M320 1197.95v2.05M820 302v8.1m0 16.2v16.22m0 16.2v16.22m0 16.2v16.22m0 16.2v16.2m0 16.22v16.2m0 16.22v16.2m0 16.22v16.2m0 16.2v16.22m0 16.2v16.22m0 16.2v16.22m0 16.2v16.2m0 16.22v16.2m0 16.22v16.2m0 16.22v16.2m0 16.2v16.22m0 16.2v16.22m0 16.2v16.22m0 16.2v16.2m0 16.22v16.2m0 16.22v16.2m0 16.2v16.22m0 16.2v16.22m0 16.2v16.22m0 16.2v16.2m0 16.22v16.2m0 16.22v16.2m0 16.22v8.1M820 302.05V300" stroke="#3a414a" stroke-width="4" fill="none"/><path d="M820 1193.53l-4.63-14.27h9.26z" stroke="#3a414a" stroke-width="4" fill="#3a414a"/><path d="M342.5 389.33h38.17a.33.33 0 0 1 .33.34.33.33 0 0 0 .33.33h377.34a.33.33 0 0 0 .33-.33.33.33 0 0 1 .33-.34h19.05" stroke="#3a414a" stroke-width="3" fill="none"/><path d="M342.54 390.8H341v-2.94h1.54z" stroke="#3a414a" stroke-width=".05" fill="#3a414a"/><path d="M794.15 389.33l-14.27 4.64v-9.27z" stroke="#3a414a" stroke-width="3" fill="#3a414a"/><path d="M360 326a6 6 0 0 1 6-6h184.82a6 6 0 0 1 6 6v24.9a6 6 0 0 1-6 6H366a6 6 0 0 1-6-6z" fill="none"/><use xlink:href="#e" transform="matrix(1,0,0,1,365,325) translate(0 21.58376736111111)"/><use xlink:href="#f" transform="matrix(1,0,0,1,365,325) translate(22.22222222222222 21.58376736111111)"/><use xlink:href="#g" transform="matrix(1,0,0,1,365,325) translate(114.51822916666666 21.58376736111111)"/><use xlink:href="#h" transform="matrix(1,0,0,1,365,325) translate(128.77604166666666 21.58376736111111)"/><path d="M818.5 440h-6m-12.03 0h-12.03m-12.02 0H764.4m-12.03 0h-12.02m-12.02 0H716.3m-12.02 0h-12.02m-12.03 0H668.2m-12 0h-12.04m-12.02 0h-12.02m-12.02 0h-12.03m-12.02 0h-12.02M560 440h-12.02m-12.02 0h-12.03m-12.02 0h-12m-12.04 0h-12.02m-12.02 0H451.8m-12.03 0h-12.02m-12.03 0H403.7m-12.02 0h-12.03m-12.02 0h-6M818.46 440H820" stroke="#3a414a" stroke-width="3" fill="none"/><path d="M345.85 440l14.27-4.63v9.26z" stroke="#3a414a" stroke-width="3" fill="#3a414a"/><path d="M360 402.9a6 6 0 0 1 6-6h188.3a6 6 0 0 1 6 6v24.9a6 6 0 0 1-6 6H366a6 6 0 0 1-6-6z" fill="none"/><use xlink:href="#i" transform="matrix(1,0,0,1,365,401.89802083333336) translate(0 21.58376736111111)"/><use xlink:href="#j" transform="matrix(1,0,0,1,365,401.89802083333336) translate(28.80859375 21.58376736111111)"/><use xlink:href="#k" transform="matrix(1,0,0,1,365,401.89802083333336) translate(124.26215277777777 21.58376736111111)"/><use xlink:href="#l" transform="matrix(1,0,0,1,365,401.89802083333336) translate(138.51996527777777 21.58376736111111)"/><path d="M321.5 520h456.88M321.54 520H320" stroke="#3a414a" stroke-width="3" fill="none"/><path d="M794.15 520l-14.27 4.63v-9.26z" stroke="#3a414a" stroke-width="3" fill="#3a414a"/><path d="M360 479.8a6 6 0 0 1 6-6h183.06a6 6 0 0 1 6 6v24.9a6 6 0 0 1-6 6H366a6 6 0 0 1-6-6z" fill="none"/><use xlink:href="#m" transform="matrix(1,0,0,1,365,478.7960416666667) translate(0 21.58376736111111)"/><use xlink:href="#n" transform="matrix(1,0,0,1,365,478.7960416666667) translate(26.204427083333332 21.58376736111111)"/><use xlink:href="#o" transform="matrix(1,0,0,1,365,478.7960416666667) translate(85.83984375 21.58376736111111)"/><path d="M818.5 600h-6m-12.03 0h-12.03m-12.02 0H764.4m-12.03 0h-12.02m-12.02 0H716.3m-12.02 0h-12.02m-12.03 0H668.2m-12 0h-12.04m-12.02 0h-12.02m-12.02 0h-12.03m-12.02 0h-12.02M560 600h-12.02m-12.02 0h-12.03m-12.02 0h-12m-12.04 0h-12.02m-12.02 0H451.8m-12.03 0h-12.02m-12.03 0H403.7m-12.02 0h-12.03m-12.02 0h-6M818.46 600H820" stroke="#3a414a" stroke-width="3" fill="none"/><path d="M345.85 600l14.27-4.63v9.26z" stroke="#3a414a" stroke-width="3" fill="#3a414a"/><path d="M368.38 556.7a6 6 0 0 1 6-6h296.05a6 6 0 0 1 6 6v24.9a6 6 0 0 1-6 6H374.38a6 6 0 0 1-6-6z" fill="none"/><use xlink:href="#p" transform="matrix(1,0,0,1,373.3821614583333,555.6940625000001) translate(0 21.58376736111111)"/><use xlink:href="#q" transform="matrix(1,0,0,1,373.3821614583333,555.6940625000001) translate(33.322482638888886 21.58376736111111)"/><use xlink:href="#r" transform="matrix(1,0,0,1,373.3821614583333,555.6940625000001) translate(138.78038194444443 21.58376736111111)"/><use xlink:href="#s" transform="matrix(1,0,0,1,373.3821614583333,555.6940625000001) translate(228.52647569444443 21.58376736111111)"/><use xlink:href="#t" transform="matrix(1,0,0,1,373.3821614583333,555.6940625000001) translate(249.47916666666666 21.58376736111111)"/><path d="M321.5 680h456.88M321.54 680H320" stroke="#3a414a" stroke-width="3" fill="none"/><path d="M794.15 680l-14.27 4.63v-9.26z" stroke="#3a414a" stroke-width="3" fill="#3a414a"/><path d="M368.38 646a6 6 0 0 1 6-6h198.04a6 6 0 0 1 6 6v24.9a6 6 0 0 1-6 6H374.4a6 6 0 0 1-6-6z" fill="none"/><use xlink:href="#u" transform="matrix(1,0,0,1,373.3821614583333,645) translate(0 21.58376736111111)"/><use xlink:href="#v" transform="matrix(1,0,0,1,373.3821614583333,645) translate(25.87890625 21.58376736111111)"/><use xlink:href="#w" transform="matrix(1,0,0,1,373.3821614583333,645) translate(70.96354166666666 21.58376736111111)"/><use xlink:href="#x" transform="matrix(1,0,0,1,373.3821614583333,645) translate(169.34678819444443 21.58376736111111)"/><path d="M818.5 756h-6m-12.03 0h-12.03m-12.02 0H764.4m-12.03 0h-12.02m-12.02 0H716.3m-12.02 0h-12.02m-12.03 0H668.2m-12 0h-12.04m-12.02 0h-12.02m-12.02 0h-12.03m-12.02 0h-12.02M560 756h-12.02m-12.02 0h-12.03m-12.02 0h-12m-12.04 0h-12.02m-12.02 0H451.8m-12.03 0h-12.02m-12.03 0H403.7m-12.02 0h-12.03m-12.02 0h-6M818.46 756H820" stroke="#3a414a" stroke-width="3" fill="none"/><path d="M345.85 756l14.27-4.63v9.26z" stroke="#3a414a" stroke-width="3" fill="#3a414a"/><path d="M360 706a6 6 0 0 1 6-6h347.86a6 6 0 0 1 6 6v24.9a6 6 0 0 1-6 6H366a6 6 0 0 1-6-6z" fill="none"/><g><use xlink:href="#y" transform="matrix(1,0,0,1,365,705) translate(0 21.58376736111111)"/><use xlink:href="#z" transform="matrix(1,0,0,1,365,705) translate(32.99696180555556 21.58376736111111)"/><use xlink:href="#A" transform="matrix(1,0,0,1,365,705) translate(130.90277777777777 21.58376736111111)"/><use xlink:href="#k" transform="matrix(1,0,0,1,365,705) translate(273.20963541666663 21.58376736111111)"/><use xlink:href="#B" transform="matrix(1,0,0,1,365,705) translate(287.46744791666663 21.58376736111111)"/></g><path d="M342.5 840h435.88" stroke="#3a414a" stroke-width="3" fill="none"/><path d="M342.54 841.48H341v-2.96h1.54z" stroke="#3a414a" stroke-width=".05" fill="#3a414a"/><path d="M794.15 840l-14.27 4.63v-9.26z" stroke="#3a414a" stroke-width="3" fill="#3a414a"/><path d="M368.38 786a6 6 0 0 1 6-6H534a6 6 0 0 1 6 6v44.9a6 6 0 0 1-6 6H374.38a6 6 0 0 1-6-6z" fill="none"/><g><use xlink:href="#C" transform="matrix(1,0,0,1,373.3821614583333,785) translate(0 31.58376736111111)"/><use xlink:href="#D" transform="matrix(1,0,0,1,373.3821614583333,785) translate(26.258680555555557 31.58376736111111)"/><use xlink:href="#E" transform="matrix(1,0,0,1,373.3821614583333,785) translate(91.33029513888889 31.58376736111111)"/></g><path d="M818.5 920h-6m-12.03 0h-12.03m-12.02 0H764.4m-12.03 0h-12.02m-12.02 0H716.3m-12.02 0h-12.02m-12.03 0H668.2m-12 0h-12.04m-12.02 0h-12.02m-12.02 0h-12.03m-12.02 0h-12.02M560 920h-12.02m-12.02 0h-12.03m-12.02 0h-12m-12.04 0h-12.02m-12.02 0H451.8m-12.03 0h-12.02m-12.03 0H403.7m-12.02 0h-12.03m-12.02 0h-6M818.46 920H820" stroke="#3a414a" stroke-width="3" fill="none"/><path d="M345.85 920l14.27-4.63v9.26z" stroke="#3a414a" stroke-width="3" fill="#3a414a"/><path d="M360 866a6 6 0 0 1 6-6h215.23a6 6 0 0 1 6 6v24.9a6 6 0 0 1-6 6H366a6 6 0 0 1-6-6z" fill="none"/><g><use xlink:href="#F" transform="matrix(1,0,0,1,365,865) translate(0 21.58376736111111)"/><use xlink:href="#G" transform="matrix(1,0,0,1,365,865) translate(33.376736111111114 21.58376736111111)"/><use xlink:href="#s" transform="matrix(1,0,0,1,365,865) translate(130.01302083333331 21.58376736111111)"/><use xlink:href="#H" transform="matrix(1,0,0,1,365,865) translate(150.96571180555554 21.58376736111111)"/></g><path d="M300 362.9a6 6 0 0 1 6-6h28a6 6 0 0 1 6 6v88a6 6 0 0 1-6 6h-28a6 6 0 0 1-6-6zM300 506a6 6 0 0 1 6-6h28a6 6 0 0 1 6 6v107.14a6 6 0 0 1-6 6h-28a6 6 0 0 1-6-6zM300 668.25a6 6 0 0 1 6-6h28a6 6 0 0 1 6 6V770.9a6 6 0 0 1-6 6h-28a6 6 0 0 1-6-6zM300 827.12a6 6 0 0 1 6-6h28a6 6 0 0 1 6 6v102.65a6 6 0 0 1-6 6h-28a6 6 0 0 1-6-6zM800 377.5a6 6 0 0 1 6-6h28a6 6 0 0 1 6 6v552.28a6 6 0 0 1-6 6h-28a6 6 0 0 1-6-6z" stroke="#000" stroke-width="2"/><defs><path fill="#e81313" d="M783 20c-382 0-661-292-661-764 0-473 279-766 661-766 302 0 548 182 601 489h-190c-42-204-217-313-411-313-268 0-476 208-476 590 0 381 209 588 476 588 195 0 369-110 411-313h190c-52 303-296 489-601 489" id="I"/><path fill="#e81313" d="M537 14c-226 0-379-139-379-422v-710h180v695c0 172 97 275 253 275 160 0 281-109 281-300v-670h181V0H879v-209C806-46 684 14 537 14" id="J"/><path fill="#e81313" d="M538 24C308 24 148-78 108-271l171-41c32 123 123 178 257 178 156 0 256-77 256-169 0-77-54-128-164-154l-186-44c-203-48-300-148-300-305 0-192 176-326 414-326 230 0 351 112 402 269l-163 42c-31-80-94-158-238-158-133 0-233 69-233 162 0 83 57 129 188 160l169 40c203 48 298 149 298 302 0 196-179 339-441 339" id="K"/><path fill="#e81313" d="M598-1118v154H368v674c0 100 37 144 132 144 23 0 62-6 92-12L629-6c-37 13-88 20-134 20-193 0-307-107-307-290v-688H20v-154h168v-266h180v266h230" id="L"/><path fill="#e81313" d="M613 24c-304 0-509-231-509-576 0-350 205-580 509-580 305 0 511 230 511 580 0 345-206 576-511 576zm0-161c226 0 329-195 329-415 0-222-103-419-329-419-223 0-326 196-326 419 0 220 103 415 326 415" id="M"/><path fill="#e81313" d="M158 0v-1118h175l1 205c55-151 181-225 313-225 147 0 245 90 285 228 53-141 190-228 352-228 194 0 352 125 352 384V0h-181v-749c0-161-105-225-225-225-151 0-243 103-243 244V0H807v-767c0-124-93-207-219-207-131 0-250 92-250 270V0H158" id="N"/><path fill="#e81313" d="M628 24c-324 0-524-230-524-574 0-343 198-582 503-582 237 0 487 146 487 559v75H286c9 234 145 362 343 362 132 0 231-58 273-172l174 48C1024-91 857 24 628 24zM287-650h624c-17-190-120-322-304-322-192 0-309 151-320 322" id="O"/><path fill="#e81313" d="M158 0v-1118h174v172h12c41-113 157-188 290-188 26 0 70 2 91 3v181c-11-2-60-10-108-10-161 0-279 109-279 260V0H158" id="P"/><g id="a"><use transform="matrix(0.015190972222222222,0,0,0.015190972222222222,0,0)" xlink:href="#I"/><use transform="matrix(0.015190972222222222,0,0,0.015190972222222222,22.725694444444443,0)" xlink:href="#J"/><use transform="matrix(0.015190972222222222,0,0,0.015190972222222222,41.12196180555556,0)" xlink:href="#K"/><use transform="matrix(0.015190972222222222,0,0,0.015190972222222222,57.54340277777778,0)" xlink:href="#L"/><use transform="matrix(0.015190972222222222,0,0,0.015190972222222222,67.41753472222223,0)" xlink:href="#M"/><use transform="matrix(0.015190972222222222,0,0,0.015190972222222222,86.07204861111111,0)" xlink:href="#N"/><use transform="matrix(0.015190972222222222,0,0,0.015190972222222222,113.32465277777779,0)" xlink:href="#O"/><use transform="matrix(0.015190972222222222,0,0,0.015190972222222222,131.46267361111111,0)" xlink:href="#P"/></g><path fill="#3a414a" d="M783 20c-382 0-661-292-661-764 0-473 279-766 661-766 302 0 548 182 601 489h-190c-42-204-217-313-411-313-268 0-476 208-476 590 0 381 209 588 476 588 195 0 369-110 411-313h190c-52 303-296 489-601 489" id="Q"/><path fill="#3a414a" d="M613 24c-304 0-509-231-509-576 0-350 205-580 509-580 305 0 511 230 511 580 0 345-206 576-511 576zm0-161c226 0 329-195 329-415 0-222-103-419-329-419-223 0-326 196-326 419 0 220 103 415 326 415" id="R"/><path fill="#3a414a" d="M537 14c-226 0-379-139-379-422v-710h180v695c0 172 97 275 253 275 160 0 281-109 281-300v-670h181V0H879v-209C806-46 684 14 537 14" id="S"/><path fill="#3a414a" d="M158 0v-1118h174v172h12c41-113 157-188 290-188 26 0 70 2 91 3v181c-11-2-60-10-108-10-161 0-279 109-279 260V0H158" id="T"/><path fill="#3a414a" d="M158 0v-1118h180V0H158zm91-1301c-68 0-125-53-125-119s57-119 125-119c69 0 126 53 126 119s-57 119-126 119" id="U"/><path fill="#3a414a" d="M628 24c-324 0-524-230-524-574 0-343 198-582 503-582 237 0 487 146 487 559v75H286c9 234 145 362 343 362 132 0 231-58 273-172l174 48C1024-91 857 24 628 24zM287-650h624c-17-190-120-322-304-322-192 0-309 151-320 322" id="V"/><g id="b"><use transform="matrix(0.015190972222222222,0,0,0.015190972222222222,0,0)" xlink:href="#Q"/><use transform="matrix(0.015190972222222222,0,0,0.015190972222222222,22.725694444444443,0)" xlink:href="#R"/><use transform="matrix(0.015190972222222222,0,0,0.015190972222222222,41.38020833333333,0)" xlink:href="#S"/><use transform="matrix(0.015190972222222222,0,0,0.015190972222222222,59.77647569444444,0)" xlink:href="#T"/><use transform="matrix(0.015190972222222222,0,0,0.015190972222222222,71.97482638888889,0)" xlink:href="#U"/><use transform="matrix(0.015190972222222222,0,0,0.015190972222222222,79.50954861111111,0)" xlink:href="#V"/><use transform="matrix(0.015190972222222222,0,0,0.015190972222222222,97.64756944444444,0)" xlink:href="#T"/></g><path fill="#3a414a" d="M180 0v-1490h270l367 940c28 72 75 218 110 339 35-117 81-264 110-339l362-940h271V0h-187c2-448-5-837 7-1287-157 497-311 829-483 1287H842C666-458 514-784 354-1284c12 438 5 843 7 1284H180" id="W"/><path fill="#3a414a" d="M471 26C259 26 90-98 90-318c0-256 228-303 435-329 202-27 287-16 287-108 0-139-79-219-234-219-161 0-248 86-283 164l-173-57c86-203 278-265 451-265 150 0 419 46 419 395V0H815v-152h-12C765-73 660 26 471 26zm31-159c199 0 310-134 310-271v-155c-30 35-226 55-295 64-131 17-246 59-246 186 0 116 97 176 231 176" id="X"/><path fill="#3a414a" d="M338-670V0H158v-1118h173l1 207c72-158 192-221 342-221 226 0 378 139 378 422V0H872v-695c0-172-96-275-252-275-161 0-282 109-282 300" id="Y"/><path fill="#3a414a" d="M611 442c-248 0-391-105-460-228l146-94c47 65 117 165 314 165 178 0 307-82 307-266v-224h-17C863-141 792-18 576-18c-268 0-472-195-472-546 0-346 197-568 476-568 216 0 288 133 326 193h17v-179h175V29c0 289-215 413-487 413zm-5-620c203 0 314-146 314-390 0-237-108-403-314-403-213 0-319 180-319 403 0 230 109 390 319 390" id="Z"/><path fill="#3a414a" d="M158 0v-1118h175l1 205c55-151 181-225 313-225 147 0 245 90 285 228 53-141 190-228 352-228 194 0 352 125 352 384V0h-181v-749c0-161-105-225-225-225-151 0-243 103-243 244V0H807v-767c0-124-93-207-219-207-131 0-250 92-250 270V0H158" id="aa"/><path fill="#3a414a" d="M598-1118v154H368v674c0 100 37 144 132 144 23 0 62-6 92-12L629-6c-37 13-88 20-134 20-193 0-307-107-307-290v-688H20v-154h168v-266h180v266h230" id="ab"/><g id="c"><use transform="matrix(0.015190972222222222,0,0,0.015190972222222222,0,0)" xlink:href="#W"/><use transform="matrix(0.015190972222222222,0,0,0.015190972222222222,28.10329861111111,0)" xlink:href="#X"/><use transform="matrix(0.015190972222222222,0,0,0.015190972222222222,45.572916666666664,0)" xlink:href="#Y"/><use transform="matrix(0.015190972222222222,0,0,0.015190972222222222,63.95399305555556,0)" xlink:href="#X"/><use transform="matrix(0.015190972222222222,0,0,0.015190972222222222,81.42361111111111,0)" xlink:href="#Z"/><use transform="matrix(0.015190972222222222,0,0,0.015190972222222222,100.50347222222223,0)" xlink:href="#V"/><use transform="matrix(0.015190972222222222,0,0,0.015190972222222222,118.64149305555556,0)" xlink:href="#aa"/><use transform="matrix(0.015190972222222222,0,0,0.015190972222222222,145.89409722222223,0)" xlink:href="#V"/><use transform="matrix(0.015190972222222222,0,0,0.015190972222222222,164.03211805555557,0)" xlink:href="#Y"/><use transform="matrix(0.015190972222222222,0,0,0.015190972222222222,182.41319444444446,0)" xlink:href="#ab"/></g><path fill="#3a414a" d="M657 26c-323 0-524-166-541-416h195c15 169 171 246 346 246 202 0 356-106 356-265 5-203-294-238-475-293-239-73-380-191-380-389 0-252 224-419 512-419 294 0 499 171 508 396H992c-17-145-151-228-328-228-193 0-321 102-321 242 0 156 175 211 284 241l149 41c160 44 422 134 422 412 0 244-197 432-541 432" id="ac"/><path fill="#3a414a" d="M140 405l46-156c120 36 205 19 263-150l32-93L54-1118h197c107 313 237 620 324 950 87-331 219-637 326-950h196L606 167c-68 178-176 259-334 259-64 0-113-12-132-21" id="ad"/><path fill="#3a414a" d="M538 24C308 24 148-78 108-271l171-41c32 123 123 178 257 178 156 0 256-77 256-169 0-77-54-128-164-154l-186-44c-203-48-300-148-300-305 0-192 176-326 414-326 230 0 351 112 402 269l-163 42c-31-80-94-158-238-158-133 0-233 69-233 162 0 83 57 129 188 160l169 40c203 48 298 149 298 302 0 196-179 339-441 339" id="ae"/><g id="d"><use transform="matrix(0.015190972222222222,0,0,0.015190972222222222,0,0)" xlink:href="#ac"/><use transform="matrix(0.015190972222222222,0,0,0.015190972222222222,19.9609375,0)" xlink:href="#ad"/><use transform="matrix(0.015190972222222222,0,0,0.015190972222222222,37.44574652777778,0)" xlink:href="#ae"/><use transform="matrix(0.015190972222222222,0,0,0.015190972222222222,53.8671875,0)" xlink:href="#ab"/><use transform="matrix(0.015190972222222222,0,0,0.015190972222222222,63.74131944444444,0)" xlink:href="#V"/><use transform="matrix(0.015190972222222222,0,0,0.015190972222222222,81.87934027777777,0)" xlink:href="#aa"/></g><path fill="#e81313" d="M653-1490V0H466v-1314h-10L96-1047v-204l324-239h233" id="af"/><path fill="#e81313" d="M295 13c-75 0-135-60-135-135s60-135 135-135 135 60 135 135S370 13 295 13" id="ag"/><g id="e"><use transform="matrix(0.010850694444444444,0,0,0.010850694444444444,0,0)" xlink:href="#af"/><use transform="matrix(0.010850694444444444,0,0,0.010850694444444444,9.038628472222221,0)" xlink:href="#ag"/></g><path fill="#e81313" d="M180 0v-1490h510c348 0 508 194 508 460 0 198-88 351-276 417L1256 0h-220L726-579c-117 2-238 0-356 1V0H180zm190-747h312c235 0 327-108 327-283 0-177-92-293-329-293H370v576" id="ah"/><path fill="#e81313" d="M611 442c-248 0-391-105-460-228l146-94c47 65 117 165 314 165 178 0 307-82 307-266v-224h-17C863-141 792-18 576-18c-268 0-472-195-472-546 0-346 197-568 476-568 216 0 288 133 326 193h17v-179h175V29c0 289-215 413-487 413zm-5-620c203 0 314-146 314-390 0-237-108-403-314-403-213 0-319 180-319 403 0 230 109 390 319 390" id="ai"/><path fill="#e81313" d="M158 0v-1118h180V0H158zm91-1301c-68 0-125-53-125-119s57-119 125-119c69 0 126 53 126 119s-57 119-126 119" id="aj"/><g id="f"><use transform="matrix(0.010850694444444444,0,0,0.010850694444444444,0,0)" xlink:href="#ah"/><use transform="matrix(0.010850694444444444,0,0,0.010850694444444444,13.975694444444445,0)" xlink:href="#O"/><use transform="matrix(0.010850694444444444,0,0,0.010850694444444444,26.931423611111104,0)" xlink:href="#ai"/><use transform="matrix(0.010850694444444444,0,0,0.010850694444444444,40.55989583333333,0)" xlink:href="#aj"/><use transform="matrix(0.010850694444444444,0,0,0.010850694444444444,45.94184027777778,0)" xlink:href="#K"/><use transform="matrix(0.010850694444444444,0,0,0.010850694444444444,57.67144097222221,0)" xlink:href="#L"/><use transform="matrix(0.010850694444444444,0,0,0.010850694444444444,64.7243923611111,0)" xlink:href="#O"/><use transform="matrix(0.010850694444444444,0,0,0.010850694444444444,77.68012152777777,0)" xlink:href="#P"/></g><path fill="#e81313" d="M692-1560L212 224H46l480-1784h166" id="ak"/><use transform="matrix(0.010850694444444444,0,0,0.010850694444444444,0,0)" xlink:href="#ak" id="g"/><path fill="#e81313" d="M180 0v-1490h190v1322h690V0H180" id="al"/><path fill="#e81313" d="M338-670V0H158v-1118h173l1 207c72-158 192-221 342-221 226 0 378 139 378 422V0H872v-695c0-172-96-275-252-275-161 0-282 109-282 300" id="am"/><g id="h"><use transform="matrix(0.010850694444444444,0,0,0.010850694444444444,0,0)" xlink:href="#al"/><use transform="matrix(0.010850694444444444,0,0,0.010850694444444444,12.565104166666666,0)" xlink:href="#M"/><use transform="matrix(0.010850694444444444,0,0,0.010850694444444444,25.889756944444443,0)" xlink:href="#ai"/><use transform="matrix(0.010850694444444444,0,0,0.010850694444444444,39.518229166666664,0)" xlink:href="#aj"/><use transform="matrix(0.010850694444444444,0,0,0.010850694444444444,44.90017361111111,0)" xlink:href="#am"/></g><g id="i"><use transform="matrix(0.010850694444444444,0,0,0.010850694444444444,0,0)" xlink:href="#af"/><use transform="matrix(0.010850694444444444,0,0,0.010850694444444444,9.038628472222221,0)" xlink:href="#ag"/><use transform="matrix(0.010850694444444444,0,0,0.010850694444444444,13.51996527777778,0)" xlink:href="#af"/></g><path fill="#e81313" d="M657 26c-323 0-524-166-541-416h195c15 169 171 246 346 246 202 0 356-106 356-265 5-203-294-238-475-293-239-73-380-191-380-389 0-252 224-419 512-419 294 0 499 171 508 396H992c-17-145-151-228-328-228-193 0-321 102-321 242 0 156 175 211 284 241l149 41c160 44 422 134 422 412 0 244-197 432-541 432" id="an"/><path fill="#e81313" d="M613 24c-304 0-509-231-509-576 0-350 205-580 509-580 216 0 392 114 453 309l-173 49c-33-115-133-197-280-197-223 0-326 196-326 419 0 220 103 415 326 415 150 0 252-85 285-206l172 49C1010-95 832 24 613 24" id="ao"/><g id="j"><use transform="matrix(0.010850694444444444,0,0,0.010850694444444444,0,0)" xlink:href="#an"/><use transform="matrix(0.010850694444444444,0,0,0.010850694444444444,14.2578125,0)" xlink:href="#J"/><use transform="matrix(0.010850694444444444,0,0,0.010850694444444444,27.39800347222222,0)" xlink:href="#ao"/><use transform="matrix(0.010850694444444444,0,0,0.010850694444444444,40.09331597222222,0)" xlink:href="#ao"/><use transform="matrix(0.010850694444444444,0,0,0.010850694444444444,52.78862847222222,0)" xlink:href="#O"/><use transform="matrix(0.010850694444444444,0,0,0.010850694444444444,65.74435763888889,0)" xlink:href="#K"/><use transform="matrix(0.010850694444444444,0,0,0.010850694444444444,77.47395833333333,0)" xlink:href="#K"/></g><use transform="matrix(0.010850694444444444,0,0,0.010850694444444444,0,0)" xlink:href="#ak" id="k"/><path fill="#e81313" d="M180 0v-1490h908v168H370v486h669v168H370v500h727V0H180" id="ap"/><g id="l"><use transform="matrix(0.010850694444444444,0,0,0.010850694444444444,0,0)" xlink:href="#ap"/><use transform="matrix(0.010850694444444444,0,0,0.010850694444444444,13.35720486111111,0)" xlink:href="#P"/><use transform="matrix(0.010850694444444444,0,0,0.010850694444444444,22.0703125,0)" xlink:href="#P"/><use transform="matrix(0.010850694444444444,0,0,0.010850694444444444,30.06727430555556,0)" xlink:href="#M"/><use transform="matrix(0.010850694444444444,0,0,0.010850694444444444,43.391927083333336,0)" xlink:href="#P"/></g><path fill="#e81313" d="M154 0v-137l495-537c165-179 249-281 249-418 0-156-121-253-280-253-170 0-278 110-278 278H158c0-264 200-443 465-443 266 0 455 183 455 416 0 161-73 288-336 568L416-179v12h687V0H154" id="aq"/><g id="m"><use transform="matrix(0.010850694444444444,0,0,0.010850694444444444,0,0)" xlink:href="#aq"/><use transform="matrix(0.010850694444444444,0,0,0.010850694444444444,13.55251736111111,0)" xlink:href="#ag"/></g><path fill="#e81313" d="M180 0v-1490h528c311 0 458 177 458 395 0 191-114 278-244 313v14c139 9 302 137 302 371 0 225-148 397-499 397H180zm190-168h350c232 0 321-102 321-231 0-149-120-277-311-277H370v508zm0-668h328c160 0 286-101 286-255 0-129-87-231-280-231H370v486" id="ar"/><path fill="#e81313" d="M158 0v-1490h180v865h22l478-493h223L593-638 1096 0H865L456-523 338-412V0H158" id="as"/><g id="n"><use transform="matrix(0.010850694444444444,0,0,0.010850694444444444,0,0)" xlink:href="#ar"/><use transform="matrix(0.010850694444444444,0,0,0.010850694444444444,14.539930555555555,0)" xlink:href="#M"/><use transform="matrix(0.010850694444444444,0,0,0.010850694444444444,27.864583333333332,0)" xlink:href="#M"/><use transform="matrix(0.010850694444444444,0,0,0.010850694444444444,41.18923611111111,0)" xlink:href="#as"/></g><path fill="#e81313" d="M338-670V0H158v-1490h180v566c73-149 190-208 336-208 226 0 379 139 379 422V0H872v-695c0-172-96-275-252-275-161 0-282 109-282 300" id="at"/><path fill="#e81313" d="M158 418v-1536h174v179h20c37-59 106-193 324-193 279 0 474 222 474 576 0 356-194 580-473 580-213 0-288-135-325-197h-14v591H158zm492-555c209 0 317-186 317-421 0-232-105-413-317-413-206 0-314 166-314 413 0 249 111 421 314 421" id="au"/><g id="o"><use transform="matrix(0.010850694444444444,0,0,0.010850694444444444,0,0)" xlink:href="#an"/><use transform="matrix(0.010850694444444444,0,0,0.010850694444444444,14.2578125,0)" xlink:href="#at"/><use transform="matrix(0.010850694444444444,0,0,0.010850694444444444,27.39800347222222,0)" xlink:href="#aj"/><use transform="matrix(0.010850694444444444,0,0,0.010850694444444444,32.779947916666664,0)" xlink:href="#au"/><use transform="matrix(0.010850694444444444,0,0,0.010850694444444444,46.38671875,0)" xlink:href="#N"/><use transform="matrix(0.010850694444444444,0,0,0.010850694444444444,65.85286458333333,0)" xlink:href="#O"/><use transform="matrix(0.010850694444444444,0,0,0.010850694444444444,78.80859375,0)" xlink:href="#am"/><use transform="matrix(0.010850694444444444,0,0,0.010850694444444444,91.93793402777777,0)" xlink:href="#L"/></g><g id="p"><use transform="matrix(0.010850694444444444,0,0,0.010850694444444444,0,0)" xlink:href="#aq"/><use transform="matrix(0.010850694444444444,0,0,0.010850694444444444,13.55251736111111,0)" xlink:href="#ag"/><use transform="matrix(0.010850694444444444,0,0,0.010850694444444444,18.033854166666668,0)" xlink:href="#af"/></g><g id="q"><use transform="matrix(0.010850694444444444,0,0,0.010850694444444444,0,0)" xlink:href="#an"/><use transform="matrix(0.010850694444444444,0,0,0.010850694444444444,14.2578125,0)" xlink:href="#at"/><use transform="matrix(0.010850694444444444,0,0,0.010850694444444444,27.39800347222222,0)" xlink:href="#aj"/><use transform="matrix(0.010850694444444444,0,0,0.010850694444444444,32.779947916666664,0)" xlink:href="#au"/><use transform="matrix(0.010850694444444444,0,0,0.010850694444444444,46.38671875,0)" xlink:href="#N"/><use transform="matrix(0.010850694444444444,0,0,0.010850694444444444,65.85286458333333,0)" xlink:href="#O"/><use transform="matrix(0.010850694444444444,0,0,0.010850694444444444,78.80859375,0)" xlink:href="#am"/><use transform="matrix(0.010850694444444444,0,0,0.010850694444444444,91.93793402777777,0)" xlink:href="#L"/></g><path fill="#e81313" d="M471 26C259 26 90-98 90-318c0-256 228-303 435-329 202-27 287-16 287-108 0-139-79-219-234-219-161 0-248 86-283 164l-173-57c86-203 278-265 451-265 150 0 419 46 419 395V0H815v-152h-12C765-73 660 26 471 26zm31-159c199 0 310-134 310-271v-155c-30 35-226 55-295 64-131 17-246 59-246 186 0 116 97 176 231 176" id="av"/><path fill="#e81313" d="M577 24c-279 0-473-224-473-580 0-354 195-576 474-576 218 0 287 134 324 193h14v-551h180V0H922v-173h-20C865-111 790 24 577 24zm27-161c203 0 314-172 314-421 0-247-108-413-314-413-212 0-317 181-317 413 0 235 108 421 317 421" id="aw"/><g id="r"><use transform="matrix(0.010850694444444444,0,0,0.010850694444444444,0,0)" xlink:href="#I"/><use transform="matrix(0.010850694444444444,0,0,0.010850694444444444,16.23263888888889,0)" xlink:href="#P"/><use transform="matrix(0.010850694444444444,0,0,0.010850694444444444,24.229600694444443,0)" xlink:href="#O"/><use transform="matrix(0.010850694444444444,0,0,0.010850694444444444,37.40234375,0)" xlink:href="#av"/><use transform="matrix(0.010850694444444444,0,0,0.010850694444444444,49.88064236111111,0)" xlink:href="#L"/><use transform="matrix(0.010850694444444444,0,0,0.010850694444444444,56.93359375000001,0)" xlink:href="#O"/><use transform="matrix(0.010850694444444444,0,0,0.010850694444444444,69.88932291666667,0)" xlink:href="#aw"/></g><path fill="#e81313" d="M593-100v-404H195v-159h398v-403h169v403h398v159H762v404H593" id="ax"/><use transform="matrix(0.010850694444444444,0,0,0.010850694444444444,0,0)" xlink:href="#ax" id="s"/><g id="t"><use transform="matrix(0.010850694444444444,0,0,0.010850694444444444,0,0)" xlink:href="#I"/><use transform="matrix(0.010850694444444444,0,0,0.010850694444444444,16.23263888888889,0)" xlink:href="#M"/><use transform="matrix(0.010850694444444444,0,0,0.010850694444444444,29.557291666666664,0)" xlink:href="#K"/><use transform="matrix(0.010850694444444444,0,0,0.010850694444444444,41.28689236111111,0)" xlink:href="#L"/></g><path fill="#e81313" d="M635 20c-292 0-500-160-510-396h192c11 142 145 229 315 229 187 0 323-105 323-260 0-161-125-274-346-274H488v-165h121c174 0 294-100 294-254 0-148-104-245-266-245-152 0-291 85-297 230H157c8-234 222-395 484-395 278 0 448 188 448 400 0 168-95 291-247 336v12c190 31 301 169 301 357 0 244-216 425-508 425" id="ay"/><g id="u"><use transform="matrix(0.010850694444444444,0,0,0.010850694444444444,0,0)" xlink:href="#ay"/><use transform="matrix(0.010850694444444444,0,0,0.010850694444444444,13.226996527777777,0)" xlink:href="#ag"/></g><path fill="#e81313" d="M180 0v-1490h510c348 0 508 209 508 474 0 266-160 477-507 477H370V0H180zm190-706h312c236 0 327-133 327-310 0-176-91-307-329-307H370v617" id="az"/><path fill="#e81313" d="M140 405l46-156c120 36 205 19 263-150l32-93L54-1118h197c107 313 237 620 324 950 87-331 219-637 326-950h196L606 167c-68 178-176 259-334 259-64 0-113-12-132-21" id="aA"/><g id="v"><use transform="matrix(0.010850694444444444,0,0,0.010850694444444444,0,0)" xlink:href="#az"/><use transform="matrix(0.010850694444444444,0,0,0.010850694444444444,14.192708333333332,0)" xlink:href="#av"/><use transform="matrix(0.010850694444444444,0,0,0.010850694444444444,26.345486111111104,0)" xlink:href="#aA"/></g><g id="w"><use transform="matrix(0.010850694444444444,0,0,0.010850694444444444,0,0)" xlink:href="#an"/><use transform="matrix(0.010850694444444444,0,0,0.010850694444444444,14.2578125,0)" xlink:href="#at"/><use transform="matrix(0.010850694444444444,0,0,0.010850694444444444,27.39800347222222,0)" xlink:href="#aj"/><use transform="matrix(0.010850694444444444,0,0,0.010850694444444444,32.779947916666664,0)" xlink:href="#au"/><use transform="matrix(0.010850694444444444,0,0,0.010850694444444444,46.38671875,0)" xlink:href="#au"/><use transform="matrix(0.010850694444444444,0,0,0.010850694444444444,59.99348958333333,0)" xlink:href="#aj"/><use transform="matrix(0.010850694444444444,0,0,0.010850694444444444,65.37543402777777,0)" xlink:href="#am"/><use transform="matrix(0.010850694444444444,0,0,0.010850694444444444,78.50477430555554,0)" xlink:href="#ai"/></g><path fill="#e81313" d="M338-1490V0H158v-1490h180" id="aB"/><g id="x"><use transform="matrix(0.010850694444444444,0,0,0.010850694444444444,0,0)" xlink:href="#ar"/><use transform="matrix(0.010850694444444444,0,0,0.010850694444444444,14.539930555555555,0)" xlink:href="#aj"/><use transform="matrix(0.010850694444444444,0,0,0.010850694444444444,19.921875,0)" xlink:href="#aB"/><use transform="matrix(0.010850694444444444,0,0,0.010850694444444444,25.303819444444443,0)" xlink:href="#aB"/></g><g id="y"><use transform="matrix(0.010850694444444444,0,0,0.010850694444444444,0,0)" xlink:href="#ay"/><use transform="matrix(0.010850694444444444,0,0,0.010850694444444444,13.226996527777777,0)" xlink:href="#ag"/><use transform="matrix(0.010850694444444444,0,0,0.010850694444444444,17.708333333333332,0)" xlink:href="#af"/></g><g id="z"><use transform="matrix(0.010850694444444444,0,0,0.010850694444444444,0,0)" xlink:href="#az"/><use transform="matrix(0.010850694444444444,0,0,0.010850694444444444,14.192708333333332,0)" xlink:href="#av"/><use transform="matrix(0.010850694444444444,0,0,0.010850694444444444,26.345486111111104,0)" xlink:href="#aA"/><use transform="matrix(0.010850694444444444,0,0,0.010850694444444444,38.834635416666664,0)" xlink:href="#N"/><use transform="matrix(0.010850694444444444,0,0,0.010850694444444444,58.30078125,0)" xlink:href="#O"/><use transform="matrix(0.010850694444444444,0,0,0.010850694444444444,71.25651041666667,0)" xlink:href="#am"/><use transform="matrix(0.010850694444444444,0,0,0.010850694444444444,84.38585069444444,0)" xlink:href="#L"/></g><path fill="#e81313" d="M678-1118v154H420V0H240v-964H20v-154h220v-149c0-194 155-293 318-293 85 0 141 18 168 30l-50 154c-19-6-47-17-97-17-111 0-159 58-159 166v109h258" id="aC"/><g id="A"><use transform="matrix(0.010850694444444444,0,0,0.010850694444444444,0,0)" xlink:href="#I"/><use transform="matrix(0.010850694444444444,0,0,0.010850694444444444,16.23263888888889,0)" xlink:href="#M"/><use transform="matrix(0.010850694444444444,0,0,0.010850694444444444,29.557291666666664,0)" xlink:href="#am"/><use transform="matrix(0.010850694444444444,0,0,0.010850694444444444,42.68663194444444,0)" xlink:href="#aC"/><use transform="matrix(0.010850694444444444,0,0,0.010850694444444444,50.91145833333333,0)" xlink:href="#aj"/><use transform="matrix(0.010850694444444444,0,0,0.010850694444444444,56.29340277777778,0)" xlink:href="#P"/><use transform="matrix(0.010850694444444444,0,0,0.010850694444444444,65.00651041666666,0)" xlink:href="#N"/><use transform="matrix(0.010850694444444444,0,0,0.010850694444444444,84.47265624999999,0)" xlink:href="#av"/><use transform="matrix(0.010850694444444444,0,0,0.010850694444444444,96.95095486111111,0)" xlink:href="#L"/><use transform="matrix(0.010850694444444444,0,0,0.010850694444444444,104.22092013888887,0)" xlink:href="#aj"/><use transform="matrix(0.010850694444444444,0,0,0.010850694444444444,109.60286458333331,0)" xlink:href="#M"/><use transform="matrix(0.010850694444444444,0,0,0.010850694444444444,122.92751736111109,0)" xlink:href="#am"/></g><path fill="#e81313" d="M180 0v-1490h901v168H370v510h643v168H370V0H180" id="aD"/><g id="B"><use transform="matrix(0.010850694444444444,0,0,0.010850694444444444,0,0)" xlink:href="#aD"/><use transform="matrix(0.010850694444444444,0,0,0.010850694444444444,12.57595486111111,0)" xlink:href="#av"/><use transform="matrix(0.010850694444444444,0,0,0.010850694444444444,25.05425347222222,0)" xlink:href="#aj"/><use transform="matrix(0.010850694444444444,0,0,0.010850694444444444,30.436197916666664,0)" xlink:href="#aB"/><use transform="matrix(0.010850694444444444,0,0,0.010850694444444444,35.81814236111111,0)" xlink:href="#O"/><use transform="matrix(0.010850694444444444,0,0,0.010850694444444444,48.77387152777778,0)" xlink:href="#aw"/></g><path fill="#e81313" d="M120-303v-155l652-1032h231v1020h202v167h-202V0H821v-303H120zm702-167v-782h-12L323-482v12h499" id="aE"/><g id="C"><use transform="matrix(0.010850694444444444,0,0,0.010850694444444444,0,0)" xlink:href="#aE"/><use transform="matrix(0.010850694444444444,0,0,0.010850694444444444,13.606770833333332,0)" xlink:href="#ag"/></g><path fill="#e81313" d="M98-1322v-168h1126v168H757V0H567v-1322H98" id="aF"/><g id="D"><use transform="matrix(0.010850694444444444,0,0,0.010850694444444444,0,0)" xlink:href="#aF"/><use transform="matrix(0.010850694444444444,0,0,0.010850694444444444,13.0859375,0)" xlink:href="#P"/><use transform="matrix(0.010850694444444444,0,0,0.010850694444444444,21.451822916666664,0)" xlink:href="#av"/><use transform="matrix(0.010850694444444444,0,0,0.010850694444444444,33.93012152777777,0)" xlink:href="#ao"/><use transform="matrix(0.010850694444444444,0,0,0.010850694444444444,46.62543402777778,0)" xlink:href="#as"/></g><g id="E"><use transform="matrix(0.010850694444444444,0,0,0.010850694444444444,0,0)" xlink:href="#az"/><use transform="matrix(0.010850694444444444,0,0,0.010850694444444444,14.192708333333332,0)" xlink:href="#av"/><use transform="matrix(0.010850694444444444,0,0,0.010850694444444444,26.671006944444443,0)" xlink:href="#P"/><use transform="matrix(0.010850694444444444,0,0,0.010850694444444444,34.66796875,0)" xlink:href="#ao"/><use transform="matrix(0.010850694444444444,0,0,0.010850694444444444,47.36328125,0)" xlink:href="#O"/><use transform="matrix(0.010850694444444444,0,0,0.010850694444444444,60.319010416666664,0)" xlink:href="#aB"/></g><g id="F"><use transform="matrix(0.010850694444444444,0,0,0.010850694444444444,0,0)" xlink:href="#aE"/><use transform="matrix(0.010850694444444444,0,0,0.010850694444444444,13.606770833333332,0)" xlink:href="#ag"/><use transform="matrix(0.010850694444444444,0,0,0.010850694444444444,18.08810763888889,0)" xlink:href="#af"/></g><g id="G"><use transform="matrix(0.010850694444444444,0,0,0.010850694444444444,0,0)" xlink:href="#al"/><use transform="matrix(0.010850694444444444,0,0,0.010850694444444444,12.565104166666666,0)" xlink:href="#M"/><use transform="matrix(0.010850694444444444,0,0,0.010850694444444444,25.889756944444443,0)" xlink:href="#ao"/><use transform="matrix(0.010850694444444444,0,0,0.010850694444444444,38.80208333333333,0)" xlink:href="#av"/><use transform="matrix(0.010850694444444444,0,0,0.010850694444444444,51.28038194444444,0)" xlink:href="#L"/><use transform="matrix(0.010850694444444444,0,0,0.010850694444444444,58.55034722222222,0)" xlink:href="#aj"/><use transform="matrix(0.010850694444444444,0,0,0.010850694444444444,63.932291666666664,0)" xlink:href="#M"/><use transform="matrix(0.010850694444444444,0,0,0.010850694444444444,77.25694444444444,0)" xlink:href="#am"/></g><g id="H"><use transform="matrix(0.010850694444444444,0,0,0.010850694444444444,0,0)" xlink:href="#an"/><use transform="matrix(0.010850694444444444,0,0,0.010850694444444444,14.2578125,0)" xlink:href="#L"/><use transform="matrix(0.010850694444444444,0,0,0.010850694444444444,21.63628472222222,0)" xlink:href="#av"/><use transform="matrix(0.010850694444444444,0,0,0.010850694444444444,34.11458333333333,0)" xlink:href="#L"/><use transform="matrix(0.010850694444444444,0,0,0.010850694444444444,41.38454861111111,0)" xlink:href="#J"/><use transform="matrix(0.010850694444444444,0,0,0.010850694444444444,54.52473958333333,0)" xlink:href="#K"/></g></defs></g></svg>