<svg xmlns="http://www.w3.org/2000/svg" xmlns:xlink="http://www.w3.org/1999/xlink" xmlns:lucid="lucid" width="863.37" height="963"><g transform="translate(132.37065972222223 181)" lucid:page-tab-id="0_0"><path d="M-29.97-82.53v7.87m0 15.73v15.73m0 15.73v15.73m0 15.73V19.7m0 15.73v15.73m0 15.74v15.73m0 15.73v15.73m0 15.74v15.73m0 15.73v15.73m0 15.73v15.73m0 15.72v15.73m0 15.73v15.74m0 15.72v15.74m0 15.73v7.87a1.86 1.86 0 0 0 1.86 1.86 1.86 1.86 0 0 1 1.86 1.87v7.76m0 15.53V369m0 15.54v15.53m0 15.52v15.53m0 15.53v15.53m0 15.54v15.53m0 15.53v15.53m0 15.53v15.53m0 15.53v15.53m0 15.53v15.52m0 15.53v15.53m0 15.53v15.54m0 15.53v15.53m0 15.53V734a6 6 0 0 1-6 6H-38M-30.83-83.33h5.05M-37.95 740H-40M625 3v9.03m0 18.06v9.02a1.88 1.88 0 0 0 1.88 1.88 1.88 1.88 0 0 1 1.88 1.88v7.88m0 15.78V82.3m0 15.8v15.76m0 15.78v15.77m0 15.8v15.76m0 15.78v15.77m0 15.78v15.78m0 15.77v15.78m0 15.78v15.78m0 15.77v15.78m0 15.78v15.78m0 15.77v15.78m0 15.78v15.77m0 15.78v15.77m0 15.78v15.77m0 15.78V524m0 15.78v15.77m0 15.78v15.77m0 15.77v15.78m0 15.77v15.78m0 15.77v15.78m0 15.77v15.78m0 15.77v15.78m0 15.77v7.9" stroke="#3a414a" stroke-width="4" fill="none"/><path d="M626.98 3.05H623V1H627z" stroke="#3a414a" stroke-width=".05" fill="#3a414a"/><path d="M635.47 775.37l-13.3-6.95 6.64-6.48z" stroke="#3a414a" stroke-width="4" fill="#3a414a"/><path d="M-7.47 175.54H588.4" stroke="#3a414a" stroke-width="3" fill="none"/><path d="M-7.43 177h-1.54v-2.94h1.54z" stroke="#3a414a" stroke-width=".05" fill="#3a414a"/><path d="M604.17 175.54l-14.26 4.64v-9.28z" stroke="#3a414a" stroke-width="3" fill="#3a414a"/><path d="M6.02 115.67a6 6 0 0 1 6-6h67.64a6 6 0 0 1 6 6v30.27a6 6 0 0 1-6 6H12.02a6 6 0 0 1-6-6z" fill="none"/><use xlink:href="#a" transform="matrix(1,0,0,1,11.017250807845699,114.66666666666666) translate(0 26.200520833333336)"/><path d="M628.75 239.55v.52a6 6 0 0 1-6 6h-6.1m-12.23 0H592.2m-12.22 0h-12.23m-12.22 0H543.3m-12.2 0h-12.23m-12.23 0h-12.22m-12.22 0h-12.22m-12.22 0h-12.23m-12.22 0h-12.2m-12.23 0h-12.23m-12.22 0H372.2m-12.22 0h-12.22m-12.22 0H323.3m-12.2 0h-12.23m-12.22 0h-12.23m-12.22 0h-12.22m-12.22 0h-12.22m-12.23 0h-12.2m-12.23 0h-12.22m-12.22 0H152.2m-12.22 0h-12.22m-12.22 0H103.3m-12.2 0H78.86m-12.22 0H54.43m-12.23 0H29.98m-12.22 0h-6.1M628.75 239.6v-1.55" stroke="#3a414a" stroke-width="3" fill="none"/><path d="M-4.12 246.07l14.27-4.64v9.27z" stroke="#3a414a" stroke-width="3" fill="#3a414a"/><path d="M6.02 195.67a6 6 0 0 1 6-6H203.8a6 6 0 0 1 6 6v30.27a6 6 0 0 1-6 6H12a6 6 0 0 1-6-6z" fill="none"/><use xlink:href="#b" transform="matrix(1,0,0,1,11.017250807845699,194.66666666666666) translate(0 26.200520833333336)"/><use xlink:href="#c" transform="matrix(1,0,0,1,11.017250807845699,194.66666666666666) translate(114.54427083333333 26.200520833333336)"/><use xlink:href="#d" transform="matrix(1,0,0,1,11.017250807845699,194.66666666666666) translate(131.65364583333331 26.200520833333336)"/><path d="M-7.47 335.54H588.4" stroke="#3a414a" stroke-width="3" fill="none"/><path d="M-7.43 337h-1.54v-2.94h1.54z" stroke="#3a414a" stroke-width=".05" fill="#3a414a"/><path d="M604.17 335.54l-14.26 4.63v-9.27z" stroke="#3a414a" stroke-width="3" fill="#3a414a"/><path d="M6.02 275.67a6 6 0 0 1 6-6h324.6a6 6 0 0 1 6 6v30.27a6 6 0 0 1-6 6H12.03a6 6 0 0 1-6-6z" fill="none"/><use xlink:href="#e" transform="matrix(1,0,0,1,11.017250807845699,274.66666666666663) translate(0 26.200520833333336)"/><use xlink:href="#f" transform="matrix(1,0,0,1,11.017250807845699,274.66666666666663) translate(69.24479166666667 26.200520833333336)"/><use xlink:href="#g" transform="matrix(1,0,0,1,11.017250807845699,274.66666666666663) translate(193.73697916666669 26.200520833333336)"/><path d="M628.75 446.7v-7.96m0-15.95v-8a6 6 0 0 0-6-6h-5.9m-11.8 0h-11.8m-11.82 0h-11.8m-11.8 0H546m-11.8 0h-11.8m-11.8 0h-11.82m-11.8 0h-11.8m-11.82 0h-11.8m-11.8 0h-11.82m-11.8 0H404.3m-11.8 0h-11.8m-11.82 0h-11.8m-11.8 0h-11.82m-11.8 0h-11.8m-11.82 0h-11.8m-11.8 0h-11.82m-11.8 0h-11.8m-11.82 0h-11.8m-11.82 0h-11.8m-11.8 0h-11.82m-11.8 0h-11.8m-11.82 0h-11.8m-11.8 0H97.33m-11.8 0h-11.8m-11.82 0h-11.8m-11.8 0h-5.92a1.37 1.37 0 0 1-1.37-1.36 1.37 1.37 0 0 0-1.37-1.37h-4.5m-9 0h-4.5M628.75 446.68v1.53" stroke="#3a414a" stroke-width="3" fill="none"/><path d="M-4.12 406.07l14.27-4.64v9.27z" stroke="#3a414a" stroke-width="3" fill="#3a414a"/><path d="M6.02 355.67a6 6 0 0 1 6-6h168.9a6 6 0 0 1 6 6v30.27a6 6 0 0 1-6 6H12a6 6 0 0 1-6-6z" fill="none"/><use xlink:href="#h" transform="matrix(1,0,0,1,11.017250807845699,354.66666666666663) translate(0 26.200520833333336)"/><use xlink:href="#i" transform="matrix(1,0,0,1,11.017250807845699,354.66666666666663) translate(126.54947916666666 26.200520833333336)"/><path d="M-7.47 508.76H588.4" stroke="#3a414a" stroke-width="3" fill="none"/><path d="M-7.43 510.23h-1.54v-2.95h1.54z" stroke="#3a414a" stroke-width=".05" fill="#3a414a"/><path d="M604.17 508.76l-14.26 4.63v-9.28z" stroke="#3a414a" stroke-width="3" fill="#3a414a"/><path d="M6.02 455.67a6 6 0 0 1 6-6h397.96a6 6 0 0 1 6 6v30.27a6 6 0 0 1-6 6H12.02a6 6 0 0 1-6-6z" fill="none"/><use xlink:href="#j" transform="matrix(1,0,0,1,11.017250807845699,454.66666666666663) translate(0 26.200520833333336)"/><use xlink:href="#k" transform="matrix(1,0,0,1,11.017250807845699,454.66666666666663) translate(116.3671875 26.200520833333336)"/><use xlink:href="#l" transform="matrix(1,0,0,1,11.017250807845699,454.66666666666663) translate(227.03125 26.200520833333336)"/><use xlink:href="#m" transform="matrix(1,0,0,1,11.017250807845699,454.66666666666663) translate(244.2578125 26.200520833333336)"/><use xlink:href="#n" transform="matrix(1,0,0,1,11.017250807845699,454.66666666666663) translate(308.4244791666667 26.200520833333336)"/><use xlink:href="#o" transform="matrix(1,0,0,1,11.017250807845699,454.66666666666663) translate(323.60677083333337 26.200520833333336)"/><use xlink:href="#p" transform="matrix(1,0,0,1,11.017250807845699,454.66666666666663) translate(390.22135416666674 26.200520833333336)"/><path d="M628.75 504.6v6.5m0 13.03v13.02m0 13v13.03m0 13.02v6.5a6 6 0 0 1-6 6h-6.1m-12.23 0H592.2m-12.22 0h-12.23m-12.22 0H543.3m-12.2 0h-12.23m-12.23 0h-12.22m-12.22 0h-12.22m-12.22 0h-12.23m-12.22 0h-12.2m-12.23 0h-12.23m-12.22 0H372.2m-12.22 0h-12.22m-12.22 0H323.3m-12.2 0h-12.23m-12.22 0h-12.23m-12.22 0h-12.22m-12.22 0h-12.22m-12.23 0h-12.2m-12.23 0h-12.22m-12.22 0H152.2m-12.22 0h-12.22m-12.22 0H103.3m-12.2 0H78.86m-12.22 0H54.43m-12.23 0H29.98m-12.22 0h-6.1M628.75 504.64v-1.54" stroke="#3a414a" stroke-width="3" fill="none"/><path d="M-4.12 588.7l14.27-4.62v9.27z" stroke="#3a414a" stroke-width="3" fill="#3a414a"/><path d="M8.62 535.67a6 6 0 0 1 6-6h241.92a6 6 0 0 1 6 6v30.27a6 6 0 0 1-6 6H14.62a6 6 0 0 1-6-6z" fill="none"/><use xlink:href="#q" transform="matrix(1,0,0,1,13.619247335623413,534.6666666666666) translate(0 26.200520833333336)"/><use xlink:href="#r" transform="matrix(1,0,0,1,13.619247335623413,534.6666666666666) translate(110.66406250000001 26.200520833333336)"/><path d="M-49.97 149.63a6 6 0 0 1 6-6h28a6 6 0 0 1 6 6v122.35a6 6 0 0 1-6 6h-28a6 6 0 0 1-6-6zM-49.97 309.63a6 6 0 0 1 6-6h28a6 6 0 0 1 6 6v122.35a6 6 0 0 1-6 6h-28a6 6 0 0 1-6-6zM-49.97 480.17a6 6 0 0 1 6-6h28a6 6 0 0 1 6 6V602.5a6 6 0 0 1-6 6h-28a6 6 0 0 1-6-6zM610.03 115.67a6 6 0 0 1 6-6H654a6 6 0 0 1 6 6V694a6 6 0 0 1-6 6h-37.97a6 6 0 0 1-6-6z" stroke="#000" stroke-width="2"/><path d="M-48.53-160.05v-.2A19.75 19.75 0 0 1-28.78-180a19.75 19.75 0 0 1 19.75 19.75 19.75 19.75 0 0 1-19.75 19.75 19.75 19.75 0 0 1-19.75-19.75v-.2" stroke="#000" stroke-width="2" fill="#fff"/><path d="M-68.78-174a6 6 0 0 1 6-6h68a6 6 0 0 1 6 6v146a6 6 0 0 1-6 6h-68a6 6 0 0 1-6-6z" fill="none"/><path d="M-28.78-140.5v55.3l40 63.2m-40-63.2l-40 63.2m0-98.75h80" stroke="#000" stroke-width="2" fill="none"/><g><use xlink:href="#s" transform="matrix(1,0,0,1,-148.77582465277777,-22) translate(16.405164930555543 30.13888888888889)"/><use xlink:href="#t" transform="matrix(1,0,0,1,-148.77582465277777,-22) translate(150.146484375 30.13888888888889)"/></g><path d="M520-174a6 6 0 0 1 6-6h198a6 6 0 0 1 6 6V-6a6 6 0 0 1-6 6H526a6 6 0 0 1-6-6z" stroke="#000" stroke-width="2" fill="#fff"/><g><use xlink:href="#u" transform="matrix(1,0,0,1,520,-180) translate(64.29319444444445 57.73871527777778)"/><use xlink:href="#v" transform="matrix(1,0,0,1,520,-180) translate(33.45009548611112 98.07074652777777)"/><use xlink:href="#w" transform="matrix(1,0,0,1,520,-180) translate(64.09788194444444 138.40277777777777)"/></g><defs><path fill="#1071e5" d="M180 0v-1490h190v1322h690V0H180" id="x"/><path fill="#1071e5" d="M613 24c-304 0-509-231-509-576 0-350 205-580 509-580 305 0 511 230 511 580 0 345-206 576-511 576zm0-161c226 0 329-195 329-415 0-222-103-419-329-419-223 0-326 196-326 419 0 220 103 415 326 415" id="y"/><path fill="#1071e5" d="M611 442c-248 0-391-105-460-228l146-94c47 65 117 165 314 165 178 0 307-82 307-266v-224h-17C863-141 792-18 576-18c-268 0-472-195-472-546 0-346 197-568 476-568 216 0 288 133 326 193h17v-179h175V29c0 289-215 413-487 413zm-5-620c203 0 314-146 314-390 0-237-108-403-314-403-213 0-319 180-319 403 0 230 109 390 319 390" id="z"/><path fill="#1071e5" d="M158 0v-1118h180V0H158zm91-1301c-68 0-125-53-125-119s57-119 125-119c69 0 126 53 126 119s-57 119-126 119" id="A"/><path fill="#1071e5" d="M338-670V0H158v-1118h173l1 207c72-158 192-221 342-221 226 0 378 139 378 422V0H872v-695c0-172-96-275-252-275-161 0-282 109-282 300" id="B"/><g id="a"><use transform="matrix(0.013020833333333334,0,0,0.013020833333333334,0,0)" xlink:href="#x"/><use transform="matrix(0.013020833333333334,0,0,0.013020833333333334,15.078125,0)" xlink:href="#y"/><use transform="matrix(0.013020833333333334,0,0,0.013020833333333334,31.067708333333336,0)" xlink:href="#z"/><use transform="matrix(0.013020833333333334,0,0,0.013020833333333334,47.421875,0)" xlink:href="#A"/><use transform="matrix(0.013020833333333334,0,0,0.013020833333333334,53.880208333333336,0)" xlink:href="#B"/></g><path fill="#1071e5" d="M657 26c-323 0-524-166-541-416h195c15 169 171 246 346 246 202 0 356-106 356-265 5-203-294-238-475-293-239-73-380-191-380-389 0-252 224-419 512-419 294 0 499 171 508 396H992c-17-145-151-228-328-228-193 0-321 102-321 242 0 156 175 211 284 241l149 41c160 44 422 134 422 412 0 244-197 432-541 432" id="C"/><path fill="#1071e5" d="M537 14c-226 0-379-139-379-422v-710h180v695c0 172 97 275 253 275 160 0 281-109 281-300v-670h181V0H879v-209C806-46 684 14 537 14" id="D"/><path fill="#1071e5" d="M613 24c-304 0-509-231-509-576 0-350 205-580 509-580 216 0 392 114 453 309l-173 49c-33-115-133-197-280-197-223 0-326 196-326 419 0 220 103 415 326 415 150 0 252-85 285-206l172 49C1010-95 832 24 613 24" id="E"/><path fill="#1071e5" d="M628 24c-324 0-524-230-524-574 0-343 198-582 503-582 237 0 487 146 487 559v75H286c9 234 145 362 343 362 132 0 231-58 273-172l174 48C1024-91 857 24 628 24zM287-650h624c-17-190-120-322-304-322-192 0-309 151-320 322" id="F"/><path fill="#1071e5" d="M538 24C308 24 148-78 108-271l171-41c32 123 123 178 257 178 156 0 256-77 256-169 0-77-54-128-164-154l-186-44c-203-48-300-148-300-305 0-192 176-326 414-326 230 0 351 112 402 269l-163 42c-31-80-94-158-238-158-133 0-233 69-233 162 0 83 57 129 188 160l169 40c203 48 298 149 298 302 0 196-179 339-441 339" id="G"/><g id="b"><use transform="matrix(0.013020833333333334,0,0,0.013020833333333334,0,0)" xlink:href="#C"/><use transform="matrix(0.013020833333333334,0,0,0.013020833333333334,17.109375,0)" xlink:href="#D"/><use transform="matrix(0.013020833333333334,0,0,0.013020833333333334,32.87760416666667,0)" xlink:href="#E"/><use transform="matrix(0.013020833333333334,0,0,0.013020833333333334,48.11197916666667,0)" xlink:href="#E"/><use transform="matrix(0.013020833333333334,0,0,0.013020833333333334,63.34635416666667,0)" xlink:href="#F"/><use transform="matrix(0.013020833333333334,0,0,0.013020833333333334,78.89322916666667,0)" xlink:href="#G"/><use transform="matrix(0.013020833333333334,0,0,0.013020833333333334,92.96875,0)" xlink:href="#G"/></g><path fill="#1071e5" d="M692-1560L212 224H46l480-1784h166" id="H"/><use transform="matrix(0.013020833333333334,0,0,0.013020833333333334,0,0)" xlink:href="#H" id="c"/><path fill="#1071e5" d="M180 0v-1490h908v168H370v486h669v168H370v500h727V0H180" id="I"/><path fill="#1071e5" d="M158 0v-1118h174v172h12c41-113 157-188 290-188 26 0 70 2 91 3v181c-11-2-60-10-108-10-161 0-279 109-279 260V0H158" id="J"/><g id="d"><use transform="matrix(0.013020833333333334,0,0,0.013020833333333334,0,0)" xlink:href="#I"/><use transform="matrix(0.013020833333333334,0,0,0.013020833333333334,16.028645833333336,0)" xlink:href="#J"/><use transform="matrix(0.013020833333333334,0,0,0.013020833333333334,26.484375000000004,0)" xlink:href="#J"/><use transform="matrix(0.013020833333333334,0,0,0.013020833333333334,36.08072916666667,0)" xlink:href="#y"/><use transform="matrix(0.013020833333333334,0,0,0.013020833333333334,52.07031250000001,0)" xlink:href="#J"/></g><path fill="#1071e5" d="M600 0L52-1490h200c166 485 304 806 458 1336 156-533 285-846 449-1336h202L819 0H600" id="K"/><path fill="#1071e5" d="M409 0L70-1118h191c89 329 165 560 243 925 75-353 154-601 240-925h192c85 325 161 564 235 922 77-354 157-598 244-922h191L1267 0h-179c-86-307-176-590-250-913C763-588 675-308 588 0H409" id="L"/><g id="e"><use transform="matrix(0.013020833333333334,0,0,0.013020833333333334,0,0)" xlink:href="#K"/><use transform="matrix(0.013020833333333334,0,0,0.013020833333333334,18.3984375,0)" xlink:href="#A"/><use transform="matrix(0.013020833333333334,0,0,0.013020833333333334,24.856770833333336,0)" xlink:href="#F"/><use transform="matrix(0.013020833333333334,0,0,0.013020833333333334,39.921875,0)" xlink:href="#L"/></g><path fill="#1071e5" d="M52 0l541-1490h220L1361 0h-200l-149-416H398L254 0H52zm404-582h497c-103-290-145-390-251-756-108 377-145 460-246 756" id="M"/><path fill="#1071e5" d="M577 24c-279 0-473-224-473-580 0-354 195-576 474-576 218 0 287 134 324 193h14v-551h180V0H922v-173h-20C865-111 790 24 577 24zm27-161c203 0 314-172 314-421 0-247-108-413-314-413-212 0-317 181-317 413 0 235 108 421 317 421" id="N"/><g id="f"><use transform="matrix(0.013020833333333334,0,0,0.013020833333333334,0,0)" xlink:href="#M"/><use transform="matrix(0.013020833333333334,0,0,0.013020833333333334,18.3984375,0)" xlink:href="#G"/><use transform="matrix(0.013020833333333334,0,0,0.013020833333333334,32.473958333333336,0)" xlink:href="#G"/><use transform="matrix(0.013020833333333334,0,0,0.013020833333333334,46.54947916666667,0)" xlink:href="#A"/><use transform="matrix(0.013020833333333334,0,0,0.013020833333333334,53.00781250000001,0)" xlink:href="#z"/><use transform="matrix(0.013020833333333334,0,0,0.013020833333333334,69.36197916666667,0)" xlink:href="#B"/><use transform="matrix(0.013020833333333334,0,0,0.013020833333333334,85.1171875,0)" xlink:href="#F"/><use transform="matrix(0.013020833333333334,0,0,0.013020833333333334,100.6640625,0)" xlink:href="#N"/></g><path fill="#1071e5" d="M338-670V0H158v-1490h180v566c73-149 190-208 336-208 226 0 379 139 379 422V0H872v-695c0-172-96-275-252-275-161 0-282 109-282 300" id="O"/><path fill="#1071e5" d="M158 418v-1536h174v179h20c37-59 106-193 324-193 279 0 474 222 474 576 0 356-194 580-473 580-213 0-288-135-325-197h-14v591H158zm492-555c209 0 317-186 317-421 0-232-105-413-317-413-206 0-314 166-314 413 0 249 111 421 314 421" id="P"/><path fill="#1071e5" d="M158 0v-1118h175l1 205c55-151 181-225 313-225 147 0 245 90 285 228 53-141 190-228 352-228 194 0 352 125 352 384V0h-181v-749c0-161-105-225-225-225-151 0-243 103-243 244V0H807v-767c0-124-93-207-219-207-131 0-250 92-250 270V0H158" id="Q"/><path fill="#1071e5" d="M598-1118v154H368v674c0 100 37 144 132 144 23 0 62-6 92-12L629-6c-37 13-88 20-134 20-193 0-307-107-307-290v-688H20v-154h168v-266h180v266h230" id="R"/><g id="g"><use transform="matrix(0.013020833333333334,0,0,0.013020833333333334,0,0)" xlink:href="#C"/><use transform="matrix(0.013020833333333334,0,0,0.013020833333333334,17.109375,0)" xlink:href="#O"/><use transform="matrix(0.013020833333333334,0,0,0.013020833333333334,32.87760416666667,0)" xlink:href="#A"/><use transform="matrix(0.013020833333333334,0,0,0.013020833333333334,39.33593750000001,0)" xlink:href="#P"/><use transform="matrix(0.013020833333333334,0,0,0.013020833333333334,55.6640625,0)" xlink:href="#Q"/><use transform="matrix(0.013020833333333334,0,0,0.013020833333333334,79.0234375,0)" xlink:href="#F"/><use transform="matrix(0.013020833333333334,0,0,0.013020833333333334,94.5703125,0)" xlink:href="#B"/><use transform="matrix(0.013020833333333334,0,0,0.013020833333333334,110.32552083333334,0)" xlink:href="#R"/><use transform="matrix(0.013020833333333334,0,0,0.013020833333333334,118.78906249999999,0)" xlink:href="#G"/></g><g id="h"><use transform="matrix(0.013020833333333334,0,0,0.013020833333333334,0,0)" xlink:href="#C"/><use transform="matrix(0.013020833333333334,0,0,0.013020833333333334,17.109375,0)" xlink:href="#O"/><use transform="matrix(0.013020833333333334,0,0,0.013020833333333334,32.87760416666667,0)" xlink:href="#A"/><use transform="matrix(0.013020833333333334,0,0,0.013020833333333334,39.33593750000001,0)" xlink:href="#P"/><use transform="matrix(0.013020833333333334,0,0,0.013020833333333334,55.6640625,0)" xlink:href="#Q"/><use transform="matrix(0.013020833333333334,0,0,0.013020833333333334,79.0234375,0)" xlink:href="#F"/><use transform="matrix(0.013020833333333334,0,0,0.013020833333333334,94.5703125,0)" xlink:href="#B"/><use transform="matrix(0.013020833333333334,0,0,0.013020833333333334,110.32552083333334,0)" xlink:href="#R"/></g><g id="i"><use transform="matrix(0.013020833333333334,0,0,0.013020833333333334,0,0)" xlink:href="#x"/><use transform="matrix(0.013020833333333334,0,0,0.013020833333333334,15.078125,0)" xlink:href="#A"/><use transform="matrix(0.013020833333333334,0,0,0.013020833333333334,21.536458333333336,0)" xlink:href="#G"/><use transform="matrix(0.013020833333333334,0,0,0.013020833333333334,35.61197916666667,0)" xlink:href="#R"/></g><path fill="#1071e5" d="M783 20c-382 0-661-292-661-764 0-473 279-766 661-766 302 0 548 182 601 489h-190c-42-204-217-313-411-313-268 0-476 208-476 590 0 381 209 588 476 588 195 0 369-110 411-313h190c-52 303-296 489-601 489" id="S"/><path fill="#1071e5" d="M678-1118v154H420V0H240v-964H20v-154h220v-149c0-194 155-293 318-293 85 0 141 18 168 30l-50 154c-19-6-47-17-97-17-111 0-159 58-159 166v109h258" id="T"/><g id="j"><use transform="matrix(0.013020833333333334,0,0,0.013020833333333334,0,0)" xlink:href="#S"/><use transform="matrix(0.013020833333333334,0,0,0.013020833333333334,19.479166666666668,0)" xlink:href="#y"/><use transform="matrix(0.013020833333333334,0,0,0.013020833333333334,35.46875,0)" xlink:href="#B"/><use transform="matrix(0.013020833333333334,0,0,0.013020833333333334,51.223958333333336,0)" xlink:href="#T"/><use transform="matrix(0.013020833333333334,0,0,0.013020833333333334,61.09375,0)" xlink:href="#A"/><use transform="matrix(0.013020833333333334,0,0,0.013020833333333334,67.55208333333333,0)" xlink:href="#J"/><use transform="matrix(0.013020833333333334,0,0,0.013020833333333334,78.0078125,0)" xlink:href="#Q"/></g><path fill="#1071e5" d="M645 0H180v-1490h484c435 0 692 280 692 742 0 466-257 748-711 748zM370-168h263c363 0 539-218 539-580 0-358-176-574-521-574H370v1154" id="U"/><path fill="#1071e5" d="M338-1490V0H158v-1490h180" id="V"/><path fill="#1071e5" d="M481 0L54-1118h197c107 314 236 620 325 951 87-331 217-637 324-951h197L670 0H481" id="W"/><path fill="#1071e5" d="M140 405l46-156c120 36 205 19 263-150l32-93L54-1118h197c107 313 237 620 324 950 87-331 219-637 326-950h196L606 167c-68 178-176 259-334 259-64 0-113-12-132-21" id="X"/><g id="k"><use transform="matrix(0.013020833333333334,0,0,0.013020833333333334,0,0)" xlink:href="#U"/><use transform="matrix(0.013020833333333334,0,0,0.013020833333333334,19.244791666666668,0)" xlink:href="#F"/><use transform="matrix(0.013020833333333334,0,0,0.013020833333333334,34.79166666666667,0)" xlink:href="#V"/><use transform="matrix(0.013020833333333334,0,0,0.013020833333333334,41.25000000000001,0)" xlink:href="#A"/><use transform="matrix(0.013020833333333334,0,0,0.013020833333333334,47.70833333333334,0)" xlink:href="#W"/><use transform="matrix(0.013020833333333334,0,0,0.013020833333333334,62.17447916666667,0)" xlink:href="#F"/><use transform="matrix(0.013020833333333334,0,0,0.013020833333333334,77.72135416666667,0)" xlink:href="#J"/><use transform="matrix(0.013020833333333334,0,0,0.013020833333333334,88.17708333333334,0)" xlink:href="#X"/></g><path fill="#1071e5" d="M218-607c0-325 108-727 258-974h175c-155 315-250 682-250 974 0 265 78 531 250 886H476C306-10 218-315 218-607" id="Y"/><use transform="matrix(0.013020833333333334,0,0,0.013020833333333334,0,0)" xlink:href="#Y" id="l"/><path fill="#1071e5" d="M180 0v-1490h510c348 0 508 209 508 474 0 266-160 477-507 477H370V0H180zm190-706h312c236 0 327-133 327-310 0-176-91-307-329-307H370v617" id="Z"/><path fill="#1071e5" d="M784 20c-382 0-662-292-662-764 0-473 280-766 662-766s660 293 660 766c0 472-278 764-660 764zm0-176c266 0 475-207 475-588 0-383-209-590-475-590-268 0-477 208-477 590 0 380 209 588 477 588" id="aa"/><g id="m"><use transform="matrix(0.013020833333333334,0,0,0.013020833333333334,0,0)" xlink:href="#Z"/><use transform="matrix(0.013020833333333334,0,0,0.013020833333333334,17.03125,0)" xlink:href="#aa"/><use transform="matrix(0.013020833333333334,0,0,0.013020833333333334,37.421875,0)" xlink:href="#U"/></g><path fill="#1071e5" d="M128 359l88-567h206L266 359H128" id="ab"/><use transform="matrix(0.013020833333333334,0,0,0.013020833333333334,0,0)" xlink:href="#ab" id="n"/><g id="o"><use transform="matrix(0.013020833333333334,0,0,0.013020833333333334,0,0)" xlink:href="#S"/><use transform="matrix(0.013020833333333334,0,0,0.013020833333333334,19.479166666666668,0)" xlink:href="#aa"/><use transform="matrix(0.013020833333333334,0,0,0.013020833333333334,39.86979166666667,0)" xlink:href="#U"/></g><path fill="#1071e5" d="M96 279C273-86 346-350 346-607c0-292-95-659-250-974h175c150 246 258 650 258 974 0 297-91 602-258 886H96" id="ac"/><use transform="matrix(0.013020833333333334,0,0,0.013020833333333334,0,0)" xlink:href="#ac" id="p"/><g id="q"><use transform="matrix(0.013020833333333334,0,0,0.013020833333333334,0,0)" xlink:href="#U"/><use transform="matrix(0.013020833333333334,0,0,0.013020833333333334,19.244791666666668,0)" xlink:href="#F"/><use transform="matrix(0.013020833333333334,0,0,0.013020833333333334,34.79166666666667,0)" xlink:href="#V"/><use transform="matrix(0.013020833333333334,0,0,0.013020833333333334,41.25000000000001,0)" xlink:href="#A"/><use transform="matrix(0.013020833333333334,0,0,0.013020833333333334,47.70833333333334,0)" xlink:href="#W"/><use transform="matrix(0.013020833333333334,0,0,0.013020833333333334,62.17447916666667,0)" xlink:href="#F"/><use transform="matrix(0.013020833333333334,0,0,0.013020833333333334,77.72135416666667,0)" xlink:href="#J"/><use transform="matrix(0.013020833333333334,0,0,0.013020833333333334,88.17708333333334,0)" xlink:href="#X"/></g><g id="r"><use transform="matrix(0.013020833333333334,0,0,0.013020833333333334,0,0)" xlink:href="#S"/><use transform="matrix(0.013020833333333334,0,0,0.013020833333333334,19.479166666666668,0)" xlink:href="#y"/><use transform="matrix(0.013020833333333334,0,0,0.013020833333333334,35.46875,0)" xlink:href="#B"/><use transform="matrix(0.013020833333333334,0,0,0.013020833333333334,51.223958333333336,0)" xlink:href="#T"/><use transform="matrix(0.013020833333333334,0,0,0.013020833333333334,61.09375,0)" xlink:href="#A"/><use transform="matrix(0.013020833333333334,0,0,0.013020833333333334,67.55208333333333,0)" xlink:href="#J"/><use transform="matrix(0.013020833333333334,0,0,0.013020833333333334,78.0078125,0)" xlink:href="#Q"/><use transform="matrix(0.013020833333333334,0,0,0.013020833333333334,101.3671875,0)" xlink:href="#F"/><use transform="matrix(0.013020833333333334,0,0,0.013020833333333334,116.9140625,0)" xlink:href="#N"/></g><path fill="#1071e5" d="M659 0H135v-1490h529c448 0 721 280 721 744 0 466-273 746-726 746zM440-263h204c287 0 437-148 437-483 0-333-150-481-435-481H440v964" id="ad"/><path fill="#1071e5" d="M633 22C291 22 81-200 81-553c0-345 210-579 537-579 292 0 525 185 525 567v84H378c7 183 109 277 260 277 105 0 184-46 216-132l272 51C1071-99 893 22 633 22zM380-669h474c-15-146-94-237-233-237-143 0-229 99-241 237" id="ae"/><path fill="#1071e5" d="M428-1490V0H128v-1490h300" id="af"/><path fill="#1071e5" d="M128 0v-1118h300V0H128zm150-1264c-91 0-165-68-165-154 0-85 74-154 165-154 90 0 165 69 165 154 0 86-75 154-165 154" id="ag"/><path fill="#1071e5" d="M443 0L31-1118h319c90 293 199 572 268 885 66-313 175-593 264-885h315L784 0H443" id="ah"/><path fill="#1071e5" d="M128 0v-1118h290v195h12c54-169 184-238 367-200v268c-27-8-86-15-130-15-138 0-239 95-239 234V0H128" id="ai"/><path fill="#1071e5" d="M120 396l69-226c123 42 245 23 254-107l8-60L31-1118h319c87 288 199 559 259 872 72-308 185-583 277-872h315L726 132c-68 181-186 294-410 294-79 0-153-13-196-30" id="aj"/><g id="s"><use transform="matrix(0.015190972222222222,0,0,0.015190972222222222,0,0)" xlink:href="#ad"/><use transform="matrix(0.015190972222222222,0,0,0.015190972222222222,22.467447916666668,0)" xlink:href="#ae"/><use transform="matrix(0.015190972222222222,0,0,0.015190972222222222,41.00043402777778,0)" xlink:href="#af"/><use transform="matrix(0.015190972222222222,0,0,0.015190972222222222,49.431423611111114,0)" xlink:href="#ag"/><use transform="matrix(0.015190972222222222,0,0,0.015190972222222222,57.86241319444445,0)" xlink:href="#ah"/><use transform="matrix(0.015190972222222222,0,0,0.015190972222222222,75.95486111111111,0)" xlink:href="#ae"/><use transform="matrix(0.015190972222222222,0,0,0.015190972222222222,94.48784722222223,0)" xlink:href="#ai"/><use transform="matrix(0.015190972222222222,0,0,0.015190972222222222,107.64322916666667,0)" xlink:href="#aj"/></g><path fill="#1071e5" d="M681 22C323 22 94-145 85-462h297c10 151 131 226 296 226 163 0 271-77 271-190 0-102-95-149-257-189l-164-41c-252-61-403-188-403-405 0-269 236-449 560-449 330 0 546 183 551 445H941c-11-119-106-188-259-188-156 0-244 72-244 172-3 156 226 185 373 221 250 61 445 186 445 436 0 271-213 446-575 446" id="ak"/><path fill="#1071e5" d="M683-1118v229H474v562c0 71 29 104 102 104 23 0 73-7 95-13l43 225C647 9 580 16 520 16 296 16 174-96 174-301v-588H20v-229h154v-266h300v266h209" id="al"/><path fill="#1071e5" d="M440 22C227 22 68-92 68-313c0-250 202-322 422-343 195-21 271-24 271-105 0-95-63-149-175-149-116 0-187 57-211 129l-275-46c57-194 237-305 487-305 240 0 474 108 474 379V0H777v-155h-10C713-51 605 22 440 22zm85-211c140 0 238-93 238-211v-121c-37 26-156 42-222 51-111 16-185 59-185 149 0 87 70 132 169 132" id="am"/><path fill="#1071e5" d="M750-1118v229H516V0H217v-889H20v-229h197v-86c0-238 156-356 363-356 94 0 178 20 215 31l-54 226c-25-7-61-15-100-15-123-3-131 84-125 200h234" id="an"/><g id="t"><use transform="matrix(0.015190972222222222,0,0,0.015190972222222222,0,0)" xlink:href="#ak"/><use transform="matrix(0.015190972222222222,0,0,0.015190972222222222,20.37109375,0)" xlink:href="#al"/><use transform="matrix(0.015190972222222222,0,0,0.015190972222222222,31.91623263888889,0)" xlink:href="#am"/><use transform="matrix(0.015190972222222222,0,0,0.015190972222222222,49.97829861111111,0)" xlink:href="#an"/><use transform="matrix(0.015190972222222222,0,0,0.015190972222222222,61.06770833333333,0)" xlink:href="#an"/></g><path fill="#3a414a" d="M786 20C389 20 94-260 94-744c0-487 299-766 692-766 339 0 597 194 641 529h-309c-28-162-156-258-326-258-233 0-388 179-388 495 0 323 157 493 387 493 170 0 298-97 328-259h309c-34 277-266 530-642 530" id="ao"/><path fill="#3a414a" d="M628 22C291 22 81-210 81-554c0-346 210-578 547-578 336 0 547 232 547 578 0 344-211 576-547 576zm0-236c160 0 242-146 242-341 0-197-82-341-242-341S387-753 387-555c0 195 81 341 241 341" id="ap"/><path fill="#3a414a" d="M513 14c-232 0-385-159-385-421v-711h300v659c0 139 76 222 202 222 127 0 217-86 217-234v-647h301V0H864l-4-232C797-74 683 14 513 14" id="aq"/><path fill="#3a414a" d="M128 0v-1118h290v195h12c54-169 184-238 367-200v268c-27-8-86-15-130-15-138 0-239 95-239 234V0H128" id="ar"/><path fill="#3a414a" d="M128 0v-1118h300V0H128zm150-1264c-91 0-165-68-165-154 0-85 74-154 165-154 90 0 165 69 165 154 0 86-75 154-165 154" id="as"/><path fill="#3a414a" d="M633 22C291 22 81-200 81-553c0-345 210-579 537-579 292 0 525 185 525 567v84H378c7 183 109 277 260 277 105 0 184-46 216-132l272 51C1071-99 893 22 633 22zM380-669h474c-15-146-94-237-233-237-143 0-229 99-241 237" id="at"/><g id="u"><use transform="matrix(0.010850694444444444,0,0,0.010850694444444444,0,0)" xlink:href="#ao"/><use transform="matrix(0.010850694444444444,0,0,0.010850694444444444,16.438802083333332,0)" xlink:href="#ap"/><use transform="matrix(0.010850694444444444,0,0,0.010850694444444444,30.067274305555554,0)" xlink:href="#aq"/><use transform="matrix(0.010850694444444444,0,0,0.010850694444444444,43.90190972222222,0)" xlink:href="#ar"/><use transform="matrix(0.010850694444444444,0,0,0.010850694444444444,53.11414930555556,0)" xlink:href="#as"/><use transform="matrix(0.010850694444444444,0,0,0.010850694444444444,59.13628472222221,0)" xlink:href="#at"/><use transform="matrix(0.010850694444444444,0,0,0.010850694444444444,72.37413194444443,0)" xlink:href="#ar"/></g><path fill="#3a414a" d="M135 0v-1490h468l242 684c30 94 76 293 111 455 34-161 80-360 110-455l238-684h470V0h-307c0-447-3-765 11-1227-122 503-246 788-395 1227H826C676-435 552-717 427-1215c15 453 11 775 11 1215H135" id="au"/><path fill="#3a414a" d="M440 22C227 22 68-92 68-313c0-250 202-322 422-343 195-21 271-24 271-105 0-95-63-149-175-149-116 0-187 57-211 129l-275-46c57-194 237-305 487-305 240 0 474 108 474 379V0H777v-155h-10C713-51 605 22 440 22zm85-211c140 0 238-93 238-211v-121c-37 26-156 42-222 51-111 16-185 59-185 149 0 87 70 132 169 132" id="av"/><path fill="#3a414a" d="M428-647V0H128v-1118h283l4 231c63-156 176-245 348-245 232 0 384 159 384 421V0H847v-659c0-139-76-222-202-222-128 0-217 86-217 234" id="aw"/><path fill="#3a414a" d="M625 442c-280 0-454-114-503-274l258-72c28 63 97 128 243 128 153 0 246-69 246-216v-206h-23C805-108 717-16 536-16 284-16 81-191 81-561c0-378 208-571 456-571 188 0 280 113 321 202h13v-188h295V-9c0 303-226 451-541 451zm5-686c153 0 240-119 240-319 0-198-86-329-240-329-158 0-241 137-241 329 0 195 85 319 241 319" id="ax"/><path fill="#3a414a" d="M128 0v-1118h278l12 217c60-163 185-234 319-234 143 0 236 81 288 251 63-172 205-251 359-251 205 0 357 138 357 381V0h-301v-697c0-126-76-187-177-187-114 0-184 79-184 196V0H789v-705c0-109-72-179-174-179-106 0-187 74-187 208V0H128" id="ay"/><path fill="#3a414a" d="M683-1118v229H474v562c0 71 29 104 102 104 23 0 73-7 95-13l43 225C647 9 580 16 520 16 296 16 174-96 174-301v-588H20v-229h154v-266h300v266h209" id="az"/><g id="v"><use transform="matrix(0.010850694444444444,0,0,0.010850694444444444,0,0)" xlink:href="#au"/><use transform="matrix(0.010850694444444444,0,0,0.010850694444444444,20.703125,0)" xlink:href="#av"/><use transform="matrix(0.010850694444444444,0,0,0.010850694444444444,33.60460069444444,0)" xlink:href="#aw"/><use transform="matrix(0.010850694444444444,0,0,0.010850694444444444,47.43923611111111,0)" xlink:href="#av"/><use transform="matrix(0.010850694444444444,0,0,0.010850694444444444,60.34071180555555,0)" xlink:href="#ax"/><use transform="matrix(0.010850694444444444,0,0,0.010850694444444444,74.38151041666666,0)" xlink:href="#at"/><use transform="matrix(0.010850694444444444,0,0,0.010850694444444444,87.61935763888889,0)" xlink:href="#ay"/><use transform="matrix(0.010850694444444444,0,0,0.010850694444444444,107.89930555555556,0)" xlink:href="#at"/><use transform="matrix(0.010850694444444444,0,0,0.010850694444444444,121.13715277777777,0)" xlink:href="#aw"/><use transform="matrix(0.010850694444444444,0,0,0.010850694444444444,134.97178819444443,0)" xlink:href="#az"/></g><path fill="#3a414a" d="M681 22C323 22 94-145 85-462h297c10 151 131 226 296 226 163 0 271-77 271-190 0-102-95-149-257-189l-164-41c-252-61-403-188-403-405 0-269 236-449 560-449 330 0 546 183 551 445H941c-11-119-106-188-259-188-156 0-244 72-244 172-3 156 226 185 373 221 250 61 445 186 445 436 0 271-213 446-575 446" id="aA"/><path fill="#3a414a" d="M120 396l69-226c123 42 245 23 254-107l8-60L31-1118h319c87 288 199 559 259 872 72-308 185-583 277-872h315L726 132c-68 181-186 294-410 294-79 0-153-13-196-30" id="aB"/><path fill="#3a414a" d="M572 22C302 22 117-98 78-306l279-48c29 105 101 156 224 156 114 0 185-48 185-115 0-118-228-130-337-155-215-49-322-150-322-317 0-215 187-347 470-347 265 0 424 116 466 298l-266 47c-24-76-87-130-196-130-98 0-174 46-174 113 0 56 38 95 144 117l201 40c216 44 320 143 320 302 0 220-207 367-500 367" id="aC"/><g id="w"><use transform="matrix(0.010850694444444444,0,0,0.010850694444444444,0,0)" xlink:href="#aA"/><use transform="matrix(0.010850694444444444,0,0,0.010850694444444444,14.55078125,0)" xlink:href="#aB"/><use transform="matrix(0.010850694444444444,0,0,0.010850694444444444,27.9296875,0)" xlink:href="#aC"/><use transform="matrix(0.010850694444444444,0,0,0.010850694444444444,40.37543402777778,0)" xlink:href="#az"/><use transform="matrix(0.010850694444444444,0,0,0.010850694444444444,48.29644097222223,0)" xlink:href="#at"/><use transform="matrix(0.010850694444444444,0,0,0.010850694444444444,61.53428819444445,0)" xlink:href="#ay"/></g></defs></g></svg>