<svg xmlns="http://www.w3.org/2000/svg" xmlns:xlink="http://www.w3.org/1999/xlink" xmlns:lucid="lucid" width="1302" height="782"><g transform="translate(481 -39)" lucid:page-tab-id="0_0"><path d="M-420 286a6 6 0 0 1 6-6h68a6 6 0 0 1 6 6v8a14.48 14.48 0 0 1-4.24 10.24l-1.52 1.52A14.48 14.48 0 0 1-356 310h-58a6 6 0 0 1-6-6z" fill="#fff"/><path d="M-340 280v5m0 10v5l-2.5 2.5m-5 5l-2.5 2.5h-4.38m-8.75 0h-8.75m-8.75 0h-8.75m-8.75 0h-8.75m-8.75 0H-420M-401.94 280h8.03m8.03 0h8.04m8.03 0h8.04m8.04 0h8.04m8.03 0h8.04m8.03 0h8.03m8.04 0h8.04m8.03 0h8.04m8.05 0h8.04m8.02 0h8.04m8.04 0h8.03m8.04 0h8.04m8.04 0h8.04m8.04 0h8.04m8.03 0h8.03m8.04 0h8.03m8.04 0h8.04m8.03 0h8.05m8.04 0h8.03m8.03 0h8.04m8.04 0h8.03m8.04 0h8.05m8.04 0h8.02m8.04 0h8.04m8.03 0h8.04m8.04 0h8.04m8.04 0h8.04m8.04 0h8.03m8.03 0h8.04m8.03 0h8.04m8.04 0h8.03m8.05 0h8.04m8.03 0h8.03m8.04 0h8.04m8.03 0h8.04m8.05 0h8.03m8.04 0h8.04m8.04 0h8.03m8.04 0h8.04m8.04 0h8.04m8.04 0h8.04m8.03 0h8.03m8.04 0h8.03m8.04 0h8.04m8.04 0h8.03m8.04 0h8.03m8.03 0h8.04m8.04 0h8.03m8.04 0h8.05m8.04 0h8.02m8.04 0h8.04m8.03 0h8.04m8.04 0h8.04m8.04 0H454a6 6 0 0 1 6 6v3.92m0 7.85v7.85m0 7.84v7.85m0 7.85V337m0 7.85v7.84m0 7.84v7.84m0 7.85v7.85m0 7.84v7.85m0 7.85v7.84m0 7.85v7.85m0 7.85v7.85m0 7.84v7.84m0 7.84v7.85m0 7.85v7.84m0 7.85v7.85m0 7.84v7.85m0 7.85V541m0 7.85v7.84m0 7.84v7.85m0 7.83v7.85m0 7.84v7.85m0 7.85v7.84m0 7.85v7.85m0 7.85v7.85m0 7.84v7.84m0 7.85v7.83m0 7.85V694a6 6 0 0 1-6 6h-4.02m-8.04 0h-8.03m-8.03 0h-8.04m-8.03 0h-8.04m-8.04 0h-8.04m-8.03 0h-8.04m-8.03 0h-8.03m-8.04 0h-8.04m-8.03 0h-8.04m-8.05 0h-8.04m-8.02 0h-8.04m-8.04 0h-8.03m-8.04 0h-8.04m-8.04 0h-8.04m-8.04 0h-8.04m-8.03 0h-8.03m-8.04 0h-8.03m-8.04 0h-8.04m-8.03 0h-8.05m-8.04 0h-8.03m-8.03 0h-8.04m-8.04 0h-8.03m-8.04 0h-8.05m-8.03 0h-8.04m-8.04 0H64.2m-8.03 0h-8.04m-8.04 0h-8.04m-8.04 0h-8.04m-8.04 0H-.1m-8.03 0h-8.04m-8.03 0h-8.04m-8.04 0h-8.03m-8.05 0h-8.04m-8.03 0h-8.03m-8.04 0h-8.04m-8.03 0h-8.04m-8.05 0h-8.03m-8.04 0h-8.04m-8.04 0h-8.03m-8.04 0h-8.04m-8.04 0h-8.04m-8.04 0h-8.04m-8.03 0h-8.03m-8.04 0h-8.03m-8.04 0h-8.04m-8.04 0h-8.03m-8.04 0h-8.03m-8.03 0h-8.04m-8.04 0h-8.03m-8.04 0h-8.05m-8.04 0h-8.02m-8.04 0h-8.04m-8.03 0h-8.04m-8.04 0h-8.04m-8.04 0H-414a6 6 0 0 1-6-6v-3.92m0-7.85v-7.85m0-7.84v-7.85m0-7.85V643m0-7.85v-7.84m0-7.84v-7.85m0-7.83v-7.85m0-7.84v-7.85m0-7.85v-7.84m0-7.85v-7.85m0-7.85v-7.85m0-7.84v-7.84m0-7.85v-7.83m0-7.85v-7.84m0-7.85v-7.85m0-7.84v-7.85m0-7.85V439m0-7.85v-7.84m0-7.84v-7.84m0-7.85v-7.85m0-7.84v-7.85m0-7.85v-7.84m0-7.85v-7.85m0-7.85v-7.85m0-7.84v-7.84m0-7.84v-7.85m0-7.85V286a6 6 0 0 1 6-6h4.02M-420 539h5m10 0h5m15 0h5m10 0h5m15 0h5m10 0h5m15 0h5m10 0h5m15 0h5m10 0h5m15 0h5m10 0h5m15 0h5m10 0h5m15 0h5m10 0h5m15 0h5m10 0h5m15 0h5m10 0h5m15 0h5m10 0h5m15 0h5m10 0h5m15 0h5m10 0h5m15 0h5m10 0h5m15 0h5m10 0h5m15 0h5m10 0h5m15 0h5m10 0h5m15 0h5m10 0h5m15 0h5m10 0h5m15 0h5m10 0h5m15 0h5m10 0h5m15 0h5m10 0h5m15 0h5m10 0h5m15 0h5m10 0h5m15 0h5m10 0h5m15 0h5" stroke="#000" stroke-width="2" fill="none"/><use xlink:href="#a" transform="matrix(1,0,0,1,-412,280) translate(0 23.08376736111111)"/><path d="M-480 46a6 6 0 0 1 6-6h168a6 6 0 0 1 6 6v68a6 6 0 0 1-6 6h-168a6 6 0 0 1-6-6z" stroke="#e08fff" stroke-width="2" fill="#fbf0ff"/><use xlink:href="#b" transform="matrix(1,0,0,1,-480,40) translate(5.282777777777776 48.09027777777778)"/><use xlink:href="#c" transform="matrix(1,0,0,1,-480,40) translate(109.8509201388889 48.09027777777778)"/><path d="M0 46a6 6 0 0 1 6-6h148a6 6 0 0 1 6 6v68a6 6 0 0 1-6 6H6a6 6 0 0 1-6-6z" stroke="#54c45e" stroke-width="2" fill="#e3fae3"/><use xlink:href="#d" transform="matrix(1,0,0,1,0,40) translate(21.422100694444445 48.09027777777778)"/><use xlink:href="#e" transform="matrix(1,0,0,1,0,40) translate(85.70161458333334 48.09027777777778)"/><path d="M317.75 46a6 6 0 0 1 6-6h182.2a6 6 0 0 1 6 6v68a6 6 0 0 1-6 6h-182.2a6 6 0 0 1-6-6z" stroke="#fc9432" stroke-width="2" fill="#ffdda6"/><use xlink:href="#f" transform="matrix(1,0,0,1,317.7496368732751,40) translate(17.756953125000003 48.09027777777778)"/><use xlink:href="#g" transform="matrix(1,0,0,1,317.7496368732751,40) translate(72.88933159722222 48.09027777777778)"/><path d="M660 46a6 6 0 0 1 6-6h148a6 6 0 0 1 6 6v68a6 6 0 0 1-6 6H666a6 6 0 0 1-6-6z" stroke="#6db1ff" stroke-width="2" fill="#edf5ff"/><use xlink:href="#h" transform="matrix(1,0,0,1,660,40) translate(8.987421874999976 46.16666666666667)"/><use xlink:href="#i" transform="matrix(1,0,0,1,660,40) translate(73.52192708333332 46.16666666666667)"/><path d="M-480 746a6 6 0 0 1 6-6h168a6 6 0 0 1 6 6v68a6 6 0 0 1-6 6h-168a6 6 0 0 1-6-6z" stroke="#e08fff" stroke-width="2" fill="#fbf0ff"/><use xlink:href="#b" transform="matrix(1,0,0,1,-480,740) translate(5.282777777777776 48.09027777777778)"/><use xlink:href="#c" transform="matrix(1,0,0,1,-480,740) translate(109.8509201388889 48.09027777777778)"/><path d="M0 746a6 6 0 0 1 6-6h148a6 6 0 0 1 6 6v68a6 6 0 0 1-6 6H6a6 6 0 0 1-6-6z" stroke="#54c45e" stroke-width="2" fill="#e3fae3"/><use xlink:href="#d" transform="matrix(1,0,0,1,0,740) translate(21.422100694444445 48.09027777777778)"/><use xlink:href="#e" transform="matrix(1,0,0,1,0,740) translate(85.70161458333334 48.09027777777778)"/><path d="M320 746a6 6 0 0 1 6-6h182.2a6 6 0 0 1 6 6v68a6 6 0 0 1-6 6H326a6 6 0 0 1-6-6z" stroke="#fc9432" stroke-width="2" fill="#ffdda6"/><use xlink:href="#f" transform="matrix(1,0,0,1,320,740) translate(17.756953125000003 48.09027777777778)"/><use xlink:href="#g" transform="matrix(1,0,0,1,320,740) translate(72.88933159722222 48.09027777777778)"/><path d="M660 746a6 6 0 0 1 6-6h148a6 6 0 0 1 6 6v68a6 6 0 0 1-6 6H666a6 6 0 0 1-6-6z" stroke="#6db1ff" stroke-width="2" fill="#edf5ff"/><use xlink:href="#h" transform="matrix(1,0,0,1,660,740) translate(8.987421874999976 46.16666666666667)"/><use xlink:href="#i" transform="matrix(1,0,0,1,660,740) translate(73.52192708333332 46.16666666666667)"/><path d="M397.1 226a6 6 0 0 1 6-6h28a6 6 0 0 1 6 6v468a6 6 0 0 1-6 6h-28a6 6 0 0 1-6-6z" stroke="#ffdda6" stroke-width="2" fill="#fff3d9"/><path d="M414.85 123.5v93" stroke="#3a414a" stroke-width="5" fill="none"/><path d="M417.32 123.56h-4.95V121h4.95zM417.32 219h-4.95v-2.56h4.95z" stroke="#3a414a" stroke-width=".05" fill="#3a414a"/><path d="M417.1 736.5v-33" stroke="#3a414a" stroke-width="5" fill="none"/><path d="M419.57 739h-4.95v-2.56h4.95z" stroke="#3a414a" stroke-width=".05" fill="#3a414a"/><path d="M417.1 703.56V701" stroke="#3a414a" stroke-width="5" fill="none"/><path d="M60 206a6 6 0 0 1 6-6h28a6 6 0 0 1 6 6v488a6 6 0 0 1-6 6H66a6 6 0 0 1-6-6z" stroke="#54c45e" stroke-width="2" fill="#e3fae3"/><path d="M80 123.5v73" stroke="#3a414a" stroke-width="5" fill="none"/><path d="M82.47 123.56h-4.94V121h4.94zM82.47 199h-4.94v-2.56h4.94z" stroke="#3a414a" stroke-width=".05" fill="#3a414a"/><path d="M80 736.5v-33" stroke="#3a414a" stroke-width="5" fill="none"/><path d="M82.47 739h-4.94v-2.56h4.94zM82.47 703.56h-4.94V701h4.94z" stroke="#3a414a" stroke-width=".05" fill="#3a414a"/><path d="M439.6 357.56h32.5a6 6 0 0 1 6 6v49.5a6 6 0 0 1-6 6h-13.38" stroke="#3a414a" stroke-width="3" fill="none"/><path d="M439.64 359.04h-1.54v-2.95h1.54z" stroke="#3a414a" stroke-width=".05" fill="#3a414a"/><path d="M442.95 419.06l14.27-4.63v9.27z" stroke="#3a414a" stroke-width="3" fill="#3a414a"/><use xlink:href="#j" transform="matrix(1,0,0,1,486.09730215949037,377.5574460896035) translate(0 17.22222222222222)"/><use xlink:href="#k" transform="matrix(1,0,0,1,486.09730215949037,377.5574460896035) translate(57.317708333333336 17.22222222222222)"/><path d="M-390 123v72a5 5 0 0 1-5 5 5 5 0 0 0-5 5v72" stroke="#3a414a" stroke-width="4" fill="none"/><path d="M-388.02 123.05h-3.96V121h3.96zM-398.02 279h-3.96v-2.05h3.96z" stroke="#3a414a" stroke-width=".05" fill="#3a414a"/><path d="M36.3 205.66h-433.66A2.64 2.64 0 0 1-400 203" stroke="#3a414a" stroke-width="4" fill="none"/><path d="M52.55 205.66l-14.26 4.63V201z" stroke="#3a414a" stroke-width="4" fill="#3a414a"/><path d="M-400 203.06V201" stroke="#3a414a" stroke-width="4" fill="none"/><use xlink:href="#l" transform="matrix(1,0,0,1,-327.0730016391765,209.6547648758202) translate(0 17.22222222222222)"/><path d="M103 267.8h270.36" stroke="#3a414a" stroke-width="4" fill="none"/><path d="M103.05 269.77H101v-3.95h2.05z" stroke="#3a414a" stroke-width=".05" fill="#3a414a"/><path d="M389.63 267.8l-14.27 4.63v-9.27z" stroke="#3a414a" stroke-width="4" fill="#3a414a"/><use xlink:href="#m" transform="matrix(1,0,0,1,137.36375524641153,242.2860595421421) translate(0 17.22222222222222)"/><path d="M740 123.5v613" stroke="#3a414a" stroke-width="5" fill="none"/><path d="M742.48 123.56h-4.96V121h4.96zM742.48 739h-4.96v-2.56h4.96z" stroke="#3a414a" stroke-width=".05" fill="#3a414a"/><path d="M440.6 239.5h37.25a.25.25 0 0 1 .25.25.25.25 0 0 0 .24.25h237.3" stroke="#3a414a" stroke-width="5" fill="none"/><path d="M440.66 241.98h-2.56v-4.95h2.56z" stroke="#3a414a" stroke-width=".05" fill="#3a414a"/><path d="M731.9 239.67l-14.16 4.92-.2-9.28z" stroke="#3a414a" stroke-width="5" fill="#3a414a"/><use xlink:href="#n" transform="matrix(1,0,0,1,476.37056655620296,214.48958333333334) translate(0 17.22222222222222)"/><path d="M458.72 320.6h4.4m5.9 0h8.84m5.9 0h8.83m5.88 0h8.83m5.9 0h8.84m5.9 0h8.82m5.9 0h8.83m5.88 0h8.83m5.9 0h8.84m5.9 0h8.82m5.9 0h8.83m5.88 0h8.83m5.9 0h8.84m5.9 0h8.83m5.88 0h8.84m5.88 0h8.84m5.9 0h8.82m5.9 0h8.83m5.9 0h8.82m5.88 0h4.42" stroke="#3a414a" stroke-width="3" fill="none"/><path d="M442.95 320.6l14.27-4.63v9.27z" stroke="#3a414a" stroke-width="3" fill="#3a414a"/><path d="M738.46 320.6H740" stroke="#3a414a" stroke-width="3" fill="none"/><use xlink:href="#o" transform="matrix(1,0,0,1,481.6354566353008,295.09099851289324) translate(0 17.22222222222222)"/><path d="M-9.15 306a6 6 0 0 1 6-6H214a6 6 0 0 1 6 6v24.9a6 6 0 0 1-6 6H-3.15a6 6 0 0 1-6-6z" fill="none"/><use xlink:href="#p" transform="matrix(1,0,0,1,-4.1467100694444525,305) translate(0 21.58376736111111)"/><use xlink:href="#q" transform="matrix(1,0,0,1,-4.1467100694444525,305) translate(14.35546875 21.58376736111111)"/><use xlink:href="#r" transform="matrix(1,0,0,1,-4.1467100694444525,305) translate(71.65798611111111 21.58376736111111)"/><use xlink:href="#s" transform="matrix(1,0,0,1,-4.1467100694444525,305) translate(189.453125 21.58376736111111)"/><path d="M395.1 435.86h-2.93m-3.9 0h-5.87m-3.9 0h-5.87m-3.9 0h-5.87m-3.9 0h-5.87m-3.92 0h-5.86m-3.9 0h-5.87m-3.9 0h-5.87m-3.9 0H314m-3.9 0h-5.86m-3.9 0h-5.87m-3.9 0h-5.87m-3.9 0h-5.87m-3.9 0h-5.87m-3.9 0h-5.87m-3.92 0h-5.91m-3.97 0h-5.96m-3.97 0h-5.95m-3.97 0h-5.96m-3.98 0h-5.96m-3.97 0h-5.96m-3.97 0H186m-3.96 0h-5.95m-4 0h-5.94m-3.97 0h-5.97m-3.97 0h-5.95m-3.97 0h-5.95m-3.97 0h-5.95m-3.97 0h-2.98" stroke="#3a414a" stroke-width="2" fill="none"/><path d="M396.1 436.84h-1.03v-1.95h1.03z" stroke="#3a414a" stroke-width=".05" fill="#3a414a"/><path d="M104.24 435.86l14.26-4.63v9.27z" stroke="#3a414a" stroke-width="2" fill="#3a414a"/><use xlink:href="#t" transform="matrix(1,0,0,1,178.76566496863407,439.86318042795807) translate(0 17.22222222222222)"/><use xlink:href="#u" transform="matrix(1,0,0,1,178.76566496863407,439.86318042795807) translate(76.65798611111111 17.22222222222222)"/><path d="M-399 312v426.5" stroke="#000" stroke-width="3" stroke-linecap="round" fill="none"/><path d="M-20 546a6 6 0 0 1 6-6h217.15a6 6 0 0 1 6 6v24.9a6 6 0 0 1-6 6H-14a6 6 0 0 1-6-6z" fill="none"/><use xlink:href="#p" transform="matrix(1,0,0,1,-15,545) translate(0 21.58376736111111)"/><use xlink:href="#v" transform="matrix(1,0,0,1,-15,545) translate(14.35546875 21.58376736111111)"/><use xlink:href="#r" transform="matrix(1,0,0,1,-15,545) translate(88.02083333333333 21.58376736111111)"/><use xlink:href="#s" transform="matrix(1,0,0,1,-15,545) translate(205.8159722222222 21.58376736111111)"/><path d="M58 473.56h-4.05m-8.1 0h-8.08m-8.1 0h-8.1m-8.08 0H5.4m-8.1 0h-8.1m-8.08 0h-8.1m-8.08 0h-8.1m-8.1 0h-8.08m-8.1 0h-8.1m-8.08 0h-8.1m-8.1 0h-8.08m-8.1 0h-8.08m-8.1 0h-8.1m-8.08 0h-8.1m-8.08 0h-8.1m-8.1 0h-8.08m-8.1 0h-8.1m-8.08 0h-8.1m-8.1 0h-8.08m-8.1 0h-8.08m-8.1 0h-8.1m-8.08 0h-8.1m-8.1 0h-8.08m-8.1 0h-8.08m-8.1 0h-8.1m-8.08 0h-8.1m-8.1 0h-8.08m-8.1 0H-379" stroke="#3a414a" stroke-width="2" fill="none"/><path d="M59 474.54h-1.03v-1.95H59z" stroke="#3a414a" stroke-width=".05" fill="#3a414a"/><path d="M-394.26 473.56l14.26-4.63v9.27z" stroke="#3a414a" stroke-width="2" fill="#3a414a"/><g><use xlink:href="#w" transform="matrix(1,0,0,1,-269.9618055555556,477.56189406125253) translate(0 18.22222222222222)"/></g><path d="M395.6 607.34H117.38" stroke="#3a414a" fill="none"/><path d="M396.1 607.8h-.52v-.94h.52z" stroke="#3a414a" stroke-width=".05" fill="#3a414a"/><path d="M102.62 607.34l14.26-4.64v9.27z" stroke="#3a414a" fill="#3a414a"/><g><use xlink:href="#x" transform="matrix(1,0,0,1,207.9757344130785,611.336440406239) translate(0 17.22222222222222)"/></g><path d="M58.5 657.5h-439.62" stroke="#3a414a" fill="none"/><path d="M59 657.98h-.5v-.95h.5z" stroke="#3a414a" stroke-width=".05" fill="#3a414a"/><path d="M-395.88 657.5l14.26-4.63v9.27z" stroke="#3a414a" fill="#3a414a"/><g><use xlink:href="#y" transform="matrix(1,0,0,1,-254.66666666666669,661.5018952856091) translate(0 17.22222222222222)"/></g><defs><path d="M52 0l541-1490h220L1361 0h-200l-149-416H398L254 0H52zm404-582h497c-103-290-145-390-251-756-108 377-145 460-246 756" id="z"/><path d="M338-1490V0H158v-1490h180" id="A"/><path d="M598-1118v154H368v674c0 100 37 144 132 144 23 0 62-6 92-12L629-6c-37 13-88 20-134 20-193 0-307-107-307-290v-688H20v-154h168v-266h180v266h230" id="B"/><g id="a"><use transform="matrix(0.010850694444444444,0,0,0.010850694444444444,0,0)" xlink:href="#z"/><use transform="matrix(0.010850694444444444,0,0,0.010850694444444444,15.33203125,0)" xlink:href="#A"/><use transform="matrix(0.010850694444444444,0,0,0.010850694444444444,21.03949652777778,0)" xlink:href="#B"/></g><path d="M763 24c-353 0-583-224-583-531v-983h190v968c0 214 149 370 393 370 243 0 391-156 391-370v-968h190v983c0 307-230 531-581 531" id="C"/><path d="M538 24C308 24 148-78 108-271l171-41c32 123 123 178 257 178 156 0 256-77 256-169 0-77-54-128-164-154l-186-44c-203-48-300-148-300-305 0-192 176-326 414-326 230 0 351 112 402 269l-163 42c-31-80-94-158-238-158-133 0-233 69-233 162 0 83 57 129 188 160l169 40c203 48 298 149 298 302 0 196-179 339-441 339" id="D"/><path d="M628 24c-324 0-524-230-524-574 0-343 198-582 503-582 237 0 487 146 487 559v75H286c9 234 145 362 343 362 132 0 231-58 273-172l174 48C1024-91 857 24 628 24zM287-650h624c-17-190-120-322-304-322-192 0-309 151-320 322" id="E"/><path d="M158 0v-1118h174v172h12c41-113 157-188 290-188 26 0 70 2 91 3v181c-11-2-60-10-108-10-161 0-279 109-279 260V0H158" id="F"/><path d="M218-607c0-325 108-727 258-974h175c-155 315-250 682-250 974 0 265 78 531 250 886H476C306-10 218-315 218-607" id="G"/><path d="M338-670V0H158v-1118h173l1 207c72-158 192-221 342-221 226 0 378 139 378 422V0H872v-695c0-172-96-275-252-275-161 0-282 109-282 300" id="H"/><path d="M140 405l46-156c120 36 205 19 263-150l32-93L54-1118h197c107 313 237 620 324 950 87-331 219-637 326-950h196L606 167c-68 178-176 259-334 259-64 0-113-12-132-21" id="I"/><g id="b"><use transform="matrix(0.010850694444444444,0,0,0.010850694444444444,0,0)" xlink:href="#C"/><use transform="matrix(0.010850694444444444,0,0,0.010850694444444444,16.536458333333332,0)" xlink:href="#D"/><use transform="matrix(0.010850694444444444,0,0,0.010850694444444444,28.266059027777775,0)" xlink:href="#E"/><use transform="matrix(0.010850694444444444,0,0,0.010850694444444444,41.22178819444444,0)" xlink:href="#F"/><use transform="matrix(0.010850694444444444,0,0,0.010850694444444444,49.58767361111111,0)" xlink:href="#G"/><use transform="matrix(0.010850694444444444,0,0,0.010850694444444444,57.69314236111111,0)" xlink:href="#z"/><use transform="matrix(0.010850694444444444,0,0,0.010850694444444444,73.02517361111111,0)" xlink:href="#H"/><use transform="matrix(0.010850694444444444,0,0,0.010850694444444444,85.82899305555556,0)" xlink:href="#I"/></g><path d="M613 24c-304 0-509-231-509-576 0-350 205-580 509-580 216 0 392 114 453 309l-173 49c-33-115-133-197-280-197-223 0-326 196-326 419 0 220 103 415 326 415 150 0 252-85 285-206l172 49C1010-95 832 24 613 24" id="J"/><path d="M613 24c-304 0-509-231-509-576 0-350 205-580 509-580 305 0 511 230 511 580 0 345-206 576-511 576zm0-161c226 0 329-195 329-415 0-222-103-419-329-419-223 0-326 196-326 419 0 220 103 415 326 415" id="K"/><path d="M96 279C273-86 346-350 346-607c0-292-95-659-250-974h175c150 246 258 650 258 974 0 297-91 602-258 886H96" id="L"/><g id="c"><use transform="matrix(0.010850694444444444,0,0,0.010850694444444444,0,0)" xlink:href="#z"/><use transform="matrix(0.010850694444444444,0,0,0.010850694444444444,15.33203125,0)" xlink:href="#J"/><use transform="matrix(0.010850694444444444,0,0,0.010850694444444444,28.02734375,0)" xlink:href="#B"/><use transform="matrix(0.010850694444444444,0,0,0.010850694444444444,35.080295138888886,0)" xlink:href="#K"/><use transform="matrix(0.010850694444444444,0,0,0.010850694444444444,48.404947916666664,0)" xlink:href="#F"/><use transform="matrix(0.010850694444444444,0,0,0.010850694444444444,56.77083333333333,0)" xlink:href="#L"/></g><path d="M180 0v-1490h190v1322h690V0H180" id="M"/><path d="M611 442c-248 0-391-105-460-228l146-94c47 65 117 165 314 165 178 0 307-82 307-266v-224h-17C863-141 792-18 576-18c-268 0-472-195-472-546 0-346 197-568 476-568 216 0 288 133 326 193h17v-179h175V29c0 289-215 413-487 413zm-5-620c203 0 314-146 314-390 0-237-108-403-314-403-213 0-319 180-319 403 0 230 109 390 319 390" id="N"/><path d="M158 0v-1118h180V0H158zm91-1301c-68 0-125-53-125-119s57-119 125-119c69 0 126 53 126 119s-57 119-126 119" id="O"/><g id="d"><use transform="matrix(0.010850694444444444,0,0,0.010850694444444444,0,0)" xlink:href="#M"/><use transform="matrix(0.010850694444444444,0,0,0.010850694444444444,12.565104166666666,0)" xlink:href="#K"/><use transform="matrix(0.010850694444444444,0,0,0.010850694444444444,25.889756944444443,0)" xlink:href="#N"/><use transform="matrix(0.010850694444444444,0,0,0.010850694444444444,39.518229166666664,0)" xlink:href="#O"/><use transform="matrix(0.010850694444444444,0,0,0.010850694444444444,44.90017361111111,0)" xlink:href="#H"/></g><path d="M158 418v-1536h174v179h20c37-59 106-193 324-193 279 0 474 222 474 576 0 356-194 580-473 580-213 0-288-135-325-197h-14v591H158zm492-555c209 0 317-186 317-421 0-232-105-413-317-413-206 0-314 166-314 413 0 249 111 421 314 421" id="P"/><path d="M471 26C259 26 90-98 90-318c0-256 228-303 435-329 202-27 287-16 287-108 0-139-79-219-234-219-161 0-248 86-283 164l-173-57c86-203 278-265 451-265 150 0 419 46 419 395V0H815v-152h-12C765-73 660 26 471 26zm31-159c199 0 310-134 310-271v-155c-30 35-226 55-295 64-131 17-246 59-246 186 0 116 97 176 231 176" id="Q"/><g id="e"><use transform="matrix(0.010850694444444444,0,0,0.010850694444444444,0,0)" xlink:href="#P"/><use transform="matrix(0.010850694444444444,0,0,0.010850694444444444,13.823784722222221,0)" xlink:href="#Q"/><use transform="matrix(0.010850694444444444,0,0,0.010850694444444444,26.302083333333332,0)" xlink:href="#N"/><use transform="matrix(0.010850694444444444,0,0,0.010850694444444444,39.93055555555556,0)" xlink:href="#E"/></g><path d="M537 14c-226 0-379-139-379-422v-710h180v695c0 172 97 275 253 275 160 0 281-109 281-300v-670h181V0H879v-209C806-46 684 14 537 14" id="R"/><path d="M338-670V0H158v-1490h180v566c73-149 190-208 336-208 226 0 379 139 379 422V0H872v-695c0-172-96-275-252-275-161 0-282 109-282 300" id="S"/><g id="f"><use transform="matrix(0.010850694444444444,0,0,0.010850694444444444,0,0)" xlink:href="#z"/><use transform="matrix(0.010850694444444444,0,0,0.010850694444444444,15.33203125,0)" xlink:href="#R"/><use transform="matrix(0.010850694444444444,0,0,0.010850694444444444,28.47222222222222,0)" xlink:href="#B"/><use transform="matrix(0.010850694444444444,0,0,0.010850694444444444,35.7421875,0)" xlink:href="#S"/></g><path d="M783 20c-382 0-661-292-661-764 0-473 279-766 661-766 302 0 548 182 601 489h-190c-42-204-217-313-411-313-268 0-476 208-476 590 0 381 209 588 476 588 195 0 369-110 411-313h190c-52 303-296 489-601 489" id="T"/><g id="g"><use transform="matrix(0.010850694444444444,0,0,0.010850694444444444,0,0)" xlink:href="#T"/><use transform="matrix(0.010850694444444444,0,0,0.010850694444444444,16.23263888888889,0)" xlink:href="#K"/><use transform="matrix(0.010850694444444444,0,0,0.010850694444444444,29.557291666666664,0)" xlink:href="#H"/><use transform="matrix(0.010850694444444444,0,0,0.010850694444444444,42.68663194444444,0)" xlink:href="#B"/><use transform="matrix(0.010850694444444444,0,0,0.010850694444444444,49.95659722222222,0)" xlink:href="#F"/><use transform="matrix(0.010850694444444444,0,0,0.010850694444444444,57.95355902777778,0)" xlink:href="#K"/><use transform="matrix(0.010850694444444444,0,0,0.010850694444444444,71.27821180555554,0)" xlink:href="#A"/><use transform="matrix(0.010850694444444444,0,0,0.010850694444444444,76.66015624999999,0)" xlink:href="#A"/><use transform="matrix(0.010850694444444444,0,0,0.010850694444444444,82.04210069444443,0)" xlink:href="#E"/><use transform="matrix(0.010850694444444444,0,0,0.010850694444444444,94.99782986111111,0)" xlink:href="#F"/></g><path d="M180 0v-1490h270l367 940c28 72 75 218 110 339 35-117 81-264 110-339l362-940h271V0h-187c2-448-5-837 7-1287-157 497-311 829-483 1287H842C666-458 514-784 354-1284c12 438 5 843 7 1284H180" id="U"/><path d="M657 26c-323 0-524-166-541-416h195c15 169 171 246 346 246 202 0 356-106 356-265 5-203-294-238-475-293-239-73-380-191-380-389 0-252 224-419 512-419 294 0 499 171 508 396H992c-17-145-151-228-328-228-193 0-321 102-321 242 0 156 175 211 284 241l149 41c160 44 422 134 422 412 0 244-197 432-541 432" id="V"/><path d="M784 20c-382 0-662-292-662-764 0-473 280-766 662-766s660 293 660 766c0 282-99 499-260 629l192 255h-198L1049-33C969 2 880 20 784 20zm-62-486h198l156 205c112-98 183-261 183-483 0-383-209-590-475-590-268 0-477 208-477 590 0 380 209 588 477 588 54 0 106-9 154-25" id="W"/><g id="h"><use transform="matrix(0.008463541666666668,0,0,0.008463541666666668,0,0)" xlink:href="#U"/><use transform="matrix(0.008463541666666668,0,0,0.008463541666666668,15.742187500000002,0)" xlink:href="#I"/><use transform="matrix(0.008463541666666668,0,0,0.008463541666666668,25.483723958333336,0)" xlink:href="#V"/><use transform="matrix(0.008463541666666668,0,0,0.008463541666666668,36.604817708333336,0)" xlink:href="#W"/><use transform="matrix(0.008463541666666668,0,0,0.008463541666666668,49.858723958333336,0)" xlink:href="#M"/></g><path d="M645 0H180v-1490h484c435 0 692 280 692 742 0 466-257 748-711 748zM370-168h263c363 0 539-218 539-580 0-358-176-574-521-574H370v1154" id="X"/><path d="M677 24c-213 0-288-135-325-197h-20V0H158v-1490h180v551h14c37-59 106-193 324-193 279 0 474 222 474 576 0 356-194 580-473 580zm-27-161c209 0 317-186 317-421 0-232-105-413-317-413-206 0-314 166-314 413 0 249 111 421 314 421" id="Y"/><g id="i"><use transform="matrix(0.008463541666666668,0,0,0.008463541666666668,0,0)" xlink:href="#X"/><use transform="matrix(0.008463541666666668,0,0,0.008463541666666668,12.509114583333336,0)" xlink:href="#Q"/><use transform="matrix(0.008463541666666668,0,0,0.008463541666666668,22.242187500000004,0)" xlink:href="#B"/><use transform="matrix(0.008463541666666668,0,0,0.008463541666666668,27.99739583333334,0)" xlink:href="#Q"/><use transform="matrix(0.008463541666666668,0,0,0.008463541666666668,37.73046875000001,0)" xlink:href="#Y"/><use transform="matrix(0.008463541666666668,0,0,0.008463541666666668,48.51302083333334,0)" xlink:href="#Q"/><use transform="matrix(0.008463541666666668,0,0,0.008463541666666668,58.246093750000014,0)" xlink:href="#D"/><use transform="matrix(0.008463541666666668,0,0,0.008463541666666668,67.39518229166669,0)" xlink:href="#E"/></g><path fill="#333" d="M571 0L49-1490h339c138 427 271 775 384 1244 111-471 237-815 371-1244h337L970 0H571" id="Z"/><path fill="#333" d="M633 22C291 22 81-200 81-553c0-345 210-579 537-579 292 0 525 185 525 567v84H378c7 183 109 277 260 277 105 0 184-46 216-132l272 51C1071-99 893 22 633 22zM380-669h474c-15-146-94-237-233-237-143 0-229 99-241 237" id="aa"/><path fill="#333" d="M128 0v-1118h290v195h12c54-169 184-238 367-200v268c-27-8-86-15-130-15-138 0-239 95-239 234V0H128" id="ab"/><path fill="#333" d="M750-1118v229H516V0H217v-889H20v-229h197v-86c0-238 156-356 363-356 94 0 178 20 215 31l-54 226c-25-7-61-15-100-15-123-3-131 84-125 200h234" id="ac"/><path fill="#333" d="M128 0v-1118h300V0H128zm150-1264c-91 0-165-68-165-154 0-85 74-154 165-154 90 0 165 69 165 154 0 86-75 154-165 154" id="ad"/><path fill="#333" d="M120 396l69-226c123 42 245 23 254-107l8-60L31-1118h319c87 288 199 559 259 872 72-308 185-583 277-872h315L726 132c-68 181-186 294-410 294-79 0-153-13-196-30" id="ae"/><g id="j"><use transform="matrix(0.008680555555555556,0,0,0.008680555555555556,0,0)" xlink:href="#Z"/><use transform="matrix(0.008680555555555556,0,0,0.008680555555555556,12.1875,0)" xlink:href="#aa"/><use transform="matrix(0.008680555555555556,0,0,0.008680555555555556,22.77777777777778,0)" xlink:href="#ab"/><use transform="matrix(0.008680555555555556,0,0,0.008680555555555556,30.364583333333336,0)" xlink:href="#ac"/><use transform="matrix(0.008680555555555556,0,0,0.008680555555555556,37.58680555555556,0)" xlink:href="#ad"/><use transform="matrix(0.008680555555555556,0,0,0.008680555555555556,42.40451388888889,0)" xlink:href="#ae"/></g><path fill="#333" d="M128 418v-1536h295v188h14c41-89 129-202 319-202 248 0 453 193 453 575 0 372-197 576-455 576-183 0-275-108-317-198h-9v597H128zm534-640c156 0 240-139 240-336 0-196-83-334-240-334-154 0-241 131-241 334 0 202 88 336 241 336" id="af"/><path fill="#333" d="M440 22C227 22 68-92 68-313c0-250 202-322 422-343 195-21 271-24 271-105 0-95-63-149-175-149-116 0-187 57-211 129l-275-46c57-194 237-305 487-305 240 0 474 108 474 379V0H777v-155h-10C713-51 605 22 440 22zm85-211c140 0 238-93 238-211v-121c-37 26-156 42-222 51-111 16-185 59-185 149 0 87 70 132 169 132" id="ag"/><path fill="#333" d="M572 22C302 22 117-98 78-306l279-48c29 105 101 156 224 156 114 0 185-48 185-115 0-118-228-130-337-155-215-49-322-150-322-317 0-215 187-347 470-347 265 0 424 116 466 298l-266 47c-24-76-87-130-196-130-98 0-174 46-174 113 0 56 38 95 144 117l201 40c216 44 320 143 320 302 0 220-207 367-500 367" id="ah"/><path fill="#333" d="M361 0L31-1118h315c68 295 127 523 188 845 63-317 128-551 199-845h276c71 296 131 525 196 846 57-321 119-552 186-846h319L1378 0h-305c-73-261-148-486-204-771C813-484 740-261 666 0H361" id="ai"/><path fill="#333" d="M628 22C291 22 81-210 81-554c0-346 210-578 547-578 336 0 547 232 547 578 0 344-211 576-547 576zm0-236c160 0 242-146 242-341 0-197-82-341-242-341S387-753 387-555c0 195 81 341 241 341" id="aj"/><path fill="#333" d="M537 19C279 19 81-185 81-557c0-382 206-575 454-575 190 0 278 113 318 202h10v-560h300V0H868v-179h-15C812-89 719 19 537 19zm92-241c153 0 240-134 240-336 0-203-86-334-240-334-158 0-240 138-240 334 0 197 84 336 240 336" id="ak"/><g id="k"><use transform="matrix(0.008680555555555556,0,0,0.008680555555555556,0,0)" xlink:href="#af"/><use transform="matrix(0.008680555555555556,0,0,0.008680555555555556,11.380208333333334,0)" xlink:href="#ag"/><use transform="matrix(0.008680555555555556,0,0,0.008680555555555556,21.70138888888889,0)" xlink:href="#ah"/><use transform="matrix(0.008680555555555556,0,0,0.008680555555555556,31.657986111111114,0)" xlink:href="#ah"/><use transform="matrix(0.008680555555555556,0,0,0.008680555555555556,41.614583333333336,0)" xlink:href="#ai"/><use transform="matrix(0.008680555555555556,0,0,0.008680555555555556,56.484375,0)" xlink:href="#aj"/><use transform="matrix(0.008680555555555556,0,0,0.008680555555555556,67.38715277777777,0)" xlink:href="#ab"/><use transform="matrix(0.008680555555555556,0,0,0.008680555555555556,74.19270833333331,0)" xlink:href="#ak"/></g><path fill="#333" d="M135 0v-1490h997v253H440v360h640v249H440v375h694V0H135" id="al"/><path fill="#333" d="M428-647V0H128v-1118h283l4 231c63-156 176-245 348-245 232 0 384 159 384 421V0H847v-659c0-139-76-222-202-222-128 0-217 86-217 234" id="am"/><path fill="#333" d="M683-1118v229H474v562c0 71 29 104 102 104 23 0 73-7 95-13l43 225C647 9 580 16 520 16 296 16 174-96 174-301v-588H20v-229h154v-266h300v266h209" id="an"/><path fill="#333" d="M786 20C389 20 94-260 94-744c0-487 299-766 692-766 339 0 597 194 641 529h-309c-28-162-156-258-326-258-233 0-388 179-388 495 0 323 157 493 387 493 170 0 298-97 328-259h309c-34 277-266 530-642 530" id="ao"/><path fill="#333" d="M428-1490V0H128v-1490h300" id="ap"/><path fill="#333" d="M169-607c0-330 107-732 258-974h279c-145 311-231 674-231 974 0 262 67 512 231 886H427C258-1 169-307 169-607" id="aq"/><path fill="#333" d="M128 0v-1118h278l12 217c60-163 185-234 319-234 143 0 236 81 288 251 63-172 205-251 359-251 205 0 357 138 357 381V0h-301v-697c0-126-76-187-177-187-114 0-184 79-184 196V0H789v-705c0-109-72-179-174-179-106 0-187 74-187 208V0H128" id="ar"/><path fill="#333" d="M119 395l88-620h300L323 395H119" id="as"/><path fill="#333" d="M67 279c166-379 230-627 230-886 0-300-86-663-230-974h278c151 241 258 644 258 974 0 302-90 608-258 886H67" id="at"/><g id="l"><use transform="matrix(0.008680555555555556,0,0,0.008680555555555556,0,0)" xlink:href="#al"/><use transform="matrix(0.008680555555555556,0,0,0.008680555555555556,10.79861111111111,0)" xlink:href="#am"/><use transform="matrix(0.008680555555555556,0,0,0.008680555555555556,21.866319444444443,0)" xlink:href="#an"/><use transform="matrix(0.008680555555555556,0,0,0.008680555555555556,28.203125,0)" xlink:href="#aa"/><use transform="matrix(0.008680555555555556,0,0,0.008680555555555556,38.79340277777778,0)" xlink:href="#ab"/><use transform="matrix(0.008680555555555556,0,0,0.008680555555555556,46.032986111111114,0)" xlink:href="#ao"/><use transform="matrix(0.008680555555555556,0,0,0.008680555555555556,59.184027777777786,0)" xlink:href="#ab"/><use transform="matrix(0.008680555555555556,0,0,0.008680555555555556,65.98958333333334,0)" xlink:href="#aa"/><use transform="matrix(0.008680555555555556,0,0,0.008680555555555556,76.57986111111111,0)" xlink:href="#ak"/><use transform="matrix(0.008680555555555556,0,0,0.008680555555555556,87.78645833333334,0)" xlink:href="#ad"/><use transform="matrix(0.008680555555555556,0,0,0.008680555555555556,92.60416666666667,0)" xlink:href="#am"/><use transform="matrix(0.008680555555555556,0,0,0.008680555555555556,103.671875,0)" xlink:href="#an"/><use transform="matrix(0.008680555555555556,0,0,0.008680555555555556,110.18229166666667,0)" xlink:href="#ad"/><use transform="matrix(0.008680555555555556,0,0,0.008680555555555556,115,0)" xlink:href="#ag"/><use transform="matrix(0.008680555555555556,0,0,0.008680555555555556,125.32118055555556,0)" xlink:href="#ap"/><use transform="matrix(0.008680555555555556,0,0,0.008680555555555556,130.13888888888889,0)" xlink:href="#ah"/><use transform="matrix(0.008680555555555556,0,0,0.008680555555555556,140.09548611111111,0)" xlink:href="#aq"/><use transform="matrix(0.008680555555555556,0,0,0.008680555555555556,146.70138888888889,0)" xlink:href="#aa"/><use transform="matrix(0.008680555555555556,0,0,0.008680555555555556,157.29166666666663,0)" xlink:href="#ar"/><use transform="matrix(0.008680555555555556,0,0,0.008680555555555556,173.515625,0)" xlink:href="#ag"/><use transform="matrix(0.008680555555555556,0,0,0.008680555555555556,183.83680555555554,0)" xlink:href="#ad"/><use transform="matrix(0.008680555555555556,0,0,0.008680555555555556,188.65451388888889,0)" xlink:href="#ap"/><use transform="matrix(0.008680555555555556,0,0,0.008680555555555556,193.47222222222223,0)" xlink:href="#as"/><use transform="matrix(0.008680555555555556,0,0,0.008680555555555556,199.40972222222223,0)" xlink:href="#af"/><use transform="matrix(0.008680555555555556,0,0,0.008680555555555556,210.78993055555557,0)" xlink:href="#ag"/><use transform="matrix(0.008680555555555556,0,0,0.008680555555555556,221.11111111111111,0)" xlink:href="#ah"/><use transform="matrix(0.008680555555555556,0,0,0.008680555555555556,231.06770833333334,0)" xlink:href="#ah"/><use transform="matrix(0.008680555555555556,0,0,0.008680555555555556,241.02430555555557,0)" xlink:href="#ai"/><use transform="matrix(0.008680555555555556,0,0,0.008680555555555556,255.89409722222226,0)" xlink:href="#aj"/><use transform="matrix(0.008680555555555556,0,0,0.008680555555555556,266.79687500000006,0)" xlink:href="#ab"/><use transform="matrix(0.008680555555555556,0,0,0.008680555555555556,273.6024305555556,0)" xlink:href="#ak"/><use transform="matrix(0.008680555555555556,0,0,0.008680555555555556,285.13020833333337,0)" xlink:href="#at"/></g><g id="m"><use transform="matrix(0.008680555555555556,0,0,0.008680555555555556,0,0)" xlink:href="#Z"/><use transform="matrix(0.008680555555555556,0,0,0.008680555555555556,12.222222222222221,0)" xlink:href="#ag"/><use transform="matrix(0.008680555555555556,0,0,0.008680555555555556,22.54340277777778,0)" xlink:href="#ap"/><use transform="matrix(0.008680555555555556,0,0,0.008680555555555556,27.36111111111111,0)" xlink:href="#ad"/><use transform="matrix(0.008680555555555556,0,0,0.008680555555555556,32.17881944444445,0)" xlink:href="#ak"/><use transform="matrix(0.008680555555555556,0,0,0.008680555555555556,43.38541666666667,0)" xlink:href="#ag"/><use transform="matrix(0.008680555555555556,0,0,0.008680555555555556,53.70659722222222,0)" xlink:href="#an"/><use transform="matrix(0.008680555555555556,0,0,0.008680555555555556,60.04340277777778,0)" xlink:href="#aa"/><use transform="matrix(0.008680555555555556,0,0,0.008680555555555556,70.63368055555556,0)" xlink:href="#aq"/><use transform="matrix(0.008680555555555556,0,0,0.008680555555555556,77.23958333333331,0)" xlink:href="#aa"/><use transform="matrix(0.008680555555555556,0,0,0.008680555555555556,87.82986111111111,0)" xlink:href="#ar"/><use transform="matrix(0.008680555555555556,0,0,0.008680555555555556,104.05381944444447,0)" xlink:href="#ag"/><use transform="matrix(0.008680555555555556,0,0,0.008680555555555556,114.37500000000001,0)" xlink:href="#ad"/><use transform="matrix(0.008680555555555556,0,0,0.008680555555555556,119.19270833333334,0)" xlink:href="#ap"/><use transform="matrix(0.008680555555555556,0,0,0.008680555555555556,124.01041666666667,0)" xlink:href="#as"/><use transform="matrix(0.008680555555555556,0,0,0.008680555555555556,129.94791666666669,0)" xlink:href="#af"/><use transform="matrix(0.008680555555555556,0,0,0.008680555555555556,141.32812500000003,0)" xlink:href="#ag"/><use transform="matrix(0.008680555555555556,0,0,0.008680555555555556,151.64930555555557,0)" xlink:href="#ah"/><use transform="matrix(0.008680555555555556,0,0,0.008680555555555556,161.60590277777777,0)" xlink:href="#ah"/><use transform="matrix(0.008680555555555556,0,0,0.008680555555555556,171.56250000000003,0)" xlink:href="#ai"/><use transform="matrix(0.008680555555555556,0,0,0.008680555555555556,186.4322916666667,0)" xlink:href="#aj"/><use transform="matrix(0.008680555555555556,0,0,0.008680555555555556,197.33506944444449,0)" xlink:href="#ab"/><use transform="matrix(0.008680555555555556,0,0,0.008680555555555556,204.14062500000009,0)" xlink:href="#ak"/><use transform="matrix(0.008680555555555556,0,0,0.008680555555555556,215.66840277777783,0)" xlink:href="#at"/></g><path fill="#333" d="M135 0v-1490h980v253H440v416h609v249H440V0H135" id="au"/><path fill="#333" d="M750 21c-371 0-615-218-615-544v-967h305v942c0 174 123 299 310 299s309-125 309-299v-942h306v967c0 326-247 544-615 544" id="av"/><path fill="#333" d="M135 0v-1490h591c327 0 492 160 492 383 0 177-115 286-268 320v15c168 8 326 140 326 361 0 236-176 411-512 411H135zm305-251h264c179 0 258-76 258-189 0-125-97-215-250-215H440v404zm0-613h241c131 0 228-74 228-194 0-109-79-183-222-183H440v377" id="aw"/><g id="n"><use transform="matrix(0.008680555555555556,0,0,0.008680555555555556,0,0)" xlink:href="#au"/><use transform="matrix(0.008680555555555556,0,0,0.008680555555555556,10.434027777777779,0)" xlink:href="#ad"/><use transform="matrix(0.008680555555555556,0,0,0.008680555555555556,15.251736111111112,0)" xlink:href="#am"/><use transform="matrix(0.008680555555555556,0,0,0.008680555555555556,26.319444444444446,0)" xlink:href="#ak"/><use transform="matrix(0.008680555555555556,0,0,0.008680555555555556,37.52604166666667,0)" xlink:href="#av"/><use transform="matrix(0.008680555555555556,0,0,0.008680555555555556,50.53819444444445,0)" xlink:href="#ah"/><use transform="matrix(0.008680555555555556,0,0,0.008680555555555556,60.49479166666667,0)" xlink:href="#aa"/><use transform="matrix(0.008680555555555556,0,0,0.008680555555555556,71.08506944444446,0)" xlink:href="#ab"/><use transform="matrix(0.008680555555555556,0,0,0.008680555555555556,78.60243055555556,0)" xlink:href="#aw"/><use transform="matrix(0.008680555555555556,0,0,0.008680555555555556,90.36458333333334,0)" xlink:href="#ae"/><use transform="matrix(0.008680555555555556,0,0,0.008680555555555556,101.11111111111111,0)" xlink:href="#al"/><use transform="matrix(0.008680555555555556,0,0,0.008680555555555556,111.90972222222223,0)" xlink:href="#ar"/><use transform="matrix(0.008680555555555556,0,0,0.008680555555555556,128.13368055555557,0)" xlink:href="#ag"/><use transform="matrix(0.008680555555555556,0,0,0.008680555555555556,138.45486111111111,0)" xlink:href="#ad"/><use transform="matrix(0.008680555555555556,0,0,0.008680555555555556,143.27256944444446,0)" xlink:href="#ap"/><use transform="matrix(0.008680555555555556,0,0,0.008680555555555556,148.09027777777777,0)" xlink:href="#aq"/><use transform="matrix(0.008680555555555556,0,0,0.008680555555555556,154.69618055555557,0)" xlink:href="#aa"/><use transform="matrix(0.008680555555555556,0,0,0.008680555555555556,165.28645833333334,0)" xlink:href="#ar"/><use transform="matrix(0.008680555555555556,0,0,0.008680555555555556,181.51041666666669,0)" xlink:href="#ag"/><use transform="matrix(0.008680555555555556,0,0,0.008680555555555556,191.83159722222223,0)" xlink:href="#ad"/><use transform="matrix(0.008680555555555556,0,0,0.008680555555555556,196.64930555555557,0)" xlink:href="#ap"/><use transform="matrix(0.008680555555555556,0,0,0.008680555555555556,201.78819444444446,0)" xlink:href="#at"/></g><path fill="#333" d="M135 0v-1490h581c339 0 533 192 533 485 0 204-94 351-264 424L1302 0H964L680-532H440V0H135zm305-779h220c186 0 274-77 274-226 0-150-88-233-275-233H440v459" id="ax"/><path fill="#333" d="M628 22C291 22 81-210 81-554c0-346 210-578 547-578 265 0 455 142 497 372l-279 52c-25-116-99-188-215-188-160 0-244 139-244 341 0 200 84 341 244 341 116 0 193-74 217-195l279 51C1085-123 896 22 628 22" id="ay"/><path fill="#333" d="M428-647V0H128v-1490h294v586c65-146 175-228 341-228 232 0 385 159 385 421V0H847v-659c0-139-76-222-202-222-128 0-217 86-217 234" id="az"/><path fill="#333" d="M818-733v240H140v-240h678" id="aA"/><g id="o"><use transform="matrix(0.008680555555555556,0,0,0.008680555555555556,0,0)" xlink:href="#av"/><use transform="matrix(0.008680555555555556,0,0,0.008680555555555556,13.012152777777779,0)" xlink:href="#ah"/><use transform="matrix(0.008680555555555556,0,0,0.008680555555555556,22.96875,0)" xlink:href="#aa"/><use transform="matrix(0.008680555555555556,0,0,0.008680555555555556,33.55902777777778,0)" xlink:href="#ab"/><use transform="matrix(0.008680555555555556,0,0,0.008680555555555556,41.07638888888889,0)" xlink:href="#ax"/><use transform="matrix(0.008680555555555556,0,0,0.008680555555555556,52.534722222222236,0)" xlink:href="#aa"/><use transform="matrix(0.008680555555555556,0,0,0.008680555555555556,63.125000000000014,0)" xlink:href="#ay"/><use transform="matrix(0.008680555555555556,0,0,0.008680555555555556,73.58506944444446,0)" xlink:href="#aj"/><use transform="matrix(0.008680555555555556,0,0,0.008680555555555556,84.48784722222223,0)" xlink:href="#ab"/><use transform="matrix(0.008680555555555556,0,0,0.008680555555555556,91.29340277777779,0)" xlink:href="#ak"/><use transform="matrix(0.008680555555555556,0,0,0.008680555555555556,102.50000000000001,0)" xlink:href="#aq"/><use transform="matrix(0.008680555555555556,0,0,0.008680555555555556,109.52256944444444,0)" xlink:href="#az"/><use transform="matrix(0.008680555555555556,0,0,0.008680555555555556,120.59027777777779,0)" xlink:href="#ag"/><use transform="matrix(0.008680555555555556,0,0,0.008680555555555556,130.91145833333334,0)" xlink:href="#ah"/><use transform="matrix(0.008680555555555556,0,0,0.008680555555555556,140.86805555555557,0)" xlink:href="#az"/><use transform="matrix(0.008680555555555556,0,0,0.008680555555555556,151.9357638888889,0)" xlink:href="#aa"/><use transform="matrix(0.008680555555555556,0,0,0.008680555555555556,162.52604166666669,0)" xlink:href="#ak"/><use transform="matrix(0.008680555555555556,0,0,0.008680555555555556,173.7326388888889,0)" xlink:href="#aA"/><use transform="matrix(0.008680555555555556,0,0,0.008680555555555556,182.04861111111114,0)" xlink:href="#af"/><use transform="matrix(0.008680555555555556,0,0,0.008680555555555556,193.01215277777783,0)" xlink:href="#ai"/><use transform="matrix(0.008680555555555556,0,0,0.008680555555555556,208.12500000000009,0)" xlink:href="#at"/></g><path d="M226 279v-1860h398v153H398V126h226v153H226" id="aB"/><use transform="matrix(0.010850694444444444,0,0,0.010850694444444444,0,0)" xlink:href="#aB" id="p"/><path d="M600 0L52-1490h200c166 485 304 806 458 1336 156-533 285-846 449-1336h202L819 0H600" id="aC"/><path d="M577 24c-279 0-473-224-473-580 0-354 195-576 474-576 218 0 287 134 324 193h14v-551h180V0H922v-173h-20C865-111 790 24 577 24zm27-161c203 0 314-172 314-421 0-247-108-413-314-413-212 0-317 181-317 413 0 235 108 421 317 421" id="aD"/><g id="q"><use transform="matrix(0.010850694444444444,0,0,0.010850694444444444,0,0)" xlink:href="#aC"/><use transform="matrix(0.010850694444444444,0,0,0.010850694444444444,14.20355902777778,0)" xlink:href="#Q"/><use transform="matrix(0.010850694444444444,0,0,0.010850694444444444,26.68185763888889,0)" xlink:href="#A"/><use transform="matrix(0.010850694444444444,0,0,0.010850694444444444,32.063802083333336,0)" xlink:href="#O"/><use transform="matrix(0.010850694444444444,0,0,0.010850694444444444,37.44574652777778,0)" xlink:href="#aD"/></g><g id="r"><use transform="matrix(0.010850694444444444,0,0,0.010850694444444444,0,0)" xlink:href="#T"/><use transform="matrix(0.010850694444444444,0,0,0.010850694444444444,16.23263888888889,0)" xlink:href="#F"/><use transform="matrix(0.010850694444444444,0,0,0.010850694444444444,24.229600694444443,0)" xlink:href="#E"/><use transform="matrix(0.010850694444444444,0,0,0.010850694444444444,37.18532986111111,0)" xlink:href="#aD"/><use transform="matrix(0.010850694444444444,0,0,0.010850694444444444,50.79210069444444,0)" xlink:href="#O"/><use transform="matrix(0.010850694444444444,0,0,0.010850694444444444,56.174045138888886,0)" xlink:href="#H"/><use transform="matrix(0.010850694444444444,0,0,0.010850694444444444,69.30338541666666,0)" xlink:href="#B"/><use transform="matrix(0.010850694444444444,0,0,0.010850694444444444,76.57335069444443,0)" xlink:href="#O"/><use transform="matrix(0.010850694444444444,0,0,0.010850694444444444,81.95529513888887,0)" xlink:href="#Q"/><use transform="matrix(0.010850694444444444,0,0,0.010850694444444444,94.43359374999997,0)" xlink:href="#A"/><use transform="matrix(0.010850694444444444,0,0,0.010850694444444444,99.81553819444441,0)" xlink:href="#D"/></g><path d="M123 279V126h226v-1554H123v-153h398V279H123" id="aE"/><use transform="matrix(0.010850694444444444,0,0,0.010850694444444444,0,0)" xlink:href="#aE" id="s"/><path fill="#333" d="M513 14c-232 0-385-159-385-421v-711h300v659c0 139 76 222 202 222 127 0 217-86 217-234v-647h301V0H864l-4-232C797-74 683 14 513 14" id="aF"/><g id="t"><use transform="matrix(0.008680555555555556,0,0,0.008680555555555556,0,0)" xlink:href="#ah"/><use transform="matrix(0.008680555555555556,0,0,0.008680555555555556,9.956597222222223,0)" xlink:href="#aF"/><use transform="matrix(0.008680555555555556,0,0,0.008680555555555556,21.024305555555557,0)" xlink:href="#ay"/><use transform="matrix(0.008680555555555556,0,0,0.008680555555555556,31.484375,0)" xlink:href="#ay"/><use transform="matrix(0.008680555555555556,0,0,0.008680555555555556,41.94444444444444,0)" xlink:href="#aa"/><use transform="matrix(0.008680555555555556,0,0,0.008680555555555556,52.53472222222222,0)" xlink:href="#ah"/><use transform="matrix(0.008680555555555556,0,0,0.008680555555555556,62.49131944444444,0)" xlink:href="#ah"/></g><path fill="#333" d="M75-1237v-253h1217v253H837V0H531v-1237H75" id="aG"/><path fill="#333" d="M128 0v-1490h300v802h17l366-430h347L740-633 1179 0H826L514-456l-86 97V0H128" id="aH"/><g id="u"><use transform="matrix(0.008680555555555556,0,0,0.008680555555555556,0,0)" xlink:href="#aG"/><use transform="matrix(0.008680555555555556,0,0,0.008680555555555556,10.477430555555555,0)" xlink:href="#aj"/><use transform="matrix(0.008680555555555556,0,0,0.008680555555555556,21.380208333333336,0)" xlink:href="#aH"/><use transform="matrix(0.008680555555555556,0,0,0.008680555555555556,31.29340277777778,0)" xlink:href="#aa"/><use transform="matrix(0.008680555555555556,0,0,0.008680555555555556,41.88368055555556,0)" xlink:href="#am"/><use transform="matrix(0.008680555555555556,0,0,0.008680555555555556,52.95138888888889,0)" xlink:href="#ah"/></g><path d="M481 0L54-1118h197c107 314 236 620 325 951 87-331 217-637 324-951h197L670 0H481" id="aI"/><g id="v"><use transform="matrix(0.010850694444444444,0,0,0.010850694444444444,0,0)" xlink:href="#O"/><use transform="matrix(0.010850694444444444,0,0,0.010850694444444444,5.381944444444445,0)" xlink:href="#H"/><use transform="matrix(0.010850694444444444,0,0,0.010850694444444444,18.18576388888889,0)" xlink:href="#aI"/><use transform="matrix(0.010850694444444444,0,0,0.010850694444444444,30.56640625,0)" xlink:href="#Q"/><use transform="matrix(0.010850694444444444,0,0,0.010850694444444444,43.044704861111114,0)" xlink:href="#A"/><use transform="matrix(0.010850694444444444,0,0,0.010850694444444444,48.42664930555556,0)" xlink:href="#O"/><use transform="matrix(0.010850694444444444,0,0,0.010850694444444444,53.80859375,0)" xlink:href="#aD"/></g><path fill="#333" d="M659 0H135v-1490h529c448 0 721 280 721 744 0 466-273 746-726 746zM440-263h204c287 0 437-148 437-483 0-333-150-481-435-481H440v964" id="aJ"/><path fill="#333" d="M754 19C571 19 479-89 437-179h-14V0H128v-1490h300v560h9c41-89 129-202 319-202 248 0 453 193 453 575 0 372-197 576-455 576zm-92-241c156 0 240-139 240-336 0-196-83-334-240-334-154 0-241 131-241 334 0 202 88 336 241 336" id="aK"/><g id="w"><use transform="matrix(0.008680555555555556,0,0,0.008680555555555556,0,0)" xlink:href="#ax"/><use transform="matrix(0.008680555555555556,0,0,0.008680555555555556,11.458333333333334,0)" xlink:href="#aa"/><use transform="matrix(0.008680555555555556,0,0,0.008680555555555556,22.048611111111114,0)" xlink:href="#ak"/><use transform="matrix(0.008680555555555556,0,0,0.008680555555555556,33.255208333333336,0)" xlink:href="#ad"/><use transform="matrix(0.008680555555555556,0,0,0.008680555555555556,38.07291666666667,0)" xlink:href="#ab"/><use transform="matrix(0.008680555555555556,0,0,0.008680555555555556,44.878472222222236,0)" xlink:href="#aa"/><use transform="matrix(0.008680555555555556,0,0,0.008680555555555556,55.46875000000001,0)" xlink:href="#ay"/><use transform="matrix(0.008680555555555556,0,0,0.008680555555555556,65.92881944444446,0)" xlink:href="#an"/><use transform="matrix(0.008680555555555556,0,0,0.008680555555555556,71.8402777777778,0)" xlink:href="#aG"/><use transform="matrix(0.008680555555555556,0,0,0.008680555555555556,82.31770833333336,0)" xlink:href="#aj"/><use transform="matrix(0.008680555555555556,0,0,0.008680555555555556,93.22048611111114,0)" xlink:href="#aJ"/><use transform="matrix(0.008680555555555556,0,0,0.008680555555555556,106.05902777777781,0)" xlink:href="#ag"/><use transform="matrix(0.008680555555555556,0,0,0.008680555555555556,116.38020833333337,0)" xlink:href="#ah"/><use transform="matrix(0.008680555555555556,0,0,0.008680555555555556,126.3368055555556,0)" xlink:href="#az"/><use transform="matrix(0.008680555555555556,0,0,0.008680555555555556,137.40451388888894,0)" xlink:href="#aK"/><use transform="matrix(0.008680555555555556,0,0,0.008680555555555556,148.61111111111117,0)" xlink:href="#aj"/><use transform="matrix(0.008680555555555556,0,0,0.008680555555555556,159.68750000000006,0)" xlink:href="#ag"/><use transform="matrix(0.008680555555555556,0,0,0.008680555555555556,170.0086805555556,0)" xlink:href="#ab"/><use transform="matrix(0.008680555555555556,0,0,0.008680555555555556,176.81423611111117,0)" xlink:href="#ak"/><use transform="matrix(0.008680555555555556,0,0,0.008680555555555556,188.0208333333334,0)" xlink:href="#aq"/><use transform="matrix(0.008680555555555556,0,0,0.008680555555555556,194.72222222222229,0)" xlink:href="#at"/></g><path fill="#333" d="M135 0v-1490h468l242 684c30 94 76 293 111 455 34-161 80-360 110-455l238-684h470V0h-307c0-447-3-765 11-1227-122 503-246 788-395 1227H826C676-435 552-717 427-1215c15 453 11 775 11 1215H135" id="aL"/><path fill="#333" d="M625 442c-280 0-454-114-503-274l258-72c28 63 97 128 243 128 153 0 246-69 246-216v-206h-23C805-108 717-16 536-16 284-16 81-191 81-561c0-378 208-571 456-571 188 0 280 113 321 202h13v-188h295V-9c0 303-226 451-541 451zm5-686c153 0 240-119 240-319 0-198-86-329-240-329-158 0-241 137-241 329 0 195 85 319 241 319" id="aM"/><g id="x"><use transform="matrix(0.008680555555555556,0,0,0.008680555555555556,0,0)" xlink:href="#al"/><use transform="matrix(0.008680555555555556,0,0,0.008680555555555556,10.79861111111111,0)" xlink:href="#ab"/><use transform="matrix(0.008680555555555556,0,0,0.008680555555555556,18.16840277777778,0)" xlink:href="#ab"/><use transform="matrix(0.008680555555555556,0,0,0.008680555555555556,24.973958333333336,0)" xlink:href="#aj"/><use transform="matrix(0.008680555555555556,0,0,0.008680555555555556,35.876736111111114,0)" xlink:href="#ab"/><use transform="matrix(0.008680555555555556,0,0,0.008680555555555556,43.39409722222223,0)" xlink:href="#aL"/><use transform="matrix(0.008680555555555556,0,0,0.008680555555555556,59.95659722222222,0)" xlink:href="#ah"/><use transform="matrix(0.008680555555555556,0,0,0.008680555555555556,69.91319444444446,0)" xlink:href="#aM"/></g><path fill="#333" d="M440-1490V0H135v-1490h305" id="aN"/><path fill="#333" d="M443 0L31-1118h319c90 293 199 572 268 885 66-313 175-593 264-885h315L784 0H443" id="aO"/><path fill="#333" d="M135 0v-1490h305v1237h643V0H135" id="aP"/><g id="y"><use transform="matrix(0.008680555555555556,0,0,0.008680555555555556,0,0)" xlink:href="#ah"/><use transform="matrix(0.008680555555555556,0,0,0.008680555555555556,9.956597222222223,0)" xlink:href="#az"/><use transform="matrix(0.008680555555555556,0,0,0.008680555555555556,21.024305555555557,0)" xlink:href="#aj"/><use transform="matrix(0.008680555555555556,0,0,0.008680555555555556,31.68402777777778,0)" xlink:href="#ai"/><use transform="matrix(0.008680555555555556,0,0,0.008680555555555556,46.796875,0)" xlink:href="#aN"/><use transform="matrix(0.008680555555555556,0,0,0.008680555555555556,51.78819444444445,0)" xlink:href="#ar"/><use transform="matrix(0.008680555555555556,0,0,0.008680555555555556,67.70833333333334,0)" xlink:href="#aO"/><use transform="matrix(0.008680555555555556,0,0,0.008680555555555556,78.19444444444446,0)" xlink:href="#ag"/><use transform="matrix(0.008680555555555556,0,0,0.008680555555555556,88.51562500000001,0)" xlink:href="#ap"/><use transform="matrix(0.008680555555555556,0,0,0.008680555555555556,93.33333333333334,0)" xlink:href="#ad"/><use transform="matrix(0.008680555555555556,0,0,0.008680555555555556,98.15104166666667,0)" xlink:href="#ak"/><use transform="matrix(0.008680555555555556,0,0,0.008680555555555556,109.3576388888889,0)" xlink:href="#aP"/><use transform="matrix(0.008680555555555556,0,0,0.008680555555555556,119.40972222222223,0)" xlink:href="#aj"/><use transform="matrix(0.008680555555555556,0,0,0.008680555555555556,130.3125,0)" xlink:href="#aM"/><use transform="matrix(0.008680555555555556,0,0,0.008680555555555556,141.54513888888889,0)" xlink:href="#ad"/><use transform="matrix(0.008680555555555556,0,0,0.008680555555555556,146.36284722222223,0)" xlink:href="#am"/><use transform="matrix(0.008680555555555556,0,0,0.008680555555555556,157.43055555555557,0)" xlink:href="#aq"/><use transform="matrix(0.008680555555555556,0,0,0.008680555555555556,164.13194444444446,0)" xlink:href="#at"/></g></defs></g></svg>